<?xml version="1.0" encoding="UTF-8" standalone="no"?>
<!-- Created with Inkscape (http://www.inkscape.org/) -->

<svg
   width="112.27811mm"
   height="56.554047mm"
   viewBox="0 0 112.27811 56.554047"
   version="1.1"
   id="svg5"
   sodipodi:docname="1.svg"
   inkscape:version="1.1 (c4e8f9ed74, 2021-05-24)"
   xmlns:inkscape="http://www.inkscape.org/namespaces/inkscape"
   xmlns:sodipodi="http://sodipodi.sourceforge.net/DTD/sodipodi-0.dtd"
   xmlns:xlink="http://www.w3.org/1999/xlink"
   xmlns="http://www.w3.org/2000/svg"
   xmlns:svg="http://www.w3.org/2000/svg">
  <sodipodi:namedview
     id="namedview7"
     pagecolor="#ffffff"
     bordercolor="#666666"
     borderopacity="1.0"
     inkscape:pageshadow="2"
     inkscape:pageopacity="0.0"
     inkscape:pagecheckerboard="0"
     inkscape:document-units="mm"
     showgrid="false"
     inkscape:zoom="0.65655864"
     inkscape:cx="53.681328"
     inkscape:cy="369.99268"
     inkscape:window-width="1920"
     inkscape:window-height="1080"
     inkscape:window-x="1920"
     inkscape:window-y="0"
     inkscape:window-maximized="1"
     inkscape:current-layer="layer1"
     showguides="false"
     inkscape:rotation="1"
     fit-margin-top="0"
     fit-margin-left="0"
     fit-margin-right="0"
     fit-margin-bottom="0" />
  <defs
     id="defs2">
    <g
       id="g8718">
      <symbol
         overflow="visible"
         id="symbol971">
        <path
           style="stroke:none"
           d=""
           id="path8499" />
      </symbol>
      <symbol
         overflow="visible"
         id="symbol1802">
        <path
           style="stroke:none"
           d="M 5.078125,-4.03125 C 5.0625,-4.0625 5.03125,-4.140625 5.03125,-4.171875 c 0,0 0.171875,-0.140625 0.28125,-0.21875 l 1.75,-1.34375 C 8,-6.4375 8.390625,-6.46875 8.6875,-6.5 8.765625,-6.515625 8.859375,-6.515625 8.859375,-6.703125 8.859375,-6.734375 8.828125,-6.8125 8.75,-6.8125 c -0.21875,0 -0.46875,0.03125 -0.703125,0.03125 -0.359375,0 -0.75,-0.03125 -1.109375,-0.03125 -0.0625,0 -0.1875,0 -0.1875,0.203125 0,0.0625 0.046875,0.09375 0.125,0.109375 0.21875,0.015625 0.296875,0.0625 0.296875,0.203125 0,0.1875 -0.296875,0.421875 -0.359375,0.46875 L 2.9375,-2.84375 3.734375,-6.046875 C 3.8125,-6.40625 3.84375,-6.5 4.5625,-6.5 c 0.25,0 0.34375,0 0.34375,-0.203125 0,-0.078125 -0.078125,-0.109375 -0.140625,-0.109375 -0.28125,0 -1,0.03125 -1.28125,0.03125 C 3.203125,-6.78125 2.5,-6.8125 2.203125,-6.8125 2.140625,-6.8125 2,-6.8125 2,-6.625 2,-6.5 2.09375,-6.5 2.296875,-6.5 c 0.125,0 0.3125,0.015625 0.421875,0.015625 0.15625,0.03125 0.21875,0.046875 0.21875,0.171875 0,0.03125 0,0.0625 -0.03125,0.1875 L 1.5625,-0.78125 c -0.09375,0.390625 -0.109375,0.46875 -0.90625,0.46875 -0.171875,0 -0.28125,0 -0.28125,0.1875 C 0.375,0 0.5,0 0.53125,0 0.8125,0 1.515625,-0.03125 1.796875,-0.03125 2,-0.03125 2.21875,-0.015625 2.4375,-0.015625 2.65625,-0.015625 2.875,0 3.078125,0 3.15625,0 3.28125,0 3.28125,-0.203125 3.28125,-0.3125 3.1875,-0.3125 3,-0.3125 c -0.375,0 -0.640625,0 -0.640625,-0.171875 0,-0.078125 0.046875,-0.296875 0.078125,-0.4375 C 2.578125,-1.453125 2.71875,-1.96875 2.84375,-2.5 l 1.484375,-1.15625 1.15625,2.6875 c 0.125,0.265625 0.125,0.296875 0.125,0.34375 0,0.3125 -0.4375,0.3125 -0.53125,0.3125 -0.109375,0 -0.21875,0 -0.21875,0.203125 C 4.859375,0 4.984375,0 5,0 5.40625,0 5.828125,-0.03125 6.21875,-0.03125 6.4375,-0.03125 6.984375,0 7.203125,0 7.25,0 7.375,0 7.375,-0.203125 7.375,-0.3125 7.265625,-0.3125 7.171875,-0.3125 c -0.40625,0 -0.53125,-0.09375 -0.6875,-0.4375 z m 0,0"
           id="path3587" />
      </symbol>
    </g>
    <g
       id="g5174">
      <symbol
         overflow="visible"
         id="symbol1721">
        <path
           style="stroke:none"
           d=""
           id="path4876" />
      </symbol>
      <symbol
         overflow="visible"
         id="symbol6214">
        <path
           style="stroke:none"
           d="m 6.4375,-6.921875 c 0,-0.03125 -0.03125,-0.109375 -0.125,-0.109375 -0.046875,0 -0.046875,0.015625 -0.171875,0.15625 L 5.65625,-6.3125 c -0.25,-0.46875 -0.765625,-0.71875 -1.421875,-0.71875 -1.265625,0 -2.453125,1.15625 -2.453125,2.359375 0,0.796875 0.515625,1.265625 1.03125,1.40625 l 1.0625,0.28125 c 0.375,0.09375 0.921875,0.25 0.921875,1.0625 0,0.890625 -0.8125,1.828125 -1.796875,1.828125 -0.640625,0 -1.75,-0.21875 -1.75,-1.453125 0,-0.234375 0.0625,-0.484375 0.0625,-0.53125 0.015625,-0.046875 0.015625,-0.0625 0.015625,-0.078125 0,-0.09375 -0.0625,-0.109375 -0.109375,-0.109375 -0.046875,0 -0.078125,0.015625 -0.109375,0.046875 -0.03125,0.03125 -0.59375,2.3125 -0.59375,2.34375 0,0.046875 0.046875,0.09375 0.109375,0.09375 0.046875,0 0.0625,-0.015625 0.1875,-0.15625 L 1.296875,-0.5 c 0.421875,0.578125 1.109375,0.71875 1.6875,0.71875 1.359375,0 2.53125,-1.328125 2.53125,-2.5625 0,-0.6875 -0.34375,-1.03125 -0.484375,-1.171875 C 4.796875,-3.734375 4.640625,-3.78125 3.765625,-4 3.53125,-4.0625 3.1875,-4.171875 3.09375,-4.1875 2.828125,-4.28125 2.484375,-4.5625 2.484375,-5.09375 c 0,-0.8125 0.796875,-1.65625 1.75,-1.65625 0.8125,0 1.421875,0.4375 1.421875,1.546875 0,0.3125 -0.03125,0.5 -0.03125,0.5625 0,0 0,0.09375 0.109375,0.09375 0.109375,0 0.125,-0.03125 0.15625,-0.203125 z m 0,0"
           id="path8555" />
      </symbol>
    </g>
    <g
       id="g7147">
      <symbol
         overflow="visible"
         id="symbol5658">
        <path
           style="stroke:none"
           d=""
           id="path5080" />
      </symbol>
      <symbol
         overflow="visible"
         id="symbol6457">
        <path
           style="stroke:none"
           d="M 7.609375,-6.046875 C 7.703125,-6.40625 7.71875,-6.5 8.4375,-6.5 c 0.265625,0 0.34375,0 0.34375,-0.203125 0,-0.109375 -0.109375,-0.109375 -0.140625,-0.109375 -0.28125,0 -1,0.03125 -1.28125,0.03125 -0.28125,0 -0.984375,-0.03125 -1.28125,-0.03125 -0.078125,0 -0.1875,0 -0.1875,0.203125 0,0.109375 0.09375,0.109375 0.28125,0.109375 0.015625,0 0.203125,0 0.375,0.015625 0.1875,0.03125 0.265625,0.03125 0.265625,0.171875 0,0.03125 0,0.046875 -0.03125,0.1875 L 6.1875,-3.703125 H 3.140625 l 0.59375,-2.34375 C 3.8125,-6.40625 3.84375,-6.5 4.5625,-6.5 c 0.265625,0 0.34375,0 0.34375,-0.203125 0,-0.109375 -0.109375,-0.109375 -0.140625,-0.109375 -0.28125,0 -1,0.03125 -1.28125,0.03125 -0.28125,0 -0.984375,-0.03125 -1.28125,-0.03125 -0.078125,0 -0.1875,0 -0.1875,0.203125 0,0.109375 0.09375,0.109375 0.28125,0.109375 0.015625,0 0.203125,0 0.375,0.015625 0.171875,0.03125 0.265625,0.03125 0.265625,0.171875 0,0.03125 0,0.0625 -0.03125,0.1875 L 1.5625,-0.78125 c -0.09375,0.390625 -0.109375,0.46875 -0.90625,0.46875 -0.171875,0 -0.265625,0 -0.265625,0.203125 C 0.390625,0 0.515625,0 0.53125,0 0.8125,0 1.515625,-0.03125 1.796875,-0.03125 2,-0.03125 2.21875,-0.015625 2.4375,-0.015625 2.65625,-0.015625 2.875,0 3.078125,0 3.15625,0 3.28125,0 3.28125,-0.203125 3.28125,-0.3125 3.1875,-0.3125 3,-0.3125 c -0.375,0 -0.640625,0 -0.640625,-0.171875 0,-0.0625 0.015625,-0.109375 0.015625,-0.171875 l 0.6875,-2.734375 h 3.03125 c -0.40625,1.65625 -0.640625,2.609375 -0.6875,2.75 C 5.3125,-0.3125 5.125,-0.3125 4.5,-0.3125 c -0.140625,0 -0.234375,0 -0.234375,0.203125 C 4.265625,0 4.390625,0 4.40625,0 4.6875,0 5.390625,-0.03125 5.671875,-0.03125 5.875,-0.03125 6.09375,-0.015625 6.3125,-0.015625 6.53125,-0.015625 6.75,0 6.953125,0 7.03125,0 7.15625,0 7.15625,-0.203125 7.15625,-0.3125 7.0625,-0.3125 6.875,-0.3125 c -0.359375,0 -0.640625,0 -0.640625,-0.171875 0,-0.0625 0.015625,-0.109375 0.03125,-0.171875 z m 0,0"
           id="path138" />
      </symbol>
    </g>
    <g
       id="g862">
      <symbol
         overflow="visible"
         id="symbol7986">
        <path
           style="stroke:none"
           d=""
           id="path1032" />
      </symbol>
      <symbol
         overflow="visible"
         id="symbol9793">
        <path
           style="stroke:none"
           d="M 3.328125,-3.015625 C 3.390625,-3.265625 3.625,-4.1875 4.3125,-4.1875 c 0.046875,0 0.296875,0 0.5,0.125 C 4.53125,-4 4.34375,-3.765625 4.34375,-3.515625 c 0,0.15625 0.109375,0.34375 0.375,0.34375 0.21875,0 0.53125,-0.171875 0.53125,-0.578125 0,-0.515625 -0.578125,-0.65625 -0.921875,-0.65625 -0.578125,0 -0.921875,0.53125 -1.046875,0.75 -0.25,-0.65625 -0.78125,-0.75 -1.078125,-0.75 -1.03125,0 -1.609375,1.28125 -1.609375,1.53125 0,0.109375 0.109375,0.109375 0.125,0.109375 0.078125,0 0.109375,-0.03125 0.125,-0.109375 0.34375,-1.0625 1,-1.3125 1.34375,-1.3125 0.1875,0 0.53125,0.09375 0.53125,0.671875 0,0.3125 -0.171875,0.96875 -0.53125,2.375 -0.15625,0.609375 -0.515625,1.03125 -0.953125,1.03125 -0.0625,0 -0.28125,0 -0.5,-0.125 0.25,-0.0625 0.46875,-0.265625 0.46875,-0.546875 0,-0.265625 -0.21875,-0.34375 -0.359375,-0.34375 -0.3125,0 -0.546875,0.25 -0.546875,0.578125 0,0.453125 0.484375,0.65625 0.921875,0.65625 0.671875,0 1.03125,-0.703125 1.046875,-0.75 0.125,0.359375 0.484375,0.75 1.078125,0.75 1.03125,0 1.59375,-1.28125 1.59375,-1.53125 0,-0.109375 -0.078125,-0.109375 -0.109375,-0.109375 -0.09375,0 -0.109375,0.046875 -0.140625,0.109375 -0.328125,1.078125 -1,1.3125 -1.3125,1.3125 -0.390625,0 -0.546875,-0.3125 -0.546875,-0.65625 0,-0.21875 0.046875,-0.4375 0.15625,-0.875 z m 0,0"
           id="path6883" />
      </symbol>
    </g>
    <g
       id="g7567">
      <symbol
         overflow="visible"
         id="symbol6797">
        <path
           style="stroke:none"
           d=""
           id="path820" />
      </symbol>
      <symbol
         overflow="visible"
         id="symbol6084">
        <path
           style="stroke:none"
           d="m 4.84375,-3.796875 c 0.046875,-0.140625 0.046875,-0.15625 0.046875,-0.234375 0,-0.171875 -0.140625,-0.265625 -0.296875,-0.265625 -0.09375,0 -0.25,0.0625 -0.34375,0.203125 -0.015625,0.0625 -0.109375,0.359375 -0.140625,0.546875 -0.078125,0.25 -0.140625,0.53125 -0.203125,0.796875 l -0.453125,1.796875 c -0.03125,0.140625 -0.46875,0.84375 -1.125,0.84375 -0.5,0 -0.609375,-0.4375 -0.609375,-0.8125 C 1.71875,-1.375 1.890625,-2 2.21875,-2.875 2.375,-3.28125 2.421875,-3.390625 2.421875,-3.59375 c 0,-0.4375 -0.3125,-0.8125 -0.8125,-0.8125 -0.953125,0 -1.3125,1.453125 -1.3125,1.53125 0,0.109375 0.09375,0.109375 0.109375,0.109375 0.109375,0 0.109375,-0.03125 0.15625,-0.1875 0.28125,-0.9375 0.671875,-1.234375 1.015625,-1.234375 0.078125,0 0.25,0 0.25,0.3125 0,0.25 -0.109375,0.515625 -0.171875,0.703125 -0.40625,1.0625 -0.578125,1.625 -0.578125,2.09375 0,0.890625 0.625,1.1875 1.21875,1.1875 0.390625,0 0.71875,-0.171875 1,-0.453125 -0.125,0.515625 -0.25,1.015625 -0.640625,1.546875 -0.265625,0.328125 -0.640625,0.625 -1.09375,0.625 -0.140625,0 -0.59375,-0.03125 -0.765625,-0.421875 0.15625,0 0.296875,0 0.421875,-0.125 C 1.328125,1.203125 1.421875,1.0625 1.421875,0.875 1.421875,0.5625 1.15625,0.53125 1.0625,0.53125 0.828125,0.53125 0.5,0.6875 0.5,1.171875 c 0,0.5 0.4375,0.875 1.0625,0.875 1.015625,0 2.046875,-0.90625 2.328125,-2.03125 z m 0,0"
           id="path466" />
      </symbol>
    </g>
    <g
       id="g6913">
      <symbol
         overflow="visible"
         id="symbol7918">
        <path
           style="stroke:none"
           d=""
           id="path3924" />
      </symbol>
      <symbol
         overflow="visible"
         id="symbol5419">
        <path
           style="stroke:none"
           d="M 3.484375,-0.5625 C 3.59375,-0.15625 3.953125,0.109375 4.375,0.109375 4.71875,0.109375 4.953125,-0.125 5.109375,-0.4375 5.28125,-0.796875 5.40625,-1.40625 5.40625,-1.421875 c 0,-0.109375 -0.078125,-0.109375 -0.109375,-0.109375 -0.109375,0 -0.109375,0.046875 -0.140625,0.1875 -0.140625,0.5625 -0.328125,1.234375 -0.75,1.234375 -0.203125,0 -0.3125,-0.125 -0.3125,-0.453125 0,-0.21875 0.125,-0.6875 0.203125,-1.046875 L 4.578125,-2.6875 C 4.609375,-2.828125 4.703125,-3.203125 4.75,-3.359375 4.796875,-3.59375 4.890625,-3.96875 4.890625,-4.03125 c 0,-0.171875 -0.140625,-0.265625 -0.28125,-0.265625 -0.046875,0 -0.3125,0.015625 -0.390625,0.34375 -0.1875,0.734375 -0.625,2.484375 -0.75,3 -0.015625,0.046875 -0.40625,0.84375 -1.140625,0.84375 -0.515625,0 -0.609375,-0.453125 -0.609375,-0.8125 0,-0.5625 0.28125,-1.34375 0.53125,-2.03125 0.125,-0.3125 0.171875,-0.453125 0.171875,-0.640625 0,-0.4375 -0.3125,-0.8125 -0.8125,-0.8125 -0.953125,0 -1.3125,1.453125 -1.3125,1.53125 0,0.109375 0.09375,0.109375 0.109375,0.109375 0.109375,0 0.109375,-0.03125 0.15625,-0.1875 0.25,-0.859375 0.640625,-1.234375 1.015625,-1.234375 0.09375,0 0.25,0.015625 0.25,0.328125 0,0.234375 -0.109375,0.53125 -0.171875,0.671875 -0.375,1 -0.578125,1.609375 -0.578125,2.09375 0,0.953125 0.6875,1.203125 1.21875,1.203125 0.65625,0 1.015625,-0.453125 1.1875,-0.671875 z m 0,0"
           id="path6617" />
      </symbol>
    </g>
    <g
       id="g9932">
      <symbol
         overflow="visible"
         id="symbol1338">
        <path
           style="stroke:none"
           d=""
           id="path7135" />
      </symbol>
      <symbol
         overflow="visible"
         id="symbol60">
        <path
           style="stroke:none"
           d="m 4.671875,-3.703125 c 0,-0.546875 -0.265625,-0.703125 -0.4375,-0.703125 -0.25,0 -0.5,0.265625 -0.5,0.484375 0,0.125 0.046875,0.1875 0.15625,0.296875 0.21875,0.203125 0.34375,0.453125 0.34375,0.8125 0,0.421875 -0.609375,2.703125 -1.765625,2.703125 -0.515625,0 -0.75,-0.34375 -0.75,-0.875 0,-0.546875 0.28125,-1.28125 0.578125,-2.109375 0.078125,-0.171875 0.125,-0.3125 0.125,-0.5 0,-0.4375 -0.3125,-0.8125 -0.8125,-0.8125 -0.9375,0 -1.3125,1.453125 -1.3125,1.53125 0,0.109375 0.09375,0.109375 0.109375,0.109375 0.109375,0 0.109375,-0.03125 0.15625,-0.1875 0.296875,-1 0.71875,-1.234375 1.015625,-1.234375 0.078125,0 0.25,0 0.25,0.3125 0,0.25 -0.109375,0.53125 -0.171875,0.703125 -0.4375,1.15625 -0.5625,1.609375 -0.5625,2.046875 0,1.078125 0.875,1.234375 1.328125,1.234375 1.671875,0 2.25,-3.296875 2.25,-3.8125 z m 0,0"
           id="path1669" />
      </symbol>
    </g>
    <g
       id="g8777">
      <symbol
         overflow="visible"
         id="symbol7035">
        <path
           style="stroke:none"
           d=""
           id="path7925" />
      </symbol>
      <symbol
         overflow="visible"
         id="symbol8596">
        <path
           style="stroke:none"
           d="m 1.859375,-2.296875 c 0.296875,0 1.03125,-0.03125 1.53125,-0.234375 0.703125,-0.296875 0.75,-0.890625 0.75,-1.03125 0,-0.4375 -0.375,-0.84375 -1.0625,-0.84375 -1.109375,0 -2.625,0.96875 -2.625,2.71875 0,1.015625 0.59375,1.796875 1.578125,1.796875 1.421875,0 2.25,-1.0625 2.25,-1.171875 0,-0.0625 -0.046875,-0.140625 -0.109375,-0.140625 -0.0625,0 -0.078125,0.03125 -0.140625,0.109375 -0.78125,0.984375 -1.875,0.984375 -1.984375,0.984375 -0.78125,0 -0.875,-0.84375 -0.875,-1.15625 0,-0.125 0.015625,-0.421875 0.15625,-1.03125 z m -0.46875,-0.21875 C 1.78125,-4.03125 2.8125,-4.1875 3.078125,-4.1875 c 0.453125,0 0.734375,0.296875 0.734375,0.625 0,1.046875 -1.59375,1.046875 -2.015625,1.046875 z m 0,0"
           id="path9574" />
      </symbol>
      <symbol
         overflow="visible"
         id="symbol3869">
        <path
           style="stroke:none"
           d=""
           id="path1360" />
      </symbol>
      <symbol
         overflow="visible"
         id="symbol1851">
        <path
           style="stroke:none"
           d="m 2.328125,-4.4375 c 0,-0.1875 0,-0.1875 -0.203125,-0.1875 -0.453125,0.4375 -1.078125,0.4375 -1.359375,0.4375 v 0.25 c 0.15625,0 0.625,0 1,-0.1875 v 3.546875 c 0,0.234375 0,0.328125 -0.6875,0.328125 H 0.8125 V 0 c 0.125,0 0.984375,-0.03125 1.234375,-0.03125 0.21875,0 1.09375,0.03125 1.25,0.03125 V -0.25 H 3.03125 c -0.703125,0 -0.703125,-0.09375 -0.703125,-0.328125 z m 0,0"
           id="path9322" />
      </symbol>
    </g>
    <g
       id="g4479">
      <symbol
         overflow="visible"
         id="symbol4120">
        <path
           style="stroke:none"
           d=""
           id="path9422" />
      </symbol>
      <symbol
         overflow="visible"
         id="symbol3630">
        <path
           style="stroke:none"
           d="m 1.859375,-2.296875 c 0.296875,0 1.03125,-0.03125 1.53125,-0.234375 0.703125,-0.296875 0.75,-0.890625 0.75,-1.03125 0,-0.4375 -0.375,-0.84375 -1.0625,-0.84375 -1.109375,0 -2.625,0.96875 -2.625,2.71875 0,1.015625 0.59375,1.796875 1.578125,1.796875 1.421875,0 2.25,-1.0625 2.25,-1.171875 0,-0.0625 -0.046875,-0.140625 -0.109375,-0.140625 -0.0625,0 -0.078125,0.03125 -0.140625,0.109375 -0.78125,0.984375 -1.875,0.984375 -1.984375,0.984375 -0.78125,0 -0.875,-0.84375 -0.875,-1.15625 0,-0.125 0.015625,-0.421875 0.15625,-1.03125 z m -0.46875,-0.21875 C 1.78125,-4.03125 2.8125,-4.1875 3.078125,-4.1875 c 0.453125,0 0.734375,0.296875 0.734375,0.625 0,1.046875 -1.59375,1.046875 -2.015625,1.046875 z m 0,0"
           id="path1369" />
      </symbol>
      <symbol
         overflow="visible"
         id="symbol7510">
        <path
           style="stroke:none"
           d=""
           id="path4395" />
      </symbol>
      <symbol
         overflow="visible"
         id="symbol2960">
        <path
           style="stroke:none"
           d="M 3.515625,-1.265625 H 3.28125 c -0.015625,0.15625 -0.09375,0.5625 -0.1875,0.625 C 3.046875,-0.59375 2.515625,-0.59375 2.40625,-0.59375 H 1.125 c 0.734375,-0.640625 0.984375,-0.84375 1.390625,-1.171875 0.515625,-0.40625 1,-0.84375 1,-1.5 0,-0.84375 -0.734375,-1.359375 -1.625,-1.359375 -0.859375,0 -1.453125,0.609375 -1.453125,1.25 0,0.34375 0.296875,0.390625 0.375,0.390625 0.15625,0 0.359375,-0.125 0.359375,-0.375 0,-0.125 -0.046875,-0.375 -0.40625,-0.375 C 0.984375,-4.21875 1.453125,-4.375 1.78125,-4.375 c 0.703125,0 1.0625,0.546875 1.0625,1.109375 0,0.609375 -0.4375,1.078125 -0.65625,1.328125 L 0.515625,-0.265625 C 0.4375,-0.203125 0.4375,-0.1875 0.4375,0 h 2.875 z m 0,0"
           id="path493" />
      </symbol>
    </g>
    <g
       id="g2126">
      <symbol
         overflow="visible"
         id="symbol7900">
        <path
           style="stroke:none"
           d=""
           id="path5420" />
      </symbol>
      <symbol
         overflow="visible"
         id="symbol4654">
        <path
           style="stroke:none"
           d="M 3.734375,-6.03125 C 3.8125,-6.390625 3.84375,-6.5 4.78125,-6.5 c 0.296875,0 0.375,0 0.375,-0.1875 0,-0.125 -0.109375,-0.125 -0.15625,-0.125 -0.328125,0 -1.140625,0.03125 -1.46875,0.03125 -0.296875,0 -1.03125,-0.03125 -1.328125,-0.03125 -0.0625,0 -0.1875,0 -0.1875,0.203125 0,0.109375 0.09375,0.109375 0.28125,0.109375 0.015625,0 0.203125,0 0.375,0.015625 0.171875,0.03125 0.265625,0.03125 0.265625,0.171875 0,0.03125 0,0.0625 -0.03125,0.1875 L 1.5625,-0.78125 c -0.09375,0.390625 -0.109375,0.46875 -0.90625,0.46875 -0.171875,0 -0.265625,0 -0.265625,0.203125 C 0.390625,0 0.484375,0 0.65625,0 h 4.625 C 5.515625,0 5.515625,0 5.578125,-0.171875 L 6.375,-2.328125 c 0.03125,-0.109375 0.03125,-0.125 0.03125,-0.140625 0,-0.03125 -0.03125,-0.109375 -0.109375,-0.109375 -0.09375,0 -0.109375,0.0625 -0.171875,0.21875 -0.34375,0.90625 -0.78125,2.046875 -2.5,2.046875 H 2.6875 c -0.140625,0 -0.171875,0 -0.21875,0 -0.109375,-0.015625 -0.140625,-0.03125 -0.140625,-0.109375 0,-0.03125 0,-0.046875 0.046875,-0.21875 z m 0,0"
           id="path667" />
      </symbol>
      <symbol
         overflow="visible"
         id="symbol3203">
        <path
           style="stroke:none"
           d=""
           id="path2096" />
      </symbol>
      <symbol
         overflow="visible"
         id="symbol5279">
        <path
           style="stroke:none"
           d="m 2.328125,-4.4375 c 0,-0.1875 0,-0.1875 -0.203125,-0.1875 -0.453125,0.4375 -1.078125,0.4375 -1.359375,0.4375 v 0.25 c 0.15625,0 0.625,0 1,-0.1875 v 3.546875 c 0,0.234375 0,0.328125 -0.6875,0.328125 H 0.8125 V 0 c 0.125,0 0.984375,-0.03125 1.234375,-0.03125 0.21875,0 1.09375,0.03125 1.25,0.03125 V -0.25 H 3.03125 c -0.703125,0 -0.703125,-0.09375 -0.703125,-0.328125 z m 0,0"
           id="path2984" />
      </symbol>
    </g>
    <g
       id="g3560">
      <symbol
         overflow="visible"
         id="symbol9662">
        <path
           style="stroke:none"
           d=""
           id="path5854" />
      </symbol>
      <symbol
         overflow="visible"
         id="symbol8608">
        <path
           style="stroke:none"
           d="M 3.734375,-6.03125 C 3.8125,-6.390625 3.84375,-6.5 4.78125,-6.5 c 0.296875,0 0.375,0 0.375,-0.1875 0,-0.125 -0.109375,-0.125 -0.15625,-0.125 -0.328125,0 -1.140625,0.03125 -1.46875,0.03125 -0.296875,0 -1.03125,-0.03125 -1.328125,-0.03125 -0.0625,0 -0.1875,0 -0.1875,0.203125 0,0.109375 0.09375,0.109375 0.28125,0.109375 0.015625,0 0.203125,0 0.375,0.015625 0.171875,0.03125 0.265625,0.03125 0.265625,0.171875 0,0.03125 0,0.0625 -0.03125,0.1875 L 1.5625,-0.78125 c -0.09375,0.390625 -0.109375,0.46875 -0.90625,0.46875 -0.171875,0 -0.265625,0 -0.265625,0.203125 C 0.390625,0 0.484375,0 0.65625,0 h 4.625 C 5.515625,0 5.515625,0 5.578125,-0.171875 L 6.375,-2.328125 c 0.03125,-0.109375 0.03125,-0.125 0.03125,-0.140625 0,-0.03125 -0.03125,-0.109375 -0.109375,-0.109375 -0.09375,0 -0.109375,0.0625 -0.171875,0.21875 -0.34375,0.90625 -0.78125,2.046875 -2.5,2.046875 H 2.6875 c -0.140625,0 -0.171875,0 -0.21875,0 -0.109375,-0.015625 -0.140625,-0.03125 -0.140625,-0.109375 0,-0.03125 0,-0.046875 0.046875,-0.21875 z m 0,0"
           id="path1757" />
      </symbol>
      <symbol
         overflow="visible"
         id="symbol48">
        <path
           style="stroke:none"
           d=""
           id="path8115" />
      </symbol>
      <symbol
         overflow="visible"
         id="symbol401">
        <path
           style="stroke:none"
           d="M 3.515625,-1.265625 H 3.28125 c -0.015625,0.15625 -0.09375,0.5625 -0.1875,0.625 C 3.046875,-0.59375 2.515625,-0.59375 2.40625,-0.59375 H 1.125 c 0.734375,-0.640625 0.984375,-0.84375 1.390625,-1.171875 0.515625,-0.40625 1,-0.84375 1,-1.5 0,-0.84375 -0.734375,-1.359375 -1.625,-1.359375 -0.859375,0 -1.453125,0.609375 -1.453125,1.25 0,0.34375 0.296875,0.390625 0.375,0.390625 0.15625,0 0.359375,-0.125 0.359375,-0.375 0,-0.125 -0.046875,-0.375 -0.40625,-0.375 C 0.984375,-4.21875 1.453125,-4.375 1.78125,-4.375 c 0.703125,0 1.0625,0.546875 1.0625,1.109375 0,0.609375 -0.4375,1.078125 -0.65625,1.328125 L 0.515625,-0.265625 C 0.4375,-0.203125 0.4375,-0.1875 0.4375,0 h 2.875 z m 0,0"
           id="path4580" />
      </symbol>
    </g>
    <g
       id="g1349">
      <symbol
         overflow="visible"
         id="symbol8901">
        <path
           style="stroke:none"
           d=""
           id="path9817" />
      </symbol>
      <symbol
         overflow="visible"
         id="symbol8577">
        <path
           style="stroke:none"
           d="M 3.734375,-6.03125 C 3.8125,-6.390625 3.84375,-6.5 4.78125,-6.5 c 0.296875,0 0.375,0 0.375,-0.1875 0,-0.125 -0.109375,-0.125 -0.15625,-0.125 -0.328125,0 -1.140625,0.03125 -1.46875,0.03125 -0.296875,0 -1.03125,-0.03125 -1.328125,-0.03125 -0.0625,0 -0.1875,0 -0.1875,0.203125 0,0.109375 0.09375,0.109375 0.28125,0.109375 0.015625,0 0.203125,0 0.375,0.015625 0.171875,0.03125 0.265625,0.03125 0.265625,0.171875 0,0.03125 0,0.0625 -0.03125,0.1875 L 1.5625,-0.78125 c -0.09375,0.390625 -0.109375,0.46875 -0.90625,0.46875 -0.171875,0 -0.265625,0 -0.265625,0.203125 C 0.390625,0 0.484375,0 0.65625,0 h 4.625 C 5.515625,0 5.515625,0 5.578125,-0.171875 L 6.375,-2.328125 c 0.03125,-0.109375 0.03125,-0.125 0.03125,-0.140625 0,-0.03125 -0.03125,-0.109375 -0.109375,-0.109375 -0.09375,0 -0.109375,0.0625 -0.171875,0.21875 -0.34375,0.90625 -0.78125,2.046875 -2.5,2.046875 H 2.6875 c -0.140625,0 -0.171875,0 -0.21875,0 -0.109375,-0.015625 -0.140625,-0.03125 -0.140625,-0.109375 0,-0.03125 0,-0.046875 0.046875,-0.21875 z m 0,0"
           id="path3880" />
      </symbol>
      <symbol
         overflow="visible"
         id="symbol5057">
        <path
           style="stroke:none"
           d=""
           id="path2580" />
      </symbol>
      <symbol
         overflow="visible"
         id="symbol3754">
        <path
           style="stroke:none"
           d="m 1.90625,-2.328125 c 0.546875,0 0.9375,0.375 0.9375,1.125 0,0.859375 -0.515625,1.125 -0.90625,1.125 -0.28125,0 -0.90625,-0.078125 -1.1875,-0.5 0.328125,0 0.40625,-0.234375 0.40625,-0.390625 0,-0.21875 -0.171875,-0.375 -0.390625,-0.375 -0.1875,0 -0.390625,0.125 -0.390625,0.40625 0,0.65625 0.71875,1.078125 1.5625,1.078125 0.96875,0 1.640625,-0.65625 1.640625,-1.34375 0,-0.546875 -0.4375,-1.09375 -1.203125,-1.25 0.71875,-0.265625 0.984375,-0.78125 0.984375,-1.21875 0,-0.546875 -0.625,-0.953125 -1.40625,-0.953125 -0.765625,0 -1.359375,0.375 -1.359375,0.9375 0,0.234375 0.15625,0.359375 0.359375,0.359375 0.21875,0 0.359375,-0.15625 0.359375,-0.34375 0,-0.203125 -0.140625,-0.359375 -0.359375,-0.375 0.25,-0.296875 0.71875,-0.375 0.984375,-0.375 0.3125,0 0.75,0.15625 0.75,0.75 0,0.296875 -0.09375,0.625 -0.28125,0.828125 -0.21875,0.265625 -0.421875,0.28125 -0.765625,0.3125 -0.171875,0.015625 -0.1875,0.015625 -0.21875,0.015625 -0.015625,0 -0.078125,0.015625 -0.078125,0.09375 0,0.09375 0.0625,0.09375 0.1875,0.09375 z m 0,0"
           id="path9214" />
      </symbol>
    </g>
    <g
       id="g770">
      <symbol
         overflow="visible"
         id="symbol8119">
        <path
           style="stroke:none"
           d=""
           id="path8940" />
      </symbol>
      <symbol
         overflow="visible"
         id="symbol3872">
        <path
           style="stroke:none"
           d="m 6.71875,-3.234375 c 0.140625,-0.0625 0.203125,-0.125 0.203125,-0.21875 0,-0.09375 -0.046875,-0.15625 -0.203125,-0.21875 l -5.5,-2.59375 C 1.09375,-6.34375 1.046875,-6.34375 1.03125,-6.34375 c -0.125,0 -0.203125,0.09375 -0.203125,0.203125 0,0.125 0.078125,0.171875 0.1875,0.21875 L 6.25,-3.453125 1.03125,-1 c -0.1875,0.09375 -0.203125,0.171875 -0.203125,0.234375 0,0.109375 0.09375,0.203125 0.203125,0.203125 0.03125,0 0.046875,0 0.171875,-0.078125 z M 6.5625,1.359375 c 0.171875,0 0.359375,0 0.359375,-0.1875 0,-0.203125 -0.21875,-0.203125 -0.359375,-0.203125 h -5.375 c -0.15625,0 -0.359375,0 -0.359375,0.203125 0,0.1875 0.171875,0.1875 0.34375,0.1875 z m 0,0"
           id="path2534" />
      </symbol>
      <symbol
         overflow="visible"
         id="symbol5583">
        <path
           style="stroke:none"
           d=""
           id="path2612" />
      </symbol>
      <symbol
         overflow="visible"
         id="symbol7714">
        <path
           style="stroke:none"
           d="m 2.890625,-3.515625 c 0.8125,-0.265625 1.390625,-0.953125 1.390625,-1.75 0,-0.8125 -0.875,-1.375 -1.828125,-1.375 -1,0 -1.765625,0.59375 -1.765625,1.359375 0,0.328125 0.21875,0.515625 0.515625,0.515625 0.296875,0 0.5,-0.21875 0.5,-0.515625 0,-0.484375 -0.46875,-0.484375 -0.609375,-0.484375 0.296875,-0.5 0.953125,-0.625 1.3125,-0.625 0.421875,0 0.96875,0.21875 0.96875,1.109375 0,0.125 -0.03125,0.703125 -0.28125,1.140625 C 2.796875,-3.65625 2.453125,-3.625 2.203125,-3.625 2.125,-3.609375 1.890625,-3.59375 1.8125,-3.59375 c -0.078125,0.015625 -0.140625,0.03125 -0.140625,0.125 0,0.109375 0.0625,0.109375 0.234375,0.109375 h 0.4375 c 0.8125,0 1.1875,0.671875 1.1875,1.65625 0,1.359375 -0.6875,1.640625 -1.125,1.640625 -0.4375,0 -1.1875,-0.171875 -1.53125,-0.75 0.34375,0.046875 0.65625,-0.171875 0.65625,-0.546875 0,-0.359375 -0.265625,-0.5625 -0.546875,-0.5625 -0.25,0 -0.5625,0.140625 -0.5625,0.578125 0,0.90625 0.921875,1.5625 2.015625,1.5625 1.21875,0 2.125,-0.90625 2.125,-1.921875 0,-0.8125 -0.640625,-1.59375 -1.671875,-1.8125 z m 0,0"
           id="path7418" />
      </symbol>
    </g>
    <g
       id="g6948">
      <symbol
         overflow="visible"
         id="symbol9691">
        <path
           style="stroke:none"
           d=""
           id="path1364" />
      </symbol>
      <symbol
         overflow="visible"
         id="symbol9361">
        <path
           style="stroke:none"
           d="m 6.734375,-5.921875 c 0.109375,-0.046875 0.1875,-0.09375 0.1875,-0.21875 0,-0.109375 -0.078125,-0.203125 -0.203125,-0.203125 -0.046875,0 -0.140625,0.046875 -0.171875,0.0625 L 1.03125,-3.671875 c -0.171875,0.078125 -0.203125,0.140625 -0.203125,0.21875 0,0.09375 0.0625,0.15625 0.203125,0.21875 l 5.515625,2.59375 C 6.671875,-0.5625 6.6875,-0.5625 6.71875,-0.5625 c 0.109375,0 0.203125,-0.09375 0.203125,-0.203125 C 6.921875,-0.859375 6.875,-0.921875 6.703125,-1 L 1.5,-3.453125 Z M 6.5625,1.359375 c 0.171875,0 0.359375,0 0.359375,-0.1875 0,-0.203125 -0.21875,-0.203125 -0.359375,-0.203125 h -5.375 c -0.15625,0 -0.359375,0 -0.359375,0.203125 0,0.1875 0.171875,0.1875 0.34375,0.1875 z m 0,0"
           id="path8297" />
      </symbol>
      <symbol
         overflow="visible"
         id="symbol7163">
        <path
           style="stroke:none"
           d=""
           id="path8026" />
      </symbol>
      <symbol
         overflow="visible"
         id="symbol7527">
        <path
           style="stroke:none"
           d="m 2.890625,-3.515625 c 0.8125,-0.265625 1.390625,-0.953125 1.390625,-1.75 0,-0.8125 -0.875,-1.375 -1.828125,-1.375 -1,0 -1.765625,0.59375 -1.765625,1.359375 0,0.328125 0.21875,0.515625 0.515625,0.515625 0.296875,0 0.5,-0.21875 0.5,-0.515625 0,-0.484375 -0.46875,-0.484375 -0.609375,-0.484375 0.296875,-0.5 0.953125,-0.625 1.3125,-0.625 0.421875,0 0.96875,0.21875 0.96875,1.109375 0,0.125 -0.03125,0.703125 -0.28125,1.140625 C 2.796875,-3.65625 2.453125,-3.625 2.203125,-3.625 2.125,-3.609375 1.890625,-3.59375 1.8125,-3.59375 c -0.078125,0.015625 -0.140625,0.03125 -0.140625,0.125 0,0.109375 0.0625,0.109375 0.234375,0.109375 h 0.4375 c 0.8125,0 1.1875,0.671875 1.1875,1.65625 0,1.359375 -0.6875,1.640625 -1.125,1.640625 -0.4375,0 -1.1875,-0.171875 -1.53125,-0.75 0.34375,0.046875 0.65625,-0.171875 0.65625,-0.546875 0,-0.359375 -0.265625,-0.5625 -0.546875,-0.5625 -0.25,0 -0.5625,0.140625 -0.5625,0.578125 0,0.90625 0.921875,1.5625 2.015625,1.5625 1.21875,0 2.125,-0.90625 2.125,-1.921875 0,-0.8125 -0.640625,-1.59375 -1.671875,-1.8125 z m 0,0"
           id="path8946" />
      </symbol>
    </g>
    <g
       id="g2191">
      <symbol
         overflow="visible"
         id="symbol1982">
        <path
           style="stroke:none"
           d=""
           id="path744" />
      </symbol>
      <symbol
         overflow="visible"
         id="symbol8552">
        <path
           style="stroke:none"
           d="m 6.4375,-6.921875 c 0,-0.03125 -0.03125,-0.109375 -0.125,-0.109375 -0.046875,0 -0.046875,0.015625 -0.171875,0.15625 L 5.65625,-6.3125 c -0.25,-0.46875 -0.765625,-0.71875 -1.421875,-0.71875 -1.265625,0 -2.453125,1.15625 -2.453125,2.359375 0,0.796875 0.515625,1.265625 1.03125,1.40625 l 1.0625,0.28125 c 0.375,0.09375 0.921875,0.25 0.921875,1.0625 0,0.890625 -0.8125,1.828125 -1.796875,1.828125 -0.640625,0 -1.75,-0.21875 -1.75,-1.453125 0,-0.234375 0.0625,-0.484375 0.0625,-0.53125 0.015625,-0.046875 0.015625,-0.0625 0.015625,-0.078125 0,-0.09375 -0.0625,-0.109375 -0.109375,-0.109375 -0.046875,0 -0.078125,0.015625 -0.109375,0.046875 -0.03125,0.03125 -0.59375,2.3125 -0.59375,2.34375 0,0.046875 0.046875,0.09375 0.109375,0.09375 0.046875,0 0.0625,-0.015625 0.1875,-0.15625 L 1.296875,-0.5 c 0.421875,0.578125 1.109375,0.71875 1.6875,0.71875 1.359375,0 2.53125,-1.328125 2.53125,-2.5625 0,-0.6875 -0.34375,-1.03125 -0.484375,-1.171875 C 4.796875,-3.734375 4.640625,-3.78125 3.765625,-4 3.53125,-4.0625 3.1875,-4.171875 3.09375,-4.1875 2.828125,-4.28125 2.484375,-4.5625 2.484375,-5.09375 c 0,-0.8125 0.796875,-1.65625 1.75,-1.65625 0.8125,0 1.421875,0.4375 1.421875,1.546875 0,0.3125 -0.03125,0.5 -0.03125,0.5625 0,0 0,0.09375 0.109375,0.09375 0.109375,0 0.125,-0.03125 0.15625,-0.203125 z m 0,0"
           id="path9892" />
      </symbol>
    </g>
  </defs>
  <g
     inkscape:label="Layer 1"
     inkscape:groupmode="layer"
     id="layer1"
     transform="translate(-17.980874,44.623239)">
    <path
       style="fill:#000000;stroke-width:0.264583"
       d="M 45.623592,11.571422 C 36.075188,10.625489 27.394414,7.758893 22.284585,3.864335 20.832623,2.757694 18.902502,0.09772673 18.433171,-1.4434288 c -0.550164,-1.8065961 -0.60755,-5.0665061 -0.121972,-6.9288923 1.452686,-5.5716409 7.633573,-14.0481599 14.798006,-20.2941099 5.324163,-4.641603 11.38604,-8.9411 15.766006,-11.182326 0.945885,-0.484009 2.553229,-1.325043 3.571875,-1.868963 2.728494,-1.456919 5.413687,-2.579043 6.614583,-2.764189 0.78721,-0.121367 0.516089,0.04377 -1.058333,0.644627 -2.558881,0.976557 -9.766147,4.593384 -12.235958,6.140379 -9.333902,5.846392 -17.638234,13.523414 -22.692904,20.978679 -3.362981,4.960149 -4.751653,8.3905064 -4.714472,11.6458946 0.04266,3.734972 1.793663,6.8735256 5.078045,9.1020395 9.675329,6.5648889 27.13645,9.0342239 45.016331,6.3661689 5.773097,-0.8614678 23.902612,-5.5302867 29.236459,-7.5291422 4.087883,-1.5319322 5.617593,-2.18498207 10.839793,-4.6276047 2.88724,-1.350473 8.8293,-4.6990158 10.72375,-6.0431785 2.56774,-1.8218811 5.85229,-5.1993296 7.37835,-7.5870326 0.74406,-1.164167 1.35284,-2.272789 1.35286,-2.463607 6e-5,-0.490222 -1.63756,-0.228309 -6.61454,1.057902 -7.01253,1.812261 -9.21811,2.232179 -20.6375,3.929166 -4.31324,0.640971 -4.27301,0.629306 -4.745069,1.376188 -2.417088,3.8242658 -3.006587,4.915799 -2.966611,5.493059 0.06154,0.888656 -0.468929,2.1166666 -0.914342,2.1166666 -0.756724,0 -0.790485,-2.6331518 -0.03405,-2.6554217 0.359241,-0.010583 3.455041,-5.0190449 3.237069,-5.2370169 -0.267396,-0.267396 -3.497993,0.494411 -6.88013,1.622401 l -3.439583,1.1471514 0.08926,0.887857 c 0.119941,1.1930697 -0.193738,3.1766959 -0.502346,3.1766959 -0.136604,0 -0.248372,-0.8473228 -0.248372,-1.8829416 0,-1.6719232 -0.05189,-1.8667518 -0.463021,-1.7384765 -0.254661,0.079454 -2.368021,0.6858026 -4.696354,1.3474382 -5.709375,1.622417 -6.217708,1.7915704 -6.217708,2.0690019 0,0.1317175 0.654843,0.8943313 1.455208,1.6946959 1.570964,1.5709635 1.644687,1.685282 1.086832,1.685282 -0.202605,0 -1.029761,-0.714375 -1.838119,-1.5874999 -0.80836,-0.873125 -1.658035,-1.5875 -1.88817,-1.5875 -0.336227,0 -8.623991,3.5281552 -12.838668,5.46550306 L 58.003334,0.9511376 60.10774,1.9742998 c 2.100987,1.0214981 3.054969,1.2583822 3.054969,0.758579 0,-0.48836 0.491591,-0.2706265 0.671941,0.2976165 0.211082,0.665054 -0.220858,1.0146506 -1.03196,0.8352393 C 62.491379,3.7968716 61.081991,3.1985533 59.670722,2.5361372 L 57.10478,1.3317407 55.56968,2.2587084 c -7.651401,4.620289 -8.632282,5.3146614 -8.958215,6.3415887 -0.08424,0.2654194 -0.267263,0.4825815 -0.406715,0.4825815 -0.39103,0 0.418166,-1.3749734 1.257774,-2.1371877 0.413176,-0.3750892 1.703726,-1.2627504 2.867893,-1.9725798 1.164167,-0.7098295 2.965178,-1.8418889 4.002249,-2.51569 l 1.88558,-1.2250949 -2.67933,-0.85465973 C 52.065284,-0.09239491 49.609429,-0.88072358 48.081461,-1.3741741 46.553492,-1.867622 44.708023,-2.4025037 43.980419,-2.5627962 43.252815,-2.7230887 41.969654,-3.1626595 41.128954,-3.5396246 l -1.528551,-0.6853846 -0.588116,0.5396706 c -0.323466,0.2968202 -1.242962,0.9389851 -2.043327,1.4270328 -1.265008,0.7713768 -1.685314,0.8875395 -3.215739,0.8887513 -1.576122,0.00132 -1.866996,-0.084706 -2.77694,-0.8205708 -0.559025,-0.4520776 -1.314598,-1.4014 -1.679052,-2.1096022 -0.589223,-1.1449711 -0.662644,-1.6108997 -0.662644,-4.2051234 0,-2.5868521 0.08416,-3.1244411 0.742627,-4.7437251 0.724233,-1.781013 2.239777,-4.275375 2.462403,-4.052752 0.06122,0.06122 -0.311766,0.813731 -0.828863,1.67224 -2.627172,4.361754 -2.698028,10.0325688 -0.157104,12.5734948 1.253375,1.2533735 2.511453,1.522378 4.374005,0.9352623 1.498769,-0.4724452 3.593391,-1.8788009 3.593391,-2.412648 0,-0.1875023 -0.378013,-0.416515 -0.840031,-0.5089181 -0.638589,-0.1277196 -0.97769,-0.038685 -1.414078,0.3712819 -0.623726,0.5859594 -1.305249,0.4895744 -1.5788,-0.2232872 -0.113912,-0.2968519 0.09807,-0.6813285 0.645176,-1.1701674 0.79263,-0.7082155 1.600233,-0.9606729 1.600233,-0.5002344 0,0.1252987 0.532196,0.5101457 1.182658,0.8552153 1.380318,0.7322555 1.311974,0.7805764 2.841646,-2.0090738 0.786019,-1.4334569 0.868913,-1.7928907 0.854258,-3.7041664 -0.01315,-1.714421 -0.150053,-2.404123 -0.72041,-3.629292 -1.339686,-2.877751 -3.583149,-4.686345 -5.829192,-4.699273 -1.153613,-0.0066 -1.858191,0.301496 -2.890263,1.264 -0.398664,0.371795 -0.805235,0.595598 -0.90349,0.497342 -0.343,-0.343 1.952853,-2.223852 2.940757,-2.409185 2.079295,-0.390077 4.984722,1.102702 6.337557,3.256177 2.384931,3.796382 2.358951,7.6889213 -0.07493,11.2264453 l -0.841515,1.2230999 1.021797,0.5212821 c 0.561991,0.2867051 2.023507,0.7758456 3.247816,1.0869771 1.224312,0.3111315 2.724595,0.7848944 3.333967,1.0528062 0.60937,0.2679144 1.740464,0.6197785 2.513542,0.7819231 0.773075,0.1621472 2.647426,0.68904109 4.165224,1.17087908 l 2.759631,0.87606978 2.664328,-1.16936834 c 1.465379,-0.64315182 4.519948,-1.99350042 6.78793,-3.00077182 2.267982,-1.0072713 4.321811,-1.8314034 4.564063,-1.8314034 0.242253,0 0.44046,-0.1827821 0.44046,-0.406183 0,-0.6914013 -0.749176,-1.5974034 -2.381046,-2.8794736 -0.862002,-0.6772275 -2.059591,-1.9331624 -2.661307,-2.7909674 -1.040217,-1.482929 -1.449922,-1.831356 -4.197591,-3.569751 -0.643583,-0.407183 -1.451991,-1.075277 -1.79646,-1.484656 -0.61591,-0.731967 -0.644249,-0.737992 -1.707382,-0.362895 -2.558646,0.902743 -4.947283,0.05948 -6.039427,-2.132115 -1.525112,-3.060422 -0.649275,-8.980027 1.754812,-11.860404 0.817208,-0.979109 0.804158,-0.466771 -0.019,0.746229 -1.236271,1.821733 -1.870311,4.244065 -1.870311,7.145425 0,2.258401 0.08962,2.813754 0.612058,3.792598 1.029766,1.929387 3.660071,2.672601 5.663658,1.600314 0.510114,-0.273003 0.508108,-0.292394 -0.0968,-0.936289 -0.433168,-0.461087 -0.81104,-0.620554 -1.264872,-0.5338 -0.355944,0.06804 -0.803545,0.06371 -0.994669,-0.0096 -0.43088,-0.165344 -0.458484,-1.299827 -0.03795,-1.55973 0.212328,-0.131225 0.252642,-0.04302 0.12836,0.280855 -0.149104,0.38856 -0.07618,0.444707 0.411824,0.31709 0.439637,-0.114966 0.911735,0.113676 1.825326,0.884026 l 1.232313,1.039101 1.396097,-0.982057 c 1.852565,-1.303152 2.417083,-2.124572 2.572631,-3.743415 0.112044,-1.166058 0.02858,-1.490892 -0.625607,-2.434888 -0.857125,-1.236833 -3.153812,-3.191715 -4.641353,-3.950601 -1.215218,-0.619958 -2.944436,-0.666516 -3.51628,-0.09467 -0.449887,0.449887 -0.546005,1.614878 -0.180788,2.19123 0.174422,0.275255 0.353312,0.290384 0.773642,0.06543 0.328808,-0.175972 0.607555,-0.194243 0.699275,-0.04583 0.258348,0.418012 3.008832,0.651175 3.441883,0.291774 0.476165,-0.395186 0.93563,-0.139234 0.93563,0.521206 0,0.619474 -0.447812,0.921621 -0.871484,0.588005 -0.477433,-0.375944 -3.299979,-0.637582 -3.493866,-0.323865 -0.265903,0.430241 -0.595743,0.311699 -1.44636,-0.519806 -1.656996,-1.619763 -0.605621,-3.977667 1.773616,-3.977667 1.22442,0 3.461157,1.287209 5.376632,3.094171 2.10919,1.989702 2.741216,3.146167 2.566511,4.696136 -0.21159,1.877208 -1.273109,3.104824 -4.40391,5.092996 -0.370684,0.2354 1.079373,1.559586 2.937095,2.682145 1.73391,1.047742 2.459291,1.68883 3.471158,3.067785 0.703551,0.958787 1.973157,2.2772476 2.821348,2.9299165 0.848191,0.6526662 1.804815,1.6116485 2.125837,2.1310705 0.321022,0.5194221 0.718291,0.8935852 0.882819,0.8314743 0.164532,-0.062111 1.90649,-0.554228 3.871021,-1.0935943 1.964532,-0.5393664 4.473081,-1.2723468 5.574554,-1.6288464 l 2.002677,-0.6481789 -0.01831,-6.2666507 -0.01831,-6.266654 -0.79375,-0.166438 c -3.486698,-0.731118 -5.379593,-3.864055 -5.078486,-8.405443 0.208721,-3.148018 0.930211,-5.07863 2.681107,-7.174319 0.518203,-0.620246 0.942184,-1.285337 0.942184,-1.477982 0,-0.192644 0.431165,-0.616737 0.958146,-0.942429 1.221725,-0.755067 2.941188,-0.758907 4.154118,-0.0093 1.224991,0.757087 3.451312,3.161113 4.093887,4.420663 1.250929,2.452021 1.427813,6.663872 0.367176,8.742893 -0.773118,1.515436 -2.901879,3.336497 -4.9363,4.222785 l -1.72661,0.752195 v 5.982444 c 0,3.290342 0.06543,6.0478743 0.145407,6.1278473 0.07997,0.079976 1.478957,-0.3070886 3.108854,-0.8601393 1.629897,-0.553051 4.138113,-1.280475 5.573816,-1.616496 l 2.610371,-0.610949 1.300388,-2.630225 c 0.715213,-1.446626 1.971479,-3.711589 2.7917,-5.033251 0.82023,-1.321665 1.81919,-2.92958 2.21993,-3.573148 l 0.72861,-1.170119 -0.77852,-0.727249 c -2.03353,-1.899601 -2.55497,-6.10521 -1.11106,-8.961176 0.6695,-1.324231 0.91487,-1.548915 2.55219,-2.33707 1.61952,-0.779585 1.90655,-0.840607 2.70875,-0.575858 1.40172,0.462609 2.41055,1.9089 2.91589,4.180304 1.09296,4.912632 -0.65397,8.219727 -4.58809,8.685666 -1.4265,0.168947 -0.94937,-0.388585 -4.49338,5.250625 -1.572465,2.502101 -3.585441,6.499066 -3.377714,6.706793 0.08036,0.08036 1.838737,-0.122314 3.907504,-0.450387 2.06877,-0.328073 5.6664,-0.897178 7.99473,-1.264679 2.32833,-0.367501 7.0313,-1.375262 10.45104,-2.239465 3.41974,-0.864206 6.84308,-1.645071 7.60742,-1.735257 l 1.3897,-0.16397 0.52853,-1.711158 c 0.72135,-2.335459 0.71243,-5.401113 -0.0211,-7.26802 -1.65766,-4.218689 -5.70174,-7.179115 -14.92847,-10.928236 -9.15118,-3.718423 -15.173698,-5.018137 -24.738539,-5.338803 -9.321346,-0.312501 -17.922114,0.787076 -26.722918,3.416429 -5.047541,1.508017 -6.085417,1.773083 -6.085417,1.554173 0,-0.257212 5.966064,-2.180005 9.921876,-3.197703 10.065988,-2.589644 23.792085,-3.124532 33.602088,-1.309428 2.70214,0.499967 8.00704,1.870088 9.25024,2.389103 0.29664,0.123841 2.33622,0.932601 4.53241,1.797246 10.8441,4.269348 15.01461,7.632498 16.13639,13.012605 0.43232,2.073442 0.35465,3.452061 -0.33115,5.87783 -0.2149,0.760151 -0.3999,1.560687 -0.4111,1.778968 -0.0112,0.218282 -0.0978,0.456407 -0.19232,0.529167 -0.0946,0.07276 -0.56978,0.846667 -1.05602,1.719792 -1.90238,3.416022 -4.9992,6.7027181 -8.88784,9.4327868 -3.80487,2.6712597 -13.49798,7.50531613 -20.022509,9.9854382 -6.016641,2.2870609 -21.433883,6.40035 -29.445189,7.855916 -6.044687,1.09825 -17.026843,1.439626 -24.021411,0.746693 z m 38.414829,-34.833855 c -0.04327,-1.410999 -0.358648,-2.19102 -0.851104,-2.105067 -0.332139,0.05797 -0.445439,-0.115449 -0.445439,-0.681781 0,-0.693416 0.06909,-0.749385 0.79375,-0.643027 0.739545,0.108542 0.79375,0.193495 0.79375,1.24402 0,1.911027 0.267796,2.781167 0.855933,2.781167 0.933413,0 3.650668,-1.648457 4.720309,-2.863632 2.794373,-3.174575 2.252464,-8.48793 -1.247275,-12.229435 -1.331158,-1.423115 -2.557648,-2.104849 -3.78678,-2.104849 -1.077254,0 -2.417797,0.689162 -2.240299,1.151716 0.07661,0.199631 -0.274912,0.667031 -0.806712,1.072654 -2.787917,2.126449 -3.918368,8.554385 -2.142693,12.183732 0.696388,1.423366 1.461323,2.129724 2.927725,2.703539 1.268646,0.496433 1.457609,0.429112 1.428835,-0.509037 z m 1.5435,-4.762696 c -0.20942,-0.54574 -2.7354,-1.061826 -3.34223,-0.682855 -0.744821,0.465149 -1.349896,0.09085 -1.349896,-0.83504 0,-0.747517 0.05371,-0.793868 0.727604,-0.627908 0.400182,0.09855 0.965729,0.330138 1.256771,0.514634 0.845426,0.535931 2.464607,0.744583 2.909948,0.374984 0.615368,-0.510711 1.239306,-0.114447 1.142667,0.72571 -0.09132,0.793876 -1.092277,1.188702 -1.344864,0.530475 z m -3.268835,-3.757883 c -0.09385,-0.244573 -0.03577,-0.579549 0.129077,-0.744393 0.223232,-0.223232 0.303996,-0.168054 0.316487,0.216222 0.01492,0.459154 0.04311,0.450419 0.256056,-0.07937 0.258937,-0.6442 0.532474,-0.74251 0.937903,-0.337082 0.142026,0.142026 0.909979,0.352025 1.706562,0.466665 1.406615,0.202431 1.860032,0.787705 0.522291,0.674179 -1.794796,-0.152315 -2.563961,-0.141174 -3.10564,0.04498 -0.437634,0.150398 -0.636611,0.08748 -0.762736,-0.241196 z m 4.304644,-2.899658 c -0.630351,-0.962039 -1.910037,-1.148119 -2.712333,-0.394402 -0.586238,0.550741 -0.683239,0.568208 -1.060485,0.190963 -0.377245,-0.377246 -0.376124,-0.490838 0.01225,-1.241869 0.458116,-0.885894 1.043993,-1.045421 1.715969,-0.467233 0.521364,0.448599 2.023128,0.963508 2.810129,0.963508 0.642173,0 0.989886,0.554979 0.745966,1.190624 -0.231687,0.603765 -1.042514,0.474165 -1.511496,-0.241591 z m -3.082102,-0.949033 c 0,-0.145521 -0.119062,-0.264584 -0.264583,-0.264584 -0.145521,0 -0.264584,0.119063 -0.264584,0.264584 0,0.14552 0.119063,0.264583 0.264584,0.264583 0.145521,0 0.264583,-0.119063 0.264583,-0.264583 z m 23.550612,9.458853 c 1.25418,-0.853589 1.80797,-1.723946 2.10472,-3.307892 0.38973,-2.080134 -0.37612,-5.633048 -1.46825,-6.81147 -1.53644,-1.657846 -2.88333,-1.011161 -4.45377,2.138398 -1.30456,2.61633 -1.55197,2.20681 -0.3114,-0.515439 0.50649,-1.111431 0.83089,-2.020784 0.72087,-2.020784 -0.44797,0 -1.6288,1.537811 -2.03451,2.649583 -0.58297,1.597503 -0.59006,4.343677 -0.0147,5.684792 0.24974,0.582083 0.82857,1.445286 1.28631,1.918229 0.70444,0.727848 1.02141,0.859896 2.06412,0.859896 0.84196,0 1.50876,-0.188436 2.10659,-0.595313 z m -2.73672,-0.374826 c -0.24154,-0.241536 -0.22312,-1.350998 0.025,-1.504326 0.11074,-0.06844 0.41781,0.03383 0.68237,0.227284 0.39077,0.285742 0.42571,0.455072 0.18621,0.90258 -0.30295,0.56606 -0.58412,0.683892 -0.89355,0.374462 z m 0.95085,-3.292853 c -0.12545,-0.479728 -0.29046,-0.539466 -1.1658,-0.422058 -1.23638,0.165833 -1.54173,-0.202249 -0.79078,-0.953209 0.5396,-0.539597 0.56952,-0.541779 0.9168,-0.06685 0.27238,0.372503 0.5445,0.447674 1.12795,0.311579 1.35041,-0.314994 1.48395,-0.303549 1.77956,0.152525 0.22526,0.347533 0.17994,0.569234 -0.20283,0.992187 -0.64275,0.710225 -1.47732,0.703122 -1.6649,-0.01417 z m 1.4103,-0.695997 c -0.18349,-0.183488 -0.68546,0.189321 -0.68546,0.509084 0,0.175444 0.15181,0.155372 0.40327,-0.05332 0.2218,-0.184076 0.34878,-0.389171 0.28219,-0.455766 z m -0.0312,-2.05647 c -0.20153,-0.299373 -0.48391,-0.329598 -1.30112,-0.13927 -1.12465,0.26193 -1.46981,0.176233 -1.46981,-0.364918 0,-0.245238 0.43327,-0.338404 1.50192,-0.322957 0.96375,0.01393 1.54048,-0.09398 1.60954,-0.301176 0.0592,-0.177588 0.26357,-0.322887 0.45415,-0.322887 0.61838,0 0.64433,0.723482 0.0461,1.28549 -0.49342,0.463544 -0.62309,0.489103 -0.84078,0.165718 z M 66.076739,4.7833995 c 0.0077,-1.272024 0.298389,-1.799029 0.944528,-1.7124997 0.874377,0.117094 0.968166,0.2898775 0.598165,1.1019446 -0.268713,0.5897589 -0.258889,0.7568009 0.05624,0.9561803 0.270132,0.1709129 0.09158,0.2427685 -0.610357,0.2456365 -0.854805,0.00349 -0.991687,-0.078378 -0.988576,-0.5912617 z M 88.040085,3.402219 c -0.1632,-0.1966463 -0.364209,-0.7733559 -0.44668,-1.2815781 -0.193672,-1.19345603 0.470649,-1.64668462 1.721554,-1.17452245 0.712449,0.26891985 0.992664,0.22711835 2.085904,-0.31118438 1.402347,-0.69050163 4.184182,-1.60107308 4.900911,-1.60420046 1.034595,-0.004524 0.364964,0.47790099 -1.058333,0.76244713 -2.418665,0.4835419 -5.351074,1.94414766 -5.811393,2.89460246 -0.457153,0.9439195 -0.979152,1.2118392 -1.391963,0.7144358 z m 0.919502,-0.6693402 c 0.08994,-0.1455209 -0.08866,-0.2645834 -0.396875,-0.2645834 -0.308219,0 -0.486813,0.1190625 -0.396875,0.2645834 0.08994,0.1455208 0.268531,0.2645833 0.396875,0.2645833 0.128344,0 0.306937,-0.1190625 0.396875,-0.2645833 z m 0.159755,-1.1367029 c -0.33959,-0.3395901 -0.683961,-0.077126 -0.432551,0.3296655 0.09739,0.1575753 0.298278,0.2115899 0.446423,0.1200309 0.180711,-0.1116859 0.176147,-0.259678 -0.01386,-0.4496964 z M 76.656461,0.20765052 c 0,-0.11313319 0.37451,-0.5400569 0.832245,-0.94872437 0.884282,-0.78948485 1.456105,-0.78080395 1.029864,0.0156369 -0.140796,0.2630752 -0.180806,0.55350567 -0.08891,0.64540076 0.09189,0.09189243 -0.0016,0.16870362 -0.207745,0.17069064 -0.206156,0.0021167 -0.642718,0.07540624 -0.97014,0.16315266 -0.327422,0.0877438 -0.595313,0.066974 -0.595313,-0.0461592 z m 21.062684,-0.8037036 c -0.236287,-0.61574622 -0.188199,-1.77399942 0.09205,-2.21706012 0.202099,-0.3195187 0.362116,-0.259752 0.92199,0.3443605 0.786877,0.8490532 0.764652,0.7520093 0.370393,1.61730791 -0.342651,0.75204107 -1.137576,0.89868373 -1.384429,0.25539171 z m 0.81389,-0.95401072 c -0.08446,-0.2110661 -0.147156,-0.1483731 -0.159851,0.1598533 -0.01148,0.2789131 0.05105,0.43518399 0.138965,0.3472656 0.08792,-0.087921 0.09732,-0.3161242 0.02088,-0.5071189 z M 84.180592,-2.0563096 c -0.09901,-0.1601973 0.07256,-0.5438431 0.38126,-0.8525457 l 0.561276,-0.5612738 v 0.8525456 c 0,0.8558424 -0.555892,1.1868759 -0.942536,0.5612739 z M 60.122961,-21.943977 c -0.368374,-1.099598 -0.240806,-1.673447 0.497001,-2.235708 0.853363,-0.650322 1.219832,-0.581049 1.219832,0.230584 0,1.12662 -1.445551,2.814905 -1.716833,2.005124 z m -4.54002,-0.912527 c -0.8992,-0.113035 -1.256054,-0.747866 -0.839153,-1.492829 0.304308,-0.543769 1.504289,-0.570159 1.708658,-0.03758 0.0854,0.222544 0.479018,0.396875 0.896099,0.396875 0.863396,0 1.580833,0.235376 1.580833,0.518636 0,0.10859 -0.614575,0.138382 -1.365721,0.06621 -1.187937,-0.114144 -1.344007,-0.07465 -1.198928,0.303424 0.09173,0.239056 0.140761,0.415594 0.10895,0.392306 -0.03181,-0.02328 -0.432647,-0.08946 -0.890738,-0.14704 z m 0.171436,-1.133533 c 0,-0.145521 -0.0525,-0.264583 -0.116676,-0.264583 -0.06417,0 -0.190261,0.119062 -0.280199,0.264583 -0.08994,0.145521 -0.03743,0.264583 0.116676,0.264583 0.15411,0 0.280199,-0.119062 0.280199,-0.264583 z"
       id="path205"
       sodipodi:nodetypes="ssssssssssssssssssssssssssscssssssssssscssssscsssssscsssscsscsssssssssssssssssscssssscssssscssssssssssscssssscsssscsssssssssssssssssssssssscccssssscssscsssscssscsssssssssssscscssssssssssscssssssssssssssssssssssssssssssssssssssssssssssssssssssssssssssssssssssssssssssssssssssssssscsssscsssssssssssssssssssssscsssssssssssssssscsssssssssssssssssssss" />
    <g
       inkscape:label=""
       transform="matrix(0.77887103,0,0,0.77887103,-40.04518,-73.957338)"
       id="g335">
      <g
         id="g5409">
        <g
           style="fill:#000000;fill-opacity:1"
           id="g5181">
          <use
             xlink:href="#symbol1802"
             x="91.925003"
             y="81.962997"
             id="use3936"
             width="100%"
             height="100%" />
        </g>
      </g>
    </g>
    <g
       inkscape:label=""
       transform="translate(15.498036,-87.161516)"
       id="g421">
      <g
         id="g6359">
        <g
           style="fill:#000000;fill-opacity:1"
           id="g7692">
          <use
             xlink:href="#symbol6214"
             x="91.925003"
             y="81.962997"
             id="use7497"
             width="100%"
             height="100%" />
        </g>
      </g>
    </g>
  </g>
</svg>
