<?xml version="1.0" encoding="UTF-8" standalone="no"?>
<!-- Created with Inkscape (http://www.inkscape.org/) -->

<svg
   width="102.5648mm"
   height="60.262527mm"
   viewBox="0 0 102.5648 60.262527"
   version="1.1"
   id="svg5"
   sodipodi:docname="3.svg"
   inkscape:version="1.1 (c4e8f9ed74, 2021-05-24)"
   xmlns:inkscape="http://www.inkscape.org/namespaces/inkscape"
   xmlns:sodipodi="http://sodipodi.sourceforge.net/DTD/sodipodi-0.dtd"
   xmlns:xlink="http://www.w3.org/1999/xlink"
   xmlns="http://www.w3.org/2000/svg"
   xmlns:svg="http://www.w3.org/2000/svg">
  <sodipodi:namedview
     id="namedview7"
     pagecolor="#ffffff"
     bordercolor="#666666"
     borderopacity="1.0"
     inkscape:pageshadow="2"
     inkscape:pageopacity="0.0"
     inkscape:pagecheckerboard="0"
     inkscape:document-units="mm"
     showgrid="false"
     inkscape:zoom="0.46425707"
     inkscape:cx="164.33722"
     inkscape:cy="652.04086"
     inkscape:window-width="954"
     inkscape:window-height="1049"
     inkscape:window-x="2880"
     inkscape:window-y="0"
     inkscape:window-maximized="1"
     inkscape:current-layer="layer1"
     showguides="false"
     inkscape:rotation="1"
     fit-margin-top="0"
     fit-margin-left="0"
     fit-margin-right="0"
     fit-margin-bottom="0" />
  <defs
     id="defs2">
    <g
       id="g8718">
      <symbol
         overflow="visible"
         id="symbol971">
        <path
           style="stroke:none"
           d=""
           id="path8499" />
      </symbol>
      <symbol
         overflow="visible"
         id="symbol1802">
        <path
           style="stroke:none"
           d="M 5.078125,-4.03125 C 5.0625,-4.0625 5.03125,-4.140625 5.03125,-4.171875 c 0,0 0.171875,-0.140625 0.28125,-0.21875 l 1.75,-1.34375 C 8,-6.4375 8.390625,-6.46875 8.6875,-6.5 8.765625,-6.515625 8.859375,-6.515625 8.859375,-6.703125 8.859375,-6.734375 8.828125,-6.8125 8.75,-6.8125 c -0.21875,0 -0.46875,0.03125 -0.703125,0.03125 -0.359375,0 -0.75,-0.03125 -1.109375,-0.03125 -0.0625,0 -0.1875,0 -0.1875,0.203125 0,0.0625 0.046875,0.09375 0.125,0.109375 0.21875,0.015625 0.296875,0.0625 0.296875,0.203125 0,0.1875 -0.296875,0.421875 -0.359375,0.46875 L 2.9375,-2.84375 3.734375,-6.046875 C 3.8125,-6.40625 3.84375,-6.5 4.5625,-6.5 c 0.25,0 0.34375,0 0.34375,-0.203125 0,-0.078125 -0.078125,-0.109375 -0.140625,-0.109375 -0.28125,0 -1,0.03125 -1.28125,0.03125 C 3.203125,-6.78125 2.5,-6.8125 2.203125,-6.8125 2.140625,-6.8125 2,-6.8125 2,-6.625 2,-6.5 2.09375,-6.5 2.296875,-6.5 c 0.125,0 0.3125,0.015625 0.421875,0.015625 0.15625,0.03125 0.21875,0.046875 0.21875,0.171875 0,0.03125 0,0.0625 -0.03125,0.1875 L 1.5625,-0.78125 c -0.09375,0.390625 -0.109375,0.46875 -0.90625,0.46875 -0.171875,0 -0.28125,0 -0.28125,0.1875 C 0.375,0 0.5,0 0.53125,0 0.8125,0 1.515625,-0.03125 1.796875,-0.03125 2,-0.03125 2.21875,-0.015625 2.4375,-0.015625 2.65625,-0.015625 2.875,0 3.078125,0 3.15625,0 3.28125,0 3.28125,-0.203125 3.28125,-0.3125 3.1875,-0.3125 3,-0.3125 c -0.375,0 -0.640625,0 -0.640625,-0.171875 0,-0.078125 0.046875,-0.296875 0.078125,-0.4375 C 2.578125,-1.453125 2.71875,-1.96875 2.84375,-2.5 l 1.484375,-1.15625 1.15625,2.6875 c 0.125,0.265625 0.125,0.296875 0.125,0.34375 0,0.3125 -0.4375,0.3125 -0.53125,0.3125 -0.109375,0 -0.21875,0 -0.21875,0.203125 C 4.859375,0 4.984375,0 5,0 5.40625,0 5.828125,-0.03125 6.21875,-0.03125 6.4375,-0.03125 6.984375,0 7.203125,0 7.25,0 7.375,0 7.375,-0.203125 7.375,-0.3125 7.265625,-0.3125 7.171875,-0.3125 c -0.40625,0 -0.53125,-0.09375 -0.6875,-0.4375 z m 0,0"
           id="path3587" />
      </symbol>
    </g>
    <g
       id="g5174">
      <symbol
         overflow="visible"
         id="symbol1721">
        <path
           style="stroke:none"
           d=""
           id="path4876" />
      </symbol>
      <symbol
         overflow="visible"
         id="symbol6214">
        <path
           style="stroke:none"
           d="m 6.4375,-6.921875 c 0,-0.03125 -0.03125,-0.109375 -0.125,-0.109375 -0.046875,0 -0.046875,0.015625 -0.171875,0.15625 L 5.65625,-6.3125 c -0.25,-0.46875 -0.765625,-0.71875 -1.421875,-0.71875 -1.265625,0 -2.453125,1.15625 -2.453125,2.359375 0,0.796875 0.515625,1.265625 1.03125,1.40625 l 1.0625,0.28125 c 0.375,0.09375 0.921875,0.25 0.921875,1.0625 0,0.890625 -0.8125,1.828125 -1.796875,1.828125 -0.640625,0 -1.75,-0.21875 -1.75,-1.453125 0,-0.234375 0.0625,-0.484375 0.0625,-0.53125 0.015625,-0.046875 0.015625,-0.0625 0.015625,-0.078125 0,-0.09375 -0.0625,-0.109375 -0.109375,-0.109375 -0.046875,0 -0.078125,0.015625 -0.109375,0.046875 -0.03125,0.03125 -0.59375,2.3125 -0.59375,2.34375 0,0.046875 0.046875,0.09375 0.109375,0.09375 0.046875,0 0.0625,-0.015625 0.1875,-0.15625 L 1.296875,-0.5 c 0.421875,0.578125 1.109375,0.71875 1.6875,0.71875 1.359375,0 2.53125,-1.328125 2.53125,-2.5625 0,-0.6875 -0.34375,-1.03125 -0.484375,-1.171875 C 4.796875,-3.734375 4.640625,-3.78125 3.765625,-4 3.53125,-4.0625 3.1875,-4.171875 3.09375,-4.1875 2.828125,-4.28125 2.484375,-4.5625 2.484375,-5.09375 c 0,-0.8125 0.796875,-1.65625 1.75,-1.65625 0.8125,0 1.421875,0.4375 1.421875,1.546875 0,0.3125 -0.03125,0.5 -0.03125,0.5625 0,0 0,0.09375 0.109375,0.09375 0.109375,0 0.125,-0.03125 0.15625,-0.203125 z m 0,0"
           id="path8555" />
      </symbol>
    </g>
    <g
       id="g7147">
      <symbol
         overflow="visible"
         id="symbol5658">
        <path
           style="stroke:none"
           d=""
           id="path5080" />
      </symbol>
      <symbol
         overflow="visible"
         id="symbol6457">
        <path
           style="stroke:none"
           d="M 7.609375,-6.046875 C 7.703125,-6.40625 7.71875,-6.5 8.4375,-6.5 c 0.265625,0 0.34375,0 0.34375,-0.203125 0,-0.109375 -0.109375,-0.109375 -0.140625,-0.109375 -0.28125,0 -1,0.03125 -1.28125,0.03125 -0.28125,0 -0.984375,-0.03125 -1.28125,-0.03125 -0.078125,0 -0.1875,0 -0.1875,0.203125 0,0.109375 0.09375,0.109375 0.28125,0.109375 0.015625,0 0.203125,0 0.375,0.015625 0.1875,0.03125 0.265625,0.03125 0.265625,0.171875 0,0.03125 0,0.046875 -0.03125,0.1875 L 6.1875,-3.703125 H 3.140625 l 0.59375,-2.34375 C 3.8125,-6.40625 3.84375,-6.5 4.5625,-6.5 c 0.265625,0 0.34375,0 0.34375,-0.203125 0,-0.109375 -0.109375,-0.109375 -0.140625,-0.109375 -0.28125,0 -1,0.03125 -1.28125,0.03125 -0.28125,0 -0.984375,-0.03125 -1.28125,-0.03125 -0.078125,0 -0.1875,0 -0.1875,0.203125 0,0.109375 0.09375,0.109375 0.28125,0.109375 0.015625,0 0.203125,0 0.375,0.015625 0.171875,0.03125 0.265625,0.03125 0.265625,0.171875 0,0.03125 0,0.0625 -0.03125,0.1875 L 1.5625,-0.78125 c -0.09375,0.390625 -0.109375,0.46875 -0.90625,0.46875 -0.171875,0 -0.265625,0 -0.265625,0.203125 C 0.390625,0 0.515625,0 0.53125,0 0.8125,0 1.515625,-0.03125 1.796875,-0.03125 2,-0.03125 2.21875,-0.015625 2.4375,-0.015625 2.65625,-0.015625 2.875,0 3.078125,0 3.15625,0 3.28125,0 3.28125,-0.203125 3.28125,-0.3125 3.1875,-0.3125 3,-0.3125 c -0.375,0 -0.640625,0 -0.640625,-0.171875 0,-0.0625 0.015625,-0.109375 0.015625,-0.171875 l 0.6875,-2.734375 h 3.03125 c -0.40625,1.65625 -0.640625,2.609375 -0.6875,2.75 C 5.3125,-0.3125 5.125,-0.3125 4.5,-0.3125 c -0.140625,0 -0.234375,0 -0.234375,0.203125 C 4.265625,0 4.390625,0 4.40625,0 4.6875,0 5.390625,-0.03125 5.671875,-0.03125 5.875,-0.03125 6.09375,-0.015625 6.3125,-0.015625 6.53125,-0.015625 6.75,0 6.953125,0 7.03125,0 7.15625,0 7.15625,-0.203125 7.15625,-0.3125 7.0625,-0.3125 6.875,-0.3125 c -0.359375,0 -0.640625,0 -0.640625,-0.171875 0,-0.0625 0.015625,-0.109375 0.03125,-0.171875 z m 0,0"
           id="path138" />
      </symbol>
    </g>
    <g
       id="g862">
      <symbol
         overflow="visible"
         id="symbol7986">
        <path
           style="stroke:none"
           d=""
           id="path1032" />
      </symbol>
      <symbol
         overflow="visible"
         id="symbol9793">
        <path
           style="stroke:none"
           d="M 3.328125,-3.015625 C 3.390625,-3.265625 3.625,-4.1875 4.3125,-4.1875 c 0.046875,0 0.296875,0 0.5,0.125 C 4.53125,-4 4.34375,-3.765625 4.34375,-3.515625 c 0,0.15625 0.109375,0.34375 0.375,0.34375 0.21875,0 0.53125,-0.171875 0.53125,-0.578125 0,-0.515625 -0.578125,-0.65625 -0.921875,-0.65625 -0.578125,0 -0.921875,0.53125 -1.046875,0.75 -0.25,-0.65625 -0.78125,-0.75 -1.078125,-0.75 -1.03125,0 -1.609375,1.28125 -1.609375,1.53125 0,0.109375 0.109375,0.109375 0.125,0.109375 0.078125,0 0.109375,-0.03125 0.125,-0.109375 0.34375,-1.0625 1,-1.3125 1.34375,-1.3125 0.1875,0 0.53125,0.09375 0.53125,0.671875 0,0.3125 -0.171875,0.96875 -0.53125,2.375 -0.15625,0.609375 -0.515625,1.03125 -0.953125,1.03125 -0.0625,0 -0.28125,0 -0.5,-0.125 0.25,-0.0625 0.46875,-0.265625 0.46875,-0.546875 0,-0.265625 -0.21875,-0.34375 -0.359375,-0.34375 -0.3125,0 -0.546875,0.25 -0.546875,0.578125 0,0.453125 0.484375,0.65625 0.921875,0.65625 0.671875,0 1.03125,-0.703125 1.046875,-0.75 0.125,0.359375 0.484375,0.75 1.078125,0.75 1.03125,0 1.59375,-1.28125 1.59375,-1.53125 0,-0.109375 -0.078125,-0.109375 -0.109375,-0.109375 -0.09375,0 -0.109375,0.046875 -0.140625,0.109375 -0.328125,1.078125 -1,1.3125 -1.3125,1.3125 -0.390625,0 -0.546875,-0.3125 -0.546875,-0.65625 0,-0.21875 0.046875,-0.4375 0.15625,-0.875 z m 0,0"
           id="path6883" />
      </symbol>
    </g>
    <g
       id="g7567">
      <symbol
         overflow="visible"
         id="symbol6797">
        <path
           style="stroke:none"
           d=""
           id="path820" />
      </symbol>
      <symbol
         overflow="visible"
         id="symbol6084">
        <path
           style="stroke:none"
           d="m 4.84375,-3.796875 c 0.046875,-0.140625 0.046875,-0.15625 0.046875,-0.234375 0,-0.171875 -0.140625,-0.265625 -0.296875,-0.265625 -0.09375,0 -0.25,0.0625 -0.34375,0.203125 -0.015625,0.0625 -0.109375,0.359375 -0.140625,0.546875 -0.078125,0.25 -0.140625,0.53125 -0.203125,0.796875 l -0.453125,1.796875 c -0.03125,0.140625 -0.46875,0.84375 -1.125,0.84375 -0.5,0 -0.609375,-0.4375 -0.609375,-0.8125 C 1.71875,-1.375 1.890625,-2 2.21875,-2.875 2.375,-3.28125 2.421875,-3.390625 2.421875,-3.59375 c 0,-0.4375 -0.3125,-0.8125 -0.8125,-0.8125 -0.953125,0 -1.3125,1.453125 -1.3125,1.53125 0,0.109375 0.09375,0.109375 0.109375,0.109375 0.109375,0 0.109375,-0.03125 0.15625,-0.1875 0.28125,-0.9375 0.671875,-1.234375 1.015625,-1.234375 0.078125,0 0.25,0 0.25,0.3125 0,0.25 -0.109375,0.515625 -0.171875,0.703125 -0.40625,1.0625 -0.578125,1.625 -0.578125,2.09375 0,0.890625 0.625,1.1875 1.21875,1.1875 0.390625,0 0.71875,-0.171875 1,-0.453125 -0.125,0.515625 -0.25,1.015625 -0.640625,1.546875 -0.265625,0.328125 -0.640625,0.625 -1.09375,0.625 -0.140625,0 -0.59375,-0.03125 -0.765625,-0.421875 0.15625,0 0.296875,0 0.421875,-0.125 C 1.328125,1.203125 1.421875,1.0625 1.421875,0.875 1.421875,0.5625 1.15625,0.53125 1.0625,0.53125 0.828125,0.53125 0.5,0.6875 0.5,1.171875 c 0,0.5 0.4375,0.875 1.0625,0.875 1.015625,0 2.046875,-0.90625 2.328125,-2.03125 z m 0,0"
           id="path466" />
      </symbol>
    </g>
    <g
       id="g6913">
      <symbol
         overflow="visible"
         id="symbol7918">
        <path
           style="stroke:none"
           d=""
           id="path3924" />
      </symbol>
      <symbol
         overflow="visible"
         id="symbol5419">
        <path
           style="stroke:none"
           d="M 3.484375,-0.5625 C 3.59375,-0.15625 3.953125,0.109375 4.375,0.109375 4.71875,0.109375 4.953125,-0.125 5.109375,-0.4375 5.28125,-0.796875 5.40625,-1.40625 5.40625,-1.421875 c 0,-0.109375 -0.078125,-0.109375 -0.109375,-0.109375 -0.109375,0 -0.109375,0.046875 -0.140625,0.1875 -0.140625,0.5625 -0.328125,1.234375 -0.75,1.234375 -0.203125,0 -0.3125,-0.125 -0.3125,-0.453125 0,-0.21875 0.125,-0.6875 0.203125,-1.046875 L 4.578125,-2.6875 C 4.609375,-2.828125 4.703125,-3.203125 4.75,-3.359375 4.796875,-3.59375 4.890625,-3.96875 4.890625,-4.03125 c 0,-0.171875 -0.140625,-0.265625 -0.28125,-0.265625 -0.046875,0 -0.3125,0.015625 -0.390625,0.34375 -0.1875,0.734375 -0.625,2.484375 -0.75,3 -0.015625,0.046875 -0.40625,0.84375 -1.140625,0.84375 -0.515625,0 -0.609375,-0.453125 -0.609375,-0.8125 0,-0.5625 0.28125,-1.34375 0.53125,-2.03125 0.125,-0.3125 0.171875,-0.453125 0.171875,-0.640625 0,-0.4375 -0.3125,-0.8125 -0.8125,-0.8125 -0.953125,0 -1.3125,1.453125 -1.3125,1.53125 0,0.109375 0.09375,0.109375 0.109375,0.109375 0.109375,0 0.109375,-0.03125 0.15625,-0.1875 0.25,-0.859375 0.640625,-1.234375 1.015625,-1.234375 0.09375,0 0.25,0.015625 0.25,0.328125 0,0.234375 -0.109375,0.53125 -0.171875,0.671875 -0.375,1 -0.578125,1.609375 -0.578125,2.09375 0,0.953125 0.6875,1.203125 1.21875,1.203125 0.65625,0 1.015625,-0.453125 1.1875,-0.671875 z m 0,0"
           id="path6617" />
      </symbol>
    </g>
    <g
       id="g9932">
      <symbol
         overflow="visible"
         id="symbol1338">
        <path
           style="stroke:none"
           d=""
           id="path7135" />
      </symbol>
      <symbol
         overflow="visible"
         id="symbol60">
        <path
           style="stroke:none"
           d="m 4.671875,-3.703125 c 0,-0.546875 -0.265625,-0.703125 -0.4375,-0.703125 -0.25,0 -0.5,0.265625 -0.5,0.484375 0,0.125 0.046875,0.1875 0.15625,0.296875 0.21875,0.203125 0.34375,0.453125 0.34375,0.8125 0,0.421875 -0.609375,2.703125 -1.765625,2.703125 -0.515625,0 -0.75,-0.34375 -0.75,-0.875 0,-0.546875 0.28125,-1.28125 0.578125,-2.109375 0.078125,-0.171875 0.125,-0.3125 0.125,-0.5 0,-0.4375 -0.3125,-0.8125 -0.8125,-0.8125 -0.9375,0 -1.3125,1.453125 -1.3125,1.53125 0,0.109375 0.09375,0.109375 0.109375,0.109375 0.109375,0 0.109375,-0.03125 0.15625,-0.1875 0.296875,-1 0.71875,-1.234375 1.015625,-1.234375 0.078125,0 0.25,0 0.25,0.3125 0,0.25 -0.109375,0.53125 -0.171875,0.703125 -0.4375,1.15625 -0.5625,1.609375 -0.5625,2.046875 0,1.078125 0.875,1.234375 1.328125,1.234375 1.671875,0 2.25,-3.296875 2.25,-3.8125 z m 0,0"
           id="path1669" />
      </symbol>
    </g>
    <g
       id="g8777">
      <symbol
         overflow="visible"
         id="symbol7035">
        <path
           style="stroke:none"
           d=""
           id="path7925" />
      </symbol>
      <symbol
         overflow="visible"
         id="symbol8596">
        <path
           style="stroke:none"
           d="m 1.859375,-2.296875 c 0.296875,0 1.03125,-0.03125 1.53125,-0.234375 0.703125,-0.296875 0.75,-0.890625 0.75,-1.03125 0,-0.4375 -0.375,-0.84375 -1.0625,-0.84375 -1.109375,0 -2.625,0.96875 -2.625,2.71875 0,1.015625 0.59375,1.796875 1.578125,1.796875 1.421875,0 2.25,-1.0625 2.25,-1.171875 0,-0.0625 -0.046875,-0.140625 -0.109375,-0.140625 -0.0625,0 -0.078125,0.03125 -0.140625,0.109375 -0.78125,0.984375 -1.875,0.984375 -1.984375,0.984375 -0.78125,0 -0.875,-0.84375 -0.875,-1.15625 0,-0.125 0.015625,-0.421875 0.15625,-1.03125 z m -0.46875,-0.21875 C 1.78125,-4.03125 2.8125,-4.1875 3.078125,-4.1875 c 0.453125,0 0.734375,0.296875 0.734375,0.625 0,1.046875 -1.59375,1.046875 -2.015625,1.046875 z m 0,0"
           id="path9574" />
      </symbol>
      <symbol
         overflow="visible"
         id="symbol3869">
        <path
           style="stroke:none"
           d=""
           id="path1360" />
      </symbol>
      <symbol
         overflow="visible"
         id="symbol1851">
        <path
           style="stroke:none"
           d="m 2.328125,-4.4375 c 0,-0.1875 0,-0.1875 -0.203125,-0.1875 -0.453125,0.4375 -1.078125,0.4375 -1.359375,0.4375 v 0.25 c 0.15625,0 0.625,0 1,-0.1875 v 3.546875 c 0,0.234375 0,0.328125 -0.6875,0.328125 H 0.8125 V 0 c 0.125,0 0.984375,-0.03125 1.234375,-0.03125 0.21875,0 1.09375,0.03125 1.25,0.03125 V -0.25 H 3.03125 c -0.703125,0 -0.703125,-0.09375 -0.703125,-0.328125 z m 0,0"
           id="path9322" />
      </symbol>
    </g>
    <g
       id="g4479">
      <symbol
         overflow="visible"
         id="symbol4120">
        <path
           style="stroke:none"
           d=""
           id="path9422" />
      </symbol>
      <symbol
         overflow="visible"
         id="symbol3630">
        <path
           style="stroke:none"
           d="m 1.859375,-2.296875 c 0.296875,0 1.03125,-0.03125 1.53125,-0.234375 0.703125,-0.296875 0.75,-0.890625 0.75,-1.03125 0,-0.4375 -0.375,-0.84375 -1.0625,-0.84375 -1.109375,0 -2.625,0.96875 -2.625,2.71875 0,1.015625 0.59375,1.796875 1.578125,1.796875 1.421875,0 2.25,-1.0625 2.25,-1.171875 0,-0.0625 -0.046875,-0.140625 -0.109375,-0.140625 -0.0625,0 -0.078125,0.03125 -0.140625,0.109375 -0.78125,0.984375 -1.875,0.984375 -1.984375,0.984375 -0.78125,0 -0.875,-0.84375 -0.875,-1.15625 0,-0.125 0.015625,-0.421875 0.15625,-1.03125 z m -0.46875,-0.21875 C 1.78125,-4.03125 2.8125,-4.1875 3.078125,-4.1875 c 0.453125,0 0.734375,0.296875 0.734375,0.625 0,1.046875 -1.59375,1.046875 -2.015625,1.046875 z m 0,0"
           id="path1369" />
      </symbol>
      <symbol
         overflow="visible"
         id="symbol7510">
        <path
           style="stroke:none"
           d=""
           id="path4395" />
      </symbol>
      <symbol
         overflow="visible"
         id="symbol2960">
        <path
           style="stroke:none"
           d="M 3.515625,-1.265625 H 3.28125 c -0.015625,0.15625 -0.09375,0.5625 -0.1875,0.625 C 3.046875,-0.59375 2.515625,-0.59375 2.40625,-0.59375 H 1.125 c 0.734375,-0.640625 0.984375,-0.84375 1.390625,-1.171875 0.515625,-0.40625 1,-0.84375 1,-1.5 0,-0.84375 -0.734375,-1.359375 -1.625,-1.359375 -0.859375,0 -1.453125,0.609375 -1.453125,1.25 0,0.34375 0.296875,0.390625 0.375,0.390625 0.15625,0 0.359375,-0.125 0.359375,-0.375 0,-0.125 -0.046875,-0.375 -0.40625,-0.375 C 0.984375,-4.21875 1.453125,-4.375 1.78125,-4.375 c 0.703125,0 1.0625,0.546875 1.0625,1.109375 0,0.609375 -0.4375,1.078125 -0.65625,1.328125 L 0.515625,-0.265625 C 0.4375,-0.203125 0.4375,-0.1875 0.4375,0 h 2.875 z m 0,0"
           id="path493" />
      </symbol>
    </g>
    <g
       id="g2126">
      <symbol
         overflow="visible"
         id="symbol7900">
        <path
           style="stroke:none"
           d=""
           id="path5420" />
      </symbol>
      <symbol
         overflow="visible"
         id="symbol4654">
        <path
           style="stroke:none"
           d="M 3.734375,-6.03125 C 3.8125,-6.390625 3.84375,-6.5 4.78125,-6.5 c 0.296875,0 0.375,0 0.375,-0.1875 0,-0.125 -0.109375,-0.125 -0.15625,-0.125 -0.328125,0 -1.140625,0.03125 -1.46875,0.03125 -0.296875,0 -1.03125,-0.03125 -1.328125,-0.03125 -0.0625,0 -0.1875,0 -0.1875,0.203125 0,0.109375 0.09375,0.109375 0.28125,0.109375 0.015625,0 0.203125,0 0.375,0.015625 0.171875,0.03125 0.265625,0.03125 0.265625,0.171875 0,0.03125 0,0.0625 -0.03125,0.1875 L 1.5625,-0.78125 c -0.09375,0.390625 -0.109375,0.46875 -0.90625,0.46875 -0.171875,0 -0.265625,0 -0.265625,0.203125 C 0.390625,0 0.484375,0 0.65625,0 h 4.625 C 5.515625,0 5.515625,0 5.578125,-0.171875 L 6.375,-2.328125 c 0.03125,-0.109375 0.03125,-0.125 0.03125,-0.140625 0,-0.03125 -0.03125,-0.109375 -0.109375,-0.109375 -0.09375,0 -0.109375,0.0625 -0.171875,0.21875 -0.34375,0.90625 -0.78125,2.046875 -2.5,2.046875 H 2.6875 c -0.140625,0 -0.171875,0 -0.21875,0 -0.109375,-0.015625 -0.140625,-0.03125 -0.140625,-0.109375 0,-0.03125 0,-0.046875 0.046875,-0.21875 z m 0,0"
           id="path667" />
      </symbol>
      <symbol
         overflow="visible"
         id="symbol3203">
        <path
           style="stroke:none"
           d=""
           id="path2096" />
      </symbol>
      <symbol
         overflow="visible"
         id="symbol5279">
        <path
           style="stroke:none"
           d="m 2.328125,-4.4375 c 0,-0.1875 0,-0.1875 -0.203125,-0.1875 -0.453125,0.4375 -1.078125,0.4375 -1.359375,0.4375 v 0.25 c 0.15625,0 0.625,0 1,-0.1875 v 3.546875 c 0,0.234375 0,0.328125 -0.6875,0.328125 H 0.8125 V 0 c 0.125,0 0.984375,-0.03125 1.234375,-0.03125 0.21875,0 1.09375,0.03125 1.25,0.03125 V -0.25 H 3.03125 c -0.703125,0 -0.703125,-0.09375 -0.703125,-0.328125 z m 0,0"
           id="path2984" />
      </symbol>
    </g>
    <g
       id="g3560">
      <symbol
         overflow="visible"
         id="symbol9662">
        <path
           style="stroke:none"
           d=""
           id="path5854" />
      </symbol>
      <symbol
         overflow="visible"
         id="symbol8608">
        <path
           style="stroke:none"
           d="M 3.734375,-6.03125 C 3.8125,-6.390625 3.84375,-6.5 4.78125,-6.5 c 0.296875,0 0.375,0 0.375,-0.1875 0,-0.125 -0.109375,-0.125 -0.15625,-0.125 -0.328125,0 -1.140625,0.03125 -1.46875,0.03125 -0.296875,0 -1.03125,-0.03125 -1.328125,-0.03125 -0.0625,0 -0.1875,0 -0.1875,0.203125 0,0.109375 0.09375,0.109375 0.28125,0.109375 0.015625,0 0.203125,0 0.375,0.015625 0.171875,0.03125 0.265625,0.03125 0.265625,0.171875 0,0.03125 0,0.0625 -0.03125,0.1875 L 1.5625,-0.78125 c -0.09375,0.390625 -0.109375,0.46875 -0.90625,0.46875 -0.171875,0 -0.265625,0 -0.265625,0.203125 C 0.390625,0 0.484375,0 0.65625,0 h 4.625 C 5.515625,0 5.515625,0 5.578125,-0.171875 L 6.375,-2.328125 c 0.03125,-0.109375 0.03125,-0.125 0.03125,-0.140625 0,-0.03125 -0.03125,-0.109375 -0.109375,-0.109375 -0.09375,0 -0.109375,0.0625 -0.171875,0.21875 -0.34375,0.90625 -0.78125,2.046875 -2.5,2.046875 H 2.6875 c -0.140625,0 -0.171875,0 -0.21875,0 -0.109375,-0.015625 -0.140625,-0.03125 -0.140625,-0.109375 0,-0.03125 0,-0.046875 0.046875,-0.21875 z m 0,0"
           id="path1757" />
      </symbol>
      <symbol
         overflow="visible"
         id="symbol48">
        <path
           style="stroke:none"
           d=""
           id="path8115" />
      </symbol>
      <symbol
         overflow="visible"
         id="symbol401">
        <path
           style="stroke:none"
           d="M 3.515625,-1.265625 H 3.28125 c -0.015625,0.15625 -0.09375,0.5625 -0.1875,0.625 C 3.046875,-0.59375 2.515625,-0.59375 2.40625,-0.59375 H 1.125 c 0.734375,-0.640625 0.984375,-0.84375 1.390625,-1.171875 0.515625,-0.40625 1,-0.84375 1,-1.5 0,-0.84375 -0.734375,-1.359375 -1.625,-1.359375 -0.859375,0 -1.453125,0.609375 -1.453125,1.25 0,0.34375 0.296875,0.390625 0.375,0.390625 0.15625,0 0.359375,-0.125 0.359375,-0.375 0,-0.125 -0.046875,-0.375 -0.40625,-0.375 C 0.984375,-4.21875 1.453125,-4.375 1.78125,-4.375 c 0.703125,0 1.0625,0.546875 1.0625,1.109375 0,0.609375 -0.4375,1.078125 -0.65625,1.328125 L 0.515625,-0.265625 C 0.4375,-0.203125 0.4375,-0.1875 0.4375,0 h 2.875 z m 0,0"
           id="path4580" />
      </symbol>
    </g>
    <g
       id="g1349">
      <symbol
         overflow="visible"
         id="symbol8901">
        <path
           style="stroke:none"
           d=""
           id="path9817" />
      </symbol>
      <symbol
         overflow="visible"
         id="symbol8577">
        <path
           style="stroke:none"
           d="M 3.734375,-6.03125 C 3.8125,-6.390625 3.84375,-6.5 4.78125,-6.5 c 0.296875,0 0.375,0 0.375,-0.1875 0,-0.125 -0.109375,-0.125 -0.15625,-0.125 -0.328125,0 -1.140625,0.03125 -1.46875,0.03125 -0.296875,0 -1.03125,-0.03125 -1.328125,-0.03125 -0.0625,0 -0.1875,0 -0.1875,0.203125 0,0.109375 0.09375,0.109375 0.28125,0.109375 0.015625,0 0.203125,0 0.375,0.015625 0.171875,0.03125 0.265625,0.03125 0.265625,0.171875 0,0.03125 0,0.0625 -0.03125,0.1875 L 1.5625,-0.78125 c -0.09375,0.390625 -0.109375,0.46875 -0.90625,0.46875 -0.171875,0 -0.265625,0 -0.265625,0.203125 C 0.390625,0 0.484375,0 0.65625,0 h 4.625 C 5.515625,0 5.515625,0 5.578125,-0.171875 L 6.375,-2.328125 c 0.03125,-0.109375 0.03125,-0.125 0.03125,-0.140625 0,-0.03125 -0.03125,-0.109375 -0.109375,-0.109375 -0.09375,0 -0.109375,0.0625 -0.171875,0.21875 -0.34375,0.90625 -0.78125,2.046875 -2.5,2.046875 H 2.6875 c -0.140625,0 -0.171875,0 -0.21875,0 -0.109375,-0.015625 -0.140625,-0.03125 -0.140625,-0.109375 0,-0.03125 0,-0.046875 0.046875,-0.21875 z m 0,0"
           id="path3880" />
      </symbol>
      <symbol
         overflow="visible"
         id="symbol5057">
        <path
           style="stroke:none"
           d=""
           id="path2580" />
      </symbol>
      <symbol
         overflow="visible"
         id="symbol3754">
        <path
           style="stroke:none"
           d="m 1.90625,-2.328125 c 0.546875,0 0.9375,0.375 0.9375,1.125 0,0.859375 -0.515625,1.125 -0.90625,1.125 -0.28125,0 -0.90625,-0.078125 -1.1875,-0.5 0.328125,0 0.40625,-0.234375 0.40625,-0.390625 0,-0.21875 -0.171875,-0.375 -0.390625,-0.375 -0.1875,0 -0.390625,0.125 -0.390625,0.40625 0,0.65625 0.71875,1.078125 1.5625,1.078125 0.96875,0 1.640625,-0.65625 1.640625,-1.34375 0,-0.546875 -0.4375,-1.09375 -1.203125,-1.25 0.71875,-0.265625 0.984375,-0.78125 0.984375,-1.21875 0,-0.546875 -0.625,-0.953125 -1.40625,-0.953125 -0.765625,0 -1.359375,0.375 -1.359375,0.9375 0,0.234375 0.15625,0.359375 0.359375,0.359375 0.21875,0 0.359375,-0.15625 0.359375,-0.34375 0,-0.203125 -0.140625,-0.359375 -0.359375,-0.375 0.25,-0.296875 0.71875,-0.375 0.984375,-0.375 0.3125,0 0.75,0.15625 0.75,0.75 0,0.296875 -0.09375,0.625 -0.28125,0.828125 -0.21875,0.265625 -0.421875,0.28125 -0.765625,0.3125 -0.171875,0.015625 -0.1875,0.015625 -0.21875,0.015625 -0.015625,0 -0.078125,0.015625 -0.078125,0.09375 0,0.09375 0.0625,0.09375 0.1875,0.09375 z m 0,0"
           id="path9214" />
      </symbol>
    </g>
    <g
       id="g770">
      <symbol
         overflow="visible"
         id="symbol8119">
        <path
           style="stroke:none"
           d=""
           id="path8940" />
      </symbol>
      <symbol
         overflow="visible"
         id="symbol3872">
        <path
           style="stroke:none"
           d="m 6.71875,-3.234375 c 0.140625,-0.0625 0.203125,-0.125 0.203125,-0.21875 0,-0.09375 -0.046875,-0.15625 -0.203125,-0.21875 l -5.5,-2.59375 C 1.09375,-6.34375 1.046875,-6.34375 1.03125,-6.34375 c -0.125,0 -0.203125,0.09375 -0.203125,0.203125 0,0.125 0.078125,0.171875 0.1875,0.21875 L 6.25,-3.453125 1.03125,-1 c -0.1875,0.09375 -0.203125,0.171875 -0.203125,0.234375 0,0.109375 0.09375,0.203125 0.203125,0.203125 0.03125,0 0.046875,0 0.171875,-0.078125 z M 6.5625,1.359375 c 0.171875,0 0.359375,0 0.359375,-0.1875 0,-0.203125 -0.21875,-0.203125 -0.359375,-0.203125 h -5.375 c -0.15625,0 -0.359375,0 -0.359375,0.203125 0,0.1875 0.171875,0.1875 0.34375,0.1875 z m 0,0"
           id="path2534" />
      </symbol>
      <symbol
         overflow="visible"
         id="symbol5583">
        <path
           style="stroke:none"
           d=""
           id="path2612" />
      </symbol>
      <symbol
         overflow="visible"
         id="symbol7714">
        <path
           style="stroke:none"
           d="m 2.890625,-3.515625 c 0.8125,-0.265625 1.390625,-0.953125 1.390625,-1.75 0,-0.8125 -0.875,-1.375 -1.828125,-1.375 -1,0 -1.765625,0.59375 -1.765625,1.359375 0,0.328125 0.21875,0.515625 0.515625,0.515625 0.296875,0 0.5,-0.21875 0.5,-0.515625 0,-0.484375 -0.46875,-0.484375 -0.609375,-0.484375 0.296875,-0.5 0.953125,-0.625 1.3125,-0.625 0.421875,0 0.96875,0.21875 0.96875,1.109375 0,0.125 -0.03125,0.703125 -0.28125,1.140625 C 2.796875,-3.65625 2.453125,-3.625 2.203125,-3.625 2.125,-3.609375 1.890625,-3.59375 1.8125,-3.59375 c -0.078125,0.015625 -0.140625,0.03125 -0.140625,0.125 0,0.109375 0.0625,0.109375 0.234375,0.109375 h 0.4375 c 0.8125,0 1.1875,0.671875 1.1875,1.65625 0,1.359375 -0.6875,1.640625 -1.125,1.640625 -0.4375,0 -1.1875,-0.171875 -1.53125,-0.75 0.34375,0.046875 0.65625,-0.171875 0.65625,-0.546875 0,-0.359375 -0.265625,-0.5625 -0.546875,-0.5625 -0.25,0 -0.5625,0.140625 -0.5625,0.578125 0,0.90625 0.921875,1.5625 2.015625,1.5625 1.21875,0 2.125,-0.90625 2.125,-1.921875 0,-0.8125 -0.640625,-1.59375 -1.671875,-1.8125 z m 0,0"
           id="path7418" />
      </symbol>
    </g>
    <g
       id="g6948">
      <symbol
         overflow="visible"
         id="symbol9691">
        <path
           style="stroke:none"
           d=""
           id="path1364" />
      </symbol>
      <symbol
         overflow="visible"
         id="symbol9361">
        <path
           style="stroke:none"
           d="m 6.734375,-5.921875 c 0.109375,-0.046875 0.1875,-0.09375 0.1875,-0.21875 0,-0.109375 -0.078125,-0.203125 -0.203125,-0.203125 -0.046875,0 -0.140625,0.046875 -0.171875,0.0625 L 1.03125,-3.671875 c -0.171875,0.078125 -0.203125,0.140625 -0.203125,0.21875 0,0.09375 0.0625,0.15625 0.203125,0.21875 l 5.515625,2.59375 C 6.671875,-0.5625 6.6875,-0.5625 6.71875,-0.5625 c 0.109375,0 0.203125,-0.09375 0.203125,-0.203125 C 6.921875,-0.859375 6.875,-0.921875 6.703125,-1 L 1.5,-3.453125 Z M 6.5625,1.359375 c 0.171875,0 0.359375,0 0.359375,-0.1875 0,-0.203125 -0.21875,-0.203125 -0.359375,-0.203125 h -5.375 c -0.15625,0 -0.359375,0 -0.359375,0.203125 0,0.1875 0.171875,0.1875 0.34375,0.1875 z m 0,0"
           id="path8297" />
      </symbol>
      <symbol
         overflow="visible"
         id="symbol7163">
        <path
           style="stroke:none"
           d=""
           id="path8026" />
      </symbol>
      <symbol
         overflow="visible"
         id="symbol7527">
        <path
           style="stroke:none"
           d="m 2.890625,-3.515625 c 0.8125,-0.265625 1.390625,-0.953125 1.390625,-1.75 0,-0.8125 -0.875,-1.375 -1.828125,-1.375 -1,0 -1.765625,0.59375 -1.765625,1.359375 0,0.328125 0.21875,0.515625 0.515625,0.515625 0.296875,0 0.5,-0.21875 0.5,-0.515625 0,-0.484375 -0.46875,-0.484375 -0.609375,-0.484375 0.296875,-0.5 0.953125,-0.625 1.3125,-0.625 0.421875,0 0.96875,0.21875 0.96875,1.109375 0,0.125 -0.03125,0.703125 -0.28125,1.140625 C 2.796875,-3.65625 2.453125,-3.625 2.203125,-3.625 2.125,-3.609375 1.890625,-3.59375 1.8125,-3.59375 c -0.078125,0.015625 -0.140625,0.03125 -0.140625,0.125 0,0.109375 0.0625,0.109375 0.234375,0.109375 h 0.4375 c 0.8125,0 1.1875,0.671875 1.1875,1.65625 0,1.359375 -0.6875,1.640625 -1.125,1.640625 -0.4375,0 -1.1875,-0.171875 -1.53125,-0.75 0.34375,0.046875 0.65625,-0.171875 0.65625,-0.546875 0,-0.359375 -0.265625,-0.5625 -0.546875,-0.5625 -0.25,0 -0.5625,0.140625 -0.5625,0.578125 0,0.90625 0.921875,1.5625 2.015625,1.5625 1.21875,0 2.125,-0.90625 2.125,-1.921875 0,-0.8125 -0.640625,-1.59375 -1.671875,-1.8125 z m 0,0"
           id="path8946" />
      </symbol>
    </g>
    <g
       id="g2191">
      <symbol
         overflow="visible"
         id="symbol1982">
        <path
           style="stroke:none"
           d=""
           id="path744" />
      </symbol>
      <symbol
         overflow="visible"
         id="symbol8552">
        <path
           style="stroke:none"
           d="m 6.4375,-6.921875 c 0,-0.03125 -0.03125,-0.109375 -0.125,-0.109375 -0.046875,0 -0.046875,0.015625 -0.171875,0.15625 L 5.65625,-6.3125 c -0.25,-0.46875 -0.765625,-0.71875 -1.421875,-0.71875 -1.265625,0 -2.453125,1.15625 -2.453125,2.359375 0,0.796875 0.515625,1.265625 1.03125,1.40625 l 1.0625,0.28125 c 0.375,0.09375 0.921875,0.25 0.921875,1.0625 0,0.890625 -0.8125,1.828125 -1.796875,1.828125 -0.640625,0 -1.75,-0.21875 -1.75,-1.453125 0,-0.234375 0.0625,-0.484375 0.0625,-0.53125 0.015625,-0.046875 0.015625,-0.0625 0.015625,-0.078125 0,-0.09375 -0.0625,-0.109375 -0.109375,-0.109375 -0.046875,0 -0.078125,0.015625 -0.109375,0.046875 -0.03125,0.03125 -0.59375,2.3125 -0.59375,2.34375 0,0.046875 0.046875,0.09375 0.109375,0.09375 0.046875,0 0.0625,-0.015625 0.1875,-0.15625 L 1.296875,-0.5 c 0.421875,0.578125 1.109375,0.71875 1.6875,0.71875 1.359375,0 2.53125,-1.328125 2.53125,-2.5625 0,-0.6875 -0.34375,-1.03125 -0.484375,-1.171875 C 4.796875,-3.734375 4.640625,-3.78125 3.765625,-4 3.53125,-4.0625 3.1875,-4.171875 3.09375,-4.1875 2.828125,-4.28125 2.484375,-4.5625 2.484375,-5.09375 c 0,-0.8125 0.796875,-1.65625 1.75,-1.65625 0.8125,0 1.421875,0.4375 1.421875,1.546875 0,0.3125 -0.03125,0.5 -0.03125,0.5625 0,0 0,0.09375 0.109375,0.09375 0.109375,0 0.125,-0.03125 0.15625,-0.203125 z m 0,0"
           id="path9892" />
      </symbol>
    </g>
  </defs>
  <g
     inkscape:label="Layer 1"
     inkscape:groupmode="layer"
     id="layer1"
     transform="translate(-38.151808,-76.971762)">
    <g
       id="g8420">
      <path
         style="fill:#dac045;stroke-width:0.264583"
         d="m 51.390772,137.07972 c 0.257431,-0.0671 0.614619,-0.0627 0.79375,0.01 0.179131,0.0725 -0.03149,0.12736 -0.468056,0.12197 -0.436563,-0.005 -0.583126,-0.0647 -0.325694,-0.13177 z m 9.525,0 c 0.257432,-0.0671 0.614619,-0.0627 0.79375,0.01 0.179131,0.0725 -0.03149,0.12736 -0.468056,0.12197 -0.436562,-0.005 -0.583126,-0.0647 -0.325694,-0.13177 z m -11.497874,-0.26197 c 0.190996,-0.0764 0.419199,-0.067 0.507118,0.0209 0.08792,0.0879 -0.06835,0.15045 -0.347265,0.13896 -0.308225,-0.0127 -0.37092,-0.0754 -0.159853,-0.15985 z m 14.552084,0 c 0.190995,-0.0764 0.419198,-0.067 0.507119,0.0209 0.08792,0.0879 -0.06835,0.15045 -0.347266,0.13896 -0.308226,-0.0127 -0.370919,-0.0754 -0.159853,-0.15985 z m -11.129037,-0.25907 c 0.181901,-0.0734 0.479557,-0.0734 0.661458,0 0.181901,0.0734 0.03307,0.13345 -0.330729,0.13345 -0.363802,0 -0.51263,-0.06 -0.330729,-0.13345 z m 6.085417,0 c 0.181901,-0.0734 0.479557,-0.0734 0.661458,0 0.181901,0.0734 0.03307,0.13345 -0.330729,0.13345 -0.363802,0 -0.51263,-0.06 -0.330729,-0.13345 z m 6.879167,-0.52917 c 0.181901,-0.0734 0.479557,-0.0734 0.661458,0 0.181901,0.0734 0.03307,0.13346 -0.330729,0.13346 -0.363802,0 -0.51263,-0.0601 -0.330729,-0.13346 z m 8.137811,-4.05507 c -0.09483,-0.15343 0.01918,-0.19216 0.275804,-0.0937 0.324183,0.1244 0.413136,0.0416 0.343543,-0.31975 -0.06491,-0.33706 -0.502092,-0.58957 -1.415897,-0.81782 l -1.32199,-0.33021 1.190625,0.14371 c 1.335989,0.16125 2.003443,0.63866 1.764276,1.26192 -0.180777,0.4711 -0.593942,0.54808 -0.836361,0.15584 z m -1.506691,-0.18377 c 0.190994,-0.0764 0.419198,-0.067 0.507119,0.0209 0.08792,0.0879 -0.06835,0.15045 -0.347266,0.13896 -0.308226,-0.0127 -0.370919,-0.0754 -0.159853,-0.15985 z m -5.308204,-0.78824 c 0.181901,-0.0734 0.479558,-0.0734 0.661459,0 0.181901,0.0734 0.03307,0.13345 -0.330729,0.13345 -0.363803,0 -0.512631,-0.06 -0.33073,-0.13345 z m 7.574259,-0.74013 c -0.09083,-0.23671 -0.120676,-0.46298 -0.06632,-0.50282 0.05436,-0.0398 1.48789,-1.40393 3.185626,-3.0313 2.56804,-2.4616 3.223892,-2.95885 3.902604,-2.95885 1.027523,0 1.036103,0.33627 0.02691,1.05487 -0.433892,0.30896 -0.761314,0.69846 -0.727604,0.86556 0.03371,0.16709 -0.176525,0.30937 -0.467188,0.31617 -0.290666,0.007 -0.528791,0.16273 -0.529167,0.34651 -2.64e-4,0.18379 -0.595997,0.7841 -1.323601,1.33402 -0.727605,0.54992 -1.322917,1.13774 -1.322917,1.30626 0,0.16852 -0.172852,0.46118 -0.384114,0.65036 -0.331595,0.29692 -0.336212,0.28065 -0.03375,-0.11907 0.533228,-0.70467 0.08074,-0.5548 -1.065241,0.35283 -0.87661,0.69429 -1.054693,0.75172 -1.19524,0.38546 z m -3.997349,-0.0617 c 0.257432,-0.0671 0.61462,-0.0627 0.793751,0.01 0.17913,0.0725 -0.03149,0.12736 -0.468056,0.12197 -0.436563,-0.005 -0.583126,-0.0647 -0.325695,-0.13177 z m -6.139738,-0.54425 -0.570931,-0.46303 0.46124,-3.28385 c 0.25368,-1.80611 0.513921,-3.1258 0.57831,-2.93263 0.06439,0.19317 0.33745,-0.35316 0.606799,-1.21406 0.269351,-0.86091 0.443312,-1.69289 0.386582,-1.84886 -0.137739,-0.37869 0.827318,-0.97799 1.034651,-0.64252 0.08624,0.13953 0.03765,0.47633 -0.107979,0.74843 -0.392856,0.73406 -1.665357,8.00128 -1.545934,8.82879 0.06142,0.4256 -0.0026,0.64836 -0.158684,0.55191 -0.153908,-0.0951 -0.192093,0.0196 -0.09272,0.27856 0.21345,0.55624 0.118063,0.55257 -0.591333,-0.0228 z m 2.580809,0.14076 c 0.141097,-0.14109 0.477547,-0.20969 0.747665,-0.15244 0.363755,0.0771 0.297223,0.14364 -0.25654,0.25655 -0.482817,0.0984 -0.656791,0.0616 -0.491125,-0.10411 z m 1.971429,0.1389 c 0.257432,-0.0671 0.61462,-0.0627 0.79375,0.01 0.179131,0.0725 -0.03149,0.12736 -0.468055,0.12197 -0.436563,-0.005 -0.583126,-0.0647 -0.325695,-0.13177 z m 14.431294,-3.17238 c 0.190995,-0.0764 0.419198,-0.067 0.507119,0.0209 0.08792,0.0879 -0.06835,0.15045 -0.347266,0.13897 -0.308226,-0.0127 -0.370919,-0.0754 -0.159853,-0.15985 z m -0.437782,-0.8776 c 0,-0.3638 0.06006,-0.51263 0.133453,-0.33073 0.0734,0.1819 0.0734,0.47956 0,0.66146 -0.0734,0.1819 -0.133453,0.0331 -0.133453,-0.33073 z m -44.959559,-0.79375 c 0,-0.50932 0.05445,-0.71768 0.121,-0.46302 0.06655,0.25466 0.06655,0.67138 0,0.92604 -0.06655,0.25467 -0.121,0.0463 -0.121,-0.46302 z m 0.534506,-0.13229 c 0.0029,-0.58208 0.05712,-0.78905 0.120406,-0.45993 0.06329,0.32911 0.06088,0.80536 -0.0053,1.05833 -0.06622,0.25296 -0.118004,-0.0163 -0.115067,-0.5984 z m 45.441611,0.55748 c 0,-0.0572 0.184777,-0.17489 0.410617,-0.26156 0.235458,-0.0904 0.341662,-0.046 0.248968,0.10399 -0.155379,0.25141 -0.659585,0.37185 -0.659585,0.15757 z m -1.186799,-1.12662 c 0.698357,-3.40732 0.985634,-4.61501 1.076238,-4.52441 0.143893,0.1439 -0.786326,4.62343 -1.005647,4.84275 -0.09397,0.094 -0.125738,-0.0493 -0.07059,-0.31834 z m 1.207688,-0.77582 c 0.0127,-0.30823 0.07539,-0.37092 0.159851,-0.15986 0.07643,0.191 0.06703,0.4192 -0.02088,0.50712 -0.08792,0.0879 -0.150453,-0.0683 -0.138965,-0.34726 z m -45.243752,-1.32292 c 0.0127,-0.30823 0.07539,-0.37092 0.159852,-0.15985 0.07643,0.19099 0.06703,0.41919 -0.02089,0.50712 -0.08792,0.0879 -0.150452,-0.0684 -0.138964,-0.34727 z m 26.193751,-0.79375 c 0.0127,-0.30823 0.07539,-0.37092 0.159851,-0.15985 0.07643,0.19099 0.06703,0.41919 -0.02088,0.50712 -0.08792,0.0879 -0.150452,-0.0684 -0.138964,-0.34727 z m 20.12922,-1.96233 c 0,-0.3638 0.06006,-0.51263 0.133454,-0.33073 0.0734,0.1819 0.0734,0.47956 0,0.66146 -0.0734,0.1819 -0.133454,0.0331 -0.133454,-0.33073 z m -0.978458,-0.39687 c 0.113279,-0.29104 0.211624,-0.67276 0.218546,-0.84826 0.0069,-0.1755 0.112122,-0.25757 0.233783,-0.18238 0.121661,0.0752 0.08569,0.39738 -0.07994,0.71597 -0.406416,0.78176 -0.626615,0.96783 -0.372393,0.31467 z m 1.201267,-0.58497 c 0,-0.15195 0.208359,-0.43969 0.463021,-0.63941 0.428296,-0.33589 0.433911,-0.32344 0.07487,0.16604 -0.213485,0.29105 -0.421844,0.57878 -0.463021,0.63941 -0.04118,0.0606 -0.07487,-0.0141 -0.07487,-0.16604 z m -19.843751,-0.98692 c 0,-0.20969 0.107958,-0.44798 0.239908,-0.52953 0.131951,-0.0816 0.177594,0.09 0.101434,0.38126 -0.161557,0.6178 -0.341342,0.69589 -0.341342,0.14827 z m 1.3477,-0.21405 c -0.142877,-0.38185 -0.116101,-0.66501 0.07467,-0.7897 0.512763,-0.33513 0.773573,-0.21994 0.432509,0.19102 -0.17962,0.21643 -0.257466,0.57361 -0.172992,0.79375 0.08447,0.22013 0.09396,0.40024 0.02106,0.40024 -0.07288,0 -0.232751,-0.26789 -0.355261,-0.59531 z m 1.298134,-0.33073 c 0.341775,-0.3638 0.680939,-0.66146 0.7537,-0.66146 0.07276,0 -0.147342,0.29766 -0.489117,0.66146 -0.341776,0.3638 -0.68094,0.66146 -0.7537,0.66146 -0.07276,0 0.147341,-0.29766 0.489117,-0.66146 z m -3.586123,0.10924 c -0.09777,-0.1582 -0.07078,-0.39463 0.05998,-0.52539 0.14061,-0.14061 0.237749,-0.0231 0.237749,0.28764 0,0.60119 -0.04895,0.64028 -0.29773,0.23775 z m 19.908777,-0.14616 c 0.136154,-0.35481 0.07876,-0.38471 -0.31527,-0.1642 -0.350774,0.19631 -0.739926,0.15156 -1.431536,-0.16461 -0.906407,-0.41436 -4.257098,-2.89266 -4.257098,-3.14871 0,-0.0672 0.18147,0.0284 0.40327,0.21246 0.221797,0.18407 0.467741,0.2702 0.546544,0.1914 0.221512,-0.22151 -1.496597,-1.41548 -2.592239,-1.80143 -0.920353,-0.3242 -0.949598,-0.36752 -0.473263,-0.70116 0.774486,-0.54247 1.997501,0.094 4.322035,2.24937 1.091888,1.01241 2.321396,1.92512 2.732244,2.02823 0.410845,0.10312 0.896485,0.31156 1.079201,0.4632 0.390705,0.32425 0.447236,1.26925 0.07593,1.26925 -0.140951,0 -0.181369,-0.19521 -0.08982,-0.4338 z m -14.470571,-1.28406 c 0,-0.17923 2.149099,-1.24832 2.268794,-1.12863 0.05546,0.0555 -0.432324,0.35988 -1.083974,0.67648 -0.65165,0.31659 -1.18482,0.52006 -1.18482,0.45215 z m -20.606809,-1.00974 c -0.01688,-0.26325 -0.149754,-0.40505 -0.295275,-0.31511 -0.145521,0.0899 -0.264583,-0.0221 -0.264583,-0.24897 0,-0.59908 -0.471337,-0.50611 -0.612114,0.12073 -0.09944,0.44277 -0.113634,0.43155 -0.08369,-0.0661 0.02738,-0.45512 0.179127,-0.5842 0.630516,-0.53635 0.326951,0.0347 0.594456,-0.0546 0.594456,-0.19843 0,-0.14381 0.11484,-0.26147 0.255199,-0.26147 0.632317,0 4.491387,-2.63023 6.362711,-4.33663 1.134578,-1.03459 2.847403,-2.57427 3.806274,-3.42151 1.794196,-1.58531 4.61553,-5.512208 5.703515,-7.938479 0.454015,-1.01248 0.506764,-1.356097 0.254796,-1.659702 -0.259101,-0.312196 -0.237587,-0.35211 0.116542,-0.216218 0.288485,0.110703 0.434297,0.02785 0.434297,-0.246777 0,-0.227388 0.275897,-0.819988 0.613101,-1.316888 0.54312,-0.800333 0.667874,-0.863406 1.092954,-0.552579 0.460944,0.33705 0.457636,0.398136 -0.08393,1.55028 -0.310084,0.659673 -0.563787,1.326442 -0.563787,1.481711 0,0.572309 -1.612514,3.506592 -3.203787,5.829912 -0.900705,1.31506 -2.364026,3.03412 -3.251825,3.82013 -0.887799,0.78601 -2.626212,2.32507 -3.863139,3.42013 -1.353314,1.1981 -3.271081,2.54582 -4.815506,3.38413 -1.411603,0.76621 -2.618183,1.57171 -2.681289,1.78999 -0.08446,0.29214 -0.122837,0.27056 -0.14543,-0.0818 z m 24.046392,-0.55139 c 0,-0.0572 0.184777,-0.17489 0.410618,-0.26155 0.235458,-0.0904 0.341662,-0.046 0.248967,0.10398 -0.155379,0.25141 -0.659585,0.37186 -0.659585,0.15757 z M 47.782219,111.8125 c 1.510839,-4.19888 1.753863,-4.56789 5.316634,-8.07279 9.143672,-8.995153 9.063501,-8.922238 9.404961,-8.553908 0.259422,0.279834 0.253421,0.30998 -0.02967,0.149122 -0.359566,-0.204309 -0.600009,0.01879 -9.036037,8.384316 l -3.660718,3.63013 -1.08098,2.79859 c -0.594539,1.53922 -1.08098,2.90497 -1.08098,3.03499 0,0.13002 -0.11903,0.30996 -0.264512,0.39987 -0.145482,0.0899 0.04861,-0.70673 0.431307,-1.77032 z m 23.910289,1.79868 c 0,-0.251 0.791998,-0.37749 0.933183,-0.14905 0.08601,0.13917 -0.08877,0.25303 -0.388401,0.25303 -0.29963,0 -0.544782,-0.0468 -0.544782,-0.10398 z m 1.205876,-0.40051 c -0.08155,-0.13195 0.09002,-0.1776 0.381259,-0.10144 0.386067,0.10096 0.535191,0.005 0.550421,-0.3554 0.0159,-0.37587 0.05699,-0.39905 0.171963,-0.097 0.08309,0.21828 0.282051,0.48434 0.442132,0.59126 0.160081,0.10691 -0.08887,0.19621 -0.553223,0.19843 -0.464354,0.002 -0.911003,-0.1039 -0.992552,-0.23585 z m 1.439957,-1.33198 c 0,-0.63885 0.147138,-0.7033 0.357013,-0.15638 0.08197,0.21362 0.03518,0.45877 -0.103984,0.54478 -0.139165,0.086 -0.253029,-0.0888 -0.253029,-0.3884 z m -25.116666,-1.20624 c 0,-0.14552 0.170156,-0.56224 0.378124,-0.92604 0.207968,-0.3638 0.378124,-0.5424 0.378124,-0.39688 0,0.14552 -0.170156,0.56224 -0.378124,0.92605 -0.207968,0.3638 -0.378124,0.54239 -0.378124,0.39687 z m 1.296279,-2.76339 c 0.151423,-0.28294 0.406087,-0.59525 0.565919,-0.69403 0.159835,-0.0988 0.08597,0.13271 -0.164142,0.51443 -0.529595,0.80826 -0.803836,0.93085 -0.401777,0.1796 z m 80.970386,0.14995 c 0,-0.0549 0.20836,-0.2633 0.46302,-0.46302 0.41965,-0.32911 0.42901,-0.31975 0.0999,0.0999 -0.34564,0.44073 -0.56292,0.58089 -0.56292,0.36312 z m 0.66146,-1.4876 c 0.26339,-0.29104 0.53842,-0.52917 0.61118,-0.52917 0.0728,0 -0.0832,0.23813 -0.3466,0.52917 -0.26339,0.29104 -0.53842,0.52917 -0.61118,0.52917 -0.0728,0 0.0832,-0.23813 0.3466,-0.52917 z m -80.697918,0.0965 c 0.145521,-0.12808 0.680869,-0.58914 1.189665,-1.02457 l 0.925079,-0.7917 -0.660496,0.7519 c -0.363275,0.41354 -0.898623,0.8746 -1.189664,1.02457 -0.291042,0.14997 -0.410104,0.16788 -0.264584,0.0398 z m 83.872918,-2.21315 c 0.56839,-0.58208 1.09297,-1.05833 1.16573,-1.05833 0.0728,0 -0.33276,0.47625 -0.90115,1.05833 -0.56838,0.58209 -1.09296,1.05834 -1.16572,1.05834 -0.0728,0 0.33275,-0.47625 0.90114,-1.05834 z m -80.000426,-1.25991 c 0.915721,-1.05675 2.443086,-2.58414 3.394144,-3.394204 l 1.729198,-1.472838 -1.648947,1.549245 c -0.906923,0.852087 -2.434286,2.379477 -3.394144,3.394207 l -1.745197,1.84496 z m 37.464245,-0.0958 c 0.179477,-0.18082 0.39297,-0.26211 0.474432,-0.18065 0.08146,0.0815 -0.06538,0.22941 -0.326318,0.32877 -0.377085,0.14358 -0.407475,0.11319 -0.148114,-0.14812 z m 13.585191,-0.38609 c 0.0127,-0.30822 0.0754,-0.37092 0.15986,-0.15985 0.0764,0.19099 0.067,0.4192 -0.0209,0.50712 -0.0879,0.0879 -0.15045,-0.0683 -0.13896,-0.34727 z M 92.015816,102.1574 c 0.190995,-0.0764 0.4192,-0.067 0.507119,0.0209 0.08792,0.0879 -0.06835,0.15045 -0.347266,0.13897 -0.308226,-0.0127 -0.370919,-0.0754 -0.159853,-0.15985 z m 15.302224,-0.0206 c -0.0684,-0.11074 0.0436,-0.43115 0.24897,-0.71202 0.20538,-0.28088 0.37342,-0.37589 0.37342,-0.21114 0,0.16474 -0.12101,0.37432 -0.2689,0.46572 -0.1479,0.0914 -0.2004,0.27703 -0.11668,0.41249 0.0837,0.13547 0.0927,0.24631 0.0199,0.24631 -0.0728,0 -0.18829,-0.0906 -0.25673,-0.20136 z m -3.61095,-0.16466 c 0,-0.0558 0.23813,-0.1637 0.52917,-0.23981 0.29104,-0.0761 0.52917,-0.0305 0.52917,0.10143 0,0.1319 -0.23813,0.23981 -0.52917,0.23981 -0.29104,0 -0.52917,-0.0456 -0.52917,-0.10143 z m 2.77546,-0.16747 c -0.0914,-0.14789 -0.264,-0.20845 -0.38355,-0.13456 -0.11955,0.0739 -0.4229,-0.17936 -0.67411,-0.56276 -0.41188,-0.6286 -0.43786,-1.226347 -0.26442,-6.083147 0.17444,-4.884824 0.23552,-5.386048 0.65643,-5.386048 0.40449,0 0.48803,0.388662 0.65045,3.026278 0.12268,1.992093 0.0898,3.206784 -0.0963,3.554482 -0.39763,0.742981 -0.35145,3.160845 0.0883,4.621985 0.35923,1.19362 0.3671,1.52017 0.0232,0.96377 z m -12.300458,-0.26026 c 0.218281,-0.14107 0.515937,-0.25648 0.661458,-0.25648 0.145521,0 0.08599,0.11541 -0.132291,0.25648 -0.218282,0.14106 -0.515938,0.25647 -0.661459,0.25647 -0.145521,0 -0.08599,-0.11541 0.132292,-0.25647 z m 5.23026,0.0728 c 0.475548,-0.0589 1.189928,-0.0577 1.587498,0.003 0.39758,0.0604 0.008,0.10855 -0.86463,0.10706 -0.873128,-0.002 -1.198417,-0.0509 -0.722868,-0.10976 z m 3.451378,-0.51816 c 0.191,-0.0764 0.4192,-0.067 0.50712,0.0209 0.0879,0.0879 -0.0684,0.15045 -0.34726,0.13896 -0.30823,-0.0127 -0.37092,-0.0754 -0.15986,-0.15985 z m -6.564971,-0.32062 c 0.218281,-0.13423 0.873125,-0.31363 1.455208,-0.39865 0.749358,-0.10947 0.865225,-0.0904 0.396875,0.0652 -1.214488,0.40355 -2.277197,0.59488 -1.852083,0.33347 z m 7.408331,0.008 c 0,-0.17447 -0.26789,-0.42489 -0.59531,-0.5565 -0.40286,-0.16193 -0.4561,-0.244705 -0.16469,-0.256054 0.48941,-0.01906 1.18793,0.701824 0.93,0.959764 -0.0935,0.0935 -0.17,0.0273 -0.17,-0.14721 z M 90.234231,99.597788 C 90.218805,99.03909 90.1098,98.88161 89.816467,98.994172 c -0.218281,0.08376 -0.398053,0.06673 -0.399492,-0.03784 -0.0013,-0.104573 -0.125643,-1.906335 -0.276008,-4.003915 -0.279614,-3.900555 -0.22298,-4.239343 0.710787,-4.251958 0.377735,-0.0051 0.660175,0.99885 0.313513,1.114404 -0.383429,0.127809 0.185698,5.583904 0.687351,6.589493 0.516432,1.035212 0.52511,1.287885 0.04423,1.287885 -0.206153,0 -0.43488,0.148828 -0.508278,0.330729 -0.0734,0.1819 -0.142851,-0.009 -0.154339,-0.425182 z m 9.04109,0.441232 c 0.254662,-0.06654 0.67138,-0.06654 0.926039,0 0.25466,0.0666 0.0463,0.121 -0.463018,0.121 -0.509323,0 -0.717682,-0.0545 -0.463021,-0.121 z m 7.363079,-1.824035 c 0.0127,-0.308225 0.0754,-0.370919 0.15985,-0.159853 0.0764,0.190997 0.067,0.4192 -0.0209,0.507119 -0.0879,0.08792 -0.15045,-0.06835 -0.13896,-0.347266 z m -46.04711,-0.03489 c 0.0062,-0.114204 0.501964,-0.743425 1.101688,-1.398269 1.136038,-1.240452 0.894532,-0.77078 -0.378873,0.736811 -0.403754,0.478006 -0.72902,0.775662 -0.722815,0.661458 z m 46.59716,-0.604519 c 0,-0.363802 0.0601,-0.51263 0.13345,-0.330729 0.0734,0.181901 0.0734,0.479557 0,0.661458 -0.0734,0.181901 -0.13345,0.03307 -0.13345,-0.330729 z M 54.097716,94.135993 c 0.26339,-0.291042 0.538422,-0.529167 0.611182,-0.529167 0.07276,0 -0.08321,0.238125 -0.346599,0.529167 -0.26339,0.291041 -0.538422,0.529166 -0.611182,0.529166 -0.07276,0 0.08321,-0.238125 0.346599,-0.529166 z M 53.965424,93.50693 c 0,-0.05494 0.20836,-0.263301 0.463021,-0.463021 0.419645,-0.329107 0.429003,-0.319749 0.0999,0.0999 -0.345644,0.440729 -0.562917,0.580887 -0.562917,0.363126 z m 86.539646,-0.848195 c 0.0127,-0.308225 0.0754,-0.37092 0.15985,-0.159853 0.0764,0.190996 0.067,0.419199 -0.0209,0.507118 -0.0879,0.08792 -0.15045,-0.06835 -0.13896,-0.347265 z M 56.875841,90.596513 c 0,-0.05494 0.208359,-0.263301 0.463021,-0.46302 0.419645,-0.329108 0.429003,-0.31975 0.0999,0.09989 -0.345644,0.44073 -0.562917,0.580888 -0.562917,0.363126 z M 88.9322,90.167242 c 0,-0.363803 0.06006,-0.512631 0.133453,-0.33073 0.0734,0.181901 0.0734,0.479558 0,0.661459 -0.0734,0.181901 -0.133453,0.03307 -0.133453,-0.330729 z M 57.934174,89.53818 c 0,-0.05494 0.20836,-0.263302 0.463021,-0.463021 0.419645,-0.329107 0.429003,-0.319749 0.0999,0.0999 -0.345644,0.440729 -0.562917,0.580887 -0.562917,0.363126 z m 0.79375,0 c 0,-0.05494 0.20836,-0.263302 0.463021,-0.463021 0.419645,-0.329107 0.429004,-0.319749 0.0999,0.0999 -0.345644,0.440729 -0.562917,0.580887 -0.562917,0.363126 z m 34.594272,-0.0915 c 0.472943,-0.05869 1.246849,-0.05869 1.719792,0 0.472943,0.05869 0.08599,0.106713 -0.859896,0.106713 -0.945885,0 -1.332839,-0.04802 -0.859896,-0.106713 z m 4.155975,-0.615652 c 0.866955,-0.271808 1.62284,-0.447641 1.679741,-0.39074 0.122706,0.122706 -2.563661,0.944045 -2.973321,0.909073 -0.15549,-0.01327 0.426622,-0.246524 1.29358,-0.518333 z m 7.837309,0.123544 c 0.0127,-0.308225 0.0754,-0.370919 0.15985,-0.159853 0.0764,0.190997 0.067,0.4192 -0.0209,0.507119 -0.0879,0.08792 -0.15046,-0.06835 -0.13897,-0.347266 z m 0.59647,-0.230896 c 0,-0.21188 0.0992,-0.323916 0.22049,-0.248969 0.12127,0.07495 0.22049,0.248304 0.22049,0.385237 0,0.136932 -0.0992,0.248968 -0.22049,0.248968 -0.12127,0 -0.22049,-0.173356 -0.22049,-0.385236 z m -12.308634,-0.06009 c 0.190995,-0.07643 0.4192,-0.06703 0.507119,0.02089 0.08792,0.08792 -0.06835,0.150453 -0.347266,0.138965 -0.308226,-0.01269 -0.370919,-0.07539 -0.159853,-0.159853 z M 91.872023,88.39639 c 0.257431,-0.06708 0.614619,-0.06267 0.79375,0.0098 0.179131,0.07248 -0.03149,0.127362 -0.468056,0.12197 -0.436563,-0.0054 -0.583126,-0.06469 -0.325694,-0.131773 z m 2.77309,0.0081 c 0.181901,-0.0734 0.479557,-0.0734 0.661458,0 0.181901,0.0734 0.03307,0.133452 -0.330729,0.133452 -0.363802,0 -0.51263,-0.06005 -0.330729,-0.133452 z m 1.604036,-0.270095 c 0.190995,-0.07643 0.419201,-0.06703 0.507119,0.02089 0.08792,0.08792 -0.06835,0.150453 -0.347265,0.138965 -0.308227,-0.01269 -0.37092,-0.07539 -0.159854,-0.159853 z m 3.439584,0 c 0.190994,-0.07643 0.419197,-0.06703 0.507117,0.02089 0.0879,0.08792 -0.0683,0.150453 -0.347264,0.138965 -0.308226,-0.01269 -0.370919,-0.07539 -0.159853,-0.159853 z M 59.786258,87.95068 c 0,-0.05494 0.208359,-0.263302 0.463021,-0.463021 0.419645,-0.329107 0.429003,-0.319749 0.0999,0.0999 -0.345644,0.440729 -0.562917,0.580887 -0.562917,0.363126 z m 0.79375,0 c 0,-0.05494 0.208359,-0.263302 0.463021,-0.463021 0.419645,-0.329107 0.429003,-0.319749 0.0999,0.0999 -0.345644,0.440729 -0.562917,0.580887 -0.562917,0.363126 z m 36.777084,-0.164689 c 0.218281,-0.141064 0.575469,-0.249935 0.79375,-0.241935 0.261689,0.0096 0.216625,0.092 -0.132292,0.241935 -0.727363,0.312559 -1.145108,0.312559 -0.661458,0 z m 3.373438,0.08935 c 0.1819,-0.0734 0.47956,-0.0734 0.66146,0 0.1819,0.0734 0.0331,0.133452 -0.33073,0.133452 -0.3638,0 -0.51263,-0.06005 -0.33073,-0.133452 z m 1.98437,-0.271739 c 0.25467,-0.06655 0.46303,-0.231332 0.46303,-0.366183 0,-0.13485 0.13364,-0.245183 0.29697,-0.245183 0.20519,0 0.19518,0.122671 -0.0324,0.396875 -0.18116,0.218282 -0.52316,0.383064 -0.76,0.366184 -0.36332,-0.0259 -0.35825,-0.04961 0.0324,-0.151693 z m 3.73063,-0.09543 c 0.0739,-0.406671 0.53623,-0.364236 0.64853,0.05953 0.0733,0.276706 0.0397,0.274579 -0.1598,-0.01009 -0.17814,-0.254263 -0.29532,-0.271825 -0.39717,-0.05953 -0.0934,0.194742 -0.12578,0.198308 -0.0916,0.01009 z m -7.500938,-0.251354 c 0.218281,-0.141064 0.515938,-0.25648 0.661458,-0.25648 0.145521,0 0.08599,0.115416 -0.132291,0.25648 -0.218282,0.141064 -0.515938,0.25648 -0.661459,0.25648 -0.14552,0 -0.08599,-0.115416 0.132292,-0.25648 z m 1.852088,-0.638941 c 0.99414,-0.407016 3.06484,-0.547088 3.26641,-0.220955 0.0674,0.109141 -0.49107,0.201572 -1.24116,0.205403 -0.75009,0.0038 -1.72098,0.0942 -2.15755,0.200826 -0.69213,0.169043 -0.675194,0.145325 0.1323,-0.185274 z m 9.2108,-7.743883 c 0.191,-0.07643 0.4192,-0.06703 0.50712,0.02089 0.0879,0.08792 -0.0683,0.150453 -0.34726,0.138965 -0.30823,-0.0127 -0.37092,-0.07539 -0.15986,-0.159853 z m -6.36653,-0.788238 c 0.1819,-0.0734 0.47955,-0.0734 0.66145,0 0.18191,0.0734 0.0331,0.133452 -0.33072,0.133452 -0.36381,0 -0.51263,-0.06005 -0.33073,-0.133452 z M 89.369982,77.815667 c 0.190995,-0.07643 0.419198,-0.06703 0.507119,0.02089 0.08792,0.08792 -0.06835,0.150453 -0.347265,0.138965 -0.308227,-0.01269 -0.37092,-0.07539 -0.159854,-0.159853 z m 11.377088,0 c 0.19099,-0.07643 0.4192,-0.06703 0.50712,0.02089 0.0879,0.08792 -0.0684,0.150453 -0.34727,0.138965 -0.30823,-0.01269 -0.37092,-0.07539 -0.15985,-0.159853 z m 4.49791,-0.264583 c 0.191,-0.07643 0.4192,-0.06703 0.50712,0.02089 0.0879,0.08792 -0.0683,0.150453 -0.34726,0.138964 -0.30823,-0.0127 -0.37092,-0.07539 -0.15986,-0.159852 z M 102.86373,77.2865 c 0.191,-0.07643 0.4192,-0.06703 0.50712,0.02089 0.0879,0.08792 -0.0684,0.150452 -0.34726,0.138964 -0.30823,-0.0127 -0.37092,-0.07539 -0.15986,-0.159854 z M 91.205529,77.027429 c 0.181901,-0.0734 0.479558,-0.0734 0.661459,0 0.181901,0.0734 0.03307,0.133452 -0.330729,0.133452 -0.363803,0 -0.512631,-0.06005 -0.33073,-0.133452 z m 7.545661,-0.0081 c 0.257431,-0.06708 0.614619,-0.06267 0.79375,0.0098 0.17913,0.07248 -0.03149,0.127362 -0.468056,0.12197 -0.436563,-0.0054 -0.583126,-0.06469 -0.325694,-0.131774 z"
         id="path8426"
         sodipodi:nodetypes="ccccccccccsssssssssscssccssccsscsssscssssssssscsscscssssccssssssscccccccssssssssscccscccccccssssssssssssscscccscssssssssssssssssssscsssssssssssssssssscsssssssssssssssssssssssssssssssssscssscssscsssssssssssssssssssscssssssscsssssssssssssscssssssssssssssssssssssssscsssssssssscsscsscsssssssssssssssssssssssssssssscssssssscccccssssssscssssssssscsssssssccscsssssssssscsssssssssssssssssssssssssssssssssssssssssssssssssssssssssssssssssssssssssssssssssssssssssssssssssssssscscsccssssssccsssssssssssssssssssssssssssssssssssssss" />
      <path
         style="fill:#6baa1d;stroke-width:0.264583"
         d="m 72.221675,131.68107 c -0.509323,-0.1189 -1.364663,-0.28539 -1.900756,-0.36997 -0.536091,-0.0846 -1.607654,-0.37337 -2.381251,-0.64174 -1.283104,-0.44514 -1.34693,-0.50374 -0.727329,-0.66782 0.591699,-0.1567 3.386593,0.2248 6.330654,0.86412 1.159161,0.25172 1.417159,1.02297 0.343911,1.02808 -0.406553,0.002 -1.155906,-0.0938 -1.665229,-0.21267 z m 11.1125,-5.66279 c 0,-0.3638 -0.116509,-0.66145 -0.258911,-0.66145 -0.162179,0 -0.170561,-0.22242 -0.02244,-0.59532 0.130064,-0.32742 0.439737,-1.60734 0.688162,-2.84427 0.248428,-1.23692 0.618766,-2.57638 0.822979,-2.97656 0.204211,-0.40018 0.28489,-0.7276 0.17929,-0.7276 -0.105601,0 -0.0595,-0.1325 0.102444,-0.29445 0.610592,-0.61059 0.7928,0.0266 0.403669,1.41174 -0.215746,0.76794 -0.444651,1.81297 -0.50868,2.32229 -0.06403,0.50932 -0.235818,1.17077 -0.381751,1.46988 -0.145937,0.29911 -0.243515,0.65629 -0.216845,0.79375 0.02667,0.13745 0.03439,0.81546 0.01714,1.50668 -0.0231,0.92682 -0.135527,1.25677 -0.428207,1.25677 -0.246943,0 -0.396875,-0.24988 -0.396875,-0.66146 z m -18.227239,-3.30729 c 5.29e-4,-0.6257 0.987568,-3.33895 1.010642,-2.77812 0.006,0.14552 -0.219083,0.97896 -0.500155,1.85208 -0.297315,0.92358 -0.51081,1.31087 -0.510487,0.92604 z m 2.087655,-5.37104 c 0,-0.18918 0.142875,-0.48683 0.3175,-0.66146 0.174625,-0.17462 0.22502,-0.3175 0.11199,-0.3175 -0.297405,0 1.10153,-1.1262 2.440324,-1.96457 0.804947,-0.50406 1.625761,-0.75784 2.735487,-0.84577 1.87646,-0.14867 1.861786,0.19129 -0.03546,0.82145 -1.376442,0.45718 -4.130197,2.1233 -4.742345,2.86929 -0.433673,0.52849 -0.8275,0.5754 -0.8275,0.0986 z m -19.694584,-3.95552 c 0.101655,-0.32742 0.65565,-1.81926 1.231102,-3.31519 l 1.046275,-2.71987 3.660718,-3.63013 c 8.069702,-8.002259 8.688419,-8.581476 8.976513,-8.403424 0.370187,0.228788 -0.799409,1.742386 -2.702457,3.49731 -0.75961,0.700486 -2.512202,2.405244 -3.89465,3.788344 -1.382448,1.3831 -3.076912,3.01983 -3.765474,3.63717 -1.34856,1.20907 -2.494578,3.22488 -3.272789,5.75673 -0.26837,0.87312 -0.610253,1.67497 -0.759738,1.78188 -0.502944,0.35971 -0.705568,0.2065 -0.5195,-0.39282 z m 30.939376,-0.26418 -0.79375,-0.80241 0.851895,0.57869 c 0.870212,0.59113 1.333709,1.10588 0.949658,1.05467 -0.117729,-0.0157 -0.57124,-0.38962 -1.007803,-0.83095 z m 13.14172,-10.21936 c -0.51511,-0.32704 5.964968,-2.39521 8.552037,-2.72945 2.09806,-0.271065 3.57395,-0.0483 3.57395,0.53951 0,0.30597 -1.32088,0.56879 -2.85856,0.56879 -0.6627,0 -1.57055,0.11191 -2.017444,0.24868 -0.446895,0.13677 -1.526911,0.39534 -2.400036,0.5746 -0.873125,0.17926 -1.885156,0.44077 -2.248958,0.58114 -0.962141,0.37123 -2.19574,0.47403 -2.600989,0.21673 z m -1.764636,-3.737815 c -0.08994,-0.145521 -0.03743,-0.264583 0.116676,-0.264583 0.154109,0 0.280199,0.119062 0.280199,0.264583 0,0.145521 -0.0525,0.264584 -0.116676,0.264584 -0.06417,0 -0.190262,-0.119063 -0.280199,-0.264584 z m 1.464744,-9.78369 c -0.724723,-0.447903 0.04641,-0.861594 1.369123,-0.734497 1.557573,0.149663 3.723307,-0.282361 6.910221,-1.37846 2.181815,-0.750407 4.419875,-1.057798 4.404295,-0.604916 -0.01,0.282588 -1.91677,1.124479 -2.54717,1.124479 -0.2907,0 -1.710209,0.345319 -3.154464,0.767375 -2.656581,0.776337 -6.354517,1.213827 -6.982005,0.826019 z"
         id="path8424" />
      <path
         style="fill:#585955;stroke-width:0.264583"
         d="m 50.683781,136.96177 c -5.999129,-0.76979 -9.371357,-2.86312 -11.35379,-7.04794 -0.824203,-1.73985 -0.842066,-1.85725 -0.814139,-5.35075 0.02571,-3.21587 0.109258,-3.82241 0.838271,-6.08542 2.948302,-9.15218 9.51027,-19.77094 16.595441,-26.85521 4.548206,-4.547628 10.09151,-8.773858 13.759627,-10.490378 1.842135,-0.862038 3.780177,-1.307216 3.464047,-0.795708 -0.103973,0.168232 -0.449908,0.305971 -0.768742,0.306086 -1.350123,4.86e-4 -5.56288,2.450221 -9.972405,5.798997 -3.046719,2.313804 -9.250172,8.57969 -11.574791,11.691282 -5.137202,6.876341 -9.462443,15.002581 -11.177751,21.000701 -1.25253,4.37987 -1.21982,7.57131 0.10818,10.55471 2.538092,5.70193 8.3382,7.59 20.997114,6.83505 8.703326,-0.51905 13.673884,-1.64216 27.97329,-6.32062 14.837397,-4.85449 30.329287,-12.94438 40.703197,-21.25528 5.64947,-4.52599 8.57788,-7.9584 9.83898,-11.53232 2.33286,-6.611268 -1.59724,-11.704996 -11.60082,-15.035594 -4.46387,-1.486202 -16.50898,-3.631032 -24.52156,-4.366468 -4.42913,-0.406528 -12.680809,-0.349415 -16.201734,0.112138 -8.051435,1.055451 -12.846756,2.606932 -18.876299,6.107247 -1.612132,0.935888 -3.087264,1.701615 -3.278068,1.701615 -0.794277,0 5.854891,-3.954482 8.458179,-5.030362 6.421644,-2.653918 16.402545,-4.215564 24.606251,-3.849978 9.659471,0.43046 24.696431,2.857744 30.594981,4.938678 7.54689,2.662448 11.14736,5.863114 12.04245,10.705252 0.25347,1.371165 0.2166,1.843322 -0.29011,3.715344 -1.19989,4.432968 -3.86765,7.700118 -10.9942,13.464398 -7.30261,5.9067 -21.01279,13.56171 -32.146871,17.94906 -5.90721,2.32771 -18.200384,6.22085 -23.832699,7.54759 -6.656086,1.5679 -17.039998,2.29826 -22.576029,1.58788 z m 14.285622,-6.02243 c -0.259951,-0.28724 -0.346154,-0.57024 -0.201023,-0.65994 0.139753,-0.0864 0.322366,0.0209 0.405808,0.23832 0.157916,0.41153 1.226653,0.56246 1.226653,0.17324 0,-0.12216 -0.313042,-0.36474 -0.69565,-0.53907 -0.382606,-0.17433 -0.616032,-0.39658 -0.518721,-0.49389 0.09731,-0.0973 0.559181,0.0253 1.026379,0.27246 0.467196,0.24715 1.325701,0.62845 1.907784,0.84732 l 1.058333,0.39793 -1.097325,-0.14998 c -0.655949,-0.0897 -1.167741,-0.0361 -1.272386,0.13326 -0.280649,0.4541 -1.345126,0.32702 -1.839852,-0.21965 z m 10.206787,-0.26203 c 0.143256,-0.38295 5.99213,-4.99234 7.059967,-5.56383 1.45021,-0.77613 0.600003,0.0258 -2.327492,2.19535 -1.726584,1.27956 -3.409334,2.61397 -3.739447,2.96536 -0.591772,0.62991 -1.164904,0.86258 -0.993028,0.40312 z m 9.076333,-6.27868 c 0.107934,-0.5644 0.283329,-1.65575 0.389768,-2.42523 0.312319,-2.25786 0.760058,-2.2643 0.622181,-0.009 -0.06513,1.06545 -0.188391,2.11577 -0.273907,2.33405 -0.08551,0.21828 -0.165762,0.50602 -0.17833,0.63941 -0.01257,0.1334 -0.187801,0.29752 -0.389403,0.36472 -0.291502,0.0972 -0.326371,-0.0879 -0.170309,-0.90399 z m -18.901911,-3.53972 c 0,-0.21828 0.115414,-0.57547 0.256479,-0.79375 0.227984,-0.35278 0.256479,-0.35278 0.256479,0 0,0.21828 -0.115414,0.57547 -0.256479,0.79375 -0.227983,0.35278 -0.256479,0.35278 -0.256479,0 z m -1.28637,-3.16065 c -0.15494,-0.44445 -0.182724,-0.8081 -0.06175,-0.8081 0.120978,0 0.282231,0.23812 0.358341,0.52917 0.07611,0.29104 0.281496,0.52916 0.456417,0.52916 0.199782,0 0.261223,-0.22636 0.165246,-0.60877 -0.134149,-0.53449 -0.01659,-0.64545 0.963504,-0.90937 0.613963,-0.16534 1.771139,-0.79435 2.571504,-1.39781 1.719977,-1.29683 3.88411,-2.44901 4.320418,-2.30018 0.170387,0.0581 -0.374023,0.43035 -1.209796,0.82719 -0.835772,0.39684 -2.215523,1.24468 -3.066114,1.88408 -0.85059,0.6394 -1.854295,1.27956 -2.230456,1.42257 -0.410324,0.15601 -0.7185,0.50389 -0.770345,0.8696 -0.138964,0.98024 -1.151022,0.95486 -1.496973,-0.0375 z m 20.032412,-0.18432 c -0.169794,-0.20459 -0.215921,-0.45841 -0.102502,-0.56403 0.113421,-0.10562 0.259371,-0.0432 0.324337,0.13869 0.189304,0.53005 0.603186,0.38126 0.603186,-0.21684 0,-0.41652 0.142483,-0.52734 0.595313,-0.46302 0.433829,0.0616 0.595312,0.26178 0.595312,0.73794 0,0.5509 -0.133887,0.66013 -0.853464,0.69632 -0.469402,0.0236 -0.992386,-0.12447 -1.162182,-0.32906 z m -36.16373,-0.94128 c -0.174625,-0.17463 -0.3175,-0.58432 -0.3175,-0.91043 0,-0.32611 -0.119063,-0.66651 -0.264583,-0.75645 -0.470584,-0.29083 -0.293299,-1.07723 0.242849,-1.07723 0.352169,0 0.558405,0.24577 0.674017,0.8032 0.151638,0.73114 0.197745,0.76166 0.513923,0.34018 0.469754,-0.62621 0.685877,-0.58223 0.685877,0.13956 0,0.61647 -0.666751,1.77867 -1.020419,1.77867 -0.108165,0 -0.339539,-0.14288 -0.514164,-0.3175 z m 30.241876,-3.3873 c -0.436563,-0.28947 -1.190522,-0.65835 -1.675466,-0.81973 -0.781265,-0.25998 -0.926153,-0.22997 -1.271773,0.26348 -0.559774,0.79919 -1.15466,0.71086 -1.149752,-0.17072 0.0031,-0.55204 0.06345,-0.63369 0.250198,-0.33839 0.371213,0.58697 0.626803,0.136 0.284945,-0.50277 -0.420886,-0.78643 0.402125,-1.09729 0.925775,-0.34968 0.205089,0.29281 0.822574,0.72067 1.37219,0.9508 0.89776,0.37591 2.519712,1.47886 2.189925,1.48918 -0.07276,0.002 -0.48948,-0.2327 -0.926042,-0.52217 z M 48.409174,113.0343 c 0,-0.24639 0.180015,-0.38136 0.441096,-0.33073 0.663778,0.12874 0.754921,0.74701 0.110119,0.74701 -0.324997,0 -0.551215,-0.17084 -0.551215,-0.41628 z m 42.940297,-9.30716 c -0.0936,-0.25466 -0.327988,-0.55824 -0.520864,-0.67461 -0.599557,-0.36174 -0.403609,-0.97904 0.310777,-0.97904 0.69193,0 0.899861,0.38887 0.330729,0.61852 -0.264584,0.10677 -0.264584,0.13763 0,0.15434 0.181901,0.0115 0.332552,0.22925 0.33478,0.48391 0.0032,0.3662 0.05234,0.38678 0.235003,0.0984 0.127023,-0.20055 0.369107,-0.27925 0.537961,-0.17489 0.232627,0.14378 0.231944,0.2802 -0.0028,0.56307 -0.425037,0.51214 -1.020384,0.46856 -1.225571,-0.0897 z m 14.914889,-0.084 c -0.71771,-1.02468 -0.51091,-2.44154 0.26266,-1.79953 0.19529,0.16208 0.35507,0.206 0.35507,0.0976 0,-0.1084 0.1786,-0.0489 0.39688,0.13229 0.52482,0.43556 0.50068,0.87152 -0.0886,1.5992 l -0.48543,0.59949 z m 0.67506,-1.08898 c -0.40416,-0.40415 -0.70237,-0.10593 -0.47822,0.47822 0.13236,0.3449 0.2471,0.37908 0.48248,0.1437 0.23538,-0.23538 0.23437,-0.38329 -0.004,-0.62192 z m -13.277046,0.47378 c 0.213084,-0.20266 0.685083,-0.45555 1.048885,-0.56198 l 0.661458,-0.19349 -0.703191,0.56197 c -0.806836,0.64481 -1.65249,0.80728 -1.007152,0.1935 z m 6.737426,-1.4836 c -1.162259,-0.15942 -1.049797,-0.18424 0.92604,-0.20442 1.23693,-0.0126 2.48709,0.0793 2.77813,0.20442 0.64205,0.2759 -1.69262,0.2759 -3.70417,0 z m 6.64966,-0.81679 c -0.0898,-0.44924 -0.29553,-3.094178 -0.45707,-5.877648 -0.23033,-3.968766 -0.38023,-5.124119 -0.69464,-5.354024 -0.30413,-0.222386 -0.35647,-0.556331 -0.21678,-1.383165 0.22907,-1.355851 0.69054,-1.7999 1.44879,-1.394096 0.65572,0.35093 0.66575,0.493024 0.12935,1.833602 -0.36659,0.916214 -0.38135,1.672818 -0.12265,6.289209 0.16174,2.886234 0.36315,5.575122 0.44757,5.975302 0.086,0.40776 0.0382,0.72761 -0.10885,0.72761 -0.1443,0 -0.33587,-0.36756 -0.42572,-0.81679 z m -0.69653,-11.8676 c 0,-0.136933 -0.11907,-0.322553 -0.26459,-0.41249 -0.14552,-0.08994 -0.26458,0.0221 -0.26458,0.248968 0,0.22687 0.11906,0.41249 0.26458,0.41249 0.14552,0 0.26459,-0.112036 0.26459,-0.248968 z m 0.66145,-1.603115 c -0.12801,-0.207127 -0.28021,-0.222497 -0.4566,-0.04611 -0.14552,0.145521 -0.17817,0.404394 -0.0726,0.575274 0.12801,0.207128 0.28021,0.222497 0.4566,0.04611 0.14552,-0.145521 0.17817,-0.404394 0.0726,-0.575274 z M 89.975161,100.40212 c -0.189047,-0.555455 -0.275659,-1.077983 -0.192466,-1.161175 0.213236,-0.213237 0.735415,1.248435 0.626388,1.753375 -0.05069,0.23477 -0.240728,-0.0246 -0.433922,-0.5922 z M 65.40138,95.311614 c -0.600136,-0.420352 -0.805431,-1.746782 -0.375158,-2.423942 0.237787,-0.374227 1.636795,-0.53542 2.109796,-0.24309 0.455969,0.281806 0.403309,0.644589 -0.20601,1.419213 -0.291042,0.369999 -0.529167,0.894794 -0.529167,1.166211 0,0.601263 -0.230661,0.620097 -0.999461,0.08161 z m 0.94478,-1.186385 c 0.419145,-0.671158 0.164219,-1.203273 -0.36575,-0.763438 -0.390504,0.324089 -0.52002,1.303367 -0.172381,1.303367 0.110516,0 0.352676,-0.242968 0.538131,-0.539929 z m 23.867182,-3.062804 c 0,-0.297472 -0.161153,-0.385592 -0.529167,-0.289354 -0.437269,0.114348 -0.529167,0.0081 -0.529167,-0.611701 0,-0.773054 0.588283,-1.581629 1.150724,-1.581629 0.585668,0 1.266671,1.055486 1.078161,1.671045 -0.343016,1.120086 -1.170551,1.693883 -1.170551,0.811639 z m 0.529167,-1.159767 c 0,-0.293981 -0.17639,-0.529166 -0.396875,-0.529166 -0.402805,0 -0.54273,0.5597 -0.220486,0.881944 0.335436,0.335436 0.617361,0.174337 0.617361,-0.352778 z"
         id="path8422"
         sodipodi:nodetypes="sssssssssssssssssssssssssssssssssssssscccsssssscsssscccsssssssssssssssssssssssssssssssssssssssssssscssssssssssssssssssscccscssccsscsssccscsssssssscssssscscscsssssssssssssssssssssssss" />
    </g>
    <g
       inkscape:label=""
       transform="translate(-53.854578,8.3641177)"
       id="g518">
      <g
         id="g1109">
        <g
           style="fill:#000000;fill-opacity:1"
           id="g701">
          <use
             xlink:href="#symbol6457"
             x="91.925003"
             y="81.962997"
             id="use3799"
             width="100%"
             height="100%" />
        </g>
      </g>
    </g>
  </g>
</svg>
