<?xml version="1.0" encoding="UTF-8" standalone="no"?>
<!-- Created with Inkscape (http://www.inkscape.org/) -->

<svg
   width="107.43127mm"
   height="77.987846mm"
   viewBox="0 0 107.43127 77.987846"
   version="1.1"
   id="svg5"
   sodipodi:docname="6.svg"
   inkscape:version="1.1 (c4e8f9ed74, 2021-05-24)"
   xmlns:inkscape="http://www.inkscape.org/namespaces/inkscape"
   xmlns:sodipodi="http://sodipodi.sourceforge.net/DTD/sodipodi-0.dtd"
   xmlns:xlink="http://www.w3.org/1999/xlink"
   xmlns="http://www.w3.org/2000/svg"
   xmlns:svg="http://www.w3.org/2000/svg">
  <sodipodi:namedview
     id="namedview7"
     pagecolor="#ffffff"
     bordercolor="#666666"
     borderopacity="1.0"
     inkscape:pageshadow="2"
     inkscape:pageopacity="0.0"
     inkscape:pagecheckerboard="0"
     inkscape:document-units="mm"
     showgrid="false"
     inkscape:zoom="0.46425707"
     inkscape:cx="146.19602"
     inkscape:cy="-140.42752"
     inkscape:window-width="954"
     inkscape:window-height="1049"
     inkscape:window-x="2880"
     inkscape:window-y="0"
     inkscape:window-maximized="1"
     inkscape:current-layer="layer1"
     showguides="false"
     inkscape:rotation="1"
     fit-margin-top="0"
     fit-margin-left="0"
     fit-margin-right="0"
     fit-margin-bottom="0" />
  <defs
     id="defs2">
    <g
       id="g8718">
      <symbol
         overflow="visible"
         id="symbol971">
        <path
           style="stroke:none"
           d=""
           id="path8499" />
      </symbol>
      <symbol
         overflow="visible"
         id="symbol1802">
        <path
           style="stroke:none"
           d="M 5.078125,-4.03125 C 5.0625,-4.0625 5.03125,-4.140625 5.03125,-4.171875 c 0,0 0.171875,-0.140625 0.28125,-0.21875 l 1.75,-1.34375 C 8,-6.4375 8.390625,-6.46875 8.6875,-6.5 8.765625,-6.515625 8.859375,-6.515625 8.859375,-6.703125 8.859375,-6.734375 8.828125,-6.8125 8.75,-6.8125 c -0.21875,0 -0.46875,0.03125 -0.703125,0.03125 -0.359375,0 -0.75,-0.03125 -1.109375,-0.03125 -0.0625,0 -0.1875,0 -0.1875,0.203125 0,0.0625 0.046875,0.09375 0.125,0.109375 0.21875,0.015625 0.296875,0.0625 0.296875,0.203125 0,0.1875 -0.296875,0.421875 -0.359375,0.46875 L 2.9375,-2.84375 3.734375,-6.046875 C 3.8125,-6.40625 3.84375,-6.5 4.5625,-6.5 c 0.25,0 0.34375,0 0.34375,-0.203125 0,-0.078125 -0.078125,-0.109375 -0.140625,-0.109375 -0.28125,0 -1,0.03125 -1.28125,0.03125 C 3.203125,-6.78125 2.5,-6.8125 2.203125,-6.8125 2.140625,-6.8125 2,-6.8125 2,-6.625 2,-6.5 2.09375,-6.5 2.296875,-6.5 c 0.125,0 0.3125,0.015625 0.421875,0.015625 0.15625,0.03125 0.21875,0.046875 0.21875,0.171875 0,0.03125 0,0.0625 -0.03125,0.1875 L 1.5625,-0.78125 c -0.09375,0.390625 -0.109375,0.46875 -0.90625,0.46875 -0.171875,0 -0.28125,0 -0.28125,0.1875 C 0.375,0 0.5,0 0.53125,0 0.8125,0 1.515625,-0.03125 1.796875,-0.03125 2,-0.03125 2.21875,-0.015625 2.4375,-0.015625 2.65625,-0.015625 2.875,0 3.078125,0 3.15625,0 3.28125,0 3.28125,-0.203125 3.28125,-0.3125 3.1875,-0.3125 3,-0.3125 c -0.375,0 -0.640625,0 -0.640625,-0.171875 0,-0.078125 0.046875,-0.296875 0.078125,-0.4375 C 2.578125,-1.453125 2.71875,-1.96875 2.84375,-2.5 l 1.484375,-1.15625 1.15625,2.6875 c 0.125,0.265625 0.125,0.296875 0.125,0.34375 0,0.3125 -0.4375,0.3125 -0.53125,0.3125 -0.109375,0 -0.21875,0 -0.21875,0.203125 C 4.859375,0 4.984375,0 5,0 5.40625,0 5.828125,-0.03125 6.21875,-0.03125 6.4375,-0.03125 6.984375,0 7.203125,0 7.25,0 7.375,0 7.375,-0.203125 7.375,-0.3125 7.265625,-0.3125 7.171875,-0.3125 c -0.40625,0 -0.53125,-0.09375 -0.6875,-0.4375 z m 0,0"
           id="path3587" />
      </symbol>
    </g>
    <g
       id="g5174">
      <symbol
         overflow="visible"
         id="symbol1721">
        <path
           style="stroke:none"
           d=""
           id="path4876" />
      </symbol>
      <symbol
         overflow="visible"
         id="symbol6214">
        <path
           style="stroke:none"
           d="m 6.4375,-6.921875 c 0,-0.03125 -0.03125,-0.109375 -0.125,-0.109375 -0.046875,0 -0.046875,0.015625 -0.171875,0.15625 L 5.65625,-6.3125 c -0.25,-0.46875 -0.765625,-0.71875 -1.421875,-0.71875 -1.265625,0 -2.453125,1.15625 -2.453125,2.359375 0,0.796875 0.515625,1.265625 1.03125,1.40625 l 1.0625,0.28125 c 0.375,0.09375 0.921875,0.25 0.921875,1.0625 0,0.890625 -0.8125,1.828125 -1.796875,1.828125 -0.640625,0 -1.75,-0.21875 -1.75,-1.453125 0,-0.234375 0.0625,-0.484375 0.0625,-0.53125 0.015625,-0.046875 0.015625,-0.0625 0.015625,-0.078125 0,-0.09375 -0.0625,-0.109375 -0.109375,-0.109375 -0.046875,0 -0.078125,0.015625 -0.109375,0.046875 -0.03125,0.03125 -0.59375,2.3125 -0.59375,2.34375 0,0.046875 0.046875,0.09375 0.109375,0.09375 0.046875,0 0.0625,-0.015625 0.1875,-0.15625 L 1.296875,-0.5 c 0.421875,0.578125 1.109375,0.71875 1.6875,0.71875 1.359375,0 2.53125,-1.328125 2.53125,-2.5625 0,-0.6875 -0.34375,-1.03125 -0.484375,-1.171875 C 4.796875,-3.734375 4.640625,-3.78125 3.765625,-4 3.53125,-4.0625 3.1875,-4.171875 3.09375,-4.1875 2.828125,-4.28125 2.484375,-4.5625 2.484375,-5.09375 c 0,-0.8125 0.796875,-1.65625 1.75,-1.65625 0.8125,0 1.421875,0.4375 1.421875,1.546875 0,0.3125 -0.03125,0.5 -0.03125,0.5625 0,0 0,0.09375 0.109375,0.09375 0.109375,0 0.125,-0.03125 0.15625,-0.203125 z m 0,0"
           id="path8555" />
      </symbol>
    </g>
    <g
       id="g7147">
      <symbol
         overflow="visible"
         id="symbol5658">
        <path
           style="stroke:none"
           d=""
           id="path5080" />
      </symbol>
      <symbol
         overflow="visible"
         id="symbol6457">
        <path
           style="stroke:none"
           d="M 7.609375,-6.046875 C 7.703125,-6.40625 7.71875,-6.5 8.4375,-6.5 c 0.265625,0 0.34375,0 0.34375,-0.203125 0,-0.109375 -0.109375,-0.109375 -0.140625,-0.109375 -0.28125,0 -1,0.03125 -1.28125,0.03125 -0.28125,0 -0.984375,-0.03125 -1.28125,-0.03125 -0.078125,0 -0.1875,0 -0.1875,0.203125 0,0.109375 0.09375,0.109375 0.28125,0.109375 0.015625,0 0.203125,0 0.375,0.015625 0.1875,0.03125 0.265625,0.03125 0.265625,0.171875 0,0.03125 0,0.046875 -0.03125,0.1875 L 6.1875,-3.703125 H 3.140625 l 0.59375,-2.34375 C 3.8125,-6.40625 3.84375,-6.5 4.5625,-6.5 c 0.265625,0 0.34375,0 0.34375,-0.203125 0,-0.109375 -0.109375,-0.109375 -0.140625,-0.109375 -0.28125,0 -1,0.03125 -1.28125,0.03125 -0.28125,0 -0.984375,-0.03125 -1.28125,-0.03125 -0.078125,0 -0.1875,0 -0.1875,0.203125 0,0.109375 0.09375,0.109375 0.28125,0.109375 0.015625,0 0.203125,0 0.375,0.015625 0.171875,0.03125 0.265625,0.03125 0.265625,0.171875 0,0.03125 0,0.0625 -0.03125,0.1875 L 1.5625,-0.78125 c -0.09375,0.390625 -0.109375,0.46875 -0.90625,0.46875 -0.171875,0 -0.265625,0 -0.265625,0.203125 C 0.390625,0 0.515625,0 0.53125,0 0.8125,0 1.515625,-0.03125 1.796875,-0.03125 2,-0.03125 2.21875,-0.015625 2.4375,-0.015625 2.65625,-0.015625 2.875,0 3.078125,0 3.15625,0 3.28125,0 3.28125,-0.203125 3.28125,-0.3125 3.1875,-0.3125 3,-0.3125 c -0.375,0 -0.640625,0 -0.640625,-0.171875 0,-0.0625 0.015625,-0.109375 0.015625,-0.171875 l 0.6875,-2.734375 h 3.03125 c -0.40625,1.65625 -0.640625,2.609375 -0.6875,2.75 C 5.3125,-0.3125 5.125,-0.3125 4.5,-0.3125 c -0.140625,0 -0.234375,0 -0.234375,0.203125 C 4.265625,0 4.390625,0 4.40625,0 4.6875,0 5.390625,-0.03125 5.671875,-0.03125 5.875,-0.03125 6.09375,-0.015625 6.3125,-0.015625 6.53125,-0.015625 6.75,0 6.953125,0 7.03125,0 7.15625,0 7.15625,-0.203125 7.15625,-0.3125 7.0625,-0.3125 6.875,-0.3125 c -0.359375,0 -0.640625,0 -0.640625,-0.171875 0,-0.0625 0.015625,-0.109375 0.03125,-0.171875 z m 0,0"
           id="path138" />
      </symbol>
    </g>
    <g
       id="g862">
      <symbol
         overflow="visible"
         id="symbol7986">
        <path
           style="stroke:none"
           d=""
           id="path1032" />
      </symbol>
      <symbol
         overflow="visible"
         id="symbol9793">
        <path
           style="stroke:none"
           d="M 3.328125,-3.015625 C 3.390625,-3.265625 3.625,-4.1875 4.3125,-4.1875 c 0.046875,0 0.296875,0 0.5,0.125 C 4.53125,-4 4.34375,-3.765625 4.34375,-3.515625 c 0,0.15625 0.109375,0.34375 0.375,0.34375 0.21875,0 0.53125,-0.171875 0.53125,-0.578125 0,-0.515625 -0.578125,-0.65625 -0.921875,-0.65625 -0.578125,0 -0.921875,0.53125 -1.046875,0.75 -0.25,-0.65625 -0.78125,-0.75 -1.078125,-0.75 -1.03125,0 -1.609375,1.28125 -1.609375,1.53125 0,0.109375 0.109375,0.109375 0.125,0.109375 0.078125,0 0.109375,-0.03125 0.125,-0.109375 0.34375,-1.0625 1,-1.3125 1.34375,-1.3125 0.1875,0 0.53125,0.09375 0.53125,0.671875 0,0.3125 -0.171875,0.96875 -0.53125,2.375 -0.15625,0.609375 -0.515625,1.03125 -0.953125,1.03125 -0.0625,0 -0.28125,0 -0.5,-0.125 0.25,-0.0625 0.46875,-0.265625 0.46875,-0.546875 0,-0.265625 -0.21875,-0.34375 -0.359375,-0.34375 -0.3125,0 -0.546875,0.25 -0.546875,0.578125 0,0.453125 0.484375,0.65625 0.921875,0.65625 0.671875,0 1.03125,-0.703125 1.046875,-0.75 0.125,0.359375 0.484375,0.75 1.078125,0.75 1.03125,0 1.59375,-1.28125 1.59375,-1.53125 0,-0.109375 -0.078125,-0.109375 -0.109375,-0.109375 -0.09375,0 -0.109375,0.046875 -0.140625,0.109375 -0.328125,1.078125 -1,1.3125 -1.3125,1.3125 -0.390625,0 -0.546875,-0.3125 -0.546875,-0.65625 0,-0.21875 0.046875,-0.4375 0.15625,-0.875 z m 0,0"
           id="path6883" />
      </symbol>
    </g>
    <g
       id="g7567">
      <symbol
         overflow="visible"
         id="symbol6797">
        <path
           style="stroke:none"
           d=""
           id="path820" />
      </symbol>
      <symbol
         overflow="visible"
         id="symbol6084">
        <path
           style="stroke:none"
           d="m 4.84375,-3.796875 c 0.046875,-0.140625 0.046875,-0.15625 0.046875,-0.234375 0,-0.171875 -0.140625,-0.265625 -0.296875,-0.265625 -0.09375,0 -0.25,0.0625 -0.34375,0.203125 -0.015625,0.0625 -0.109375,0.359375 -0.140625,0.546875 -0.078125,0.25 -0.140625,0.53125 -0.203125,0.796875 l -0.453125,1.796875 c -0.03125,0.140625 -0.46875,0.84375 -1.125,0.84375 -0.5,0 -0.609375,-0.4375 -0.609375,-0.8125 C 1.71875,-1.375 1.890625,-2 2.21875,-2.875 2.375,-3.28125 2.421875,-3.390625 2.421875,-3.59375 c 0,-0.4375 -0.3125,-0.8125 -0.8125,-0.8125 -0.953125,0 -1.3125,1.453125 -1.3125,1.53125 0,0.109375 0.09375,0.109375 0.109375,0.109375 0.109375,0 0.109375,-0.03125 0.15625,-0.1875 0.28125,-0.9375 0.671875,-1.234375 1.015625,-1.234375 0.078125,0 0.25,0 0.25,0.3125 0,0.25 -0.109375,0.515625 -0.171875,0.703125 -0.40625,1.0625 -0.578125,1.625 -0.578125,2.09375 0,0.890625 0.625,1.1875 1.21875,1.1875 0.390625,0 0.71875,-0.171875 1,-0.453125 -0.125,0.515625 -0.25,1.015625 -0.640625,1.546875 -0.265625,0.328125 -0.640625,0.625 -1.09375,0.625 -0.140625,0 -0.59375,-0.03125 -0.765625,-0.421875 0.15625,0 0.296875,0 0.421875,-0.125 C 1.328125,1.203125 1.421875,1.0625 1.421875,0.875 1.421875,0.5625 1.15625,0.53125 1.0625,0.53125 0.828125,0.53125 0.5,0.6875 0.5,1.171875 c 0,0.5 0.4375,0.875 1.0625,0.875 1.015625,0 2.046875,-0.90625 2.328125,-2.03125 z m 0,0"
           id="path466" />
      </symbol>
    </g>
    <g
       id="g6913">
      <symbol
         overflow="visible"
         id="symbol7918">
        <path
           style="stroke:none"
           d=""
           id="path3924" />
      </symbol>
      <symbol
         overflow="visible"
         id="symbol5419">
        <path
           style="stroke:none"
           d="M 3.484375,-0.5625 C 3.59375,-0.15625 3.953125,0.109375 4.375,0.109375 4.71875,0.109375 4.953125,-0.125 5.109375,-0.4375 5.28125,-0.796875 5.40625,-1.40625 5.40625,-1.421875 c 0,-0.109375 -0.078125,-0.109375 -0.109375,-0.109375 -0.109375,0 -0.109375,0.046875 -0.140625,0.1875 -0.140625,0.5625 -0.328125,1.234375 -0.75,1.234375 -0.203125,0 -0.3125,-0.125 -0.3125,-0.453125 0,-0.21875 0.125,-0.6875 0.203125,-1.046875 L 4.578125,-2.6875 C 4.609375,-2.828125 4.703125,-3.203125 4.75,-3.359375 4.796875,-3.59375 4.890625,-3.96875 4.890625,-4.03125 c 0,-0.171875 -0.140625,-0.265625 -0.28125,-0.265625 -0.046875,0 -0.3125,0.015625 -0.390625,0.34375 -0.1875,0.734375 -0.625,2.484375 -0.75,3 -0.015625,0.046875 -0.40625,0.84375 -1.140625,0.84375 -0.515625,0 -0.609375,-0.453125 -0.609375,-0.8125 0,-0.5625 0.28125,-1.34375 0.53125,-2.03125 0.125,-0.3125 0.171875,-0.453125 0.171875,-0.640625 0,-0.4375 -0.3125,-0.8125 -0.8125,-0.8125 -0.953125,0 -1.3125,1.453125 -1.3125,1.53125 0,0.109375 0.09375,0.109375 0.109375,0.109375 0.109375,0 0.109375,-0.03125 0.15625,-0.1875 0.25,-0.859375 0.640625,-1.234375 1.015625,-1.234375 0.09375,0 0.25,0.015625 0.25,0.328125 0,0.234375 -0.109375,0.53125 -0.171875,0.671875 -0.375,1 -0.578125,1.609375 -0.578125,2.09375 0,0.953125 0.6875,1.203125 1.21875,1.203125 0.65625,0 1.015625,-0.453125 1.1875,-0.671875 z m 0,0"
           id="path6617" />
      </symbol>
    </g>
    <g
       id="g9932">
      <symbol
         overflow="visible"
         id="symbol1338">
        <path
           style="stroke:none"
           d=""
           id="path7135" />
      </symbol>
      <symbol
         overflow="visible"
         id="symbol60">
        <path
           style="stroke:none"
           d="m 4.671875,-3.703125 c 0,-0.546875 -0.265625,-0.703125 -0.4375,-0.703125 -0.25,0 -0.5,0.265625 -0.5,0.484375 0,0.125 0.046875,0.1875 0.15625,0.296875 0.21875,0.203125 0.34375,0.453125 0.34375,0.8125 0,0.421875 -0.609375,2.703125 -1.765625,2.703125 -0.515625,0 -0.75,-0.34375 -0.75,-0.875 0,-0.546875 0.28125,-1.28125 0.578125,-2.109375 0.078125,-0.171875 0.125,-0.3125 0.125,-0.5 0,-0.4375 -0.3125,-0.8125 -0.8125,-0.8125 -0.9375,0 -1.3125,1.453125 -1.3125,1.53125 0,0.109375 0.09375,0.109375 0.109375,0.109375 0.109375,0 0.109375,-0.03125 0.15625,-0.1875 0.296875,-1 0.71875,-1.234375 1.015625,-1.234375 0.078125,0 0.25,0 0.25,0.3125 0,0.25 -0.109375,0.53125 -0.171875,0.703125 -0.4375,1.15625 -0.5625,1.609375 -0.5625,2.046875 0,1.078125 0.875,1.234375 1.328125,1.234375 1.671875,0 2.25,-3.296875 2.25,-3.8125 z m 0,0"
           id="path1669" />
      </symbol>
    </g>
    <g
       id="g8777">
      <symbol
         overflow="visible"
         id="symbol7035">
        <path
           style="stroke:none"
           d=""
           id="path7925" />
      </symbol>
      <symbol
         overflow="visible"
         id="symbol8596">
        <path
           style="stroke:none"
           d="m 1.859375,-2.296875 c 0.296875,0 1.03125,-0.03125 1.53125,-0.234375 0.703125,-0.296875 0.75,-0.890625 0.75,-1.03125 0,-0.4375 -0.375,-0.84375 -1.0625,-0.84375 -1.109375,0 -2.625,0.96875 -2.625,2.71875 0,1.015625 0.59375,1.796875 1.578125,1.796875 1.421875,0 2.25,-1.0625 2.25,-1.171875 0,-0.0625 -0.046875,-0.140625 -0.109375,-0.140625 -0.0625,0 -0.078125,0.03125 -0.140625,0.109375 -0.78125,0.984375 -1.875,0.984375 -1.984375,0.984375 -0.78125,0 -0.875,-0.84375 -0.875,-1.15625 0,-0.125 0.015625,-0.421875 0.15625,-1.03125 z m -0.46875,-0.21875 C 1.78125,-4.03125 2.8125,-4.1875 3.078125,-4.1875 c 0.453125,0 0.734375,0.296875 0.734375,0.625 0,1.046875 -1.59375,1.046875 -2.015625,1.046875 z m 0,0"
           id="path9574" />
      </symbol>
      <symbol
         overflow="visible"
         id="symbol3869">
        <path
           style="stroke:none"
           d=""
           id="path1360" />
      </symbol>
      <symbol
         overflow="visible"
         id="symbol1851">
        <path
           style="stroke:none"
           d="m 2.328125,-4.4375 c 0,-0.1875 0,-0.1875 -0.203125,-0.1875 -0.453125,0.4375 -1.078125,0.4375 -1.359375,0.4375 v 0.25 c 0.15625,0 0.625,0 1,-0.1875 v 3.546875 c 0,0.234375 0,0.328125 -0.6875,0.328125 H 0.8125 V 0 c 0.125,0 0.984375,-0.03125 1.234375,-0.03125 0.21875,0 1.09375,0.03125 1.25,0.03125 V -0.25 H 3.03125 c -0.703125,0 -0.703125,-0.09375 -0.703125,-0.328125 z m 0,0"
           id="path9322" />
      </symbol>
    </g>
    <g
       id="g4479">
      <symbol
         overflow="visible"
         id="symbol4120">
        <path
           style="stroke:none"
           d=""
           id="path9422" />
      </symbol>
      <symbol
         overflow="visible"
         id="symbol3630">
        <path
           style="stroke:none"
           d="m 1.859375,-2.296875 c 0.296875,0 1.03125,-0.03125 1.53125,-0.234375 0.703125,-0.296875 0.75,-0.890625 0.75,-1.03125 0,-0.4375 -0.375,-0.84375 -1.0625,-0.84375 -1.109375,0 -2.625,0.96875 -2.625,2.71875 0,1.015625 0.59375,1.796875 1.578125,1.796875 1.421875,0 2.25,-1.0625 2.25,-1.171875 0,-0.0625 -0.046875,-0.140625 -0.109375,-0.140625 -0.0625,0 -0.078125,0.03125 -0.140625,0.109375 -0.78125,0.984375 -1.875,0.984375 -1.984375,0.984375 -0.78125,0 -0.875,-0.84375 -0.875,-1.15625 0,-0.125 0.015625,-0.421875 0.15625,-1.03125 z m -0.46875,-0.21875 C 1.78125,-4.03125 2.8125,-4.1875 3.078125,-4.1875 c 0.453125,0 0.734375,0.296875 0.734375,0.625 0,1.046875 -1.59375,1.046875 -2.015625,1.046875 z m 0,0"
           id="path1369" />
      </symbol>
      <symbol
         overflow="visible"
         id="symbol7510">
        <path
           style="stroke:none"
           d=""
           id="path4395" />
      </symbol>
      <symbol
         overflow="visible"
         id="symbol2960">
        <path
           style="stroke:none"
           d="M 3.515625,-1.265625 H 3.28125 c -0.015625,0.15625 -0.09375,0.5625 -0.1875,0.625 C 3.046875,-0.59375 2.515625,-0.59375 2.40625,-0.59375 H 1.125 c 0.734375,-0.640625 0.984375,-0.84375 1.390625,-1.171875 0.515625,-0.40625 1,-0.84375 1,-1.5 0,-0.84375 -0.734375,-1.359375 -1.625,-1.359375 -0.859375,0 -1.453125,0.609375 -1.453125,1.25 0,0.34375 0.296875,0.390625 0.375,0.390625 0.15625,0 0.359375,-0.125 0.359375,-0.375 0,-0.125 -0.046875,-0.375 -0.40625,-0.375 C 0.984375,-4.21875 1.453125,-4.375 1.78125,-4.375 c 0.703125,0 1.0625,0.546875 1.0625,1.109375 0,0.609375 -0.4375,1.078125 -0.65625,1.328125 L 0.515625,-0.265625 C 0.4375,-0.203125 0.4375,-0.1875 0.4375,0 h 2.875 z m 0,0"
           id="path493" />
      </symbol>
    </g>
    <g
       id="g2126">
      <symbol
         overflow="visible"
         id="symbol7900">
        <path
           style="stroke:none"
           d=""
           id="path5420" />
      </symbol>
      <symbol
         overflow="visible"
         id="symbol4654">
        <path
           style="stroke:none"
           d="M 3.734375,-6.03125 C 3.8125,-6.390625 3.84375,-6.5 4.78125,-6.5 c 0.296875,0 0.375,0 0.375,-0.1875 0,-0.125 -0.109375,-0.125 -0.15625,-0.125 -0.328125,0 -1.140625,0.03125 -1.46875,0.03125 -0.296875,0 -1.03125,-0.03125 -1.328125,-0.03125 -0.0625,0 -0.1875,0 -0.1875,0.203125 0,0.109375 0.09375,0.109375 0.28125,0.109375 0.015625,0 0.203125,0 0.375,0.015625 0.171875,0.03125 0.265625,0.03125 0.265625,0.171875 0,0.03125 0,0.0625 -0.03125,0.1875 L 1.5625,-0.78125 c -0.09375,0.390625 -0.109375,0.46875 -0.90625,0.46875 -0.171875,0 -0.265625,0 -0.265625,0.203125 C 0.390625,0 0.484375,0 0.65625,0 h 4.625 C 5.515625,0 5.515625,0 5.578125,-0.171875 L 6.375,-2.328125 c 0.03125,-0.109375 0.03125,-0.125 0.03125,-0.140625 0,-0.03125 -0.03125,-0.109375 -0.109375,-0.109375 -0.09375,0 -0.109375,0.0625 -0.171875,0.21875 -0.34375,0.90625 -0.78125,2.046875 -2.5,2.046875 H 2.6875 c -0.140625,0 -0.171875,0 -0.21875,0 -0.109375,-0.015625 -0.140625,-0.03125 -0.140625,-0.109375 0,-0.03125 0,-0.046875 0.046875,-0.21875 z m 0,0"
           id="path667" />
      </symbol>
      <symbol
         overflow="visible"
         id="symbol3203">
        <path
           style="stroke:none"
           d=""
           id="path2096" />
      </symbol>
      <symbol
         overflow="visible"
         id="symbol5279">
        <path
           style="stroke:none"
           d="m 2.328125,-4.4375 c 0,-0.1875 0,-0.1875 -0.203125,-0.1875 -0.453125,0.4375 -1.078125,0.4375 -1.359375,0.4375 v 0.25 c 0.15625,0 0.625,0 1,-0.1875 v 3.546875 c 0,0.234375 0,0.328125 -0.6875,0.328125 H 0.8125 V 0 c 0.125,0 0.984375,-0.03125 1.234375,-0.03125 0.21875,0 1.09375,0.03125 1.25,0.03125 V -0.25 H 3.03125 c -0.703125,0 -0.703125,-0.09375 -0.703125,-0.328125 z m 0,0"
           id="path2984" />
      </symbol>
    </g>
    <g
       id="g3560">
      <symbol
         overflow="visible"
         id="symbol9662">
        <path
           style="stroke:none"
           d=""
           id="path5854" />
      </symbol>
      <symbol
         overflow="visible"
         id="symbol8608">
        <path
           style="stroke:none"
           d="M 3.734375,-6.03125 C 3.8125,-6.390625 3.84375,-6.5 4.78125,-6.5 c 0.296875,0 0.375,0 0.375,-0.1875 0,-0.125 -0.109375,-0.125 -0.15625,-0.125 -0.328125,0 -1.140625,0.03125 -1.46875,0.03125 -0.296875,0 -1.03125,-0.03125 -1.328125,-0.03125 -0.0625,0 -0.1875,0 -0.1875,0.203125 0,0.109375 0.09375,0.109375 0.28125,0.109375 0.015625,0 0.203125,0 0.375,0.015625 0.171875,0.03125 0.265625,0.03125 0.265625,0.171875 0,0.03125 0,0.0625 -0.03125,0.1875 L 1.5625,-0.78125 c -0.09375,0.390625 -0.109375,0.46875 -0.90625,0.46875 -0.171875,0 -0.265625,0 -0.265625,0.203125 C 0.390625,0 0.484375,0 0.65625,0 h 4.625 C 5.515625,0 5.515625,0 5.578125,-0.171875 L 6.375,-2.328125 c 0.03125,-0.109375 0.03125,-0.125 0.03125,-0.140625 0,-0.03125 -0.03125,-0.109375 -0.109375,-0.109375 -0.09375,0 -0.109375,0.0625 -0.171875,0.21875 -0.34375,0.90625 -0.78125,2.046875 -2.5,2.046875 H 2.6875 c -0.140625,0 -0.171875,0 -0.21875,0 -0.109375,-0.015625 -0.140625,-0.03125 -0.140625,-0.109375 0,-0.03125 0,-0.046875 0.046875,-0.21875 z m 0,0"
           id="path1757" />
      </symbol>
      <symbol
         overflow="visible"
         id="symbol48">
        <path
           style="stroke:none"
           d=""
           id="path8115" />
      </symbol>
      <symbol
         overflow="visible"
         id="symbol401">
        <path
           style="stroke:none"
           d="M 3.515625,-1.265625 H 3.28125 c -0.015625,0.15625 -0.09375,0.5625 -0.1875,0.625 C 3.046875,-0.59375 2.515625,-0.59375 2.40625,-0.59375 H 1.125 c 0.734375,-0.640625 0.984375,-0.84375 1.390625,-1.171875 0.515625,-0.40625 1,-0.84375 1,-1.5 0,-0.84375 -0.734375,-1.359375 -1.625,-1.359375 -0.859375,0 -1.453125,0.609375 -1.453125,1.25 0,0.34375 0.296875,0.390625 0.375,0.390625 0.15625,0 0.359375,-0.125 0.359375,-0.375 0,-0.125 -0.046875,-0.375 -0.40625,-0.375 C 0.984375,-4.21875 1.453125,-4.375 1.78125,-4.375 c 0.703125,0 1.0625,0.546875 1.0625,1.109375 0,0.609375 -0.4375,1.078125 -0.65625,1.328125 L 0.515625,-0.265625 C 0.4375,-0.203125 0.4375,-0.1875 0.4375,0 h 2.875 z m 0,0"
           id="path4580" />
      </symbol>
    </g>
    <g
       id="g1349">
      <symbol
         overflow="visible"
         id="symbol8901">
        <path
           style="stroke:none"
           d=""
           id="path9817" />
      </symbol>
      <symbol
         overflow="visible"
         id="symbol8577">
        <path
           style="stroke:none"
           d="M 3.734375,-6.03125 C 3.8125,-6.390625 3.84375,-6.5 4.78125,-6.5 c 0.296875,0 0.375,0 0.375,-0.1875 0,-0.125 -0.109375,-0.125 -0.15625,-0.125 -0.328125,0 -1.140625,0.03125 -1.46875,0.03125 -0.296875,0 -1.03125,-0.03125 -1.328125,-0.03125 -0.0625,0 -0.1875,0 -0.1875,0.203125 0,0.109375 0.09375,0.109375 0.28125,0.109375 0.015625,0 0.203125,0 0.375,0.015625 0.171875,0.03125 0.265625,0.03125 0.265625,0.171875 0,0.03125 0,0.0625 -0.03125,0.1875 L 1.5625,-0.78125 c -0.09375,0.390625 -0.109375,0.46875 -0.90625,0.46875 -0.171875,0 -0.265625,0 -0.265625,0.203125 C 0.390625,0 0.484375,0 0.65625,0 h 4.625 C 5.515625,0 5.515625,0 5.578125,-0.171875 L 6.375,-2.328125 c 0.03125,-0.109375 0.03125,-0.125 0.03125,-0.140625 0,-0.03125 -0.03125,-0.109375 -0.109375,-0.109375 -0.09375,0 -0.109375,0.0625 -0.171875,0.21875 -0.34375,0.90625 -0.78125,2.046875 -2.5,2.046875 H 2.6875 c -0.140625,0 -0.171875,0 -0.21875,0 -0.109375,-0.015625 -0.140625,-0.03125 -0.140625,-0.109375 0,-0.03125 0,-0.046875 0.046875,-0.21875 z m 0,0"
           id="path3880" />
      </symbol>
      <symbol
         overflow="visible"
         id="symbol5057">
        <path
           style="stroke:none"
           d=""
           id="path2580" />
      </symbol>
      <symbol
         overflow="visible"
         id="symbol3754">
        <path
           style="stroke:none"
           d="m 1.90625,-2.328125 c 0.546875,0 0.9375,0.375 0.9375,1.125 0,0.859375 -0.515625,1.125 -0.90625,1.125 -0.28125,0 -0.90625,-0.078125 -1.1875,-0.5 0.328125,0 0.40625,-0.234375 0.40625,-0.390625 0,-0.21875 -0.171875,-0.375 -0.390625,-0.375 -0.1875,0 -0.390625,0.125 -0.390625,0.40625 0,0.65625 0.71875,1.078125 1.5625,1.078125 0.96875,0 1.640625,-0.65625 1.640625,-1.34375 0,-0.546875 -0.4375,-1.09375 -1.203125,-1.25 0.71875,-0.265625 0.984375,-0.78125 0.984375,-1.21875 0,-0.546875 -0.625,-0.953125 -1.40625,-0.953125 -0.765625,0 -1.359375,0.375 -1.359375,0.9375 0,0.234375 0.15625,0.359375 0.359375,0.359375 0.21875,0 0.359375,-0.15625 0.359375,-0.34375 0,-0.203125 -0.140625,-0.359375 -0.359375,-0.375 0.25,-0.296875 0.71875,-0.375 0.984375,-0.375 0.3125,0 0.75,0.15625 0.75,0.75 0,0.296875 -0.09375,0.625 -0.28125,0.828125 -0.21875,0.265625 -0.421875,0.28125 -0.765625,0.3125 -0.171875,0.015625 -0.1875,0.015625 -0.21875,0.015625 -0.015625,0 -0.078125,0.015625 -0.078125,0.09375 0,0.09375 0.0625,0.09375 0.1875,0.09375 z m 0,0"
           id="path9214" />
      </symbol>
    </g>
    <g
       id="g770">
      <symbol
         overflow="visible"
         id="symbol8119">
        <path
           style="stroke:none"
           d=""
           id="path8940" />
      </symbol>
      <symbol
         overflow="visible"
         id="symbol3872">
        <path
           style="stroke:none"
           d="m 6.71875,-3.234375 c 0.140625,-0.0625 0.203125,-0.125 0.203125,-0.21875 0,-0.09375 -0.046875,-0.15625 -0.203125,-0.21875 l -5.5,-2.59375 C 1.09375,-6.34375 1.046875,-6.34375 1.03125,-6.34375 c -0.125,0 -0.203125,0.09375 -0.203125,0.203125 0,0.125 0.078125,0.171875 0.1875,0.21875 L 6.25,-3.453125 1.03125,-1 c -0.1875,0.09375 -0.203125,0.171875 -0.203125,0.234375 0,0.109375 0.09375,0.203125 0.203125,0.203125 0.03125,0 0.046875,0 0.171875,-0.078125 z M 6.5625,1.359375 c 0.171875,0 0.359375,0 0.359375,-0.1875 0,-0.203125 -0.21875,-0.203125 -0.359375,-0.203125 h -5.375 c -0.15625,0 -0.359375,0 -0.359375,0.203125 0,0.1875 0.171875,0.1875 0.34375,0.1875 z m 0,0"
           id="path2534" />
      </symbol>
      <symbol
         overflow="visible"
         id="symbol5583">
        <path
           style="stroke:none"
           d=""
           id="path2612" />
      </symbol>
      <symbol
         overflow="visible"
         id="symbol7714">
        <path
           style="stroke:none"
           d="m 2.890625,-3.515625 c 0.8125,-0.265625 1.390625,-0.953125 1.390625,-1.75 0,-0.8125 -0.875,-1.375 -1.828125,-1.375 -1,0 -1.765625,0.59375 -1.765625,1.359375 0,0.328125 0.21875,0.515625 0.515625,0.515625 0.296875,0 0.5,-0.21875 0.5,-0.515625 0,-0.484375 -0.46875,-0.484375 -0.609375,-0.484375 0.296875,-0.5 0.953125,-0.625 1.3125,-0.625 0.421875,0 0.96875,0.21875 0.96875,1.109375 0,0.125 -0.03125,0.703125 -0.28125,1.140625 C 2.796875,-3.65625 2.453125,-3.625 2.203125,-3.625 2.125,-3.609375 1.890625,-3.59375 1.8125,-3.59375 c -0.078125,0.015625 -0.140625,0.03125 -0.140625,0.125 0,0.109375 0.0625,0.109375 0.234375,0.109375 h 0.4375 c 0.8125,0 1.1875,0.671875 1.1875,1.65625 0,1.359375 -0.6875,1.640625 -1.125,1.640625 -0.4375,0 -1.1875,-0.171875 -1.53125,-0.75 0.34375,0.046875 0.65625,-0.171875 0.65625,-0.546875 0,-0.359375 -0.265625,-0.5625 -0.546875,-0.5625 -0.25,0 -0.5625,0.140625 -0.5625,0.578125 0,0.90625 0.921875,1.5625 2.015625,1.5625 1.21875,0 2.125,-0.90625 2.125,-1.921875 0,-0.8125 -0.640625,-1.59375 -1.671875,-1.8125 z m 0,0"
           id="path7418" />
      </symbol>
    </g>
    <g
       id="g6948">
      <symbol
         overflow="visible"
         id="symbol9691">
        <path
           style="stroke:none"
           d=""
           id="path1364" />
      </symbol>
      <symbol
         overflow="visible"
         id="symbol9361">
        <path
           style="stroke:none"
           d="m 6.734375,-5.921875 c 0.109375,-0.046875 0.1875,-0.09375 0.1875,-0.21875 0,-0.109375 -0.078125,-0.203125 -0.203125,-0.203125 -0.046875,0 -0.140625,0.046875 -0.171875,0.0625 L 1.03125,-3.671875 c -0.171875,0.078125 -0.203125,0.140625 -0.203125,0.21875 0,0.09375 0.0625,0.15625 0.203125,0.21875 l 5.515625,2.59375 C 6.671875,-0.5625 6.6875,-0.5625 6.71875,-0.5625 c 0.109375,0 0.203125,-0.09375 0.203125,-0.203125 C 6.921875,-0.859375 6.875,-0.921875 6.703125,-1 L 1.5,-3.453125 Z M 6.5625,1.359375 c 0.171875,0 0.359375,0 0.359375,-0.1875 0,-0.203125 -0.21875,-0.203125 -0.359375,-0.203125 h -5.375 c -0.15625,0 -0.359375,0 -0.359375,0.203125 0,0.1875 0.171875,0.1875 0.34375,0.1875 z m 0,0"
           id="path8297" />
      </symbol>
      <symbol
         overflow="visible"
         id="symbol7163">
        <path
           style="stroke:none"
           d=""
           id="path8026" />
      </symbol>
      <symbol
         overflow="visible"
         id="symbol7527">
        <path
           style="stroke:none"
           d="m 2.890625,-3.515625 c 0.8125,-0.265625 1.390625,-0.953125 1.390625,-1.75 0,-0.8125 -0.875,-1.375 -1.828125,-1.375 -1,0 -1.765625,0.59375 -1.765625,1.359375 0,0.328125 0.21875,0.515625 0.515625,0.515625 0.296875,0 0.5,-0.21875 0.5,-0.515625 0,-0.484375 -0.46875,-0.484375 -0.609375,-0.484375 0.296875,-0.5 0.953125,-0.625 1.3125,-0.625 0.421875,0 0.96875,0.21875 0.96875,1.109375 0,0.125 -0.03125,0.703125 -0.28125,1.140625 C 2.796875,-3.65625 2.453125,-3.625 2.203125,-3.625 2.125,-3.609375 1.890625,-3.59375 1.8125,-3.59375 c -0.078125,0.015625 -0.140625,0.03125 -0.140625,0.125 0,0.109375 0.0625,0.109375 0.234375,0.109375 h 0.4375 c 0.8125,0 1.1875,0.671875 1.1875,1.65625 0,1.359375 -0.6875,1.640625 -1.125,1.640625 -0.4375,0 -1.1875,-0.171875 -1.53125,-0.75 0.34375,0.046875 0.65625,-0.171875 0.65625,-0.546875 0,-0.359375 -0.265625,-0.5625 -0.546875,-0.5625 -0.25,0 -0.5625,0.140625 -0.5625,0.578125 0,0.90625 0.921875,1.5625 2.015625,1.5625 1.21875,0 2.125,-0.90625 2.125,-1.921875 0,-0.8125 -0.640625,-1.59375 -1.671875,-1.8125 z m 0,0"
           id="path8946" />
      </symbol>
    </g>
    <g
       id="g2191">
      <symbol
         overflow="visible"
         id="symbol1982">
        <path
           style="stroke:none"
           d=""
           id="path744" />
      </symbol>
      <symbol
         overflow="visible"
         id="symbol8552">
        <path
           style="stroke:none"
           d="m 6.4375,-6.921875 c 0,-0.03125 -0.03125,-0.109375 -0.125,-0.109375 -0.046875,0 -0.046875,0.015625 -0.171875,0.15625 L 5.65625,-6.3125 c -0.25,-0.46875 -0.765625,-0.71875 -1.421875,-0.71875 -1.265625,0 -2.453125,1.15625 -2.453125,2.359375 0,0.796875 0.515625,1.265625 1.03125,1.40625 l 1.0625,0.28125 c 0.375,0.09375 0.921875,0.25 0.921875,1.0625 0,0.890625 -0.8125,1.828125 -1.796875,1.828125 -0.640625,0 -1.75,-0.21875 -1.75,-1.453125 0,-0.234375 0.0625,-0.484375 0.0625,-0.53125 0.015625,-0.046875 0.015625,-0.0625 0.015625,-0.078125 0,-0.09375 -0.0625,-0.109375 -0.109375,-0.109375 -0.046875,0 -0.078125,0.015625 -0.109375,0.046875 -0.03125,0.03125 -0.59375,2.3125 -0.59375,2.34375 0,0.046875 0.046875,0.09375 0.109375,0.09375 0.046875,0 0.0625,-0.015625 0.1875,-0.15625 L 1.296875,-0.5 c 0.421875,0.578125 1.109375,0.71875 1.6875,0.71875 1.359375,0 2.53125,-1.328125 2.53125,-2.5625 0,-0.6875 -0.34375,-1.03125 -0.484375,-1.171875 C 4.796875,-3.734375 4.640625,-3.78125 3.765625,-4 3.53125,-4.0625 3.1875,-4.171875 3.09375,-4.1875 2.828125,-4.28125 2.484375,-4.5625 2.484375,-5.09375 c 0,-0.8125 0.796875,-1.65625 1.75,-1.65625 0.8125,0 1.421875,0.4375 1.421875,1.546875 0,0.3125 -0.03125,0.5 -0.03125,0.5625 0,0 0,0.09375 0.109375,0.09375 0.109375,0 0.125,-0.03125 0.15625,-0.203125 z m 0,0"
           id="path9892" />
      </symbol>
    </g>
  </defs>
  <g
     inkscape:label="Layer 1"
     inkscape:groupmode="layer"
     id="layer1"
     transform="translate(-33.044842,-347.88024)">
    <path
       style="fill:#000000;stroke-width:0.216881"
       d="m 65.977544,425.62567 c -0.715706,-0.10175 -2.050916,-0.28916 -2.967133,-0.41648 -5.549692,-0.77119 -12.316849,-3.31556 -16.985903,-6.3865 -2.407535,-1.58349 -6.131246,-5.26014 -7.586542,-7.49067 -2.079046,-3.18654 -4.084885,-8.18676 -5.002602,-12.47064 -0.56263,-2.62635 -0.510322,-7.40001 0.111694,-10.1934 0.841461,-3.7789 2.320913,-7.41342 4.960734,-12.18688 2.58501,-4.67434 6.406951,-9.38581 10.878369,-13.41021 1.795721,-1.6162 5.737027,-4.65284 7.482389,-5.76493 0.477137,-0.30402 1.257908,-0.80026 1.735046,-1.10277 1.559139,-0.98851 5.903765,-3.4061 7.742993,-4.30864 4.370209,-2.14454 7.640696,-3.25463 9.467659,-3.21359 l 1.224219,0.0275 -1.316408,0.17196 c -3.244819,0.42385 -7.207488,2.05211 -13.323048,5.47441 -6.905174,3.86419 -10.794823,6.79851 -15.762519,11.89115 -3.483665,3.57128 -6.18598,7.36136 -8.796277,12.33704 -3.288551,6.26854 -4.381953,10.15114 -4.367011,15.50698 0.01292,4.63194 1.134857,9.00487 3.561205,13.88037 1.457701,2.92911 2.896685,4.96703 4.996135,7.07566 5.188248,5.21094 13.748845,8.92802 23.187918,10.06839 2.938763,0.35505 9.699099,0.40215 13.22973,0.0922 8.837189,-0.77586 15.840905,-2.11763 23.748448,-4.54972 2.02784,-0.6237 4.61414,-1.40878 5.74735,-1.74463 1.94536,-0.57655 5.38171,-1.78214 8.01293,-2.81122 4.82311,-1.88633 10.5338,-5.44724 14.04246,-8.7562 4.11878,-3.88435 7.97789,-9.84495 9.28376,-14.33924 0.6922,-2.38225 0.94449,-6.31957 0.56285,-8.78367 -0.33366,-2.15427 -1.9508,-6.89711 -3.37404,-9.89558 -3.38353,-7.12843 -11.11588,-15.9616 -17.12938,-19.56803 -3.65158,-2.18993 -9.69489,-4.37518 -15.08556,-5.45489 -5.628902,-1.12743 -13.380622,-1.28453 -21.037439,-0.42637 -2.086908,0.2339 -3.822161,0.27307 -3.631058,0.082 0.143902,-0.1439 5.067759,-0.61546 10.117356,-0.96894 5.265463,-0.36859 12.157481,0.21097 16.947291,1.42513 11.74861,2.97812 18.01524,7.23152 25.55889,17.34781 2.19229,2.93994 3.21117,4.52941 4.31276,6.72804 2.31313,4.61667 3.9513,10.35026 3.9513,13.82954 0,1.93519 -0.65116,5.4322 -1.36288,7.31929 -1.50943,4.00218 -4.84884,9.0816 -8.00474,12.17566 -5.96925,5.85226 -12.84611,9.4454 -25.11643,13.12327 -1.01392,0.3039 -2.57546,0.77262 -3.4701,1.04158 -6.80551,2.04602 -9.241483,2.6204 -14.730739,3.47338 -7.982477,1.24041 -17.670652,1.76089 -21.813677,1.1719 z m 0.819307,-9.79337 c -0.429841,-0.55551 -0.481057,-1.07506 -0.177576,-1.80139 0.324641,-0.77697 0.675198,-1.04581 0.4537,-0.34794 -0.08782,0.27669 0.02406,0.47166 0.364928,0.63596 l 0.491569,0.23695 -0.475182,0.0147 c -0.26135,0.008 -0.530056,0.10347 -0.597127,0.21199 -0.202803,0.32815 0.1185,0.8871 0.509935,0.8871 0.559765,0 0.887695,-0.44688 0.887695,-1.20967 0,-0.67749 0.444912,-1.30946 0.724818,-1.02956 0.362111,0.36212 0.105528,1.39478 -0.500628,2.01487 -0.676228,0.69177 -1.329946,0.84217 -1.682132,0.38702 z m -14.370079,-1.1358 c 0.980117,-1.31563 3.726459,-3.77665 8.251981,-7.39468 3.832425,-3.06391 5.971692,-4.54621 11.71181,-8.11512 0.86334,-0.53678 2.158474,-1.36635 2.878078,-1.84349 l 1.308371,-0.86752 0.462782,-2.16881 c 0.662317,-3.10393 0.739158,-3.36165 1.00228,-3.36165 0.150492,0 0.180345,0.21652 0.08224,0.59642 -0.309393,1.19805 -0.943013,4.49852 -0.876407,4.56512 0.03768,0.0377 0.601623,-0.27252 1.253209,-0.68933 1.118867,-0.71573 1.1917,-0.81694 1.310646,-1.82126 0.147407,-1.24462 0.940803,-4.71069 1.239784,-5.41619 0.36911,-0.87097 0.644091,-0.52615 0.317832,0.39856 -0.395094,1.11982 -1.262602,5.61572 -1.112538,5.76578 0.06175,0.0617 0.81161,-0.26301 1.666359,-0.72167 1.531912,-0.82204 1.562479,-0.85561 2.141798,-2.35211 0.895648,-2.31365 3.127129,-6.1847 3.405003,-5.90683 0.04724,0.0472 -0.508542,1.15161 -1.235069,2.45416 -1.402766,2.51494 -2.230446,4.42863 -1.915399,4.42863 0.104919,0 1.215808,-0.48586 2.468642,-1.0797 3.184431,-1.50939 4.486401,-2.04477 8.576726,-3.5268 7.21419,-2.61389 9.97366,-3.41698 15.07322,-4.38675 15.35853,-2.92071 18.30007,-3.38569 22.0134,-3.47971 l 2.92789,-0.0741 -2.49413,0.18363 c -2.81905,0.20754 -7.93608,0.9059 -11.16936,1.52435 -1.19285,0.22816 -3.53516,0.66495 -5.20514,0.97065 -9.76777,1.788 -13.64784,2.74644 -18.434869,4.55367 -0.834992,0.31523 -1.95735,0.72327 -2.49413,0.90675 -3.33698,1.14065 -6.158346,2.32288 -9.211586,3.85991 l -2.596721,1.30722 -0.975298,2.86212 c -0.536413,1.57416 -0.912268,2.92514 -0.835234,3.00217 0.07703,0.077 0.674701,-0.0154 1.32815,-0.20532 0.653447,-0.18996 1.514653,-0.3388 1.913789,-0.33075 0.771235,0.0155 0.603584,0.0776 -2.35829,0.87238 -0.503353,0.13507 -1.002139,0.35673 -1.108418,0.49258 -0.248493,0.31765 -1.33805,6.42467 -1.33805,7.49984 0,0.12626 0.228865,0.22956 0.508588,0.22956 0.768649,0 1.297185,0.70242 1.123516,1.49313 -0.165795,0.75486 -1.769466,2.41072 -2.334737,2.41072 -0.209974,0 -0.38975,-0.0244 -0.399501,-0.0542 -0.0098,-0.0298 -0.06743,-2.34773 -0.128166,-5.15092 -0.06074,-2.80318 -0.1543,-5.1413 -0.207911,-5.19582 -0.162027,-0.16477 -2.069843,0.94344 -2.203257,1.27983 -0.179745,0.45321 0.51266,2.921 1.297281,4.62362 0.371747,0.80669 0.619268,1.52335 0.550047,1.59257 -0.215103,0.2151 -1.891065,-3.48386 -2.160487,-4.76834 -0.140608,-0.67036 -0.325627,-1.21883 -0.41115,-1.21883 -0.08552,0 -0.612775,0.34905 -1.171672,0.77567 -0.558898,0.42661 -0.973496,0.6462 -0.92133,0.48798 0.05217,-0.15823 0.52637,-0.61706 1.053785,-1.01963 l 0.958937,-0.73195 0.146837,-1.84703 c 0.08076,-1.01587 0.204614,-2.07724 0.275232,-2.35861 0.07884,-0.31412 0.03267,-0.51157 -0.119616,-0.51157 -0.352748,0 -9.445564,5.70204 -11.471816,7.1939 -1.070073,0.78785 -8.023203,6.344 -8.892114,7.10556 -0.298211,0.26136 -1.272249,1.17676 -2.164529,2.03421 -0.892281,0.85745 -1.477859,1.36508 -1.301285,1.12806 z m 27.648027,-4.01512 c 0.07372,-0.11928 -0.01811,-0.21688 -0.204081,-0.21688 -0.185967,0 -0.338122,0.0976 -0.338122,0.21688 0,0.11929 0.09184,0.21688 0.204081,0.21688 0.112245,0 0.264399,-0.0976 0.338122,-0.21688 z m -0.0093,-3.74119 c 0.392459,-2.32967 0.987942,-6.95564 0.905929,-7.03765 -0.05345,-0.0534 -0.399042,0.0589 -0.76798,0.2497 l -0.670804,0.34688 v 3.57297 c 0,2.12433 0.08395,3.57296 0.207054,3.57296 0.113878,0 0.260487,-0.31719 0.325794,-0.70486 z m -2.107084,-6.06954 c 0.647686,-0.39254 1.195957,-0.89423 1.244328,-1.13862 0.198311,-1.00199 0.332007,-4.44919 0.172552,-4.44919 -0.09511,0 -0.653969,0.31719 -1.241903,0.70486 -0.716581,0.47251 -1.124199,0.91465 -1.236511,1.34124 -0.266649,1.0128 -0.478504,4.24345 -0.278273,4.24345 0.100071,0 0.70298,-0.31578 1.3398,-0.70174 z m 3.231537,-1.73362 c 0.332247,-0.53758 1.98132,-5.59319 1.84992,-5.67135 -0.08006,-0.0476 -0.779945,0.27305 -1.555294,0.71262 -1.380624,0.7827 -1.41269,0.82138 -1.553385,1.87361 -0.07901,0.59093 -0.152211,1.67932 -0.16266,2.41864 l -0.019,1.34423 0.651042,-0.22696 c 0.358072,-0.12482 0.713292,-0.32768 0.789379,-0.45079 z m -10.11566,15.34151 c 0,-0.15436 0.146395,-0.33683 0.325321,-0.4055 0.178927,-0.0687 0.325322,-0.32123 0.325322,-0.56127 0,-0.28195 0.187562,-0.48351 0.529874,-0.56942 0.79494,-0.19952 0.99999,0.0264 0.729121,0.80345 -0.16036,0.46001 -0.163019,0.7127 -0.0085,0.80851 0.123614,0.0767 -0.25357,0.15411 -0.838188,0.17213 -0.741958,0.0229 -1.062948,-0.052 -1.062948,-0.2479 z m -18.931909,-3.74725 c -0.99138,-1.09547 -4.481242,-9.70698 -4.494542,-11.09064 -0.0076,-0.78586 -0.270665,-0.86645 -1.733998,-0.53116 -0.774099,0.17737 -1.623611,0.46249 -1.887804,0.63361 -0.551918,0.35747 -0.712493,0.38614 -0.712493,0.12718 0,-0.2364 1.290062,-0.79167 2.851061,-1.22715 0.948596,-0.26463 1.206686,-0.42511 1.145587,-0.71231 -0.531802,-2.49978 -0.969501,-5.25517 -1.057998,-6.66027 l -0.109278,-1.73505 0.307547,2.16881 c 0.169151,1.19284 0.40586,2.51039 0.526019,2.92789 0.120159,0.4175 0.283235,1.25897 0.362391,1.86994 0.228465,1.76341 0.226282,1.76256 2.45064,0.96049 2.854231,-1.02919 2.762453,-0.91763 2.344123,-2.84921 -0.191519,-0.8843 -0.501956,-2.53499 -0.689859,-3.66819 -0.49479,-2.98396 -0.279052,-2.72915 -2.329404,-2.75129 -0.983694,-0.0106 -2.056924,-0.12549 -2.384956,-0.25526 -0.540362,-0.21376 -0.598787,-0.19057 -0.621581,0.24668 -0.02306,0.4423 -0.03424,0.44638 -0.133841,0.0489 -0.05978,-0.23856 -0.445669,-0.80758 -0.85754,-1.26448 -1.606412,-1.78203 -2.040364,-4.39569 -1.156407,-6.96496 0.535174,-1.55551 1.016824,-2.34825 2.840401,-4.67496 1.226684,-1.56514 1.42979,-1.94467 1.345146,-2.51358 -0.149784,-1.00674 0.652804,-1.83551 1.915327,-1.97782 2.168469,-0.24442 5.545095,2.35316 7.132995,5.48728 0.717034,1.41525 0.759083,1.61838 0.759083,3.66705 0,2.51473 -0.231276,3.14374 -1.731566,4.70943 l -0.969388,1.01164 0.833328,2.01929 c 0.45833,1.1106 1.096109,2.8174 1.417286,3.79287 l 0.583958,1.77359 0.800715,-0.10401 0.800713,-0.10401 -0.704862,0.3261 c -0.387675,0.17935 -0.704863,0.35916 -0.704863,0.39958 0,0.36554 1.484872,4.48495 2.360819,6.5495 0.604326,1.42436 1.059643,2.62888 1.011817,2.6767 -0.193057,0.19306 -2.305207,-4.58667 -3.01406,-6.82071 -0.195542,-0.61628 -0.454479,-1.38075 -0.575411,-1.69883 l -0.219878,-0.57832 -2.329992,1.2287 c -1.281497,0.67579 -2.402268,1.29782 -2.490604,1.3823 -0.344964,0.32989 1.357703,6.19921 2.57969,8.89254 0.787858,1.73648 0.82331,1.84812 0.529143,1.66631 -0.598639,-0.36998 -2.373422,-5.16392 -3.176194,-8.57936 -0.210276,-0.89463 -0.394666,-1.64613 -0.409755,-1.67001 -0.0151,-0.0239 -0.853736,0.29168 -1.863661,0.70122 -1.009927,0.40954 -2.010087,0.74626 -2.222578,0.74827 -0.674159,0.006 -0.666964,0.62581 0.03585,3.08648 0.731297,2.56039 1.649445,4.79847 3.179796,7.75107 0.972056,1.87544 1.086482,2.26043 0.469077,1.57821 z m 3.239039,-15.93643 c 1.393297,-0.70688 2.244667,-1.26638 2.245276,-1.47555 0.0015,-0.49411 -2.112209,-6.52909 -2.514902,-7.18066 -0.05166,-0.0836 -0.601689,0.18242 -1.222289,0.59113 -0.620598,0.40872 -1.45843,0.85205 -1.861848,0.98519 l -0.733487,0.24207 0.144159,1.22299 c 0.07929,0.67265 0.324521,2.00376 0.544965,2.95804 0.220444,0.95428 0.469335,2.19863 0.553092,2.76523 0.08376,0.5666 0.253186,1.03018 0.376511,1.03018 0.123328,0 1.234161,-0.51238 2.468523,-1.13862 z m -4.614804,-9.42669 c 0.0245,-1.85129 0.09557,-2.27904 0.432435,-2.60257 0.392038,-0.37653 0.393528,-0.36809 0.05422,0.30692 -0.347749,0.69181 -0.486255,3.14166 -0.217254,3.84267 0.20153,0.52518 0.749117,0.41576 2.15454,-0.43055 1.540819,-0.92783 1.636377,-1.05993 1.353564,-1.87121 -0.120894,-0.34679 -0.164474,-0.68587 -0.09685,-0.7535 0.06763,-0.0676 0.18709,0.13255 0.265469,0.44484 0.18226,0.72618 0.522867,0.71824 1.228317,-0.0286 0.878528,-0.93011 1.539002,-2.39784 1.64292,-3.65097 0.115531,-1.39315 -0.523823,-3.66229 -1.430917,-5.07848 -0.783983,-1.224 -2.510302,-2.90034 -3.745085,-3.63668 -1.801423,-1.07424 -3.889295,-0.62467 -3.889295,0.83745 0,0.51818 0.08108,0.59786 0.572735,0.56281 0.315005,-0.0225 0.609111,0.0607 0.653568,0.18483 0.04446,0.12411 -0.182348,0.2217 -0.504014,0.21688 -0.465451,-0.007 -0.866305,0.32329 -1.963533,1.61783 -3.308617,3.90358 -4.185293,7.8177 -2.367771,10.57145 0.255333,0.38686 0.586238,0.70405 0.735344,0.70487 0.149105,8.6e-4 0.271101,0.10379 0.271101,0.22883 0,0.48768 1.408179,0.84865 3.115457,0.79861 l 1.705732,-0.05 z m 32.886762,23.57817 c 0,-0.11929 0.146395,-0.21689 0.325322,-0.21689 0.178926,0 0.325321,0.0976 0.325321,0.21689 0,0.11928 -0.146395,0.21688 -0.325321,0.21688 -0.178927,0 -0.325322,-0.0976 -0.325322,-0.21688 z m 15.47047,-5.11364 c -0.173509,-0.45216 0.624075,-1.50123 1.14135,-1.50123 0.57891,0 0.61598,0.58082 0.0805,1.26155 -0.513643,0.65298 -1.024795,0.75325 -1.22187,0.23968 z m 5.13321,-2.42408 c 0,-0.11929 0.1464,-0.33838 0.32532,-0.48688 0.18148,-0.1506 0.32532,-0.17409 0.32532,-0.0531 0,0.11929 -0.14639,0.33838 -0.32532,0.48688 -0.18147,0.1506 -0.32532,0.17409 -0.32532,0.0531 z m 2.38131,-0.92883 c -0.13175,-0.24617 -0.16443,-0.6545 -0.0738,-0.92174 0.15205,-0.44824 0.17112,-0.43701 0.29015,0.17085 0.0971,0.49616 0.22872,0.63347 0.55412,0.5783 0.64549,-0.10944 0.85718,-0.40718 0.55144,-0.77558 -0.56647,-0.68255 0.15216,-1.48456 1.12236,-1.2526 0.88703,0.21208 0.0945,1.68958 -1.28703,2.39934 -0.66858,0.34349 -0.88724,0.30598 -1.15726,-0.19857 z m 2.39007,-1.53653 c 0,-0.10468 -0.14639,-0.19032 -0.32532,-0.19032 -0.18699,0 -0.32532,0.19573 -0.32532,0.46031 0,0.38458 0.0535,0.4159 0.32532,0.19033 0.17893,-0.1485 0.32532,-0.35564 0.32532,-0.46032 z m 6.56064,-0.12918 c -0.1491,-0.0535 -0.2711,-0.38191 -0.2711,-0.72982 0,-0.70329 -0.0542,-0.73488 -0.68347,-0.39812 -0.24095,0.12895 -0.4935,0.17903 -0.56125,0.11129 -0.0677,-0.0677 0.23766,-0.27392 0.67866,-0.45819 0.441,-0.18426 0.85681,-0.47833 0.92403,-0.65349 0.14766,-0.38481 0.75839,-0.41664 1.11682,-0.0582 0.72959,0.72959 -0.259,2.5254 -1.20369,2.18654 z m 0.99422,-1.34931 c 0.0492,-0.33644 -0.0203,-0.46459 -0.21688,-0.39979 -0.15914,0.0525 -0.32197,0.31818 -0.36182,0.59052 -0.0492,0.33643 0.0203,0.46458 0.21688,0.39978 0.15914,-0.0525 0.32196,-0.31818 0.36182,-0.59051 z M 74.526235,383.45803 c -3.020077,-0.73328 -5.55668,-2.45064 -6.38451,-4.32251 -0.833241,-1.88411 -1.032442,-2.93685 -1.007381,-5.32384 0.03925,-3.73863 0.958605,-5.9585 3.390615,-8.18699 1.392197,-1.2757 3.266635,-2.23759 4.309813,-2.21163 0.257775,0.006 -0.07698,0.18625 -0.74391,0.39963 -1.487495,0.47591 -2.806742,1.36388 -4.132007,2.78121 -1.26542,1.35331 -1.572792,1.95161 -2.153432,4.19163 -0.579002,2.2337 -0.498975,4.99264 0.208531,7.18894 1.089774,3.38297 4.79332,5.3726 10.000512,5.37248 4.270936,-9e-5 6.58008,-0.86775 8.780448,-3.29923 1.740389,-1.92319 2.339234,-3.27149 2.457996,-5.53418 0.110238,-2.10032 -0.199329,-3.79116 -0.97573,-5.32941 -0.644999,-1.27793 -3.676026,-4.48298 -4.94017,-5.22382 -1.2259,-0.71842 -3.84502,-1.42643 -5.276754,-1.42643 -0.715295,0 -1.104698,-0.0827 -1.021743,-0.21689 0.414357,-0.67044 4.415433,0.11073 6.397984,1.24914 1.284622,0.73766 3.734784,3.10974 4.634035,4.48637 2.74428,4.2011 2.269647,9.00421 -1.243632,12.58509 -1.569389,1.59958 -3.42054,2.60674 -5.373691,2.92367 -1.886807,0.30616 -5.460174,0.25291 -6.926963,-0.10323 z m 27.031575,-6.33393 c -2.192973,-0.55792 -3.853809,-3.59955 -3.889497,-7.12316 -0.01325,-1.30738 0.08748,-1.74274 0.683094,-2.95261 0.836438,-1.69904 2.265183,-3.54825 3.055793,-3.95508 0.77292,-0.39771 2.19922,-0.77833 2.19922,-0.58687 0,0.0849 -0.44361,0.27306 -0.9858,0.41807 -1.8184,0.48635 -3.955006,3.28666 -4.417795,5.79012 -0.29388,1.58974 0.0054,3.63481 0.786861,5.37728 0.63931,1.42546 1.444944,2.20414 2.617324,2.52974 2.00778,0.55761 3.06035,0.10038 4.82843,-2.09748 2.12065,-2.63611 2.26405,-3.01127 2.26196,-5.91757 -0.002,-2.15143 -0.0721,-2.6508 -0.51341,-3.63433 -0.5547,-1.23624 -1.74091,-2.43833 -2.4061,-2.43833 -0.82774,0 -1.58966,0.54003 -1.98273,1.4053 -0.37754,0.83109 -0.39632,0.84299 -0.40086,0.25383 -0.006,-0.84227 1.24208,-2.0932 2.08814,-2.09209 1.57576,0.002 2.925,1.56188 3.57523,4.13318 0.81336,3.21642 0.28431,5.48226 -1.92132,8.22864 -1.87213,2.33111 -2.59104,2.82704 -4.04999,2.79387 -0.6086,-0.0138 -1.29644,-0.0735 -1.52854,-0.13251 z"
       id="path14839"
       sodipodi:nodetypes="sssssssssssscssssssssssssssssssssssssssssssssssssccssssssssssscsssssssssssssssssscsssssscssssssssssssssssssssscsssssssssssssssscssssssssssssssssscsssssssssssssssssssscsssssssssssssssssscsscccsssssscssssssscssssssssscsssssssssssssssssssssssssscsssssssssssssssssssssssssssssssssssssssssssssssscsssssssssscsssssssssssssssscssscssssss" />
    <g
       inkscape:label=""
       transform="matrix(0.7044445,0,0,0.7044445,-10.191632,311.91513)"
       id="g15255">
      <g
         id="g3851">
        <g
           style="fill:#000000;fill-opacity:1"
           id="g9412">
          <use
             xlink:href="#symbol4654"
             x="91.925003"
             y="81.962997"
             id="use8868"
             width="100%"
             height="100%" />
        </g>
        <g
           style="fill:#000000;fill-opacity:1"
           id="g4644">
          <use
             xlink:href="#symbol5279"
             x="98.705002"
             y="83.457001"
             id="use4437"
             width="100%"
             height="100%" />
        </g>
      </g>
    </g>
    <g
       inkscape:label=""
       transform="matrix(0.7044445,0,0,0.7044445,13.997176,301.93643)"
       id="g15638">
      <g
         id="g79">
        <g
           style="fill:#000000;fill-opacity:1"
           id="g291">
          <use
             xlink:href="#symbol8608"
             x="91.925003"
             y="81.962997"
             id="use8466"
             width="100%"
             height="100%" />
        </g>
        <g
           style="fill:#000000;fill-opacity:1"
           id="g8096">
          <use
             xlink:href="#symbol401"
             x="98.705002"
             y="83.457001"
             id="use573"
             width="100%"
             height="100%" />
        </g>
      </g>
    </g>
    <g
       inkscape:label=""
       transform="matrix(0.7044445,0,0,0.7044445,39.288898,301.3077)"
       id="g16051">
      <g
         id="g8903">
        <g
           style="fill:#000000;fill-opacity:1"
           id="g3435">
          <use
             xlink:href="#symbol8577"
             x="91.925003"
             y="81.962997"
             id="use8360"
             width="100%"
             height="100%" />
        </g>
        <g
           style="fill:#000000;fill-opacity:1"
           id="g6130">
          <use
             xlink:href="#symbol3754"
             x="98.705002"
             y="83.457001"
             id="use1179"
             width="100%"
             height="100%" />
        </g>
      </g>
    </g>
    <g
       inkscape:label=""
       transform="matrix(0.7044445,0,0,0.7044445,-4.3811847,333.73717)"
       id="g16494">
      <g
         id="g4640">
        <g
           style="fill:#000000;fill-opacity:1"
           id="g5090">
          <use
             xlink:href="#symbol3872"
             x="91.925003"
             y="81.962997"
             id="use6949"
             width="100%"
             height="100%" />
        </g>
        <g
           style="fill:#000000;fill-opacity:1"
           id="g3083">
          <use
             xlink:href="#symbol7714"
             x="102.441"
             y="81.962997"
             id="use9215"
             width="100%"
             height="100%" />
        </g>
      </g>
    </g>
    <g
       inkscape:label=""
       transform="matrix(0.7044445,0,0,0.7044445,22.974281,340.37429)"
       id="g16967">
      <g
         id="g3456">
        <g
           style="fill:#000000;fill-opacity:1"
           id="g5945">
          <use
             xlink:href="#symbol9361"
             x="91.925003"
             y="81.962997"
             id="use5999"
             width="100%"
             height="100%" />
        </g>
        <g
           style="fill:#000000;fill-opacity:1"
           id="g9323">
          <use
             xlink:href="#symbol7527"
             x="102.441"
             y="81.962997"
             id="use5504"
             width="100%"
             height="100%" />
        </g>
      </g>
    </g>
    <g
       inkscape:label=""
       transform="matrix(0.7044445,0,0,0.7044445,60.555604,333.04829)"
       id="g17465">
      <g
         id="g3746">
        <g
           style="fill:#000000;fill-opacity:1"
           id="g8384">
          <use
             xlink:href="#symbol8552"
             x="91.925003"
             y="81.962997"
             id="use17461"
             width="100%"
             height="100%" />
        </g>
      </g>
    </g>
  </g>
</svg>
