<?xml version="1.0" encoding="UTF-8" standalone="no"?>
<svg
   xmlns:dc="http://purl.org/dc/elements/1.1/"
   xmlns:cc="http://creativecommons.org/ns#"
   xmlns:rdf="http://www.w3.org/1999/02/22-rdf-syntax-ns#"
   xmlns:svg="http://www.w3.org/2000/svg"
   xmlns="http://www.w3.org/2000/svg"
   xmlns:sodipodi="http://sodipodi.sourceforge.net/DTD/sodipodi-0.dtd"
   xmlns:inkscape="http://www.inkscape.org/namespaces/inkscape"
   width="45.341995mm"
   height="18.29438mm"
   viewBox="0 0 45.341995 18.29438"
   version="1.1"
   id="svg8"
   inkscape:version="1.0.2 (e86c870879, 2021-01-15)"
   sodipodi:docname="alter.svg">
  <defs
     id="defs2" />
  <sodipodi:namedview
     id="base"
     pagecolor="#ffffff"
     bordercolor="#666666"
     borderopacity="1.0"
     inkscape:pageopacity="0.0"
     inkscape:pageshadow="2"
     inkscape:zoom="0.77808507"
     inkscape:cx="45.879477"
     inkscape:cy="-33.512663"
     inkscape:document-units="mm"
     inkscape:current-layer="layer1"
     inkscape:document-rotation="0"
     showgrid="false"
     inkscape:window-width="954"
     inkscape:window-height="1049"
     inkscape:window-x="2880"
     inkscape:window-y="0"
     inkscape:window-maximized="1"
     fit-margin-top="0"
     fit-margin-left="0"
     fit-margin-right="0"
     fit-margin-bottom="0" />
  <metadata
     id="metadata5">
    <rdf:RDF>
      <cc:Work
         rdf:about="">
        <dc:format>image/svg+xml</dc:format>
        <dc:type
           rdf:resource="http://purl.org/dc/dcmitype/StillImage" />
        <dc:title></dc:title>
      </cc:Work>
    </rdf:RDF>
  </metadata>
  <g
     inkscape:label="Layer 1"
     inkscape:groupmode="layer"
     id="layer1"
     transform="translate(-27.361999,-54.30203)">
    <path
       style="fill:#000000;stroke-width:0.1969"
       d="m 27.457268,72.015188 c -0.260948,-0.880406 0.04046,-1.818615 0.584255,-1.818615 0.238748,0 0.47484,0.119062 0.524649,0.264583 0.123085,0.359606 7.643069,0.359606 7.766155,0 0.163799,-0.478555 0.938539,-0.297633 1.13299,0.264583 0.174936,0.505793 0.341715,0.529167 3.775806,0.529167 3.434091,0 3.600871,-0.02337 3.775806,-0.529167 0.194452,-0.562216 0.96919,-0.743138 1.13299,-0.264583 0.123086,0.359606 7.643069,0.359606 7.766155,0 0.165588,-0.483778 0.931852,-0.299297 1.098985,0.264583 0.15035,0.507262 0.306809,0.529167 3.77972,0.529167 3.464183,0 3.630894,-0.02318 3.805898,-0.529167 0.194452,-0.562216 0.96919,-0.743138 1.13299,-0.264583 0.123086,0.359606 7.643069,0.359606 7.766155,0 0.04981,-0.145521 0.2859,-0.264583 0.524649,-0.264583 0.543791,0 0.845203,0.938209 0.584255,1.818615 -0.176299,0.594811 -0.937318,0.799358 -1.108904,0.298051 -0.123086,-0.359606 -7.643069,-0.359606 -7.766155,0 -0.1638,0.478556 -0.938538,0.297633 -1.13299,-0.264583 -0.175004,-0.505987 -0.341715,-0.529167 -3.805898,-0.529167 -3.472911,0 -3.62937,0.0219 -3.77972,0.529167 -0.167133,0.563881 -0.933397,0.748361 -1.098985,0.264583 -0.0566,-0.165361 -1.512795,-0.264583 -3.883077,-0.264583 -2.370282,0 -3.826479,0.09922 -3.883078,0.264583 -0.165587,0.483778 -0.931852,0.299298 -1.098984,-0.264583 -0.15035,-0.507262 -0.30681,-0.529167 -3.77972,-0.529167 -3.464183,0 -3.630895,0.02318 -3.805898,0.529167 -0.194451,0.562216 -0.969191,0.743139 -1.13299,0.264583 -0.123086,-0.359606 -7.64307,-0.359606 -7.766155,0 -0.171587,0.501307 -0.932605,0.29676 -1.108904,-0.298051 z m 22.151697,-5.329831 c -0.189693,-1.194841 -0.37676,-2.322366 -0.415704,-2.505611 -0.04562,-0.214646 0.06333,-0.333173 0.306242,-0.333173 h 0.377048 l 0.0471,-2.844271 0.0471,-2.844271 0.03112,2.844271 0.03112,2.844271 h 0.449468 c 0.360467,0 0.433828,0.09169 0.370484,0.463021 -0.04344,0.254661 -0.218901,1.296458 -0.38991,2.315104 -0.17101,1.018645 -0.355532,1.937811 -0.410051,2.04259 -0.05452,0.104779 -0.254329,-0.78709 -0.444023,-1.981931 z M 27.457268,56.140188 c -0.121051,-0.408411 -0.123326,-0.734772 -0.0083,-1.190625 0.205561,-0.814632 0.955952,-0.875194 1.224472,-0.09882 0.175004,0.505988 0.341715,0.529167 3.805898,0.529167 3.47291,0 3.62937,-0.02191 3.779721,-0.529167 0.167131,-0.56388 0.933396,-0.748361 1.098984,-0.264583 0.0566,0.165362 1.512795,0.264583 3.883077,0.264583 2.370282,0 3.826479,-0.09922 3.883078,-0.264583 0.163799,-0.478555 0.938538,-0.297633 1.13299,0.264583 0.174936,0.505793 0.341715,0.529167 3.775806,0.529167 3.434091,0 3.60087,-0.02337 3.775806,-0.529167 0.194452,-0.562216 0.96919,-0.743138 1.13299,-0.264583 0.123086,0.359606 7.643069,0.359606 7.766155,0 0.165588,-0.483778 0.931852,-0.299297 1.098984,0.264583 0.15035,0.507262 0.30681,0.529167 3.779721,0.529167 3.464183,0 3.630894,-0.02318 3.805898,-0.529167 0.26852,-0.77637 1.018911,-0.715808 1.224472,0.09882 0.115028,0.455853 0.112754,0.782214 -0.0083,1.190625 -0.22117,0.7462 -0.962609,0.766604 -1.216176,0.03347 -0.175003,-0.505987 -0.341715,-0.529167 -3.805898,-0.529167 -3.47291,0 -3.62937,0.02191 -3.77972,0.529167 -0.167132,0.563881 -0.933396,0.748361 -1.098984,0.264583 -0.123087,-0.359606 -7.643069,-0.359606 -7.766155,0 -0.1638,0.478556 -0.938539,0.297633 -1.13299,-0.264583 -0.175004,-0.505987 -0.341715,-0.529167 -3.805898,-0.529167 -3.47291,0 -3.62937,0.02191 -3.779721,0.529167 -0.167132,0.563881 -0.933396,0.748361 -1.098984,0.264583 -0.0566,-0.165361 -1.512795,-0.264583 -3.883077,-0.264583 -2.370283,0 -3.826478,0.09922 -3.883078,0.264583 -0.165587,0.483778 -0.931852,0.299298 -1.098984,-0.264583 -0.15035,-0.507262 -0.306811,-0.529167 -3.77972,-0.529167 -3.464183,0 -3.630894,0.02318 -3.805898,0.529167 -0.253567,0.733136 -0.995006,0.712732 -1.216176,-0.03347 z"
       id="path847" />
  </g>
</svg>
