<?xml version="1.0" encoding="UTF-8" standalone="no"?>
<svg
   viewBox="0 0 98.548423 92.394659"
   version="1.1"
   id="svg4"
   sodipodi:docname="dog.svg"
   width="98.548424"
   height="92.394661"
   inkscape:version="1.1 (c4e8f9ed74, 2021-05-24)"
   xmlns:inkscape="http://www.inkscape.org/namespaces/inkscape"
   xmlns:sodipodi="http://sodipodi.sourceforge.net/DTD/sodipodi-0.dtd"
   xmlns="http://www.w3.org/2000/svg"
   xmlns:svg="http://www.w3.org/2000/svg">
  <defs
     id="defs8" />
  <sodipodi:namedview
     id="namedview6"
     pagecolor="#ffffff"
     bordercolor="#666666"
     borderopacity="1.0"
     inkscape:pageshadow="2"
     inkscape:pageopacity="0.0"
     inkscape:pagecheckerboard="0"
     showgrid="false"
     fit-margin-top="0"
     fit-margin-left="0"
     fit-margin-right="0"
     fit-margin-bottom="0"
     inkscape:zoom="2.8789062"
     inkscape:cx="25.009498"
     inkscape:cy="74.160109"
     inkscape:window-width="1920"
     inkscape:window-height="1080"
     inkscape:window-x="1920"
     inkscape:window-y="0"
     inkscape:window-maximized="1"
     inkscape:current-layer="svg4" />
  <!-- Font Awesome Free 5.15.2 by @fontawesome - https://fontawesome.com License - https://fontawesome.com/license/free (Icons: CC BY 4.0, Fonts: SIL OFL 1.1, Code: MIT License) -->
  <path
     d="m 51.21054,36.961166 28.860064,10.307159 v 42.046693 a 3.0796384,3.0796384 0 0 1 -3.07964,3.07964 H 64.672418 a 3.0796384,3.0796384 0 0 1 -3.079644,-3.07964 V 67.757555 H 30.796385 v 21.557463 a 3.0796384,3.0796384 0 0 1 -3.079634,3.07964 h -12.31856 a 3.0796384,3.0796384 0 0 1 -3.079636,-3.07964 V 48.142176 C 5.166095,45.591851 0,38.820491 0,30.801891 a 6.1592782,6.1592782 0 0 1 12.318555,0 6.1708255,6.1708255 0 0 0 6.159274,6.159275 z M 98.548424,15.403692 v 6.159283 a 12.318555,12.318555 0 0 1 -12.31855,12.318556 h -6.15927 v 6.848345 L 55.433492,31.93173 V 3.0851447 c 0,-2.74280696 3.314463,-4.117098 5.256563,-2.17692496 l 5.250777,5.25656196 h 10.322552 c 2.09995,0 4.57135,1.524419 5.50871,3.404921 l 1.37814,2.7543533 h 12.31856 a 3.0796384,3.0796384 0 0 1 3.07963,3.079636 z m -21.55746,0 a 3.0796384,3.0796384 0 1 0 -3.07964,3.079647 3.0796384,3.0796384 0 0 0 3.07964,-3.079647 z"
     id="path2"
     style="stroke-width:0.192477" />
</svg>
