<?xml version="1.0" encoding="UTF-8" standalone="no"?>
<svg
   xmlns:dc="http://purl.org/dc/elements/1.1/"
   xmlns:cc="http://creativecommons.org/ns#"
   xmlns:rdf="http://www.w3.org/1999/02/22-rdf-syntax-ns#"
   xmlns:svg="http://www.w3.org/2000/svg"
   xmlns="http://www.w3.org/2000/svg"
   xmlns:sodipodi="http://sodipodi.sourceforge.net/DTD/sodipodi-0.dtd"
   xmlns:inkscape="http://www.inkscape.org/namespaces/inkscape"
   width="56.702835mm"
   height="76.380585mm"
   viewBox="0 0 56.702835 76.380585"
   version="1.1"
   id="svg8"
   inkscape:version="1.0.2 (e86c870879, 2021-01-15)"
   sodipodi:docname="easy.svg">
  <defs
     id="defs2" />
  <sodipodi:namedview
     id="base"
     pagecolor="#ffffff"
     bordercolor="#666666"
     borderopacity="1.0"
     inkscape:pageopacity="0.0"
     inkscape:pageshadow="2"
     inkscape:zoom="0.42399998"
     inkscape:cx="-59.21063"
     inkscape:cy="231.96993"
     inkscape:document-units="mm"
     inkscape:current-layer="layer1"
     inkscape:document-rotation="0"
     showgrid="false"
     inkscape:window-width="954"
     inkscape:window-height="1049"
     inkscape:window-x="2880"
     inkscape:window-y="0"
     inkscape:window-maximized="1"
     fit-margin-top="0"
     fit-margin-left="0"
     fit-margin-right="0"
     fit-margin-bottom="0" />
  <metadata
     id="metadata5">
    <rdf:RDF>
      <cc:Work
         rdf:about="">
        <dc:format>image/svg+xml</dc:format>
        <dc:type
           rdf:resource="http://purl.org/dc/dcmitype/StillImage" />
        <dc:title></dc:title>
      </cc:Work>
    </rdf:RDF>
  </metadata>
  <g
     inkscape:label="Layer 1"
     inkscape:groupmode="layer"
     id="layer1"
     transform="translate(-133.50098,57.862446)">
    <path
       style="fill:#000000;stroke-width:0.0841415"
       d="m 162.44419,18.380074 c -0.19042,-0.09513 -0.35396,-0.270953 -0.46277,-0.497559 l -0.16829,-0.350443 -8.92899,-3.970681 c -7.62973,-3.39291 -8.95427,-3.9571469 -9.10278,-3.8776685 -0.0956,0.051157 -0.31381,0.093013 -0.48493,0.093013 -0.71665,0 -1.23989,-0.6965326 -1.04531,-1.3915103 l 0.0973,-0.3476525 -3.91179,-7.82322433 -3.91179,-7.82322517 -0.34062,-0.1337968 c -0.82169,-0.3227701 -0.92871,-1.5036246 -0.17654,-1.9479439 0.12813,-0.075689 0.30719,-0.1376168 0.39791,-0.1376168 0.13043,0 0.97654,-1.4213727 4.04456,-6.7944257 l 3.87963,-6.794426 -0.091,-0.353084 c -0.0766,-0.297337 -0.0663,-0.403439 0.0654,-0.672021 0.29088,-0.593413 0.96127,-0.857265 1.46053,-0.57484 0.20824,0.117799 0.26832,0.06108 5.98386,-5.650041 l 5.7735,-5.769035 -0.12503,-0.250611 c -0.17193,-0.344645 -0.0904,-0.868412 0.1789,-1.149513 0.18492,-0.19302 0.21704,-0.311709 0.24224,-0.895133 l 0.029,-0.672608 0.0169,0.644821 0.0169,0.644819 0.23139,-0.06148 c 0.21762,-0.05783 0.23426,-0.09618 0.27963,-0.64482 l 0.0482,-0.583338 0.0149,0.600217 c 0.014,0.565714 0.0268,0.602493 0.22189,0.639794 0.2034,0.03888 0.20754,0.02833 0.2355,-0.600216 l 0.0284,-0.639795 0.0169,0.689987 c 0.0114,0.463154 0.0532,0.712107 0.12719,0.757273 0.35994,0.219668 0.50414,0.870724 0.29466,1.330465 -0.0978,0.214564 0.025,0.344289 5.65262,5.972339 l 5.75255,5.753011 0.23311,-0.120546 c 0.30098,-0.155639 0.61084,-0.152801 0.95121,0.0087 0.27852,0.132168 0.63453,0.652478 0.63903,0.933965 0.002,0.102662 0.20507,0.279859 0.58899,0.513052 0.58139,0.353131 0.58648,0.354435 0.58648,0.150207 0,-0.22889 0.24932,-0.408418 0.45668,-0.328846 0.1774,0.06808 0.16823,0.340704 -0.0149,0.444054 -0.21761,0.122787 -0.0113,0.298763 0.26808,0.228645 0.24933,-0.06258 0.72059,-0.665434 0.72059,-0.921809 0,-0.134156 -0.0224,-0.150049 -0.10097,-0.07152 -0.15527,0.155263 -0.52523,0.120041 -0.77117,-0.07342 -0.2869,-0.225672 -0.28706,-0.505807 -8.4e-4,-1.406393 0.12189,-0.383515 0.19597,-0.722948 0.16462,-0.754298 -0.0982,-0.09823 -0.32614,0.103851 -0.50504,0.447795 -0.11733,0.225556 -0.18077,0.285657 -0.19959,0.189069 -0.042,-0.215533 0.21755,-0.653403 0.45011,-0.759368 0.15869,-0.0723 0.25598,-0.06813 0.41666,0.01787 0.25968,0.138974 0.26621,0.338423 0.0364,1.110166 -0.22577,0.758075 -0.19747,1.110305 0.0919,1.144061 0.32528,0.03795 0.53699,-0.273333 0.73225,-1.076631 0.22703,-0.933987 0.32706,-1.177981 0.48295,-1.177981 0.16467,0 0.17058,0.42229 0.013,0.931603 -0.0634,0.204925 -0.1841,0.6755 -0.26825,1.045723 -0.2066,0.908919 -0.58236,1.366671 -1.20496,1.467872 -0.27985,0.04549 0.0623,0.270933 6.72604,4.4322 l 7.02089,4.384274 0.5168,-0.04003 c 0.49533,-0.03837 0.52987,-0.02806 0.83121,0.248102 0.26321,0.241215 0.32072,0.355793 0.35315,0.703624 0.0316,0.339166 0.002,0.469541 -0.16127,0.709749 l -0.20001,0.294262 0.94914,6.6408444 0.94913,6.6408452 0.28991,0.2655413 c 0.32925,0.3015867 0.42702,0.5861895 0.35563,1.0353191 -0.0561,0.3531083 -0.53341,0.8578824 -0.81117,0.8578824 -0.14005,0 -0.66374,0.9886046 -3.02321,5.7071405 -2.0247,4.0490551 -2.83181,5.7419051 -2.77808,5.8267991 0.13143,0.207648 0.0847,0.781331 -0.0866,1.062166 -0.33487,0.5492 -1.04395,0.67498 -1.59463,0.282861 l -0.25284,-0.180036 -8.81735,0.978616 -8.81735,0.978616 -0.22703,0.245081 c -0.39557,0.427013 -0.83152,0.513943 -1.32959,0.265132 z m -0.64497,-1.372358 c -0.0386,-0.03846 -3.98912,-1.811867 -8.77887,-3.940913 -7.82918,-3.4800671 -8.72139,-3.8578228 -8.83486,-3.7405927 -0.11219,0.1159108 -0.11219,0.1394839 0,0.2121603 0.0694,0.044968 4.06403,1.8319684 8.87693,3.9711124 7.61476,3.384463 8.75437,3.868504 8.77887,3.728753 0.0155,-0.08833 -0.003,-0.192063 -0.0421,-0.23052 z m 0.33143,-0.416898 c -0.19698,-0.168976 -17.61515,-7.8296633 -17.69299,-7.7815554 -0.0513,0.031683 -0.0816,0.1131165 -0.0675,0.1809614 0.0154,0.074082 3.52104,1.678783 8.77641,4.017418 8.00391,3.56174 8.76345,3.883183 8.89995,3.766541 0.0821,-0.07014 0.11994,-0.152653 0.0841,-0.183365 z m 10.78916,-0.85299 8.58244,-0.948021 0.26222,-0.276642 c 0.14422,-0.152154 0.37313,-0.298823 0.50868,-0.325933 0.23186,-0.04637 0.41421,-0.38485 3.08118,-5.719493 2.51741,-5.0354751 2.82545,-5.6946169 2.7518,-5.8883064 -0.13667,-0.3594904 -0.0948,-0.7396265 0.1158,-1.0500674 l 0.19872,-0.2929917 -0.9498,-6.64429 -0.9498,-6.6442905 -0.26128,-0.213254 c -0.16085,-0.131275 -0.30384,-0.358801 -0.37197,-0.591878 l -0.11068,-0.378626 -7.81699,-4.893741 -7.81699,-4.893741 -0.47341,0.04547 c -0.55893,0.05368 -0.90688,-0.106779 -1.13002,-0.521127 -0.13853,-0.257249 -0.1431,-0.841168 -0.009,-1.138033 0.086,-0.190179 -11.41822,-11.675533 -11.57112,-11.552168 -0.21876,0.176503 -0.63233,0.205981 -0.96132,0.06852 l -0.32091,-0.134087 -5.74599,5.745531 c -3.1603,3.160041 -5.74599,5.772439 -5.74599,5.805327 0,0.03289 0.29344,0.07086 0.6521,0.08437 l 0.65209,0.02457 v 0.546919 0.54692 l -0.65209,0.02458 c -0.35866,0.01352 -0.6521,0.05776 -0.6521,0.09831 0,0.108929 -0.54117,0.424031 -0.72825,0.424031 -0.12582,0 -1.02104,1.504287 -4.05433,6.812723 -3.30324,5.780864 -3.87943,6.8377874 -3.80428,6.9782129 0.11601,0.2167754 0.11263,0.5633601 -0.008,0.7881913 -0.0845,0.1579655 0.38401,1.1405969 3.84791,8.06964448 3.53465,7.07058872 3.96713,7.89481862 4.1653,7.93834342 0.25878,0.056837 0.61967,0.4101873 0.73742,0.722019 0.0726,0.1921548 1.17178,0.7029232 9.01153,4.1873789 7.71851,3.43057 8.95294,3.955651 9.1064,3.873522 0.275,-0.147177 0.97643,-0.04753 1.19074,0.169161 0.13398,0.135478 0.24919,0.17328 0.43472,0.142643 0.13883,-0.02293 4.11452,-0.468292 8.83486,-0.989703 z M 158.74197,-2.2554988 c 0,-0.046278 0.11226,-0.084142 0.24946,-0.084142 0.28249,0 0.34965,-0.09609 0.49988,-0.7152027 0.27709,-1.1418768 0.60126,-2.3955818 0.65701,-2.5408479 0.0298,-0.077768 -0.0476,-0.1096094 -0.2664,-0.1096094 -0.18422,0 -0.28752,-0.033891 -0.25647,-0.084141 0.0658,-0.1065307 1.55662,-0.1116364 1.55662,-0.00533 0,0.043346 -0.12262,0.090675 -0.27249,0.1051769 -0.23853,0.02308 -0.27884,0.063077 -0.32338,0.3208618 -0.028,0.1619724 -0.11157,0.4932796 -0.18575,0.7362381 l -0.13486,0.4417429 h 0.83688 c 0.81151,0 0.8369,-0.00574 0.83779,-0.1893184 5e-4,-0.1041251 0.0573,-0.3751886 0.12621,-0.6023631 0.18875,-0.6222121 0.17036,-0.7228655 -0.13209,-0.7228655 -0.15017,0 -0.23573,-0.035052 -0.20539,-0.084142 0.0658,-0.1065307 1.55662,-0.1116364 1.55662,-0.00533 0,0.043346 -0.12245,0.090675 -0.27212,0.1051769 -0.27003,0.026164 -0.27361,0.03251 -0.46564,0.8257109 -0.10644,0.4396393 -0.26658,1.0643899 -0.35588,1.3883347 -0.0893,0.3239448 -0.17319,0.7025816 -0.18645,0.841415 -0.021,0.2199484 0.006,0.2558499 0.20729,0.2790486 0.12726,0.014643 0.23138,0.061973 0.23138,0.1051769 0,0.043204 -0.3597,0.078553 -0.79934,0.078553 -0.4768,0 -0.79934,-0.033952 -0.79934,-0.084141 0,-0.046278 0.11135,-0.084141 0.24745,-0.084141 0.13611,0 0.27289,-0.041144 0.30397,-0.091431 0.0311,-0.050287 0.13952,-0.4289239 0.24098,-0.841415 l 0.18447,-0.7499776 h -0.76961 -0.76961 l -0.14556,0.5258844 c -0.32957,1.1906418 -0.32977,1.1569456 0.007,1.1569456 0.10798,0 0.19633,0.037864 0.19633,0.084142 0,0.05019 -0.32255,0.084141 -0.79935,0.084141 -0.4768,0 -0.79934,-0.033952 -0.79934,-0.084141 z m -1.59869,-16.7441582 c 0,-0.04628 0.11359,-0.08414 0.25242,-0.08414 h 0.25243 v -0.995126 -0.995124 l -0.25243,0.03705 c -0.31643,0.04644 -0.33589,-0.11545 -0.021,-0.174989 0.12726,-0.02407 0.31658,-0.07064 0.42071,-0.103505 l 0.18932,-0.05975 v 1.145723 1.145724 h 0.25242 c 0.13883,0 0.25242,0.03786 0.25242,0.08414 0,0.04908 -0.28047,0.08414 -0.67313,0.08414 -0.39266,0 -0.67313,-0.03506 -0.67313,-0.08414 z m -2.28179,-0.715463 c -0.23548,-0.127969 -0.49488,-0.585674 -0.49488,-0.873204 0,-0.281575 0.26589,-0.877714 0.48351,-1.084068 0.24928,-0.236368 0.72724,-0.441411 1.02028,-0.437702 0.29808,0.0038 0.59975,0.27064 0.59975,0.530562 0,0.401024 -0.41202,0.64462 -1.09032,0.64462 -0.45342,0 -0.50837,0.063 -0.50837,0.582831 0,0.20767 0.0568,0.368027 0.16498,0.465947 0.24687,0.223414 0.82638,0.114018 1.16864,-0.220608 0.15925,-0.155693 0.26507,-0.212242 0.26507,-0.141651 0,0.265161 -0.7096,0.65979 -1.17798,0.65511 -0.1157,-0.0012 -0.3095,-0.05598 -0.43068,-0.121837 z m 0.93459,-1.439589 c 0.52797,-0.211252 0.55407,-0.789901 0.0356,-0.789901 -0.27522,0 -0.79197,0.472345 -0.79197,0.723919 0,0.247201 0.24912,0.268933 0.75634,0.06598 z m -8.1436,-2.872403 0.0249,-0.567955 1.07281,-0.02355 1.0728,-0.02355 v 0.591504 0.591505 h -1.09768 -1.09769 z m 4.37536,0 0.0249,-0.567955 1.0728,-0.02355 1.07281,-0.02355 v 0.591504 0.591505 h -1.09769 -1.09768 z m 4.35817,-0.02104 v -0.58899 h 1.09384 1.09384 v 0.58899 0.588991 h -1.09384 -1.09384 z m 4.37535,-0.0025 v -0.591504 l 1.07281,0.02355 1.0728,0.02355 0.0249,0.567955 0.0249,0.567955 h -1.09768 -1.09769 z m 4.37536,0 v -0.591504 l 1.07281,0.02355 1.0728,0.02355 0.0249,0.567955 0.0249,0.567955 h -1.09768 -1.09769 z M 186.2355,8.8930827 c 1.53858,-3.0775671 2.79741,-5.6144334 2.79741,-5.6374806 0,-0.023046 -0.0853,-0.041903 -0.18962,-0.041903 -0.16676,0 -0.52224,0.6653397 -2.94877,5.5190792 -2.20092,4.4024577 -2.73927,5.5430337 -2.66089,5.6374807 0.054,0.06512 0.12216,0.118401 0.15136,0.118401 0.0292,0 1.31193,-2.518009 2.85051,-5.5955773 z m 2.19228,-5.8998683 c -0.13052,-0.1305144 -0.33036,0.2408189 -2.96216,5.5039539 -2.60294,5.2054137 -2.8077,5.6461167 -2.63552,5.6723097 0.16917,0.02573 0.44723,-0.490937 2.96216,-5.5039552 2.58822,-5.1591041 2.76603,-5.5417948 2.63552,-5.6723084 z m -49.1115,-19.2100304 c 3.46333,-6.06454 3.82223,-6.727615 3.66383,-6.769038 -0.0966,-0.02526 -0.18438,-0.03714 -0.19511,-0.02642 -0.0107,0.01073 -1.72606,3.005621 -3.81186,6.65532 -2.97344,5.202905 -3.77178,6.6605903 -3.69712,6.7505485 0.0524,0.063104 0.11898,0.1142767 0.14802,0.1137172 0.029,-5.89e-4 1.78055,-3.0264177 3.89224,-6.7241317 z m -0.43403,-0.212451 c 3.38442,-5.922041 3.78071,-6.653223 3.66736,-6.766576 -0.0699,-0.0699 -0.14076,-0.110407 -0.15748,-0.09002 -0.0766,0.09344 -7.63049,13.3576342 -7.63049,13.3987465 0,0.039149 0.26151,0.127376 0.31033,0.1046973 0.009,-0.00405 1.72333,-2.9951248 3.81028,-6.6468448 z m 46.99346,2.770258 c -0.0452,-0.06815 -3.54231,-2.285254 -7.77127,-4.926887 -6.79678,-4.245632 -7.7035,-4.788484 -7.81384,-4.678141 -0.11034,0.110342 -0.10173,0.139727 0.0742,0.253224 0.10947,0.07062 3.62526,2.269 7.81286,4.885294 7.14253,4.462448 8.04159,4.984095 7.69804,4.46651 z m 0.28985,-0.242215 c 0.0811,-0.09767 -1.26767,-0.972108 -7.72188,-5.006419 -4.30106,-2.688444 -7.83859,-4.88808 -7.86119,-4.88808 -0.0226,0 -0.0593,0.06946 -0.0815,0.154358 -0.0331,0.126733 1.34665,1.022094 7.71017,5.003216 4.26279,2.666871 7.7743,4.850299 7.80334,4.852061 0.029,0.0018 0.097,-0.05005 0.15101,-0.115136 z m -49.07574,-10.184844 c -0.18454,-0.13986 -0.15911,-0.453779 0.0472,-0.583121 0.11217,-0.07031 0.1786,-0.05838 0.28887,0.05189 0.13484,0.134842 0.13417,0.15318 -0.0115,0.314105 -0.15086,0.166697 -0.15025,0.170902 0.0247,0.170902 0.25078,0 0.39098,-0.262689 0.59897,-1.12226 0.19514,-0.806454 0.1725,-1.065419 -0.0931,-1.065419 -0.18952,0 -0.65914,0.455951 -0.65914,0.63996 0,0.06452 -0.0379,0.117313 -0.0841,0.117313 -0.11007,0 -0.10672,-0.03551 0.0354,-0.37575 0.21077,-0.504455 0.83196,-0.680076 1.17878,-0.333262 0.1201,0.120106 0.15235,0.116261 0.35379,-0.0422 0.2567,-0.201915 0.4314,-0.216023 0.64744,-0.05228 0.18454,0.139859 0.15911,0.453779 -0.0472,0.583121 -0.11218,0.07031 -0.1786,0.05838 -0.28887,-0.05189 -0.13485,-0.134842 -0.13418,-0.15318 0.0115,-0.314105 0.13285,-0.146803 0.13589,-0.170902 0.0215,-0.170902 -0.18402,0 -0.46678,0.381454 -0.5539,0.747223 -0.0399,0.1675 -0.11737,0.496006 -0.17217,0.730014 -0.11614,0.495956 -0.0602,0.710442 0.18543,0.710442 0.21925,0 0.6477,-0.400032 0.6477,-0.604733 0,-0.0839 0.0379,-0.152541 0.0841,-0.152541 0.0463,0 0.0841,0.07447 0.0841,0.165479 0,0.217187 -0.54684,0.760078 -0.76561,0.760078 -0.19497,0 -0.51025,-0.14984 -0.59725,-0.283851 -0.038,-0.05847 -0.12899,-0.02432 -0.25785,0.09674 -0.2266,0.212876 -0.45497,0.234759 -0.67889,0.06505 z m 24.19743,-13.171373 c -0.40123,-0.244634 -0.3453,-0.758196 0.0826,-0.758196 0.24297,0 0.28803,0.256766 0.0753,0.429028 -0.18266,0.147903 -0.18298,0.151862 -0.0196,0.239318 0.44573,0.238546 1.13687,-0.06478 1.0864,-0.476789 -0.0201,-0.164225 -0.11329,-0.242753 -0.43018,-0.362573 -0.54127,-0.204664 -0.64761,-0.306429 -0.6454,-0.617595 0.004,-0.603688 0.83262,-1.024441 1.3304,-0.675782 0.23608,0.16536 0.23101,0.646469 -0.007,0.691614 -0.20789,0.03938 -0.27867,-0.213214 -0.11149,-0.397939 0.12871,-0.142224 0.12898,-0.159001 0.003,-0.20722 -0.25377,-0.09738 -0.51096,-0.05338 -0.69609,0.119094 -0.32996,0.307411 -0.22751,0.483716 0.38244,0.658088 0.41735,0.119315 0.56438,0.339388 0.49839,0.746016 -0.0591,0.364183 -0.17551,0.505536 -0.54267,0.658946 -0.39511,0.165087 -0.68137,0.151996 -1.00612,-0.04601 z m -5.45727,-5.301837 c 0,-0.62475 0.0132,-0.88033 0.0294,-0.567955 0.0162,0.312375 0.0162,0.823535 0,1.13591 -0.0162,0.312376 -0.0294,0.0568 -0.0294,-0.567955 z m 0.58899,0 c 0,-0.62475 0.0132,-0.88033 0.0294,-0.567955 0.0162,0.312375 0.0162,0.823535 0,1.13591 -0.0162,0.312376 -0.0294,0.0568 -0.0294,-0.567955 z m 0.50485,0 c 0,-0.62475 0.0132,-0.88033 0.0294,-0.567955 0.0162,0.312375 0.0162,0.823535 0,1.13591 -0.0162,0.312376 -0.0294,0.0568 -0.0294,-0.567955 z m 4.82106,-3.050507 c 0.50321,-0.524034 0.78346,-0.94989 0.78346,-1.190501 0,-0.461655 -0.41289,-0.74645 -0.81594,-0.562807 -0.20582,0.09378 -0.20857,0.104345 -0.0677,0.259971 0.18907,0.208925 0.10499,0.441515 -0.14669,0.405777 -0.27542,-0.03911 -0.29123,-0.35376 -0.0309,-0.614135 0.1697,-0.169699 0.29559,-0.212146 0.62919,-0.212146 0.36241,0 0.4456,0.03392 0.63489,0.25888 0.35416,0.420896 0.29556,0.609872 -0.39207,1.264246 l -0.60991,0.580411 h 0.48209 c 0.44406,0 0.48626,-0.0166 0.53489,-0.210354 0.029,-0.115694 0.0866,-0.210353 0.12781,-0.210353 0.0955,0 0.0938,0.05522 -0.0135,0.441743 l -0.0876,0.31553 h -0.76665 -0.76666 z m -2.50803,-0.273342 c -0.23548,-0.127968 -0.49488,-0.585674 -0.49488,-0.873204 0,-0.281575 0.26589,-0.877713 0.48351,-1.084068 0.24928,-0.236368 0.72723,-0.441411 1.02028,-0.437701 0.29808,0.0038 0.59975,0.270639 0.59975,0.530561 0,0.401025 -0.41202,0.64462 -1.09032,0.64462 -0.45342,0 -0.50837,0.063 -0.50837,0.582831 0,0.20767 0.0568,0.368027 0.16497,0.465947 0.24688,0.223414 0.82639,0.114018 1.16865,-0.220608 0.15925,-0.155692 0.26507,-0.212241 0.26507,-0.141651 0,0.265161 -0.7096,0.65979 -1.17798,0.65511 -0.1157,-0.0012 -0.30951,-0.05598 -0.43068,-0.121837 z m 0.93459,-1.439589 c 0.52797,-0.211251 0.55407,-0.789901 0.0356,-0.789901 -0.27522,0 -0.79197,0.472345 -0.79197,0.723919 0,0.247201 0.24911,0.268933 0.75634,0.06598 z m -4.34146,0.38808 c 0,-0.62475 0.0132,-0.88033 0.0294,-0.567955 0.0162,0.312375 0.0162,0.823535 0,1.13591 -0.0162,0.312376 -0.0294,0.0568 -0.0294,-0.567955 z m 0.58899,0 c 0,-0.62475 0.0132,-0.88033 0.0294,-0.567955 0.0162,0.312375 0.0162,0.823535 0,1.13591 -0.0162,0.312376 -0.0294,0.0568 -0.0294,-0.567955 z m 0.50485,0 c 0,-0.62475 0.0132,-0.88033 0.0294,-0.567955 0.0162,0.312375 0.0162,0.823535 0,1.13591 -0.0162,0.312376 -0.0294,0.0568 -0.0294,-0.567955 z m -1.09384,-4.375358 c 0,-0.624751 0.0132,-0.88033 0.0294,-0.567955 0.0162,0.312375 0.0162,0.823535 0,1.13591 -0.0162,0.312376 -0.0294,0.0568 -0.0294,-0.567955 z m 0.58899,0 c 0,-0.624751 0.0132,-0.88033 0.0294,-0.567955 0.0162,0.312375 0.0162,0.823535 0,1.13591 -0.0162,0.312376 -0.0294,0.0568 -0.0294,-0.567955 z m 0.50485,0 c 0,-0.624751 0.0132,-0.88033 0.0294,-0.567955 0.0162,0.312375 0.0162,0.823535 0,1.13591 -0.0162,0.312376 -0.0294,0.0568 -0.0294,-0.567955 z m -1.10168,-2.352556 c -0.94589,-0.576739 -0.51166,-2.022802 0.60741,-2.022802 0.81654,0 1.32407,0.999267 0.85845,1.690196 -0.34324,0.50934 -0.95016,0.64705 -1.46586,0.332606 z m 5.45443,-0.897523 c -0.1783,-0.124884 -0.19032,-0.177252 -0.13761,-0.599181 0.0318,-0.254285 0.11127,-0.613966 0.17665,-0.799291 0.18594,-0.527001 0.16028,-0.652363 -0.13354,-0.652363 -0.37876,0 -0.33197,-0.235473 0.0533,-0.268381 0.29147,-0.0249 0.31224,-0.0477 0.44455,-0.48828 0.0895,-0.29795 0.1902,-0.472068 0.28349,-0.490033 0.21708,-0.0418 0.26053,0.188926 0.11565,0.614124 l -0.12953,0.380145 h 0.28939 c 0.20114,0 0.28939,0.03849 0.28939,0.126212 0,0.09115 -0.0935,0.126213 -0.33657,0.126213 -0.29816,0 -0.33657,0.0228 -0.33657,0.199774 0,0.109877 -0.0535,0.351405 -0.11888,0.53673 -0.16499,0.467641 -0.26039,1.282892 -0.15012,1.282892 0.21516,0 0.37249,-0.128771 0.52672,-0.431086 0.14072,-0.275824 0.33127,-0.437328 0.33127,-0.280765 0,0.17684 -0.36308,0.696921 -0.54412,0.779411 -0.29184,0.132968 -0.39023,0.127268 -0.6235,-0.03612 z"
       id="path862" />
  </g>
</svg>
