<?xml version="1.0" encoding="UTF-8" standalone="no"?>
<svg
   xmlns:dc="http://purl.org/dc/elements/1.1/"
   xmlns:cc="http://creativecommons.org/ns#"
   xmlns:rdf="http://www.w3.org/1999/02/22-rdf-syntax-ns#"
   xmlns:svg="http://www.w3.org/2000/svg"
   xmlns="http://www.w3.org/2000/svg"
   xmlns:sodipodi="http://sodipodi.sourceforge.net/DTD/sodipodi-0.dtd"
   xmlns:inkscape="http://www.inkscape.org/namespaces/inkscape"
   width="80.644287mm"
   height="57.194252mm"
   viewBox="0 0 80.644287 57.194252"
   version="1.1"
   id="svg8"
   inkscape:version="1.0.2 (e86c870879, 2021-01-15)"
   sodipodi:docname="hard.svg">
  <defs
     id="defs2" />
  <sodipodi:namedview
     id="base"
     pagecolor="#ffffff"
     bordercolor="#666666"
     borderopacity="1.0"
     inkscape:pageopacity="0.0"
     inkscape:pageshadow="2"
     inkscape:zoom="0.84799997"
     inkscape:cx="124.60316"
     inkscape:cy="106.80704"
     inkscape:document-units="mm"
     inkscape:current-layer="layer1"
     inkscape:document-rotation="0"
     showgrid="false"
     inkscape:window-width="954"
     inkscape:window-height="1049"
     inkscape:window-x="2880"
     inkscape:window-y="0"
     inkscape:window-maximized="1"
     fit-margin-top="0"
     fit-margin-left="0"
     fit-margin-right="0"
     fit-margin-bottom="0" />
  <metadata
     id="metadata5">
    <rdf:RDF>
      <cc:Work
         rdf:about="">
        <dc:format>image/svg+xml</dc:format>
        <dc:type
           rdf:resource="http://purl.org/dc/dcmitype/StillImage" />
        <dc:title></dc:title>
      </cc:Work>
    </rdf:RDF>
  </metadata>
  <g
     inkscape:label="Layer 1"
     inkscape:groupmode="layer"
     id="layer1"
     transform="translate(-27.648185,-12.71895)">
    <path
       style="fill:#000000;stroke-width:0.0817176"
       d="m 57.784477,69.786086 c -0.202989,-0.106736 -0.226273,-0.1593 -0.204293,-0.461208 0.0232,-0.318611 0.04073,-0.340742 0.26996,-0.340742 0.317394,0 0.392999,0.304721 0.112808,0.454674 -0.176642,0.09454 -0.17771,0.101961 -0.0302,0.209824 0.335213,0.245113 1.056697,0.03594 1.14935,-0.333217 0.08593,-0.342385 -0.02776,-0.525478 -0.358101,-0.576694 -0.537941,-0.0834 -0.707482,-0.214312 -0.736675,-0.568823 -0.04895,-0.594467 0.314762,-0.942692 0.984622,-0.942692 0.476585,0 0.716841,0.177732 0.716841,0.530291 0,0.206256 -0.04223,0.289275 -0.167357,0.328988 -0.322713,0.102425 -0.546054,-0.277523 -0.261661,-0.445135 0.124725,-0.07351 0.127337,-0.09476 0.02043,-0.166245 -0.212003,-0.141756 -0.540017,-0.09201 -0.764385,0.115928 -0.118924,0.110216 -0.216226,0.233221 -0.216226,0.273346 0,0.13047 0.278391,0.313068 0.630354,0.413452 0.581611,0.165881 0.733899,0.563929 0.437803,1.144324 -0.119933,0.23509 -0.234513,0.331975 -0.479357,0.405332 -0.416075,0.124659 -0.816669,0.109635 -1.103914,-0.0414 z m 26.154004,0.0093 c -0.28352,-0.153812 -0.286358,-0.344398 -0.01872,-1.256544 0.274201,-0.934495 0.269633,-0.984808 -0.08942,-0.984808 -0.233987,0 -0.286597,-0.02841 -0.264791,-0.143006 0.01865,-0.09799 0.127894,-0.155866 0.347083,-0.183864 0.312883,-0.03997 0.322829,-0.05157 0.455271,-0.531164 0.117869,-0.426824 0.160994,-0.490306 0.333078,-0.490306 0.167122,0 0.196318,0.0379 0.188869,0.245153 -0.0048,0.134834 -0.0365,0.362031 -0.07033,0.504883 -0.0591,0.24949 -0.0507,0.260766 0.213104,0.286012 0.417046,0.03991 0.365576,0.264822 -0.06781,0.296324 l -0.342438,0.02489 -0.09558,0.465415 c -0.05257,0.255979 -0.146687,0.65494 -0.209156,0.88658 -0.149826,0.555581 -0.146741,0.845458 0.009,0.845458 0.155993,0 0.403991,-0.247085 0.569776,-0.567678 0.122941,-0.237741 0.288259,-0.336643 0.288259,-0.172451 0,0.179284 -0.364292,0.673566 -0.577799,0.783974 -0.284944,0.147351 -0.382832,0.146052 -0.668394,-0.0089 z M 59.035049,66.149199 c -0.157306,-0.106521 -0.355826,-0.322927 -0.441155,-0.480903 l -0.155143,-0.28723 -9.637574,-3.212904 -9.637574,-3.212904 -0.316669,0.142798 c -0.222094,0.10015 -0.432632,0.129727 -0.704947,0.09903 -0.322181,-0.03631 -0.441923,-0.101274 -0.703402,-0.381593 -0.312846,-0.335388 -0.314935,-0.342088 -0.289056,-0.927401 l 0.02607,-0.589572 -4.106581,-6.149248 c -3.645873,-5.459375 -4.129926,-6.149247 -4.31466,-6.149247 -0.28732,0 -0.630612,-0.191521 -0.884829,-0.493641 -0.403167,-0.479137 -0.230391,-1.419706 0.314343,-1.711239 0.113898,-0.06096 0.207784,-0.132196 0.208634,-0.158309 8.49e-4,-0.02611 0.455441,-2.765321 1.010202,-6.087126 l 1.008656,-6.039646 -0.193026,-0.28444 c -0.378538,-0.557806 -0.187757,-1.398612 0.384493,-1.694533 0.229913,-0.118893 0.672868,-0.160062 1.075475,-0.09996 0.07902,0.0118 3.398671,-2.30041 7.537033,-5.249701 7.300109,-5.202577 7.395833,-5.27436 7.397227,-5.54715 0.0051,-0.99939 1.303194,-1.47369 2.033775,-0.743109 0.229592,0.229593 0.279982,0.243158 0.903185,0.243158 h 0.660027 v 0.612882 0.612882 l -0.67417,0.0034 c -0.646086,0.0033 -0.687038,0.01477 -0.983054,0.276353 l -0.308883,0.272952 5.62527,22.50242 c 4.978264,19.914243 5.643522,22.5051 5.783961,22.525721 0.145587,0.02137 0.623542,-1.836371 5.787988,-22.497119 l 5.629296,-22.520419 -0.29484,-0.270063 c -0.493523,-0.452048 -0.594593,-0.976689 -0.291907,-1.515245 0.09413,-0.167474 0.284846,-0.371668 0.423823,-0.453763 0.507595,-0.299844 1.31956,-0.113875 1.594511,0.3652 l 0.132297,0.230514 10.858478,2.171736 10.858478,2.171735 0.227251,-0.168012 c 0.282431,-0.208811 0.845459,-0.22981 1.203091,-0.04487 0.411723,0.21291 0.628479,0.584641 0.636745,1.092001 l 0.0071,0.437662 5.227842,6.285569 c 4.96064,5.964315 5.24161,6.285807 5.49748,6.290243 0.53962,0.0094 1.02711,0.422921 1.12716,0.956241 0.0788,0.420105 -0.16103,0.973655 -0.52679,1.215805 l -0.29799,0.197282 -2.1092,8.440324 -2.1092,8.440324 0.16661,0.367322 c 0.0916,0.202028 0.16661,0.440869 0.16661,0.530759 0,0.310275 -0.3109,0.852903 -0.58411,1.019475 -0.2929,0.178579 -0.87234,0.220733 -1.13104,0.08228 -0.12776,-0.06838 -1.67992,0.679163 -8.738407,4.208532 -5.847483,2.923848 -8.583052,4.332017 -8.583052,4.418238 0,0.237666 -0.240849,0.592758 -0.518399,0.764293 -0.588206,0.363531 -1.397679,0.134164 -1.708278,-0.484045 -0.491105,-0.977483 0.492087,-2.028126 1.528997,-1.633894 0.188677,0.07174 1.145535,-0.386269 8.746803,-4.186694 7.860586,-3.930079 8.538896,-4.285212 8.584906,-4.494685 0.0478,-0.217745 0.42229,-0.665185 0.70095,-0.837547 0.094,-0.05817 0.73824,-2.512174 2.23531,-8.515188 l 2.1032,-8.433471 -0.18244,-0.376862 c -0.1273,-0.26297 -0.16875,-0.461205 -0.13715,-0.65595 0.0438,-0.269756 -0.12951,-0.48888 -5.18183,-6.552572 -4.956158,-5.948275 -5.242875,-6.275766 -5.530961,-6.317534 -0.38846,-0.05632 -0.773657,-0.284969 -0.938914,-0.557326 -0.126456,-0.208411 -0.392584,-0.266177 -10.999456,-2.387519 -9.57615,-1.9152 -10.884199,-2.159606 -10.990299,-2.053506 -0.06624,0.06624 -0.29668,0.165184 -0.512093,0.21988 l -0.391659,0.09945 -5.623564,22.494148 -5.623564,22.494148 0.308884,0.272953 c 0.292892,0.258821 0.344843,0.273989 1.003483,0.292987 l 0.694599,0.02003 -0.681599,0.02765 c -0.573387,0.02326 -0.673932,0.04763 -0.633311,0.153485 0.02656,0.06921 0.04829,0.17644 0.04829,0.23829 0,0.08339 0.16367,0.119654 0.633311,0.140307 l 0.633311,0.02785 -0.633311,0.01645 c -0.484502,0.01258 -0.633311,0.04368 -0.633311,0.132337 0,0.06374 -0.02173,0.172519 -0.04829,0.241728 -0.04062,0.105858 0.05992,0.130225 0.633311,0.153485 l 0.681599,0.02765 -0.690709,0.01663 c -0.654654,0.01576 -0.704639,0.03014 -0.95756,0.275275 -0.370664,0.359263 -0.996277,0.418577 -1.41614,0.134266 z m 0.03835,-2.056177 c 0.144249,-0.105478 -0.111177,-1.160606 -5.477659,-22.62745 l -5.628962,-22.516814 -0.288242,-0.04043 c -0.158532,-0.02224 -0.329166,-0.05356 -0.379184,-0.06961 -0.103165,-0.03309 -14.824181,10.452227 -14.865025,10.587894 -0.01456,0.04836 -0.05091,0.235027 -0.08078,0.414805 -0.03969,0.238894 -0.14739,0.414848 -0.400153,0.653741 l -0.345847,0.32687 -1.000352,6.015765 -1.000351,6.015764 0.209232,0.308322 c 0.211784,0.312081 0.264428,0.727649 0.134366,1.060692 -0.05065,0.129694 0.771334,1.414207 4.09189,6.394401 3.883304,5.824207 4.170508,6.232104 4.388071,6.232104 0.313032,0 0.753265,0.308234 0.94364,0.660698 l 0.155508,0.287909 9.568884,3.196474 c 5.262887,1.758061 9.626209,3.199405 9.696272,3.202988 0.07006,0.0036 0.195474,-0.04327 0.278691,-0.104123 z M 38.76909,42.226808 c 0,-0.0421 0.119512,-0.08806 0.265582,-0.102147 l 0.265582,-0.02561 0.02269,-1.066613 0.02269,-1.066612 -0.299424,0.03496 c -0.412364,0.04814 -0.297953,-0.09661 0.20687,-0.261728 0.222615,-0.07281 0.424468,-0.132388 0.448561,-0.132388 0.02409,0 0.05396,0.560786 0.06636,1.246193 l 0.02256,1.246193 0.265583,0.02561 c 0.14607,0.01408 0.265582,0.06005 0.265582,0.102147 0,0.0422 -0.34826,0.07654 -0.776317,0.07654 -0.428057,0 -0.776317,-0.03434 -0.776317,-0.07654 z m -4.984772,-0.94493 c 0,-0.08448 0.08479,-0.122577 0.272781,-0.122577 h 0.272781 l 0.253241,-0.960181 c 0.139282,-0.5281 0.334405,-1.291138 0.433606,-1.69564 0.0992,-0.404502 0.197382,-0.781424 0.218179,-0.837605 0.02595,-0.0701 -0.05681,-0.102147 -0.26375,-0.102147 -0.204841,0 -0.290699,-0.03276 -0.267689,-0.102147 0.02343,-0.07066 0.28999,-0.109325 0.864844,-0.125435 0.688333,-0.01929 0.830969,-0.0026 0.830969,0.09721 0,0.08004 -0.102028,0.129019 -0.30383,0.145864 -0.282307,0.02357 -0.308643,0.04852 -0.37178,0.352233 -0.03737,0.179779 -0.11718,0.538315 -0.177351,0.796747 l -0.1094,0.469876 h 0.836532 0.836533 l 0.1876,-0.715029 c 0.10318,-0.393266 0.204617,-0.760995 0.225414,-0.817176 0.02595,-0.0701 -0.05681,-0.102147 -0.26375,-0.102147 -0.204933,0 -0.290654,-0.03273 -0.267516,-0.102147 0.02416,-0.07248 0.267398,-0.102147 0.837606,-0.102147 0.570207,0 0.813443,0.02966 0.837605,0.102147 0.02304,0.06913 -0.06124,0.102147 -0.260795,0.102147 -0.334509,0 -0.414961,0.129652 -0.536008,0.8638 -0.03758,0.227894 -0.177624,0.797874 -0.311218,1.266622 -0.133594,0.468749 -0.26299,0.990168 -0.287545,1.158711 -0.04419,0.303331 -0.0418,0.30644 0.236228,0.30644 0.195187,0 0.280874,0.0374 0.280874,0.122577 0,0.101527 -0.154356,0.122576 -0.898894,0.122576 -0.744537,0 -0.898893,-0.02105 -0.898893,-0.122576 0,-0.08778 0.08951,-0.122577 0.315256,-0.122577 h 0.315256 l 0.170656,-0.67417 c 0.297022,-1.173372 0.371965,-1.041899 -0.593904,-1.041899 h -0.839764 l -0.08712,0.3473 c -0.04792,0.191015 -0.140519,0.57713 -0.20579,0.858035 l -0.118672,0.510734 h 0.27689 c 0.191643,0 0.276887,0.03774 0.276887,0.122577 0,0.101174 -0.149816,0.122576 -0.858035,0.122576 -0.708219,0 -0.858034,-0.0214 -0.858034,-0.122576 z m 3.759008,15.802256 c 0,-0.03949 -1.825359,-2.809907 -4.056353,-6.156481 -3.674326,-5.511624 -4.071203,-6.076733 -4.214019,-6.0003 -0.151462,0.08106 -0.152056,0.09299 -0.01511,0.30325 0.07841,0.120379 1.925388,2.893764 4.1044,6.163076 3.165814,4.749873 3.983867,5.925927 4.071461,5.853231 0.06029,-0.05004 0.109618,-0.123286 0.109618,-0.162776 z m -3.617373,-6.399563 c -3.777621,-5.669022 -4.115935,-6.150389 -4.242848,-6.036906 -0.127074,0.113628 0.182835,0.604368 3.944488,6.246092 3.728032,5.5913 4.096324,6.115323 4.242847,6.036906 0.147503,-0.07894 -0.170782,-0.582947 -3.944487,-6.246092 z m 71.289977,-4.417921 2.09361,-8.376052 h -0.22488 -0.22489 l -2.07334,8.297213 c -2.15336,8.617475 -2.11835,8.447962 -1.74615,8.453639 0.0451,6.54e-4 1.02417,-3.767972 2.17565,-8.3748 z m -0.5659,-0.106837 2.07993,-8.319453 -0.19489,-0.09197 c -0.14694,-0.06935 -0.20322,-0.0682 -0.22877,0.0047 -0.0186,0.05316 -0.96811,3.838306 -2.10993,8.411426 l -2.07604,8.314763 h 0.22489 0.22488 l 2.07993,-8.319453 z M 39.717271,24.004415 c 4.022473,-2.873266 7.316677,-5.252976 7.320455,-5.288245 0.0038,-0.03527 -0.04763,-0.0985 -0.114234,-0.140515 -0.09179,-0.0579 -1.884533,1.183348 -7.406455,5.128022 -4.006944,2.862426 -7.285353,5.218345 -7.285353,5.235375 0,0.07153 0.102096,0.289484 0.135602,0.289484 0.02002,0 3.327513,-2.350854 7.349985,-5.224121 z m -0.522737,-0.219132 c 8.360169,-5.968853 7.587607,-5.399495 7.530059,-5.549465 -0.02551,-0.06648 -0.08125,-0.120873 -0.123854,-0.120873 -0.05377,0 -14.283154,10.105011 -14.687141,10.430091 -0.03218,0.02589 0.150746,0.274912 0.201942,0.274912 0.015,0 3.200551,-2.2656 7.078994,-5.034665 z M 93.977322,22.30417 c -0.03928,-0.03928 -21.074532,-4.270942 -21.230509,-4.270942 -0.08343,0 -0.251231,0.331243 -0.195856,0.386617 0.02516,0.02516 4.854587,1.007844 10.732053,2.183737 l 10.686303,2.137989 0.02658,-0.196127 c 0.01462,-0.107869 0.0063,-0.216443 -0.01857,-0.241274 z m 0.176469,-0.378498 0.08813,-0.193434 -10.677874,-2.135527 c -5.87283,-1.174539 -10.723839,-2.135521 -10.78002,-2.135516 -0.08094,8e-6 -0.159641,0.397355 -0.08172,0.412592 0.01124,0.0022 4.745748,0.954675 10.521138,2.116618 5.77539,1.161943 10.577545,2.11624 10.671456,2.120662 0.105166,0.005 0.204598,-0.06626 0.258883,-0.185395 z M 64.939144,65.69555 c 0.348321,-0.01532 0.918301,-0.01532 1.266622,0 0.348322,0.01532 0.06333,0.02785 -0.633311,0.02785 -0.696642,0 -0.981632,-0.01253 -0.633311,-0.02785 z m 4.739619,0 c 0.348322,-0.01532 0.918302,-0.01532 1.266623,0 0.348321,0.01532 0.06333,0.02785 -0.633311,0.02785 -0.696643,0 -0.981633,-0.01253 -0.633312,-0.02785 z m 4.73962,0 c 0.348321,-0.01532 0.918301,-0.01532 1.266622,0 0.348321,0.01532 0.06333,0.02785 -0.633311,0.02785 -0.696642,0 -0.981632,-0.01253 -0.633311,-0.02785 z m 4.739619,0 c 0.348322,-0.01532 0.918302,-0.01532 1.266623,0 0.348321,0.01532 0.06333,0.02785 -0.633311,0.02785 -0.696643,0 -0.981633,-0.01253 -0.633312,-0.02785 z M 64.939144,65.123527 c 0.348321,-0.01532 0.918301,-0.01532 1.266622,0 0.348322,0.01532 0.06333,0.02785 -0.633311,0.02785 -0.696642,0 -0.981632,-0.01253 -0.633311,-0.02785 z m 4.739619,0 c 0.348322,-0.01532 0.918302,-0.01532 1.266623,0 0.348321,0.01532 0.06333,0.02785 -0.633311,0.02785 -0.696643,0 -0.981633,-0.01253 -0.633312,-0.02785 z m 4.73962,0 c 0.348321,-0.01532 0.918301,-0.01532 1.266622,0 0.348321,0.01532 0.06333,0.02785 -0.633311,0.02785 -0.696642,0 -0.981632,-0.01253 -0.633311,-0.02785 z m 4.739619,0 c 0.348322,-0.01532 0.918302,-0.01532 1.266623,0 0.348321,0.01532 0.06333,0.02785 -0.633311,0.02785 -0.696643,0 -0.981633,-0.01253 -0.633312,-0.02785 z M 64.939144,64.551504 c 0.348321,-0.01532 0.918301,-0.01532 1.266622,0 0.348322,0.01532 0.06333,0.02785 -0.633311,0.02785 -0.696642,0 -0.981632,-0.01253 -0.633311,-0.02785 z m 4.739619,0 c 0.348322,-0.01532 0.918302,-0.01532 1.266623,0 0.348321,0.01532 0.06333,0.02785 -0.633311,0.02785 -0.696643,0 -0.981633,-0.01253 -0.633312,-0.02785 z m 4.73962,0 c 0.348321,-0.01532 0.918301,-0.01532 1.266622,0 0.348321,0.01532 0.06333,0.02785 -0.633311,0.02785 -0.696642,0 -0.981632,-0.01253 -0.633311,-0.02785 z m 4.739619,0 c 0.348322,-0.01532 0.918302,-0.01532 1.266623,0 0.348321,0.01532 0.06333,0.02785 -0.633311,0.02785 -0.696643,0 -0.981633,-0.01253 -0.633312,-0.02785 z m -7.293293,-0.432108 c 0,-0.04634 0.216657,-0.294561 0.481459,-0.551593 0.541142,-0.525264 0.825263,-0.948011 0.825716,-1.228592 3.27e-4,-0.209739 -0.138755,-0.51361 -0.277509,-0.606259 -0.131911,-0.08808 -0.444343,-0.07541 -0.633231,0.02568 -0.154732,0.08281 -0.156469,0.09747 -0.02832,0.239073 0.192604,0.212826 0.127336,0.449024 -0.124079,0.449024 -0.175579,0 -0.206605,-0.04139 -0.228434,-0.304705 -0.02226,-0.268474 0.0069,-0.324887 0.245153,-0.474426 0.408937,-0.256663 1.001397,-0.185503 1.307458,0.157039 0.393684,0.44061 0.269303,0.813568 -0.480016,1.439339 -0.261422,0.218317 -0.510247,0.427125 -0.552944,0.464017 -0.0427,0.03689 0.166189,0.06708 0.464192,0.06708 0.499676,0 0.543856,-0.0143 0.567937,-0.183865 0.03213,-0.226193 0.197397,-0.166472 0.169609,0.06129 -0.06718,0.550651 -0.03338,0.531165 -0.921369,0.531165 -0.505683,0 -0.815619,-0.03202 -0.815619,-0.08426 z m -2.291592,-0.822249 c -0.311894,-0.114725 -0.486806,-0.477656 -0.486806,-1.010089 0,-0.928318 0.643246,-1.597256 1.53591,-1.597256 0.466567,0 0.670465,0.165222 0.670465,0.543292 0,0.426991 -0.514553,0.717154 -1.389199,0.783389 -0.283695,0.02148 -0.28621,0.02509 -0.310514,0.444985 -0.02697,0.465885 0.136625,0.761579 0.421341,0.761579 0.324969,0 0.815779,-0.203721 1.046379,-0.43432 0.246299,-0.246299 0.355201,-0.259194 0.267913,-0.03173 -0.105704,0.27546 -0.851343,0.631408 -1.302543,0.621798 -0.134834,-0.0029 -0.33866,-0.03961 -0.452946,-0.08165 z m 1.185701,-1.673336 c 0.280076,-0.183512 0.36167,-0.515126 0.16257,-0.660712 -0.196904,-0.143979 -0.398079,-0.138777 -0.701527,0.01814 -0.22372,0.11569 -0.479809,0.531812 -0.479809,0.779647 0,0.137115 0.755425,0.03547 1.018766,-0.137077 z M 100.38414,44.507178 c 0,-0.04634 0.21666,-0.294561 0.48146,-0.551593 0.54114,-0.525264 0.82527,-0.948011 0.82572,-1.228592 3.3e-4,-0.209739 -0.13876,-0.51361 -0.27751,-0.606259 -0.13191,-0.08808 -0.44434,-0.07541 -0.63323,0.02568 -0.15473,0.08281 -0.15647,0.09747 -0.0283,0.239073 0.1926,0.212826 0.12733,0.449024 -0.12408,0.449024 -0.17558,0 -0.20661,-0.04138 -0.22844,-0.304705 -0.0222,-0.268474 0.007,-0.324887 0.24516,-0.474426 0.40893,-0.256663 1.00139,-0.185503 1.30745,0.157039 0.39368,0.44061 0.26931,0.813568 -0.48001,1.439339 -0.26142,0.218317 -0.51025,0.427125 -0.55295,0.464017 -0.0427,0.03689 0.16619,0.06708 0.4642,0.06708 0.49967,0 0.54385,-0.0143 0.56793,-0.183865 0.0321,-0.226193 0.1974,-0.166472 0.16961,0.06129 -0.0672,0.550651 -0.0334,0.531165 -0.92137,0.531165 -0.50568,0 -0.81562,-0.03202 -0.81562,-0.08426 z m -4.903052,-0.85549 c 0,-0.08448 0.08479,-0.122577 0.272782,-0.122577 h 0.27278 l 0.253242,-0.960181 c 0.139282,-0.5281 0.334405,-1.291138 0.433606,-1.69564 0.0992,-0.404502 0.197382,-0.781424 0.218179,-0.837605 0.02595,-0.0701 -0.05681,-0.102147 -0.26375,-0.102147 -0.204841,0 -0.290699,-0.03276 -0.267689,-0.102147 0.02343,-0.07067 0.28999,-0.109325 0.864844,-0.125435 0.688332,-0.01929 0.830969,-0.0026 0.830969,0.09721 0,0.08004 -0.102028,0.129019 -0.30383,0.145864 -0.282307,0.02357 -0.308643,0.04852 -0.37178,0.352233 -0.03737,0.179779 -0.117181,0.538314 -0.177351,0.796746 l -0.1094,0.469876 h 0.836532 0.836532 l 0.187601,-0.715028 c 0.10318,-0.393266 0.204617,-0.760995 0.225414,-0.817176 0.02595,-0.0701 -0.05681,-0.102147 -0.26375,-0.102147 -0.204933,0 -0.290654,-0.03273 -0.267516,-0.102147 0.02416,-0.07248 0.267398,-0.102147 0.837605,-0.102147 0.570212,0 0.813442,0.02966 0.837602,0.102147 0.023,0.06913 -0.0612,0.102147 -0.26079,0.102147 -0.33451,0 -0.414962,0.129651 -0.536009,0.8638 -0.03758,0.227894 -0.177624,0.797874 -0.311218,1.266622 -0.133595,0.468748 -0.26299,0.990168 -0.287546,1.15871 -0.04419,0.303332 -0.0418,0.306441 0.236229,0.306441 0.195187,0 0.280874,0.03739 0.280874,0.122577 0,0.101527 -0.154356,0.122576 -0.898894,0.122576 -0.744538,0 -0.898893,-0.02105 -0.898893,-0.122576 0,-0.08778 0.08951,-0.122577 0.315256,-0.122577 h 0.315256 l 0.170656,-0.67417 c 0.297022,-1.173372 0.371965,-1.041899 -0.593904,-1.041899 h -0.839765 l -0.08711,0.3473 c -0.04792,0.191015 -0.14052,0.57713 -0.20579,0.858034 l -0.118673,0.510735 h 0.276887 c 0.191643,0 0.276887,0.03774 0.276887,0.122577 0,0.101174 -0.149816,0.122576 -0.858035,0.122576 -0.708219,0 -0.858035,-0.0214 -0.858035,-0.122576 z m -26.067907,-2.36981 c 0,-0.08448 0.08479,-0.122577 0.272782,-0.122577 h 0.27278 l 0.253241,-0.960181 c 0.139283,-0.5281 0.334406,-1.291138 0.433607,-1.69564 0.0992,-0.404502 0.197381,-0.781424 0.218179,-0.837605 0.02595,-0.0701 -0.05681,-0.102147 -0.26375,-0.102147 -0.204841,0 -0.290699,-0.03276 -0.267689,-0.102147 0.02344,-0.07066 0.28999,-0.109325 0.864844,-0.125435 0.688332,-0.01929 0.830969,-0.0026 0.830969,0.09721 0,0.08004 -0.102028,0.129019 -0.30383,0.145864 -0.282308,0.02357 -0.308644,0.04852 -0.37178,0.352233 -0.03737,0.179779 -0.117181,0.538315 -0.177351,0.796747 l -0.1094,0.469876 h 0.836532 0.836532 l 0.187601,-0.715029 c 0.10318,-0.393266 0.204617,-0.760995 0.225414,-0.817176 0.02595,-0.0701 -0.05681,-0.102147 -0.26375,-0.102147 -0.204933,0 -0.290654,-0.03273 -0.267516,-0.102147 0.02416,-0.07248 0.267398,-0.102147 0.837605,-0.102147 0.570208,0 0.813444,0.02966 0.837605,0.102147 0.02305,0.06913 -0.06124,0.102147 -0.260795,0.102147 -0.334508,0 -0.41496,0.129652 -0.536007,0.8638 -0.03758,0.227894 -0.177624,0.797874 -0.311218,1.266622 -0.133595,0.468749 -0.26299,0.990168 -0.287546,1.158711 -0.04419,0.303331 -0.04179,0.30644 0.236229,0.30644 0.195187,0 0.280874,0.0374 0.280874,0.122577 0,0.101527 -0.154356,0.122576 -0.898894,0.122576 -0.744538,0 -0.898893,-0.02105 -0.898893,-0.122576 0,-0.08778 0.08951,-0.122577 0.315256,-0.122577 h 0.315255 l 0.170657,-0.67417 c 0.297022,-1.173372 0.371964,-1.041899 -0.593905,-1.041899 h -0.839764 l -0.08712,0.3473 c -0.04791,0.191015 -0.140519,0.57713 -0.205789,0.858035 l -0.118673,0.510734 h 0.276886 c 0.191644,0 0.276887,0.03774 0.276887,0.122577 0,0.101174 -0.149815,0.122576 -0.858034,0.122576 -0.708219,0 -0.858035,-0.0214 -0.858035,-0.122576 z M 60.34253,23.186613 c 0,-0.0421 0.119512,-0.08806 0.265582,-0.102147 l 0.265582,-0.02561 0.02269,-1.066613 0.02269,-1.066612 -0.299424,0.03496 c -0.412364,0.04814 -0.297953,-0.09661 0.206871,-0.261728 0.222615,-0.07281 0.424467,-0.132388 0.44856,-0.132388 0.02409,0 0.05396,0.560786 0.06636,1.246193 l 0.02256,1.246193 0.265582,0.02561 c 0.14607,0.01408 0.265582,0.06005 0.265582,0.102147 0,0.0422 -0.34826,0.07654 -0.776317,0.07654 -0.428057,0 -0.776317,-0.03434 -0.776317,-0.07654 z m -2.373309,-0.748254 c -0.311894,-0.114724 -0.486806,-0.477655 -0.486806,-1.010089 0,-0.928317 0.643246,-1.597256 1.53591,-1.597256 0.466567,0 0.670465,0.165223 0.670465,0.543292 0,0.426991 -0.514553,0.717155 -1.389199,0.783389 -0.283695,0.02148 -0.28621,0.02509 -0.310514,0.444986 -0.02697,0.465885 0.136625,0.761578 0.421341,0.761578 0.324969,0 0.815779,-0.20372 1.046379,-0.43432 0.246299,-0.246298 0.355201,-0.259194 0.267913,-0.03173 -0.105704,0.27546 -0.851343,0.631408 -1.302543,0.621799 -0.134834,-0.0029 -0.33866,-0.03962 -0.452946,-0.08165 z m 1.185701,-1.673336 c 0.280076,-0.183512 0.36167,-0.515126 0.16257,-0.660712 -0.196904,-0.143979 -0.398079,-0.138776 -0.701527,0.01814 -0.22372,0.11569 -0.479809,0.531812 -0.479809,0.779647 0,0.137114 0.755425,0.03547 1.018766,-0.137078 z m -6.602801,-2.459404 c -0.02996,-0.02996 -0.05448,-0.305759 -0.05448,-0.612881 v -0.558404 h 1.225763 1.225764 v 0.612882 0.612882 h -1.171285 c -0.644207,0 -1.195801,-0.02452 -1.225764,-0.05448 z m 4.73962,0 c -0.02996,-0.02996 -0.05448,-0.305759 -0.05448,-0.612881 v -0.558404 h 1.225764 1.225764 v 0.612882 0.612882 h -1.171285 c -0.644208,0 -1.195802,-0.02452 -1.225764,-0.05448 z m 4.739619,0 C 62.0014,18.275659 61.97688,17.99986 61.97688,17.692738 v -0.558404 h 1.225763 1.225764 v 0.612882 0.612882 h -1.171285 c -0.644207,0 -1.195801,-0.02452 -1.225764,-0.05448 z m 4.73962,0 C 66.74102,18.275659 66.7165,17.99986 66.7165,17.692738 v -0.558404 h 1.225764 1.225764 v 0.612882 0.612882 h -1.171285 c -0.644208,0 -1.195802,-0.02452 -1.225764,-0.05448 z m 5.183468,-1.846659 c -0.269218,-0.138457 -0.368645,-0.323065 -0.306772,-0.569586 0.05829,-0.232234 0.244754,-0.335825 0.473698,-0.263161 0.212203,0.06735 0.192999,0.398099 -0.03194,0.550114 l -0.183865,0.124255 0.239491,0.06171 c 0.343624,0.08855 0.618134,-0.09567 0.887464,-0.595551 l 0.228061,-0.423286 -0.391496,0.04577 c -0.528681,0.0618 -0.842329,-0.166576 -0.838033,-0.6102 0.0034,-0.352689 0.180726,-1.136062 0.313137,-1.383474 0.126001,-0.235435 0.116642,-0.510528 -0.01737,-0.510528 -0.143982,0 -0.327792,0.221099 -0.458568,0.551593 -0.0578,0.14607 -0.137402,0.265582 -0.176894,0.265582 -0.137471,0 -0.07056,-0.386271 0.11469,-0.662085 0.148576,-0.221211 0.249424,-0.282893 0.496009,-0.303369 0.170233,-0.01414 0.362108,0.01795 0.426388,0.07129 0.164317,0.136371 0.145243,0.533291 -0.05036,1.04793 -0.226836,0.596816 -0.199039,1.346535 0.05125,1.382306 0.346343,0.0495 0.519402,-0.223145 0.819411,-1.290923 0.288491,-1.026785 0.425075,-1.295518 0.602665,-1.185761 0.13773,0.08512 0.04137,0.700215 -0.306212,1.954677 -0.31948,1.153034 -0.537903,1.508104 -1.062572,1.727324 -0.345526,0.144371 -0.569281,0.148523 -0.828183,0.01537 z M 45.817231,15.318529 c -0.341151,-0.164531 -0.174721,-0.775812 0.19161,-0.703758 0.250761,0.04932 0.330257,0.283729 0.160018,0.471841 -0.120572,0.13323 -0.127286,0.168218 -0.03228,0.168218 0.275889,0 0.538987,-0.439078 0.685522,-1.144046 0.187256,-0.900885 0.189455,-1.063355 0.0159,-1.17455 -0.205277,-0.131516 -0.536834,0.07568 -0.735319,0.459521 -0.153434,0.296717 -0.305875,0.40334 -0.305875,0.21394 0,-0.149181 0.3253,-0.632589 0.515191,-0.765594 0.249959,-0.175078 0.758076,-0.15673 0.949077,0.03427 0.154571,0.154571 0.158793,0.154571 0.298677,0 0.144482,-0.15965 0.633888,-0.215067 0.82511,-0.09343 0.188677,0.12002 0.20961,0.465899 0.03762,0.62155 -0.321588,0.291033 -0.751596,-0.036 -0.464484,-0.353254 0.130103,-0.143763 0.133435,-0.168218 0.02293,-0.168218 -0.230526,0 -0.437111,0.380098 -0.662557,1.219048 -0.170533,0.634597 -0.200819,0.859403 -0.132881,0.986346 0.172804,0.322889 0.615605,0.133695 0.851739,-0.363921 0.07539,-0.158862 0.172112,-0.28884 0.214948,-0.28884 0.24833,0 -0.12968,0.687263 -0.466302,0.847787 -0.357545,0.170502 -0.502088,0.16692 -0.808672,-0.02004 -0.243597,-0.148549 -0.254253,-0.148541 -0.43807,3.02e-4 -0.209156,0.169364 -0.44453,0.186587 -0.721888,0.05282 z"
       id="path848" />
  </g>
</svg>
