<?xml version="1.0" encoding="UTF-8" standalone="no"?>
<svg
   xmlns:dc="http://purl.org/dc/elements/1.1/"
   xmlns:cc="http://creativecommons.org/ns#"
   xmlns:rdf="http://www.w3.org/1999/02/22-rdf-syntax-ns#"
   xmlns:svg="http://www.w3.org/2000/svg"
   xmlns="http://www.w3.org/2000/svg"
   xmlns:sodipodi="http://sodipodi.sourceforge.net/DTD/sodipodi-0.dtd"
   xmlns:inkscape="http://www.inkscape.org/namespaces/inkscape"
   width="123.82499mm"
   height="36.905922mm"
   viewBox="0 0 123.82499 36.905922"
   version="1.1"
   id="svg8"
   inkscape:version="1.0.2 (e86c870879, 2021-01-15)"
   sodipodi:docname="kontrakce.svg">
  <defs
     id="defs2" />
  <sodipodi:namedview
     id="base"
     pagecolor="#ffffff"
     bordercolor="#666666"
     borderopacity="1.0"
     inkscape:pageopacity="0.0"
     inkscape:pageshadow="2"
     inkscape:zoom="0.21017241"
     inkscape:cx="242.65395"
     inkscape:cy="503.4083"
     inkscape:document-units="mm"
     inkscape:current-layer="layer1"
     inkscape:document-rotation="0"
     showgrid="false"
     inkscape:window-width="954"
     inkscape:window-height="1049"
     inkscape:window-x="2880"
     inkscape:window-y="0"
     inkscape:window-maximized="1"
     fit-margin-top="0"
     fit-margin-left="0"
     fit-margin-right="0"
     fit-margin-bottom="0" />
  <metadata
     id="metadata5">
    <rdf:RDF>
      <cc:Work
         rdf:about="">
        <dc:format>image/svg+xml</dc:format>
        <dc:type
           rdf:resource="http://purl.org/dc/dcmitype/StillImage" />
        <dc:title></dc:title>
      </cc:Work>
    </rdf:RDF>
  </metadata>
  <g
     inkscape:label="Layer 1"
     inkscape:groupmode="layer"
     id="layer1"
     transform="translate(-10.303581,-14.766531)">
    <path
       style="fill:#000000;stroke-width:0.264583"
       d="m 35.92915,51.664979 c -0.37868,0.0443 -0.881671,-0.11294 -1.118349,-0.34962 -0.236577,-0.23658 -0.428315,-0.63 -0.426087,-0.87426 0.0021,-0.24427 0.107108,-0.6068 0.233068,-0.80562 0.159179,-0.25126 -0.911127,-2.17664 -3.509779,-6.31377 -3.392893,-5.40157 -3.828653,-5.98266 -4.710014,-6.28084 -0.966583,-0.32701 -0.999391,-0.31292 -6.879166,2.95551 -3.249373,1.80624 -6.652091,3.69979 -7.561597,4.20789 -0.909505,0.5081 -1.653645,0.81314 -1.653645,0.67787 0,-0.13526 3.393281,-2.12712 7.540624,-4.42634 6.845334,-3.79495 7.540625,-4.24327 7.540625,-4.86219 0,-0.5385 -1.414765,-2.09573 -6.732,-7.40989 -3.702599,-3.70047 -6.663774,-6.83851 -6.580388,-6.97343 0.08339,-0.13492 3.202925,2.80431 6.932309,6.53162 5.96635,5.96304 6.879855,6.77694 7.606326,6.77694 0.454094,0 0.973846,0.17859 1.155003,0.39687 0.281701,0.33943 1.718442,0.39688 9.925965,0.39688 8.400907,0 9.616085,-0.0508 9.753089,-0.40784 0.08979,-0.23399 -0.863476,-2.44542 -2.23629,-5.18783 -1.316038,-2.629 -2.326225,-4.84656 -2.244863,-4.92793 0.08136,-0.0814 0.194091,-0.0983 0.25051,-0.0377 0.05642,0.0606 1.188048,2.28296 2.514735,4.9385 1.326687,2.65553 2.500919,4.80483 2.6094,4.77622 0.108485,-0.0286 0.459044,0.0372 0.779024,0.14622 0.319976,0.10904 0.65151,0.41796 0.736737,0.68648 0.08523,0.26853 0.121084,0.63712 0.07968,0.8191 -0.0414,0.18197 2.484565,2.16619 5.613263,4.40937 3.128697,2.24319 5.733753,4.2068 5.789011,4.36358 0.06316,0.17918 -0.03511,0.20199 -0.264583,0.0614 -0.200779,-0.123 -2.805835,-1.96665 -5.789012,-4.09699 -5.087995,-3.63343 -5.492728,-3.86971 -6.534205,-3.81475 -1.098545,0.058 -1.167302,0.12376 -6.52304,6.24167 -4.106939,4.6914 -5.35922,6.28319 -5.19073,6.59802 0.131741,0.24616 0.09201,0.67715 -0.09767,1.05963 -0.192442,0.38803 -0.593728,0.67676 -1.007946,0.72521 z m 0.06469,-2.64553 c 0.626385,-0.0663 1.712523,-1.1673 6.057323,-6.1401 2.911744,-3.33261 5.294082,-6.16034 5.294082,-6.28385 0,-0.12351 -4.405313,-0.22457 -9.789583,-0.22457 -8.551249,0 -9.789583,0.0505 -9.789583,0.39924 0,0.21959 1.679517,3.08369 3.73226,6.36467 3.568729,5.70404 3.765706,5.96189 4.495501,5.88461 z m 0.435356,-2.37387 c -0.906169,0 -1.254784,-0.10413 -1.254784,-0.37482 0,-0.20616 0.10914,-0.37483 0.242535,-0.37483 0.133393,0 0.297794,0.14883 0.365337,0.33073 0.06847,0.1844 0.253823,0.001 0.418923,-0.4141 0.162867,-0.40965 0.296121,-0.9752 0.296121,-1.25677 0,-0.28157 -0.122798,-0.51194 -0.272885,-0.51194 -0.150091,0 -0.341421,0.17859 -0.425183,0.39687 -0.08376,0.21829 -0.262811,0.39688 -0.397881,0.39688 -0.136138,0 -0.115591,-0.2429 0.0461,-0.54502 0.205489,-0.38396 0.501457,-0.52079 1.001498,-0.46302 0.513485,0.0593 0.705025,0.22836 0.692513,0.61116 -0.0095,0.29105 -0.101076,0.85659 -0.203478,1.25677 -0.14025,0.54811 -0.09027,0.72761 0.202586,0.72761 0.213823,0 0.510128,-0.20836 0.658453,-0.46302 0.148328,-0.25466 0.271484,-0.34396 0.27368,-0.19844 0.0021,0.14552 -0.08438,0.40349 -0.192382,0.57327 -0.108005,0.16977 -0.761026,0.30867 -1.451154,0.30867 z m 1.668907,-1.94848 c -0.138219,0.0854 -0.380532,-0.0861 -0.538475,-0.38126 -0.244766,-0.45734 -0.207658,-0.53657 0.251309,-0.53657 0.296161,0 0.538475,0.17156 0.538475,0.38125 0,0.2097 -0.113088,0.45116 -0.251309,0.53658 z m 81.478387,5.16758 c -0.37835,0 -0.83079,-0.14287 -1.00542,-0.3175 -0.17462,-0.17462 -0.3175,-0.64986 -0.3175,-1.05609 0,-0.45205 0.2053,-0.8668 0.52917,-1.06906 0.49856,-0.31136 0.52917,-0.61702 0.52917,-5.2846 0,-4.44916 -0.0472,-4.97941 -0.46345,-5.20216 -0.36033,-0.19284 -1.72898,0.45656 -6.15156,2.9188 -3.12847,1.74176 -6.55132,3.64346 -7.60635,4.226 -1.05502,0.58255 -1.91823,0.95327 -1.91823,0.82383 0,-0.12944 3.38085,-2.10963 7.51299,-4.40043 6.9668,-3.86229 7.52143,-4.22268 7.62926,-4.95734 0.10497,-0.71521 -0.44723,-1.43535 -5.67849,-7.40543 -3.18713,-3.63725 -5.75709,-6.71302 -5.71104,-6.83505 0.0461,-0.12204 2.70312,2.79326 5.90457,6.47842 3.26567,3.75907 6.02188,6.70787 6.27882,6.71754 0.26517,0.01 0.51702,-0.23339 0.59823,-0.57807 0.0771,-0.32743 0.43748,-2.07456 0.80076,-3.88253 0.36328,-1.80797 0.71916,-3.34586 0.79083,-3.41754 0.0717,-0.0717 0.17973,-0.0807 0.24012,-0.0201 0.0604,0.0606 -0.23739,1.82714 -0.66172,3.92557 -0.66933,3.30997 -0.72185,3.8707 -0.39652,4.23334 0.20625,0.2299 0.41473,0.73891 0.46329,1.13113 0.0726,0.58677 1.24875,1.58359 6.63671,5.62501 3.60165,2.70152 6.54844,5.03059 6.54844,5.1757 0,0.14511 -3.03433,-2.0126 -6.74297,-4.79491 -4.31425,-3.23667 -6.88733,-5.00336 -7.14375,-4.90496 -0.33831,0.12982 -0.40078,0.92877 -0.40078,5.12554 0,4.68519 0.0305,4.99078 0.52917,5.30221 0.32387,0.20226 0.52917,0.61701 0.52917,1.06906 0,0.40623 -0.14288,0.88147 -0.3175,1.05609 -0.17463,0.17463 -0.62707,0.3175 -1.00542,0.3175 z m 3.63603,-2.42535 c -0.90617,0 -1.25478,-0.10413 -1.25478,-0.37482 0,-0.20616 0.10914,-0.37483 0.24253,-0.37483 0.1334,0 0.2978,0.14883 0.36534,0.33073 0.0685,0.1844 0.25382,10e-4 0.41892,-0.4141 0.16287,-0.40965 0.29613,-0.9752 0.29613,-1.25677 0,-0.28157 -0.1228,-0.51194 -0.27289,-0.51194 -0.15009,0 -0.34142,0.17859 -0.42518,0.39687 -0.0838,0.21829 -0.26281,0.39688 -0.39788,0.39688 -0.13614,0 -0.11559,-0.2429 0.0461,-0.54502 0.20549,-0.38396 0.50145,-0.52079 1.0015,-0.46302 0.51348,0.0593 0.70502,0.22836 0.69251,0.61116 -0.01,0.29105 -0.10108,0.85659 -0.20348,1.25677 -0.14025,0.54811 -0.0903,0.72761 0.20259,0.72761 0.21382,0 0.51012,-0.20836 0.65845,-0.46302 0.14833,-0.25466 0.27148,-0.34396 0.27368,-0.19844 0.002,0.14552 -0.0844,0.40349 -0.19238,0.57327 -0.10801,0.16977 -0.76103,0.30867 -1.45116,0.30867 z m 1.66891,-1.94848 c -0.13822,0.0854 -0.38053,-0.0861 -0.53847,-0.38126 -0.24477,-0.45734 -0.20766,-0.53657 0.2513,-0.53657 0.29617,0 0.53848,0.17156 0.53848,0.38125 0,0.2097 -0.11309,0.45116 -0.25131,0.53658 z m -44.397126,-8.12812 c -0.24192,0.0901 -0.33073,-0.31072 -0.33073,-1.49266 0,-0.88869 0.0845,-1.6158 0.18774,-1.6158 0.10326,0 1.29977,0.31558 2.65892,0.70128 1.35915,0.38571 2.376,0.78338 2.25966,0.8837 -0.11634,0.10033 -1.16402,0.45645 -2.32819,0.79138 -1.16417,0.33492 -2.2655,0.66437 -2.4474,0.7321 z m -11.575518,-1.25638 c -0.218281,0 -0.396875,-0.11906 -0.396875,-0.26458 0,-0.14552 0.178594,-0.26459 0.396875,-0.26459 0.218282,0 0.396875,0.11907 0.396875,0.26459 0,0.14552 -0.178593,0.26458 -0.396875,0.26458 z m 1.322917,0 c -0.218281,0 -0.396875,-0.11906 -0.396875,-0.26458 0,-0.14552 0.178594,-0.26459 0.396875,-0.26459 0.218281,0 0.396875,0.11907 0.396875,0.26459 0,0.14552 -0.178594,0.26458 -0.396875,0.26458 z m 1.322917,0 c -0.218282,0 -0.396875,-0.11906 -0.396875,-0.26458 0,-0.14552 0.178593,-0.26459 0.396875,-0.26459 0.218281,0 0.396875,0.11907 0.396875,0.26459 0,0.14552 -0.178594,0.26458 -0.396875,0.26458 z m 1.322914,0 c -0.218279,0 -0.396873,-0.11906 -0.396873,-0.26458 0,-0.14552 0.178594,-0.26459 0.396873,-0.26459 0.21828,0 0.39688,0.11907 0.39688,0.26459 0,0.14552 -0.1786,0.26458 -0.39688,0.26458 z m 1.32292,0 c -0.21828,0 -0.39688,-0.11906 -0.39688,-0.26458 0,-0.14552 0.1786,-0.26459 0.39688,-0.26459 0.21828,0 0.39688,0.11907 0.39688,0.26459 0,0.14552 -0.1786,0.26458 -0.39688,0.26458 z m 1.32292,0 c -0.21828,0 -0.39688,-0.11906 -0.39688,-0.26458 0,-0.14552 0.1786,-0.26459 0.39688,-0.26459 0.21828,0 0.39687,0.11907 0.39687,0.26459 0,0.14552 -0.17859,0.26458 -0.39687,0.26458 z m 1.17501,0 c -0.13694,0 -0.24897,-0.11906 -0.24897,-0.26458 0,-0.14552 0.18562,-0.26459 0.41249,-0.26459 0.22687,0 0.3389,0.11907 0.24897,0.26459 -0.0899,0.14552 -0.27556,0.26458 -0.41249,0.26458 z m 1.32291,0 c -0.13693,0 -0.24897,-0.11906 -0.24897,-0.26458 0,-0.14552 0.18563,-0.26459 0.4125,-0.26459 0.22686,0 0.3389,0.11907 0.24896,0.26459 -0.0899,0.14552 -0.27556,0.26458 -0.41249,0.26458 z m 1.32292,0 c -0.13693,0 -0.24897,-0.11906 -0.24897,-0.26458 0,-0.14552 0.18562,-0.26459 0.41249,-0.26459 0.22687,0 0.33891,0.11907 0.24897,0.26459 -0.0899,0.14552 -0.27556,0.26458 -0.41249,0.26458 z m 46.979146,0 c -0.34662,0 -0.70799,-0.12583 -0.80304,-0.27962 -0.0951,-0.15379 -0.1018,-0.56258 -0.015,-0.90841 0.0868,-0.34583 0.40765,-0.70808 0.713,-0.80499 0.30535,-0.0969 0.6757,-0.0557 0.823,0.0916 0.14729,0.1473 0.18781,0.39725 0.09,0.55545 -0.0978,0.1582 -0.40887,0.28764 -0.69132,0.28764 -0.29656,0 -0.51355,0.18072 -0.51355,0.42772 0,0.31216 0.17654,0.39397 0.65345,0.3028 0.3594,-0.0687 0.5905,-0.0231 0.51355,0.10145 -0.0769,0.1245 -0.4235,0.22636 -0.77013,0.22636 z m 0.11668,-1.32292 c 0.13693,0 0.32255,-0.11906 0.41249,-0.26458 0.0899,-0.14552 -0.0221,-0.26458 -0.24897,-0.26458 -0.22687,0 -0.41249,0.11906 -0.41249,0.26458 0,0.14552 0.11204,0.26458 0.24897,0.26458 z m -3.0504,0.26459 c -0.36012,0 -0.72272,-0.17711 -0.80578,-0.39357 -0.0831,-0.21646 -0.0198,-0.77001 0.14059,-1.23011 0.16039,-0.46009 0.28784,-0.90807 0.28321,-0.99549 -0.005,-0.0874 -0.19392,0.0792 -0.42065,0.37021 l -0.41223,0.52916 0.0926,-0.52916 c 0.0547,-0.31278 0.33976,-0.56437 0.69699,-0.61526 0.5805,-0.0827 0.59733,-0.0331 0.42623,1.25677 -0.14579,1.09902 -0.10571,1.34286 0.22073,1.34286 0.21937,0 0.54317,-0.34841 0.71956,-0.77424 0.17639,-0.42584 0.24234,-1.02115 0.14656,-1.32292 -0.10196,-0.32125 -0.0571,-0.54867 0.10827,-0.54867 0.15533,0 0.28242,0.39023 0.28242,0.86717 0,0.47694 -0.18535,1.13179 -0.41188,1.45521 -0.23695,0.33829 -0.68997,0.58804 -1.06664,0.58804 z m -88.071236,-1.85209 c -0.467251,0 -0.928923,-0.0794 -1.025935,-0.17639 -0.09701,-0.097 -0.176389,-0.51373 -0.176389,-0.92604 0,-0.41231 0.238125,-0.98778 0.529166,-1.27882 0.291042,-0.29104 0.835105,-0.52916 1.209027,-0.52916 0.553704,0 0.66417,0.11046 0.595312,0.59531 -0.05822,0.40992 -0.352329,0.67415 -0.944443,0.84846 -0.472943,0.13924 -0.859896,0.41086 -0.859896,0.60362 0,0.19276 0.194366,0.42505 0.431925,0.51621 0.237556,0.0912 0.65266,0.0279 0.922451,-0.1406 0.26979,-0.16848 0.566253,-0.30634 0.658807,-0.30634 0.09255,0 0.02005,0.1786 -0.1611,0.39688 -0.181157,0.21828 -0.711673,0.39687 -1.178925,0.39687 z m 0.112528,-1.89282 c 0.34544,-0.0503 0.677087,-0.24038 0.736994,-0.42228 0.0599,-0.1819 -0.06502,-0.33073 -0.277609,-0.33073 -0.21259,0 -0.544237,0.19003 -0.736994,0.42229 -0.305983,0.36868 -0.270748,0.41066 0.277609,0.33072 z m -1.050269,-11.75929 c -0.363802,0.074 -0.840052,0.0667 -1.058333,-0.0162 -0.218282,-0.083 -0.545704,-0.33851 -0.727605,-0.56787 -0.181901,-0.22935 -0.330729,-0.75735 -0.330729,-1.17333 0,-0.41597 0.17335,-1.09154 0.38522,-1.50125 0.211871,-0.40971 0.817274,-0.94996 1.34534,-1.20054 0.644041,-0.30562 1.192274,-0.39028 1.665301,-0.25716 0.38785,0.10914 0.846714,0.17551 1.019699,0.14747 0.231129,-0.0375 0.248669,0.17863 0.06615,0.81505 -0.136605,0.47631 -0.262459,0.92634 -0.279675,1.00006 -0.01722,0.0737 -0.107434,-0.22169 -0.200478,-0.65648 -0.100208,-0.46826 -0.365625,-0.82835 -0.651081,-0.88333 -0.265049,-0.051 -0.767982,-0.021 -1.117629,0.0668 -0.349644,0.0878 -0.823238,0.52218 -1.052428,0.96539 -0.22919,0.4432 -0.380185,1.24515 -0.335542,1.7821 0.07066,0.84995 0.177393,0.98731 0.824772,1.06154 0.408983,0.0469 0.914998,-0.057 1.12448,-0.23083 0.209481,-0.17386 0.380875,-0.47139 0.380875,-0.66118 0,-0.18979 -0.208359,-0.39953 -0.463021,-0.46608 -0.254661,-0.0666 0.0515,-0.13481 0.680358,-0.15169 1.039434,-0.0279 1.10558,0.007 0.727604,0.38508 -0.228677,0.22868 -0.415774,0.63799 -0.415774,0.9096 0,0.29307 -0.188233,0.49473 -0.463021,0.49606 -0.254661,10e-4 -0.760677,0.0628 -1.124479,0.13687 z m 79.639577,0 c -0.3638,0.074 -0.84005,0.0667 -1.05833,-0.0162 -0.21828,-0.083 -0.54571,-0.33851 -0.72761,-0.56787 -0.1819,-0.22935 -0.33073,-0.75735 -0.33073,-1.17333 0,-0.41597 0.17335,-1.09154 0.38522,-1.50125 0.21187,-0.40971 0.81728,-0.94996 1.34534,-1.20054 0.64404,-0.30562 1.19228,-0.39028 1.6653,-0.25716 0.38785,0.10914 0.84672,0.17551 1.0197,0.14747 0.23113,-0.0375 0.24867,0.17863 0.0661,0.81505 -0.13661,0.47631 -0.26246,0.92634 -0.27968,1.00006 -0.0172,0.0737 -0.10743,-0.22169 -0.20047,-0.65648 -0.10021,-0.46826 -0.36563,-0.82835 -0.65109,-0.88333 -0.26504,-0.051 -0.76798,-0.021 -1.11762,0.0668 -0.34965,0.0878 -0.82324,0.52218 -1.05243,0.96539 -0.22919,0.4432 -0.38019,1.24515 -0.33554,1.7821 0.0707,0.84995 0.17739,0.98731 0.82477,1.06154 0.40898,0.0469 0.915,-0.057 1.12448,-0.23083 0.20948,-0.17386 0.38087,-0.47139 0.38087,-0.66118 0,-0.18979 -0.20836,-0.39953 -0.46302,-0.46608 -0.25466,-0.0666 0.0515,-0.13481 0.68036,-0.15169 1.03943,-0.0279 1.10558,0.007 0.7276,0.38508 -0.22867,0.22868 -0.41577,0.63799 -0.41577,0.9096 0,0.29307 -0.18823,0.49473 -0.46302,0.49606 -0.25466,10e-4 -0.76068,0.0628 -1.12448,0.13687 z m 8.87524,-0.10622 c -0.46725,0 -0.92892,-0.0794 -1.02593,-0.17639 -0.097,-0.097 -0.17639,-0.51373 -0.17639,-0.92604 0,-0.41231 0.23812,-0.98778 0.52916,-1.27882 0.29104,-0.29104 0.83511,-0.52917 1.20903,-0.52917 0.5537,0 0.66417,0.11047 0.59531,0.59532 -0.0582,0.40992 -0.35233,0.67414 -0.94444,0.84846 -0.47294,0.13923 -0.8599,0.41086 -0.8599,0.60362 0,0.19275 0.19437,0.42505 0.43193,0.51621 0.23755,0.0911 0.65266,0.0279 0.92245,-0.1406 0.26979,-0.16849 0.56625,-0.30634 0.65881,-0.30634 0.0926,0 0.0201,0.17859 -0.1611,0.39687 -0.18116,0.21829 -0.71168,0.39688 -1.17893,0.39688 z m 0.11253,-1.89282 c 0.34544,-0.0503 0.67709,-0.24038 0.73699,-0.42228 0.0599,-0.18191 -0.065,-0.33073 -0.27761,-0.33073 -0.21259,0 -0.54423,0.19003 -0.73699,0.42228 -0.30598,0.36869 -0.27075,0.41067 0.27761,0.33073 z m -3.80635,0.5699 c -0.2304,0 -0.41892,-0.18851 -0.41892,-0.41892 0,-0.23041 0.14138,-0.3718 0.31419,-0.31419 0.17281,0.0576 0.36133,0.24611 0.41892,0.41892 0.0576,0.17281 -0.0838,0.31419 -0.31419,0.31419 z"
       id="path943" />
  </g>
</svg>
