<?xml version="1.0" encoding="UTF-8" standalone="no"?>
<svg
   xmlns:dc="http://purl.org/dc/elements/1.1/"
   xmlns:cc="http://creativecommons.org/ns#"
   xmlns:rdf="http://www.w3.org/1999/02/22-rdf-syntax-ns#"
   xmlns:svg="http://www.w3.org/2000/svg"
   xmlns="http://www.w3.org/2000/svg"
   xmlns:sodipodi="http://sodipodi.sourceforge.net/DTD/sodipodi-0.dtd"
   xmlns:inkscape="http://www.inkscape.org/namespaces/inkscape"
   width="96.440628mm"
   height="86.518753mm"
   viewBox="0 0 96.440628 86.518753"
   version="1.1"
   id="svg8"
   inkscape:version="1.0.2 (e86c870879, 2021-01-15)"
   sodipodi:docname="kytka.svg">
  <defs
     id="defs2" />
  <sodipodi:namedview
     id="base"
     pagecolor="#ffffff"
     bordercolor="#666666"
     borderopacity="1.0"
     inkscape:pageopacity="0.0"
     inkscape:pageshadow="2"
     inkscape:zoom="0.19153312"
     inkscape:cx="-103.6826"
     inkscape:cy="330.59962"
     inkscape:document-units="mm"
     inkscape:current-layer="layer1"
     inkscape:document-rotation="0"
     showgrid="false"
     inkscape:window-width="954"
     inkscape:window-height="1049"
     inkscape:window-x="2880"
     inkscape:window-y="0"
     inkscape:window-maximized="1"
     fit-margin-top="0"
     fit-margin-left="0"
     fit-margin-right="0"
     fit-margin-bottom="0" />
  <metadata
     id="metadata5">
    <rdf:RDF>
      <cc:Work
         rdf:about="">
        <dc:format>image/svg+xml</dc:format>
        <dc:type
           rdf:resource="http://purl.org/dc/dcmitype/StillImage" />
        <dc:title></dc:title>
      </cc:Work>
    </rdf:RDF>
  </metadata>
  <g
     inkscape:label="Layer 1"
     inkscape:groupmode="layer"
     id="layer1"
     transform="translate(-6.7940915,-36.222385)">
    <path
       style="fill:#000000;stroke-width:0.264583"
       d="m 67.774857,122.74114 c -0.489931,0 -0.868931,-0.18591 -1.043331,-0.51178 -0.150641,-0.28147 -0.273891,-0.65905 -0.273891,-0.83906 0,-0.18001 0.18366,-0.53023 0.408133,-0.77827 0.370049,-0.4089 0.307054,-0.85524 -0.675103,-4.78334 -0.595778,-2.38279 -1.195523,-4.75943 -1.332765,-5.28142 -0.157324,-0.59838 -0.485984,-1.05681 -0.889447,-1.24064 -0.351957,-0.16037 -0.719653,-0.54278 -0.817102,-0.84982 -0.103907,-0.32738 -0.0168,-0.80301 0.210603,-1.15009 0.287539,-0.43884 0.437975,-1.93041 0.58194,-5.76997 0.15166,-4.044732 0.116933,-5.391702 -0.158654,-6.153812 -0.256355,-0.70894 -0.275479,-1.09906 -0.06996,-1.42697 0.155567,-0.24821 0.533709,-0.4887 0.840311,-0.53442 0.447429,-0.0667 0.68792,-0.51062 1.218412,-2.24896 0.363524,-1.1912 1.127471,-3.62208 1.697656,-5.40194 0.865738,-2.70243 0.976691,-3.28591 0.672796,-3.53812 -0.200149,-0.16611 -0.363908,-0.63871 -0.363908,-1.05023 0,-0.41151 0.168368,-0.84342 0.37415,-0.95979 0.257263,-0.14548 0.632624,-1.94713 1.20151,-5.76695 0.564142,-3.78798 0.773227,-5.97652 0.657209,-6.87917 l -0.170148,-1.3238 -5.564341,-3.83645 c -4.92692,-3.39698 -5.687534,-3.83646 -6.639753,-3.83646 -0.891622,0 -1.144503,-0.12192 -1.479662,-0.71335 -0.378295,-0.66755 -0.365566,-0.75452 0.198308,-1.35473 0.446527,-0.47531 1.174184,-2.71796 2.810129,-8.66086 1.711754,-6.21828 2.143676,-8.12179 1.923069,-8.47504 -0.215448,-0.34499 -0.175175,-0.62243 0.165902,-1.142984 0.255135,-0.389387 0.698468,-0.687413 1.022569,-0.687413 0.314688,0 0.826683,0.239111 1.137767,0.531358 0.565404,0.53117 0.56778,0.531176 6.717924,0.0169 5.955538,-0.498004 6.172431,-0.536157 6.781004,-1.192817 0.345773,-0.373096 0.812959,-0.678357 1.038188,-0.678357 0.225229,0 0.647634,0.238125 0.938676,0.529167 0.291041,0.291041 0.529166,0.656056 0.529166,0.811144 0,0.155087 -0.110466,0.488386 -0.24548,0.740663 -0.171508,0.320463 0.309139,2.998999 1.595006,8.888619 1.01227,4.63646 1.999068,8.55964 2.192885,8.71819 0.193818,0.15854 0.427363,0.50323 0.518994,0.76597 0.109191,0.3131 -0.05849,0.7028 -0.486611,1.13092 -0.463164,0.46317 -0.830567,0.6087 -1.262817,0.50021 -0.507529,-0.12738 -1.339149,0.51631 -4.966287,3.84401 -3.705247,3.39936 -4.343575,4.09701 -4.269042,4.66578 0.0482,0.36782 -0.09699,0.87278 -0.322646,1.12213 -0.269825,0.29815 -0.689285,2.30624 -1.225254,5.86567 -0.548777,3.64451 -0.759084,5.82537 -0.643871,6.67691 0.113392,0.83809 0.0622,1.39581 -0.151787,1.65365 -0.177585,0.21398 -0.527187,0.38905 -0.776888,0.38905 -0.358828,0 -0.803452,1.11841 -2.120897,5.33493 -1.346528,4.3096 -1.609003,5.42763 -1.365681,5.81724 0.165666,0.26527 0.301209,0.75778 0.301209,1.09445 0,0.33667 -0.134075,0.7462 -0.297944,0.91007 -0.189828,0.18983 -0.357847,2.26727 -0.463021,5.724982 -0.136909,4.50101 -0.09959,5.52548 0.218686,6.00395 0.340143,0.51134 0.33075,0.66929 -0.08265,1.3896 -0.459846,0.80124 -0.448522,0.88489 0.80392,5.93771 1.120122,4.519 1.345793,5.16226 1.908435,5.4399 0.350953,0.17318 0.730305,0.56902 0.843007,0.87963 0.132165,0.36426 0.06573,0.76346 -0.187137,1.12448 -0.246359,0.35172 -0.677982,0.55973 -1.161486,0.55973 z m 3.267451,-57.009842 c 1.255096,-0.0504 1.351383,-0.11926 5.51887,-3.94829 4.201203,-3.86002 4.242425,-3.90881 4.340445,-5.13768 0.06733,-0.84416 -0.463854,-3.85544 -1.662113,-9.42244 -1.300935,-6.04404 -1.893313,-8.31403 -2.267209,-8.687921 -0.495774,-0.495775 -0.631648,-0.496803 -6.634882,-0.0502 l -6.128743,0.455941 -0.75933,0.80857 c -0.64502,0.68685 -1.075484,1.96594 -2.85944,8.49657 -1.815883,6.64751 -2.071198,7.84198 -1.886503,8.82578 0.210598,1.12176 0.289994,1.19111 5.637565,4.92436 5.279837,3.68597 5.457899,3.78522 6.70134,3.73531 z m 8.785088,35.314002 c -0.794946,0 -0.933143,-0.0888 -0.926298,-0.59531 0.0072,-0.531652 0.03688,-0.545802 0.27773,-0.13229 0.148325,0.25466 0.501893,0.46302 0.785704,0.46302 0.283811,0 0.51602,-0.16695 0.51602,-0.37099 0,-0.20405 -0.365882,-0.498542 -0.813073,-0.654432 -0.633905,-0.22098 -0.794239,-0.41617 -0.727604,-0.88578 0.06635,-0.46758 0.282625,-0.62125 0.966705,-0.68684 0.783313,-0.0751 0.874493,-0.0163 0.820555,0.52916 -0.03337,0.33752 0.02929,0.82203 0.139259,1.07669 0.109966,0.254662 0.131407,0.641622 0.04764,0.859902 -0.09559,0.2491 -0.500187,0.39687 -1.086641,0.39687 z m 0.300379,-1.852082 c 0.194027,0 0.352777,-0.17859 0.352777,-0.39688 0,-0.22048 -0.235186,-0.39687 -0.529167,-0.39687 -0.291042,0 -0.529167,0.0992 -0.529167,0.22048 0,0.12127 0.07938,0.29987 0.17639,0.39688 0.09701,0.097 0.335137,0.17639 0.529167,0.17639 z m 2.645833,1.852082 c -0.33955,0 -0.696738,-0.0794 -0.79375,-0.17639 -0.09702,-0.097 -0.17639,-0.69232 -0.17639,-1.322912 0,-0.73655 -0.118266,-1.14941 -0.330729,-1.15458 -0.183547,-0.004 -0.124674,-0.12806 0.132292,-0.27773 0.254661,-0.14832 0.463021,-0.44236 0.463021,-0.65341 0,-0.21105 0.119062,-0.38373 0.264583,-0.38373 0.145521,0 0.264583,0.2294 0.264583,0.50977 0,0.28037 0.20836,0.56422 0.463021,0.63076 0.440973,0.11524 0.440973,0.12247 0,0.1517 -0.367829,0.0244 -0.463021,0.27547 -0.463021,1.22131 0,0.654852 0.110781,1.190632 0.246182,1.190632 0.1354,0 0.297778,-0.26789 0.360844,-0.59531 0.09831,-0.510422 0.119801,-0.491562 0.150693,0.13229 0.02952,0.59615 -0.0755,0.7276 -0.581329,0.7276 z m 2.924909,0 c -0.483339,0 -1.021673,-0.14287 -1.196298,-0.3175 -0.174625,-0.17462 -0.3175,-0.69583 -0.3175,-1.158232 0,-0.4624 0.170815,-0.98249 0.379592,-1.15576 0.208775,-0.17327 0.772171,-0.27714 1.251993,-0.23083 0.673301,0.065 0.929582,0.24782 1.122944,0.80114 0.169477,0.48497 0.151456,0.93441 -0.0557,1.389062 -0.238474,0.5234 -0.500692,0.67212 -1.185034,0.67212 z m -0.125918,-0.31217 c 0.505404,-0.0718 0.596495,-0.24632 0.596495,-1.143042 0,-0.9525 -0.06615,-1.05833 -0.661458,-1.05833 -0.529784,0 -0.678554,0.14929 -0.747335,0.74995 -0.04723,0.41248 -0.01799,0.926842 0.06496,1.143042 0.08751,0.22806 0.40126,0.35752 0.747335,0.30838 z m 2.448578,0.3126 c -0.465489,-2.6e-4 -0.529166,-0.17696 -0.529166,-1.467432 v -1.467 l 1.190625,0.0779 1.190625,0.0779 0.08438,1.18628 c 0.04641,0.652452 0.225001,1.275702 0.396875,1.385012 0.171873,0.1093 -0.104222,0.19115 -0.613545,0.18189 -0.509323,-0.009 -0.777214,-0.0769 -0.595313,-0.15029 0.195662,-0.079 0.330729,-0.61861 0.330729,-1.321432 0,-0.9897 -0.07728,-1.17278 -0.46302,-1.09692 -0.362892,0.0713 -0.463021,0.36172 -0.463021,1.34274 0,1.075452 -0.07451,1.251642 -0.529167,1.251272 z m 4.47624,-0.0547 c -0.426072,0.0429 -0.92292,-0.0702 -1.104104,-0.25135 -0.181184,-0.18118 -0.329427,-0.70776 -0.329427,-1.170162 0,-0.4624 0.171394,-0.98297 0.380875,-1.15682 0.209482,-0.17386 0.715497,-0.27773 1.12448,-0.23084 0.588533,0.0675 0.761063,0.237 0.827323,0.81287 0.07789,0.6769 0.01598,0.72761 -0.888204,0.72761 -0.777563,0 -0.939808,0.0837 -0.811324,0.418512 0.08833,0.23018 0.1606,0.46831 0.1606,0.52917 0,0.0609 0.287734,0.11065 0.63941,0.11065 0.351674,0 0.699932,-0.12204 0.773907,-0.2712 0.07397,-0.14916 0.104489,-0.11939 0.06782,0.0661 -0.03667,0.18554 -0.415282,0.37247 -0.841354,0.41541 z m -0.242906,-1.797862 c 0.446852,0 0.665133,-0.12127 0.595312,-0.33073 -0.06063,-0.1819 -0.328525,-0.33073 -0.595312,-0.33073 -0.266788,0 -0.534678,0.14883 -0.595313,0.33073 -0.06982,0.20946 0.148461,0.33073 0.595313,0.33073 z m 2.410706,1.852082 c -0.524629,0 -0.558623,-0.13686 -0.558623,-2.248962 0,-1.96547 0.05836,-2.24895 0.463021,-2.24895 0.380712,0 0.463021,0.24092 0.463021,1.35531 0,1.17027 0.05379,1.31067 0.393962,1.02835 0.216678,-0.17983 0.328715,-0.43253 0.248967,-0.56156 -0.07975,-0.12903 0.189455,-0.23401 0.598226,-0.23329 l 0.74322,10e-4 -0.737529,0.594 -0.737526,0.594 0.788757,0.859902 0.78876,0.85989 H 96.47293 c -0.372774,-1e-5 -0.646544,-0.15434 -0.646544,-0.36449 0,-0.20046 -0.197787,-0.52788 -0.439526,-0.727602 -0.394584,-0.326 -0.425389,-0.28873 -0.301273,0.364482 0.115461,0.60766 0.04616,0.7276 -0.42037,0.7276 z m -80.69792,-8.202032 c -0.521889,0 -0.558622,-0.13919 -0.558622,-2.11667 v -2.11666 h 1.118379 c 0.900104,0 1.202722,0.12872 1.550522,0.65953 0.255383,0.38976 0.368695,0.91232 0.277026,1.27755 -0.08531,0.33992 -0.464548,0.75902 -0.842743,0.93133 -0.378196,0.17232 -0.815033,0.23457 -0.970747,0.13833 -0.184841,-0.11424 -0.236617,0.0683 -0.149156,0.52581 0.110685,0.57901 0.03689,0.70078 -0.424659,0.70078 z m 0.946516,-1.63312 c 0.522615,-0.0741 0.611528,-0.24055 0.611528,-1.14501 0,-0.88194 -0.08819,-1.05833 -0.529166,-1.05833 -0.434961,0 -0.54383,0.20384 -0.611529,1.14501 -0.07654,1.06406 -0.03913,1.13888 0.529167,1.05833 z m -7.5905545,0.31063 c -0.46549,-2.6e-4 -0.529167,-0.17696 -0.529167,-1.46743 v -1.467 l 1.190625,0.0779 1.190625,0.0779 0.08438,1.18628 c 0.04641,0.65245 0.225002,1.2757 0.396875,1.38501 0.171873,0.1093 -0.104222,0.19115 -0.613545,0.18189 -0.509323,-0.009 -0.777214,-0.0769 -0.595313,-0.15029 0.195663,-0.0789 0.330729,-0.61861 0.330729,-1.32143 0,-0.9897 -0.07728,-1.17278 -0.463021,-1.09692 -0.362893,0.0713 -0.46302,0.36172 -0.46302,1.34274 0,1.07545 -0.07451,1.25164 -0.529167,1.25127 z m 4.4762385,-0.0547 c -0.426072,0.0429 -0.922918,-0.0702 -1.104103,-0.25135 -0.181185,-0.18118 -0.329428,-0.70776 -0.329428,-1.17016 0,-0.4624 0.171394,-0.98297 0.380875,-1.15682 0.209482,-0.17386 0.715498,-0.27773 1.12448,-0.23084 0.588533,0.0675 0.761062,0.237 0.827324,0.81287 0.07788,0.6769 0.01598,0.72761 -0.888203,0.72761 -0.777565,0 -0.939808,0.0837 -0.811325,0.41851 0.08833,0.23018 0.160599,0.46831 0.160599,0.52917 0,0.0609 0.287735,0.11065 0.63941,0.11065 0.351675,0 0.699933,-0.12204 0.773906,-0.2712 0.07397,-0.14916 0.104492,-0.11939 0.06782,0.0662 -0.03667,0.18554 -0.415282,0.37247 -0.841354,0.41541 z m -0.242906,-1.79786 c 0.446852,0 0.665133,-0.12127 0.595313,-0.33073 -0.06063,-0.1819 -0.328525,-0.33073 -0.595313,-0.33073 -0.266788,0 -0.534678,0.14883 -0.595312,0.33073 -0.06982,0.20946 0.14846,0.33073 0.595312,0.33073 z m 6.879167,1.81603 c -1.373944,0.0317 -1.455208,-0.002 -1.455208,-0.60953 0,-0.49478 0.213559,-0.72031 0.926041,-0.97794 0.509323,-0.18418 0.926042,-0.43375 0.926042,-0.5546 0,-0.12086 -0.201219,-0.29695 -0.447154,-0.39132 -0.24965,-0.0958 -0.493116,-0.0337 -0.551215,0.14059 -0.05723,0.1717 -0.213202,0.31219 -0.346596,0.31219 -0.133394,0 -0.242535,-0.18578 -0.242535,-0.41285 0,-0.31528 0.234488,-0.39344 0.992188,-0.33073 0.989143,0.0819 0.992441,0.0861 1.075063,1.39358 0.05843,0.9246 0.154794,1.19777 0.326678,0.92604 0.20711,-0.32741 0.244411,-0.32097 0.247853,0.0428 0.0032,0.33914 -0.298664,0.4352 -1.451157,0.46177 z m -0.173768,-0.28273 c 0.241093,-0.0459 0.476321,-0.34958 0.522728,-0.6748 0.06776,-0.47486 -0.01039,-0.55628 -0.396875,-0.41347 -0.264688,0.0978 -0.562692,0.29989 -0.662231,0.44908 -0.09954,0.14919 -0.118203,0.37282 -0.04148,0.49697 0.07673,0.12415 0.336761,0.18814 0.577855,0.14222 z m 2.819602,0.29789 c -0.786274,0.0207 -0.79375,0.007 -0.79375,-1.40404 v -1.42493 l 0.992187,-0.0137 c 0.692677,-0.01 0.992188,0.1011 0.992188,0.36659 0,0.20918 -0.119063,0.38031 -0.264584,0.38031 -0.145521,0 -0.264583,-0.12609 -0.264583,-0.2802 0,-0.15411 -0.119063,-0.20662 -0.264583,-0.11668 -0.145521,0.0899 -0.264584,0.62282 -0.264584,1.18419 0,0.56897 0.146364,1.07973 0.330729,1.15412 0.181901,0.0734 -0.02646,0.14286 -0.46302,0.15434 z m 3.233589,0.0209 c -0.483339,0 -1.021673,-0.14287 -1.196298,-0.3175 -0.174625,-0.17462 -0.3175,-0.69583 -0.3175,-1.15823 0,-0.4624 0.170816,-0.98249 0.379592,-1.15576 0.208775,-0.17327 0.772172,-0.27714 1.251993,-0.23083 0.6733,0.065 0.929582,0.24782 1.122944,0.80114 0.169477,0.48497 0.151456,0.93441 -0.0557,1.38906 -0.238476,0.5234 -0.500692,0.67212 -1.185035,0.67212 z m -0.125918,-0.31217 c 0.505405,-0.0718 0.596495,-0.24632 0.596495,-1.14304 0,-0.9525 -0.06614,-1.05833 -0.661458,-1.05833 -0.529783,0 -0.678554,0.14929 -0.747335,0.74995 -0.04723,0.41248 -0.018,0.92684 0.06496,1.14304 0.08751,0.22806 0.401261,0.35752 0.747335,0.30838 z m 3.185586,0.30765 c -0.114312,-0.002 -0.460309,-0.65733 -0.768882,-1.45521 l -0.561042,-1.45068 0.561042,5.2e-4 c 0.441471,5.3e-4 0.567115,0.17102 0.589541,0.80021 0.01567,0.43978 0.111446,0.88254 0.212824,0.98392 0.101378,0.10137 0.299731,0.009 0.440786,-0.20489 0.141052,-0.21407 0.210621,-0.6571 0.154593,-0.98453 -0.07669,-0.44819 0.02529,-0.59531 0.412663,-0.59531 0.282987,0 0.469672,0.0893 0.41485,0.19844 -0.05482,0.10914 -0.358166,0.76398 -0.674102,1.45521 -0.315939,0.69122 -0.667962,1.25473 -0.782273,1.25225 z m 3.496326,-0.0315 c -1.373944,0.0317 -1.455208,-0.002 -1.455208,-0.60953 0,-0.49478 0.213558,-0.72031 0.926042,-0.97794 0.509322,-0.18418 0.926041,-0.43375 0.926041,-0.5546 0,-0.12086 -0.201218,-0.29695 -0.447154,-0.39132 -0.24965,-0.0958 -0.493117,-0.0337 -0.551214,0.14059 -0.05723,0.1717 -0.213204,0.31219 -0.346596,0.31219 -0.133395,0 -0.242536,-0.18578 -0.242536,-0.41285 0,-0.31528 0.234487,-0.39344 0.992188,-0.33073 0.989145,0.0819 0.992441,0.0861 1.075063,1.39358 0.05843,0.9246 0.154794,1.19777 0.326678,0.92604 0.207111,-0.32741 0.244412,-0.32097 0.247854,0.0428 0.0032,0.33914 -0.298665,0.4352 -1.451158,0.46177 z m -0.173768,-0.28273 c 0.241094,-0.0459 0.476322,-0.34958 0.522727,-0.6748 0.06776,-0.47486 -0.0104,-0.55628 -0.396875,-0.41347 -0.264686,0.0978 -0.562692,0.29989 -0.662231,0.44908 -0.09954,0.14919 -0.118202,0.37282 -0.04148,0.49697 0.07673,0.12415 0.336762,0.18814 0.577855,0.14222 z m 3.327091,0.26456 c -0.426072,0.0429 -0.92292,-0.0702 -1.104104,-0.25135 -0.181184,-0.18118 -0.329427,-0.69852 -0.329427,-1.14964 0,-0.45111 0.142875,-0.96308 0.3175,-1.1377 0.174625,-0.17463 0.710406,-0.3175 1.190625,-0.3175 0.58383,0 0.873125,0.12632 0.873125,0.38125 0,0.2097 -0.119904,0.45537 -0.266451,0.54594 -0.14655,0.0906 -0.337881,-0.0214 -0.425183,-0.24897 -0.0873,-0.2275 -0.311679,-0.41364 -0.498615,-0.41364 -0.186936,0 -0.408022,0.27148 -0.4913,0.60329 -0.08328,0.33181 -0.0823,0.86759 0.0021,1.19062 0.102502,0.39197 0.356018,0.58734 0.762143,0.58734 0.334703,0 0.669073,-0.12204 0.743048,-0.2712 0.07397,-0.14916 0.104489,-0.11939 0.06782,0.0662 -0.03667,0.18554 -0.415282,0.37247 -0.841354,0.41541 z m 2.402927,0.0546 c -0.464981,-2.6e-4 -0.529166,-0.17687 -0.529166,-1.45557 0,-1.17856 0.08337,-1.4552 0.438533,-1.4552 0.344197,0 0.458031,0.31311 0.529167,1.45556 0.08154,1.30949 0.03753,1.45554 -0.438534,1.45521 z m -18.167208,-3.43994 c -0.1242,0 -0.07711,-0.23813 0.104652,-0.52917 0.181759,-0.29104 0.498877,-0.52916 0.704708,-0.52916 0.28771,0 0.263514,0.12234 -0.104652,0.52916 -0.263389,0.29104 -0.580508,0.52917 -0.704708,0.52917 z m 17.991668,0 c -0.124201,0 -0.07711,-0.23813 0.104651,-0.52917 0.181758,-0.29104 0.498877,-0.52916 0.704707,-0.52916 0.28771,0 0.263514,0.12234 -0.104651,0.52916 -0.26339,0.29104 -0.580506,0.52917 -0.704707,0.52917 z m -13.847377,-3.56042 c -5.966354,-7e-5 -8.369397,-0.0349 -5.340094,-0.0774 3.029302,-0.0425 7.910865,-0.0424 10.847918,1.2e-4 2.937049,0.0426 0.458531,0.0773 -5.507824,0.0772 z m -10.818461,-7.55209 c -0.521889,0 -0.558622,-0.13919 -0.558622,-2.11667 v -2.11666 h 1.118379 c 0.900104,0 1.202722,0.12872 1.550521,0.65953 0.255384,0.38976 0.368696,0.91232 0.277027,1.27755 -0.08531,0.33992 -0.464548,0.75902 -0.842744,0.93133 -0.378196,0.17232 -0.815032,0.23457 -0.970747,0.13833 -0.18484,-0.11424 -0.236616,0.0683 -0.149155,0.52581 0.110685,0.57901 0.03689,0.70078 -0.424659,0.70078 z m 0.946516,-1.63312 c 0.522615,-0.0741 0.611528,-0.24055 0.611528,-1.14501 0,-0.88194 -0.08819,-1.05833 -0.529166,-1.05833 -0.434961,0 -0.54383,0.20384 -0.611529,1.14501 -0.07654,1.06406 -0.03913,1.13888 0.529167,1.05833 z m 3.257362,0.27415 c -1.373944,0.0317 -1.455209,-0.002 -1.455209,-0.60953 0,-0.49478 0.213559,-0.72031 0.926042,-0.97794 0.509323,-0.18418 0.926042,-0.43375 0.926042,-0.5546 0,-0.12086 -0.201219,-0.29695 -0.447154,-0.39132 -0.24965,-0.0958 -0.493117,-0.0337 -0.551215,0.14059 -0.05723,0.1717 -0.213203,0.31219 -0.346596,0.31219 -0.133395,0 -0.242535,-0.18578 -0.242535,-0.41285 0,-0.31528 0.234487,-0.39344 0.992187,-0.33073 0.989144,0.0819 0.992442,0.0861 1.075064,1.39358 0.05843,0.9246 0.154794,1.19777 0.326678,0.92604 0.207109,-0.32741 0.244411,-0.32097 0.247853,0.0428 0.0032,0.33914 -0.298664,0.4352 -1.451157,0.46177 z m -0.173769,-0.28273 c 0.241094,-0.0459 0.476321,-0.34958 0.522729,-0.6748 0.06776,-0.47486 -0.01039,-0.55628 -0.396875,-0.41347 -0.264689,0.0978 -0.562693,0.29989 -0.662231,0.44908 -0.09954,0.14919 -0.118204,0.37282 -0.04148,0.49697 0.07673,0.12415 0.336761,0.18814 0.577854,0.14222 z m 3.084186,0.29789 c -0.786274,0.0207 -0.793751,0.007 -0.793751,-1.40404 v -1.42493 l 0.992188,-0.0137 c 0.692677,-0.01 0.992188,0.1011 0.992188,0.36659 0,0.20918 -0.119063,0.38031 -0.264584,0.38031 -0.145521,0 -0.264583,-0.12609 -0.264583,-0.2802 0,-0.15411 -0.119063,-0.20662 -0.264583,-0.11668 -0.145521,0.0899 -0.264584,0.62282 -0.264584,1.18419 0,0.56897 0.146364,1.07973 0.330729,1.15412 0.181901,0.0734 -0.02646,0.14286 -0.46302,0.15434 z m 3.233589,0.0209 c -0.483339,0 -1.021673,-0.14287 -1.196298,-0.3175 -0.174625,-0.17462 -0.3175,-0.69583 -0.3175,-1.15823 0,-0.4624 0.170816,-0.98249 0.379592,-1.15576 0.208775,-0.17327 0.772172,-0.27714 1.251993,-0.23083 0.6733,0.065 0.929582,0.24782 1.122944,0.80114 0.169477,0.48497 0.151456,0.93441 -0.0557,1.38906 -0.238476,0.5234 -0.500692,0.67212 -1.185035,0.67212 z m -0.125918,-0.31217 c 0.505405,-0.0718 0.596495,-0.24632 0.596495,-1.14304 0,-0.9525 -0.06615,-1.05833 -0.661458,-1.05833 -0.529783,0 -0.678554,0.14929 -0.747335,0.74995 -0.04723,0.41248 -0.018,0.92684 0.06496,1.14304 0.08751,0.22806 0.401261,0.35752 0.747335,0.30838 z m 3.185585,0.30765 c -0.114312,-0.002 -0.460309,-0.65733 -0.768881,-1.45521 l -0.561043,-1.45068 0.561043,5.2e-4 c 0.441471,5.3e-4 0.567115,0.17102 0.589541,0.80021 0.01567,0.43978 0.111445,0.88254 0.212823,0.98392 0.101379,0.10138 0.299732,0.009 0.440785,-0.20489 0.141054,-0.21407 0.210622,-0.6571 0.154596,-0.98453 -0.07669,-0.44819 0.02529,-0.59531 0.41266,-0.59531 0.282989,0 0.469673,0.0893 0.414853,0.19844 -0.05482,0.10914 -0.358166,0.76398 -0.674104,1.45521 -0.315938,0.69122 -0.66796,1.25473 -0.782273,1.25225 z m 3.496327,-0.0315 c -1.373944,0.0317 -1.455208,-0.002 -1.455208,-0.60953 0,-0.49478 0.213559,-0.72031 0.926041,-0.97794 0.509323,-0.18418 0.926042,-0.43375 0.926042,-0.5546 0,-0.12086 -0.201218,-0.29695 -0.447154,-0.39132 -0.24965,-0.0958 -0.493117,-0.0337 -0.551214,0.14059 -0.05724,0.1717 -0.213204,0.31219 -0.346596,0.31219 -0.133395,0 -0.242536,-0.18578 -0.242536,-0.41285 0,-0.31528 0.234487,-0.39344 0.992188,-0.33073 0.989144,0.0819 0.992441,0.0861 1.075063,1.39358 0.05843,0.9246 0.154794,1.19777 0.326678,0.92604 0.207111,-0.32741 0.244412,-0.32097 0.247854,0.0428 0.0032,0.33914 -0.298665,0.4352 -1.451158,0.46177 z m -0.173768,-0.28273 c 0.241094,-0.0459 0.476322,-0.34958 0.522727,-0.6748 0.06776,-0.47486 -0.0104,-0.55628 -0.396875,-0.41347 -0.264686,0.0978 -0.562692,0.29989 -0.662231,0.44908 -0.09954,0.14919 -0.118202,0.37282 -0.04148,0.49697 0.07673,0.12415 0.336762,0.18814 0.577855,0.14222 z m 3.327091,0.26456 c -0.426072,0.0429 -0.92292,-0.0702 -1.104104,-0.25135 -0.181184,-0.18118 -0.329427,-0.69852 -0.329427,-1.14964 0,-0.45111 0.142875,-0.96308 0.3175,-1.1377 0.174625,-0.17463 0.710406,-0.3175 1.190625,-0.3175 0.583829,0 0.873125,0.12632 0.873125,0.38126 0,0.20969 -0.119904,0.45536 -0.266451,0.54593 -0.14655,0.0906 -0.337881,-0.0214 -0.425183,-0.24897 -0.0873,-0.2275 -0.311679,-0.41364 -0.498615,-0.41364 -0.186936,0 -0.408022,0.27148 -0.4913,0.60329 -0.08328,0.33181 -0.0823,0.86759 0.0021,1.19062 0.102502,0.39197 0.356018,0.58734 0.762143,0.58734 0.334703,0 0.669073,-0.12204 0.743048,-0.2712 0.07397,-0.14916 0.104489,-0.11939 0.06782,0.0662 -0.03667,0.18554 -0.415283,0.37247 -0.841354,0.41541 z m 2.402927,0.0546 c -0.464981,-2.6e-4 -0.529166,-0.17687 -0.529166,-1.45557 0,-1.17856 0.08337,-1.4552 0.438533,-1.4552 0.344197,0 0.458031,0.31311 0.529167,1.45556 0.08154,1.30949 0.03753,1.45554 -0.438534,1.45521 z m -18.431791,-3.43994 c -0.1242,0 -0.07711,-0.23813 0.104652,-0.52917 0.181758,-0.29104 0.498877,-0.52916 0.704707,-0.52916 0.287711,0 0.263514,0.12234 -0.104652,0.52916 -0.263389,0.29104 -0.580507,0.52917 -0.704707,0.52917 z m 18.256251,0 c -0.124201,0 -0.07711,-0.23813 0.10465,-0.52917 0.181759,-0.29104 0.498878,-0.52916 0.704708,-0.52916 0.28771,0 0.263514,0.12234 -0.104651,0.52916 -0.26339,0.29104 -0.580506,0.52917 -0.704707,0.52917 z m 44.49325,-0.83553 c -0.509323,0 -0.777214,-0.06 -0.595313,-0.13345 0.195443,-0.0789 0.33073,-0.61785 0.33073,-1.31764 0,-0.72209 -0.103249,-1.12038 -0.264584,-1.02067 -0.145521,0.0899 -0.264583,0.0374 -0.264583,-0.11668 0,-0.15411 0.238125,-0.2802 0.529167,-0.2802 0.457414,0 0.529166,0.17639 0.529166,1.30087 0,0.79313 0.129085,1.35296 0.330729,1.43432 0.181901,0.0734 -0.08599,0.13345 -0.595312,0.13345 z m -3.066016,-0.75197 c -0.360116,0 -0.72272,-0.17711 -0.805783,-0.39357 -0.08306,-0.21646 -0.01979,-0.77 0.140594,-1.2301 0.160393,-0.4601 0.287835,-0.90808 0.283208,-0.9955 -0.0046,-0.0874 -0.193921,0.0792 -0.420648,0.37021 l -0.412232,0.52917 0.09262,-0.52917 c 0.05474,-0.31277 0.339764,-0.56437 0.696989,-0.61525 0.580498,-0.0827 0.597331,-0.0331 0.42623,1.25677 -0.145788,1.09901 -0.105709,1.34286 0.220726,1.34286 0.219374,0 0.543179,-0.34842 0.719564,-0.77425 0.176387,-0.42584 0.24234,-1.02115 0.146563,-1.32292 -0.101962,-0.32124 -0.05708,-0.54867 0.10827,-0.54867 0.155329,0 0.282414,0.39023 0.282414,0.86717 0,0.47695 -0.185346,1.13179 -0.411877,1.45521 -0.236948,0.33829 -0.689965,0.58804 -1.066638,0.58804 z M 22.669092,69.295358 H 11.918318 l 0.08372,-0.7276 0.08372,-0.72761 h 10.583334 10.583333 l 0.08372,0.72761 0.08372,0.7276 z m 69.350291,-16.66875 c -0.524629,0 -0.558622,-0.13686 -0.558622,-2.24896 0,-1.96547 0.05836,-2.24895 0.463021,-2.24895 0.380711,0 0.46302,0.24092 0.46302,1.35531 0,1.17027 0.05379,1.31067 0.393962,1.02835 0.216678,-0.17982 0.328716,-0.43253 0.248968,-0.56156 -0.07975,-0.12903 0.189455,-0.23401 0.598226,-0.23329 l 0.74322,10e-4 -0.737529,0.594 -0.737526,0.594 0.788757,0.8599 0.78876,0.85989 h -0.646544 c -0.372774,-10e-6 -0.646544,-0.15434 -0.646544,-0.36449 0,-0.20046 -0.197786,-0.52788 -0.439525,-0.7276 -0.394584,-0.326 -0.42539,-0.28873 -0.301273,0.36448 0.115461,0.60766 0.04616,0.7276 -0.420371,0.7276 z m 4.411719,-0.005 c -0.114314,-0.002 -0.460309,-0.65733 -0.768882,-1.4552 l -0.561044,-1.45069 0.561044,6e-4 c 0.44147,4.8e-4 0.567116,0.17102 0.589539,0.80021 0.01569,0.43977 0.111448,0.88254 0.212826,0.98392 0.101377,0.10138 0.29973,0.009 0.440785,-0.20489 0.141052,-0.21407 0.210622,-0.6571 0.154593,-0.98453 -0.07669,-0.44819 0.02529,-0.59531 0.412663,-0.59531 0.282988,0 0.469673,0.0893 0.414851,0.19844 -0.05482,0.10914 -0.358167,0.76398 -0.674103,1.45521 -0.315939,0.69122 -0.667962,1.25473 -0.782272,1.25225 z m 3.474648,-0.0497 c -0.426071,0.0429 -0.922919,-0.0702 -1.104103,-0.25135 -0.181184,-0.18119 -0.329428,-0.70776 -0.329428,-1.17016 0,-0.4624 0.171395,-0.98297 0.380876,-1.15682 0.209481,-0.17386 0.715497,-0.27773 1.124479,-0.23084 0.588536,0.0675 0.761066,0.237 0.827326,0.81287 0.0779,0.6769 0.016,0.72761 -0.888206,0.72761 -0.777563,0 -0.939808,0.0837 -0.811324,0.41851 0.08833,0.23018 0.160599,0.46831 0.160599,0.52917 0,0.0609 0.287735,0.11065 0.639411,0.11065 0.35167,0 0.69993,-0.12204 0.77391,-0.2712 0.074,-0.14916 0.10449,-0.11939 0.0678,0.0661 -0.0367,0.18554 -0.41528,0.37247 -0.84135,0.41541 z m -0.242906,-1.79786 c 0.446856,0 0.665136,-0.12127 0.595316,-0.33073 -0.0606,-0.1819 -0.328528,-0.33073 -0.595316,-0.33073 -0.266787,0 -0.534678,0.14883 -0.595312,0.33073 -0.06982,0.20946 0.14846,0.33073 0.595312,0.33073 z m 2.954516,1.85208 c -0.33955,0 -0.69674,-0.0794 -0.79375,-0.17639 -0.097,-0.097 -0.17639,-0.69232 -0.17639,-1.32291 0,-0.73655 -0.11827,-1.14941 -0.33073,-1.15458 -0.18355,-0.004 -0.12467,-0.12806 0.13229,-0.27773 0.25466,-0.14832 0.46302,-0.44236 0.46302,-0.65341 0,-0.21105 0.11907,-0.38373 0.26459,-0.38373 0.14552,0 0.26458,0.2294 0.26458,0.50977 0,0.28037 0.20836,0.56422 0.46302,0.63077 0.44097,0.11523 0.44097,0.12246 0,0.15169 -0.36783,0.0244 -0.46302,0.27547 -0.46302,1.22131 0,0.65485 0.11078,1.19063 0.24618,1.19063 0.1354,0 0.29778,-0.26789 0.36085,-0.59531 0.0983,-0.51042 0.1198,-0.49156 0.15069,0.13229 0.0295,0.59616 -0.0755,0.7276 -0.58133,0.7276 z m -3.208341,-3.43958 c -0.04304,0 -0.201771,-0.14883 -0.352737,-0.33073 -0.208907,-0.25172 -0.09023,-0.33073 0.496771,-0.33073 0.424188,0 0.771247,0.0766 0.771247,0.17013 0,0.0936 -0.18833,0.2424 -0.418513,0.33073 -0.230182,0.0883 -0.453728,0.1606 -0.496768,0.1606 z"
       id="path909" />
  </g>
</svg>
