<?xml version="1.0" encoding="UTF-8" standalone="no"?>
<svg
   xmlns:dc="http://purl.org/dc/elements/1.1/"
   xmlns:cc="http://creativecommons.org/ns#"
   xmlns:rdf="http://www.w3.org/1999/02/22-rdf-syntax-ns#"
   xmlns:svg="http://www.w3.org/2000/svg"
   xmlns="http://www.w3.org/2000/svg"
   xmlns:sodipodi="http://sodipodi.sourceforge.net/DTD/sodipodi-0.dtd"
   xmlns:inkscape="http://www.inkscape.org/namespaces/inkscape"
   width="102.22556mm"
   height="63.619385mm"
   viewBox="0 0 102.22556 63.619385"
   version="1.1"
   id="svg8"
   inkscape:version="1.0.2 (e86c870879, 2021-01-15)"
   sodipodi:docname="les.svg">
  <defs
     id="defs2" />
  <sodipodi:namedview
     id="base"
     pagecolor="#ffffff"
     bordercolor="#666666"
     borderopacity="1.0"
     inkscape:pageopacity="0.0"
     inkscape:pageshadow="2"
     inkscape:zoom="0.095766561"
     inkscape:cx="1011.8497"
     inkscape:cy="943.60484"
     inkscape:document-units="mm"
     inkscape:current-layer="layer1"
     inkscape:document-rotation="0"
     showgrid="false"
     inkscape:window-width="954"
     inkscape:window-height="1049"
     inkscape:window-x="2880"
     inkscape:window-y="0"
     inkscape:window-maximized="1" />
  <metadata
     id="metadata5">
    <rdf:RDF>
      <cc:Work
         rdf:about="">
        <dc:format>image/svg+xml</dc:format>
        <dc:type
           rdf:resource="http://purl.org/dc/dcmitype/StillImage" />
        <dc:title></dc:title>
      </cc:Work>
    </rdf:RDF>
  </metadata>
  <g
     inkscape:label="Layer 1"
     inkscape:groupmode="layer"
     id="layer1"
     transform="translate(-31.627626,-14.815722)">
    <path
       style="fill:#000000;stroke-width:0.264583"
       d="m 51.245964,78.382362 c -0.293769,0.0768 -0.779954,-0.0325 -1.08041,-0.24295 -0.300455,-0.21045 -0.546283,-0.66651 -0.546283,-1.01348 0,-0.34696 0.119063,-0.70442 0.264583,-0.79436 0.163772,-0.10121 0.264584,-2.44388 0.264584,-6.14839 0,-3.95652 -0.10651,-6.27942 -0.314268,-6.85396 -0.271232,-0.75008 -0.247501,-0.94287 0.173299,-1.40785 0.268161,-0.29632 0.619969,-0.53876 0.781793,-0.53876 0.161825,0 1.168611,-2.63228 2.237305,-5.84952 1.72447,-5.19142 1.905114,-5.92046 1.60564,-6.48003 -0.261659,-0.48892 -0.268253,-0.78235 -0.02935,-1.30668 0.206341,-0.45286 0.308084,-2.72027 0.308084,-6.86581 0,-3.84103 -0.100394,-6.25169 -0.264583,-6.35317 -0.145521,-0.0899 -0.264584,-0.37616 -0.264584,-0.63606 0,-0.2599 0.233691,-0.68403 0.519311,-0.94252 0.285623,-0.25848 0.689105,-0.40481 0.896628,-0.32518 0.263681,0.10118 1.609633,-1.70414 4.469207,-5.99455 3.302265,-4.9546 4.052107,-6.2469 3.885705,-6.69672 -0.133008,-0.35956 -0.06705,-0.75605 0.185857,-1.11711 0.215627,-0.30785 0.668374,-0.55973 1.006107,-0.55973 0.337733,0 0.762524,0.17889 0.943981,0.39753 0.197374,0.23782 0.265424,0.72002 0.169383,1.20022 -0.14193,0.70965 0.306631,1.50218 3.869661,6.83702 2.255859,3.37764 4.169352,5.98679 4.346263,5.92636 0.173834,-0.0594 0.560787,0.023 0.859896,0.1831 0.35718,0.19116 0.543835,0.55493 0.543835,1.05988 0,0.42286 -0.119062,0.84241 -0.264583,0.93235 -0.164182,0.10147 -0.264583,2.51108 -0.264583,6.35 0,3.83891 0.100401,6.24853 0.264583,6.35 0.145521,0.0899 0.264583,0.43034 0.264583,0.75645 0,0.32611 -0.142875,0.7358 -0.3175,0.91042 -0.174625,0.17463 -0.567531,0.3175 -0.873125,0.3175 -0.305594,0 -0.6985,-0.14287 -0.873125,-0.3175 -0.174625,-0.17462 -0.3175,-0.58431 -0.3175,-0.91042 0,-0.32611 0.119063,-0.66651 0.264583,-0.75645 0.164182,-0.10147 0.264584,-2.51109 0.264584,-6.35 0,-4.24834 -0.09202,-6.24336 -0.293743,-6.36802 -0.173924,-0.10749 -0.233297,-0.55404 -0.145555,-1.09472 0.135559,-0.83537 -0.19449,-1.42933 -3.873445,-6.97065 -2.211898,-3.33161 -4.110929,-6.0607 -4.22007,-6.06465 -0.109141,-0.004 -0.198437,2.6343 -0.198437,5.86276 0,5.67838 0.01894,5.89008 0.580363,6.48769 0.517766,0.55114 0.546304,0.71196 0.264583,1.49105 -0.209608,0.57966 -0.31578,2.88553 -0.31578,6.85815 0,3.70451 0.100812,6.04717 0.264584,6.14839 0.14552,0.0899 0.264583,0.43034 0.264583,0.75645 0,0.32611 -0.142875,0.7358 -0.3175,0.91042 -0.174625,0.17463 -0.646687,0.3175 -1.049025,0.3175 -0.468644,0 -0.836706,-0.19653 -1.024221,-0.54691 -0.227224,-0.42457 -0.199715,-0.68881 0.122984,-1.18131 0.346834,-0.52934 0.415679,-1.62346 0.415679,-6.60615 0,-4.90217 -0.07216,-6.08187 -0.402879,-6.58661 -0.22158,-0.33818 -0.326636,-0.81355 -0.233455,-1.05638 0.09318,-0.24283 0.393541,-0.56145 0.667462,-0.70805 0.464973,-0.24884 0.498038,-0.66116 0.498038,-6.21035 0,-3.2691 -0.09995,-5.94382 -0.22211,-5.94382 -0.122158,0 -2.073208,2.77733 -4.335666,6.17184 -3.284429,4.92784 -4.062013,6.26394 -3.857823,6.62881 0.18085,0.32316 0.133342,0.64376 -0.162251,1.09489 -0.348858,0.53243 -0.417983,1.59855 -0.417983,6.44663 0,4.98388 0.06389,5.92001 0.449908,6.59262 0.409056,0.71273 0.412665,0.84001 0.03976,1.40164 -0.386135,0.58155 -0.29615,0.95906 1.536809,6.44741 1.766948,5.29071 2.020128,5.87137 2.738363,6.28042 0.462177,0.26321 0.791409,0.66947 0.791409,0.97657 0,0.28922 -0.119063,0.59944 -0.264584,0.68938 -0.164044,0.10138 -0.264583,2.48798 -0.264583,6.28068 0,4.19453 0.102846,6.40158 0.327216,7.02207 0.298764,0.82621 0.275841,0.9465 -0.263615,1.38333 -0.339244,0.2747 -0.820148,0.41846 -1.129348,0.3376 -0.29618,-0.0774 -0.666051,-0.37914 -0.821936,-0.67041 -0.202594,-0.37855 -0.200205,-0.71223 0.0084,-1.17002 0.185613,-0.4074 0.291796,-2.85158 0.291796,-6.717 0,-4.21908 -0.09568,-6.22977 -0.313023,-6.57778 -0.248672,-0.39819 -0.229926,-0.62638 0.09119,-1.11001 0.378362,-0.56985 0.27592,-0.99448 -1.60165,-6.63894 -1.103228,-3.31658 -2.086534,-6.03015 -2.185123,-6.03015 -0.09859,0 -1.074036,2.68153 -2.16766,5.95894 -1.849434,5.54245 -1.96252,6.00884 -1.618009,6.67288 0.319752,0.61633 0.317196,0.79515 -0.01871,1.3078 -0.313385,0.47828 -0.389106,1.75596 -0.389106,6.56559 0,4.66975 0.08093,6.09951 0.371194,6.55775 0.240607,0.37984 0.294915,0.78255 0.154369,1.14468 -0.119253,0.30728 -0.457185,0.62154 -0.750954,0.69836 z m 33.570305,0.008 c -0.3092,0.0809 -0.790104,-0.0629 -1.129347,-0.33761 -0.539457,-0.43682 -0.56238,-0.55711 -0.263615,-1.38333 0.224369,-0.62048 0.327215,-2.82753 0.327215,-7.02206 0,-3.7927 -0.100539,-6.1793 -0.264583,-6.28068 -0.145521,-0.0899 -0.264584,-0.39361 -0.264584,-0.67483 0,-0.28122 0.238125,-0.66002 0.529167,-0.84178 0.50342,-0.31439 0.529167,-0.61702 0.529167,-6.21995 0,-5.62345 -0.025,-5.91449 -0.553628,-6.44311 -0.407646,-0.40765 -0.497805,-0.70415 -0.341921,-1.12448 0.116438,-0.31397 0.25072,-3.41819 0.2984,-6.89827 0.05651,-4.12447 -0.0087,-6.42279 -0.187246,-6.60135 -0.150667,-0.15067 -0.273939,-0.48724 -0.273939,-0.74795 0,-0.2607 0.238125,-0.62272 0.529167,-0.80448 0.503986,-0.31474 0.529167,-0.61701 0.529167,-6.35224 0,-3.92238 -0.09422,-6.02177 -0.270256,-6.02177 -0.14864,0 -0.399016,-0.2826 -0.556387,-0.62799 -0.207701,-0.45585 -0.203594,-0.78221 0.01497,-1.19063 0.178329,-0.33319 0.559353,-0.56263 0.934371,-0.56263 0.348287,0 0.820349,0.1871 1.049023,0.41577 0.228676,0.22868 0.415774,0.53416 0.415774,0.67886 0,0.14469 -0.123251,0.49337 -0.273892,0.77485 -0.15064,0.28147 -0.448296,0.51177 -0.661458,0.51177 -0.328866,0 -0.387567,0.90026 -0.387567,5.94382 0,5.60358 0.02927,5.95947 0.511249,6.21742 0.281186,0.15049 0.590669,0.52385 0.68774,0.8297 0.09707,0.30584 0.0456,0.68697 -0.114372,0.84694 -0.194754,0.19476 -0.290867,2.32381 -0.290867,6.44321 0,3.92065 0.105849,6.38466 0.291804,6.79278 0.214286,0.47031 0.211815,0.78991 -0.0093,1.20308 -0.165608,0.30945 -0.475512,0.56263 -0.688674,0.56263 -0.328866,0 -0.387567,0.90027 -0.387567,5.94382 0,5.60358 0.02927,5.95948 0.511249,6.21743 0.281186,0.15048 0.590669,0.52384 0.68774,0.82969 0.09707,0.30584 0.0456,0.68697 -0.114372,0.84695 -0.194754,0.19475 -0.290867,2.3238 -0.290867,6.44321 0,3.92065 0.105849,6.38465 0.291804,6.79278 0.208584,0.45779 0.210973,0.79147 0.0084,1.17002 -0.155884,0.29127 -0.525756,0.59296 -0.821936,0.67041 z m 33.991541,-0.20311 c -0.33595,0.21753 -0.73309,0.2633 -1.08767,0.12536 -0.30718,-0.1195 -0.6373,-0.42261 -0.73361,-0.67357 -0.0963,-0.25097 0.006,-0.73299 0.22778,-1.07117 0.33072,-0.50474 0.40288,-1.68444 0.40288,-6.58661 0,-4.90216 -0.0722,-6.08187 -0.40288,-6.58661 -0.22158,-0.33818 -0.32621,-0.81464 -0.23252,-1.05881 0.0937,-0.24417 0.48335,-0.60649 0.8659,-0.80517 0.60534,-0.31438 0.94794,-1.12266 2.64185,-6.23276 1.422,-4.28986 1.86746,-5.95038 1.65364,-6.1642 -0.16096,-0.16096 -0.29266,-0.55947 -0.29266,-0.88558 0,-0.32611 0.11907,-0.66651 0.26459,-0.75645 0.16418,-0.10147 0.26458,-2.51109 0.26458,-6.35 0,-3.83892 -0.1004,-6.24853 -0.26458,-6.35 -0.14552,-0.0899 -0.26459,-0.50949 -0.26459,-0.93235 0,-0.49804 0.18638,-0.86857 0.52917,-1.05203 0.5048,-0.27016 0.52917,-0.55399 0.52917,-6.16337 0,-5.59363 -0.0258,-5.89627 -0.52917,-6.21064 -0.29104,-0.18176 -0.52917,-0.60331 -0.52917,-0.93677 0,-0.33347 0.14288,-0.74918 0.3175,-0.9238 0.17463,-0.17463 0.56753,-0.3175 0.87313,-0.3175 0.30559,0 0.6985,0.14287 0.87312,0.3175 0.17463,0.17462 0.3175,0.59033 0.3175,0.9238 0,0.33346 -0.23812,0.75501 -0.52916,0.93677 -0.50316,0.31423 -0.52917,0.61701 -0.52917,6.16115 0,5.50326 0.0297,5.85612 0.52917,6.28376 0.29104,0.2492 0.52916,0.74489 0.52916,1.10152 0,0.35664 -0.11906,0.72202 -0.26458,0.81196 -0.16418,0.10147 -0.26458,2.51108 -0.26458,6.35 0,3.83891 0.1004,6.24853 0.26458,6.35 0.14552,0.0899 0.26458,0.39623 0.26458,0.68066 0,0.28443 -0.13483,0.73304 -0.29962,0.99691 -0.24254,0.38838 0.0691,1.5898 1.63595,6.30669 1.79074,5.39094 1.99133,5.84797 2.68087,6.10824 0.59131,0.2232 0.7453,0.44685 0.7453,1.08244 0,0.44062 -0.11906,0.8747 -0.26458,0.96464 -0.16411,0.10143 -0.26458,2.49865 -0.26458,6.3127 0,4.06666 0.0972,6.24637 0.28698,6.43616 0.15784,0.15784 0.24714,0.55496 0.19844,0.88249 -0.0487,0.32753 -0.3322,0.75641 -0.62999,0.95306 -0.46062,0.30418 -0.62846,0.2966 -1.12448,-0.0508 -0.32379,-0.22679 -0.58304,-0.68888 -0.58304,-1.03922 0,-0.34696 0.11907,-0.70442 0.26459,-0.79436 0.16395,-0.10133 0.26458,-2.47339 0.26458,-6.23691 0,-4.30776 -0.0935,-6.2231 -0.32158,-6.58833 -0.25158,-0.40283 -0.25212,-0.70705 -0.002,-1.39743 0.29424,-0.81371 0.16803,-1.33519 -1.61946,-6.69137 -1.0663,-3.19488 -2.03753,-5.80887 -2.15838,-5.80887 -0.12085,0 -1.10669,2.66088 -2.19075,5.91306 -1.73859,5.21578 -1.93176,5.98644 -1.63809,6.53516 0.25956,0.485 0.26419,0.78803 0.021,1.37516 -0.22042,0.53212 -0.27945,2.53494 -0.2012,6.8263 0.0609,3.34028 0.1546,6.41373 0.20819,6.82991 0.0693,0.53783 -0.0556,0.85577 -0.43172,1.09931 z m -85.195831,-1.50089 c -0.582083,0 -0.909505,-0.06 -0.727604,-0.13345 0.181901,-0.0734 0.330729,-0.30213 0.330729,-0.50828 0,-0.22343 -0.267177,-0.37483 -0.661458,-0.37483 -0.363803,0 -0.658811,-0.14882 -0.655576,-0.33073 0.0032,-0.1819 0.238714,-0.62838 0.523284,-0.99218 0.28457,-0.36381 0.520047,-0.56798 0.523283,-0.45372 0.0032,0.11426 -0.186403,0.50122 -0.421421,0.8599 -0.410449,0.62642 -0.403857,0.65215 0.167129,0.65215 0.538432,0 0.581369,-0.0974 0.455762,-1.03388 -0.07856,-0.58575 -0.01339,-1.15915 0.150371,-1.32291 0.158973,-0.15897 0.384293,-0.28904 0.500709,-0.28904 0.116417,0 0.211667,0.58539 0.211667,1.30087 0,0.79313 0.129086,1.35295 0.330729,1.43432 0.264583,0.10676 0.264583,0.13762 0,0.15433 -0.181901,0.0115 -0.330729,0.18957 -0.330729,0.39572 0,0.20615 0.148828,0.43488 0.330729,0.50828 0.181901,0.0734 -0.145521,0.13345 -0.727604,0.13345 z m 1.984375,0.0418 c -0.145521,0 -0.264583,-0.11907 -0.264583,-0.26459 0,-0.14552 0.119062,-0.26458 0.264583,-0.26458 0.145521,0 0.264583,0.11906 0.264583,0.26458 0,0.14552 -0.119062,0.26459 -0.264583,0.26459 z m 3.704167,-0.0215 c -0.652118,0.02 -0.661459,-0.01 -0.661459,-2.09601 0,-1.51678 0.09369,-2.11625 0.33073,-2.11609 0.198262,1.4e-4 0.330729,0.35278 0.330729,0.88044 0,0.82752 0.04752,0.87325 0.79375,0.76372 0.782279,-0.11481 0.79375,-0.0992 0.79375,1.08211 0,0.71132 0.134456,1.25286 0.330729,1.33206 0.181901,0.0734 0.03222,0.14285 -0.332635,0.15434 -0.626299,0.0197 -0.658074,-0.0456 -0.568671,-1.16974 0.07333,-0.92197 0.0055,-1.19062 -0.300515,-1.19062 -0.217366,0 -0.467479,0.18833 -0.555809,0.41851 -0.08833,0.23018 -0.160599,0.69651 -0.160599,1.03628 0,0.33978 0.148828,0.67783 0.330729,0.75123 0.181901,0.0734 0.03307,0.14259 -0.330729,0.15377 z m 3.175,0.0215 c -0.3196,-10e-4 -0.396875,-0.41326 -0.396875,-2.11751 0,-1.44358 0.09873,-2.11625 0.310582,-2.1161 0.204632,1.5e-4 0.340019,0.72251 0.396875,2.11752 0.07109,1.74439 0.0164,2.11707 -0.310582,2.11609 z m 1.5875,-5e-5 c -0.145521,0 -0.264583,-0.11907 -0.264583,-0.26459 0,-0.14552 0.119062,-0.26458 0.264583,-0.26458 0.145521,0 0.264584,0.11906 0.264584,0.26458 0,0.14552 -0.119063,0.26459 -0.264584,0.26459 z m -11.30912,-14.02258 c -0.127274,0 -0.452103,-0.16138 -0.721842,-0.35861 -0.31024,-0.22686 -0.426719,-0.52466 -0.317022,-0.81052 0.09538,-0.24855 0.301433,-0.37279 0.457903,-0.27609 0.156469,0.0967 0.220578,0.34238 0.142464,0.54594 -0.09112,0.23747 0.03905,0.37011 0.363222,0.37011 0.277887,0 0.579491,-0.12013 0.670233,-0.26695 0.09074,-0.14682 0.08975,-0.50401 -0.0022,-0.79375 -0.09196,-0.28974 -0.367536,-0.53058 -0.612391,-0.53521 -0.408634,-0.008 -0.40717,-0.0373 0.01783,-0.3599 0.254669,-0.19332 0.463028,-0.60625 0.463028,-0.91763 0,-0.32685 -0.167748,-0.56614 -0.396875,-0.56614 -0.218281,0 -0.396875,0.17859 -0.396875,0.39687 0,0.21829 -0.178594,0.39688 -0.396875,0.39688 -0.218281,0 -0.396875,-0.0953 -0.396875,-0.21167 0,-0.11641 0.142875,-0.35454 0.3175,-0.52916 0.174625,-0.17463 0.642852,-0.3175 1.040504,-0.3175 0.496278,0 0.776934,0.16992 0.894984,0.54186 0.09459,0.29802 0.0373,0.70414 -0.12731,0.90249 -0.205855,0.24804 -0.212679,0.41415 -0.02186,0.53208 0.152588,0.0943 0.277432,0.51743 0.277432,0.94029 0,0.48933 -0.18605,0.8684 -0.511773,1.04272 -0.281475,0.15064 -0.615906,0.27389 -0.74318,0.27389 z m 2.313286,-0.26458 c -0.145521,0 -0.264583,-0.11907 -0.264583,-0.26459 0,-0.14552 0.119062,-0.26458 0.264583,-0.26458 0.145521,0 0.264584,0.11906 0.264584,0.26458 0,0.14552 -0.119063,0.26459 -0.264584,0.26459 z m 3.96875,-0.0215 c -0.652118,0.02 -0.661458,-0.01 -0.661458,-2.09601 0,-1.51678 0.09369,-2.11625 0.330729,-2.11609 0.198263,1.4e-4 0.330729,0.35278 0.330729,0.88044 0,0.82752 0.04752,0.87325 0.793751,0.76372 0.782279,-0.11481 0.79375,-0.0992 0.79375,1.08211 0,0.71132 0.134455,1.25286 0.330729,1.33206 0.181901,0.0734 0.03222,0.14285 -0.332636,0.15434 -0.626298,0.0197 -0.658073,-0.0456 -0.56867,-1.16974 0.07333,-0.92197 0.0055,-1.19062 -0.300516,-1.19062 -0.217365,0 -0.467479,0.18833 -0.555808,0.41851 -0.08833,0.23018 -0.1606,0.69651 -0.1606,1.03628 0,0.33978 0.148829,0.67783 0.33073,0.75123 0.181901,0.0734 0.03307,0.14259 -0.33073,0.15377 z m 2.910418,0.0215 c -0.3196,-0.001 -0.396875,-0.41326 -0.396875,-2.11751 0,-1.44358 0.09873,-2.11625 0.310581,-2.1161 0.204632,1.5e-4 0.34002,0.72251 0.396875,2.11752 0.0711,1.74439 0.0164,2.11707 -0.310581,2.11609 z m 1.5875,-5e-5 c -0.145521,0 -0.264584,-0.11907 -0.264584,-0.26459 0,-0.14552 0.119063,-0.26458 0.264584,-0.26458 0.14552,0 0.264583,0.11906 0.264583,0.26458 0,0.14552 -0.119063,0.26459 -0.264583,0.26459 z m 50.473976,-12.96454 c -0.532466,0 -0.816041,-0.1723 -0.979736,-0.59531 -0.156245,-0.40375 -0.110932,-0.78388 0.140816,-1.18132 0.291227,-0.45975 0.369382,-1.88477 0.362781,-6.61458 -0.0065,-4.66888 -0.08972,-6.13578 -0.36889,-6.5039 -0.19826,-0.26142 -0.298402,-0.71267 -0.222538,-1.00278 0.07586,-0.29011 0.450223,-0.68965 0.831908,-0.88788 0.60334,-0.31335 0.948171,-1.12727 2.64028,-6.23196 1.422005,-4.28986 1.867466,-5.95037 1.653645,-6.16419 -0.160961,-0.16096 -0.292658,-0.54269 -0.292658,-0.84829 0,-0.30559 0.142875,-0.6985 0.3175,-0.87312 0.174625,-0.17463 0.567531,-0.3175 0.873125,-0.3175 0.305594,0 0.6985,0.14287 0.873125,0.3175 0.174621,0.17462 0.317501,0.56753 0.317501,0.87312 0,0.3056 -0.1317,0.68733 -0.292659,0.84829 -0.21382,0.21382 0.231639,1.87433 1.653649,6.16419 1.72892,5.21576 2.02756,5.91374 2.6739,6.24935 0.54097,0.28089 0.72761,0.57566 0.72761,1.14915 0,0.42423 -0.11906,0.84492 -0.26458,0.93486 -0.16419,0.10147 -0.26459,2.51108 -0.26459,6.35 0,3.83891 0.1004,6.24853 0.26459,6.35 0.14552,0.0899 0.26458,0.43034 0.26458,0.75645 0,0.32611 -0.14288,0.7358 -0.3175,0.91042 -0.17463,0.17463 -0.56753,0.3175 -0.87313,0.3175 -0.30559,0 -0.6985,-0.14287 -0.87312,-0.3175 -0.17463,-0.17462 -0.3175,-0.58431 -0.3175,-0.91042 0,-0.32611 0.11906,-0.66651 0.26458,-0.75645 0.16392,-0.10131 0.26459,-2.46804 0.26459,-6.22087 0,-3.9706 -0.10391,-6.28541 -0.30162,-6.71934 -0.22624,-0.49653 -0.22547,-0.84683 0.003,-1.40152 0.26902,-0.65295 0.0771,-1.42094 -1.63942,-6.56036 -1.06926,-3.20145 -2.052902,-5.79106 -2.185879,-5.75468 -0.132977,0.0364 -1.118815,2.69726 -2.19075,5.91307 -1.733561,5.20068 -1.911528,5.9169 -1.610149,6.48003 0.262957,0.49134 0.269841,0.78452 0.03075,1.30927 -0.20573,0.45153 -0.308087,2.68863 -0.308087,6.73353 0,3.75283 0.100661,6.11956 0.264584,6.22087 0.145521,0.0899 0.264583,0.43034 0.264583,0.75645 0,0.32611 -0.142875,0.7358 -0.3175,0.91042 -0.174625,0.17463 -0.654711,0.3175 -1.066858,0.3175 z m -60.934328,-1.05833 c -1.081324,0 -1.174288,-0.0479 -0.940487,-0.48478 0.142696,-0.26663 0.456945,-0.64869 0.698331,-0.84902 0.241386,-0.20034 0.542202,-0.63599 0.668481,-0.96813 0.126279,-0.33214 0.160669,-0.78352 0.07642,-1.00307 -0.08425,-0.21954 -0.386587,-0.39917 -0.671865,-0.39917 -0.398284,0 -0.479702,0.12284 -0.350738,0.52917 0.119188,0.37553 0.04755,0.52917 -0.246754,0.52917 -0.228088,0 -0.414705,-0.16402 -0.414705,-0.36448 0,-0.20046 0.171394,-0.50672 0.380875,-0.68058 0.209482,-0.17385 0.715497,-0.27773 1.12448,-0.23083 0.597342,0.0685 0.760682,0.23471 0.830432,0.84508 0.06513,0.56993 -0.12967,0.98318 -0.779507,1.65364 l -0.866335,0.89383 h 0.691313 c 0.380221,0 0.751365,-0.14882 0.824764,-0.33073 0.0734,-0.1819 0.142852,-0.0628 0.15434,0.26459 0.0187,0.53292 -0.104869,0.59531 -1.179045,0.59531 z m 2.522851,0 c -0.145521,0 -0.264583,-0.11906 -0.264583,-0.26458 0,-0.14552 0.119062,-0.26459 0.264583,-0.26459 0.145521,0 0.264583,0.11907 0.264583,0.26459 0,0.14552 -0.119062,0.26458 -0.264583,0.26458 z m 3.704167,-0.0215 c -0.652118,0.02 -0.661459,-0.01 -0.661459,-2.096 0,-1.51679 0.09369,-2.11626 0.33073,-2.1161 0.198262,1.4e-4 0.330729,0.35278 0.330729,0.88045 0,0.82752 0.04752,0.87324 0.79375,0.76372 0.782279,-0.11482 0.79375,-0.0992 0.79375,1.08211 0,0.71132 0.134456,1.25286 0.330729,1.33205 0.181901,0.0734 0.03222,0.14286 -0.332635,0.15434 -0.626299,0.0197 -0.658074,-0.0456 -0.568671,-1.16973 0.07333,-0.92198 0.0055,-1.19063 -0.300515,-1.19063 -0.217366,0 -0.467479,0.18833 -0.555809,0.41852 -0.08833,0.23018 -0.160599,0.69651 -0.160599,1.03628 0,0.33977 0.148828,0.67782 0.330729,0.75122 0.181901,0.0734 0.03307,0.1426 -0.330729,0.15377 z m 3.175,0.0215 c -0.3196,-10e-4 -0.396875,-0.41326 -0.396875,-2.11751 0,-1.44358 0.09873,-2.11625 0.310582,-2.1161 0.204632,1.6e-4 0.340019,0.72251 0.396875,2.11752 0.07109,1.7444 0.0164,2.11708 -0.310582,2.11609 z m 1.5875,-5e-5 c -0.145521,0 -0.264583,-0.11906 -0.264583,-0.26458 0,-0.14552 0.119062,-0.26459 0.264583,-0.26459 0.145521,0 0.264584,0.11907 0.264584,0.26459 0,0.14552 -0.119063,0.26458 -0.264584,0.26458 z M 33.215104,33.804562 c -0.654844,0 -0.982266,-0.0545 -0.727604,-0.121 0.375278,-0.0981 0.463021,-0.41815 0.463021,-1.6891 0,-1.30995 -0.07622,-1.57116 -0.463021,-1.58669 -0.395933,-0.0159 -0.386349,-0.0516 0.06615,-0.24599 0.291041,-0.12506 0.618463,-0.23576 0.727604,-0.24599 0.10914,-0.0102 0.198437,0.80611 0.198437,1.81409 0,1.52293 0.07826,1.85313 0.463021,1.95368 0.254662,0.0665 -0.07276,0.121 -0.727604,0.121 z m 2.116667,0.0614 c -0.145521,0 -0.264584,-0.11907 -0.264584,-0.26459 0,-0.14552 0.119063,-0.26458 0.264584,-0.26458 0.14552,0 0.264583,0.11906 0.264583,0.26458 0,0.14552 -0.119063,0.26459 -0.264583,0.26459 z m 3.96875,-0.0215 c -0.652118,0.02 -0.661459,-0.01 -0.661459,-2.09601 0,-1.51679 0.09369,-2.11625 0.33073,-2.11609 0.198262,1.3e-4 0.330729,0.35278 0.330729,0.88044 0,0.82752 0.04752,0.87324 0.79375,0.76372 0.782279,-0.11481 0.79375,-0.0992 0.79375,1.08211 0,0.71132 0.134456,1.25286 0.330729,1.33206 0.181901,0.0734 0.03222,0.14285 -0.332635,0.15434 -0.626299,0.0197 -0.658074,-0.0456 -0.568671,-1.16974 0.07333,-0.92198 0.0055,-1.19062 -0.300515,-1.19062 -0.217366,0 -0.467479,0.18833 -0.555809,0.41851 -0.08833,0.23018 -0.160599,0.69651 -0.160599,1.03629 0,0.33977 0.148828,0.67782 0.330729,0.75122 0.181901,0.0734 0.03307,0.14259 -0.330729,0.15377 z m 2.910417,0.0215 c -0.3196,-9.6e-4 -0.396875,-0.41326 -0.396875,-2.11752 0,-1.44357 0.09873,-2.11625 0.310582,-2.11609 0.204632,1.5e-4 0.340019,0.7225 0.396875,2.11751 0.07109,1.7444 0.0164,2.11708 -0.310582,2.1161 z m 1.852083,-5e-5 c -0.145521,0 -0.264583,-0.11907 -0.264583,-0.26459 0,-0.14552 0.119062,-0.26458 0.264583,-0.26458 0.145521,0 0.264584,0.11906 0.264584,0.26458 0,0.14552 -0.119063,0.26459 -0.264584,0.26459 z m 69.320839,-13.22913 c -0.51972,0 -0.87436,-0.1854 -1.07625,-0.56263 -0.21857,-0.40842 -0.22268,-0.73478 -0.015,-1.19063 0.20988,-0.46066 0.50065,-0.62799 1.09122,-0.62799 0.59057,0 0.88134,0.16733 1.09123,0.62799 0.2077,0.45585 0.20359,0.78221 -0.015,1.19063 -0.2019,0.37723 -0.55654,0.56263 -1.07625,0.56263 z m 19.16905,-0.004 c -0.29831,0.002 -0.68527,-0.13883 -0.85989,-0.31345 -0.17463,-0.17462 -0.3175,-0.56753 -0.3175,-0.87313 0,-0.30559 0.14287,-0.6985 0.3175,-0.87312 0.17462,-0.17463 0.58459,-0.3175 0.91104,-0.3175 0.32644,0 0.7699,0.25179 0.98546,0.55954 0.21555,0.30775 0.32028,0.75423 0.23273,0.99219 -0.0876,0.23795 -0.28692,0.52012 -0.44306,0.62703 -0.15613,0.10691 -0.52796,0.19621 -0.82628,0.19844 z m -99.543988,-1.31887 c -0.132534,0 -0.438017,-0.21773 -0.678853,-0.48385 -0.283845,-0.31365 -0.437882,-0.94655 -0.437882,-1.79917 0,-0.72342 0.142875,-1.45818 0.3175,-1.63281 0.174625,-0.17463 0.567531,-0.3175 0.873125,-0.3175 0.305594,0 0.6985,0.14287 0.873125,0.3175 0.174625,0.17463 0.3175,1.00387 0.3175,1.84277 0,1.23721 -0.09666,1.57701 -0.511772,1.79917 -0.281475,0.15064 -0.620209,0.27389 -0.752743,0.27389 z m 0.369591,-0.44542 c 0.296642,-0.11384 0.370758,-0.53518 0.311385,-1.77021 -0.06819,-1.41846 -0.143986,-1.62083 -0.607086,-1.62083 -0.4529,0 -0.5408,0.2033 -0.609884,1.41055 -0.04474,0.78175 0.05235,1.57087 0.217782,1.77021 0.164175,0.19781 0.473686,0.29244 0.687803,0.21028 z m 2.217841,0.18084 c -0.145521,0 -0.264583,-0.11906 -0.264583,-0.26458 0,-0.14552 0.119062,-0.26459 0.264583,-0.26459 0.145521,0 0.264583,0.11907 0.264583,0.26459 0,0.14552 -0.119062,0.26458 -0.264583,0.26458 z m 3.704167,-0.0215 c -0.652118,0.02 -0.661459,-0.01 -0.661459,-2.09601 0,-1.51678 0.09369,-2.11625 0.33073,-2.11609 0.198262,1.4e-4 0.330729,0.35278 0.330729,0.88045 0,0.82751 0.04752,0.87324 0.79375,0.76372 0.782279,-0.11482 0.79375,-0.0992 0.79375,1.0821 0,0.71133 0.134456,1.25286 0.330729,1.33206 0.181901,0.0734 0.03222,0.14285 -0.332635,0.15434 -0.626299,0.0197 -0.658074,-0.0456 -0.568671,-1.16973 0.07333,-0.92198 0.0055,-1.19063 -0.300515,-1.19063 -0.217366,0 -0.467479,0.18833 -0.555809,0.41851 -0.08833,0.23019 -0.160599,0.69652 -0.160599,1.03629 0,0.33977 0.148828,0.67782 0.330729,0.75122 0.181901,0.0734 0.03307,0.1426 -0.330729,0.15377 z m 3.175,0.0215 c -0.3196,-9.5e-4 -0.396875,-0.41326 -0.396875,-2.11751 0,-1.44358 0.09873,-2.11625 0.310582,-2.1161 0.204632,1.5e-4 0.340019,0.72251 0.396875,2.11752 0.07109,1.74439 0.0164,2.11707 -0.310582,2.11609 z m 1.5875,-5e-5 c -0.145521,0 -0.264583,-0.11906 -0.264583,-0.26458 0,-0.14552 0.119062,-0.26459 0.264583,-0.26459 0.145521,0 0.264584,0.11907 0.264584,0.26459 0,0.14552 -0.119063,0.26458 -0.264584,0.26458 z"
       id="path977" />
  </g>
</svg>
