<?xml version="1.0" encoding="UTF-8" standalone="no"?>
<svg
   xmlns:dc="http://purl.org/dc/elements/1.1/"
   xmlns:cc="http://creativecommons.org/ns#"
   xmlns:rdf="http://www.w3.org/1999/02/22-rdf-syntax-ns#"
   xmlns:svg="http://www.w3.org/2000/svg"
   xmlns="http://www.w3.org/2000/svg"
   xmlns:sodipodi="http://sodipodi.sourceforge.net/DTD/sodipodi-0.dtd"
   xmlns:inkscape="http://www.inkscape.org/namespaces/inkscape"
   width="105.56875mm"
   height="45.243752mm"
   viewBox="0 0 105.56875 45.243752"
   version="1.1"
   id="svg8"
   inkscape:version="1.0.2 (e86c870879, 2021-01-15)"
   sodipodi:docname="xyuv.svg">
  <defs
     id="defs2">
    <g
       id="g9283">
      <symbol
         overflow="visible"
         id="symbol9184">
        <path
           style="stroke:none;"
           d=""
           id="path5233" />
      </symbol>
      <symbol
         overflow="visible"
         id="symbol5417">
        <path
           style="stroke:none;"
           d="M 3.890625 -0.78125 L 3.890625 0.109375 L 5.328125 0 L 5.328125 -0.3125 C 4.640625 -0.3125 4.5625 -0.375 4.5625 -0.875 L 4.5625 -4.40625 L 3.09375 -4.296875 L 3.09375 -3.984375 C 3.78125 -3.984375 3.875 -3.921875 3.875 -3.421875 L 3.875 -1.65625 C 3.875 -0.78125 3.390625 -0.109375 2.65625 -0.109375 C 1.828125 -0.109375 1.78125 -0.578125 1.78125 -1.09375 L 1.78125 -4.40625 L 0.3125 -4.296875 L 0.3125 -3.984375 C 1.09375 -3.984375 1.09375 -3.953125 1.09375 -3.078125 L 1.09375 -1.578125 C 1.09375 -0.796875 1.09375 0.109375 2.609375 0.109375 C 3.171875 0.109375 3.609375 -0.171875 3.890625 -0.78125 Z M 3.890625 -0.78125 "
           id="path8131" />
      </symbol>
    </g>
    <g
       id="g7304">
      <symbol
         overflow="visible"
         id="symbol1603">
        <path
           style="stroke:none;"
           d=""
           id="path6042" />
      </symbol>
      <symbol
         overflow="visible"
         id="symbol4035">
        <path
           style="stroke:none;"
           d="M 4.140625 -3.3125 C 4.234375 -3.546875 4.40625 -3.984375 5.0625 -3.984375 L 5.0625 -4.296875 C 4.828125 -4.28125 4.546875 -4.265625 4.3125 -4.265625 C 4.078125 -4.265625 3.625 -4.28125 3.453125 -4.296875 L 3.453125 -3.984375 C 3.8125 -3.984375 3.921875 -3.75 3.921875 -3.5625 C 3.921875 -3.46875 3.90625 -3.421875 3.875 -3.3125 L 2.84375 -0.78125 L 1.734375 -3.5625 C 1.671875 -3.6875 1.671875 -3.703125 1.671875 -3.734375 C 1.671875 -3.984375 2.0625 -3.984375 2.25 -3.984375 L 2.25 -4.296875 C 1.9375 -4.28125 1.390625 -4.265625 1.15625 -4.265625 C 0.890625 -4.265625 0.484375 -4.28125 0.1875 -4.296875 L 0.1875 -3.984375 C 0.8125 -3.984375 0.859375 -3.921875 0.984375 -3.625 L 2.421875 -0.078125 C 2.484375 0.0625 2.5 0.109375 2.625 0.109375 C 2.765625 0.109375 2.796875 0.015625 2.84375 -0.078125 Z M 4.140625 -3.3125 "
           id="path9532" />
      </symbol>
    </g>
  </defs>
  <sodipodi:namedview
     id="base"
     pagecolor="#ffffff"
     bordercolor="#666666"
     borderopacity="1.0"
     inkscape:pageopacity="0.0"
     inkscape:pageshadow="2"
     inkscape:zoom="2.6072557"
     inkscape:cx="212.69142"
     inkscape:cy="173.83808"
     inkscape:document-units="mm"
     inkscape:current-layer="layer1"
     inkscape:document-rotation="0"
     showgrid="false"
     inkscape:window-width="1920"
     inkscape:window-height="1080"
     inkscape:window-x="1920"
     inkscape:window-y="0"
     inkscape:window-maximized="1"
     fit-margin-top="0"
     fit-margin-left="0"
     fit-margin-right="0"
     fit-margin-bottom="0" />
  <metadata
     id="metadata5">
    <rdf:RDF>
      <cc:Work
         rdf:about="">
        <dc:format>image/svg+xml</dc:format>
        <dc:type
           rdf:resource="http://purl.org/dc/dcmitype/StillImage" />
        <dc:title />
      </cc:Work>
    </rdf:RDF>
  </metadata>
  <g
     inkscape:label="Layer 1"
     inkscape:groupmode="layer"
     id="layer1"
     transform="translate(-9.7054529,-1.1165299)">
    <path
       style="fill:#000000;stroke-width:0.0690423"
       d="m 49.551312,44.388692 c -0.135486,-0.06821 -0.17711,-0.148403 -0.193552,-0.372893 -0.01743,-0.237966 0.0029,-0.293548 0.120825,-0.330989 0.365173,-0.115901 0.599683,0.276439 0.270527,0.452598 -0.117777,0.06303 -0.128187,0.09107 -0.05178,0.139456 0.359946,0.227959 0.775386,-0.117125 0.991444,-0.823537 0.04449,-0.145462 0.03559,-0.153922 -0.09075,-0.0863 -0.237881,0.12731 -0.539169,0.08645 -0.765241,-0.103774 -0.271659,-0.228587 -0.280344,-0.557236 -0.03268,-1.236625 0.238292,-0.653675 0.281156,-0.932072 0.143508,-0.932072 -0.136948,0 -0.362938,0.288699 -0.462764,0.591174 -0.04308,0.130534 -0.106987,0.237334 -0.142015,0.237334 -0.108949,0 -0.07034,-0.233713 0.09166,-0.554896 0.189676,-0.376047 0.447768,-0.495683 0.729645,-0.338221 0.246079,0.137464 0.270348,0.429502 0.08258,0.993739 -0.09941,0.298744 -0.13962,0.568853 -0.125429,0.842688 0.01963,0.378707 0.03195,0.404296 0.204365,0.424246 0.245859,0.02845 0.452365,-0.202475 0.573462,-0.641265 0.0526,-0.190607 0.167899,-0.60766 0.256211,-0.926786 0.166588,-0.601977 0.321003,-0.805886 0.48562,-0.641269 0.07024,0.07024 0.04478,0.257934 -0.130936,0.96504 -0.119977,0.482812 -0.252893,1.052438 -0.295369,1.265837 -0.166362,0.835798 -1.027621,1.394556 -1.659327,1.076518 z M 34.361995,43.998706 c 0,-0.03557 0.100974,-0.0744 0.224387,-0.0863 l 0.224388,-0.02163 0.0192,-0.991903 0.01921,-0.991901 -0.243593,0.0457 c -0.338179,0.06344 -0.313674,-0.07445 0.02966,-0.166901 0.15029,-0.04047 0.291934,-0.103804 0.314765,-0.140745 0.02283,-0.03694 0.08553,-0.06717 0.139331,-0.06717 0.07975,0 0.101316,0.213612 0.116749,1.15646 l 0.01893,1.156459 0.258909,0.02143 c 0.1424,0.01179 0.258909,0.05062 0.258909,0.0863 0,0.03615 -0.30574,0.06488 -0.690424,0.06488 -0.383119,0 -0.690423,-0.02878 -0.690423,-0.06467 z m -19.61625,-0.687571 c -0.137462,-0.111311 -0.151497,-0.159232 -0.09395,-0.3208 0.107126,-0.30077 0.277501,-0.370293 0.460062,-0.187731 l 0.152682,0.152681 -0.163757,0.174312 c -0.155718,0.165754 -0.156978,0.174311 -0.02567,0.174311 0.262906,0 0.443768,-0.304492 0.658631,-1.108844 0.16411,-0.614358 0.191688,-0.808903 0.132943,-0.937834 -0.146323,-0.321145 -0.591469,-0.106369 -0.811049,0.391319 -0.14334,0.324888 -0.232625,0.352638 -0.232625,0.0723 0,-0.244481 0.367514,-0.663649 0.642344,-0.732627 0.237719,-0.05966 0.500487,0.0064 0.660022,0.165933 0.120816,0.120816 0.131607,0.119565 0.312784,-0.03628 0.209412,-0.180128 0.364761,-0.200077 0.627134,-0.08053 0.234097,0.106662 0.297837,0.365738 0.134409,0.546324 -0.144214,0.159354 -0.361817,0.150503 -0.468074,-0.01904 -0.05541,-0.08841 -0.04454,-0.148437 0.04473,-0.247084 0.143436,-0.158495 0.149364,-0.222993 0.0205,-0.222993 -0.219006,0 -0.436805,0.404981 -0.624344,1.160922 -0.148946,0.600378 -0.171952,0.788495 -0.110479,0.903359 0.153115,0.286098 0.573946,0.08909 0.792209,-0.370866 0.06356,-0.133939 0.145172,-0.243526 0.181364,-0.243526 0.194789,0 -0.0992,0.597683 -0.377447,0.767359 -0.318353,0.194132 -0.789597,0.145608 -0.948069,-0.09762 -0.0271,-0.04159 -0.120057,-0.01001 -0.233699,0.07938 -0.233058,0.183324 -0.517504,0.190167 -0.730643,0.01758 z m 17.360131,-0.114643 c -0.236393,-0.120797 -0.436533,-0.509604 -0.436533,-0.848043 0,-0.341362 0.19831,-0.874416 0.39537,-1.062748 0.258415,-0.246968 0.756425,-0.463951 1.06909,-0.465801 0.672024,-0.004 0.735682,0.85729 0.08174,1.105918 -0.09589,0.03646 -0.355411,0.06629 -0.576716,0.06629 -0.458249,0 -0.486189,0.03132 -0.486189,0.544967 0,0.730686 0.677109,0.838573 1.307372,0.20831 0.239126,-0.239126 0.34495,-0.224478 0.228274,0.0316 -0.171758,0.37697 -1.155363,0.637734 -1.582409,0.419515 z m 0.989423,-1.475711 c 0.42555,-0.193226 0.495992,-0.643475 0.11561,-0.738945 -0.352933,-0.08858 -0.779474,0.238989 -0.888473,0.682316 -0.04488,0.18255 -0.03642,0.189808 0.219712,0.18835 0.146517,-8.35e-4 0.395434,-0.06011 0.553151,-0.131721 z M 18.342094,40.041657 c -0.400962,-0.20256 -0.619307,-0.531459 -0.619307,-0.932881 0,-0.810083 0.796603,-1.338247 1.546091,-1.025091 l 0.229851,0.09604 5.70813,-5.70844 5.70813,-5.708439 -0.10612,-0.25398 c -0.142131,-0.340168 -0.133677,-0.573456 0.03297,-0.90978 0.182502,-0.368325 0.427943,-0.537403 0.837206,-0.576728 0.410881,-0.03948 0.687022,0.06825 0.953804,0.372095 0.269961,0.307469 0.332813,0.662578 0.188031,1.062371 l -0.112786,0.311444 5.704016,5.705729 5.704017,5.705728 0.229851,-0.09604 c 0.344025,-0.143743 0.730388,-0.120174 0.999159,0.06095 0.849152,0.572243 0.684331,1.702088 -0.290925,1.994282 -0.523259,0.156772 -1.143982,-0.214258 -1.315351,-0.786237 -0.07017,-0.234218 -0.06396,-0.329614 0.04065,-0.624154 l 0.123484,-0.347679 -5.711138,-5.71145 C 32.497027,26.97426 32.4802,26.95822 32.299418,27.052549 c -0.240057,0.125258 -0.843937,0.122341 -1.013873,-0.0049 -0.125894,-0.09426 -0.480405,0.245833 -5.847275,5.609534 -3.14229,3.140433 -5.713255,5.748787 -5.713255,5.796339 0,0.06285 0.169707,0.08646 0.621382,0.08646 h 0.621381 v 0.552339 0.552339 h -0.609347 c -0.56946,0 -0.620302,0.01188 -0.776726,0.181504 -0.189395,0.205376 -0.533807,0.370834 -0.771914,0.370834 -0.08811,0 -0.298571,-0.0699 -0.467697,-0.155345 z m 4.765997,-0.949332 v -0.552339 h 1.104677 1.104678 v 0.552339 0.552339 h -1.104678 -1.104677 z m 4.349668,0 v -0.552339 h 1.104678 1.104677 v 0.552339 0.552339 h -1.104677 -1.104678 z m 4.349668,0 v -0.552339 h 1.104678 1.104678 v 0.552339 0.552339 h -1.104678 -1.104678 z m 4.326655,0.50631 c -0.02532,-0.02531 -0.04603,-0.273867 -0.04603,-0.552339 v -0.50631 h 1.104678 1.104678 v 0.552339 0.552339 H 37.23876 c -0.582258,0 -1.079363,-0.02071 -1.104678,-0.04603 z m 4.30364,-0.50631 v -0.552339 h 1.104677 1.104678 v 0.552339 0.552339 H 41.542399 40.437722 Z M 106.5803,35.379138 c 0,-0.02967 0.18812,-0.239385 0.41803,-0.466036 0.49839,-0.491289 0.82473,-0.960916 0.82473,-1.186824 0,-0.214995 -0.17245,-0.543517 -0.31378,-0.59775 -0.19103,-0.0733 -0.40835,-0.04752 -0.5733,0.06801 l -0.15833,0.110901 0.1469,0.102892 c 0.22254,0.155873 0.16047,0.40025 -0.10166,0.40025 -0.24347,0 -0.2983,-0.147607 -0.16994,-0.457492 0.11768,-0.284106 0.42584,-0.429564 0.81671,-0.385508 0.25038,0.02822 0.36174,0.08736 0.54871,0.291372 0.20291,0.221415 0.22926,0.289896 0.19519,0.50736 -0.0319,0.203824 -0.14773,0.352189 -0.61193,0.784047 l -0.57256,0.532651 0.45929,0.0024 c 0.45501,0.0024 0.45999,4.14e-4 0.53598,-0.217603 0.11694,-0.335472 0.21843,-0.155855 0.13408,0.23729 l -0.0704,0.327951 h -0.75387 c -0.41463,0 -0.75387,-0.02427 -0.75387,-0.05394 z m -40.22268,-0.13592 c 3.597969,-0.0099 21.982663,-0.0099 25.580633,0 3.597969,0.0099 -5.295662,0.01797 -12.491601,0.01797 -7.19594,0 -16.687002,-0.0081 -13.089032,-0.01797 z m 0,-0.483296 c 3.597969,-0.0099 21.982663,-0.0099 25.580633,0 3.597969,0.0099 -5.295662,0.01796 -12.491601,0.01796 -7.19594,0 -16.687002,-0.0081 -13.089032,-0.01796 z m 35.0445,-0.182187 c 0,-0.05485 0.10305,-0.115212 0.24081,-0.141056 0.13245,-0.02485 0.26888,-0.09821 0.30319,-0.163029 0.0815,-0.153901 0.60253,-2.173957 0.65663,-2.54556 0.023,-0.158067 0.0608,-0.336714 0.0839,-0.396993 0.0337,-0.08787 -0.008,-0.1096 -0.21204,-0.1096 -0.20475,0 -0.24962,-0.02346 -0.23104,-0.120824 0.019,-0.09942 0.11126,-0.124411 0.52081,-0.141068 0.47077,-0.01914 0.49958,-0.01166 0.53122,0.138085 0.0184,0.08708 0.1164,0.77971 0.21778,1.539176 0.10137,0.759465 0.19202,1.389823 0.20143,1.400793 0.009,0.01097 0.16648,-0.222047 0.34903,-0.517817 0.18255,-0.295771 0.40706,-0.62922 0.49891,-0.741 0.0918,-0.111779 0.19457,-0.27576 0.22827,-0.364402 0.0337,-0.08864 0.25396,-0.455454 0.48945,-0.815139 l 0.42818,-0.653973 h 0.47036 c 0.42431,0 0.47034,0.01351 0.47034,0.138085 0,0.114134 -0.046,0.138084 -0.26537,0.138084 h -0.26537 l -0.28358,1.087417 c -0.22478,0.861895 -0.49708,2.033543 -0.49743,2.140313 -3e-5,0.0095 0.10869,0.01726 0.24159,0.01726 0.16877,0 0.24165,0.03123 0.24165,0.103563 0,0.08578 -0.13041,0.103564 -0.75946,0.103564 -0.62906,0 -0.75947,-0.01778 -0.75947,-0.103564 0,-0.07425 0.0758,-0.103563 0.26765,-0.103563 h 0.26765 l 0.17944,-0.707684 c 0.0987,-0.389227 0.28491,-1.103815 0.41381,-1.587974 0.1289,-0.48416 0.22331,-0.88029 0.2098,-0.88029 -0.0135,0 -0.1194,0.178647 -0.23532,0.396993 -0.11592,0.218347 -0.29956,0.52127 -0.4081,0.673163 -0.10853,0.151893 -0.44884,0.68979 -0.75623,1.195325 -0.59926,0.985518 -0.74342,1.171675 -0.83261,1.075182 -0.0311,-0.03363 -0.1402,-0.698067 -0.24247,-1.47652 -0.10227,-0.778452 -0.207,-1.470734 -0.23273,-1.538404 -0.0295,-0.07747 -0.18512,0.404185 -0.42033,1.300729 -0.39829,1.518153 -0.39871,1.545865 -0.0229,1.548423 0.0916,6.21e-4 0.15534,0.04356 0.15534,0.10462 0,0.08438 -0.11507,0.103564 -0.62138,0.103564 -0.48418,0 -0.62138,-0.02117 -0.62138,-0.09588 z m -35.0445,-0.370152 c 3.597969,-0.0099 21.982663,-0.0099 25.580633,0 3.597969,0.0099 -5.295662,0.01797 -12.491601,0.01797 -7.19594,0 -16.687002,-0.0081 -13.089032,-0.01797 z M 36.657653,25.975036 c -0.182171,-0.111071 -0.224388,-0.180877 -0.224388,-0.371021 0,-0.270893 0.131705,-0.409416 0.358672,-0.377241 0.215272,0.03052 0.244142,0.280847 0.05294,0.458983 -0.148511,0.13836 -0.14852,0.138578 -0.0085,0.213512 0.07709,0.04125 0.253333,0.07501 0.391656,0.07501 0.448546,0 0.846793,-0.583493 0.560447,-0.821138 -0.05208,-0.04322 -0.254115,-0.125927 -0.448975,-0.183795 -0.400084,-0.118811 -0.599001,-0.343743 -0.527884,-0.596921 0.09187,-0.327068 0.21138,-0.485684 0.462426,-0.613758 0.537945,-0.274439 1.092413,-0.07665 1.092413,0.389686 0,0.191969 -0.03108,0.243121 -0.168681,0.277658 -0.09278,0.02329 -0.201518,0.02204 -0.241649,-0.0028 -0.125238,-0.0774 -0.07993,-0.30453 0.07756,-0.388817 0.145466,-0.07785 0.146183,-0.08374 0.02133,-0.175036 -0.261121,-0.190936 -0.721114,-0.06603 -0.857261,0.232782 -0.106596,0.233951 0.04525,0.400518 0.419707,0.460396 0.178644,0.02857 0.355843,0.120375 0.488636,0.253168 0.177472,0.177472 0.202438,0.244766 0.168468,0.454095 -0.05736,0.353496 -0.223199,0.569364 -0.55213,0.718708 -0.374455,0.170015 -0.782376,0.168669 -1.064774,-0.0035 z m -5.374458,-3.107662 c 0,-0.62656 0.01047,-0.882879 0.02326,-0.5696 0.01279,0.31328 0.01279,0.825919 0,1.139199 -0.01279,0.31328 -0.02326,0.05696 -0.02326,-0.569599 z m 0.483297,0 c 0,-0.62656 0.01047,-0.882879 0.02326,-0.5696 0.01279,0.31328 0.01279,0.825919 0,1.139199 -0.01279,0.31328 -0.02326,0.05696 -0.02326,-0.569599 z m 0.552338,0 c 0,-0.62656 0.01047,-0.882879 0.02326,-0.5696 0.01279,0.31328 0.01279,0.825919 0,1.139199 -0.01279,0.31328 -0.02326,0.05696 -0.02326,-0.569599 z M 37.4689,20.74216 c 0,-0.02967 0.188119,-0.239385 0.418041,-0.466035 0.498379,-0.491289 0.824722,-0.960917 0.824722,-1.186824 0,-0.214995 -0.172456,-0.543517 -0.313784,-0.59775 -0.191023,-0.0733 -0.408344,-0.04752 -0.573291,0.06801 l -0.158333,0.110901 0.146899,0.102892 c 0.222539,0.155873 0.16047,0.40025 -0.101659,0.40025 -0.24347,0 -0.2983,-0.147607 -0.169941,-0.457492 0.11768,-0.284106 0.425837,-0.429565 0.816706,-0.385508 0.250383,0.02822 0.361746,0.08736 0.548712,0.291372 0.202913,0.221415 0.229259,0.289896 0.195192,0.50736 -0.03193,0.203824 -0.147726,0.352189 -0.611935,0.784047 l -0.572553,0.532651 0.459281,0.0024 c 0.455022,0.0024 0.459994,4.15e-4 0.535985,-0.217602 0.116946,-0.335472 0.218436,-0.155855 0.134077,0.23729 l -0.07037,0.327951 h -0.753874 c -0.414631,3e-6 -0.753875,-0.02427 -0.753875,-0.05394 z m -2.118033,-0.812939 c -0.236394,-0.120796 -0.436534,-0.509603 -0.436534,-0.848043 0,-0.341362 0.198311,-0.874415 0.395371,-1.062748 0.258414,-0.246968 0.756424,-0.46395 1.069089,-0.465801 0.672025,-0.004 0.735683,0.857291 0.08174,1.105918 -0.09589,0.03646 -0.355412,0.06629 -0.576717,0.06629 -0.458249,0 -0.486188,0.03132 -0.486188,0.544967 0,0.730686 0.677109,0.838572 1.307371,0.20831 0.239126,-0.239126 0.344951,-0.224478 0.228275,0.0316 -0.171759,0.376969 -1.155364,0.637734 -1.582409,0.419514 z M 36.34029,18.45351 c 0.425549,-0.193225 0.495991,-0.643474 0.115609,-0.738944 -0.352932,-0.08858 -0.779473,0.238989 -0.888473,0.682316 -0.04488,0.18255 -0.03642,0.189808 0.219712,0.18835 0.146517,-8.35e-4 0.395435,-0.06011 0.553152,-0.131722 z m -5.057095,0.0642 c 0,-0.626559 0.01047,-0.882879 0.02326,-0.569599 0.01279,0.313279 0.01279,0.825919 0,1.139198 -0.01279,0.31328 -0.02326,0.05696 -0.02326,-0.569599 z m 0.483297,0 c 0,-0.626559 0.01047,-0.882879 0.02326,-0.569599 0.01279,0.313279 0.01279,0.825919 0,1.139198 -0.01279,0.31328 -0.02326,0.05696 -0.02326,-0.569599 z m 0.552338,0 c 0,-0.626559 0.01047,-0.882879 0.02326,-0.569599 0.01279,0.313279 0.01279,0.825919 0,1.139198 -0.01279,0.31328 -0.02326,0.05696 -0.02326,-0.569599 z m 74.39955,-0.40988 c 0,-0.03557 0.10098,-0.0744 0.22439,-0.0863 l 0.22439,-0.02163 0.0192,-0.991902 0.0192,-0.991902 -0.24359,0.0457 c -0.33819,0.06344 -0.31368,-0.07445 0.0297,-0.166901 0.15029,-0.04047 0.29193,-0.103805 0.31476,-0.140746 0.0228,-0.03694 0.0855,-0.06717 0.13933,-0.06717 0.0798,0 0.10132,0.213612 0.11675,1.156459 l 0.0189,1.156459 0.25891,0.02143 c 0.1424,0.01178 0.25891,0.05062 0.25891,0.0863 0,0.03615 -0.30574,0.06487 -0.69042,0.06487 -0.38312,0 -0.69043,-0.02878 -0.69043,-0.06467 z M 66.466689,17.413028 V 16.86069 h 13.014484 13.014484 v 0.552338 0.552339 H 79.481173 66.466689 Z m 34.935431,-0.09588 c 0,-0.05485 0.10305,-0.115212 0.24081,-0.141056 0.13245,-0.02485 0.26888,-0.09821 0.30319,-0.163029 0.0815,-0.153902 0.60253,-2.173958 0.65663,-2.54556 0.023,-0.158067 0.0608,-0.336714 0.0839,-0.396994 0.0337,-0.08787 -0.008,-0.109599 -0.21204,-0.109599 -0.20475,0 -0.24962,-0.02346 -0.23104,-0.120824 0.019,-0.09942 0.11126,-0.124411 0.52081,-0.141068 0.47077,-0.01914 0.49958,-0.01166 0.53122,0.138085 0.0184,0.08708 0.1164,0.779709 0.21778,1.539175 0.10137,0.759466 0.19202,1.389823 0.20143,1.400794 0.009,0.01097 0.16648,-0.222047 0.34903,-0.517818 0.18255,-0.29577 0.40706,-0.62922 0.49891,-0.740999 0.0918,-0.11178 0.19457,-0.27576 0.22827,-0.364402 0.0337,-0.08864 0.25396,-0.455455 0.48945,-0.81514 l 0.42818,-0.653972 h 0.47036 c 0.42431,0 0.47034,0.01351 0.47034,0.138084 0,0.114134 -0.046,0.138085 -0.26537,0.138085 h -0.26537 l -0.28358,1.087417 c -0.22478,0.861894 -0.49708,2.033542 -0.49743,2.140313 -3e-5,0.0095 0.10869,0.01726 0.24159,0.01726 0.16877,0 0.24165,0.03123 0.24165,0.103564 0,0.08578 -0.13041,0.103563 -0.75946,0.103563 -0.62906,0 -0.75947,-0.01778 -0.75947,-0.103563 0,-0.07425 0.0758,-0.103564 0.26765,-0.103564 h 0.26765 l 0.17944,-0.707684 c 0.0987,-0.389226 0.28491,-1.103814 0.41381,-1.587974 0.1289,-0.484159 0.22331,-0.88029 0.2098,-0.88029 -0.0135,0 -0.1194,0.178647 -0.23532,0.396994 -0.11592,0.218346 -0.29956,0.52127 -0.4081,0.673163 -0.10853,0.151893 -0.44884,0.689789 -0.75623,1.195325 -0.59926,0.985517 -0.74342,1.171675 -0.83261,1.075181 -0.0311,-0.03363 -0.1402,-0.698067 -0.24247,-1.476519 -0.10227,-0.778453 -0.207,-1.470735 -0.23273,-1.538405 -0.0295,-0.07747 -0.18512,0.404185 -0.42033,1.300729 -0.39829,1.518154 -0.39871,1.545866 -0.0229,1.548423 0.0916,6.22e-4 0.15534,0.04356 0.15534,0.104621 0,0.08439 -0.11507,0.103563 -0.62138,0.103563 -0.48418,0 -0.62138,-0.02117 -0.62138,-0.09588 z M 31.269286,14.68063 c -0.01312,-0.57914 -0.02795,-0.639285 -0.195701,-0.793987 -0.378743,-0.34927 -0.466295,-0.848793 -0.229965,-1.312038 0.329871,-0.646602 1.171846,-0.785821 1.710331,-0.2828 0.434763,0.40613 0.455024,1.070809 0.04643,1.523078 -0.224768,0.248791 -0.235881,0.286522 -0.25807,0.876171 l -0.02319,0.616183 -0.0142,-0.611508 c -0.01221,-0.525844 -0.0295,-0.605636 -0.123409,-0.569599 -0.06007,0.02305 -0.16755,0.04191 -0.238856,0.04191 -0.114476,0 -0.132366,0.06665 -0.152905,0.569599 l -0.02326,0.5696 -0.01405,-0.5696 c -0.01083,-0.439076 -0.03649,-0.569599 -0.11197,-0.569599 -0.05385,0 -0.145811,-0.01838 -0.204347,-0.04084 -0.08995,-0.03452 -0.110009,0.05371 -0.129535,0.569599 l -0.0231,0.610441 z m 1.036801,-6.0053734 c -0.209225,-0.1465463 -0.203526,-0.5754814 0.0183,-1.3774172 0.09446,-0.3414927 0.172133,-0.6441976 0.172605,-0.6726776 4.84e-4,-0.02848 -0.122443,-0.051782 -0.273145,-0.051782 -0.215192,0 -0.265473,-0.022228 -0.234261,-0.1035635 0.02573,-0.06706 0.132752,-0.1035635 0.303624,-0.1035635 0.262497,0 0.26446,-0.00209 0.373629,-0.3969935 0.14085,-0.5095192 0.196653,-0.6041206 0.356354,-0.6041206 0.104031,0 0.129653,0.049099 0.126103,0.2416482 -0.0025,0.1329066 -0.02921,0.3581572 -0.05947,0.5005571 l -0.05501,0.2589088 h 0.283853 c 0.206286,0 0.283854,0.0283 0.283854,0.1035635 0,0.07786 -0.08334,0.1035635 -0.335778,0.1035635 h -0.335777 l -0.08307,0.4315146 c -0.04569,0.2373331 -0.127606,0.6243142 -0.182041,0.8599581 -0.131083,0.5674641 -0.127976,0.7797977 0.01141,0.7797977 0.143568,0 0.5007,-0.3837102 0.55371,-0.5949186 0.04094,-0.1631314 0.233456,-0.2354051 0.233456,-0.087645 0,0.1678224 -0.294631,0.5870721 -0.492292,0.7005137 -0.259011,0.1486519 -0.466282,0.1525902 -0.666065,0.012656 z"
       id="path865"
       sodipodi:nodetypes="sscscssssssssssssssssssssscccssssscsssssssscsssssssssssssssssssssssssscssssssssssssssscccssssscccssssscsssssscccsssssccccccccccccccccccccccccccccscccccsccccccccccccssscssssscsccsccscccssccssccscscscssscscsscssscssssssscsssssssscsssscccssccssssssssssscsssssssccsssssssssssscsssscssssssscccscscccsscsssssccssssssssssssssssssscccsscsccsssssccccccccccscscscssscscsscssscssssssscsssssssscssssccccsssscsssscsscscccscssssscccssscsssssscc" />
  </g>
</svg>
