<?xml version="1.0" encoding="UTF-8" standalone="no"?>
<svg
   height="120.63542mm"
   viewBox="0 0 104.14392 120.63542"
   width="104.14392mm"
   version="1.1"
   id="svg10"
   sodipodi:docname="linux.svg"
   inkscape:version="1.2 (dc2aedaf03, 2022-05-15)"
   xmlns:inkscape="http://www.inkscape.org/namespaces/inkscape"
   xmlns:sodipodi="http://sodipodi.sourceforge.net/DTD/sodipodi-0.dtd"
   xmlns="http://www.w3.org/2000/svg"
   xmlns:svg="http://www.w3.org/2000/svg">
  <defs
     id="defs14" />
  <sodipodi:namedview
     id="namedview12"
     pagecolor="#ffffff"
     bordercolor="#666666"
     borderopacity="1.0"
     inkscape:showpageshadow="2"
     inkscape:pageopacity="0.0"
     inkscape:pagecheckerboard="0"
     inkscape:deskcolor="#d1d1d1"
     inkscape:document-units="mm"
     showgrid="false"
     inkscape:zoom="1.1115531"
     inkscape:cx="182.17754"
     inkscape:cy="290.1346"
     inkscape:window-width="1920"
     inkscape:window-height="1080"
     inkscape:window-x="0"
     inkscape:window-y="0"
     inkscape:window-maximized="1"
     inkscape:current-layer="svg10" />
  <path
     id="path2"
     style="fill:#ffffff;stroke-width:0.049009"
     d="m 32.634268,10.569358 c -2.295093,4.369088 -2.898201,9.40512 -2.707262,14.279058 0.05769,5.385517 0.49184,10.759565 0.540024,16.145375 -1.08723,2.37074 -2.797811,4.377194 -4.256044,6.521046 -2.896149,3.968086 -5.870941,8.114835 -7.408019,12.777782 -1.543326,4.063739 -3.241215,8.094951 -5.510411,11.810168 -1.412441,3.391535 -0.615166,7.203085 -1.745449,10.660535 -4.2220084,-0.883683 -9.0143378,1.618738 -10.3894312,5.779815 -1.07947601,2.799505 -0.98676341,6.01615 0.194119,8.769013 -0.244888,2.81083 -1.80835931,5.49282 -1.22061191,8.36749 0.6230647,3.85229 3.82546971,7.07863 7.64854671,7.81242 5.3830564,1.46687 10.9358004,2.35195 16.1840124,4.28705 2.429936,0.91609 4.731896,2.24128 7.337272,2.61898 3.482629,0.63975 7.421103,0.0426 10.054642,-2.48415 1.203567,-1.08185 2.514818,-2.24322 4.207051,-2.38174 4.012649,-0.75947 8.108229,-0.17626 12.15819,-0.333 1.236464,0.0168 2.473362,0.0221 3.709023,0.0739 5.101008,5.91244 14.832167,7.16438 21.151117,2.49413 3.398518,-2.91147 6.619476,-6.17419 10.89383,-7.78652 3.117198,-1.21818 5.959988,-3.14328 8.160293,-5.67375 1.67567,-1.72942 2.84376,-4.1476 2.4222,-6.600027 -0.39538,-3.81327 -3.27996,-6.998492 -6.72944,-8.452426 -1.454856,-0.731591 -1.525853,-2.530607 -1.875121,-3.922478 -0.242017,-1.198738 -0.523522,-2.4282 -1.202566,-3.465181 1.219134,-4.154442 0.252884,-8.49976 -0.585745,-12.624458 C 92.478393,63.111405 90.050989,57.201636 86.384595,52.132583 82.649237,46.545144 78.124089,41.301332 75.968983,34.829728 74.753135,30.650871 75.105239,26.293141 74.556761,22.016039 74.054773,17.084118 72.711975,11.969279 69.281965,8.2279328 65.647041,4.1673334 60.414906,1.8477532 55.097915,1.0027441 46.173204,-1.4781571 38.024539,0.26165898 32.634268,10.569358 Z M 88.52953,75.847306 c 0.70445,0.624391 -0.508791,0.463066 -0.451172,0.0625 0.127167,-0.103928 0.301011,-0.122733 0.451172,-0.0625 z M 80.77367,110.3766 c 0.675509,0.18409 -0.04005,0.94407 -0.158203,0.25391 0.02458,-0.0783 0.0053,-0.31951 0.158203,-0.25391 z"
     sodipodi:nodetypes="ccccccccccccccccccccccccccccccccccccc" />
  <path
     d="m 33.470309,114.34292 c 0.214967,-0.07 0.02102,0.0945 0,0 z m 39.742342,-0.14891 c 0.769178,-0.072 0.143568,0.0711 0,0 z m 0.883259,7.8e-4 c 0.488944,-0.0736 0.09565,0.0749 0,0 z m -1.908297,-0.0479 c 0.214975,-0.07 0.02105,0.0945 0,0 z m 7.213548,-1.84738 c 0.165592,-0.19885 0.231767,-0.13544 0,0 z m -46.915835,-1.06405 c -7.920545,-1.79554 -15.83397,-3.71159 -23.6849929,-5.80949 -2.70131,-2.32545 3.7422799,-6.343869 0.681552,-9.804669 -2.39942,-2.77946 -1.51061,-7.22306 2.7951349,-5.40518 6.068776,1.45623 5.792526,-5.34525 6.468159,-8.61387 4.588573,-3.46276 8.288663,2.28784 10.679188,5.5755 3.243014,5.02694 7.262166,9.70818 9.411056,15.337919 1.367812,4.16277 -1.287776,9.83422 -6.350097,8.71979 z m 40.687824,-0.21583 c -6.011324,-1.06164 -4.651523,-7.78836 -3.948695,-12.089959 0.405923,-5.09621 -3.126553,-11.01685 0.280115,-15.52921 2.272053,-0.22845 3.071103,-2.42541 2.186601,0.33648 1.162037,5.84081 8.355611,6.90923 11.839948,2.43918 1.985368,-3.9609 6.611644,-0.6185 4.486273,2.99646 -0.765084,5.99917 6.036701,5.68956 8.515521,8.97027 -1.61033,5.233429 -8.612525,4.464319 -12.426058,7.292909 -3.591324,1.97725 -6.299776,6.43035 -10.933705,5.58387 z m 8.384418,-0.88253 c 1.17909,-1.13788 -1.063842,1.13021 0,0 z m -35.690983,-1.18417 c 0.269889,-0.0795 0.04899,0.0857 0,0 z m 17.937957,-0.002 c 0.429783,-0.0711 0.08884,0.0756 0,0 z m -17.300837,-0.0468 c 0.269889,-0.0795 0.04899,0.0857 0,0 z m 15.78155,-0.002 c 0.429783,-0.0711 0.08884,0.0756 0,0 z m -14.776189,-0.0495 c 0.537818,-0.0696 0.112577,0.0725 0,0 z m 12.669096,-4.9e-4 c 0.646201,-0.0679 0.135579,0.0699 0,0 z m -9.628955,-0.05 c 1.625444,-0.0586 0.334077,0.0587 0,0 z m 5.317592,-4e-5 c 1.734295,-0.0579 0.355973,0.058 0,0 z m 8.300225,-3.29598 c 0.04291,-0.22099 0.04284,0.22091 0,0 z m -20.626614,-0.5146 c 0.04315,-0.40646 0.03052,0.46781 0,0 z M 6.2917261,104.64846 c 0.04672,-0.31999 0.03022,0.38083 0,0 z m 41.9518069,-1.92064 c 0.379625,-0.0762 0.07285,0.0788 0,0 z m 1.519958,-10e-4 c 0.537896,-0.0696 0.112464,0.0725 0,0 z m -2.227529,-0.0473 c 0.215064,-0.0701 0.02084,0.0948 0,0 z m 3.649057,-4.9e-4 c 0.323371,-0.0724 0.06219,0.0817 0,0 z m 0.807721,-0.0475 c 0.269891,-0.0795 0.04899,0.0857 0,0 z m 0.640184,-0.05 c 0.214975,-0.07 0.02105,0.0945 0,0 z m 0.539101,-0.049 c 0.214975,-0.07 0.02105,0.0945 0,0 z m -11.84331,-2.02492 c 0.04291,-0.221 0.04284,0.22093 0,0 z m 25.431928,-1.00878 c 0.07076,-0.13049 0.02176,0.21125 0,0 z m 0.05651,-0.80457 c 0.03942,-0.3068 0.03938,0.30672 0,0 z M 7.7670381,98.326691 c 0.02973,-0.81749 0.03623,0.75238 0,0 z m 90.0249449,0.24505 c 0.0467,-0.31999 0.0302,0.38085 0,0 z m -34.465856,-1.70932 c 0.165592,-0.19885 0.231767,-0.13544 0,0 z m 3.542015,-0.71664 c 0.03753,-0.3933 0.03753,0.3933 0,0 z m -25.292566,-1.39676 c 0.05343,-0.23268 0.02877,0.29529 0,0 z m 25.339596,-0.0245 c 0.03942,-0.3068 0.03938,0.30672 0,0 z m 0.04901,-1.17623 c 0.03942,-0.3068 0.03938,0.30672 0,0 z M 6.7300031,92.886671 c 0.05343,-0.23268 0.02877,0.29529 0,0 z m 0,-0.68613 c 0.05343,-0.23268 0.02877,0.29529 0,0 z m 60.2858349,-0.14703 c 0.04315,-0.40646 0.03052,0.46781 0,0 z m -26.851235,-0.18378 c -0.331935,-0.39497 0.385346,0.39093 0,0 z m -0.467184,-0.46559 c -0.148455,-0.22796 0.270434,0.29708 0,0 z m 27.31959,-2.14416 c 0.04068,-0.49281 0.03054,0.55515 0,0 z M 9.7467711,88.953731 c 0.9252319,-0.0665 0.184144,0.0667 0,0 z m 3.0906449,0.002 c 0.214989,-0.0699 0.02102,0.0945 0,0 z m 54.124949,-1.16724 c 0.05343,-0.23268 0.02877,0.29526 0,0 z m -51.224214,0.055 c 0.165622,-0.19887 0.23173,-0.13543 0,0 z m 73.570614,-0.71664 c 0.04287,-0.22099 0.04281,0.2209 0,0 z m -22.392601,-0.46559 c 0.04672,-0.31999 0.03024,0.38085 0,0 z m 0,-0.83315 c 0.04671,-0.31999 0.03024,0.38083 0,0 z m 0.04052,-0.73922 c 0.07076,-0.13049 0.02176,0.21125 0,0 z m -36.129933,-0.98836 c -0.148458,-0.22796 0.27044,0.29706 0,0 z m 55.533724,-0.71689 c 0.165677,-0.19887 0.231776,-0.13542 0,0 z m -56.513913,-0.16486 c -0.182976,-0.22381 0.330082,0.26639 0,0 z m -0.539102,-0.4901 c -0.148458,-0.22796 0.27044,0.29706 0,0 z m -0.588111,-0.5391 c -0.148458,-0.22796 0.27044,0.29706 0,0 z m 42.644296,-0.22938 c -0.26745,-0.8045 -0.08499,-0.28531 0,0 z m -1.479467,-0.20842 c 0.215064,-0.0701 0.02084,0.0948 0,0 z m 0.68364,-0.0502 c 0.429783,-0.0711 0.08884,0.0756 0,0 z M 28.03322,81.552461 c -0.148458,-0.22796 0.27044,0.29706 0,0 z m -9.301636,-1.31508 c 0.07076,-0.13049 0.02176,0.21125 0,0 z m -0.04332,-0.63304 c 0.05343,-0.23268 0.02877,0.29529 0,0 z m 62.677138,-0.34715 c 0.07076,-0.13049 0.02176,0.21125 0,0 z m -62.724336,-0.65754 c 0.03942,-0.3068 0.03938,0.30673 0,0 z m 8.366573,-0.18378 c -0.622067,-0.63774 0.684185,0.61986 0,0 z m 61.469786,-0.0368 c 0.05359,-0.2327 0.02817,0.29543 0,0 z m -59.197536,-0.34306 c 0.04069,-0.49283 0.03052,0.55511 0,0 z m 44.22791,-0.44904 c 0.269889,-0.0795 0.04899,0.0857 0,0 z m 0.983248,-0.05 c 0.214975,-0.07 0.02105,0.0945 0,0 z m 13.988198,-0.26058 c 0.0394,-0.30679 0.03936,0.30672 0,0 z m -69.841811,0 c 0.04291,-0.221 0.04285,0.22093 0,0 z m 10.585998,-0.19603 c 0.04291,-0.22099 0.04284,0.22091 0,0 z m 59.199293,-0.56769 c 0.07084,-0.13049 0.02145,0.2113 0,0 z m -0.049,-0.4901 c 0.07084,-0.13049 0.02145,0.2113 0,0 z m -59.148477,-0.68204 c 0.05343,-0.23268 0.02877,0.29529 0,0 z m 42.403169,-0.61262 c 0.02968,-1.35069 0.02968,1.35069 0,0 z M 24.22062,74.503301 c 0.07076,-0.13049 0.02176,0.21125 0,0 z m 0.931175,0 c 0.07076,-0.13049 0.02176,0.21125 0,0 z m 4.120646,-0.11844 c 0.04291,-0.22099 0.04284,0.22091 0,0 z m 0.04514,-0.66571 c 0.07076,-0.13049 0.02176,0.21125 0,0 z m -4.20911,-0.14294 c 0.05343,-0.23268 0.02877,0.29526 0,0 z m 4.307129,-0.88625 c 0.07076,-0.13049 0.02176,0.21125 0,0 z m 48.274104,-0.049 c 0.07077,-0.13049 0.02175,0.21126 0,0 z m -53.469084,-0.049 c 0.07076,-0.13049 0.02176,0.21125 0,0 z m 0.93686,-0.0939 c 0.05343,-0.23268 0.02877,0.29529 0,0 z m 52.585105,-0.41658 c 0.04291,-0.221 0.04284,0.22093 0,0 z m -52.54178,-0.22462 c 0.07076,-0.13049 0.02176,0.21125 0,0 z m 46.421236,-1.24565 c 0.03753,-0.3933 0.03753,0.3933 0,0 z m 7.394785,-0.098 c 0.04291,-0.22099 0.04284,0.22091 0,0 z m -1.274241,-0.5391 c 0.04291,-0.22099 0.04284,0.22091 0,0 z m -6.175165,-0.4901 c 0.04291,-0.221 0.04284,0.22093 0,0 z m 6.122284,-0.17561 c 0.07077,-0.13049 0.02175,0.21126 0,0 z m -6.171293,-0.51052 c 0.04291,-0.221 0.04284,0.22093 0,0 z m -45.729495,-0.0286 c 0.07076,-0.13049 0.02176,0.21125 0,0 z m 53.22791,-0.31447 c 0.04291,-0.22099 0.04284,0.22091 0,0 z m -50.609785,-7.35139 c 0.368572,-0.35657 -0.254022,0.34907 0,0 z m 1.127213,-1.17622 c 0.368573,-0.35657 -0.254025,0.34907 0,0 z m 5.9208,-3.40614 c 0.04069,-0.49284 0.03052,0.55514 0,0 z m -0.06033,-0.78823 c 0.07076,-0.13049 0.02176,0.21125 0,0 z m -0.03475,-1.14764 c 0.03197,-0.91522 0.03197,0.91522 0,0 z m 37.467688,0.15928 c -0.148458,-0.22796 0.270463,0.29706 0,0 z m -0.735139,-0.73514 c -0.170064,-0.20891 0.320282,0.25283 0,0 z m -36.697795,-0.53093 c 0.07076,-0.13049 0.02176,0.21125 0,0 z m 10.425911,-4.8078 c 0.214975,-0.07 0.02105,0.0945 0,0 z m 0.882166,-0.049 c 0.215064,-0.0701 0.02084,0.0948 0,0 z m 3.096772,-1.60233 c 0.165592,-0.19885 0.231767,-0.13544 0,0 z m -4.013843,-2.31175 c -2.082996,-0.28266 -5.554828,-3.78739 -1.032884,-2.53298 4.846941,0.54844 8.919052,-2.69074 13.392795,-3.97261 2.309407,-3.33919 -3.476763,1.11579 -5.258935,1.15645 -4.296896,1.65094 -10.172689,3.17825 -13.07124,-1.47678 -2.744803,-3.16676 3.778975,-6.33559 6.043946,-8.20773 3.478484,0.73096 7.45214,1.48611 10.689221,3.68168 4.764895,-0.25768 5.393121,4.93994 3.340759,7.436 -3.962828,-0.54537 -7.78026,3.14599 -12.095398,3.92269 l -1.048237,0.0621 -0.96002,-0.0691 z m -1.101091,-12.01141 c 3.461355,-2.00599 -2.075428,-1.09451 0,6e-5 z m 6.403774,-0.56764 c -0.329694,-2.08249 -3.446776,0.42807 -4e-6,-4e-5 z m -14.121525,10.15533 c 0.04291,-0.22099 0.04284,0.22091 0,0 z m 28.656418,-0.18378 c -0.170064,-0.20891 0.320282,0.25283 0,0 z m -7.541171,-0.28181 c 0.463535,-0.44298 -0.348709,0.43542 0,0 z m -21.11343,-0.14702 c 0.05343,-0.23268 0.02877,0.29526 0,0 z m -0.0547,-0.78823 c 0.07076,-0.13049 0.02176,0.21125 0,0 z m -0.04901,-0.63713 c 0.07076,-0.13049 0.02176,0.21125 0,0 z m -0.04514,-0.70655 c 0.04291,-0.221 0.04284,0.22093 0,0 z m 27.644846,-0.14702 c 0.03942,-0.3068 0.03938,0.30672 0,0 z m 0.962562,0.0122 c -0.170064,-0.20891 0.320282,0.25283 0,0 z m -28.652786,-0.7964 c 0.03942,-0.3068 0.03938,0.30672 0,0 z m -0.05082,-1.15172 c 0.05343,-0.23268 0.02877,0.29529 0,0 z m -0.04719,-1.20073 c 0.03942,-0.3068 0.03938,0.30673 0,0 z m -0.04901,-1.17622 c 0.03942,-0.3068 0.03938,0.30672 0,0 z m -0.05082,-1.10271 c 0.05343,-0.23268 0.02877,0.29529 0,0 z m 4.376773,-1.10271 c 1.306366,-0.87835 -0.98764,1.0276 0,0 z m -4.425783,0.0245 c 0.05343,-0.23268 0.02877,0.29526 0,0 z m 21.7704,-0.72288 c -0.331935,-0.39497 0.385346,0.39093 0,0 z m -21.817599,-0.42883 c 0.03942,-0.3068 0.03938,0.30673 0,0 z m -0.04901,-1.17622 c 0.03942,-0.3068 0.03938,0.30673 0,0 z m 24.742166,-0.1266 c 0.07076,-0.13049 0.02176,0.21125 0,0 z m 7.645442,-0.098 c 0.07076,-0.13049 0.02176,0.21125 0,0 z m -0.04901,-0.58812 c 0.07076,-0.13049 0.02176,0.21125 0,0 z m -24.210566,-0.19603 c 0.07077,-0.13049 0.02175,0.21126 0,0 z m -8.177041,-0.21646 c 0.03942,-0.3068 0.03938,0.30672 0,0 z m 8.182726,-0.0735 c 0.05343,-0.23268 0.02877,0.29529 0,0 z m 14.212682,-0.19604 c 0.05343,-0.23268 0.02877,0.29529 0,0 z m 9.943191,-0.004 c 0.07076,-0.13049 0.02176,0.21125 0,0 z m -7.543552,-0.0694 c 0.04291,-0.221 0.04284,0.22093 0,0 z m -15.183481,-0.34305 c 0.03331,-0.74109 0.03331,0.74109 0,0 z m 4.550288,0.12252 c 0.05343,-0.23268 0.02877,0.29526 0,0 z m -10.689698,-0.24913 c 0.07076,-0.13049 0.02176,0.21125 0,0 z m 28.821306,-0.11843 c 0.04291,-0.22099 0.04284,0.22091 0,0 z m -9.903739,-0.0776 c 0.07076,-0.13049 0.02176,0.21125 0,0 z m -22.437743,-0.29008 c 0.04672,-0.31998 0.03021,0.38081 0,0 z m 2.496667,0.049 c 0.05343,-0.23268 0.02877,0.29526 0,0 z m 11.711394,-0.17154 c 0.04291,-0.221 0.04284,0.22093 0,0 z m 18.08054,-0.22462 c 0.07077,-0.13049 0.02175,0.21126 0,0 z m -22.691281,-0.098 c 0.07077,-0.13049 0.02175,0.21126 0,0 z m -3.965878,-0.31448 c 0.04291,-0.221 0.04284,0.22093 0,0 z m -3.134775,-0.31856 c 0.05343,-0.23268 0.02877,0.29529 0,0 z m 29.742925,-0.004 c 0.07076,-0.13049 0.02176,0.21125 0,0 z m -32.287612,-0.36358 c 0.03753,-0.3933 0.03753,0.3933 0,0 z m 32.242474,-0.34306 c 0.04291,-0.22099 0.04284,0.22091 0,0 z m -13.200415,-0.37654 c 0.214975,-0.07 0.02105,0.0945 0,0 z m 0.43802,0.001 c 0.269889,-0.0795 0.04899,0.0857 0,0 z m -13.820607,-0.0511 c 0.488944,-0.0736 0.09565,0.0749 0,0 z m 26.530121,-0.28806 c 0.07077,-0.13049 0.02175,0.21126 0,0 z m -32.238602,-0.51051 c 0.03753,-0.3933 0.03753,0.3933 0,0 z m 32.189593,-0.12661 c 0.07077,-0.13049 0.02175,0.21126 0,0 z m -0.09802,-1.22523 c 0.07076,-0.13049 0.02176,0.21125 0,0 z m -0.04901,-0.58811 c 0.07076,-0.13049 0.02176,0.21125 0,0 z m -0.04901,-0.49009 c 0.07077,-0.13049 0.02175,0.21126 0,0 z m -31.994542,-0.38799 c 0.04672,-0.31998 0.03021,0.38081 0,0 z m 31.945536,-0.10211 c 0.07076,-0.13049 0.02176,0.21125 0,0 z m -13.686636,-0.1029 c 0.214989,-0.0699 0.02102,0.0945 0,0 z m 0.931176,0 c 0.214975,-0.07 0.02105,0.0945 0,0 z m 12.70645,-0.33818 c 0.07076,-0.13049 0.02176,0.21125 0,0 z m -31.852138,-0.4615 c 0.04291,-0.22099 0.04284,0.22091 0,0 z m 0.04514,-0.6167 c 0.07076,-0.13049 0.02176,0.21125 0,0 z m 20.727042,-4.89084 c 0.165592,-0.19885 0.231767,-0.13544 0,0 z m 2.879293,-0.30801 c 0.269889,-0.0795 0.04899,0.0857 0,0 z m -2.381462,-0.99674 c 0.04291,-0.22099 0.04284,0.22091 0,0 z m 6.484453,-2.51172 c -0.912112,-0.95474 1.005965,0.99971 0,0 z m -24.037501,-0.94343 c 0.463543,-0.44297 -0.348706,0.43539 0,0 z m 0.392073,-0.39207 c 0.463548,-0.443 -0.348698,0.4354 0,0 z M 48.32011,7.2577411 c 0.214975,-0.07 0.02105,0.0945 0,0 z m 0.539102,-0.049 c 0.214975,-0.07 0.02105,0.0945 0,0 z m 4.165786,0 c 0.214975,-0.07 0.02105,0.0945 0,0 z m -3.457284,-0.0495 c 0.323371,-0.0724 0.06219,0.0817 0,0 z m 2.719082,0.001 c 0.269889,-0.0795 0.04899,0.0857 0,0 z"
     fill="#f4d12e"
     id="path4"
     style="stroke-width:0.049009" />
  <path
     d="m 33.430489,114.34559 c -5.963609,-1.3664 -11.367061,-4.65766 -17.520806,-5.4098 -4.141358,-0.72436 -12.4765199,-1.76156 -8.5894659,-7.83658 2.068065,-3.838779 -3.634971,-10.390539 2.13836,-12.094089 4.4090029,1.12281 7.5639989,-1.75712 8.7345039,-5.52649 1.628566,5.63474 -4.385304,7.9762 -8.9475709,6.53994 -3.161096,3.32575 4.2309919,9.61271 -1.195158,13.390719 0.576054,4.13043 8.4958429,3.13493 12.1102739,4.91556 5.138947,0.73737 10.149385,3.55982 15.398991,2.68378 5.407965,-2.4617 3.823229,-9.85076 0.721935,-13.615179 -3.975362,-5.57381 -7.085749,-12.09186 -12.542941,-16.3938 -2.389855,-1.36596 -6.228778,2.05051 -5.089811,-2.97055 0.182115,-4.58268 3.668905,-8.14345 4.949795,-12.43989 1.604646,-5.22383 4.137181,-10.03892 7.702372,-14.19491 3.60308,-4.63717 7.148088,-9.52869 5.368796,-15.7164 0.05269,-7.78561 -2.055433,-16.41529 2.321272,-23.45162 4.26494,-5.9187699 12.825089,-5.8611199 19.144448,-3.9554599 6.265116,1.8395199 10.127255,8.0880799 10.117136,14.4360199 0.685431,6.68658 0.176608,13.93666 4.179407,19.74491 3.862639,8.27208 11.381506,14.42569 13.854273,23.4092 1.172248,4.86414 2.993919,10.04811 1.680456,15.0348 -2.313189,3.82367 -6.114258,7.99211 -10.886962,8.19283 -4.388048,-0.19043 -5.097035,-5.91027 -5.529004,-7.35273 -0.411108,-5.52814 8.43168,-2.73891 9.534077,-2.93967 -6.292678,-1.93282 0.0089,-8.47056 -2.419674,-13.01563 -1.408658,-4.70531 -3.711445,-9.59571 -7.718197,-12.59446 0.04214,1.91663 4.422001,6.7338 5.378152,10.15185 1.370555,4.34987 3.120227,11.02569 -1.282271,14.08841 -6.09644,1.29883 -2.120563,-7.64478 -3.796929,-10.91023 -0.986861,-5.68788 -5.406056,-10.02185 -6.250732,-15.76555 -1.748023,-4.96566 -6.702695,-9.10069 -3.877226,-14.74574 -1.90806,-3.37807 -10.457311,-2.40724 -8.004708,-8.38136 2.352272,-4.46399 7.818182,0.66001 5.017872,4.19253 4.894705,3.06593 3.456514,-8.26671 -0.178485,-9.29241 -6.157847,-3.32875 -7.363159,5.56517 -8.00542,8.01989 -6.785092,1.90613 -1.688966,-8.51121 -8.153992,-7.84851 -4.242463,0.8253 -3.813487,10.21349 -0.50352,10.0079 0.59472,-1.62343 -3.904028,-6.16609 0.741276,-6.81318 5.932549,2.70742 -0.492174,7.25983 -3.039009,9.7807 0.371209,4.84165 7.100534,6.58587 11.32352,4.5425 3.014516,-0.0964 6.864379,-3.89893 8.724862,-2.85144 -3.662344,2.23572 -8.167584,4.06312 -12.479132,4.86011 -1.908997,-0.12394 -6.419469,-0.68021 -2.618279,1.60016 4.59775,2.79575 9.433523,-1.81743 13.73165,-3.25344 1.664714,2.40349 -5.431926,3.34061 -6.866477,5.61127 -3.786134,5.30126 -8.928725,0.69517 -11.020518,-3.38448 -1.468551,4.06763 -5.187261,8.73123 -4.376241,13.72544 -0.987384,3.47275 -3.923489,6.45165 -4.704391,10.18527 -1.731379,4.00302 -1.096912,8.54649 -1.754607,12.65358 -4.416339,-1.03058 -4.292396,-7.05519 -3.138528,-10.60557 -2.778025,1.98958 -1.916029,10.00294 1.943163,12.50811 3.90981,3.87061 8.323762,7.17807 12.511796,10.71384 2.981759,2.39016 -0.0372,5.75721 -2.061261,6.78259 1.790691,2.757249 5.133165,5.887189 3.528509,9.463999 3.929949,-1.86265 0.186611,-6.46201 0.129656,-8.10809 3.711426,3.22077 8.828658,2.95115 13.433593,2.12063 4.640883,0.38542 6.753497,-5.628149 10.080065,-5.965019 1.586902,3.09856 -3.700385,9.849589 0.348227,10.853539 1.409674,-7.303739 1.321243,-14.760429 1.274477,-22.161459 -0.810887,-4.57924 8.153672,-2.87062 2.502539,-1.56195 -3.406672,4.51237 0.125818,10.433 -0.28013,15.52921 -0.719639,4.315849 -2.0515,11.105779 4.01941,12.095919 5.425949,0.75021 8.294936,-5.07 12.952331,-6.7073 3.19884,-1.33663 12.504926,-2.78434 9.306836,-7.629469 -5.09679,-0.45955 -9.464828,-5.766 -6.73564,-10.69145 0.191593,5.09534 4.72174,8.27456 8.56591,11.18053 1.22836,5.224209 -7.05233,6.537669 -10.299696,8.948899 -5.152564,2.20047 -7.972648,9.23294 -14.412395,8.03491 -5.946399,0.60672 -6.86505,-7.71123 -13.26945,-5.3155 -5.818073,0.21286 -11.874106,-0.79961 -17.499671,1.02001 -3.082515,1.03075 -4.830729,4.9447 -8.421642,4.47985 z M 28.234565,61.275581 c 2.80043,-0.95307 1.709694,-6.20575 0.425815,-1.79606 -0.282955,0.27954 -1.947637,2.17092 -0.425815,1.79606 z m 39.695816,-17.89439 c 2.973069,-2.20963 -5.902824,-6.81919 -2.923603,-2.23424 0.538436,0.84038 1.803032,2.56368 2.923603,2.23424 z M 43.46273,30.055841 c 1.006913,-2.76738 -2.953546,-4.42067 -0.553295,-0.75354 -0.02127,0.1252 0.09003,1.13019 0.553295,0.75354 z m 14.27906,-0.36887 c 1.823703,-2.98436 -4.950506,-4.01517 -0.915916,-1.42579 0.516867,0.32771 -0.04017,1.77203 0.915916,1.42579 z m -0.0093,-13.23225 c 3.313113,-0.50803 4.443907,-2.79737 0.419521,-3.5778 -0.137466,0.63914 -2.172818,4.03813 -0.419521,3.5778 z m -13.421268,16.23545 c -0.715406,-1.82255 3.439079,-1.49015 0.373421,0.006 l -0.185951,0.0721 z m 6.321512,-0.4466 c -4.559404,-1.11406 2.502278,-1.27856 0,0 z"
     id="path6"
     style="stroke-width:0.049009" />
</svg>
