<svg height="528.33429" width="527.62518" xmlns="http://www.w3.org/2000/svg"><g stroke="#000" transform="matrix(1.532388 0 0 1.3939671 -133.165986 -210.390236)"><g stroke-width=".945716"><path d="m260.50744 170.69515-154.52332 170.09579 153.87948 169.38706 154.52331-170.09579z" fill="#019833"/><path d="m259.8636 171.40389v-14.88338l-168.044108 184.97916h14.164628z" fill="#66fe98"/><path d="m259.47729 171.40389v-14.88338l168.0441 184.97916h-14.16463z" fill="#45fe02"/><path d="m259.8636 511.17022v14.88338l-168.044108-184.97916h14.164628z" fill="#017d17"/></g><path d="m122.99448 175.30643h108.35396l6.60139 7.26665v22.30116l-5.23559 7.01608h-11.83699v110.75406l101.98019-110.75406h-16.84494l-5.9185-7.01608v-23.55403l5.46323-5.51264h109.71976l5.46322 6.01379v22.05058l-248.12143 280.14258h-28.22666l-8.17033-5.19252v-267.93397h-13.68257l-5.00795-5.51264v-23.55403z" fill="none" stroke-width="18.9143"/><path d="m259.47729 511.17022v14.88338l168.0441-184.97916h-14.16463z" fill="#005d04" stroke-width=".945716"/><path d="m259.41018 155.14848-168.676154 185.67491 167.973344 184.90128 168.67616-185.67492z" fill="none" stroke-width="5.67429"/><path d="m232.50008 186.64163 6.11655-3.54366-6.27751-6.91014h-109.29305l-5.55319 6.11281v23.1224l6.15679 6.77725 2.93756-6.77725-3.86308-4.2524v-16.30085l2.89731-2.83492h104.30324z" fill="#fefefe" stroke-width=".945716"/><path d="m828.9375 369.5-4.28125 4.28125v15.71875l3.75 3.75h19.8125v15.1875l-131.0625 132.84375v-147.84375h21.78125l4.46875-4.46875v-15.90625l-4.125-3.1875h-114.625l-3.75 3.75v16.25l3.8125 3.8125h19.9375v272.25l3.75 3.75h22.65625l274.65625-283.40625v-12.5l-4.28125-4.28125z" fill="none" transform="matrix(.90138601 0 0 .99222542 -437.42287 -185.30615)"/><path d="m143.48158 204.87424v270.62073l3.18688 4.0092-2.49916 5.24301-7.06148-7.74876v-265.1081z" fill="#fefefe" stroke-width=".945716"/><path d="m125.82451 204.87424-1.82108 6.51494h13.2028l7.2843-6.51494z" fill="#808080" stroke-width=".945716"/><path d="m307.18636 212.19144 2.89731-6.55577-4.18501-4.2524v-14.52901l4.82886-5.31551h100.76208l3.86308 5.66987 5.4727-4.2524-5.63366-6.20141h-108.32729l-5.39221 5.93564v23.29957l5.59342 5.80276m-87.54309 111.87785-10.52288 28.10566 118.7898-131.1155v-15.59211z" fill="#fefefe" stroke-width=".945716"/><path d="m232.25896 185.83056 5.2356-3.75862v22.8023l-6.03231 6.64023h-11.72317v112.38277l-10.69882 27.81381v-146.83681h19.57656l3.64214-3.25747z" fill="#808080" stroke-width=".945716"/><path d="m828.9375 369.5-4.28125 4.28125v15.71875l3.75 3.75h19.8125v15.1875l-131.0625 132.84375v-147.84375h21.78125l4.46875-4.46875v-15.90625l-4.125-3.1875h-114.625l-3.75 3.75v16.25l3.8125 3.8125h19.9375v272.25l3.75 3.75h22.65625l274.65625-283.40625v-12.5l-4.28125-4.28125z" fill="#ccc" transform="matrix(.90138601 0 0 .99222542 -437.42287 -185.30615)"/><path d="m415.35268 185.9329 5.49849-3.49448v21.92152l-249.39111 280.5213h-26.47746l2.52966-5.5331h20.28119l247.23731-281.01241z" fill="#808080" stroke-width=".945716"/><path d="m327.29631 205.25009-5.57703 6.38966h-14.56861l3.41452-6.38966z" fill="#808080" stroke-width=".945716"/><g fill="#ccc" stroke-miterlimit="10" transform="matrix(.90138601 0 0 .99222542 -92.530288 -192.23791)"><path d="m399.78125 560a1.2330102 1.2330102 0 0 0 -.5625.28125l-5.3125 4.5625a1.2330102 1.2330102 0 0 0 -.34375.53125l-5.3125 14.875a1.2330102 1.2330102 0 0 0 .28125 1.28125l4.0625 4.0625a1.2330102 1.2330102 0 0 0 .875.34375h16.40625a1.2330102 1.2330102 0 0 0 .875-.34375l4.28125-4.3125a1.2330102 1.2330102 0 0 0 .3125-.53125l4.5625-15.65625a1.2330102 1.2330102 0 0 0 -.3125-1.21875l-3.53125-3.53125a1.2330102 1.2330102 0 0 0 -.875-.34375h-15.15625a1.2330102 1.2330102 0 0 0 -.25 0zm-30.0625 41.9375a1.2330102 1.2330102 0 0 0 -.9375.90625l-2.03125 8.0625a1.2330102 1.2330102 0 0 0 1.1875 1.53125h9.65625l-23.9375 68.34375a1.2330102 1.2330102 0 0 0 1.15625 1.625h34.84375a1.2330102 1.2330102 0 0 0 1.1875-.84375l2.28125-7.34375a1.2330102 1.2330102 0 0 0 -1.1875-1.59375h-7.875l23.6875-69.0625a1.2330102 1.2330102 0 0 0 -1.15625-1.625h-36.625a1.2330102 1.2330102 0 0 0 -.25 0zm110.875.25a1.2330102 1.2330102 0 0 0 -.6875.40625l-7.25 8.1875h-11.53125l-7.6875-7.96875a1.2330102 1.2330102 0 0 0 -.875-.375h-27.53125a1.2330102 1.2330102 0 0 0 -1.15625.8125l-2.53125 7.5625a1.2330102 1.2330102 0 0 0 1.15625 1.625h7.375l-22.9375 67.59375a1.2330102 1.2330102 0 0 0 1.15625 1.625h29.3125a1.2330102 1.2330102 0 0 0 1.15625-.8125l2.25-6.59375a1.2330102 1.2330102 0 0 0 -1.15625-1.625h-5.125l14.625-46.03125h26.46875l-16.6875 53.46875a1.2330102 1.2330102 0 0 0 1.1875 1.59375h28.28125a1.2330102 1.2330102 0 0 0 1.125-.75l2.53125-6.0625a1.2330102 1.2330102 0 0 0 -1.125-1.6875h-5.125l14.875-46.8125h25.1875l-16.9375 53.71875a1.2330102 1.2330102 0 0 0 1.1875 1.59375h31.0625a1.2330102 1.2330102 0 0 0 1.15625-.78125l2.53125-6.59375a1.2330102 1.2330102 0 0 0 -1.15625-1.65625h-6.15625l18.71875-60.78125a1.2330102 1.2330102 0 0 0 -.1875-1.125l-5.8125-7.8125a1.2330102 1.2330102 0 0 0 -1-.46875h-22.21875a1.2330102 1.2330102 0 0 0 -.90625.375l-7 7.6875h-12.25l-7.25-7.9375a1.2330102 1.2330102 0 0 0 -.90625-.375h-17.90625a1.2330102 1.2330102 0 0 0 -.25 0z" stroke-width="8"/><path d="m400.03125 561.21875-5.3125 4.5625-5.3125 14.875 4.0625 4.0625h16.40625l4.28125-4.3125 4.5625-15.65625-3.53125-3.53125zm-30.0625 41.9375-2.03125 8.0625h11.375l-24.5 69.96875h34.84375l2.28125-7.34375h-9.59375l24.25-70.6875zm110.875.25-7.59375 8.59375h-12.625l-8.0625-8.34375h-27.53125l-2.53125 7.5625h9.09375l-23.5 69.21875h29.3125l2.25-6.59375h-6.8125l15.40625-48.46875h29.0625l-17.1875 55.0625h28.28125l2.53125-6.0625h-6.8125l15.65625-49.25h27.78125l-17.4375 55.3125h31.0625l2.53125-6.59375h-7.84375l19.21875-62.375-5.8125-7.8125h-22.21875l-7.34375 8.0625h-13.375l-7.59375-8.3125z"/></g></g></svg>