<?xml version="1.0" encoding="UTF-8" standalone="no"?>
<svg
   width="227.2289"
   height="117.53426"
   viewBox="0 0 227.22889 117.53427"
   version="1.1"
   id="svg1008"
   sodipodi:docname="ha-spor.svg"
   inkscape:version="1.1.2 (0a00cf5339, 2022-02-04, custom)"
   xmlns:inkscape="http://www.inkscape.org/namespaces/inkscape"
   xmlns:sodipodi="http://sodipodi.sourceforge.net/DTD/sodipodi-0.dtd"
   xmlns="http://www.w3.org/2000/svg"
   xmlns:svg="http://www.w3.org/2000/svg">
  <sodipodi:namedview
     id="namedview1010"
     pagecolor="#ffffff"
     bordercolor="#666666"
     borderopacity="1.0"
     inkscape:pageshadow="2"
     inkscape:pageopacity="0.0"
     inkscape:pagecheckerboard="0"
     showgrid="false"
     inkscape:zoom="0.8753801"
     inkscape:cx="-21.704857"
     inkscape:cy="-122.23262"
     inkscape:window-width="1914"
     inkscape:window-height="2129"
     inkscape:window-x="3840"
     inkscape:window-y="0"
     inkscape:window-maximized="1"
     inkscape:current-layer="svg1008" />
  <defs
     id="defs50">
    <clipPath
       id="clip-0">
      <path
         clip-rule="nonzero"
         d="m 188,840 h 5 v 1.85547 h -5 z m 0,0"
         id="path2" />
    </clipPath>
    <clipPath
       id="clip-1">
      <path
         clip-rule="nonzero"
         d="m 207,825 h 22 v 16.85547 h -22 z m 0,0"
         id="path5" />
    </clipPath>
    <clipPath
       id="clip-2">
      <path
         clip-rule="nonzero"
         d="m 246,839 h 10 v 2.85547 h -10 z m 0,0"
         id="path8" />
    </clipPath>
    <clipPath
       id="clip-3">
      <path
         clip-rule="nonzero"
         d="m 251,839 h 10 v 2.85547 h -10 z m 0,0"
         id="path11" />
    </clipPath>
    <clipPath
       id="clip-4">
      <path
         clip-rule="nonzero"
         d="m 266,829 h 10 v 12.85547 h -10 z m 0,0"
         id="path14" />
    </clipPath>
    <clipPath
       id="clip-5">
      <path
         clip-rule="nonzero"
         d="m 275,839 h 12 v 2.85547 h -12 z m 0,0"
         id="path17" />
    </clipPath>
    <clipPath
       id="clip-6">
      <path
         clip-rule="nonzero"
         d="m 276,840 h 6 v 1.85547 h -6 z m 0,0"
         id="path20" />
    </clipPath>
    <clipPath
       id="clip-7">
      <path
         clip-rule="nonzero"
         d="m 286,827 h 10 v 14.85547 h -10 z m 0,0"
         id="path23" />
    </clipPath>
    <clipPath
       id="clip-8">
      <path
         clip-rule="nonzero"
         d="m 307,837 h 3 v 4.85547 h -3 z m 0,0"
         id="path26" />
    </clipPath>
    <clipPath
       id="clip-9">
      <path
         clip-rule="nonzero"
         d="m 320,826 h 22 v 15.85547 h -22 z m 0,0"
         id="path29" />
    </clipPath>
    <clipPath
       id="clip-10">
      <path
         clip-rule="nonzero"
         d="m 356,839 h 10 v 2.85547 h -10 z m 0,0"
         id="path32" />
    </clipPath>
    <clipPath
       id="clip-11">
      <path
         clip-rule="nonzero"
         d="m 360,839 h 11 v 2.85547 h -11 z m 0,0"
         id="path35" />
    </clipPath>
    <clipPath
       id="clip-12">
      <path
         clip-rule="nonzero"
         d="m 374,832 h 8 v 9.85547 h -8 z m 0,0"
         id="path38" />
    </clipPath>
    <clipPath
       id="clip-13">
      <path
         clip-rule="nonzero"
         d="m 382,840 h 12 v 1.85547 h -12 z m 0,0"
         id="path41" />
    </clipPath>
    <clipPath
       id="clip-14">
      <path
         clip-rule="nonzero"
         d="m 384,840 h 6 v 1.85547 h -6 z m 0,0"
         id="path44" />
    </clipPath>
    <clipPath
       id="clip-15">
      <path
         clip-rule="nonzero"
         d="m 397,829 h 9 v 12.85547 h -9 z m 0,0"
         id="path47" />
    </clipPath>
  </defs>
  <path
     style="color:#000000;fill:#000000;stroke-linecap:round;stroke-linejoin:round;-inkscape-stroke:none"
     d="m 112.32227,8.1953125 a 0.49902389,0.49902389 0 0 0 -0.01,0.00195 l -1.39844,0.027344 a 0.49902389,0.49902389 0 0 0 -0.0508,0.00195 l -1.3789,0.1699219 -1.34766,0.058594 a 0.49902389,0.49902389 0 0 0 -0.0566,0.00586 l -1.41992,0.2246094 -1.44922,0.1992187 a 0.49902389,0.49902389 0 0 0 -0.0176,0.00195 l -1.45703,0.2578125 -1.50586,0.2578125 a 0.49902389,0.49902389 0 0 0 -0.0215,0.00391 l -1.56835,0.3398438 -1.509771,0.3125002 a 0.49902389,0.49902389 0 0 0 -0.01172,0.002 l -1.480469,0.34375 a 0.49902389,0.49902389 0 0 0 -0.01758,0.0059 l -1.457032,0.398438 a 0.49902389,0.49902389 0 0 0 -0.02148,0.0059 l -1.421875,0.457031 a 0.49902389,0.49902389 0 0 0 -0.0059,0.002 l -1.457032,0.484375 a 0.49902389,0.49902389 0 0 0 -0.0098,0.0039 l -1.425781,0.511719 a 0.49902389,0.49902389 0 0 0 -0.01758,0.0059 l -1.425781,0.570312 a 0.49902389,0.49902389 0 0 0 -0.01172,0.0059 l -1.453125,0.628906 a 0.49902389,0.49902389 0 0 0 -0.01758,0.0078 l -1.423828,0.68164 -1.398437,0.65625 a 0.49902389,0.49902389 0 0 0 -0.03125,0.01563 l -1.365235,0.767578 -1.363281,0.740235 a 0.49902389,0.49902389 0 0 0 -0.02344,0.01563 l -1.339844,0.828125 a 0.49902389,0.49902389 0 0 0 -0.0078,0.0039 l -1.371093,0.882812 a 0.49902389,0.49902389 0 0 0 -0.01758,0.01172 l -1.339843,0.941406 a 0.49902389,0.49902389 0 0 0 -0.01367,0.0098 l -1.394531,1.054687 a 0.49902389,0.49902389 0 0 0 -0.0039,0.0039 L 76.404297,21.1875 a 0.49902389,0.49902389 0 0 0 -0.02734,0.02344 l -1.339844,1.199219 a 0.49902389,0.49902389 0 0 0 -0.0039,0.002 l -1.308594,1.191407 -1.308593,1.136718 a 0.49902389,0.49902389 0 0 0 -0.0293,0.0293 L 71.21875,25.96875 a 0.49902389,0.49902389 0 0 0 -0.0039,0.0039 l -1.140625,1.195313 a 0.49902389,0.49902389 0 0 0 -0.01172,0.01367 l -1.113281,1.257812 a 0.49902389,0.49902389 0 0 0 -0.0059,0.0039 l -1.054687,1.226563 a 0.49902389,0.49902389 0 0 0 -0.01367,0.01953 l -1.023438,1.306641 -1.05664,1.339843 a 0.49902389,0.49902389 0 0 0 -0.01367,0.01563 l -0.996094,1.371094 a 0.49902389,0.49902389 0 0 0 -0.01172,0.01563 l -0.96875,1.453125 a 0.49902389,0.49902389 0 0 0 -0.002,0.0059 l -0.941406,1.453125 a 0.49902389,0.49902389 0 0 0 -0.01172,0.01758 L 61.935547,38.207031 61.025391,39.75 a 0.49902389,0.49902389 0 0 0 -0.01172,0.02148 l -0.828125,1.566407 a 0.49902389,0.49902389 0 0 0 -0.0039,0.0059 l -0.796875,1.566406 a 0.49902389,0.49902389 0 0 0 -0.0059,0.01367 l -0.742187,1.570313 a 0.49902389,0.49902389 0 0 0 -0.01367,0.0293 l -0.628906,1.597657 a 0.49902389,0.49902389 0 0 0 -0.0059,0.01563 l -0.570312,1.59375 a 0.49902389,0.49902389 0 0 0 -0.0059,0.01758 l -0.484375,1.542969 a 0.49902389,0.49902389 0 0 0 -0.0059,0.02344 l -0.398438,1.507813 a 0.49902389,0.49902389 0 0 0 -0.0039,0.01172 l -0.34375,1.457032 a 0.49902389,0.49902389 0 0 0 -0.0059,0.0293 l -0.253906,1.453125 a 0.49902389,0.49902389 0 0 0 -0.002,0.0098 l -0.230468,1.511719 a 0.49902389,0.49902389 0 0 0 -0.0039,0.05859 l -0.05469,1.464843 -0.142578,1.529297 a 0.49902389,0.49902389 0 0 0 -0.002,0.04687 v 3.019531 a 0.49902389,0.49902389 0 0 0 0,0.01953 l 0.05859,1.511718 a 0.49902389,0.49902389 0 0 0 0.002,0.03711 l 0.171875,1.484375 a 0.49902389,0.49902389 0 0 0 0.002,0.01953 l 0.226562,1.480469 a 0.49902389,0.49902389 0 0 0 0.0039,0.01953 l 0.285157,1.457031 a 0.49902389,0.49902389 0 0 0 0.002,0.0098 l 0.3125,1.453125 a 0.49902389,0.49902389 0 0 0 0.002,0.0078 l 0.34375,1.480469 a 0.49902389,0.49902389 0 0 0 0.0078,0.02734 l 0.425782,1.457031 a 0.49902389,0.49902389 0 0 0 0.002,0.0098 l 0.457031,1.453125 a 0.49902389,0.49902389 0 0 0 0.0059,0.01563 l 0.515625,1.453125 a 0.49902389,0.49902389 0 0 0 0.0078,0.01953 l 0.570312,1.425781 a 0.49902389,0.49902389 0 0 0 0.0059,0.01563 l 0.625,1.425782 a 0.49902389,0.49902389 0 0 0 0.01172,0.02344 l 0.714843,1.425781 a 0.49902389,0.49902389 0 0 0 0.0039,0.0078 l 0.738281,1.398437 a 0.49902389,0.49902389 0 0 0 0.01563,0.0293 l 0.855469,1.394531 a 0.49902389,0.49902389 0 0 0 0.0039,0.0059 l 0.886719,1.398437 a 0.49902389,0.49902389 0 0 0 0.0098,0.01367 l 0.910156,1.339844 a 0.49902389,0.49902389 0 0 0 0.01758,0.02344 l 0.96875,1.253907 a 0.49902389,0.49902389 0 0 0 0.01758,0.02148 l 1.085937,1.253906 a 0.49902389,0.49902389 0 0 0 0.002,0.0039 l 1.082032,1.226562 a 0.49902389,0.49902389 0 0 0 0.0059,0.0059 L 67.957031,89.75 a 0.49902389,0.49902389 0 0 0 0.0293,0.0293 l 1.222656,1.136719 1.189453,1.164062 a 0.49902389,0.49902389 0 0 0 0.03125,0.02734 l 1.339844,1.113281 a 0.49902389,0.49902389 0 0 0 0.0039,0.002 l 1.371094,1.113281 a 0.49902389,0.49902389 0 0 0 0.02344,0.01758 l 1.425781,1.027343 a 0.49902389,0.49902389 0 0 0 0.01758,0.01367 l 1.480469,0.96875 a 0.49902389,0.49902389 0 0 0 0.0098,0.0059 l 1.511719,0.941406 a 0.49902389,0.49902389 0 0 0 0.0078,0.0039 l 1.570312,0.9375 a 0.49902389,0.49902389 0 0 0 0.02344,0.01367 l 1.5625,0.826172 1.591797,0.880859 a 0.49902389,0.49902389 0 0 0 0.01172,0.0059 l 1.597657,0.828124 a 0.49902389,0.49902389 0 0 0 0.01367,0.006 l 1.652344,0.79688 a 0.49902389,0.49902389 0 0 0 0.02148,0.01 l 1.683593,0.71484 a 0.49902389,0.49902389 0 0 0 0.0098,0.004 l 1.710937,0.68359 a 0.49902389,0.49902389 0 0 0 0.0078,0.004 l 1.652344,0.62891 a 0.49902389,0.49902389 0 0 0 0.02539,0.008 l 1.683594,0.53906 a 0.49902389,0.49902389 0 0 0 0.0039,0.002 l 1.652344,0.51562 a 0.49902389,0.49902389 0 0 0 0.0059,0.002 l 1.625,0.48438 a 0.49902389,0.49902389 0 0 0 0.01172,0.004 l 1.683594,0.45704 a 0.49902389,0.49902389 0 0 0 0.02344,0.006 l 1.679688,0.37109 a 0.49902389,0.49902389 0 0 0 0.02734,0.004 l 1.742186,0.28515 1.73828,0.28516 a 0.49902389,0.49902389 0 0 0 0.0312,0.004 l 1.71094,0.16797 1.70898,0.17188 a 0.49902389,0.49902389 0 0 0 0.043,0.002 l 1.70508,0.0273 1.64844,0.0586 a 0.49902389,0.49902389 0 0 0 0.0176,0 h 1.68359 a 0.49902389,0.49902389 0 0 0 0.008,0 l 1.625,-0.0273 a 0.49902389,0.49902389 0 0 0 0.043,-0.002 l 1.67578,-0.17187 1.62305,-0.14258 a 0.49902389,0.49902389 0 0 0 0.008,-0.002 l 1.57032,-0.16797 a 0.49902389,0.49902389 0 0 0 0.0234,-0.002 l 1.51172,-0.23047 a 0.49902389,0.49902389 0 0 0 0.0156,-0.004 l 1.51172,-0.28516 a 0.49902389,0.49902389 0 0 0 0.01,-0.002 l 1.51172,-0.3125 1.50781,-0.3125 a 0.49902389,0.49902389 0 0 0 0.0215,-0.004 l 1.45703,-0.37109 a 0.49902389,0.49902389 0 0 0 0.0117,-0.004 l 1.42578,-0.39843 a 0.49902389,0.49902389 0 0 0 0.004,0 l 1.39453,-0.40235 a 0.49902389,0.49902389 0 0 0 0.0254,-0.01 l 1.39843,-0.48438 a 0.49902389,0.49902389 0 0 0 0.0195,-0.006 l 1.36719,-0.53906 a 0.49902389,0.49902389 0 0 0 0.0215,-0.01 l 1.33984,-0.60156 a 0.49902389,0.49902389 0 0 0 0.0215,-0.01 l 1.33985,-0.6836 a 0.49902389,0.49902389 0 0 0 0.004,-0.002 l 1.3711,-0.71094 a 0.49902389,0.49902389 0 0 0 0.0137,-0.008 l 1.36719,-0.76953 a 0.49902389,0.49902389 0 0 0 0.0117,-0.008 l 1.33789,-0.798824 1.39843,-0.824219 a 0.49902389,0.49902389 0 0 0 0.0332,-0.02148 l 1.33984,-0.941406 a 0.49902389,0.49902389 0 0 0 0.004,-0.002 l 1.3125,-0.941407 a 0.49902389,0.49902389 0 0 0 0.0156,-0.01367 l 1.28125,-1 a 0.49902389,0.49902389 0 0 0 0.0137,-0.0098 l 1.22657,-1.023438 a 0.49902389,0.49902389 0 0 0 0.01,-0.0078 l 1.16797,-1.027344 a 0.49902389,0.49902389 0 0 0 0.004,-0.0039 l 1.14062,-1.027344 a 0.49902389,0.49902389 0 0 0 0.004,-0.0039 l 1.08594,-0.996094 a 0.49902389,0.49902389 0 0 0 0.0117,-0.0098 l 0.9961,-0.972657 a 0.49902389,0.49902389 0 0 0 0.0137,-0.01367 l 0.96875,-1.023437 a 0.49902389,0.49902389 0 0 0 0.0137,-0.01758 l 0.91406,-1.054688 a 0.49902389,0.49902389 0 0 0 0.0156,-0.01758 l 0.85547,-1.085937 a 0.49902389,0.49902389 0 0 0 0.004,-0.0039 l 0.85547,-1.113281 a 0.49902389,0.49902389 0 0 0 0.004,-0.0059 l 0.82812,-1.109375 a 0.49902389,0.49902389 0 0 0 0.0215,-0.03125 l 0.73828,-1.167969 a 0.49902389,0.49902389 0 0 0 0.01,-0.01563 L 154.75,82.908203 a 0.49902389,0.49902389 0 0 0 0.01,-0.01953 l 0.6289,-1.195313 a 0.49902389,0.49902389 0 0 0 0.006,-0.0098 l 0.59766,-1.199219 a 0.49902389,0.49902389 0 0 0 0.006,-0.01172 l 0.57031,-1.226562 a 0.49902389,0.49902389 0 0 0 0.004,-0.0098 l 0.54296,-1.226562 a 0.49902389,0.49902389 0 0 0 0.004,-0.0078 l 0.51172,-1.222656 a 0.49902389,0.49902389 0 0 0 0.006,-0.01758 l 0.48437,-1.285157 a 0.49902389,0.49902389 0 0 0 0.006,-0.01758 l 0.42969,-1.28125 a 0.49902389,0.49902389 0 0 0 0.002,-0.0039 l 0.39844,-1.226562 a 0.49902389,0.49902389 0 0 0 0.0117,-0.04102 l 0.31055,-1.330078 0.36718,-1.330078 a 0.49902389,0.49902389 0 0 0 0.006,-0.02148 l 0.31641,-1.371093 a 0.49902389,0.49902389 0 0 0 0.002,-0.0039 l 0.3125,-1.425781 a 0.49902389,0.49902389 0 0 0 0.002,-0.0098 l 0.28515,-1.425781 a 0.49902389,0.49902389 0 0 0 0.004,-0.02734 l 0.19922,-1.394531 a 0.49902389,0.49902389 0 0 0 0,-0.002 l 0.19922,-1.425781 a 0.49902389,0.49902389 0 0 0 0.002,-0.0078 l 0.17187,-1.398437 a 0.49902389,0.49902389 0 0 0 0.002,-0.03906 l 0.0586,-1.3125 a 0.49902389,0.49902389 0 0 0 0,-0.01172 l 0.0293,-1.367188 0.0273,-1.3125 a 0.49902389,0.49902389 0 0 0 0,-0.0098 v -2.707031 a 0.49902389,0.49902389 0 0 0 0,-0.0098 l -0.0273,-1.371094 a 0.49902389,0.49902389 0 0 0 -0.006,-0.05469 L 161.0625,52.25 l -0.0586,-1.322266 a 0.49902389,0.49902389 0 0 0 -0.006,-0.06445 l -0.22657,-1.277344 -0.19921,-1.25 a 0.49902389,0.49902389 0 0 0 -0.002,-0.0098 l -0.22656,-1.253906 a 0.49902389,0.49902389 0 0 0 0,-0.0039 l -0.23047,-1.226562 a 0.49902389,0.49902389 0 0 0 -0.004,-0.02148 l -0.57031,-2.453125 a 0.49902389,0.49902389 0 0 0 -0.004,-0.01758 l -0.33985,-1.253906 a 0.49902389,0.49902389 0 0 0 -0.008,-0.02539 l -0.40234,-1.226562 a 0.49902389,0.49902389 0 0 0 -0.004,-0.0098 l -0.42578,-1.199218 a 0.49902389,0.49902389 0 0 0 -0.008,-0.01953 l -0.45704,-1.140625 a 0.49902389,0.49902389 0 0 0 -0.008,-0.01758 l -0.45703,-1.023437 a 0.49902389,0.49902389 0 0 0 -0.002,-0.0078 l -0.45313,-0.96875 a 0.49902389,0.49902389 0 0 0 -0.01,-0.01758 l -0.51563,-1 a 0.49902389,0.49902389 0 0 0 -0.0137,-0.02539 l -0.53906,-0.90625 -0.53321,-0.988281 a 0.49902389,0.49902389 0 0 0 -0.0156,-0.02539 l -0.60156,-0.96875 a 0.49902389,0.49902389 0 0 0 -0.0137,-0.02148 L 154.07617,31.5625 a 0.49902389,0.49902389 0 0 0 -0.008,-0.01172 l -0.71484,-0.96875 a 0.49902389,0.49902389 0 0 0 -0.0195,-0.02539 l -0.76953,-0.914063 a 0.49902389,0.49902389 0 0 0 -0.0117,-0.01172 l -0.74218,-0.824218 a 0.49902389,0.49902389 0 0 0 -0.0117,-0.01172 l -0.76953,-0.800781 a 0.49902389,0.49902389 0 0 0 -0.006,-0.0078 l -0.76953,-0.769531 a 0.49902389,0.49902389 0 0 0 -0.0215,-0.01953 l -0.76562,-0.679688 -0.70899,-0.654297 a 0.49902389,0.49902389 0 0 0 -0.008,-0.0078 l -0.70313,-0.619141 -0.61914,-0.613281 a 0.49902389,0.49902389 0 0 0 -0.006,-0.0078 l -0.625,-0.597656 -0.625,-0.597656 -0.58984,-0.587891 -0.53906,-0.566406 a 0.49902389,0.49902389 0 0 0 -0.0176,-0.01758 l -0.53516,-0.507813 -0.50586,-0.505859 -0.45117,-0.478516 a 0.49902389,0.49902389 0 0 0 -0.0215,-0.02148 l -0.44727,-0.419922 -0.45117,-0.453125 a 0.49902389,0.49902389 0 0 0 -0.0273,-0.02344 l -0.39844,-0.34375 a 0.49902389,0.49902389 0 0 0 -0.004,-0.0039 l -0.36523,-0.30664 -0.33594,-0.306641 a 0.49902389,0.49902389 0 0 0 -0.0566,-0.04297 l -0.32226,-0.220703 -0.30079,-0.240234 a 0.49902389,0.49902389 0 0 0 -0.0547,-0.03906 l -0.26172,-0.158203 -0.0781,-0.06055 a 0.498974,0.498974 0 0 0 0.008,-0.0957 0.498974,0.498974 0 0 0 -0.55079,-0.441406 l -0.25781,0.0293 h -0.0273 a 0.49902389,0.49902389 0 0 0 -0.49805,0.498047 v 0.08594 a 0.49902389,0.49902389 0 0 0 0.27539,0.445313 l 0.0527,0.02734 -0.0176,-0.02734 a 0.49902389,0.49902389 0 0 0 0.2539,0.195312 l 0.0957,0.03125 0.16211,0.125 a 0.49902389,0.49902389 0 0 0 0.043,0.0293 l 0.25781,0.154297 0.28906,0.232422 a 0.49902389,0.49902389 0 0 0 0.0332,0.02344 l 0.31055,0.210938 0.31641,0.289062 a 0.49902389,0.49902389 0 0 0 0.0156,0.01172 l 0.36719,0.310547 0.38281,0.330078 0.44336,0.445313 a 0.49902389,0.49902389 0 0 0 0.0117,0.0098 l 0.44336,0.416016 0.44531,0.472656 a 0.49902389,0.49902389 0 0 0 0.01,0.01172 l 0.51562,0.515625 a 0.49902389,0.49902389 0 0 0 0.01,0.0078 l 0.53125,0.503907 0.5332,0.560546 a 0.49902389,0.49902389 0 0 0 0.008,0.0098 l 0.59766,0.597656 a 0.49902389,0.49902389 0 0 0 0.008,0.0078 l 0.63086,0.601562 0.6211,0.59375 0.625,0.621094 a 0.49902389,0.49902389 0 0 0 0.0215,0.02148 l 0.71094,0.625 0.70703,0.652344 a 0.49902389,0.49902389 0 0 0 0.006,0.0059 l 0.75976,0.673828 0.75586,0.755859 0.75977,0.791016 0.73047,0.8125 0.7539,0.894531 0.70118,0.951172 0.64062,0.923828 0.58789,0.945312 0.53125,0.984375 a 0.49902389,0.49902389 0 0 0 0.01,0.01563 l 0.53711,0.902344 0.5039,0.978516 0.44727,0.955078 0.45117,1.011719 0.44922,1.121093 0.41992,1.185547 0.39648,1.207032 0.33399,1.232421 0.56641,2.435547 0.22851,1.212891 0.22461,1.248047 0.19922,1.248047 a 0.49902389,0.49902389 0 0 0 0.002,0.0078 l 0.22071,1.25 0.0566,1.310547 a 0.49902389,0.49902389 0 0 0 0.004,0.04297 l 0.16797,1.28125 0.0273,1.339844 v 2.695312 l -0.0273,1.308594 -0.0273,1.361328 -0.0586,1.287109 -0.16797,1.375 -0.19921,1.419922 -0.19727,1.38086 -0.28125,1.408203 -0.31055,1.417968 -0.31445,1.357422 -0.36719,1.330078 a 0.49902389,0.49902389 0 0 0 -0.006,0.01953 l -0.30664,1.318359 -0.39258,1.205078 -0.42578,1.269531 -0.47656,1.269532 -0.50781,1.208984 -0.53906,1.216797 -0.56446,1.216797 -0.59179,1.189453 -0.6211,1.179687 -0.67383,1.154297 -0.72461,1.144532 -0.81445,1.091796 -0.85156,1.107422 -0.8457,1.074219 -0.89844,1.037109 -0.95508,1.009766 -0.98437,0.958984 -1.07813,0.990235 -1.13672,1.023437 -1.16015,1.021485 -1.21485,1.013672 -1.26758,0.988281 -1.30273,0.935547 -1.32031,0.927734 -1.38282,0.814453 a 0.49902389,0.49902389 0 0 0 -0.002,0.002 l -1.33398,0.796875 -1.35352,0.761721 -1.36328,0.70703 -1.32617,0.67773 -1.31836,0.5918 -1.34766,0.5293 -1.375,0.47656 -1.38086,0.39844 -1.41797,0.39648 -1.43945,0.36719 -1.49805,0.31055 -1.50781,0.31054 -1.49804,0.28321 -1.49219,0.22851 -1.55469,0.16602 -1.62109,0.14453 a 0.49902389,0.49902389 0 0 0 -0.006,0 l -1.65821,0.16992 -1.59961,0.0273 h -1.66992 l -1.64453,-0.0586 a 0.49902389,0.49902389 0 0 0 -0.01,0 l -1.68946,-0.0273 -1.68945,-0.16992 a 0.49902389,0.49902389 0 0 0 -0.002,0 l -1.69532,-0.16602 -1.72265,-0.2832 -1.728518,-0.28321 -1.654297,-0.36523 -1.666016,-0.45313 -1.615234,-0.48046 -1.648438,-0.51563 -1.669921,-0.5332 -1.634766,-0.62305 -1.703125,-0.67969 -1.667969,-0.70898 -1.634765,-0.787111 -1.583985,-0.822266 -1.591797,-0.880859 a 0.49902389,0.49902389 0 0 0 -0.0098,-0.0039 l -1.554688,-0.822265 -1.554687,-0.927735 -1.503907,-0.935546 -1.464843,-0.960938 -1.40625,-1.011719 -1.357422,-1.101562 -1.322266,-1.09961 -1.179687,-1.154296 a 0.49902389,0.49902389 0 0 0 -0.0098,-0.0078 L 68.681641,89.0625 67.583984,87.855469 66.505859,86.632812 65.431641,85.390625 64.480469,84.160156 63.583984,82.839844 62.703125,81.451172 61.857422,80.072266 61.128906,78.693359 60.421875,77.283203 59.806641,75.876953 59.242187,74.46875 58.732422,73.033203 58.279297,71.59375 l -0.419922,-1.439453 -0.339844,-1.462891 -0.310547,-1.443359 -0.28125,-1.44336 -0.224609,-1.460937 -0.167969,-1.457031 -0.05859,-1.482422 v -2.986328 l 0.142579,-1.519532 a 0.49902389,0.49902389 0 0 0 0.002,-0.0293 l 0.05469,-1.451172 0.22461,-1.478516 0.25,-1.433594 0.339843,-1.435547 0.392578,-1.490234 0.478516,-1.523437 0.564453,-1.576172 0.621094,-1.576172 0.730469,-1.546875 0.792968,-1.556641 0.820313,-1.552734 0.904297,-1.533203 0.908203,-1.529297 0.935547,-1.44336 0.960937,-1.441406 0.984375,-1.355469 1.050782,-1.332031 a 0.49902389,0.49902389 0 0 0 0.002,-0.002 l 1.017578,-1.298828 1.044922,-1.214844 1.103515,-1.248047 1.132813,-1.1875 1.152344,-1.18164 1.296875,-1.126953 a 0.49902389,0.49902389 0 0 0 0.0078,-0.0078 l 1.310547,-1.193359 1.326172,-1.1875 1.380859,-1.06836 1.386719,-1.048828 1.324219,-0.929687 1.357422,-0.875 1.324218,-0.81836 1.355469,-0.736328 a 0.49902389,0.49902389 0 0 0 0.0059,-0.002 l 1.351563,-0.761719 1.382812,-0.648437 a 0.49902389,0.49902389 0 0 0 0.002,-0.002 l 1.417968,-0.679688 1.4375,-0.621093 1.41211,-0.564454 1.410156,-0.507812 1.449219,-0.480469 1.410156,-0.453125 1.4375,-0.392578 1.464844,-0.339844 1.505856,-0.3125 a 0.49902389,0.49902389 0 0 0 0.004,0 l 1.56055,-0.33789 1.49609,-0.25586 a 0.49902389,0.49902389 0 0 0 0.004,0 l 1.44726,-0.2578122 1.44336,-0.1972657 a 0.49902389,0.49902389 0 0 0 0.01,-0.00195 l 1.39843,-0.2207031 1.3379,-0.058594 a 0.49902389,0.49902389 0 0 0 0.0391,-0.00195 l 1.37304,-0.1699219 1.36915,-0.027344 h 1.35546 l 1.36329,0.027344 a 0.49902389,0.49902389 0 0 0 0.01,0 h 1.28516 l 1.25586,0.1425782 a 0.49902389,0.49902389 0 0 0 0.0352,0.00195 l 1.19727,0.054687 1.17187,0.1679687 1.07227,0.1699219 1.07226,0.1972656 1.04297,0.2226559 0.98633,0.228516 0.96094,0.253906 0.89258,0.25 0.90039,0.308594 a 0.49902389,0.49902389 0 0 0 0.004,0 l 0.85352,0.285156 0.79687,0.275391 0.72071,0.333984 a 0.49902389,0.49902389 0 0 0 0.0156,0.0059 l 0.72266,0.304687 1.29492,0.677735 a 0.49902389,0.49902389 0 0 0 0.0156,0.0098 l 0.64843,0.308594 0.58399,0.304687 0.5664,0.310547 0.56446,0.3125 0.53125,0.308594 0.5039,0.304688 0.47657,0.3125 a 0.49902389,0.49902389 0 0 0 0.0137,0.0078 l 0.48242,0.294922 0.39648,0.320312 0.41602,0.492188 0.41601,0.558594 a 0.49902389,0.49902389 0 0 0 0.0156,0.01758 l 0.38672,0.470703 0.27148,0.404297 a 0.498974,0.498974 0 0 0 0.69141,0.136718 0.498974,0.498974 0 0 0 0.13672,-0.691406 l -0.28516,-0.425781 a 0.49902389,0.49902389 0 0 0 -0.0293,-0.03906 l -0.39453,-0.480468 -0.41797,-0.560547 a 0.49902389,0.49902389 0 0 0 -0.0195,-0.02344 l -0.45703,-0.539062 a 0.49902389,0.49902389 0 0 0 -0.0664,-0.06445 l -0.45704,-0.371094 a 0.49902389,0.49902389 0 0 0 -0.0547,-0.03906 l -0.50391,-0.308594 -0.47851,-0.3125 a 0.49902389,0.49902389 0 0 0 -0.0156,-0.0098 l -0.51562,-0.3125 a 0.49902389,0.49902389 0 0 0 -0.008,-0.0039 l -0.53906,-0.3125 a 0.49902389,0.49902389 0 0 0 -0.008,-0.0039 l -0.57031,-0.316407 a 0.49902389,0.49902389 0 0 0 -0.002,-0.002 l -0.57031,-0.3125 a 0.49902389,0.49902389 0 0 0 -0.01,-0.0039 l -0.59765,-0.3125 a 0.49902389,0.49902389 0 0 0 -0.0156,-0.0098 l -0.64843,-0.308593 -1.30274,-0.681641 a 0.49902389,0.49902389 0 0 0 -0.0391,-0.01758 l -0.73438,-0.310547 -0.73437,-0.339844 a 0.49902389,0.49902389 0 0 0 -0.0449,-0.01758 l -0.82422,-0.285156 a 0.49902389,0.49902389 0 0 0 -0.006,-0.002 l -0.85352,-0.285156 -0.91211,-0.3125005 a 0.49902389,0.49902389 0 0 0 -0.0273,-0.00781 l -0.91016,-0.2539062 a 0.49902389,0.49902389 0 0 0 -0.006,-0.00195 l -0.97265,-0.2578125 a 0.49902389,0.49902389 0 0 0 -0.0156,-0.00391 l -0.99609,-0.2304688 a 0.49902389,0.49902389 0 0 0 -0.008,-0.00195 l -1.05469,-0.2265625 a 0.49902389,0.49902389 0 0 0 -0.0156,-0.00195 l -1.08593,-0.1992188 a 0.49902389,0.49902389 0 0 0 -0.0117,-0.00195 l -1.08203,-0.171875 a 0.49902389,0.49902389 0 0 0 -0.008,-0.00195 l -1.19921,-0.171875 a 0.49902389,0.49902389 0 0 0 -0.0488,-0.00391 l -1.20508,-0.054687 -1.26758,-0.1425781 a 0.49902389,0.49902389 0 0 0 -0.0566,-0.00391 h -1.30664 l -1.36328,-0.025391 a 0.49902389,0.49902389 0 0 0 -0.01,-0.00195 z m 27.65234,9.6347655 0.10547,0.05273 v 0.03906 a 0.49902389,0.49902389 0 0 0 -0.10547,-0.0918 z"
     id="path534" />
  <path
     style="color:#000000;fill:#000000;stroke-linecap:round;stroke-linejoin:round;-inkscape-stroke:none"
     d="m 172.58008,15.603516 -0.85547,0.03125 a 0.49823831,0.49823831 0 0 0 -0.0781,0.0098 l -0.82031,0.16211 -0.84961,0.05469 a 0.49823831,0.49823831 0 0 0 -0.0449,0.0059 l -0.86133,0.136718 -0.88672,0.05664 a 0.49823831,0.49823831 0 0 0 -0.0566,0.0078 l -0.9375,0.171875 -0.99414,0.166016 -1.02148,0.171875 a 0.49823831,0.49823831 0 0 0 -0.0117,0.002 l -1.05274,0.199219 -1.08007,0.199219 a 0.49823831,0.49823831 0 0 0 -0.0176,0.0039 l -1.05078,0.230469 a 0.49823831,0.49823831 0 0 0 -0.006,0.002 l -1.08203,0.253906 a 0.49823831,0.49823831 0 0 0 -0.0137,0.002 l -1.08203,0.285156 a 0.49823831,0.49823831 0 0 0 -0.004,0.002 l -1.05469,0.285157 a 0.49823831,0.49823831 0 0 0 -0.0352,0.0098 l -1.05468,0.371094 a 0.49823831,0.49823831 0 0 0 -0.0156,0.0059 l -1.02344,0.398438 a 0.49823831,0.49823831 0 0 0 -0.004,0.002 l -0.9961,0.398438 a 0.49823831,0.49823831 0 0 0 -0.0371,0.01758 l -1.02343,0.511718 a 0.49823831,0.49823831 0 0 0 -0.004,0.002 l -1,0.511718 a 0.49823831,0.49823831 0 0 0 -0.0273,0.01367 l -0.96485,0.570313 a 0.49823831,0.49823831 0 0 0 -0.008,0.0059 l -1.9375,1.195313 a 0.49823831,0.49823831 0 0 0 -0.01,0.0059 l -0.96875,0.625 a 0.49823831,0.49823831 0 0 0 -0.0332,0.02344 l -0.8457,0.652344 -0.85156,0.621094 a 0.49823831,0.49823831 0 0 0 -0.008,0.0078 l -0.85547,0.65625 a 0.49823831,0.49823831 0 0 0 -0.0176,0.01172 l -0.85157,0.710938 -0.88281,0.738281 a 0.49823831,0.49823831 0 0 0 -0.0273,0.02539 l -0.85547,0.828125 a 0.49823831,0.49823831 0 0 0 -0.006,0.0059 l -0.82422,0.824219 -0.82422,0.828125 -0.79492,0.794922 -0.76953,0.765625 a 0.49823831,0.49823831 0 0 0 -0.008,0.0078 l -0.76953,0.796875 A 0.49823831,0.49823831 0 0 0 140.37305,31 l -0.74219,0.828125 a 0.49823831,0.49823831 0 0 0 -0.0176,0.01953 l -0.71094,0.882813 a 0.49823831,0.49823831 0 0 0 -0.006,0.0078 l -0.68359,0.882813 a 0.49823831,0.49823831 0 0 0 -0.0215,0.03125 l -0.59766,0.910156 a 0.49823831,0.49823831 0 0 0 -0.008,0.01172 l -0.59766,0.96875 a 0.49823831,0.49823831 0 0 0 -0.004,0.0039 l -0.5664,0.9375 a 0.49823831,0.49823831 0 0 0 -0.0176,0.03516 l -0.48437,0.96875 a 0.49823831,0.49823831 0 0 0 -0.004,0.0039 l -0.48438,0.996094 a 0.49823831,0.49823831 0 0 0 -0.0117,0.03125 l -0.42969,1.054688 a 0.49823831,0.49823831 0 0 0 -0.004,0.0059 l -0.79687,2.046875 a 0.49823831,0.49823831 0 0 0 -0.006,0.01758 l -0.33985,0.96875 a 0.49823831,0.49823831 0 0 0 -0.008,0.02734 l -0.28516,0.996094 a 0.49823831,0.49823831 0 0 0 -0.004,0.0078 l -0.25781,0.96875 a 0.49823831,0.49823831 0 0 0 -0.008,0.03906 l -0.19922,1.082031 a 0.49823831,0.49823831 0 0 0 0,0.002 l -0.19921,1.109375 a 0.49823831,0.49823831 0 0 0 -0.004,0.02734 l -0.14063,1.134765 -0.17187,1.158204 a 0.49823831,0.49823831 0 0 0 -0.004,0.04687 l -0.0527,1.085937 -0.19531,1.166016 a 0.49823831,0.49823831 0 0 0 -0.006,0.06836 l -0.0312,1.164063 -0.0547,1.158203 a 0.49823831,0.49823831 0 0 0 0,0.01172 l -0.0273,1.167969 a 0.49823831,0.49823831 0 0 0 0,0.01172 v 2.363281 a 0.49823831,0.49823831 0 0 0 0,0.01172 l 0.0273,1.222656 0.0273,1.279297 a 0.49823831,0.49823831 0 0 0 0.006,0.07031 l 0.19922,1.226562 a 0.49823831,0.49823831 0 0 0 0.002,0.0098 l 0.22657,1.222656 a 0.49823831,0.49823831 0 0 0 0,0.0039 l 0.23047,1.195313 a 0.49823831,0.49823831 0 0 0 0.0117,0.04883 l 0.33985,1.140625 a 0.49823831,0.49823831 0 0 0 0.006,0.01563 l 0.37109,1.109375 a 0.49823831,0.49823831 0 0 0 0.008,0.02344 l 0.42579,1.082032 a 0.49823831,0.49823831 0 0 0 0.008,0.01758 l 0.96875,2.21875 a 0.49823831,0.49823831 0 0 0 0.01,0.02344 l 0.53907,1.082031 a 0.49823831,0.49823831 0 0 0 0.004,0.0059 l 0.57031,1.109375 a 0.49823831,0.49823831 0 0 0 0.0117,0.02148 l 0.59766,1.027344 a 0.49823831,0.49823831 0 0 0 0.0176,0.02734 l 0.68164,1.021484 0.68164,1.023438 0.67969,1.074218 a 0.49823831,0.49823831 0 0 0 0.0195,0.02539 l 0.76953,1.054687 a 0.49823831,0.49823831 0 0 0 0.006,0.0098 l 0.73828,0.96875 a 0.49823831,0.49823831 0 0 0 0.008,0.0078 l 0.79688,0.996093 a 0.49823831,0.49823831 0 0 0 0.0254,0.03125 l 0.85547,0.908203 0.81445,0.873047 0.78906,0.933594 a 0.49823831,0.49823831 0 0 0 0.0117,0.01367 l 0.82813,0.910156 a 0.49823831,0.49823831 0 0 0 0.004,0.0039 l 0.85156,0.910157 a 0.49823831,0.49823831 0 0 0 0.0117,0.01172 l 0.88282,0.882813 a 0.49823831,0.49823831 0 0 0 0.0117,0.01172 l 0.91016,0.855468 a 0.49823831,0.49823831 0 0 0 0.0137,0.01172 l 0.93946,0.824219 0.9375,0.824219 a 0.49823831,0.49823831 0 0 0 0.0137,0.0098 l 0.96875,0.796875 a 0.49823831,0.49823831 0 0 0 0.004,0.0039 l 0.9961,0.796875 a 0.49823831,0.49823831 0 0 0 0.006,0.0059 l 1.02734,0.796875 a 0.49823831,0.49823831 0 0 0 0.0215,0.01367 l 1.01757,0.710937 0.99024,0.734375 a 0.49823831,0.49823831 0 0 0 0.043,0.02734 l 1.04882,0.623047 1.04688,0.652344 a 0.49823831,0.49823831 0 0 0 0.01,0.0059 l 1.05468,0.625 a 0.49823831,0.49823831 0 0 0 0.0117,0.0078 l 1.08203,0.597656 a 0.49823831,0.49823831 0 0 0 0.0449,0.02148 l 1.19336,0.515625 1.22071,0.53711 a 0.49823831,0.49823831 0 0 0 0.0215,0.0098 l 1.25391,0.484375 a 0.49823831,0.49823831 0 0 0 0.0117,0.0039 l 1.28125,0.457032 a 0.49823831,0.49823831 0 0 0 0.01,0.0039 l 1.28125,0.425781 a 0.49823831,0.49823831 0 0 0 0.01,0.0039 l 1.28125,0.398438 a 0.49823831,0.49823831 0 0 0 0.01,0.002 l 1.28125,0.371094 a 0.49823831,0.49823831 0 0 0 0.004,0.002 l 1.22266,0.339844 a 0.49823831,0.49823831 0 0 0 0.0117,0.002 l 1.22657,0.3125 a 0.49823831,0.49823831 0 0 0 0.043,0.0098 l 1.21093,0.197266 1.21094,0.255859 a 0.49823831,0.49823831 0 0 0 0.0352,0.0059 l 1.2539,0.171875 1.22266,0.167969 a 0.49823831,0.49823831 0 0 0 0.0449,0.0039 l 1.20508,0.05664 1.25977,0.169922 a 0.49823831,0.49823831 0 0 0 0.0664,0.0039 h 2.5625 a 0.49823831,0.49823831 0 0 0 0.0117,0 l 1.25,-0.03125 a 0.49823831,0.49823831 0 0 0 0.0195,-0.002 l 1.25391,-0.08203 a 0.49823831,0.49823831 0 0 0 0.0605,-0.0059 l 1.19336,-0.226563 1.28125,-0.08398 a 0.49823831,0.49823831 0 0 0 0.0566,-0.0059 l 1.24805,-0.226563 1.31055,-0.226562 a 0.49823831,0.49823831 0 0 0 0.0117,-0.002 l 1.30859,-0.257812 a 0.49823831,0.49823831 0 0 0 0.0137,-0.002 l 1.25,-0.285156 a 0.49823831,0.49823831 0 0 0 0.0234,-0.0059 l 1.22656,-0.339844 a 0.49823831,0.49823831 0 0 0 0.0137,-0.0039 l 1.19532,-0.371094 a 0.49823831,0.49823831 0 0 0 0.004,-0.002 l 1.16797,-0.371093 a 0.49823831,0.49823831 0 0 0 0.002,0 l 1.13671,-0.367188 a 0.49823831,0.49823831 0 0 0 0.0371,-0.01367 l 1.16797,-0.484375 a 0.49823831,0.49823831 0 0 0 0.006,-0.002 l 1.13672,-0.484375 a 0.49823831,0.49823831 0 0 0 0.0117,-0.0059 l 1.11328,-0.511719 a 0.49823831,0.49823831 0 0 0 0.0117,-0.0059 l 1.05078,-0.515625 a 0.49823831,0.49823831 0 0 0 0.0215,-0.01172 l 1.0254,-0.564453 1.04882,-0.570313 a 0.49823831,0.49823831 0 0 0 0.0371,-0.02148 l 0.98633,-0.650391 0.99219,-0.591797 a 0.49823831,0.49823831 0 0 0 0.0312,-0.02148 l 0.96484,-0.683594 a 0.49823831,0.49823831 0 0 0 0.0137,-0.0098 l 0.96875,-0.738282 a 0.49823831,0.49823831 0 0 0 0.008,-0.0059 l 0.9414,-0.742188 a 0.49823831,0.49823831 0 0 0 0.0195,-0.01563 l 1.81641,-1.589843 0.90625,-0.763672 a 0.49823831,0.49823831 0 0 0 0.0195,-0.01758 l 0.88281,-0.828125 a 0.49823831,0.49823831 0 0 0 0.0176,-0.01758 l 0.82422,-0.851563 a 0.49823831,0.49823831 0 0 0 0.006,-0.0059 l 0.80078,-0.855469 a 0.49823831,0.49823831 0 0 0 0.0176,-0.01953 l 0.76562,-0.910157 a 0.49823831,0.49823831 0 0 0 0.0117,-0.01367 l 0.71485,-0.914063 a 0.49823831,0.49823831 0 0 0 0.006,-0.0078 l 0.67968,-0.910157 0.6836,-0.910156 a 0.49823831,0.49823831 0 0 0 0.0117,-0.01563 l 0.6289,-0.910156 a 0.49823831,0.49823831 0 0 0 0.01,-0.01563 l 0.59765,-0.941406 a 0.49823831,0.49823831 0 0 0 0.0195,-0.03516 l 0.51171,-0.964843 a 0.49823831,0.49823831 0 0 0 0.004,-0.0059 l 0.51172,-1 a 0.49823831,0.49823831 0 0 0 0.0137,-0.03125 l 0.42578,-0.996094 a 0.49823831,0.49823831 0 0 0 0.004,-0.0059 l 0.42969,-1.050781 a 0.49823831,0.49823831 0 0 0 0.004,-0.0098 l 0.39844,-1.027344 a 0.49823831,0.49823831 0 0 0 0.002,-0.0078 l 0.36719,-0.996094 a 0.49823831,0.49823831 0 0 0 0.004,-0.0098 l 0.34375,-0.996094 a 0.49823831,0.49823831 0 0 0 0.006,-0.01953 l 0.3125,-1.048829 0.31054,-0.992187 a 0.49823831,0.49823831 0 0 0 0.008,-0.0293 l 0.25781,-1.052734 0.28515,-1.107422 a 0.49823831,0.49823831 0 0 0 0.004,-0.02148 l 0.22461,-1.068359 0.28125,-1.070312 a 0.49823831,0.49823831 0 0 0 0.01,-0.03906 l 0.19726,-1.099609 0.25195,-1.13086 a 0.49823831,0.49823831 0 0 0 0.006,-0.0332 l 0.16993,-1.128906 0.19921,-1.107422 a 0.49823831,0.49823831 0 0 0 0.002,-0.01367 l 0.17187,-1.136719 a 0.49823831,0.49823831 0 0 0 0.006,-0.0625 l 0.0273,-1.101562 0.0566,-1.068359 0.0859,-1.107422 a 0.49823831,0.49823831 0 0 0 0.002,-0.03906 v -1.072265 l 0.0273,-1.107422 a 0.49823831,0.49823831 0 0 0 0,-0.01172 v -1.050781 a 0.49823831,0.49823831 0 0 0 -0.002,-0.02734 l -0.0586,-1.082031 a 0.49823831,0.49823831 0 0 0 -0.004,-0.04102 l -0.13672,-1.005859 -0.0586,-1.03125 a 0.49823831,0.49823831 0 0 0 -0.0117,-0.08594 l -0.22071,-0.947265 -0.13867,-0.97461 a 0.49823831,0.49823831 0 0 0 0,-0.0039 l -0.14453,-0.96875 a 0.49823831,0.49823831 0 0 0 -0.008,-0.03711 l -0.22461,-0.988282 -0.19727,-0.990234 a 0.49823831,0.49823831 0 0 0 -0.01,-0.03711 L 220.36719,43 220.14258,42.011719 a 0.49823831,0.49823831 0 0 0 -0.006,-0.02734 l -0.2832,-0.990234 -0.25586,-0.990235 a 0.49823831,0.49823831 0 0 0 -0.0137,-0.04102 l -0.33984,-0.964844 a 0.49823831,0.49823831 0 0 0 -0.004,-0.01172 l -0.36914,-0.964844 -0.33789,-0.9375 a 0.49823831,0.49823831 0 0 0 -0.0137,-0.0293 l -0.39844,-0.910156 a 0.49823831,0.49823831 0 0 0 -0.008,-0.01953 l -0.42969,-0.882813 a 0.49823831,0.49823831 0 0 0 -0.0117,-0.02148 l -0.45312,-0.824219 a 0.49823831,0.49823831 0 0 0 -0.006,-0.01172 l -0.48437,-0.828125 a 0.49823831,0.49823831 0 0 0 -0.0156,-0.02539 l -0.51172,-0.765625 a 0.49823831,0.49823831 0 0 0 -0.0137,-0.01953 l -1.14063,-1.539063 a 0.49823831,0.49823831 0 0 0 -0.0137,-0.01758 l -0.5957,-0.736328 -0.57031,-0.712891 a 0.49823831,0.49823831 0 0 0 -0.008,-0.0098 l -0.59765,-0.710938 a 0.49823831,0.49823831 0 0 0 -0.006,-0.0078 l -0.56445,-0.644532 -0.5918,-0.734375 a 0.49823831,0.49823831 0 0 0 -0.0352,-0.03906 l -0.61718,-0.617188 -0.58985,-0.648437 a 0.49823831,0.49823831 0 0 0 -0.0156,-0.01563 l -0.625,-0.625 a 0.49823831,0.49823831 0 0 0 -0.01,-0.0098 l -0.62891,-0.597656 a 0.49823831,0.49823831 0 0 0 -0.0137,-0.01367 l -0.65234,-0.570312 a 0.49823831,0.49823831 0 0 0 -0.002,-0.002 l -0.65625,-0.570313 a 0.49823831,0.49823831 0 0 0 -0.0176,-0.01367 l -0.6836,-0.539062 a 0.49823831,0.49823831 0 0 0 -0.0176,-0.01367 l -0.70899,-0.509766 -0.6543,-0.482422 a 0.49823831,0.49823831 0 0 0 -0.0176,-0.01367 l -0.67969,-0.457031 a 0.49823831,0.49823831 0 0 0 -0.0117,-0.0059 l -0.71484,-0.453125 a 0.49823831,0.49823831 0 0 0 -0.0293,-0.01758 l -0.73828,-0.398438 a 0.49823831,0.49823831 0 0 0 -0.008,-0.0059 l -0.76954,-0.398438 a 0.49823831,0.49823831 0 0 0 -0.0117,-0.0059 l -0.76954,-0.371094 a 0.49823831,0.49823831 0 0 0 -0.008,-0.002 l -0.73828,-0.34375 a 0.49823831,0.49823831 0 0 0 -0.002,-0.002 l -0.74219,-0.339844 a 0.49823831,0.49823831 0 0 0 -0.0137,-0.0059 l -0.73828,-0.3125 a 0.49823831,0.49823831 0 0 0 -0.0234,-0.0098 l -0.69727,-0.251953 -0.69921,-0.306641 a 0.49823831,0.49823831 0 0 0 -0.0488,-0.01758 l -0.69922,-0.222656 -0.66992,-0.253906 a 0.49823831,0.49823831 0 0 0 -0.0488,-0.01563 l -0.65235,-0.171875 a 0.49823831,0.49823831 0 0 0 -0.0625,-0.01172 l -0.60937,-0.08008 -0.55273,-0.183594 a 0.49823831,0.49823831 0 0 0 -0.0859,-0.02148 l -0.57031,-0.08203 a 0.49823831,0.49823831 0 0 0 -0.0195,-0.002 l -0.52148,-0.05273 -0.44141,-0.128906 a 0.49823831,0.49823831 0 0 0 -0.10547,-0.01953 l -0.4414,-0.0293 -0.41211,-0.05273 a 0.49823831,0.49823831 0 0 0 -0.0234,-0.002 l -0.38281,-0.03125 -0.35352,-0.05078 a 0.49823831,0.49823831 0 0 0 -0.0723,-0.0059 h -0.31836 l -0.26758,-0.02344 -0.25586,-0.05273 a 0.49823831,0.49823831 0 0 0 -0.0469,-0.0078 l -0.25,-0.02539 -0.21875,-0.02734 -0.0273,-0.0078 0.041,0.04492 a 0.49823831,0.49823831 0 0 0 -0.21289,-0.134765 l -0.17188,-0.05469 a 0.4981885,0.4981885 0 0 0 -0.625,0.324219 0.4981885,0.4981885 0 0 0 0.32227,0.625 l 0.0488,0.01563 -0.0352,-0.03711 a 0.49823831,0.49823831 0 0 0 0.23242,0.140625 l 0.19922,0.05469 a 0.49823831,0.49823831 0 0 0 0.0723,0.01367 l 0.25781,0.03125 a 0.49823831,0.49823831 0 0 0 0.006,0.002 l 0.23047,0.02344 0.26172,0.05469 a 0.49823831,0.49823831 0 0 0 0.0586,0.0078 l 0.31641,0.02734 a 0.49823831,0.49823831 0 0 0 0.043,0.002 h 0.30274 l 0.33594,0.04883 a 0.49823831,0.49823831 0 0 0 0.0332,0.0039 l 0.38476,0.03125 0.41407,0.05273 a 0.49823831,0.49823831 0 0 0 0.0293,0.002 l 0.4043,0.0293 0.43359,0.125 a 0.49823831,0.49823831 0 0 0 0.0859,0.01758 l 0.55664,0.05664 0.51758,0.07422 0.55469,0.185546 a 0.49823831,0.49823831 0 0 0 0.0937,0.02148 l 0.62305,0.08203 0.59765,0.15625 0.66016,0.25 a 0.49823831,0.49823831 0 0 0 0.0234,0.0078 l 0.6875,0.21875 0.6914,0.302734 a 0.49823831,0.49823831 0 0 0 0.0293,0.01172 l 0.69726,0.251953 0.72071,0.304687 0.73437,0.337891 0.73242,0.339844 0.76172,0.367187 0.75782,0.392578 0.7207,0.388672 0.69336,0.441406 0.66601,0.447266 0.64649,0.476563 a 0.49823831,0.49823831 0 0 0 0.006,0.0039 l 0.70117,0.505859 0.66601,0.523438 0.64649,0.5625 0.64453,0.564453 0.61719,0.585937 0.61133,0.611328 0.58984,0.648438 a 0.49823831,0.49823831 0 0 0 0.0156,0.01563 L 211.3418,28.279297 211.92187,29 a 0.49823831,0.49823831 0 0 0 0.0137,0.01563 l 0.5664,0.648437 0.58985,0.703125 0.5664,0.708985 a 0.49823831,0.49823831 0 0 0 0.002,0.002 l 0.59179,0.730469 1.12696,1.521484 0.49609,0.742188 0.47461,0.810546 0.44336,0.806641 0.41992,0.863281 0.38867,0.886719 0.33399,0.925781 a 0.49823831,0.49823831 0 0 0 0.004,0.0078 l 0.36719,0.96289 0.33008,0.9375 0.2539,0.976563 a 0.49823831,0.49823831 0 0 0 0.002,0.01172 l 0.2832,0.982422 0.22266,0.986328 a 0.49823831,0.49823831 0 0 0 0.006,0.02344 l 0.27929,1.00586 0.19727,0.978515 a 0.49823831,0.49823831 0 0 0 0.002,0.01367 l 0.22266,0.976563 0.14062,0.949218 0.14063,0.994141 a 0.49823831,0.49823831 0 0 0 0.008,0.04297 l 0.2168,0.925781 0.0566,1.007812 a 0.49823831,0.49823831 0 0 0 0.004,0.04102 l 0.13868,1.005859 0.0566,1.048829 v 1.03125 l -0.0273,1.107421 a 0.49823831,0.49823831 0 0 0 0,0.01172 v 1.058594 l -0.0859,1.09375 a 0.49823831,0.49823831 0 0 0 0,0.01172 l -0.0586,1.082031 a 0.49823831,0.49823831 0 0 0 0,0.01563 l -0.0273,1.078125 -0.16602,1.097656 -0.19726,1.107422 a 0.49823831,0.49823831 0 0 0 -0.004,0.01367 l -0.16797,1.119141 -0.25,1.125 a 0.49823831,0.49823831 0 0 0 -0.004,0.01953 l -0.19727,1.089844 -0.2793,1.0625 a 0.49823831,0.49823831 0 0 0 -0.006,0.02539 l -0.22461,1.070313 -0.28125,1.097656 a 0.49823831,0.49823831 0 0 0 -0.002,0.0059 l -0.2539,1.039063 -0.3086,0.982422 a 0.49823831,0.49823831 0 0 0 -0.002,0.0059 l -0.3086,1.041016 -0.33984,0.980468 -0.36328,0.988282 -0.39453,1.019531 -0.42774,1.042969 -0.41601,0.976562 -0.50391,0.980469 -0.5,0.945312 -0.58203,0.916016 -0.61719,0.894531 -0.67773,0.902344 a 0.49823831,0.49823831 0 0 0 -0.002,0 l -0.67579,0.90625 -0.70507,0.902344 -0.75196,0.894531 -0.78906,0.841797 -0.8125,0.839844 -0.86523,0.810547 -0.89844,0.757812 a 0.49823831,0.49823831 0 0 0 -0.008,0.0059 l -1.81055,1.585938 -0.92969,0.730469 -0.95703,0.730468 -0.94336,0.667969 -0.98242,0.587891 a 0.49823831,0.49823831 0 0 0 -0.0195,0.01172 l -0.97852,0.644531 -1.03125,0.560547 a 0.49823831,0.49823831 0 0 0 -0.002,0.002 l -1.01758,0.560547 -1.03515,0.507812 -1.10157,0.50586 -1.12695,0.480468 -1.14648,0.47461 -1.11719,0.361328 -1.16602,0.371094 -1.18554,0.367187 -1.20899,0.335938 -1.23047,0.279296 -1.29687,0.25586 -1.30664,0.226562 a 0.49823831,0.49823831 0 0 0 -0.004,0 l -1.2207,0.220703 -1.28516,0.08398 a 0.49823831,0.49823831 0 0 0 -0.0606,0.0078 l -1.1914,0.22461 -1.21485,0.08008 -1.23242,0.03125 h -2.52344 l -1.24804,-0.167969 a 0.49823831,0.49823831 0 0 0 -0.043,-0.0039 l -1.20508,-0.05664 -1.20117,-0.166015 -1.23633,-0.169922 -1.20508,-0.253907 a 0.49823831,0.49823831 0 0 0 -0.0215,-0.0039 l -1.20117,-0.195312 -1.20118,-0.306641 -1.21484,-0.335937 -1.27344,-0.369141 -1.27148,-0.396484 -1.27149,-0.421875 -1.26953,-0.453125 -1.23828,-0.478516 -1.21094,-0.533203 a 0.49823831,0.49823831 0 0 0 -0.004,-0.002 l -1.17383,-0.50586 -1.05469,-0.582031 -1.04297,-0.619141 -1.04492,-0.652343 a 0.49823831,0.49823831 0 0 0 -0.01,-0.0059 l -1.03321,-0.613281 -0.97461,-0.722656 a 0.49823831,0.49823831 0 0 0 -0.0117,-0.0078 l -1.01368,-0.708984 -1.01367,-0.785156 -0.99219,-0.792969 -0.95898,-0.789063 -0.93164,-0.820312 -0.93555,-0.818359 -0.89844,-0.84375 -0.87109,-0.871094 -0.84375,-0.902344 -0.82031,-0.900391 -0.79102,-0.935546 a 0.49823831,0.49823831 0 0 0 -0.0156,-0.01758 l -0.82422,-0.882812 a 0.49823831,0.49823831 0 0 0 0,-0.002 l -0.8418,-0.894531 -0.78125,-0.976563 -0.73242,-0.960937 -0.75586,-1.03711 L 139,74.111328 a 0.49823831,0.49823831 0 0 0 -0.006,-0.0078 l -0.68359,-1.027344 a 0.49823831,0.49823831 0 0 0 0,-0.002 l -0.67578,-1.009766 -0.58204,-1.003906 -0.56445,-1.09375 -0.53125,-1.06836 -0.96094,-2.199218 -0.41601,-1.060547 -0.36524,-1.089844 -0.33007,-1.109375 -0.22657,-1.167969 -0.22461,-1.216797 -0.19336,-1.185546 -0.0254,-1.246094 a 0.49823831,0.49823831 0 0 0 0,-0.002 l -0.0273,-1.216797 v -2.351563 l 0.0273,-1.15625 0.0547,-1.158203 a 0.49823831,0.49823831 0 0 0 0,-0.0098 l 0.0293,-1.134766 0.19336,-1.160156 A 0.49823831,0.49823831 0 0 0 133.5,50.375 l 0.0527,-1.087891 0.16797,-1.140625 a 0.49823831,0.49823831 0 0 0 0.002,-0.01172 l 0.13867,-1.126954 0.19726,-1.09375 0.19532,-1.0625 0.25195,-0.945312 0.2793,-0.978516 0.33203,-0.947265 0.79297,-2.035157 0.42187,-1.035156 0.47656,-0.978515 0.47266,-0.949219 0.55469,-0.917969 0.59375,-0.960937 0.58398,-0.888672 0.66797,-0.863282 0.69922,-0.86914 0.72851,-0.810547 0.75782,-0.787109 0.76758,-0.761719 a 0.49823831,0.49823831 0 0 0 0,-0.002 l 0.79687,-0.796875 a 0.49823831,0.49823831 0 0 0 0.002,0 l 0.82227,-0.828125 0.82226,-0.820313 0.83985,-0.8125 0.86719,-0.726562 0.84375,-0.705078 0.84375,-0.646485 0.84961,-0.621094 a 0.49823831,0.49823831 0 0 0 0.01,-0.0078 l 0.83594,-0.642578 0.94726,-0.611328 1.92969,-1.191407 0.94727,-0.558593 0.98437,-0.503907 1.00196,-0.501953 0.9746,-0.390625 1.01368,-0.394531 L 158.99609,19 l 1.03711,-0.28125 1.07227,-0.28125 1.07226,-0.251953 1.03907,-0.228516 1.07422,-0.197265 a 0.49823831,0.49823831 0 0 0 0.002,0 l 1.05078,-0.199219 1.01758,-0.169922 a 0.49823831,0.49823831 0 0 0 0,-0.002 l 0.99609,-0.167969 a 0.49823831,0.49823831 0 0 0 0.008,0 l 0.91211,-0.166016 0.88086,-0.05664 a 0.49823831,0.49823831 0 0 0 0.0469,-0.0059 l 0.85937,-0.136718 0.86133,-0.05859 a 0.49823831,0.49823831 0 0 0 0.0625,-0.0078 l 0.8125,-0.160156 0.80664,-0.0293 h 2.48633 l 0.7793,0.03125 0.78711,0.05273 0.74023,0.05859 a 0.49823831,0.49823831 0 0 0 0.004,0 l 0.76562,0.05469 1.375,0.113281 0.58203,0.15625 a 0.49823831,0.49823831 0 0 0 0.084,0.01563 l 0.61133,0.05469 0.54687,0.15039 0.51758,0.230469 0.66406,0.359375 0.48828,0.273438 0.35352,0.240234 a 0.4981885,0.4981885 0 0 0 0.6914,-0.128906 0.4981885,0.4981885 0 0 0 -0.1289,-0.69336 l -0.3711,-0.253906 a 0.49823831,0.49823831 0 0 0 -0.0391,-0.02344 l -0.51172,-0.285157 a 0.49823831,0.49823831 0 0 0 -0.006,-0.002 l -0.68359,-0.371094 a 0.49823831,0.49823831 0 0 0 -0.0332,-0.01758 l -0.57032,-0.253906 a 0.49823831,0.49823831 0 0 0 -0.0723,-0.02539 l -0.625,-0.171875 a 0.49823831,0.49823831 0 0 0 -0.0879,-0.01563 l -0.61133,-0.05469 -0.58398,-0.15625 a 0.49823831,0.49823831 0 0 0 -0.0879,-0.01563 L 178.25,15.804688 a 0.49823831,0.49823831 0 0 0 -0.006,0 l -0.76758,-0.05469 -0.74023,-0.05859 a 0.49823831,0.49823831 0 0 0 -0.006,-0.002 l -0.79688,-0.05469 a 0.49823831,0.49823831 0 0 0 -0.0137,0 l -0.79687,-0.03125 a 0.49823831,0.49823831 0 0 0 -0.0195,0 h -2.50391 a 0.49823831,0.49823831 0 0 0 -0.0195,0 z"
     id="path536" />
  <path
     style="color:#000000;fill:#000000;stroke-linecap:round;stroke-linejoin:round;-inkscape-stroke:none"
     d="m 66.527344,0.03125 a 0.49688018,0.49688018 0 0 0 -0.548828,0.13867187 l 0.02344,-0.0273438 a 0.49688018,0.49688018 0 0 0 -0.03125,0.0117188 l -0.03125,0.0273438 a 0.49688018,0.49688018 0 0 0 -0.02344,0.0214844 l -0.02734,0.0292969 0.0293,-0.009766 A 0.49688018,0.49688018 0 0 0 65.59375,0.54492187 l -0.0293,0.0957031 -0.101562,0.1015625 a 0.49688018,0.49688018 0 0 0 -0.125,0.21289063 l -0.0293,0.0976563 -0.08594,0.1015625 -0.154297,0.1503906 a 0.49688018,0.49688018 0 0 0 -0.0039,0.00391 l -0.199219,0.1992188 a 0.49688018,0.49688018 0 0 0 -0.111328,0.171875 l -0.0098,0.023437 -0.07422,0.0625 a 0.49688018,0.49688018 0 0 0 -0.152344,0.2265625 l -0.02539,0.076172 -0.08203,0.097656 a 0.49688018,0.49688018 0 0 0 -0.08203,0.1386719 l 0.01367,-0.037109 a 0.49688018,0.49688018 0 0 0 -0.251953,0.2929688 l 0.06641,-0.041016 A 0.49688018,0.49688018 0 0 0 64.050781,2.640625 l 0.0918,-0.085937 h 0.01953 l -0.0039,0.00391 -0.01172,0.00195 a 0.49688018,0.49688018 0 0 0 -0.419922,0.4902344 v 0.058594 a 0.49688018,0.49688018 0 0 0 0.498047,0.4980469 h 0.08594 a 0.49688018,0.49688018 0 0 0 0.07813,-0.080078 0.49688018,0.49688018 0 0 0 0.271484,-0.1074219 0.49688018,0.49688018 0 0 0 0.01953,-0.00977 l 0.04102,-0.037109 v 0.015625 A 0.49688018,0.49688018 0 0 0 64.748047,3.375 L 64.974609,3.1484375 A 0.49683049,0.49683049 0 0 0 65.095703,2.921875 0.49688018,0.49688018 0 0 0 65.199219,2.8066406 l 0.02539,-0.064453 0.0918,-0.109375 a 0.49688018,0.49688018 0 0 0 0.0918,-0.1660156 l 0.0098,-0.033203 0.06445,-0.052734 A 0.49688018,0.49688018 0 0 0 65.625,2.1816406 l 0.01758,-0.044922 0.06836,-0.068359 -0.04297,0.3242187 -0.148438,0.40625 a 0.49688018,0.49688018 0 0 0 -0.02734,0.1113282 l -0.05859,0.4804687 a 0.49688018,0.49688018 0 0 0 -0.002,0.035156 l -0.02734,0.5703125 -0.02734,0.5253906 -0.05664,0.5820312 a 0.49688018,0.49688018 0 0 0 -0.0039,0.048828 v 1.703125 a 0.49688018,0.49688018 0 0 0 0.002,0.025391 l 0.02734,0.5703125 a 0.49688018,0.49688018 0 0 0 0,0.00391 l 0.03125,0.5390625 a 0.49688018,0.49688018 0 0 0 0.002,0.027344 l 0.05469,0.4804687 a 0.49688018,0.49688018 0 0 0 0.03906,0.1425782 l 0.189453,0.4355468 0.132813,0.4042969 a 0.49688018,0.49688018 0 0 0 0.02148,0.054687 l 0.199219,0.4257813 a 0.49688018,0.49688018 0 0 0 0.01367,0.027344 l 0.199219,0.3671875 a 0.49688018,0.49688018 0 0 0 0.02344,0.03711 l 0.226563,0.339844 a 0.49688018,0.49688018 0 0 0 0.0625,0.07617 l 0.257812,0.257813 a 0.49688018,0.49688018 0 0 0 0.06445,0.05469 l 0.28125,0.199219 a 0.49688018,0.49688018 0 0 0 0.06641,0.03906 l 0.285157,0.140625 a 0.49688018,0.49688018 0 0 0 0.134765,0.04492 l 0.3125,0.05469 a 0.49688018,0.49688018 0 0 0 0.002,0 l 0.339844,0.05859 a 0.49688018,0.49688018 0 0 0 0.04297,0.0059 l 0.339844,0.02734 a 0.49688018,0.49688018 0 0 0 0.04102,0.002 h 0.597657 a 0.49688018,0.49688018 0 0 0 0.09375,-0.0098 l 0.285156,-0.05469 a 0.49688018,0.49688018 0 0 0 0.164062,-0.06445 l 0.28125,-0.171875 a 0.49688018,0.49688018 0 0 0 0.02734,-0.01563 l 0.279297,-0.195312 0.248047,-0.164063 a 0.49688018,0.49688018 0 0 0 0.03516,-0.02539 l 0.285156,-0.226563 a 0.49688018,0.49688018 0 0 0 0.08008,-0.08008 L 71.3125,10.404297 a 0.49688018,0.49688018 0 0 0 0.01367,-0.01758 l 0.226562,-0.3125 a 0.49688018,0.49688018 0 0 0 0.0078,-0.01367 l 0.230469,-0.3398439 a 0.49688018,0.49688018 0 0 0 0.0293,-0.046875 l 0.195313,-0.3710937 a 0.49688018,0.49688018 0 0 0 0.01758,-0.037109 l 0.144531,-0.3398437 a 0.49688018,0.49688018 0 0 0 0.0293,-0.089844 l 0.07422,-0.3535156 0.05273,-0.125 0.0039,0.019531 a 0.49688018,0.49688018 0 0 0 0.02734,0.087891 l 0.148438,0.3652343 0.04687,0.3632813 a 0.49688018,0.49688018 0 0 0 0.04102,0.1464844 l 0.171875,0.3671875 0.167969,0.3593747 0.136719,0.332032 a 0.49688018,0.49688018 0 0 0 0.05859,0.105468 l 0.167968,0.226563 a 0.49688018,0.49688018 0 0 0 0.02734,0.03125 l 0.199219,0.226562 a 0.49688018,0.49688018 0 0 0 0.154297,0.119141 l 0.230469,0.113281 a 0.49688018,0.49688018 0 0 0 0.05469,0.02344 l 0.167969,0.05859 a 0.49688018,0.49688018 0 0 0 0.04687,0.01367 l 0.226562,0.05469 a 0.49688018,0.49688018 0 0 0 0.117188,0.01367 h 0.371094 a 0.49688018,0.49688018 0 0 0 0.06641,-0.0059 l 0.199219,-0.02734 a 0.49688018,0.49688018 0 0 0 0.113281,-0.0293 l 0.140625,-0.05469 A 0.49683049,0.49683049 0 0 0 75.703125,10.625 0.49683049,0.49683049 0 0 0 75.060547,10.341797 l -0.08594,0.0332 -0.109375,0.01563 h -0.277343 l -0.144532,-0.03516 -0.117187,-0.04102 -0.115235,-0.05664 -0.11914,-0.136719 -0.119141,-0.1601565 -0.117187,-0.2832031 a 0.49688018,0.49688018 0 0 0 -0.0078,-0.019531 L 73.675781,9.2871094 a 0.49688018,0.49688018 0 0 0 -0.002,0 L 73.535156,8.9882813 73.490234,8.640625 A 0.49688018,0.49688018 0 0 0 73.458984,8.5175781 L 73.304687,8.1347656 73.230469,7.7753906 73.179687,7.3125 a 0.49688018,0.49688018 0 0 0 -0.002,-0.00391 l -0.05664,-0.4667968 -0.02539,-0.4394532 -0.02734,-0.5097656 a 0.49688018,0.49688018 0 0 0 0,-0.00391 l -0.02734,-0.453125 a 0.49688018,0.49688018 0 0 0 0,-0.00391 l -0.03125,-0.453125 -0.02734,-0.4082031 V 2.484375 1.8867187 a 0.49707031,0.49707031 0 0 0 -0.994141,0 v 0.5722657 l -0.02344,0.2207031 -0.0293,0.2226563 a 0.49688018,0.49688018 0 0 0 -0.0059,0.066406 v 0.2910156 l -0.02539,0.2871094 a 0.49688018,0.49688018 0 0 0 0,0.00391 l -0.02734,0.34375 a 0.49688018,0.49688018 0 0 0 0,0.00781 l -0.02734,0.4218749 -0.03125,0.390625 a 0.49688018,0.49688018 0 0 0 0,0.00586 l -0.02734,0.3984375 a 0.49688018,0.49688018 0 0 0 0,0.00195 l -0.02539,0.40625 -0.05664,0.3769532 a 0.49688018,0.49688018 0 0 0 -0.0059,0.072266 V 6.34375 l -0.04883,0.3867187 -0.05664,0.359375 a 0.49688018,0.49688018 0 0 0 -0.002,0.011719 l -0.05469,0.3925781 -0.04883,0.3027344 -0.144531,0.34375 a 0.49688018,0.49688018 0 0 0 -0.02734,0.087891 l -0.07617,0.3515625 -0.117188,0.2773438 -0.173828,0.328125 -0.208984,0.3105469 -0.216797,0.296875 -0.183594,0.2324222 -0.224609,0.177734 -0.234375,0.15625 a 0.49688018,0.49688018 0 0 0 -0.01172,0.0078 l -0.271485,0.189453 -0.191406,0.117187 -0.15039,0.0293 h -0.53125 l -0.296875,-0.02344 -0.31836,-0.05469 -0.240234,-0.04297 -0.1875,-0.0918 -0.214844,-0.152343 -0.191406,-0.19336 -0.1875,-0.2792966 L 66.910156,9.53125 66.730469,9.1445313 66.597656,8.7480469 a 0.49688018,0.49688018 0 0 0 -0.01563,-0.042969 L 66.412109,8.3164063 66.367187,7.9238281 66.337891,7.4003906 66.310547,6.84375 V 5.1777344 l 0.05664,-0.5703125 a 0.49688018,0.49688018 0 0 0 0.002,-0.023437 l 0.02734,-0.5390625 0.02539,-0.5527344 0.05078,-0.40625 0.148438,-0.4023437 a 0.49688018,0.49688018 0 0 0 0.02539,-0.1074219 L 66.705078,2.125 66.759766,1.7285156 a 0.49688018,0.49688018 0 0 0 0.002,-0.021484 l 0.0293,-0.3203125 0.05078,-0.2929687 a 0.49688018,0.49688018 0 0 0 0.0078,-0.085937 V 0.49609375 A 0.49688018,0.49688018 0 0 0 66.527344,0.03125 Z m -0.04102,0.9863281 -0.002,0.00781 h -0.002 a 0.49688018,0.49688018 0 0 0 0.0039,-0.00781 z m -0.0059,0.017578 -0.01758,0.056641 -0.01367,0.00391 a 0.49688018,0.49688018 0 0 0 0.02734,-0.058594 0.49688018,0.49688018 0 0 0 0.0039,-0.00195 z m -1.501953,2.0136719 -0.0039,0.013672 -0.01563,0.00781 a 0.49688018,0.49688018 0 0 0 0.01953,-0.021484 z m -0.136719,0.1679688 -0.0293,0.0625 -0.03711,0.023437 a 0.49688018,0.49688018 0 0 0 0.0078,-0.00977 0.49688018,0.49688018 0 0 0 0.05859,-0.076172 z"
     id="path538" />
  <path
     style="color:#000000;fill:#000000;stroke-linecap:round;stroke-linejoin:round;-inkscape-stroke:none"
     d="m 217.9668,15.759766 a 0.51233122,0.51233122 0 0 0 -0.24024,0.06055 l 0.0176,-0.0098 -0.0898,0.01367 a 0.51233122,0.51233122 0 0 0 -0.28321,0.144531 l -0.0215,0.02148 -0.0449,0.0293 a 0.51233122,0.51233122 0 0 0 -0.01,0.0059 l -0.0859,0.05859 a 0.51233122,0.51233122 0 0 0 -0.0723,0.06055 l -0.0898,0.08984 a 0.51233122,0.51233122 0 0 0 -0.11328,0.169922 l -0.0586,0.144531 a 0.51233122,0.51233122 0 0 0 -0.0371,0.191406 v 0.08984 a 0.51227999,0.51227999 0 0 0 0.51172,0.513672 0.51227999,0.51227999 0 0 0 0.48437,-0.447266 l 0.0215,-0.01367 a 0.51233122,0.51233122 0 0 0 0.0137,0.02148 l 0.0996,0.0957 0.0254,0.117187 a 0.51233122,0.51233122 0 0 0 0.002,0.01172 l 0.0859,0.351563 a 0.51233122,0.51233122 0 0 0 0.0117,0.03906 l 0.10352,0.308594 0.0508,0.363281 a 0.51233122,0.51233122 0 0 0 0.006,0.03516 l 0.082,0.386719 0.0566,0.421875 a 0.51233122,0.51233122 0 0 0 0.004,0.0293 l 0.0879,0.458984 0.0859,0.544922 a 0.51233122,0.51233122 0 0 0 0,0.0078 l 0.0879,0.511719 0.0566,0.539062 a 0.51233122,0.51233122 0 0 0 0.004,0.02344 l 0.084,0.546875 0.0566,0.542968 a 0.51233122,0.51233122 0 0 0 0.0215,0.09961 l 0.15625,0.498047 0.0273,0.490234 a 0.51233122,0.51233122 0 0 0 0.008,0.05859 l 0.084,0.496093 a 0.51233122,0.51233122 0 0 0 0.0352,0.115235 l 0.15429,0.361328 0.0801,0.390625 a 0.51233122,0.51233122 0 0 0 0.0684,0.171875 l 0.17773,0.279297 0.0957,0.236328 0.084,0.251953 a 0.51233122,0.51233122 0 0 0 0.10156,0.175781 l 0.16016,0.181641 0.0606,0.119141 a 0.51233122,0.51233122 0 0 0 0.31445,0.257812 l 0.18945,0.05469 -0.0391,-0.05859 A 0.51233122,0.51233122 0 0 0 221,26.646484 l 0.20312,0.02734 a 0.51233122,0.51233122 0 0 0 0.0684,0.0059 h 0.38282 a 0.51233122,0.51233122 0 0 0 0.19922,-0.04102 l 0.20312,-0.08594 a 0.51233122,0.51233122 0 0 0 0.16211,-0.109375 l 0.23437,-0.234375 a 0.51233122,0.51233122 0 0 0 0.041,-0.04492 l 0.20508,-0.259765 0.25976,-0.322266 a 0.51233122,0.51233122 0 0 0 0.0215,-0.02734 l 0.26562,-0.378906 a 0.51233122,0.51233122 0 0 0 0.0117,-0.01953 l 0.25977,-0.40625 0.28906,-0.4375 a 0.51233122,0.51233122 0 0 0 0.004,-0.0039 l 0.32031,-0.496094 a 0.51233122,0.51233122 0 0 0 0.0117,-0.01758 l 0.29297,-0.496094 a 0.51233122,0.51233122 0 0 0 0,-0.002 l 0.29297,-0.5 0.29296,-0.494141 a 0.51233122,0.51233122 0 0 0 0.004,-0.0078 l 0.26367,-0.464844 0.25781,-0.4375 a 0.51233122,0.51233122 0 0 0 0.0176,-0.0293 l 0.19727,-0.386719 0.22461,-0.367187 a 0.51233122,0.51233122 0 0 0 0.0117,-0.02148 l 0.16211,-0.294922 0.1875,-0.271485 a 0.51233122,0.51233122 0 0 0 0.0762,-0.167968 l 0.0254,-0.09961 0.10547,-0.107422 a 0.51233122,0.51233122 0 0 0 0.0391,-0.07422 l -0.11914,0.01758 a 0.51233122,0.51233122 0 0 0 0.42773,-0.425782 l 0.008,-0.04687 0.0508,-0.05273 a 0.51233122,0.51233122 0 0 0 0.0117,-0.01563 l -0.0664,0.03125 a 0.51233122,0.51233122 0 0 0 0.0977,-0.07422 0.51233122,0.51233122 0 0 0 0.0469,-0.0625 l -0.0254,0.04687 a 0.51233122,0.51233122 0 0 0 0.0488,-0.03711 l 0.0273,-0.03125 a 0.51233122,0.51233122 0 0 0 0.12696,-0.337891 v -0.08594 a 0.51233122,0.51233122 0 0 0 -0.51172,-0.511719 h -0.26172 a 0.51227999,0.51227999 0 0 0 -0.51172,0.511719 0.51227999,0.51227999 0 0 0 0.0527,0.128906 0.51227999,0.51227999 0 0 0 0,0.002 0.51227999,0.51227999 0 0 0 0.0352,0.08594 0.51233122,0.51233122 0 0 0 -0.10938,0.107422 0.51233122,0.51233122 0 0 0 -0.004,0.0078 v -0.0059 a 0.51233122,0.51233122 0 0 0 -0.20117,0.197265 l -0.004,0.01953 -0.0918,0.0957 a 0.51233122,0.51233122 0 0 0 -0.13281,0.234375 l -0.0352,0.142578 -0.15039,0.216797 a 0.51233122,0.51233122 0 0 0 -0.0273,0.04492 l -0.16992,0.310546 -0.22852,0.371094 a 0.51233122,0.51233122 0 0 0 -0.0195,0.03516 l -0.19922,0.392579 -0.2539,0.427734 a 0.51233122,0.51233122 0 0 0 -0.004,0.0078 l -0.26367,0.464844 -0.29102,0.492188 a 0.51233122,0.51233122 0 0 0 0,0.002 l -0.29297,0.498047 -0.28711,0.486328 -0.31445,0.486328 -0.29101,0.4375 a 0.51233122,0.51233122 0 0 0 -0.004,0.0078 l -0.25586,0.400391 -0.25,0.355469 -0.25,0.3125 a 0.51233122,0.51233122 0 0 0 -0.004,0.0039 l -0.1875,0.238281 -0.14257,0.142578 -0.0156,0.0059 h -0.24609 l 0.0644,0.0078 0.0703,0.107422 A 0.51233122,0.51233122 0 0 0 221.17187,25.5625 l -0.17578,-0.05859 a 0.51233122,0.51233122 0 0 0 -0.01,-0.002 l 0.01,0.02148 a 0.51233122,0.51233122 0 0 0 -0.0156,-0.02344 0.51233122,0.51233122 0 0 0 -0.0547,-0.08203 l -0.13672,-0.154297 -0.0566,-0.167969 a 0.51233122,0.51233122 0 0 0 -0.01,-0.02539 l -0.11719,-0.292968 a 0.51233122,0.51233122 0 0 0 -0.043,-0.08398 l -0.15234,-0.240234 -0.0703,-0.349609 a 0.51233122,0.51233122 0 0 0 -0.0312,-0.09961 l -0.15234,-0.355469 -0.0703,-0.408203 -0.0293,-0.523437 a 0.51233122,0.51233122 0 0 0 -0.0234,-0.125 l -0.16015,-0.509766 -0.0527,-0.503906 a 0.51233122,0.51233122 0 0 0 -0.004,-0.02539 l -0.084,-0.544922 -0.0566,-0.542968 a 0.51233122,0.51233122 0 0 0 -0.006,-0.0332 l -0.0879,-0.523438 -0.0859,-0.550781 a 0.51233122,0.51233122 0 0 0 -0.002,-0.01758 l -0.0879,-0.455078 -0.0566,-0.425782 a 0.51233122,0.51233122 0 0 0 -0.006,-0.03906 l -0.084,-0.388672 -0.0547,-0.394531 a 0.51233122,0.51233122 0 0 0 -0.0215,-0.08984 l -0.11132,-0.330078 -0.0781,-0.326172 -0.0586,-0.259766 A 0.51233122,0.51233122 0 0 0 218.79492,16.375 l -0.11133,-0.107422 -0.0215,-0.07617 a 0.51233122,0.51233122 0 0 0 -0.29883,-0.335937 l -0.14453,-0.05859 a 0.51233122,0.51233122 0 0 0 -0.19336,-0.03711 z m -0.23047,0.917968 a 0.51233122,0.51233122 0 0 0 0.0234,0.03906 l -0.0137,-0.0059 z m 0.29883,0.07422 -0.0332,0.0332 h -0.008 a 0.51233122,0.51233122 0 0 0 0.041,-0.0332 z m 0.11328,0.0039 -0.0527,0.0293 h -0.0371 a 0.51233122,0.51233122 0 0 0 0.0898,-0.0293 z m -0.30274,0.109375 a 0.51233122,0.51233122 0 0 0 0.004,0.0059 l -0.006,0.01367 -0.008,0.0078 a 0.51227999,0.51227999 0 0 0 0.01,-0.02734 z m 8.56836,1.314453 a 0.51233122,0.51233122 0 0 0 -0.13086,0.125 l 0.0918,-0.107421 z"
     id="path540" />
  <path
     style="color:#000000;fill:#cc0066;stroke-linecap:round;stroke-linejoin:round;-inkscape-stroke:none"
     d="m 221.83008,103.29102 -0.36914,0.0273 -0.30274,0.0117 a 0.51405641,0.51405641 0 0 0 -0.0879,0.0117 l -0.33398,0.0723 a 0.51405641,0.51405641 0 0 0 -0.0215,0.006 l -0.35742,0.0937 a 0.51405641,0.51405641 0 0 0 -0.14844,0.0645 l -0.2207,0.14257 -0.33789,0.11133 a 0.51405641,0.51405641 0 0 0 -0.19141,0.11328 l -0.26367,0.24805 -0.2832,0.23047 a 0.51405641,0.51405641 0 0 0 -0.0273,0.0234 l -0.6211,0.58398 a 0.51405641,0.51405641 0 0 0 -0.041,0.043 l -0.32422,0.38476 a 0.51405641,0.51405641 0 0 0 -0.0508,0.0723 l -0.26172,0.45117 a 0.51405641,0.51405641 0 0 0 -0.0234,0.0449 l -0.21875,0.47461 -0.25586,0.47461 a 0.51405641,0.51405641 0 0 0 -0.0254,0.0547 l -0.20313,0.51367 a 0.51405641,0.51405641 0 0 0 -0.006,0.0156 l -0.17969,0.49414 a 0.51405641,0.51405641 0 0 0 -0.0234,0.0957 l -0.0742,0.48438 -0.13281,0.46484 a 0.51405641,0.51405641 0 0 0 -0.0156,0.0879 l -0.0586,0.57813 -0.0586,0.5371 a 0.51405641,0.51405641 0 0 0 -0.002,0.0215 l -0.0371,0.55859 a 0.51405641,0.51405641 0 0 0 0,0.0371 l 0.002,0.56055 a 0.51405641,0.51405641 0 0 0 0.002,0.041 l 0.043,0.52149 a 0.51405641,0.51405641 0 0 0 0.01,0.0645 l 0.10938,0.5 0.10547,0.53711 a 0.51405641,0.51405641 0 0 0 0.0137,0.0488 l 0.15234,0.50586 a 0.51405641,0.51405641 0 0 0 0.0176,0.0488 l 0.38477,0.92383 a 0.51405641,0.51405641 0 0 0 0.041,0.0781 l 0.25977,0.40625 a 0.51405641,0.51405641 0 0 0 0.0391,0.0527 l 0.30078,0.36133 a 0.51405641,0.51405641 0 0 0 0.0195,0.0215 l 0.64258,0.68359 a 0.51405641,0.51405641 0 0 0 0.0449,0.043 l 0.36719,0.30469 a 0.51405641,0.51405641 0 0 0 0.12305,0.0762 l 0.8164,0.35547 0.41211,0.18164 a 0.51405641,0.51405641 0 0 0 0.0899,0.0293 l 0.41211,0.0957 a 0.51405641,0.51405641 0 0 0 0.0195,0.004 l 0.39258,0.0762 a 0.51405641,0.51405641 0 0 0 0.01,0.002 l 0.43555,0.0742 a 0.51405641,0.51405641 0 0 0 0.0742,0.008 l 0.37109,0.008 a 0.51405641,0.51405641 0 0 0 0.0684,-0.002 l 0.4375,-0.0469 a 0.51405641,0.51405641 0 0 0 0.0918,-0.0195 l 0.37695,-0.11132 a 0.51405641,0.51405641 0 0 0 0.0176,-0.006 l 0.39844,-0.13477 a 0.51405641,0.51405641 0 0 0 0.12695,-0.0625 l 0.31055,-0.21289 0.37109,-0.23047 a 0.51405641,0.51405641 0 0 0 0.0254,-0.0156 l 0.33984,-0.23828 a 0.51405641,0.51405641 0 0 0 0.0566,-0.0469 l 0.68164,-0.64258 a 0.51405641,0.51405641 0 0 0 0.0449,-0.0449 l 0.30273,-0.36719 a 0.51405641,0.51405641 0 0 0 0.0703,-0.10742 l 0.23829,-0.50391 0.24023,-0.46289 a 0.51405641,0.51405641 0 0 0 0.0195,-0.043 l 0.18164,-0.45118 a 0.51405641,0.51405641 0 0 0 0.0195,-0.0547 l 0.13672,-0.49414 a 0.51405641,0.51405641 0 0 0 0.008,-0.0293 l 0.0977,-0.45703 a 0.51405641,0.51405641 0 0 0 0.004,-0.0234 l 0.0781,-0.47461 a 0.51405641,0.51405641 0 0 0 0.006,-0.043 l 0.0352,-0.43555 a 0.51405641,0.51405641 0 0 0 0.002,-0.0293 l 0.01,-0.45508 a 0.51405641,0.51405641 0 0 0 -0.004,-0.0879 l -0.0703,-0.46094 a 0.51405641,0.51405641 0 0 0 -0.002,-0.0176 l -0.0684,-0.375 a 0.51405641,0.51405641 0 0 0 -0.006,-0.0273 l -0.0957,-0.39844 a 0.51405641,0.51405641 0 0 0 -0.002,-0.008 l -0.10938,-0.41797 a 0.51405641,0.51405641 0 0 0 -0.0156,-0.0527 l -0.13477,-0.35938 a 0.51405641,0.51405641 0 0 0 -0.0508,-0.0996 l -0.13672,-0.21289 -0.0937,-0.31055 a 0.51405641,0.51405641 0 0 0 -0.0801,-0.15625 l -0.10157,-0.13867 -0.0703,-0.17187 a 0.51405641,0.51405641 0 0 0 -0.0195,-0.0391 l -0.0254,-0.0508 a 0.51405641,0.51405641 0 0 0 0.0527,-0.11132 l 0.0137,-0.0371 0.0449,-0.0977 0.0352,-0.0606 a 0.51405641,0.51405641 0 0 0 0.0664,-0.28125 l -0.006,-0.125 -0.0273,0.0508 a 0.51405641,0.51405641 0 0 0 0.0605,-0.31835 l -0.0332,-0.25196 a 0.51405641,0.51405641 0 0 0 -0.0137,-0.0664 l -0.0176,-0.0645 a 0.51405641,0.51405641 0 0 0 -0.041,-0.10156 l -0.0781,-0.15039 -0.043,-0.14258 a 0.51405641,0.51405641 0 0 0 -0.0254,-0.0645 l -0.0664,-0.14649 -0.0664,-0.18554 a 0.51405641,0.51405641 0 0 0 -0.0371,-0.082 l -0.0996,-0.17969 -0.0625,-0.16797 a 0.51405641,0.51405641 0 0 0 -0.0684,-0.12695 l -0.16016,-0.21485 a 0.51405641,0.51405641 0 0 0 -0.0391,-0.0469 l -0.80469,-0.85547 a 0.51405641,0.51405641 0 0 0 -0.0703,-0.0625 l -0.26172,-0.19336 a 0.51405641,0.51405641 0 0 0 -0.17773,-0.084 l -0.2793,-0.0703 -0.16601,-0.11914 a 0.51405641,0.51405641 0 0 0 -0.23047,-0.0898 l -0.41407,-0.0547 -0.73828,-0.10547 a 0.51405641,0.51405641 0 0 0 -0.10937,-0.004 z m 0.0176,1.02929 0.68945,0.0977 a 0.51405641,0.51405641 0 0 0 0.006,0.002 l 0.28711,0.0371 0.13867,0.0996 a 0.51405641,0.51405641 0 0 0 0.17383,0.0801 l 0.27344,0.0684 0.14453,0.10547 0.75195,0.80078 0.0977,0.13281 0.0508,0.13867 a 0.51405641,0.51405641 0 0 0 0.0352,0.0742 l 0.0977,0.17383 0.0586,0.16602 a 0.51405641,0.51405641 0 0 0 0.0195,0.0449 l 0.0625,0.13867 0.0488,0.1543 a 0.51405641,0.51405641 0 0 0 0.0332,0.084 l 0.0703,0.13477 0.004,0.0352 0.041,-0.0703 a 0.51405641,0.51405641 0 0 0 -0.0644,0.27539 l 0.006,0.12109 0.006,-0.008 -0.0645,0.14063 a 0.51405641,0.51405641 0 0 0 -0.25586,0.27539 l -0.002,0.0684 -0.004,0.0254 a 0.51405641,0.51405641 0 0 0 0.0117,0.0684 l -0.0801,0.10547 -0.20703,0.19531 a 0.51400501,0.51400501 0 0 0 -0.0234,0.72656 0.51400501,0.51400501 0 0 0 0.72656,0.0215 l 0.0254,-0.0234 0.0254,0.0332 0.0898,0.29492 a 0.51405641,0.51405641 0 0 0 0.0605,0.12891 l 0.14648,0.22656 0.10547,0.2832 0.10157,0.38868 0.0898,0.3789 0.0644,0.35352 0.0625,0.4082 -0.01,0.39649 -0.0332,0.40039 -0.0723,0.44336 -0.0918,0.42773 -0.125,0.44922 -0.16211,0.40234 -0.23437,0.44922 a 0.51405641,0.51405641 0 0 0 -0.008,0.0156 l -0.21484,0.45312 -0.24219,0.29297 -0.63281,0.5957 -0.29687,0.20703 -0.3711,0.23047 a 0.51405641,0.51405641 0 0 0 -0.0195,0.0137 l -0.25976,0.17774 -0.32422,0.10937 -0.32227,0.0957 -0.35742,0.0391 -0.30274,-0.008 -0.39062,-0.0664 -0.37891,-0.0742 -0.35547,-0.082 -0.36718,-0.16211 a 0.51405641,0.51405641 0 0 0 -0.002,0 l -0.75,-0.32812 -0.28711,-0.23633 -0.60937,-0.65039 -0.27148,-0.32227 -0.2168,-0.34179 -0.35742,-0.85938 -0.13868,-0.45508 -0.10156,-0.51758 a 0.51405641,0.51405641 0 0 0 -0.002,-0.008 l -0.10352,-0.47265 -0.0391,-0.4668 -0.002,-0.52149 0.0351,-0.53125 0.0566,-0.52734 a 0.51405641,0.51405641 0 0 0 0,-0.002 l 0.0547,-0.53711 0.12891,-0.45313 a 0.51405641,0.51405641 0 0 0 0.0117,-0.0605 l 0.0723,-0.46485 0.15821,-0.4414 0.1914,-0.47657 0.24805,-0.46289 a 0.51405641,0.51405641 0 0 0 0.0156,-0.0312 l 0.21485,-0.46679 0.22851,-0.39063 0.27539,-0.32812 0.58594,-0.55079 0.2832,-0.23046 a 0.51405641,0.51405641 0 0 0 0.0273,-0.0234 l 0.19336,-0.18164 0.29297,-0.0957 a 0.51405641,0.51405641 0 0 0 0.11914,-0.0566 l 0.20703,-0.13476 0.26562,-0.0703 0.2793,-0.0606 0.26563,-0.0117 a 0.51405641,0.51405641 0 0 0 0.0156,0 z m 3.65625,3.07617 0.0488,0.0527 0.0156,0.0586 a 0.51405641,0.51405641 0 0 0 -0.008,-0.006 0.51400501,0.51400501 0 0 0 -0.0566,-0.10547 z"
     id="path542" />
  <path
     style="color:#000000;fill:#cc0066;stroke-linecap:round;stroke-linejoin:round;-inkscape-stroke:none"
     d="m 183.98242,47.886719 a 0.50426042,0.50426042 0 0 0 -0.38086,0.171875 l -0.0156,0.01953 -0.0742,0.07422 a 0.50426042,0.50426042 0 0 0 -0.14063,0.277343 l -0.0273,0.171875 a 0.50426042,0.50426042 0 0 0 0,0.002 l -0.0312,0.203125 a 0.50426042,0.50426042 0 0 0 -0.006,0.07617 v 0.08594 a 0.50421,0.50421 0 0 0 0.39258,0.457031 l 0.01,0.154297 a 0.50426042,0.50426042 0 0 0 0.004,0.03125 l 0.0586,0.427734 0.0566,0.511719 0.0586,0.546875 a 0.50426042,0.50426042 0 0 0 0.002,0.01758 l 0.084,0.591797 0.0586,0.621094 a 0.50426042,0.50426042 0 0 0 0.002,0.01563 l 0.0859,0.691406 a 0.50426042,0.50426042 0 0 0 0,0.002 l 0.0859,0.66211 0.082,0.697265 0.0273,0.669922 a 0.50426042,0.50426042 0 0 0 0,0.02344 l 0.0586,0.691406 a 0.50426042,0.50426042 0 0 0 0.002,0.0039 l 0.0586,0.632813 a 0.50426042,0.50426042 0 0 0 0,0.0078 l 0.0586,0.546875 A 0.50426042,0.50426042 0 0 0 184.49609,57 l 0.084,0.509766 0.0527,0.449218 a 0.50426042,0.50426042 0 0 0 0.008,0.04297 l 0.0898,0.433594 a 0.50426042,0.50426042 0 0 0 0.0215,0.07422 l 0.12891,0.34375 0.0508,0.222656 a 0.50426042,0.50426042 0 0 0 0.008,0.0332 l 0.0859,0.289062 a 0.50426042,0.50426042 0 0 0 0.1582,0.240235 l 0.1875,0.158203 0.12891,0.130859 a 0.50426042,0.50426042 0 0 0 0.16797,0.111328 l 0.0664,0.02734 0.13672,0.117188 a 0.50426042,0.50426042 0 0 0 0.33008,0.121093 h 0.8086 a 0.50426042,0.50426042 0 0 0 0.0391,0 l 0.24414,-0.01953 a 0.50426042,0.50426042 0 0 0 0.12305,0.197266 l -0.004,-0.002 a 0.50426042,0.50426042 0 0 0 0.0996,0.162109 l 0.17187,0.175781 a 0.50426042,0.50426042 0 0 0 0.0586,0.05078 l 0.1875,0.138671 0.13867,0.16211 a 0.50426042,0.50426042 0 0 0 0.1582,0.123047 l 0.21094,0.103515 0.17187,0.171875 a 0.50426042,0.50426042 0 0 0 0.20704,0.125 l 0.26171,0.08008 0.28907,0.128907 a 0.50426042,0.50426042 0 0 0 0.0937,0.03125 l 0.26172,0.05859 a 0.50426042,0.50426042 0 0 0 0.0254,0.0059 l 0.34375,0.05859 a 0.50426042,0.50426042 0 0 0 0.0371,0.0039 l 0.28906,0.02734 a 0.50426042,0.50426042 0 0 0 0.0488,0.002 h 0.60547 a 0.50426042,0.50426042 0 0 0 0.11523,-0.01367 l 0.22266,-0.05273 0.28125,-0.05664 a 0.50426042,0.50426042 0 0 0 0.0117,-0.002 l 0.51563,-0.117188 a 0.50426042,0.50426042 0 0 0 0.16406,-0.07031 l 0.19922,-0.13086 0.12695,-0.03711 a 0.50426042,0.50426042 0 0 0 0.17969,-0.09375 l 0.17578,-0.144531 a 0.50426042,0.50426042 0 0 0 0.008,-0.0078 l 0.18554,-0.160156 0.2168,-0.162109 a 0.50426042,0.50426042 0 0 0 0.19726,-0.326172 l 0.002,-0.01953 0.0586,-0.05078 a 0.50426042,0.50426042 0 0 0 0.15625,-0.242187 l 0.0586,-0.203125 a 0.50426042,0.50426042 0 0 0 0.0137,-0.06055 l 0.0273,-0.171875 a 0.50426042,0.50426042 0 0 0 0.006,-0.08008 v -0.34375 a 0.50426042,0.50426042 0 0 0 -0.0137,-0.115235 l -0.0547,-0.230468 a 0.50426042,0.50426042 0 0 0 -0.13476,-0.240235 l 0.0117,0.0098 -0.0332,-0.07617 -0.0488,-0.193359 a 0.50426042,0.50426042 0 0 0 -0.29883,-0.34375 l 0.0312,0.01367 v -0.002 a 0.50426042,0.50426042 0 0 0 -0.0957,-0.130859 L 193.18555,58.0625 a 0.50426042,0.50426042 0 0 0 -0.24219,-0.134766 l -0.0176,-0.0039 -0.11719,-0.08594 a 0.50426042,0.50426042 0 0 0 -0.15625,-0.07617 l -0.20312,-0.05859 a 0.50426042,0.50426042 0 0 0 -0.13867,-0.01953 h -0.69141 a 0.50426042,0.50426042 0 0 0 -0.10156,0.0098 l -0.26172,0.05469 -0.25977,0.02344 a 0.50426042,0.50426042 0 0 0 -0.13281,0.03125 l -0.33789,0.13086 -0.36719,0.07813 a 0.50426042,0.50426042 0 0 0 -0.11133,0.03711 l -0.42578,0.201172 -0.43164,0.199219 a 0.50426042,0.50426042 0 0 0 -0.004,0 l -0.4336,0.203125 a 0.50426042,0.50426042 0 0 0 -0.0273,0.01563 l -0.35547,0.193359 -0.36719,0.169922 -0.34765,0.07422 a 0.50426042,0.50426042 0 0 0 -0.0957,0.0293 l -0.32812,0.142578 -0.24219,0.01953 h -0.59961 l -0.0586,-0.04883 a 0.50426042,0.50426042 0 0 0 -0.13867,-0.08594 l -0.0508,-0.01953 -0.0723,-0.07227 a 0.50426042,0.50426042 0 0 0 -0.0312,-0.0293 l -0.0879,-0.07422 -0.0371,-0.128906 -0.0566,-0.242188 a 0.50426042,0.50426042 0 0 0 -0.0195,-0.06445 l -0.12696,-0.339844 -0.0762,-0.373047 -0.0527,-0.439453 a 0.50426042,0.50426042 0 0 0 -0.004,-0.02344 l -0.082,-0.50586 -0.0566,-0.527343 -0.0586,-0.628907 -0.0586,-0.677734 -0.0254,-0.679688 a 0.50426042,0.50426042 0 0 0 -0.004,-0.03906 l -0.0859,-0.71875 a 0.50426042,0.50426042 0 0 0 0,-0.0059 l -0.0859,-0.66211 -0.0859,-0.683594 -0.0566,-0.625 a 0.50426042,0.50426042 0 0 0 -0.004,-0.02344 l -0.084,-0.597656 -0.0586,-0.53711 a 0.50426042,0.50426042 0 0 0 0,-0.0039 l -0.0586,-0.519531 a 0.50426042,0.50426042 0 0 0 0,-0.0098 l -0.0566,-0.417969 -0.0273,-0.359375 a 0.50426042,0.50426042 0 0 0 -0.008,-0.06641 l -0.0586,-0.285156 a 0.50426042,0.50426042 0 0 0 -0.004,-0.01367 l -0.0508,-0.210937 -0.0273,-0.183594 a 0.50426042,0.50426042 0 0 0 -0.041,-0.136719 l -0.0274,-0.05859 a 0.50426042,0.50426042 0 0 0 -0.45703,-0.291015 z m 7.6875,10.804687 h 0.56836 l 0.0508,0.01563 0.12696,0.0918 a 0.50426042,0.50426042 0 0 0 0.18164,0.08398 l -0.0234,-0.0059 0.0137,0.01172 0.0488,0.09961 a 0.50426042,0.50426042 0 0 0 0.26172,0.240235 l -0.0918,-0.03711 a 0.50426042,0.50426042 0 0 0 0.0195,0.05664 l 0.0859,0.203125 a 0.50426042,0.50426042 0 0 0 0.10742,0.160156 l -0.043,-0.04297 0.01,0.0332 v 0.246094 l -0.0176,0.101563 -0.008,0.0293 -0.0859,0.07422 a 0.50426042,0.50426042 0 0 0 -0.16797,0.302735 l -0.0664,0.04883 a 0.50426042,0.50426042 0 0 0 -0.0273,0.02344 l -0.19531,0.167969 -0.0918,0.07422 -0.0996,0.03125 a 0.50426042,0.50426042 0 0 0 -0.13476,0.06055 l -0.18555,0.123047 -0.42188,0.0957 -0.2832,0.05664 a 0.50426042,0.50426042 0 0 0 -0.0156,0.0039 l -0.17383,0.04102 h -0.52149 l -0.24609,-0.02344 -0.3125,-0.05273 -0.20117,-0.04492 -0.27149,-0.121093 a 0.50426042,0.50426042 0 0 0 -0.0547,-0.01953 L 189.23437,60.767578 189.0918,60.625 a 0.50426042,0.50426042 0 0 0 -0.13282,-0.0957 l -0.19336,-0.0957 -0.10937,-0.126953 a 0.50426042,0.50426042 0 0 0 -0.0801,-0.07422 l -0.19922,-0.148438 -0.0644,-0.06445 -0.008,-0.02539 a 0.50426042,0.50426042 0 0 0 0.0664,-0.02344 l 0.4336,-0.199219 a 0.50426042,0.50426042 0 0 0 0.0332,-0.01563 l 0.35742,-0.195312 0.41602,-0.197266 0.43164,-0.197265 a 0.50426042,0.50426042 0 0 0 0.006,-0.002 l 0.37695,-0.177734 0.34766,-0.07422 a 0.50426042,0.50426042 0 0 0 0.0781,-0.02344 l 0.31055,-0.119141 0.21484,-0.02148 a 0.50426042,0.50426042 0 0 0 0.0527,-0.0078 z m -3.63086,0.97461 0.0488,0.02539 v 0.02344 l -0.004,0.0039 a 0.50426042,0.50426042 0 0 0 -0.0449,-0.05273 z m 0.0859,0.04492 0.0215,0.0098 v 0.06836 a 0.50426042,0.50426042 0 0 0 -0.008,-0.0098 0.50421,0.50421 0 0 0 -0.0137,-0.06836 z m -0.98828,0.320313 a 0.50426042,0.50426042 0 0 0 0.1543,0.248047 l -0.1543,-0.07031 z m 0.11914,0.107422 a 0.50426042,0.50426042 0 0 0 0.0508,0.08008 h -0.0137 z m 0.0898,0.142578 a 0.50426042,0.50426042 0 0 0 0.0234,0.03516 l -0.0684,-0.03125 z"
     id="path544" />
  <path
     style="color:#000000;fill:#cc0066;stroke-linecap:round;stroke-linejoin:round;-inkscape-stroke:none"
     d="M 142.99023,51.658203 A 0.509976,0.509976 0 0 0 142.75,51.71875 l -0.0469,0.02344 -0.0449,0.02148 a 0.509976,0.509976 0 0 0 -0.29492,0.46289 v -0.228515 a 0.509976,0.509976 0 0 0 -0.11523,0.117187 l -0.0566,0.08398 -0.11719,0.167968 -0.0273,0.02539 a 0.50992501,0.50992501 0 0 0 0,0.722656 0.50992501,0.50992501 0 0 0 0.63672,0 v 0.541016 a 0.509976,0.509976 0 0 0 0.002,0.04492 l 0.0312,0.34375 0.0254,0.373047 0.0312,0.492187 a 0.509976,0.509976 0 0 0 0.004,0.03711 l 0.11719,0.873046 0.0586,0.460938 0.0547,0.464844 a 0.509976,0.509976 0 0 0 0.002,0.01953 l 0.0566,0.361328 0.0293,0.361328 a 0.509976,0.509976 0 0 0 0.0469,0.173828 l 0.14648,0.316407 0.043,0.228515 a 0.509976,0.509976 0 0 0 0.0195,0.07227 l 0.0898,0.261719 a 0.509976,0.509976 0 0 0 0.0488,0.101562 l 0.10352,0.167969 0.0391,0.15625 a 0.509976,0.509976 0 0 0 0.2461,0.322265 l 0.1875,0.105469 0.01,0.0059 0.12305,0.148437 a 0.509976,0.509976 0 0 0 0.39258,0.183594 l 0.0801,0.01758 a 0.509976,0.509976 0 0 0 -0.0352,0.140625 v 0.144531 a 0.509976,0.509976 0 0 0 0.13867,0.337891 0.509976,0.509976 0 0 0 0.29688,0.292969 l 0.0644,0.02344 0.008,0.0078 a 0.509976,0.509976 0 0 0 0.16211,0.103515 l 0.082,0.0332 0.18164,0.136719 a 0.509976,0.509976 0 0 0 0.16602,0.08203 l 0.13867,0.04102 0.23437,0.138672 a 0.509976,0.509976 0 0 0 0.0117,0.0059 l 0.26563,0.148438 a 0.509976,0.509976 0 0 0 0.008,0.0039 l 0.26563,0.142578 0.21679,0.195313 a 0.509976,0.509976 0 0 0 0.11133,0.07617 l 0.25391,0.126954 0.26172,0.183593 a 0.509976,0.509976 0 0 0 0.0156,0.0098 l 0.26172,0.171875 a 0.509976,0.509976 0 0 0 0.0176,0.01172 l 0.29297,0.175781 a 0.509976,0.509976 0 0 0 0.15039,0.06055 l 0.15429,0.03516 0.14649,0.109375 a 0.509976,0.509976 0 0 0 0.23828,0.09766 l 0.20312,0.02734 a 0.509976,0.509976 0 0 0 0.0684,0.0039 h 0.4961 a 0.509976,0.509976 0 0 0 0.16406,-0.02734 l 0.0918,-0.03125 h -0.0254 a 0.509976,0.509976 0 0 0 0.32422,-0.115235 L 150.2793,62.5 a 0.509976,0.509976 0 0 0 0.0371,-0.0332 l 0.0586,-0.05859 a 0.509976,0.509976 0 0 0 0.12891,-0.220703 l 0.0469,-0.164063 0.0117,-0.02148 a 0.509976,0.509976 0 0 0 0.0469,-0.216797 v -0.613281 a 0.509976,0.509976 0 0 0 -0.002,-0.05273 l -0.0254,-0.236329 V 60.765625 A 0.509976,0.509976 0 0 0 150.5625,60.625 l -0.0586,-0.203125 a 0.509976,0.509976 0 0 0 -0.006,-0.01953 l -0.11719,-0.351563 a 0.509976,0.509976 0 0 0 -0.0254,-0.06445 l -0.0879,-0.175781 a 0.509976,0.509976 0 0 0 -0.006,-0.01172 l -0.0703,-0.134766 -0.0449,-0.136718 a 0.509976,0.509976 0 0 0 -0.0898,-0.164063 l -0.12109,-0.144531 -0.0664,-0.111328 a 0.509976,0.509976 0 0 0 -0.0801,-0.103516 l -0.20117,-0.197265 -0.0684,-0.07031 -0.13086,-0.162109 a 0.509976,0.509976 0 0 0 -0.29883,-0.175782 l -0.0137,-0.0039 -0.10351,-0.08789 a 0.509976,0.509976 0 0 0 -0.10157,-0.06641 l -0.0781,-0.03906 -0.19336,-0.144531 a 0.509976,0.509976 0 0 0 -0.30469,-0.101563 h -0.61328 a 0.509976,0.509976 0 0 0 -0.22461,0.05273 l -0.12109,0.05859 -0.20313,0.04492 a 0.509976,0.509976 0 0 0 -0.0293,0.0078 l -0.16407,0.04687 -0.1914,0.02344 a 0.509976,0.509976 0 0 0 -0.2793,0.123047 l -0.11328,0.101562 -0.0742,0.0098 -0.25391,0.02539 a 0.509976,0.509976 0 0 0 -0.28515,0.125 l -0.14258,0.126953 -0.10938,0.02734 a 0.509976,0.509976 0 0 0 -0.006,0.002 l -0.14257,0.03711 h -0.39844 l -0.17774,-0.04102 a 0.509976,0.509976 0 0 0 -0.11523,-0.01367 h 0.18164 l -0.0195,-0.02344 a 0.509976,0.509976 0 0 0 -0.11328,-0.101562 l -0.0898,-0.05859 a 0.509976,0.509976 0 0 0 -0.0312,-0.01758 l -0.01,-0.0059 -0.006,-0.01953 a 0.509976,0.509976 0 0 0 -0.0606,-0.144531 l -0.11523,-0.185547 -0.0586,-0.173828 -0.0469,-0.25586 a 0.509976,0.509976 0 0 0 -0.041,-0.123046 l -0.13671,-0.291016 -0.0234,-0.287109 a 0.509976,0.509976 0 0 0 -0.004,-0.03711 l -0.0566,-0.36914 -0.0547,-0.458985 a 0.509976,0.509976 0 0 0 0,-0.0059 l -0.0586,-0.464844 a 0.509976,0.509976 0 0 0 0,-0.0039 l -0.11523,-0.855469 -0.0293,-0.478516 a 0.509976,0.509976 0 0 0 -0.002,-0.0059 l -0.0274,-0.378906 a 0.509976,0.509976 0 0 0 0,-0.0078 l -0.0293,-0.326172 v -0.558593 a 0.509976,0.509976 0 0 0 -0.004,-0.06641 l -0.0273,-0.207031 a 0.509976,0.509976 0 0 0 -0.002,-0.01172 L 143.64453,52.625 v -0.164063 a 0.509976,0.509976 0 0 0 -0.13672,-0.347656 l 0.041,0.04297 a 0.509976,0.509976 0 0 0 -0.0937,-0.222656 0.509976,0.509976 0 0 0 -0.4336,-0.275391 z m 0.39258,0.599609 v 0.292969 l -0.19922,0.09375 a 0.509976,0.509976 0 0 0 0.19922,-0.386719 z m -0.8125,0.144532 a 0.509976,0.509976 0 0 0 0.043,0.109375 l -0.043,-0.04297 z m 0.0176,0.04102 a 0.509976,0.509976 0 0 0 0.0996,0.142578 l -0.0625,-0.0625 z m 5.21094,6.53125 h 0.32617 l 0.0957,0.07031 a 0.509976,0.509976 0 0 0 0.0762,0.04883 l 0.0625,0.03125 0.16016,0.134766 a 0.509976,0.509976 0 0 0 0.23438,0.113281 l -0.0371,-0.0078 0.0273,0.0332 a 0.509976,0.509976 0 0 0 0.0254,0.0293 l 0.0859,0.08984 a 0.509976,0.509976 0 0 0 0.0117,0.0098 l 0.16015,0.158203 0.0527,0.08594 a 0.509976,0.509976 0 0 0 0.043,0.06445 l 0.0859,0.103516 0.0274,0.08594 a 0.509976,0.509976 0 0 0 0.0332,0.07422 l 0.0859,0.166016 0.0684,0.138672 0.10351,0.310547 0.0352,0.123047 v 0.07227 a 0.509976,0.509976 0 0 0 0.002,0.05273 l 0.0254,0.236328 v 0.472656 l 0.0195,-0.04297 a 0.509976,0.509976 0 0 0 -0.0273,0.07422 l -0.0176,0.0625 a 0.509976,0.509976 0 0 0 -0.008,0.002 l -0.0918,0.03125 h -0.3789 l -0.0371,-0.0059 -0.12696,-0.0957 a 0.509976,0.509976 0 0 0 -0.19531,-0.08984 l -0.18164,-0.03906 -0.21289,-0.128906 -0.24609,-0.162109 -0.28516,-0.201172 a 0.509976,0.509976 0 0 0 -0.0664,-0.03906 l -0.22851,-0.115234 -0.21094,-0.1875 a 0.509976,0.509976 0 0 0 -0.0996,-0.07031 l -0.3164,-0.169921 -0.25586,-0.142579 -0.28321,-0.167968 a 0.509976,0.509976 0 0 0 -0.11914,-0.05273 l -0.11328,-0.03125 -0.1582,-0.121093 a 0.509976,0.509976 0 0 0 -0.0703,-0.03906 0.50992501,0.50992501 0 0 0 0.24609,-0.08203 0.50992501,0.50992501 0 0 0 0.0391,-0.300781 0.509976,0.509976 0 0 0 0.0195,-0.0098 l 0.11133,-0.09961 0.0996,-0.0098 a 0.509976,0.509976 0 0 0 0.0137,-0.002 l 0.23438,-0.03125 a 0.509976,0.509976 0 0 0 0.27148,-0.123047 l 0.10938,-0.09766 0.0762,-0.0098 a 0.509976,0.509976 0 0 0 0.082,-0.01563 l 0.18945,-0.05469 0.2461,-0.05469 a 0.509976,0.509976 0 0 0 0.11328,-0.03906 z m -2.20703,0.783203 0.0117,0.01172 0.0332,0.01172 0.008,0.02148 a 0.509976,0.509976 0 0 0 -0.0215,-0.01172 l 0.0254,0.02539 0.008,0.01953 V 59.875 a 0.509976,0.509976 0 0 0 -0.0664,-0.103516 0.509976,0.509976 0 0 0 -0.0137,-0.0098 l 0.01,0.002 a 0.509976,0.509976 0 0 0 -0.002,-0.0039 z m 0.15039,0.232422 -0.13867,0.136719 a 0.509976,0.509976 0 0 0 0.0566,-0.07031 0.509976,0.509976 0 0 0 0.006,-0.0098 l -0.004,0.0078 a 0.509976,0.509976 0 0 0 0.0801,-0.06445 z m -0.0859,0.02344 v 0.0039 l -0.0644,0.121094 -0.002,0.002 -0.14257,-0.05664 a 0.50992501,0.50992501 0 0 0 0.20898,-0.07031 z m 3.94336,1.726562 h 0.12109 a 0.509976,0.509976 0 0 0 -0.14453,0.02344 z"
     id="path546" />
  <path
     style="color:#000000;fill:#cc0066;stroke-linecap:round;stroke-linejoin:round;-inkscape-stroke:none"
     d="m 98.955078,55.380859 a 0.50166515,0.50166515 0 0 0 -0.06055,0.0039 l -0.257812,0.03125 a 0.50166515,0.50166515 0 0 0 -0.07227,0.01367 l -0.199219,0.05469 a 0.50166515,0.50166515 0 0 0 -0.142578,0.06445 l -0.193359,0.125 -0.146485,0.03906 a 0.50166515,0.50166515 0 0 0 -0.246093,0.148437 l -0.22461,0.25 -0.191406,0.142578 a 0.50166515,0.50166515 0 0 0 -0.05859,0.05078 l -0.195312,0.199219 -0.226563,0.222656 a 0.50166515,0.50166515 0 0 0 -0.09961,0.136719 l -0.113281,0.230469 a 0.50166515,0.50166515 0 0 0 -0.03906,0.111328 l -0.0332,0.148438 -0.130859,0.169921 a 0.50166515,0.50166515 0 0 0 -0.0957,0.207032 l -0.05859,0.289062 a 0.50166515,0.50166515 0 0 0 -0.0078,0.04687 l -0.02734,0.257813 a 0.50166515,0.50166515 0 0 0 -0.002,0.05273 v 0.914063 a 0.50166515,0.50166515 0 0 0 0.01758,0.132812 l 0.08594,0.316406 a 0.50166515,0.50166515 0 0 0 0.03516,0.0918 l 0.146485,0.294922 0.07422,0.291016 a 0.50166515,0.50166515 0 0 0 0.06055,0.144531 l 0.191407,0.302734 0.189453,0.355469 a 0.50166515,0.50166515 0 0 0 0.01172,0.01758 l 0.203125,0.34375 a 0.50166515,0.50166515 0 0 0 0.02344,0.03711 l 0.226562,0.316406 a 0.50166515,0.50166515 0 0 0 0.002,0.0039 l 0.230468,0.316406 A 0.50166515,0.50166515 0 0 0 97.75,62.371094 l 0.261719,0.183593 0.240234,0.210938 a 0.50166515,0.50166515 0 0 0 0.238281,0.117187 l 0.236328,0.04297 0.246094,0.134766 a 0.50166515,0.50166515 0 0 0 0.240235,0.06055 h 1.003909 a 0.50166515,0.50166515 0 0 0 0.0449,-0.002 l 0.33984,-0.03125 0.36719,-0.02539 a 0.50166515,0.50166515 0 0 0 0.21484,-0.06641 l 0.34375,-0.199219 a 0.50166515,0.50166515 0 0 0 0.0606,-0.04297 l 0.28125,-0.224609 0.30469,-0.22461 a 0.50166515,0.50166515 0 0 0 0.0918,-0.08594 l 0.25,-0.306641 0.24804,-0.27539 a 0.50166515,0.50166515 0 0 0 0.0684,-0.09766 l 0.17188,-0.316406 a 0.50166515,0.50166515 0 0 0 0.041,-0.09375 l 0.0703,-0.232422 0.11719,-0.210937 A 0.50166515,0.50166515 0 0 0 103.29297,60.5 l 0.0195,-0.171875 0.12109,0.140625 0.21875,0.296875 a 0.50166515,0.50166515 0 0 0 0.0488,0.05664 l 0.23047,0.230468 0.20703,0.285157 a 0.50166515,0.50166515 0 0 0 0.0879,0.09375 l 0.30664,0.248046 0.29297,0.267579 0.3086,0.308593 a 0.50166515,0.50166515 0 0 0 0.0371,0.03516 l 0.30664,0.248046 0.27539,0.25 a 0.50166515,0.50166515 0 0 0 0.0664,0.05078 l 0.31641,0.203125 a 0.50166515,0.50166515 0 0 0 0.0332,0.01953 l 0.35938,0.191406 0.36133,0.222656 a 0.50166515,0.50166515 0 0 0 0.0957,0.04687 l 0.39844,0.140625 a 0.50166515,0.50166515 0 0 0 0.0762,0.01953 l 0.40234,0.07422 0.40235,0.179688 a 0.50166515,0.50166515 0 0 0 0.17773,0.04297 l 1.0293,0.05469 0.48437,0.03125 a 0.50166515,0.50166515 0 0 0 0.0332,0 h 1.13672 l 0.30469,0.201172 a 0.50166515,0.50166515 0 0 0 0.27734,0.08398 h 0.14454 a 0.50161499,0.50161499 0 0 0 0.50195,-0.501953 0.50161499,0.50161499 0 0 0 -0.49609,-0.5 l -0.30274,-0.203125 a 0.50166515,0.50166515 0 0 0 -0.27734,-0.08203 h -1.27344 l -0.47266,-0.03125 a 0.50166515,0.50166515 0 0 0 -0.006,0 l -0.9375,-0.04883 -0.37304,-0.166016 a 0.50166515,0.50166515 0 0 0 -0.11133,-0.03516 l -0.42383,-0.07813 -0.31055,-0.111328 -0.33007,-0.201172 a 0.50166515,0.50166515 0 0 0 -0.0254,-0.01563 l -0.35352,-0.189453 -0.26563,-0.169922 -0.2539,-0.230469 a 0.50166515,0.50166515 0 0 0 -0.0195,-0.01758 l -0.29688,-0.240234 -0.29883,-0.298828 a 0.50166515,0.50166515 0 0 0 -0.0156,-0.01563 l -0.3125,-0.285157 a 0.50166515,0.50166515 0 0 0 -0.0215,-0.01953 l -0.26562,-0.216797 -0.19336,-0.263672 a 0.50166515,0.50166515 0 0 0 -0.0508,-0.05859 l -0.23047,-0.230469 -0.20898,-0.283203 a 0.50166515,0.50166515 0 0 0 -0.0234,-0.0293 l -0.18164,-0.210938 -0.18555,-0.265625 a 0.50166515,0.50166515 0 0 0 -0.0566,-0.06641 l -0.125,-0.126953 -0.0488,-0.126953 a 0.50166515,0.50166515 0 0 0 -0.0703,-0.128906 l -0.11914,-0.158203 -0.0293,-0.08789 a 0.50166515,0.50166515 0 0 0 -0.004,-0.0078 l -0.01,-0.0625 a 0.50166515,0.50166515 0 0 0 -0.0254,-0.09961 l -0.0547,-0.144531 a 0.50166515,0.50166515 0 0 0 -0.0332,-0.07227 l -0.006,-0.0078 -0.0391,-0.121094 a 0.50166515,0.50166515 0 0 0 -0.0352,-0.08398 l -0.0312,-0.05859 a 0.50166515,0.50166515 0 0 0 -0.0879,-0.119141 l -0.0586,-0.05859 a 0.50166515,0.50166515 0 0 0 -0.31446,-0.130859 0.50166515,0.50166515 0 0 0 -0.56836,0.429688 v 0.05469 a 0.50166515,0.50166515 0 0 0 0.006,0.08008 l 0.0274,0.171875 a 0.50166515,0.50166515 0 0 0 0.14062,0.275391 l -0.0312,-0.03125 0.0215,0.07617 a 0.50166515,0.50166515 0 0 0 0.0723,0.148437 l 0.0527,0.07422 v 0.486328 l -0.0254,0.162109 a 0.50166515,0.50166515 0 0 0 -0.006,0.07617 v 0.222657 l -0.0371,0.132812 a 0.50166515,0.50166515 0 0 0 -0.0137,0.07422 l -0.0195,0.158203 -0.0957,0.171875 a 0.50166515,0.50166515 0 0 0 -0.043,0.09961 l -0.0723,0.236328 -0.11719,0.21875 -0.21875,0.240235 a 0.50166515,0.50166515 0 0 0 -0.0156,0.01953 l -0.21875,0.267578 -0.26171,0.19336 a 0.50166515,0.50166515 0 0 0 -0.0137,0.01172 l -0.25976,0.207032 -0.21289,0.123046 -0.25586,0.01758 a 0.50166515,0.50166515 0 0 0 -0.01,0.002 l -0.32031,0.0293 h -0.853516 l -0.205078,-0.111329 a 0.50166515,0.50166515 0 0 0 -0.146485,-0.05273 l -0.177734,-0.0332 -0.158203,-0.138672 a 0.50166515,0.50166515 0 0 0 -0.04297,-0.03516 L 98.392578,61.597656 98.212891,61.349609 98,61.052734 97.814453,60.736328 97.619141,60.375 a 0.50166515,0.50166515 0 0 0 -0.01758,-0.0293 l -0.15625,-0.25 -0.06641,-0.265625 a 0.50166515,0.50166515 0 0 0 -0.03906,-0.101562 l -0.148438,-0.300782 -0.05469,-0.203125 v -0.820312 l 0.02148,-0.207031 0.03125,-0.152344 0.126953,-0.166016 a 0.50166515,0.50166515 0 0 0 0.0918,-0.195312 l 0.04687,-0.199219 0.04883,-0.101563 0.169922,-0.166015 a 0.50166515,0.50166515 0 0 0 0.0059,-0.0078 l 0.171875,-0.175781 0.199219,-0.148437 a 0.50166515,0.50166515 0 0 0 0.07227,-0.06445 l 0.158203,-0.173828 0.08008,-0.02148 a 0.50166515,0.50166515 0 0 0 0.150391,-0.06641 l 0.195312,-0.128907 0.08594,-0.02344 0.191406,-0.02344 h 0.333984 l 0.160157,0.02539 a 0.50166515,0.50166515 0 0 0 0.0098,0.002 l 0.136719,0.01953 0.08203,0.03125 0.06055,0.02734 -0.02344,-0.03516 a 0.50166515,0.50166515 0 0 0 0.281249,0.201172 l 0.0215,0.0059 -0.0449,-0.06641 a 0.50166515,0.50166515 0 0 0 0.2793,0.201172 l -0.0644,-0.01758 a 0.50166515,0.50166515 0 0 0 0.15234,0.148437 0.50166515,0.50166515 0 0 0 0.004,0.01758 l 0.0312,0.08594 a 0.50166515,0.50166515 0 0 0 0.0488,0.09766 l 0.0488,0.07617 0.01,0.0332 a 0.50166515,0.50166515 0 0 0 0.004,0.0098 v -0.04492 a 0.50166515,0.50166515 0 0 0 0.38476,0.488281 l 0.0937,0.02344 -0.043,-0.04297 a 0.50166515,0.50166515 0 0 0 0.25977,0.138672 l 0.14062,0.02734 a 0.50166515,0.50166515 0 0 0 0.0957,0.0078 h 0.0312 a 0.50161499,0.50161499 0 0 0 0.50195,-0.501953 0.50161499,0.50161499 0 0 0 -0.42188,-0.484375 l 0.043,0.04492 a 0.50166515,0.50166515 0 0 0 -0.082,-0.04492 v 0.285156 a 0.50166515,0.50166515 0 0 0 -0.0469,-0.210937 l -0.0137,-0.0293 -0.0176,-0.05469 a 0.50166515,0.50166515 0 0 0 -0.0195,-0.04492 0.50166515,0.50166515 0 0 0 -0.0586,-0.0332 l 0.0488,0.01172 A 0.50166515,0.50166515 0 0 0 101.39844,56.75 l -0.0312,-0.05469 a 0.50166515,0.50166515 0 0 0 -0.0137,-0.01953 l -0.0234,-0.04102 -0.0195,-0.09961 a 0.50166515,0.50166515 0 0 0 -0.13867,-0.261719 l -0.0586,-0.05859 a 0.50166515,0.50166515 0 0 0 -0.12305,-0.07617 l 0.0137,0.04297 a 0.50166515,0.50166515 0 0 0 -0.31641,-0.298829 0.50166515,0.50166515 0 0 0 -0.19727,-0.140625 l -0.0215,-0.0059 0.0449,0.06641 A 0.50166515,0.50166515 0 0 0 100.29883,55.625 l -0.19922,-0.08594 a 0.50166515,0.50166515 0 0 0 -0.0117,-0.0059 l -0.144531,-0.05859 a 0.50166515,0.50166515 0 0 0 -0.11914,-0.03125 l -0.195313,-0.02734 -0.193359,-0.0293 a 0.50166515,0.50166515 0 0 0 -0.07813,-0.0059 z m 4.107422,2.669922 0.0566,0.05664 0.002,0.0078 a 0.50166515,0.50166515 0 0 0 -0.0488,-0.04883 0.50166515,0.50166515 0 0 0 -0.01,-0.01563 z"
     id="path548" />
  <path
     style="color:#000000;fill:#cc0066;stroke-linecap:round;stroke-linejoin:round;-inkscape-stroke:none"
     d="m 0.77929687,17.970703 a 0.51338632,0.51338632 0 0 0 -0.2421875,0.06055 l -0.046875,0.02539 -0.0449219,0.02148 a 0.51338632,0.51338632 0 0 0 -0.14648437,0.101562 l -0.03125,0.03125 A 0.51338632,0.51338632 0 0 0 0.1171875,18.574219 v -0.01367 a 0.51338632,0.51338632 0 0 0 -0.02734375,0.07227 v -0.01758 a 0.51338632,0.51338632 0 0 0 -0.03125,0.07617 v -0.01172 l -0.02148438,0.136719 a 0.51338632,0.51338632 0 0 0 0,0.0059 l 0.01757813,-0.03516 a 0.51333499,0.51333499 0 0 0 0.22851563,0.6875 0.51333499,0.51333499 0 0 0 0.68945312,-0.228515 l 0.03125,-0.0625 a 0.51338632,0.51338632 0 0 0 0.044922,-0.185547 h 0.00977 a 0.51338632,0.51338632 0 0 0 0.060547,0.08398 l 0.070312,0.07031 0.025391,0.11914 A 0.51338632,0.51338632 0 0 0 1.3320312,19.5 l 0.1425782,0.162109 0.03125,0.158203 a 0.51338632,0.51338632 0 0 0 0.072266,0.177735 l 0.1914062,0.296875 0.1601563,0.318359 0.1542969,0.333985 0.1054687,0.40039 a 0.51338632,0.51338632 0 0 0 0.023437,0.07031 l 0.1738282,0.404297 0.1621093,0.402343 0.109375,0.41211 A 0.51338632,0.51338632 0 0 0 2.6875,22.71875 l 0.1933594,0.421875 0.1425781,0.390625 a 0.51338632,0.51338632 0 0 0 0.00391,0.0098 l 0.1484375,0.382812 a 0.51338632,0.51338632 0 0 0 0.037109,0.07813 l 0.1757813,0.292969 a 0.51338632,0.51338632 0 0 0 0.019531,0.0293 l 0.1875,0.271484 0.1621094,0.296875 a 0.51338632,0.51338632 0 0 0 0.058594,0.08398 l 0.1757812,0.207032 a 0.51338632,0.51338632 0 0 0 0.033203,0.03516 l 0.1542969,0.152344 0.082031,0.144531 A 0.51338632,0.51338632 0 0 0 4.3457031,25.625 l 0.265625,0.265625 0.019531,0.06055 a 0.51338632,0.51338632 0 0 0 0.3261718,0.324219 l -0.00781,-0.002 a 0.51338632,0.51338632 0 0 0 0.3359375,0.291016 l 0.1425782,0.01758 0.039063,0.01563 0.046875,0.03125 a 0.51338632,0.51338632 0 0 0 0.28125,0.08398 h 0.3789062 a 0.51338632,0.51338632 0 0 0 0.091797,-0.0078 l 0.1484375,-0.02734 a 0.51338632,0.51338632 0 0 0 0.2714844,-0.142578 l 0.1171875,-0.11914 0.1035156,-0.05273 a 0.51338632,0.51338632 0 0 0 0.1777344,-0.148437 l 0.5273437,-0.703125 a 0.51338632,0.51338632 0 0 0 0.029297,-0.04492 l 0.1542969,-0.25586 0.1484375,-0.175781 a 0.51338632,0.51338632 0 0 0 0.048828,-0.06836 l 0.1621094,-0.269531 0.15625,-0.207032 0.203125,-0.257812 a 0.51338632,0.51338632 0 0 0 0.058594,-0.0918 l 0.1171875,-0.238281 a 0.51338632,0.51338632 0 0 0 0.023437,-0.06055 l 0.044922,-0.128906 0.099609,-0.08594 A 0.51338632,0.51338632 0 0 0 9.015625,23.378906 l 0.021484,-0.07813 0.082031,-0.08203 a 0.51338632,0.51338632 0 0 0 0.1113282,-0.169922 l 0.050781,-0.123047 0.023437,-0.04883 0.1054688,-0.07617 A 0.51338632,0.51338632 0 0 0 9.59375,22.548828 l 0.021484,-0.06055 -0.027344,0.02734 a 0.51338632,0.51338632 0 0 0 0.1347657,-0.238281 l 0.044922,-0.177735 0.025391,-0.05078 0.00195,-0.002 a 0.51338632,0.51338632 0 0 0 0.1191406,-0.185547 l 0.046875,-0.128906 -0.021484,0.02148 a 0.51338632,0.51338632 0 0 0 0.076172,-0.09766 l 0.08984,-0.148438 a 0.51338632,0.51338632 0 0 0 0.02539,-0.04883 l 0.02149,-0.04492 0.02539,-0.04687 a 0.51338632,0.51338632 0 0 0 0.02149,-0.04883 l 0.05859,-0.144531 a 0.51338632,0.51338632 0 0 0 0.01953,-0.09961 0.51333499,0.51333499 0 0 0 -0.04102,-0.664063 0.51333499,0.51333499 0 0 0 -0.7265624,0 l -0.058594,0.05859 a 0.51338632,0.51338632 0 0 0 -0.1210938,0.195312 l -0.03125,0.08984 a 0.51338632,0.51338632 0 0 0 -0.029297,0.167969 v -0.04102 l -0.011719,0.02734 -0.017578,0.0332 a 0.51338632,0.51338632 0 0 0 -0.011719,0.02539 L 9.2128906,21 l -0.044922,0.07227 -0.013672,0.01367 a 0.51338632,0.51338632 0 0 0 -0.1191406,0.1875 l -0.046875,0.126954 0.021484,-0.02148 a 0.51338632,0.51338632 0 0 0 -0.09375,0.13086 l -0.089844,0.175781 a 0.51338632,0.51338632 0 0 0 -0.041016,0.107422 l -0.023437,0.09766 0.041016,-0.04297 a 0.51338632,0.51338632 0 0 0 -0.125,0.201172 l -0.00586,0.01953 -0.070312,0.05273 a 0.51338632,0.51338632 0 0 0 -0.1542969,0.18164 l -0.089844,0.175782 a 0.51338632,0.51338632 0 0 0 -0.019531,0.03906 l -0.019531,0.04883 -0.1015625,0.101563 a 0.51338632,0.51338632 0 0 0 -0.1308594,0.224609 l -0.017578,0.05859 -0.085937,0.07422 a 0.51338632,0.51338632 0 0 0 -0.1503907,0.222656 l -0.078125,0.230469 -0.080078,0.160156 -0.171875,0.21875 a 0.51338632,0.51338632 0 0 0 -0.00781,0.0098 l -0.1757812,0.234375 a 0.51338632,0.51338632 0 0 0 -0.03125,0.04492 l -0.1523438,0.25586 -0.1503906,0.175781 a 0.51338632,0.51338632 0 0 0 -0.048828,0.06836 l -0.1621094,0.269532 -0.4394531,0.58789 -0.070312,0.03516 a 0.51338632,0.51338632 0 0 0 -0.1289063,0.09375 l -0.052734,0.05273 H 5.9472656 l 0.037109,0.02539 a 0.51338632,0.51338632 0 0 0 -0.085937,-0.04492 l -0.1367188,-0.05469 0.027344,0.09766 A 0.51338632,0.51338632 0 0 0 5.671875,25.585937 0.51338632,0.51338632 0 0 0 5.6269531,25.574219 l 0.037109,0.0039 A 0.51338632,0.51338632 0 0 0 5.4570312,25.361328 L 5.5,25.375 A 0.51338632,0.51338632 0 0 0 5.4238281,25.25 L 5.1210937,24.949219 5.0390625,24.802734 A 0.51338632,0.51338632 0 0 0 4.9511719,24.689453 L 4.7597656,24.501953 4.6328125,24.351562 4.4824219,24.078125 A 0.51338632,0.51338632 0 0 0 4.4550781,24.03125 L 4.2617187,23.751953 4.1171875,23.511719 3.9863281,23.175781 3.8398438,22.771484 a 0.51338632,0.51338632 0 0 0 -0.015625,-0.04102 L 3.6386719,22.330078 3.5332031,21.931641 a 0.51338632,0.51338632 0 0 0 -0.019531,-0.06055 l -0.1757813,-0.4375 a 0.51338632,0.51338632 0 0 0 -0.00586,-0.0098 L 3.171875,21.046875 3.0644531,20.642578 a 0.51338632,0.51338632 0 0 0 -0.029297,-0.08398 L 2.859375,20.175781 a 0.51338632,0.51338632 0 0 0 -0.00781,-0.01367 L 2.6757813,19.810547 a 0.51338632,0.51338632 0 0 0 -0.027344,-0.05078 L 2.4941406,19.523437 2.4550781,19.326172 A 0.51338632,0.51338632 0 0 0 2.3359375,19.085937 L 2.1894531,18.919922 2.1582031,18.785156 A 0.51338632,0.51338632 0 0 0 2.0214844,18.53125 L 1.9023437,18.414062 1.8496094,18.310547 A 0.51338632,0.51338632 0 0 0 1.5859375,18.068359 l -0.1445313,-0.05859 a 0.51338632,0.51338632 0 0 0 -0.1933593,-0.03906 z m 0.36523433,0.630859 v 0.185547 l -0.027344,0.02734 v 0.01172 l -0.03125,0.03516 v 0.04297 l -0.027344,0.02734 0.00781,-0.04883 -0.048828,0.05664 a 0.51338632,0.51338632 0 0 0 0.015625,-0.04102 l -0.025391,0.02539 a 0.51338632,0.51338632 0 0 0 0.076172,-0.183594 0.51338632,0.51338632 0 0 0 0.00195,-0.02148 v 0.01758 a 0.51338632,0.51338632 0 0 0 0.03125,-0.07617 v 0.01367 a 0.51338632,0.51338632 0 0 0 0.027344,-0.07227 z m -0.1679687,0.396485 h 0.015625 l -0.0253906,0.02539 a 0.51338632,0.51338632 0 0 0 0.009766,-0.02539 z m 9.3203125,1.982422 v 0.0293 l -0.01367,0.03711 a 0.51338632,0.51338632 0 0 0 0.01367,-0.06641 z m -0.0293,0.109375 -0.0078,0.02148 -0.02344,0.02539 a 0.51333499,0.51333499 0 0 0 0.03125,-0.04687 z"
     id="path550" />
  <path
     style="color:#000000;fill:#cc0066;stroke-linecap:round;stroke-linejoin:round;-inkscape-stroke:none"
     d="m 4.9863281,17.173828 a 0.50604498,0.50604498 0 0 0 -0.5058594,0.505859 v 0.08594 a 0.50609559,0.50609559 0 0 0 0.00586,0.07813 l 0.027344,0.175781 A 0.50609559,0.50609559 0 0 0 4.65625,18.298828 l -0.041016,-0.03906 0.025391,0.0957 a 0.50609559,0.50609559 0 0 0 0.1328125,0.232422 l 0.074219,0.07422 0.046875,0.113282 a 0.50609559,0.50609559 0 0 0 0.064453,0.109375 l 0.1171875,0.154296 0.033203,0.113282 a 0.50609559,0.50609559 0 0 0 0.064453,0.140625 L 5.3125,19.5 l 0.066406,0.177734 a 0.50609559,0.50609559 0 0 0 0.048828,0.09961 l 0.1777343,0.279297 0.1152344,0.27539 0.078125,0.285156 a 0.50609559,0.50609559 0 0 0 0.042969,0.107422 l 0.1894531,0.34961 0.15625,0.396484 0.1425781,0.398438 a 0.50609559,0.50609559 0 0 0 0.023437,0.05859 l 0.2167969,0.427735 0.1328125,0.419922 a 0.50609559,0.50609559 0 0 0 0.00781,0.02539 l 0.171875,0.460938 a 0.50609559,0.50609559 0 0 0 0.015625,0.03906 l 0.203125,0.433594 a 0.50609559,0.50609559 0 0 0 0.00586,0.01172 l 0.203125,0.40625 a 0.50609559,0.50609559 0 0 0 0.03125,0.05273 l 0.2167968,0.330078 0.1933594,0.353516 a 0.50609559,0.50609559 0 0 0 0.048828,0.07422 L 8.03125,25.251953 a 0.50609559,0.50609559 0 0 0 0.015625,0.01953 L 8.25,25.501953 a 0.50609559,0.50609559 0 0 0 0.095703,0.08398 l 0.2578125,0.175782 a 0.50609559,0.50609559 0 0 0 0.125,0.0625 l 0.1757813,0.05859 a 0.50609559,0.50609559 0 0 0 0.054687,0.01367 l 0.2480469,0.05273 0.2265625,0.05664 a 0.50609559,0.50609559 0 0 0 0.1230468,0.01563 h 0.7226564 a 0.50609559,0.50609559 0 0 0 0.111328,-0.01172 l 0.257813,-0.05859 a 0.50609559,0.50609559 0 0 0 0.1875,-0.08594 l 0.208984,-0.154297 0.232422,-0.128906 a 0.50609559,0.50609559 0 0 0 0.0625,-0.04102 l 0.246094,-0.19336 0.24414,-0.160156 a 0.50609559,0.50609559 0 0 0 0.117188,-0.111328 l 0.173828,-0.22461 0.226562,-0.199218 a 0.50609559,0.50609559 0 0 0 0.06445,-0.06836 l 0.203125,-0.261718 a 0.50609559,0.50609559 0 0 0 0.0098,-0.01172 l 0.230469,-0.316406 a 0.50609559,0.50609559 0 0 0 0.0293,-0.04297 l 0.195312,-0.335938 0.222656,-0.335937 a 0.50609559,0.50609559 0 0 0 0.03125,-0.05469 l 0.171875,-0.347656 a 0.50609559,0.50609559 0 0 0 0.01953,-0.04297 l 0.140625,-0.365234 0.169922,-0.390625 a 0.50609559,0.50609559 0 0 0 0.03516,-0.119141 l 0.04883,-0.283203 0.117187,-0.259765 a 0.50609559,0.50609559 0 0 0 0.03906,-0.13086 l 0.05469,-0.34375 0.05664,-0.33789 0.05859,-0.316407 a 0.50609559,0.50609559 0 0 0 0,-0.0078 l 0.05469,-0.316406 0.07617,-0.259766 a 0.50609559,0.50609559 0 0 0 0.0059,-0.01953 l 0.05859,-0.230469 a 0.50609559,0.50609559 0 0 0 0.01367,-0.07227 l 0.02539,-0.248047 0.0293,-0.1875 0.0039,-0.01953 a 0.50604498,0.50604498 0 0 0 0.398437,-0.570312 l -0.02734,-0.175782 a 0.50609559,0.50609559 0 0 0 -0.0039,-0.02148 l -0.04883,-0.240234 v -0.09375 a 0.50609559,0.50609559 0 0 0 -0.886718,-0.333985 l -0.0059,0.0059 -0.0059,0.0059 a 0.50609559,0.50609559 0 0 0 -0.125,0.166016 l -0.05469,0.117187 a 0.50609559,0.50609559 0 0 0 -0.03516,0.107422 l -0.01172,0.04883 -0.002,0.0039 a 0.50609559,0.50609559 0 0 0 -0.08789,0.285157 v 0.02539 l 0.02344,-0.03906 a 0.50609559,0.50609559 0 0 0 -0.07227,0.195312 l -0.03125,0.201172 -0.02734,0.175781 -0.03125,0.199219 a 0.50609559,0.50609559 0 0 0 -0.0039,0.02539 l -0.02344,0.224609 -0.04687,0.185547 -0.08398,0.279297 a 0.50609559,0.50609559 0 0 0 -0.01367,0.06055 l -0.05664,0.34375 -0.05859,0.316406 a 0.50609559,0.50609559 0 0 0 -0.002,0.0059 l -0.05859,0.34375 a 0.50609559,0.50609559 0 0 0 0,0.0078 l -0.04492,0.279297 -0.115235,0.257812 a 0.50609559,0.50609559 0 0 0 -0.03906,0.125 l -0.04687,0.285157 -0.152344,0.345703 a 0.50609559,0.50609559 0 0 0 -0.0078,0.02148 l -0.136718,0.353516 -0.146485,0.296875 -0.21289,0.322265 a 0.50609559,0.50609559 0 0 0 -0.01563,0.02344 l -0.189453,0.326172 -0.210938,0.289062 -0.169922,0.21875 -0.224609,0.199219 a 0.50609559,0.50609559 0 0 0 -0.06641,0.06836 l -0.152344,0.197266 -0.189453,0.125 a 0.50609559,0.50609559 0 0 0 -0.0293,0.02148 l -0.232422,0.179688 -0.224609,0.126953 a 0.50609559,0.50609559 0 0 0 -0.05078,0.0332 l -0.15039,0.109375 -0.09961,0.02344 H 9.6191406 l -0.1738281,-0.04297 a 0.50609559,0.50609559 0 0 0 -0.017578,-0.0039 L 9.1972656,24.914062 9.1152344,24.886719 8.96875,24.785156 8.8144531,24.611328 8.6210938,24.367187 8.4394531,24.033203 a 0.50609559,0.50609559 0 0 0 -0.023437,-0.03906 L 8.2011719,23.671875 8.015625,23.298828 7.8242187,22.890625 7.6640625,22.460937 7.5234375,22.011719 a 0.50609559,0.50609559 0 0 0 -0.03125,-0.07617 L 7.2714844,21.5 7.1386719,21.123047 a 0.50609559,0.50609559 0 0 0 -0.00586,-0.01563 l -0.171875,-0.435547 a 0.50609559,0.50609559 0 0 0 -0.025391,-0.05273 L 6.7597656,20.294922 6.6894531,20.035156 a 0.50609559,0.50609559 0 0 0 -0.021484,-0.06055 L 6.5234375,19.626953 a 0.50609559,0.50609559 0 0 0 -0.041016,-0.08008 L 6.3085937,19.277344 6.2421875,19.095703 A 0.50609559,0.50609559 0 0 0 6.1875,18.988281 L 6.0605469,18.796875 6.0234375,18.667969 a 0.50609559,0.50609559 0 0 0 -0.083984,-0.166016 l -0.1367187,-0.179687 -0.0625,-0.144532 A 0.50609559,0.50609559 0 0 0 5.6328125,18.017578 L 5.5859375,17.970703 5.5625,17.875 A 0.50609559,0.50609559 0 0 0 5.4296875,17.642578 l 0.058594,0.05859 0.00391,0.02539 v -0.04687 A 0.50604498,0.50604498 0 0 0 4.9863281,17.173828 Z"
     id="path552" />
  <path
     style="color:#000000;fill:#cc0066;stroke-linecap:round;stroke-linejoin:round;-inkscape-stroke:none"
     d="m 20.009766,18.710937 a 0.51063001,0.51063001 0 0 0 -0.511719,0.511719 0.51063001,0.51063001 0 0 0 0.324219,0.431641 v 0.154297 a 0.51068107,0.51068107 0 0 0 0.01758,0.132812 l 0.03711,0.136719 v 0.136719 a 0.51063001,0.51063001 0 0 0 0.511719,0.509765 0.51063001,0.51063001 0 0 0 0.509765,-0.509765 v -0.203125 a 0.51068107,0.51068107 0 0 0 -0.01758,-0.132813 l -0.03711,-0.138672 v -0.197265 a 0.51068107,0.51068107 0 0 0 -0.01172,-0.109375 L 20.8125,19.34375 V 19.3125 a 0.51068107,0.51068107 0 0 0 -0.04687,-0.216797 l -0.02734,-0.05859 a 0.51068107,0.51068107 0 0 0 -0.222656,-0.234375 l -0.05859,-0.03125 a 0.51068107,0.51068107 0 0 0 -0.240234,-0.06055 z m -0.21875,0.6875 a 0.51068107,0.51068107 0 0 0 0.0039,0.03516 l -0.0039,-0.0078 z"
     id="path554" />
  <path
     style="color:#000000;fill:#cc0066;stroke-linecap:round;stroke-linejoin:round;-inkscape-stroke:none"
     d="m 20.919922,21.708984 a 0.531295,0.531295 0 0 0 -0.365235,0.152344 h 0.07813 a 0.53134813,0.53134813 0 0 0 -0.03125,0.01172 l -0.03125,0.02734 a 0.53134813,0.53134813 0 0 0 -0.103515,0.154296 0.531295,0.531295 0 0 0 -0.002,0.0039 0.531295,0.531295 0 0 0 -0.07617,0.18164 0.53134813,0.53134813 0 0 0 -0.0625,0.152344 v 0.03125 a 0.53134813,0.53134813 0 0 0 0.554687,0.501953 h 0.0078 a 0.53134813,0.53134813 0 0 0 0.167969,-0.121094 h -0.04687 a 0.531295,0.531295 0 0 0 0.111328,-0.04687 0.53134813,0.53134813 0 0 0 0.216797,-0.15625 0.53134813,0.53134813 0 0 0 0.05078,-0.121093 v 0.08398 a 0.53134813,0.53134813 0 0 0 0.0039,-0.002 l -0.0039,0.01172 v 0.03906 l -0.05664,0.05664 a 0.531295,0.531295 0 0 0 0.208985,-0.398438 0.531295,0.531295 0 0 0 -0.390625,-0.501953 0.531295,0.531295 0 0 0 -0.230469,-0.06055 z m 0.392578,0.953125 -0.0332,0.03125 a 0.531295,0.531295 0 0 0 0.02539,-0.01172 0.53134813,0.53134813 0 0 0 0.0078,-0.01953 z"
     id="path556" />
</svg>
