<?xml version="1.0" encoding="UTF-8" standalone="no"?>
<!-- Created with Inkscape (http://www.inkscape.org/) -->

<svg
   width="192.9671mm"
   height="101.91131mm"
   viewBox="0 0 192.9671 101.91131"
   version="1.1"
   id="svg5"
   inkscape:version="1.1.2 (0a00cf5339, 2022-02-04)"
   sodipodi:docname="drawing.svg"
   xmlns:inkscape="http://www.inkscape.org/namespaces/inkscape"
   xmlns:sodipodi="http://sodipodi.sourceforge.net/DTD/sodipodi-0.dtd"
   xmlns="http://www.w3.org/2000/svg"
   xmlns:svg="http://www.w3.org/2000/svg">
  <sodipodi:namedview
     id="namedview7"
     pagecolor="#ffffff"
     bordercolor="#666666"
     borderopacity="1.0"
     inkscape:pageshadow="2"
     inkscape:pageopacity="0.0"
     inkscape:pagecheckerboard="0"
     inkscape:document-units="mm"
     showgrid="false"
     fit-margin-top="0"
     fit-margin-left="0"
     fit-margin-right="0"
     fit-margin-bottom="0"
     inkscape:zoom="0.66945642"
     inkscape:cx="448.12477"
     inkscape:cy="132.19681"
     inkscape:window-width="1914"
     inkscape:window-height="1046"
     inkscape:window-x="0"
     inkscape:window-y="0"
     inkscape:window-maximized="1"
     inkscape:current-layer="layer1" />
  <defs
     id="defs2" />
  <g
     inkscape:label="Layer 1"
     inkscape:groupmode="layer"
     id="layer1"
     transform="translate(-16.032118,-0.76543365)">
    <path
       style="fill:#cb0367;stroke-width:0.264583"
       d="m 92.980185,102.56715 c -2.250696,-0.41823 -3.422536,-0.82643 -3.676795,-1.28076 -0.140102,-0.25035 -0.343715,-0.42566 -0.45247,-0.38958 -0.108754,0.0361 -0.217318,-1.214081 -0.241249,-2.778131 -0.02392,-1.56405 -0.135433,-3.23068 -0.24778,-3.70362 -0.205721,-0.86602 0.02861,-1.11042 0.55753,-0.58149 0.194815,0.19481 1.099722,0.19412 3.013935,-0.002 1.809139,-0.18565 2.824424,-0.19182 2.99802,-0.0182 0.43855,0.43855 0.09408,0.5314 -2.730852,0.73601 l -2.716596,0.19683 -0.03781,2.95431 c -0.04396,3.435221 -0.149802,3.285341 2.792844,3.955261 1.487212,0.33858 2.645698,0.40401 5.033378,0.28426 2.74091,-0.13746 3.8585,0.0203 3.1678,0.44719 -0.42012,0.25964 -6.271905,0.40111 -7.459956,0.18034 z m -2.513541,-5.043241 c -0.310719,-0.50275 0.08669,-0.66111 1.429871,-0.56977 0.937303,0.0637 1.348254,0.20486 1.348254,0.46302 0,0.44074 -2.512047,0.53728 -2.778125,0.10675 z M 18.146473,50.066475 c -0.339949,-0.188568 -0.965027,-0.977278 -1.389063,-1.752687 -0.898135,-1.642369 -0.885636,-1.589876 -0.378556,-1.589876 0.21583,0 0.686557,0.580454 1.046059,1.2899 0.359503,0.709443 0.8548,1.367091 1.10066,1.461436 0.530535,0.203584 0.435361,0.295397 1.137885,-1.09769 0.518079,-1.02734 1.085478,-1.485826 1.085478,-0.87712 0,0.824143 -1.333919,2.948927 -1.832058,2.918264 -0.08377,-0.0052 -0.430457,-0.163658 -0.770405,-0.352227 z m 46.444995,-1.292042 c -0.07,-0.763984 -0.170317,-1.622626 -0.222925,-1.908093 -0.05863,-0.318167 0.06937,-0.553328 0.330748,-0.607658 0.312481,-0.06495 0.470749,0.179745 0.592402,0.915903 0.290224,1.756246 0.20751,2.988911 -0.200562,2.988911 -0.25668,0 -0.411935,-0.431613 -0.499663,-1.389063 z M 174.5191,45.061043 c -0.15518,-0.186973 -0.60109,-1.22877 -0.99093,-2.315104 -0.38983,-1.086334 -0.93229,-2.416892 -1.20547,-2.956798 -0.27317,-0.539906 -0.49668,-1.25003 -0.49668,-1.578052 0,-0.516596 0.0483,-0.54456 0.36061,-0.208979 0.40397,0.434012 2.15075,4.476901 2.43437,5.634316 0.2162,0.882279 0.75404,1.164375 1.32172,0.69324 0.61634,-0.511511 2.2333,-3.385841 2.2333,-3.96993 0,-0.344197 0.18141,-0.51499 0.547,-0.51499 0.44515,0 0.51288,0.110841 0.36378,0.595312 -0.26068,0.847027 -1.91585,3.659912 -2.56885,4.365625 -0.60932,0.658521 -1.56313,0.780373 -1.99885,0.25536 z m 21.44007,41.239271 c -0.22899,-0.694809 -0.31319,-1.358149 -0.18829,-1.483493 0.29427,-0.295332 0.96083,0.782964 1.16236,1.880368 0.25173,1.370714 -0.4913,1.067975 -0.97407,-0.396875 z m -10.95721,0.06951 c -0.51081,-0.222038 -1.03126,-0.736902 -1.28699,-1.273178 -0.39557,-0.829521 -0.39575,-1.016006 -0.002,-2.369549 0.56893,-1.957044 0.54287,-2.76615 -0.10207,-3.168919 -0.58763,-0.36698 -0.71303,-0.996963 -0.19844,-0.996871 0.23694,4.2e-5 0.33073,-0.598305 0.33073,-2.109973 0,-1.932207 0.0594,-2.169469 0.70461,-2.815317 0.45453,-0.454968 0.86143,-0.645105 1.14648,-0.535722 0.4759,0.18262 0.3919,0.873148 -0.0932,0.766267 -0.16095,-0.03546 -0.47833,0.218915 -0.70528,0.565283 -0.3141,0.479377 -0.38796,1.143431 -0.30929,2.780855 0.0568,1.183102 0.18074,2.22849 0.27534,2.323085 0.30064,0.300638 0.18574,1.830363 -0.22489,2.994213 -0.553,1.56737 -0.50106,2.045373 0.30322,2.790758 0.79825,0.739791 1.73826,0.822765 2.83588,0.25032 0.9383,-0.489357 0.96194,-0.488984 0.96194,0.01513 0,0.429056 -1.49369,1.184622 -2.3066,1.166768 -0.25934,-0.0057 -0.85746,-0.178115 -1.32915,-0.383151 z m 20.88833,0.07774 c -0.49813,-0.498126 -0.37607,-0.81915 0.24927,-0.655619 0.31268,0.08177 0.92377,0.07764 1.35798,-0.0092 l 0.78947,-0.157896 -0.18036,-2.618757 c -0.14684,-2.131975 -0.28086,-2.719249 -0.72098,-3.159376 -0.29735,-0.297341 -0.48331,-0.737971 -0.41326,-0.979178 0.74854,-2.577522 0.81079,-2.962453 0.52524,-3.248009 -0.21463,-0.214625 -0.52231,-0.221158 -1.09031,-0.02315 -0.89313,0.311346 -1.24062,0.144794 -0.80159,-0.384202 0.16207,-0.195281 0.7589,-0.355064 1.32629,-0.355064 1.48343,0 1.81206,0.796336 1.16964,2.834319 -0.45383,1.439719 -0.45358,1.509434 0.007,1.845953 0.33527,0.245154 0.53761,0.883314 0.67671,2.134207 0.34243,3.079364 0.28087,4.250869 -0.23741,4.518469 -0.86963,0.449006 -2.32483,0.590039 -2.65733,0.257538 z M 22.35564,24.595522 c -0.301604,-0.383426 -0.54837,-0.818598 -0.54837,-0.967048 0,-0.14845 -0.217735,-0.07286 -0.483855,0.167973 -0.642219,0.581201 -1.97224,0.556915 -2.517846,-0.04597 -0.496411,-0.548527 -0.568504,-1.783969 -0.165897,-2.842907 0.380748,-1.001443 0.642094,-0.587112 0.648561,1.028211 0.0054,1.3474 0.02002,1.372509 0.799245,1.372509 0.659643,0 0.84001,-0.143115 1.067553,-0.847067 0.150592,-0.465887 0.365425,-0.938689 0.477407,-1.050671 0.288474,-0.288474 0.69515,0.447518 0.699947,1.266744 0.0022,0.380558 0.242176,0.99465 0.533218,1.364649 0.291042,0.369999 0.529167,0.802775 0.529167,0.961724 0,0.500105 -0.469873,0.31555 -1.03913,-0.408144 z M 193.1519,85.721268 c 0,0.424241 -0.54543,-0.682948 -0.54543,-0.851024 0,-0.182838 -0.19436,-0.129698 -0.48385,0.132291 -0.66349,0.600448 -1.81289,0.560994 -2.15268,-0.07389 -0.43987,-0.821915 -0.35141,-2.92781 0.12299,-2.92781 0.2987,0 0.39687,0.320234 0.39687,1.294609 0,1.936086 0.85365,1.976657 1.83136,0.08704 0.35236,-0.680999 0.91524,-0.528451 0.68831,0.186541 -0.17531,0.552345 0.78191,1.87139 1.35804,1.87139 0.51913,0 0.30927,0.636281 -0.24534,0.743871 -0.23366,0.04533 -0.97027,-0.887271 -0.97027,-0.463021 z m 6.19892,-1.253736 c -0.25241,-0.604107 -0.31264,-1.066741 -0.15889,-1.220488 0.34454,-0.344539 0.82287,0.0077 0.82287,0.605874 0,0.273865 0.12657,0.576158 0.28126,0.671762 0.33978,0.209999 1.30624,-0.611001 1.30624,-1.109644 0,-0.195727 0.1786,-0.355868 0.39688,-0.355868 0.59867,0 0.47793,0.656821 -0.2881,1.5672 -0.96993,1.15269 -1.83664,1.094363 -2.36026,-0.158836 z m -29.7631,0.562938 c -0.21828,-0.04619 -0.85,-0.158082 -1.40382,-0.248649 -1.45208,-0.237462 -2.03576,-0.933217 -2.03576,-2.426656 0,-1.055809 0.1229,-1.342897 0.85452,-1.996086 0.95202,-0.849962 1.95198,-0.904811 2.42608,-0.133071 0.23789,0.387237 0.17005,0.566671 -0.37019,0.979074 -0.3638,0.277719 -1.01864,0.54061 -1.4552,0.584203 -0.63139,0.06305 -0.81002,0.219191 -0.87328,0.763364 -0.10929,0.940174 0.42081,1.292897 2.47076,1.644039 1.53401,0.262764 1.85624,0.243318 2.54813,-0.153775 1.47239,-0.845036 1.86525,-0.275478 0.41845,0.606655 -0.79113,0.482359 -1.56219,0.596209 -2.57969,0.380902 z m -0.90498,-4.551981 c 0,0.264282 -1.21169,0.215861 -1.21169,0.47617 0,0.132594 0.29816,0.105231 0.66258,-0.06081 0.36442,-0.166039 0.54911,-0.503614 0.54911,-0.415361 z M 66.411243,22.334895 c -0.519168,-2.450142 -0.621829,-3.28897 -0.426728,-3.486784 0.33024,-0.334832 0.746811,0.610247 0.952524,2.161009 0.222697,1.67876 0.219017,1.734989 -0.121002,1.848328 -0.151066,0.05036 -0.333224,-0.184793 -0.404794,-0.522553 z M 175.93772,82.926877 c 0,-0.342984 0.2446,-0.410174 1.25677,-0.345226 0.69122,0.04435 1.25677,0.199705 1.25677,0.345226 0,0.14552 -0.56555,0.300872 -1.25677,0.345225 -1.01217,0.06495 -1.25677,-0.0022 -1.25677,-0.345225 z m -0.34089,-0.825962 c -0.46004,-0.460035 -0.0778,-0.629247 1.42127,-0.629247 1.16938,0 1.57974,0.09045 1.50056,0.330729 -0.11821,0.358706 -2.60733,0.613015 -2.92183,0.298518 z M 64.753211,5.711649 C 64.435303,5.583561 64.041733,5.229386 63.878615,4.924595 c -0.356691,-0.666481 -0.08109,-2.91316 0.358174,-2.919837 0.165378,-0.0025 0.586211,-0.305505 0.93518,-0.673313 0.753727,-0.79441 1.448075,-0.747034 1.569583,0.107093 0.111146,0.781306 -0.599827,1.575657 -1.503974,1.68035 -0.537279,0.06221 -0.719172,0.246145 -0.782103,0.790875 -0.110281,0.954586 0.704562,1.371052 2.369539,1.211069 0.915022,-0.08792 1.284338,-0.02859 1.284338,0.20632 0,0.181351 -0.18833,0.401998 -0.418515,0.490328 -0.595469,0.228503 -2.25633,0.168669 -2.937626,-0.105831 z"
       id="path946"
       sodipodi:nodetypes="csssssccccssssccscssssssssscssssssssssscssssssssssscscssssssscsssssscccsscsssssssscssccssssssssscssssssssssssssssssssssssssssssssssssssssssssssssssssssssscssssssss" />
    <path
       style="fill:#080808;stroke-width:0.264583"
       d="m 37.946853,84.577884 c -3.317129,-0.16946 -4.087169,-0.296831 -5.688542,-0.940922 -2.126525,-0.855316 -2.889909,-1.457388 -3.597624,-2.837405 -0.540464,-1.053888 -0.671069,-2.325645 -0.238834,-2.325645 0.145521,0 0.264583,0.242869 0.264583,0.539708 0,0.686766 0.852916,2.368865 1.4932,2.944852 0.270146,0.243017 1.324613,0.778798 2.343258,1.190625 l 1.852084,0.748774 h 9.392708 c 5.850572,0 10.490271,-0.125971 12.303125,-0.33404 8.687379,-0.997082 22.154599,-1.714198 29.501041,-1.5709 6.886009,0.134319 8.981112,0.414065 10.521603,1.404896 0.526563,0.338677 0.743289,0.336997 1.776463,-0.01378 0.647205,-0.219731 3.353892,-0.59309 6.014862,-0.829686 4.13562,-0.367713 7.20078,-0.403958 21.10999,-0.249629 19.74051,0.219033 20.16078,0.174911 23.03067,-2.417863 1.09206,-0.98661 1.34317,-1.951598 0.78112,-3.001799 -0.16663,-0.31134 -0.17157,-0.553648 -0.0133,-0.651475 0.38789,-0.239729 0.80775,0.765439 0.80775,1.933816 0,0.927814 -0.15679,1.192175 -1.33572,2.25213 -0.73464,0.660506 -1.98547,1.444027 -2.77962,1.741154 -2.2837,0.854443 -7.24673,1.102472 -16.25758,0.812472 -15.8361,-0.509656 -27.62687,-0.144052 -31.177699,0.966748 -1.288283,0.403011 -1.473835,0.405318 -2.116667,0.0263 -0.387517,-0.228491 -1.418961,-0.613794 -2.292086,-0.856234 -2.186265,-0.607055 -11.971633,-0.834657 -18.399712,-0.427966 -7.464345,0.472255 -15.278962,1.056407 -19.964871,1.492398 -5.312648,0.494308 -12.346442,0.658056 -17.330208,0.403455 z M 28.223299,71.264016 c 0.07678,-0.230576 0.904714,-0.344823 2.734028,-0.377274 1.443145,-0.02561 5.362338,-0.172218 8.709317,-0.325814 3.346979,-0.153595 9.762546,-0.424299 14.256814,-0.601559 l 8.171397,-0.322291 -0.159753,-4.246687 c -0.08787,-2.335678 -0.236765,-4.574109 -0.330888,-4.974291 -0.100142,-0.425776 -0.06048,-0.727604 0.09561,-0.727604 0.465783,0 0.660249,1.340765 0.825079,5.688541 l 0.160491,4.233334 h 3.832833 c 3.629758,0 3.837078,-0.02804 3.912907,-0.529167 0.190289,-1.25757 0.35069,-1.719792 0.596803,-1.719792 0.158263,0 0.195402,0.420664 0.09343,1.058334 l -0.169235,1.058333 4.994754,-0.0035 c 2.747116,-0.0019 7.971316,-0.118882 11.609337,-0.259857 3.638021,-0.140976 13.103497,-0.313426 21.034377,-0.383223 7.93089,-0.0698 16.3248,-0.246843 18.65313,-0.39343 6.89465,-0.434078 12.36462,-0.47103 12.49784,-0.08443 0.0881,0.255572 -0.86808,0.332153 -4.20756,0.336995 -2.37684,0.0034 -5.75028,0.122968 -7.49653,0.265605 -1.74625,0.142634 -11.33078,0.37787 -21.29896,0.522742 -9.968183,0.144875 -22.053026,0.375285 -26.855214,0.512024 -4.802187,0.13674 -12.600781,0.315474 -17.330208,0.397188 -8.936572,0.154405 -19.336546,0.519123 -27.194837,0.953698 -6.196921,0.342702 -7.271095,0.330983 -7.134966,-0.07783 z m -3.395752,-1.719791 c -0.106039,-0.836745 -0.05301,-5.033698 0.117841,-9.326563 0.170853,-4.292864 0.308576,-12.597931 0.306053,-18.455701 -0.0025,-5.857771 0.127516,-12.728651 0.288978,-15.268622 0.214503,-3.374388 0.215033,-6.343676 0.002,-11.02526 -0.160379,-3.523923 -0.232952,-6.465778 -0.161275,-6.537455 0.304935,-0.304934 0.407614,0.324959 0.594395,3.646334 l 0.197398,3.509972 1.10835,0.082 c 1.375338,0.101753 2.198941,0.353013 2.198941,0.670837 0,0.138122 -0.670222,0.172646 -1.555434,0.08012 l -1.555433,-0.162575 -0.164042,5.25986 c -0.09022,2.892923 -0.238645,8.879504 -0.329827,13.303509 l -0.165783,8.043649 1.025364,-0.174893 c 2.467797,-0.420923 3.999003,-0.495503 4.17943,-0.203567 0.10145,0.16415 0.0286,0.30213 -0.161889,0.306625 -1.194055,0.02816 -4.306826,0.559134 -4.573022,0.780055 -0.326734,0.271167 -0.830659,15.466814 -0.774509,23.355004 0.02685,3.771418 -0.242623,4.759092 -0.577494,2.116667 z M 153.10675,69.302851 c -0.56829,-0.229309 -0.3608,-0.688102 0.24013,-0.530958 1.13813,0.29763 3.30374,-1.020369 4.05652,-2.468814 0.20586,-0.396084 0.41938,-2.253708 0.53222,-4.630208 0.19023,-4.006247 0.0453,-6.13286 -0.83544,-12.260424 -0.35605,-2.477053 -0.37846,-3.373025 -0.1286,-5.13987 0.16644,-1.176923 0.48469,-2.417742 0.70723,-2.757377 0.44904,-0.685321 0.28514,-1.203433 -0.64777,-2.047708 -0.64413,-0.582925 -1.4737,-3.076482 -1.74446,-5.243523 -0.23227,-1.859047 0.44216,-8.885865 1.48666,-15.489304 0.93791,-5.929583 0.94817,-6.754934 0.10641,-8.563126 -0.36238,-0.778435 -0.66004,-1.619505 -0.66146,-1.869047 -0.003,-0.54696 -0.77694,-1.001496 -1.70498,-1.001496 -0.37337,0 -0.67886,-0.119063 -0.67886,-0.264584 0,-0.415285 1.67045,-0.309339 2.32238,0.147295 0.32342,0.226533 0.5892,0.613486 0.59063,0.859896 0.001,0.24641 0.29907,1.084918 0.66145,1.863352 0.85898,1.845174 0.84556,2.961962 -0.11012,9.167999 -2.00757,13.036841 -1.88701,17.747885 0.52107,20.360341 0.57292,0.621546 1.04168,1.210889 1.04168,1.309648 0,0.09876 -0.26789,0.541623 -0.59532,0.984139 -0.54649,0.738592 -0.59531,1.090313 -0.59531,4.288766 0,1.916303 0.22129,5.270127 0.49176,7.452939 0.56287,4.542671 0.44043,11.812117 -0.22024,13.076132 -0.93964,1.797759 -3.5389,3.27915 -4.83558,2.755932 z M 65.596118,68.149587 c -0.436394,-0.136652 -0.942409,-0.452183 -1.12448,-0.70118 -0.72277,-0.988449 -0.168759,-3.526578 0.769769,-3.526578 0.591991,0 0.623546,0.238469 0.08378,0.633158 -0.221605,0.162042 -0.471945,0.719992 -0.556313,1.239893 -0.213701,1.316885 0.356481,1.831116 2.030362,1.831116 1.081601,0 1.367949,-0.106882 1.718112,-0.641298 0.378904,-0.578281 0.380436,-0.718179 0.01561,-1.423693 -0.222525,-0.430316 -0.766056,-1.086546 -1.207844,-1.458286 -0.868442,-0.730745 -0.990198,-0.979617 -0.472525,-0.965837 0.797711,0.02122 2.576545,2.240782 2.578698,3.21759 0.003,1.357399 -2.095807,2.339784 -3.835162,1.795115 z M 142.02744,60.4161 c 0.15462,-5.580677 0.26801,-7.502777 0.84858,-14.384253 0.0996,-1.181 0.0984,-2.699046 -0.003,-3.373438 l -0.18386,-1.226163 -2.1666,0.0021 c -1.19163,0.0011 -3.47629,0.169331 -5.07702,0.373682 -3.68473,0.470395 -9.7423,0.644787 -9.92187,0.285641 -0.0837,-0.167491 1.42116,-0.327358 4.10104,-0.435652 2.32833,-0.09409 5.1263,-0.298773 6.21771,-0.454853 1.0914,-0.15608 3.07303,-0.287457 4.4036,-0.291949 l 2.41923,-0.0082 0.19745,-4.431771 c 0.20044,-4.499046 0.0818,-9.646518 -0.40392,-17.528646 -0.14797,-2.401093 -0.33987,-6.342385 -0.42644,-8.758427 -0.0866,-2.416041 -0.25253,-4.546732 -0.36881,-4.734869 -0.17252,-0.279146 -2.7593,-0.257683 -14.06261,0.116679 -7.61817,0.252311 -23.5987,0.524762 -35.512307,0.605447 l -21.661093,0.1467 0.181131,2.541922 c 0.09962,1.398082 0.203052,2.720541 0.229844,2.938822 0.02679,0.218281 -0.07035,0.429872 -0.215871,0.470202 -0.258255,0.07157 -0.952201,-5.422848 -0.736079,-5.828014 0.129254,-0.242311 -5.192543,-0.264203 -6.912649,-0.02844 -1.2137,0.166356 -1.236584,0.1869 -1.067187,0.958156 0.235643,1.072871 -0.126092,4.692677 -0.46895,4.692677 -0.183623,0 -0.215844,-0.691589 -0.09615,-2.063757 0.110675,-1.268757 0.07181,-2.348377 -0.100886,-2.80261 l -0.280914,-0.738854 -2.576925,0.17277 c -1.417312,0.09502 -4.541459,0.33824 -6.942553,0.540483 -2.401093,0.202243 -5.734843,0.43765 -7.408333,0.523127 -5.083594,0.259656 -16.933333,0.355507 -16.933333,0.136972 0,-0.353841 2.56513,-0.501778 9.08492,-0.523949 3.468737,-0.0118 8.588424,-0.197462 11.377084,-0.412591 8.962205,-0.691383 16.397928,-1.147299 18.299454,-1.122017 6.092185,0.081 47.388257,-0.371122 54.239587,-0.593831 16.74624,-0.544353 22.79385,-0.62339 22.9934,-0.300502 0.11202,0.181248 0.0207,0.305592 -0.22441,0.305592 -0.36458,0 -0.39614,0.553287 -0.26782,4.696354 0.08,2.582995 0.31626,7.613385 0.52501,11.178646 0.20876,3.56526 0.39477,7.911042 0.41336,9.657292 0.0611,5.738328 -0.2348,17.394219 -0.534,21.034375 -0.16146,1.964531 -0.3666,6.101953 -0.45587,9.19427 -0.10023,3.47231 -0.2637,5.622396 -0.42747,5.622396 -0.17446,0 -0.20687,-2.104361 -0.0947,-6.151562 z m -72.692331,3.104999 c -0.251267,-0.654794 -0.201515,-3.56802 0.06094,-3.56802 0.296616,0 0.587835,3.504631 0.314775,3.788098 -0.114557,0.118922 -0.283628,0.0199 -0.375711,-0.220078 z m -5.723673,-4.097187 c -0.583139,-0.583139 -0.736569,-2.557671 -0.266928,-3.435202 0.527979,-0.986538 3.545411,-0.07692 3.856501,1.162558 0.187536,0.747208 -0.470985,2.142617 -1.193668,2.529385 -0.801579,0.42899 -1.819222,0.319942 -2.395905,-0.256741 z m 1.972521,-0.164354 c 0.557917,-0.214093 1.240912,-1.544293 1.049303,-2.04362 -0.187179,-0.487778 -1.355471,-0.951979 -2.228074,-0.885288 -0.575948,0.04402 -0.671772,0.19172 -0.741228,1.14251 -0.112302,1.537296 0.670687,2.265805 1.919999,1.786398 z m -4.707024,-2.527395 c -0.186368,-0.712668 0.07407,-1.19634 0.382275,-0.709935 0.29814,0.470527 0.299304,1.285018 0.0019,1.285018 -0.128548,0 -0.301398,-0.258787 -0.384112,-0.575083 z m 8.819919,-5.097843 c 0,-1.730375 0.275302,-2.678158 0.601401,-2.070452 0.20235,0.377092 -0.130093,4.039211 -0.366676,4.039211 -0.129098,0 -0.234725,-0.885942 -0.234725,-1.968759 z m -8.995833,0.605091 V 51.140327 L 57.29875,51.31252 c -1.87125,0.09471 -3.77625,0.246991 -4.233333,0.338407 -0.9525,0.1905 -1.169438,-0.287665 -0.235752,-0.519636 0.327422,-0.08135 1.726406,-0.218572 3.108854,-0.304943 1.382448,-0.08637 2.989792,-0.21395 3.571875,-0.283503 1.057743,-0.126389 1.058333,-0.12712 1.058333,-1.307299 0,-0.649459 0.119063,-1.170704 0.264584,-1.158319 0.14552,0.01238 0.226337,0.155112 0.179596,0.317169 -0.04674,0.162057 -0.01278,0.67958 0.07549,1.150051 0.150529,0.802386 0.236503,0.860375 1.387223,0.935662 1.757736,0.115001 1.841839,0.74172 0.09953,0.74172 h -1.344964 v 1.058333 c 0,0.582084 -0.119063,1.058334 -0.264584,1.058334 -0.145521,0 -0.264583,-0.494589 -0.264583,-1.099085 z m -34.501656,0.612746 c -0.273358,-0.442304 0.547228,-0.851829 2.262181,-1.128974 1.710381,-0.276408 4.722809,-0.09155 4.722809,0.289819 0,0.115527 -1.351256,0.252944 -3.002791,0.305371 -1.942541,0.06166 -3.148699,0.216416 -3.416028,0.438277 -0.239231,0.198546 -0.477635,0.23876 -0.566171,0.09551 z m 12.813485,-0.01707 c -0.214066,-0.143869 -0.333129,-0.311081 -0.264583,-0.37158 0.06855,-0.0605 1.523614,-0.181669 3.233483,-0.269267 2.624971,-0.13448 3.108855,-0.09901 3.108855,0.227902 0,0.299259 -0.38212,0.387172 -1.682864,0.387172 -0.925574,0 -2.205497,0.06466 -2.844271,0.14368 -0.638774,0.07902 -1.336553,0.02596 -1.55062,-0.117907 z m 33.065254,-1.839021 c 0,-0.229235 3.100914,-0.567991 5.199295,-0.567991 2.102885,0 1.188623,0.447236 -1.27119,0.621839 -3.197638,0.226973 -3.928105,0.216961 -3.928105,-0.05385 z m 25.981781,-0.06763 c 0.131676,-0.398542 3.029037,-0.680574 7.554157,-0.73533 4.19024,-0.0507 2.67983,0.413875 -1.98437,0.610365 -2.43748,0.102682 -4.71519,0.255622 -5.061585,0.339865 -0.462937,0.112588 -0.597588,0.05565 -0.508202,-0.2149 z M 83.124456,50.510277 c -0.254661,-0.06655 -0.463021,-0.249629 -0.463021,-0.406842 0,-0.198546 0.982356,-0.233024 3.21654,-0.112892 1.769097,0.09513 3.793159,0.172953 4.497916,0.172953 0.704758,0 1.281378,0.119062 1.281378,0.264583 0,0.262562 -7.563808,0.335425 -8.532813,0.0822 z m 32.345314,-0.05789 c 0,-0.466479 1.20808,-0.81806 2.81097,-0.81806 1.80796,0 1.6538,0.412803 -0.2264,0.606245 -0.76667,0.07888 -1.66183,0.226753 -1.98926,0.32861 -0.37781,0.117536 -0.59531,0.07486 -0.59531,-0.116795 z m 8.20208,-1.049571 c 0,-0.313592 1.35335,-0.562239 3.06017,-0.562239 1.40337,0 2.07229,0.330589 1.2823,0.633735 -0.64878,0.24896 -4.34247,0.188145 -4.34247,-0.0715 z m 11.50938,-0.562239 c -0.0899,-0.145521 -0.12673,-0.268886 -0.0818,-0.274146 1.11057,-0.129897 5.24113,-0.110532 5.24113,0.02457 0,0.517353 -4.84891,0.751911 -5.15937,0.249576 z M 49.323936,43.284308 c 0,-0.139965 0.327422,-0.341104 0.727604,-0.446977 1.106861,-0.292833 5.42735,-0.253685 5.531861,0.05012 0.05519,0.16043 -0.664187,0.264583 -1.827454,0.264583 -1.055158,0 -2.484016,0.08702 -3.17524,0.193376 -0.762233,0.117282 -1.256771,0.09324 -1.256771,-0.0611 z m 11.641666,2.1e-5 c 0,-0.145521 -0.423746,-0.264583 -0.941657,-0.264583 -0.560395,0 -0.875448,-0.107125 -0.778134,-0.264584 0.08994,-0.145521 0.513683,-0.264583 0.941657,-0.264583 0.766805,0 0.778134,-0.02119 0.778134,-1.455208 0,-0.800365 0.119063,-1.455209 0.264584,-1.455209 0.14552,0 0.266208,0.327422 0.268195,0.727604 0.009,1.815079 0.07685,1.862765 2.938295,2.065634 1.44416,0.102386 2.689736,0.289698 2.767949,0.416251 0.07821,0.126552 -1.174506,0.230095 -2.783824,0.230095 -1.774298,0 -2.926032,0.104145 -2.926032,0.264583 0,0.145521 -0.119063,0.264583 -0.264583,0.264583 -0.145521,0 -0.264584,-0.119062 -0.264584,-0.264583 z M 70.23007,42.15985 c 0.0037,-1.25956 0.329319,-2.357239 0.606046,-2.042859 0.207016,0.235186 -0.144441,3.431921 -0.377314,3.431921 -0.128032,0 -0.23096,-0.625078 -0.228732,-1.389062 z m -34.343683,0.821515 c 0.20748,-0.626057 10.394841,-1.002564 10.394841,-0.384175 0,0.131397 -2.128457,0.276995 -4.729901,0.323548 -2.601446,0.04655 -4.967017,0.159901 -5.256825,0.251881 -0.372992,0.118383 -0.492215,0.06251 -0.408115,-0.191254 z m 35.505465,-0.0019 c -0.07757,-0.125516 0.06749,-0.308226 0.322355,-0.40603 0.716175,-0.27482 5.123143,-0.24848 5.054542,0.03021 -0.03324,0.13504 -0.59622,0.221895 -1.251064,0.19301 -0.654843,-0.02888 -1.819312,0.05178 -2.587709,0.17925 -0.781968,0.12972 -1.459183,0.131289 -1.538124,0.0036 z M 83.85206,42.755114 c -0.107386,-0.173752 2.158016,-0.264583 6.598968,-0.264583 4.331938,0 6.76249,0.0951 6.76249,0.264583 0,0.169318 -2.376045,0.264584 -6.598967,0.264584 -4.113911,0 -6.660549,-0.09964 -6.762491,-0.264584 z m 27.38438,0.03004 c 0,-0.3184 3.3159,-0.624345 5.55625,-0.512654 0.97283,0.0485 1.69139,0.200655 1.6544,0.350322 -0.0851,0.344177 -7.21065,0.504594 -7.21065,0.162332 z M 64.908214,40.081347 c -1.10821,-1.186342 -0.921282,-3.147018 0.30003,-3.147018 0.680627,0 0.673229,0.691925 -0.0093,0.870413 -1.260125,0.32953 0.203764,2.674943 1.570286,2.515878 0.545619,-0.06351 0.694442,-0.241075 0.759106,-0.905709 0.09024,-0.927436 -0.532617,-1.750531 -1.146424,-1.514991 -0.243057,0.09327 -0.389212,-0.0103 -0.389212,-0.275825 0,-0.488712 0.591735,-0.551916 1.352976,-0.144513 0.785108,0.42018 1.099259,1.480669 0.751112,2.535566 -0.267893,0.811728 -0.38435,0.887931 -1.356995,0.887931 -0.849061,0 -1.218994,-0.165971 -1.831565,-0.821732 z m -3.413445,-4.586611 c 0,-1.10898 0.123235,-2.044925 0.282186,-2.143162 0.155202,-0.09592 0.313198,-0.132712 0.351102,-0.08176 0.182203,0.244924 -0.192199,4.193683 -0.397624,4.193683 -0.129614,0 -0.235664,-0.885942 -0.235664,-1.968761 z m 8.73125,-1.603115 c 0,-2.100784 0.348964,-2.655716 0.623927,-0.992188 0.296616,1.794526 0.206452,2.976563 -0.227052,2.976563 -0.3175,0 -0.396875,-0.396875 -0.396875,-1.984375 z m -5.271365,-1.875603 c -0.898986,-0.756446 -1.06865,-1.839097 -0.472776,-3.016845 0.434805,-0.859398 1.236641,-1.022189 1.428128,-0.289938 0.07942,0.303696 0.288351,0.552177 0.464293,0.552177 0.175943,0 0.590376,0.287912 0.920962,0.639805 0.99496,1.059087 0.290804,2.799779 -1.132589,2.799779 -0.216683,0 -0.760293,-0.30824 -1.208018,-0.684978 z m 1.718789,-0.04668 c 0.913463,-0.625486 0.398904,-2.178762 -0.721765,-2.178762 -0.285319,0 -0.491654,-0.192395 -0.496573,-0.463021 -0.0076,-0.418957 -0.04538,-0.414144 -0.396875,0.05057 -0.586454,0.775359 -0.4684,1.63408 0.308679,2.245331 0.764045,0.600998 0.886584,0.633439 1.306534,0.345882 z m -4.480312,-3.68526 c -0.09306,-0.09306 -0.169195,-0.780383 -0.169195,-1.527392 0,-0.747006 -0.140891,-1.499084 -0.31309,-1.671283 -0.172201,-0.172201 -0.261498,-0.363789 -0.198437,-0.425754 0.06306,-0.06197 1.21598,-0.198371 2.562047,-0.303123 2.961474,-0.23046 3.379963,0.219316 0.529167,0.56873 l -1.918229,0.235112 0.07894,1.497832 c 0.07283,1.381837 -0.158057,2.039025 -0.571203,1.625878 z M 26.569769,26.807037 c 0,-0.216879 0.267891,-0.466117 0.595313,-0.553861 0.922241,-0.247152 5.490104,-0.195196 5.490104,0.06244 0,0.126066 -1.160859,0.290642 -2.579687,0.365725 -1.418828,0.07508 -2.788047,0.222803 -3.042709,0.328264 -0.319627,0.132368 -0.463021,0.06963 -0.463021,-0.202573 z m 9.260417,-0.36313 c 0,-0.266163 4.676458,-0.886878 6.680729,-0.886746 2.018654,1.35e-4 1.446038,0.446699 -0.79375,0.619019 -1.127786,0.08677 -2.913724,0.237125 -3.96875,0.334129 -1.1157,0.102584 -1.918229,0.0748 -1.918229,-0.0664 z m 34.925,-1.400212 c 0,-0.864537 0.110836,-1.640386 0.2463,-1.724109 0.384101,-0.237388 0.455144,0.133077 0.340313,1.774639 -0.139994,2.001308 -0.586613,1.962838 -0.586613,-0.05053 z m -22.489583,0.309673 c 0,-0.272013 4.672245,-0.676883 5.058248,-0.438319 0.567973,0.351025 -0.137813,0.518737 -2.520558,0.598945 -1.449216,0.04878 -2.53769,-0.02011 -2.53769,-0.160626 z m 26.879832,-0.550032 c -0.164134,-0.26557 6.205506,-0.649163 6.825962,-0.411072 0.234,0.08979 0.425455,0.269587 0.425455,0.399539 0,0.301369 -7.065346,0.312608 -7.251417,0.01154 z m 17.45669,-0.538564 c -0.19685,-0.318512 3.571446,-0.623547 6.331185,-0.512494 1.17794,0.0474 2.11667,0.202517 2.11667,0.349759 0,0.344263 -8.237591,0.502947 -8.447855,0.162735 z m 17.046815,0.0447 c 0,-0.266832 5.26258,-0.721588 5.50819,-0.475981 0.33517,0.335167 -0.39088,0.48975 -2.85833,0.608566 -1.64683,0.0793 -2.64986,0.02911 -2.64986,-0.132585 z m 12.96458,-1.065789 c 0,-0.435456 1.43991,-0.596858 5.32474,-0.596858 2.27101,0 3.67109,0.100907 3.67109,0.264583 0,0.16293 -1.3469,0.265702 -3.50572,0.267496 -1.92816,0.0016 -3.95222,0.07671 -4.49792,0.16691 -0.59761,0.09878 -0.99219,0.05816 -0.99219,-0.102131 z m 14.2875,-0.788624 c 0,-0.286255 1.82337,-0.601984 3.47651,-0.601984 0.56178,0 1.02141,0.119062 1.02141,0.264583 0,0.145521 -0.38696,0.265618 -0.8599,0.266883 -0.47294,0.0013 -1.48497,0.07738 -2.24896,0.169146 -0.86362,0.103733 -1.38906,0.06642 -1.38906,-0.09863 z m -75.193986,-3.84313 -0.07997,-1.389062 -2.050521,-0.07728 c -2.630321,-0.09913 -2.685243,-0.584183 -0.06615,-0.584183 h 1.984375 v -0.809365 c 0,-0.472202 0.11022,-0.741245 0.264583,-0.645843 0.145521,0.08994 0.264584,0.447305 0.264584,0.794152 0,0.550687 0.13994,0.640944 1.103915,0.711989 0.652741,0.04811 1.15374,0.23265 1.225823,0.451532 0.09711,0.294872 -0.100544,0.334603 -0.971624,0.195311 l -1.093531,-0.174863 v 1.458335 c 0,1.85771 -0.47526,1.914328 -0.581485,0.06927 z m 9.048152,-0.198437 c 0,-1.695475 0.355385,-2.125678 0.628385,-0.760678 0.288179,1.440895 0.198728,2.348178 -0.23151,2.348178 -0.308682,0 -0.396875,-0.352778 -0.396875,-1.5875 z M 39.534353,17.040858 c -0.509323,-0.14662 -1.437301,-0.209447 -2.062174,-0.139617 -0.775002,0.08661 -1.104829,0.03175 -1.037651,-0.172579 0.226165,-0.687907 4.120365,-0.412919 4.360647,0.307927 0.122407,0.367218 0.0014,0.367628 -1.260822,0.0043 z m 6.085416,-0.236911 c 0,-0.245352 1.434021,-0.507118 2.778125,-0.507118 1.344105,0 2.778125,0.261766 2.778125,0.507118 0,0.09701 -1.250156,0.176389 -2.778125,0.176389 -1.527969,0 -2.778125,-0.07938 -2.778125,-0.176389 z m 26.722916,-0.242535 c 0,-0.159758 1.310318,-0.283302 3.307292,-0.31183 1.81901,-0.02598 3.56526,-0.05575 3.880556,-0.06615 0.315294,-0.01039 0.622872,0.129929 0.683507,0.31183 0.08495,0.254839 -0.805509,0.33073 -3.880557,0.33073 -2.484144,0 -3.990798,-0.09989 -3.990798,-0.264584 z m 16.404167,-0.453488 c 0,-0.146605 0.625078,-0.341634 1.389062,-0.4334 2.141096,-0.257175 4.960938,-0.204235 4.960938,0.09314 0,0.145521 -0.517819,0.264584 -1.150705,0.264584 -0.632888,0 -2.061638,0.077 -3.175,0.171115 -1.29635,0.109582 -2.024295,0.07526 -2.024295,-0.09544 z m 11.377088,-0.07568 c 0,-0.16872 2.20486,-0.264584 6.08541,-0.264584 3.34698,0 6.17174,-0.0089 6.27724,-0.01984 0.10551,-0.01091 0.23449,0.108149 0.28664,0.264584 0.0659,0.197598 -1.85043,0.284427 -6.27724,0.284427 -4.07165,0 -6.37205,-0.09552 -6.37205,-0.264583 z m 14.13829,-0.237402 c -0.36816,-0.368157 0.1452,-0.512957 2.42442,-0.683837 1.52945,-0.114667 2.64011,-0.0901 2.79196,0.06175 0.15983,0.15983 -0.72791,0.341015 -2.42442,0.494814 -1.47212,0.133458 -2.7285,0.190732 -2.79196,0.127275 z m 13.78655,-0.273483 c -0.0837,-0.135466 -0.061,-0.288721 0.0505,-0.340568 0.42175,-0.196084 4.03921,0.111995 4.03921,0.343997 0,0.319331 -3.89228,0.316067 -4.08974,-0.0034 z m 8.91395,-0.07111 c 0.0761,-0.228367 0.61878,-0.344042 1.61398,-0.344042 2.07402,0 2.03334,0.510167 -0.0485,0.608625 -1.2869,0.06086 -1.65329,-0.0011 -1.56545,-0.264583 z m -72.056503,-0.71049 c -0.485886,-0.393447 -0.606552,-0.7335 -0.571569,-1.610762 0.0517,-1.296508 0.469839,-1.916829 1.217277,-1.805874 0.773885,0.114881 0.900033,0.758318 0.13235,0.675063 -0.542534,-0.05884 -0.628029,0.06043 -0.703072,0.980799 -0.09989,1.225093 0.387911,1.730344 1.670584,1.730344 1.610053,0 1.937835,-1.191129 0.657027,-2.387583 -0.4693,-0.43839 -0.687039,-0.817949 -0.526241,-0.917328 0.15086,-0.09324 0.630161,0.186348 1.065115,0.6213 0.917691,0.917692 1.048866,2.103485 0.306967,2.774895 -0.666398,0.603081 -2.470243,0.569289 -3.248438,-0.06085 z"
       id="path942" />
  </g>
</svg>
