<?xml version="1.0" encoding="UTF-8" standalone="no"?>
<svg
   xmlns:dc="http://purl.org/dc/elements/1.1/"
   xmlns:cc="http://creativecommons.org/ns#"
   xmlns:rdf="http://www.w3.org/1999/02/22-rdf-syntax-ns#"
   xmlns:svg="http://www.w3.org/2000/svg"
   xmlns="http://www.w3.org/2000/svg"
   xmlns:sodipodi="http://sodipodi.sourceforge.net/DTD/sodipodi-0.dtd"
   xmlns:inkscape="http://www.inkscape.org/namespaces/inkscape"
   width="178.33609mm"
   height="52.134174mm"
   viewBox="0 0 178.33609 52.134174"
   version="1.1"
   id="svg8"
   inkscape:version="1.0.1 (3bc2e813f5, 2020-09-07, custom)"
   sodipodi:docname="implicit-conversions.svg">
  <defs
     id="defs2" />
  <sodipodi:namedview
     id="base"
     pagecolor="#ffffff"
     bordercolor="#666666"
     borderopacity="1.0"
     inkscape:pageopacity="0.0"
     inkscape:pageshadow="2"
     inkscape:zoom="0.40198492"
     inkscape:cx="356.1284"
     inkscape:cy="178.71537"
     inkscape:document-units="mm"
     inkscape:current-layer="layer1"
     inkscape:document-rotation="0"
     showgrid="false"
     inkscape:window-width="1568"
     inkscape:window-height="346"
     inkscape:window-x="1920"
     inkscape:window-y="703"
     inkscape:window-maximized="1"
     fit-margin-top="0"
     fit-margin-left="0"
     fit-margin-right="0"
     fit-margin-bottom="0" />
  <metadata
     id="metadata5">
    <rdf:RDF>
      <cc:Work
         rdf:about="">
        <dc:format>image/svg+xml</dc:format>
        <dc:type
           rdf:resource="http://purl.org/dc/dcmitype/StillImage" />
        <dc:title></dc:title>
      </cc:Work>
    </rdf:RDF>
  </metadata>
  <g
     inkscape:label="Layer 1"
     inkscape:groupmode="layer"
     id="layer1"
     transform="translate(-18.858452,-10.616134)">
    <path
       style="fill:#000000;stroke-width:0.264583"
       d="m 154.97282,62.337914 c -0.60733,-0.86709 -0.57134,-2.42799 0.0738,-3.20244 0.42176,-0.50625 0.52204,-0.53984 0.52917,-0.17722 0.005,0.24608 -0.11026,0.52099 -0.25578,0.61093 -0.359,0.22187 -0.33641,2.0713 0.0298,2.43748 0.16189,0.16189 0.24376,0.44609 0.18194,0.63155 -0.0732,0.21964 -0.26809,0.11494 -0.55893,-0.3003 z m 4.32438,0.36217 c 0.12137,0 0.18323,-0.4516 0.39688,-0.73407 0.49516,-0.65466 0.4905,-1.40116 -0.0148,-2.37005 -0.47353,-0.908 -0.25104,-1.31449 0.30407,-0.55553 0.61823,0.84526 0.71806,1.67228 0.32617,2.70194 -0.32574,0.85586 -1.58096,0.95771 -1.01234,0.95771 z m -27.8558,-0.8989 c -0.83675,-0.4319 -1.52094,-0.87266 -1.52043,-0.97946 10e-4,-0.29142 2.86714,-1.77995 3.05846,-1.58863 0.091,0.091 -0.29217,0.40702 -0.85161,0.70215 l -1.01715,0.5366 9.72343,0.0117 c 6.29811,0.008 9.72344,0.1049 9.72344,0.27627 0,0.17138 -3.42533,0.26871 -9.72344,0.27628 l -9.72343,0.0117 0.99218,0.52379 c 0.54571,0.2881 0.99219,0.64001 0.99219,0.78206 0,0.32495 0.13102,0.36872 -1.65364,-0.55246 z m -6.37476,-1.10751 c 0,-1.69112 0.48395,-1.63021 0.96845,-1.44429 0.41012,0.15738 1.10483,2.53503 0.81793,2.79939 -0.0992,0.0914 -0.23358,0.0174 -0.29854,-0.16448 -0.13972,-0.39121 -1.39694,-0.45074 -1.39694,-0.0661 0,0.14553 -0.11264,0.26459 -0.25032,0.26459 -0.13768,0 0.15942,-0.59254 0.15942,-1.38906 z m 1.14923,-0.18283 c 0,-0.13693 -0.11906,-0.32255 -0.26458,-0.41249 -0.14552,-0.0899 -0.26458,0.0221 -0.26458,0.24897 0,0.22687 0.11906,0.41249 0.26458,0.41249 0.14552,0 0.26458,-0.11203 0.26458,-0.24897 z m 30.16649,1.28217 c 0.006,-0.55878 0.66207,-2.33425 0.98007,-2.65225 0.34932,-0.34933 0.5047,-0.11608 0.98437,1.47775 0.19868,0.66016 0.26626,1.25899 0.15017,1.33073 -0.11609,0.0718 -0.27933,-0.0475 -0.36278,-0.26491 -0.19842,-0.51708 -0.67106,-0.50128 -1.27196,0.0425 -0.38352,0.34708 -0.48303,0.36079 -0.47987,0.0661 z m 1.31488,-1.62851 c -0.003,-0.48139 -0.0531,-0.51937 -0.26053,-0.19844 -0.3315,0.51297 -0.3315,0.79375 0,0.79375 0.14552,0 0.26276,-0.26789 0.26053,-0.59531 z m 6.27994,1.75592 c -0.42061,0 -0.22341,-2.69653 0.0892,-2.88969 0.15379,-0.0951 0.55792,-0.10297 0.89806,-0.0176 0.49627,0.12456 0.63864,0.36707 0.72071,1.22762 0.0563,0.58982 0.0379,1.17659 -0.0408,1.30392 -0.20159,0.32617 -1.34312,0.37575 -1.66711,0.37575 z m 1.26589,-0.63331 c 0,0.1723 -0.0266,-0.33985 -0.26038,-0.42956 -0.50658,-0.1944 -0.78891,0.0198 -0.5454,0.41383 0.2197,0.35548 0.80578,-0.39225 0.80578,0.0157 z m -0.2051,-1.4809 c 0,0.12431 -0.31613,-0.0973 -0.50712,-0.0209 -0.21107,0.0845 -0.14838,0.14716 0.15985,0.15985 0.27891,0.0115 0.34727,-0.26331 0.34727,-0.13896 z m -18.65598,-2.86213 -1.02199,-0.92331 -0.55419,0.5542 c -0.63337,0.63339 -1.68744,0.49399 -1.15114,-0.15222 0.2523,-0.304 -0.66574,-0.3811 -5.72488,-0.48078 -6.76409,-0.13327 -7.40092,-0.0597 -6.10566,0.70543 1.31812,0.77864 0.4636,0.77588 -0.92996,-0.003 -0.67855,-0.37924 -1.29088,-0.78203 -1.36074,-0.89507 -0.14646,-0.23697 2.26262,-1.60822 2.80367,-1.59584 0.19859,0.005 -0.11518,0.30159 -0.69727,0.6601 l -1.05833,0.65185 7.12372,0.001 7.12373,10e-4 -0.57529,-0.61236 c -0.31638,-0.33677 -0.57529,-0.75347 -0.57529,-0.92599 0,-0.49104 0.66245,-0.36815 1.19649,0.22197 0.48379,0.53458 0.48649,0.53395 1.36444,-0.31699 0.68261,-0.66161 0.95059,-0.78173 1.19616,-0.53616 0.24557,0.24557 0.11528,0.52405 -0.58159,1.24303 l -0.89805,0.92655 h 6.97517 c 3.83634,0 6.8954,0.0798 6.79791,0.17726 -0.21064,0.21064 -3.5761,0.33988 -9.03179,0.34685 -3.66168,0.005 -3.91698,0.0362 -3.37344,0.41694 0.32342,0.22653 0.58804,0.57669 0.58804,0.77814 0,0.74158 -0.53354,0.65674 -1.52972,-0.24325 z m -21.6685,-0.52235 c 0,-0.21756 0.28812,-0.85798 0.46706,-1.45521 0.52459,-1.75094 1.29128,-1.24325 1.75643,1.16308 0.14956,0.7737 0.14019,0.78206 -0.37082,0.33073 -0.64291,-0.56783 -1.11137,-0.59143 -1.31294,-0.0661 -0.0838,0.21828 -0.27136,0.39687 -0.41688,0.39687 -0.14552,0 -0.12285,-0.15175 -0.12285,-0.36933 z m 1.49833,-1.15202 c -0.002,-0.10914 -0.11946,-0.37703 -0.26053,-0.59532 -0.2074,-0.32092 -0.25725,-0.28295 -0.26053,0.19844 -0.002,0.32742 0.11501,0.59531 0.26053,0.59531 0.14552,0 0.26276,-0.0893 0.26053,-0.19843 z m 37.69729,1.19062 c 0,-0.19458 -0.0949,-0.86651 -0.0573,-1.52135 0.0661,-1.15241 0.0936,-1.18786 0.8595,-1.10441 0.93989,0.10242 0.81922,-0.0378 1.00537,1.16861 0.10706,0.69382 0.0334,1.10962 -0.24603,1.38906 -0.48365,0.48364 -1.56154,0.55481 -1.56154,0.0681 z m 1.33281,-0.7276 c -0.0899,-0.14552 -0.33509,-0.26459 -0.54479,-0.26459 -0.20969,0 -0.38126,0.11907 -0.38126,0.26459 0,0.14552 0.24516,0.26458 0.54479,0.26458 0.29963,0 0.47119,-0.11906 0.38126,-0.26458 z m -0.26459,-1.05834 c 0.0899,-0.14552 -0.0221,-0.26458 -0.24897,-0.26458 -0.22687,0 -0.41249,0.11906 -0.41249,0.26458 0,0.14553 0.11204,0.26459 0.24897,0.26459 0.13693,0 0.32255,-0.11906 0.41249,-0.26459 z m -7.67291,-3.06264 c 0.29104,-0.21999 0.76729,-0.56267 1.05833,-0.7615 0.4506,-0.30785 -1.62937,-0.36622 -14.00866,-0.39315 -7.9958,-0.0174 -14.59385,-0.0876 -14.66233,-0.15612 -0.0685,-0.0685 6.53308,-0.1339 14.67012,-0.14539 8.13704,-0.0115 14.61603,-0.088 14.39774,-0.17002 -0.58539,-0.21996 -1.89889,-1.17339 -1.78013,-1.29215 0.20612,-0.20613 3.10323,1.53329 2.95453,1.7739 -0.17011,0.27524 -2.62378,1.56614 -2.95154,1.55283 -0.11398,-0.005 0.0309,-0.18841 0.32194,-0.4084 z m -32.31969,-0.90611 c 0,-0.51404 0.25785,-1.2664 0.41856,-1.6824 0.388,-1.00437 0.90936,-0.5866 1.32427,1.06113 0.29699,1.17947 0.1994,1.93237 -0.13689,1.05602 -0.21973,-0.57262 -1.065,-0.55599 -1.43727,0.0283 -0.24026,0.37706 -0.16867,0.29809 -0.16867,-0.46303 z m 1.22709,-0.7276 c -0.002,-0.10914 -0.11946,-0.37703 -0.26053,-0.59531 -0.2074,-0.32093 -0.25725,-0.28296 -0.26053,0.19844 -0.002,0.32742 0.11501,0.59531 0.26053,0.59531 0.14552,0 0.26276,-0.0893 0.26053,-0.19844 z m 37.68218,1.15475 c -0.19317,0.0966 -0.1034,-0.88624 -0.0578,-1.52136 0.1807,-2.18289 1.67615,-1.10125 1.87706,0.10008 0.10999,0.69704 0.0382,1.10832 -0.24257,1.38906 -0.49959,0.49959 -1.11143,-0.2004 -1.57665,0.0322 z m 1.48021,-0.69173 c 0,-0.14552 -0.23813,-0.26458 -0.52917,-0.26458 -0.29104,0 -0.52917,0.11906 -0.52917,0.26458 0,0.14552 0.23813,0.26458 0.52917,0.26458 0.29104,0 0.52917,-0.11906 0.52917,-0.26458 z m -0.33624,-1.21819 c 0,0.12431 -0.31613,-0.0973 -0.50712,-0.0209 -0.21107,0.0845 -0.14838,0.14715 0.15985,0.15985 0.27891,0.0115 0.34727,-0.26324 0.34727,-0.13896 z M 58.069661,45.488264 c -0.808728,-0.80872 -0.05699,-2.15365 1.042995,-1.866 0.725961,0.18985 0.596977,0.596 -0.189269,0.596 -0.870734,0 -0.790028,0.88531 0.09217,1.01111 0.328094,0.0468 0.528209,0.19561 0.444702,0.33073 -0.214165,0.34652 -1.013532,0.30523 -1.3906,-0.0718 z m 2.06375,-1.27 c 0,-0.88194 0.117591,-1.5875 0.264583,-1.5875 0.145521,0 0.264583,0.24516 0.264583,0.54479 0,0.31105 0.118486,0.47155 0.276173,0.37409 0.482237,-0.29804 1.046744,0.43674 1.046744,1.36248 0,0.4915 -0.119062,0.89364 -0.264583,0.89364 -0.145521,0 -0.264584,-0.36711 -0.264584,-0.81579 0,-1.01229 -0.623236,-0.92146 -0.745177,0.10859 -0.158814,1.34152 -0.577739,0.7032 -0.577739,-0.8803 z m 2.481791,1.2033 c -0.206893,-0.53916 0.101458,-0.93871 0.724437,-0.93871 0.291042,0 0.458799,-0.11387 0.372788,-0.25303 -0.08601,-0.13917 -0.331161,-0.18596 -0.544783,-0.10399 -0.213619,0.082 -0.3884,0.03 -0.3884,-0.11553 0,-0.35834 0.702336,-0.60426 1.190625,-0.41688 0.258733,0.0993 0.396875,0.51082 0.396875,1.18232 0,0.97045 -0.04639,1.03002 -0.802053,1.03002 -0.457107,0 -0.865462,-0.16524 -0.949489,-0.3842 z m 1.150718,-0.30482 c -0.08792,-0.0879 -0.316124,-0.0973 -0.507119,-0.0209 -0.211066,0.0845 -0.148373,0.14715 0.159854,0.15985 0.278913,0.0115 0.435184,-0.0511 0.347265,-0.13897 z m 1.394574,-0.44775 c 0,-1.00665 0.06814,-1.13516 0.595312,-1.12272 0.690822,0.0163 1.256771,0.32822 1.256771,0.69265 0,0.13971 -0.297656,0.1793 -0.661458,0.088 -0.599297,-0.15041 -0.661458,-0.0887 -0.661458,0.65642 0,0.45234 -0.119063,0.82243 -0.264584,0.82243 -0.145521,0 -0.264583,-0.51154 -0.264583,-1.13677 z m -2.976562,-4.30873 c -0.109141,-0.10942 -0.202224,-1.9948 -0.206852,-4.18974 -0.0074,-3.52104 -0.05302,-3.93188 -0.387334,-3.49026 -0.208404,0.2753 -0.426442,0.63249 -0.484529,0.79375 -0.05809,0.16127 -0.192979,0.21222 -0.299765,0.11323 -0.18675,-0.17311 1.172038,-2.86191 1.446552,-2.86246 0.263186,-5.3e-4 1.607441,2.44748 1.505794,2.74218 -0.05696,0.16515 -0.356889,-0.11313 -0.666512,-0.61839 l -0.562954,-0.91866 -0.07298,4.31465 c -0.04014,2.37305 -0.16228,4.22511 -0.27142,4.1157 z M 23.491529,29.141694 c -0.08048,-0.13022 0.05783,-0.35102 0.307353,-0.49066 0.408205,-0.22844 0.417736,-0.36282 0.09507,-1.34049 -0.436474,-1.32253 -0.16023,-1.77026 0.347377,-0.56302 l 0.363961,0.86561 0.344094,-0.89172 c 0.299469,-0.77607 0.357775,-0.81715 0.449591,-0.31672 0.206808,1.12719 -1.441034,3.49168 -1.90745,2.737 z M 132.8693,28.955314 c -0.0135,-0.11836 -0.003,-0.75063 0.024,-1.40505 0.0516,-1.264 0.30054,-1.57771 1.2573,-1.58422 0.91071,-0.006 0.75504,1.29222 -0.19843,1.65517 -0.25971,0.0989 -0.18476,0.1583 0.21684,0.17197 0.48054,0.0164 0.59537,0.15006 0.52916,0.6162 -0.0648,0.45627 -0.28538,0.61468 -0.94444,0.67822 -0.47294,0.0456 -0.87094,-0.0139 -0.88443,-0.13229 z m 1.2758,-0.50735 c -0.0879,-0.0879 -0.31613,-0.0973 -0.50712,-0.0209 -0.21107,0.0845 -0.14837,0.14715 0.15985,0.15985 0.27892,0.0115 0.43519,-0.051 0.34727,-0.13897 z m -0.0606,-1.69223 c -0.0899,-0.14552 -0.27556,-0.26458 -0.41249,-0.26458 -0.13693,0 -0.24897,0.11906 -0.24897,0.26458 0,0.14552 0.18563,0.26459 0.4125,0.26459 0.22686,0 0.3389,-0.11907 0.24896,-0.26459 z m -68.990112,1.49972 c -0.10914,-0.26656 -0.198437,-0.81823 -0.198437,-1.22593 0,-0.56223 0.14619,-0.76921 0.605297,-0.85697 0.783593,-0.1498 1.246786,0.0123 1.246786,0.43625 0,0.21554 -0.233431,0.29351 -0.643848,0.21506 -0.581845,-0.11123 -0.651915,-0.0249 -0.727604,0.89658 -0.06198,0.75454 -0.135353,0.89365 -0.282194,0.53501 z m 20.174479,0.23507 c 0,-0.0645 0.506015,-0.41949 1.124479,-0.78885 l 1.124479,-0.67155 -7.672917,-0.0711 -7.672916,-0.071 1.190625,-0.56646 c 1.061903,-0.5052 5.720233,-2.49449 14.022916,-5.98831 1.52797,-0.64298 4.000708,-1.68523 5.494978,-2.31612 1.49427,-0.63089 2.62537,-1.23603 2.51354,-1.34475 -0.11182,-0.10872 -0.62003,-0.24664 -1.12935,-0.30649 -0.52758,-0.062 -0.15758,-0.12703 0.85989,-0.15116 0.98227,-0.0233 1.78594,0.0596 1.78594,0.1842 0,0.34799 -1.88574,2.73841 -2.0392,2.58495 -0.0743,-0.0744 0.126,-0.502 0.44524,-0.95033 l 0.58043,-0.81514 -1.67604,0.63704 c -0.92183,0.35037 -3.04527,1.23251 -4.71876,1.96031 -1.67349,0.7278 -5.483491,2.35488 -8.466668,3.61573 -2.983177,1.26086 -5.959739,2.52073 -6.614583,2.79972 l -1.190625,0.50726 7.011458,3.7e-4 7.011459,3.7e-4 -1.058334,-0.65185 c -1.258385,-0.77506 -0.798491,-0.87801 0.605854,-0.13562 1.810261,0.95696 1.807383,0.93574 0.247978,1.82794 -1.406112,0.8045 -1.779873,0.95377 -1.779873,0.71083 z M 116.094,28.341354 c 0.0906,-0.14655 0.54409,-0.47398 1.0078,-0.7276 0.82524,-0.45136 0.70562,-0.46395 -5.63917,-0.59343 l -6.4823,-0.13229 2.38126,-1.02744 c 1.30968,-0.56508 3.15515,-1.38163 4.10104,-1.81454 0.94588,-0.43291 2.79135,-1.25832 4.10104,-1.83423 1.30969,-0.57591 3.09563,-1.37966 3.96875,-1.7861 0.87313,-0.40643 2.89719,-1.31249 4.49792,-2.01345 3.79995,-1.66401 3.97026,-1.80084 2.4914,-2.00169 -1.10863,-0.15057 -1.08458,-0.16074 0.46954,-0.19844 0.90092,-0.0219 1.70243,0.0644 1.78113,0.19179 0.0787,0.12734 -0.20406,0.71077 -0.62837,1.2965 -1.13781,1.57071 -1.86227,1.90302 -0.87979,0.40357 l 0.45579,-0.69562 -0.70992,0.17818 c -0.39045,0.098 -1.73927,0.65592 -2.99739,1.23984 -1.25811,0.58392 -3.55477,1.60998 -5.10368,2.28013 -1.54892,0.67015 -2.93528,1.30209 -3.0808,1.40431 -0.14552,0.10222 -0.91942,0.45947 -1.71979,0.7939 -0.80036,0.33442 -2.16958,0.93194 -3.04271,1.32782 -0.87312,0.39587 -2.30187,1.03326 -3.175,1.41641 l -1.58751,0.69663 5.93756,0.005 c 5.2768,0.004 5.8804,-0.0382 5.42396,-0.3834 -0.28247,-0.21365 -0.64784,-0.39224 -0.81192,-0.39687 -0.16408,-0.005 -0.44655,-0.18701 -0.62771,-0.40529 -0.18116,-0.21828 -0.2255,-0.39576 -0.0985,-0.39439 0.27047,0.003 3.00896,1.54773 3.00896,1.6974 0,0.12283 -2.83867,1.7397 -3.05432,1.7397 -0.0836,0 -0.0778,-0.11991 0.0128,-0.26647 z m 54.63529,0.0131 c 0,-0.14424 0.38696,-0.47367 0.8599,-0.73207 0.83308,-0.45516 0.33188,-0.47394 -16.07344,-0.6021 -10.28514,-0.0804 -16.78696,-0.22654 -16.56052,-0.37235 0.20504,-0.13204 3.06254,-1.59724 6.35,-3.25601 3.28745,-1.65878 6.06896,-3.10699 6.18113,-3.21826 0.11217,-0.11127 -2.5072,-0.95735 -5.82083,-1.88016 -3.31363,-0.92282 -6.20337,-1.77397 -6.42165,-1.89145 -0.74792,-0.40253 0.3772,-0.25861 2.15494,0.27565 0.92483,0.27794 3.75378,1.0691 6.28654,1.75813 5.20947,1.41723 4.74647,1.44276 8.35956,-0.46088 l 2.11667,-1.11521 -0.87333,-0.18073 c -1.49341,-0.30905 -1.27319,-0.50665 0.56464,-0.50665 1.91573,0 2.15544,0.23538 1.30087,1.27734 -0.25466,0.31051 -0.68308,0.87265 -0.95204,1.24921 -0.63081,0.88315 -0.91764,0.62069 -0.31943,-0.29229 0.24962,-0.38097 0.39866,-0.74787 0.33119,-0.81534 -0.14573,-0.14573 -4.68211,2.07109 -4.68211,2.28804 0,0.13963 0.56048,0.31261 5.02708,1.55144 10.85282,3.01008 17.4625,4.74365 17.4625,4.58003 0,-0.0809 -0.25888,-0.4226 -0.57529,-0.7594 -0.91068,-0.96937 -0.20261,-0.69722 1.08776,0.41809 1.13813,0.98374 1.15661,1.02394 0.60598,1.31862 -0.31237,0.16718 -1.13829,0.35969 -1.83539,0.4278 l -1.26744,0.12384 1.05834,-0.36196 c 1.17519,-0.40193 1.09471,-0.47368 -1.19063,-1.06152 -1.4414,-0.37076 -1.44937,-0.36957 -0.83971,0.12517 0.33852,0.27472 0.53846,0.62413 0.4443,0.77649 -0.26217,0.42419 -2.77959,1.63466 -2.77959,1.33653 z m 0.88675,-1.78248 0.75446,-0.1347 -1.01904,-0.6311 c -0.56047,-0.34711 -1.61435,-0.81544 -2.34196,-1.04075 -3.3993,-1.0526 -15.7199,-4.35973 -16.24205,-4.35973 -0.62336,0 -12.46524,5.82556 -12.46524,6.13222 0,0.20642 30.16467,0.23923 31.31383,0.0341 z m -152.757588,1.39912 c 0,-0.2434 0.205903,-0.33253 0.595313,-0.25767 l 0.595312,0.11443 -0.595312,-0.31193 c -0.736815,-0.38607 -0.775888,-1.19642 -0.06851,-1.42093 0.577543,-0.18331 1.060701,0.0124 1.060701,0.42957 0,0.14968 -0.261317,0.19362 -0.595312,0.10009 -0.589412,-0.16506 -0.589002,-0.16164 0.0413,0.34519 0.406322,0.32672 0.57682,0.66771 0.471325,0.94262 -0.204899,0.53396 -1.504812,0.5846 -1.504812,0.0586 z m 2.390626,-1.28154 c 0.008,-1.4135 0.05604,-1.5768 0.330729,-1.12448 0.176744,0.29104 0.486971,0.52917 0.689393,0.52917 0.562898,0 0.920636,0.76394 0.724214,1.54654 -0.141465,0.56365 -0.332111,0.70241 -0.965003,0.70241 h -0.788709 l 0.0094,-1.65364 z m 1.266795,0.50724 c 0.0495,-0.25521 -0.0833,-0.4411 -0.315114,-0.4411 -0.491526,0 -0.788182,0.43131 -0.55555,0.80772 0.239324,0.38723 0.767603,0.16479 0.870664,-0.36662 z m 4.191885,0.97001 c -0.09701,-0.097 -0.176389,-0.44146 -0.176389,-0.76544 0,-0.32398 -0.196233,-0.66435 -0.436072,-0.75639 -0.395356,-0.15171 -0.389869,-0.2112 0.05877,-0.63714 0.392155,-0.37231 0.619477,-0.41209 1.095465,-0.1917 0.699915,0.32408 0.762925,0.55767 0.207879,0.77066 -0.218281,0.0838 -0.396875,0.39416 -0.396875,0.68977 0,0.30136 0.174345,0.53747 0.396875,0.53747 0.218281,0 0.396875,0.11906 0.396875,0.26458 0,0.29558 -0.872057,0.36267 -1.146527,0.0882 z m 1.993194,-0.14111 c -0.174625,-0.17462 -0.3175,-0.5233 -0.3175,-0.77485 0,-0.47733 0.666387,-1.2889 1.058333,-1.2889 0.361843,0 1.058333,0.79599 1.058333,1.20953 0,0.22721 -0.290217,0.39235 -0.727604,0.41401 -0.623846,0.0309 -0.642711,0.0524 -0.132291,0.15069 0.327422,0.0631 0.595312,0.22544 0.595312,0.36084 0,0.35647 -1.160744,0.30252 -1.534583,-0.0713 z m 1.198342,-1.16527 c -0.08792,-0.0879 -0.316122,-0.0973 -0.507118,-0.0209 -0.211067,0.0845 -0.148372,0.14715 0.159852,0.15985 0.278915,0.0115 0.435185,-0.0511 0.347266,-0.13897 z m 25.383463,1.30638 c -0.279998,-0.27999 -0.20453,-1.94027 0.08819,-1.94027 0.145521,0 0.264583,0.36711 0.264583,0.8158 0,0.97378 0.61436,0.93875 0.750009,-0.0428 0.171135,-1.23831 0.572908,-1.16812 0.572908,0.1001 0,1.18907 -0.03284,1.24354 -0.749652,1.24354 -0.412311,0 -0.829029,-0.0794 -0.926042,-0.17639 z m 2.346524,-0.073 c -0.185555,-0.30023 -0.04554,-0.35618 0.784378,-0.31341 0.483918,0.0249 0.478264,10e-4 -0.06615,-0.27455 -1.059016,-0.5369 -0.512164,-1.79994 0.595313,-1.37496 0.597998,0.22947 0.476411,0.6226 -0.198438,0.64161 l -0.595312,0.0168 0.614955,0.24655 c 0.828066,0.33199 0.657876,1.14968 -0.261501,1.25642 -0.385196,0.0447 -0.778158,-0.0446 -0.873249,-0.19844 z m 2.571506,-1.33808 c 0.0026,-0.94588 0.057,-1.44672 0.120896,-1.11296 0.08649,0.45179 0.242155,0.56683 0.609315,0.4503 0.329279,-0.10451 0.586411,0.0178 0.77384,0.36797 0.355097,0.66351 0.365529,1.88219 0.01611,1.88219 -0.145521,0 -0.264584,-0.36591 -0.264584,-0.81315 0,-1.08983 -0.850601,-0.96906 -1.091136,0.15493 -0.111927,0.52302 -0.167571,0.20857 -0.164444,-0.92928 z m 2.316766,1.19406 c -0.405032,-0.48803 -0.152667,-1.60912 0.410906,-1.82538 0.703638,-0.27001 1.438325,0.31306 1.438325,1.14149 0,1.04723 -1.184219,1.48519 -1.849231,0.68389 z m 1.320064,-0.66489 c 0,-0.35278 -0.176389,-0.52917 -0.529166,-0.52917 -0.509903,0 -0.716995,0.51773 -0.352777,0.88195 0.364215,0.36421 0.881943,0.15712 0.881943,-0.35278 z m 4.14514,0.88194 c -0.09701,-0.097 -0.17639,-0.44828 -0.17639,-0.7806 0,-0.33232 -0.177585,-0.70359 -0.394634,-0.82506 -0.336015,-0.18804 -0.316365,-0.28786 0.132292,-0.67202 0.289809,-0.24814 0.526926,-0.34715 0.526926,-0.22003 0,0.12713 0.26789,0.31063 0.595312,0.4078 l 0.595312,0.17666 -0.595312,0.24254 c -0.737878,0.30064 -0.778084,1.0551 -0.06615,1.24127 0.291042,0.0761 0.529167,0.24356 0.529167,0.37211 0,0.27226 -0.887238,0.31663 -1.146527,0.0573 z m 24.325874,-0.24212 c -0.25186,-0.65634 -0.18806,-1.69815 0.10399,-1.69815 0.14552,0 0.26458,0.35718 0.26458,0.79375 0,0.52916 0.13229,0.79375 0.39687,0.79375 0.39594,0 0.43365,-0.0788 0.4961,-1.03629 0.072,-1.10363 0.42995,-0.82826 0.42995,0.33073 0,1.18538 -0.0306,1.23472 -0.76545,1.23472 -0.4539,0 -0.8308,-0.17033 -0.92604,-0.41851 z m 2.48524,0.18224 c 0,-0.12995 0.19149,-0.30976 0.42553,-0.39957 0.38673,-0.1484 0.38798,-0.22062 0.0138,-0.79173 -0.42638,-0.65076 -0.34181,-0.95368 0.26626,-0.95368 0.22679,0 0.35278,0.33073 0.35278,0.92605 0,0.50932 0.11906,0.92604 0.26458,0.92604 0.14553,0 0.26459,0.11906 0.26459,0.26458 0,0.14552 -0.35719,0.26458 -0.79375,0.26458 -0.43656,0 -0.79375,-0.10632 -0.79375,-0.23627 z m 2.41255,-0.72506 c -0.0265,-0.92397 0.061,-1.11828 0.56401,-1.25264 0.3922,-0.10476 0.70815,-0.008 0.92604,0.2843 0.39436,0.52861 0.44239,1.92967 0.0661,1.92967 -0.14552,0 -0.26458,-0.36591 -0.26458,-0.81315 0,-1.08983 -0.8506,-0.96906 -1.09114,0.15493 -0.15392,0.71926 -0.17199,0.69194 -0.20048,-0.30311 z m 2.72937,0.0353 c -0.0955,-0.50932 -0.298,-0.92604 -0.44988,-0.92604 -0.15188,0 -0.0581,-0.24094 0.20841,-0.53542 0.2665,-0.29448 0.552839,-0.43462 0.636319,-0.31143 0.0835,0.12319 0.3899,0.31653 0.68094,0.42963 0.51369,0.19962 0.51175,0.21235 -0.0662,0.43519 -0.73787,0.28453 -0.77866,1.04196 -0.0661,1.22828 0.74224,0.19411 0.66048,0.60583 -0.12031,0.60583 -0.53277,0 -0.68068,-0.16639 -0.823189,-0.92604 z m 23.344889,0.74965 c -0.2901,-0.2901 -0.2065,-2.2547 0.0882,-2.07256 0.14552,0.0899 0.26458,0.5236 0.26458,0.9637 0,1.0763 0.63433,0.85773 0.74437,-0.25648 0.12607,-1.27658 0.57855,-1.00198 0.57855,0.35111 0,1.13096 -0.0376,1.19062 -0.74965,1.19062 -0.41231,0 -0.82903,-0.0794 -0.92605,-0.17639 z m 2.53559,-0.19192 c 0.49994,-0.3795 0.66531,-2.27752 0.19844,-2.27752 -0.14552,0 -0.26458,-0.11906 -0.26458,-0.26458 0,-0.14552 0.23812,-0.26459 0.52916,-0.26459 0.45862,0 0.52917,0.17639 0.52917,1.32292 0,0.7276 0.11906,1.32292 0.26458,1.32292 0.14553,0 0.26459,0.11906 0.26459,0.26458 0,0.14552 -0.44649,0.2608 -0.99219,0.25617 -0.88168,-0.007 -0.94061,-0.0476 -0.52917,-0.3599 z m 2.36802,0.0508 c -0.74475,-0.74475 -0.0912,-2.21406 0.89821,-2.01945 0.74082,0.14572 1.04787,0.87803 0.69388,1.65495 -0.32951,0.72319 -1.065,0.89158 -1.59209,0.3645 z m 1.18115,-0.62632 c 0.22052,-0.57467 -0.33931,-1.11509 -0.74003,-0.71438 -0.33867,0.33868 -0.12886,1.12904 0.29972,1.12904 0.15465,0 0.35279,-0.1866 0.44031,-0.41466 z m 1.18322,-0.18066 c -0.0328,-1.14546 0.0179,-1.25677 0.57251,-1.25677 0.3347,0 0.75142,0.14288 0.92604,0.3175 0.38463,0.38463 0.42078,1.70411 0.0529,1.93146 -0.15393,0.0951 -0.26459,-0.16843 -0.26459,-0.63023 0,-1.40644 -0.86044,-1.22864 -1.12924,0.23336 -0.0707,0.38469 -0.13669,0.1356 -0.15764,-0.59532 z m 50.21998,0.56763 c -0.39063,-0.72989 -0.0683,-1.52886 0.69391,-1.72017 0.3541,-0.0889 0.64383,-0.32728 0.64383,-0.52978 0,-0.20251 0.11906,-0.3682 0.26458,-0.3682 0.14622,0 0.26458,0.69214 0.26458,1.54724 0,1.53782 -0.005,1.54737 -0.79391,1.56981 -0.53481,0.0152 -0.88498,-0.14761 -1.07299,-0.4989 z m 1.29258,-0.85927 c 0.0673,-0.34954 -0.0413,-0.45812 -0.3908,-0.3908 -0.2662,0.0513 -0.52595,0.31101 -0.57722,0.57722 -0.0673,0.34954 0.0413,0.45811 0.3908,0.3908 0.2662,-0.0513 0.52595,-0.31102 0.57722,-0.57722 z m 1.43422,1.2409 c -0.1819,-0.0734 -0.33073,-0.53799 -0.33073,-1.03241 0,-0.74504 0.11656,-0.92821 0.68083,-1.06983 1.28918,-0.32356 1.65712,1.15545 0.37611,1.51189 l -0.66007,0.18366 0.72761,0.0264 c 0.40018,0.0145 0.7276,0.14544 0.7276,0.29096 0,0.27197 -0.93298,0.32677 -1.52135,0.0894 z m 2.32855,-0.20545 c -0.72909,-0.8785 0.42246,-2.41649 1.37058,-1.83052 0.22495,0.13903 0.12057,0.25376 -0.32697,0.35941 -0.94187,0.22235 -1.04326,1.05803 -0.12837,1.05803 0.44403,0 0.66279,0.12181 0.59399,0.33073 -0.16266,0.49393 -1.12411,0.54639 -1.50923,0.0823 z m 2.25265,0.14381 c -0.0805,-0.13027 0.0315,-0.30512 0.24896,-0.38857 0.43768,-0.16795 0.55055,-1.22665 0.13078,-1.22665 -0.14552,0 -0.26459,-0.11906 -0.26459,-0.26458 0,-0.14552 0.23813,-0.26459 0.52917,-0.26459 0.41279,0 0.52917,0.17639 0.52917,0.80206 0,0.46749 0.16491,0.86534 0.39535,0.95376 0.60755,0.23314 0.19362,0.62543 -0.65994,0.62543 -0.41938,0 -0.82839,-0.10658 -0.9089,-0.23686 z m 2.23182,-0.90084 v -1.24355 h 1.05833 1.05834 v 1.24355 c 0,1.2802 -0.37866,1.33004 -0.60303,0.0794 -0.0995,-0.55462 -0.12448,-0.52256 -0.15469,0.19844 -0.0198,0.47294 -0.1551,0.85989 -0.30062,0.85989 -0.14552,0 -0.28079,-0.38695 -0.30061,-0.85989 -0.0302,-0.721 -0.0552,-0.75306 -0.1547,-0.19844 -0.22436,1.25067 -0.60302,1.20083 -0.60302,-0.0794 z m 2.83437,0.97346 c -0.37974,-0.37973 -0.17303,-1.08593 0.40678,-1.38974 l 0.59531,-0.31192 -0.59531,0.11443 c -0.32743,0.0629 -0.59532,0.0135 -0.59532,-0.10976 0,-0.39578 0.5406,-0.57451 1.2211,-0.40372 0.57853,0.1452 0.65159,0.28992 0.58028,1.14939 -0.0688,0.82964 -0.18649,0.99551 -0.75294,1.06157 -0.36925,0.0431 -0.75621,-0.007 -0.8599,-0.11025 z m 2.19271,-0.10864 c 0,-0.15009 0.1786,-0.34142 0.39688,-0.42519 0.56235,-0.21579 0.52745,-1.84104 -0.0443,-2.06042 -0.32081,-0.1231 -0.36174,-0.24865 -0.15007,-0.46031 0.59233,-0.59234 1.12036,-0.0218 1.12036,1.21051 0,0.65082 0.11906,1.2569 0.26458,1.34684 0.55102,0.34055 0.23012,0.66145 -0.66146,0.66145 -0.50932,0 -0.92604,-0.1228 -0.92604,-0.27288 z M 34.614349,26.794194 c 0.138245,-0.12437 1.382448,-0.64884 2.764896,-1.1655 6.35458,-2.37486 8.349996,-3.15751 8.550621,-3.35373 0.118933,-0.11633 -2.466546,-2.32895 -5.745513,-4.91694 -3.278966,-2.58798 -5.894947,-4.81353 -5.813291,-4.94565 0.08166,-0.13212 1.119323,-0.225 2.305928,-0.20641 1.186605,0.0186 4.953574,0.0257 8.371044,0.0157 6.190937,-0.018 6.21027,-0.0198 5.305766,-0.50493 -0.499298,-0.26777 -0.951373,-0.61754 -1.004615,-0.77726 -0.05324,-0.15973 0.565494,0.0683 1.374963,0.50673 0.809469,0.43843 1.471641,0.8775 1.471493,0.97571 -2.64e-4,0.26166 -2.656977,1.71055 -2.826152,1.54138 -0.07902,-0.079 0.236749,-0.37502 0.701712,-0.65778 0.54406,-0.33087 0.719733,-0.56022 0.492861,-0.64345 -0.332833,-0.12212 -15.091824,0.0635 -15.237677,0.19161 -0.07322,0.0643 10.621023,8.60208 11.209533,8.94914 0.327239,0.19299 12.12307,-4.04147 13.811038,-4.95787 l 0.712496,-0.38682 -0.976571,-0.0106 c -0.537115,-0.006 -1.053547,-0.13514 -1.147625,-0.28736 -0.115927,-0.18758 0.284054,-0.21907 1.241155,-0.0977 2.14326,0.27173 2.190866,0.35876 0.974675,1.78158 -1.172488,1.37169 -1.697011,1.50602 -0.76394,0.19565 0.316826,-0.44494 0.531199,-0.80899 0.476382,-0.80899 -0.227517,0 -7.200449,2.58823 -8.535325,3.16816 -0.291042,0.12644 -1.481667,0.58046 -2.645834,1.00892 -1.164166,0.42846 -2.109702,0.88429 -2.101193,1.01295 0.01839,0.27781 3.322769,2.9993 3.650855,3.00684 0.124709,0.003 0.140968,-0.20314 0.03613,-0.4578 -0.104841,-0.25467 -0.252838,-0.70115 -0.328887,-0.99219 -0.265155,-1.01478 0.411599,-0.0343 0.983236,1.42449 l 0.558192,1.42449 -1.385155,-0.18375 c -1.769036,-0.23467 -2.728505,-0.77158 -1.046046,-0.58535 1.327505,0.14693 1.410232,0.26254 -1.448715,-2.02465 l -1.875333,-1.50029 -3.945501,1.46892 c -2.170023,0.80791 -4.183623,1.57625 -4.474664,1.70742 -2.185184,0.98487 -4.25622,1.59385 -3.690938,1.0853 z m 60.708642,-1.49366 c 0,-0.21829 0.11906,-0.39688 0.26459,-0.39688 0.14552,0 0.26458,0.17859 0.26458,0.39688 0,0.21828 -0.11906,0.39687 -0.26458,0.39687 -0.14553,0 -0.26459,-0.17859 -0.26459,-0.39687 z m 93.397929,0 c 0,-0.21829 0.11906,-0.39688 0.26458,-0.39688 0.14552,0 0.26459,0.17859 0.26459,0.39688 0,0.21828 -0.11907,0.39687 -0.26459,0.39687 -0.14552,0 -0.26458,-0.17859 -0.26458,-0.39687 z M 22.033412,14.699614 c 0,-0.10376 0.202195,-0.33651 0.449322,-0.51722 0.418074,-0.3057 0.419554,-0.40433 0.02129,-1.41823 -0.483816,-1.23167 -0.09599,-1.518 0.41382,-0.30552 l 0.329715,0.78417 0.342305,-0.85031 c 0.196174,-0.48731 0.399281,-0.70597 0.475772,-0.51219 0.201769,0.51114 -1.040524,2.82475 -1.569199,2.92243 -0.254662,0.0471 -0.463021,6.4e-4 -0.463021,-0.10313 z m 109.852088,-0.0782 c -0.22921,-0.14536 -0.31897,-0.65685 -0.26459,-1.50772 0.0779,-1.21873 0.12862,-1.29714 0.94667,-1.46326 1.04435,-0.21206 1.205,-0.0217 0.73929,0.87593 -0.30535,0.58856 -0.29447,0.74172 0.0797,1.12168 0.40161,0.40785 0.39574,0.4679 -0.0803,0.82075 -0.58304,0.43219 -0.92246,0.46864 -1.42079,0.15262 z m 1.00834,-0.56567 c 0,-0.14552 -0.1786,-0.26458 -0.39688,-0.26458 -0.21828,0 -0.39687,0.11906 -0.39687,0.26458 0,0.14552 0.17859,0.26459 0.39687,0.26459 0.21828,0 0.39688,-0.11907 0.39688,-0.26459 z m 0,-1.5875 c 0,-0.14552 -0.18562,-0.26458 -0.41249,-0.26458 -0.22687,0 -0.33891,0.11906 -0.24897,0.26458 0.0899,0.14552 0.27556,0.26459 0.41249,0.26459 0.13693,0 0.24897,-0.11907 0.24897,-0.26459 z m -107.222407,1.40512 c -0.255387,-0.0667 -0.463021,-0.36992 -0.463021,-0.67608 0,-0.30529 -0.159973,-0.74305 -0.355496,-0.97279 -0.301674,-0.35446 -0.280736,-0.48871 0.138293,-0.88673 0.429112,-0.40759 0.514038,-0.41625 0.648387,-0.0661 0.08503,0.22158 0.320453,0.40287 0.523165,0.40287 0.202712,0 0.368568,0.11907 0.368568,0.26459 0,0.14552 -0.178594,0.26458 -0.396875,0.26458 -0.218282,0 -0.396875,0.22539 -0.396875,0.50086 0,0.27547 0.178593,0.56939 0.396875,0.65315 0.218281,0.0838 0.396875,0.2751 0.396875,0.42519 0,0.2834 -0.08678,0.29254 -0.859896,0.0905 z m 1.790756,-0.24747 c -0.870949,-0.87095 0.103972,-2.42903 1.11966,-1.78939 0.730105,0.45978 0.741713,1.15944 0.0194,1.16932 -0.567428,0.008 -0.579097,0.0355 -0.151692,0.3599 0.254661,0.19332 0.46302,0.42766 0.46302,0.52075 0,0.34203 -1.033457,0.15635 -1.450388,-0.26058 z m 32.671222,-0.48057 c 0,-0.66064 -0.118438,-0.94166 -0.396875,-0.94166 -0.264584,0 -0.396875,0.26458 -0.396875,0.79375 0,0.43656 -0.119063,0.79375 -0.264583,0.79375 -0.147278,0 -0.264584,-0.71076 -0.264584,-1.60311 0,-1.00137 0.09931,-1.54174 0.264584,-1.4396 0.14552,0.0899 0.264583,0.33509 0.264583,0.54478 0,0.2097 0.225388,0.38126 0.500859,0.38126 0.747336,0 1.205529,1.84844 0.557474,2.24896 -0.157459,0.0973 -0.264583,-0.21774 -0.264583,-0.77813 z m 27.648957,0.26309 c 0.582084,-0.37008 0.879741,-0.67531 0.661459,-0.67828 -0.347329,-0.005 -0.348286,-0.0361 -0.0077,-0.25155 0.214066,-0.13538 0.333129,-0.29011 0.264583,-0.34383 -0.06854,-0.0537 -0.541338,-0.36553 -1.050661,-0.69288 -0.67635,-0.43471 -0.756717,-0.54732 -0.298062,-0.41767 0.841025,0.23775 2.414724,1.17885 2.414724,1.44404 0,0.26725 -1.580475,1.20962 -2.414724,1.43978 -0.406632,0.11219 -0.254944,-0.0639 0.430353,-0.49961 z m 5.953123,0.38275 c -0.26458,-0.17099 -0.28663,-0.25783 -0.0661,-0.26053 0.1819,-0.002 0.33073,-0.30171 0.33073,-0.66551 0,-0.3638 -0.11906,-0.66146 -0.26458,-0.66146 -0.14552,0 -0.26458,-0.11906 -0.26458,-0.26458 0,-0.14552 0.23812,-0.26459 0.52916,-0.26459 0.40723,0 0.52917,0.17639 0.52917,0.76545 0,0.48017 0.1698,0.8306 0.4556,0.94027 0.3903,0.14977 0.39978,0.21014 0.0661,0.42113 -0.49564,0.31345 -0.81858,0.31095 -1.3155,-0.0102 z m 22.745679,-0.12205 c 0.17648,-0.21264 0.54824,-0.45879 0.82615,-0.54699 0.2779,-0.0882 0.50527,-0.27667 0.50527,-0.41882 0,-0.16289 -2.49494,-0.23815 -6.74777,-0.20355 -3.71128,0.0302 -6.82676,-0.0241 -6.92328,-0.1206 -0.0965,-0.0965 3.02929,-0.18489 6.94622,-0.19638 3.91694,-0.0115 6.94311,-0.0888 6.72483,-0.1718 -0.48771,-0.18545 -1.72661,-1.13023 -1.48209,-1.13023 0.35115,0 2.80491,1.33657 2.80119,1.52581 -0.004,0.19086 -2.48577,1.64919 -2.80685,1.64919 -0.0905,0 -0.0202,-0.17398 0.15633,-0.38663 z m 31.48541,0 c 0.17648,-0.21264 0.54998,-0.45934 0.82999,-0.54821 1.34481,-0.42682 -0.23875,-0.6577 -4.87199,-0.71033 l -5.07762,-0.0577 5.29167,-0.14077 5.29167,-0.14076 -0.92605,-0.50567 c -0.50932,-0.27812 -0.79772,-0.5491 -0.6409,-0.60217 0.33445,-0.11318 2.75757,1.19197 2.75757,1.48528 0,0.20426 -2.42679,1.60693 -2.78018,1.60693 -0.10727,0 -0.0506,-0.17398 0.12584,-0.38663 z m 28.05434,0.28048 c 0,-0.0584 0.44648,-0.38542 0.99219,-0.72674 l 0.99218,-0.62059 -1.71979,-0.15363 -1.71979,-0.15364 1.85208,-0.0574 1.85209,-0.0574 -0.99219,-0.52379 c -0.5457,-0.28809 -0.99219,-0.64757 -0.99219,-0.79885 0,-0.32537 2.70726,1.09241 2.82287,1.47832 0.0436,0.14552 -0.51425,0.59201 -1.23965,0.99219 -1.21874,0.67234 -1.8478,0.88391 -1.8478,0.62145 z M 19.818925,13.195844 c -0.237765,-0.88722 -0.199374,-2.26372 0.06774,-2.42881 0.128976,-0.0797 0.296424,0.0919 0.372105,0.38126 0.08023,0.3068 0.361128,0.52619 0.673709,0.52619 0.607561,0 0.957488,0.78901 0.704058,1.5875 -0.247548,0.77996 -1.604095,0.73059 -1.817612,-0.0661 z m 1.420737,-0.31512 c 0,-0.54348 -0.547754,-0.81052 -0.805873,-0.39287 -0.119649,0.1936 -0.158842,0.44697 -0.0871,0.56306 0.222363,0.35979 0.892969,0.23198 0.892969,-0.17019 z m 35.189582,0.64585 c 0,-0.14552 0.267891,-0.27264 0.595313,-0.28249 l 0.595312,-0.0179 -0.595312,-0.28711 c -1.08204,-0.52185 -0.44949,-1.59689 0.661458,-1.12417 0.397536,0.16915 0.369469,0.22268 -0.198437,0.3785 l -0.661459,0.18148 0.595313,0.1968 c 0.344117,0.11376 0.595312,0.41257 0.595312,0.70814 0,0.39177 -0.185616,0.51134 -0.79375,0.51134 -0.436562,0 -0.79375,-0.11906 -0.79375,-0.26458 z m 4.811599,-0.70957 c 0.07639,-0.9276 0.148116,-1.01022 0.876943,-1.01022 0.730752,0 0.79375,0.0735 0.79375,0.92604 0,0.85513 -0.06715,0.93248 -0.876943,1.01022 -0.866582,0.0832 -0.875959,0.0722 -0.79375,-0.92604 z m 1.273818,-0.0842 c 0,-0.54777 -0.63831,-0.73015 -0.926042,-0.26459 -0.221467,0.35834 0.07737,0.79375 0.544782,0.79375 0.209693,0 0.38126,-0.23812 0.38126,-0.52916 z m 1.300101,0.52916 c -0.228018,-1.16095 -0.0034,-1.5875 0.835965,-1.5875 0.509195,0 0.77435,0.13483 0.77435,0.39376 0,0.24898 -0.215273,0.37058 -0.585509,0.33073 -0.460524,-0.0496 -0.61853,0.10641 -0.740201,0.73072 -0.150884,0.77422 -0.157888,0.77747 -0.284605,0.13229 z m 2.845038,0.35278 c -0.09701,-0.097 -0.176389,-0.41131 -0.176389,-0.69843 0,-0.28713 -0.20836,-0.68022 -0.463021,-0.87353 -0.440973,-0.33475 -0.440973,-0.35189 0,-0.3599 0.258053,-0.005 0.466746,-0.21338 0.471434,-0.47144 0.008,-0.44097 0.02516,-0.44097 0.3599,0 0.193315,0.25466 0.487185,0.46302 0.653042,0.46302 0.165859,0 0.301561,0.11907 0.301561,0.26459 0,0.14552 -0.178594,0.26458 -0.396875,0.26458 -0.543449,0 -0.500644,0.78893 0.06615,1.21919 0.432192,0.32808 0.426321,0.35204 -0.08819,0.3599 -0.30317,0.005 -0.630592,-0.071 -0.727604,-0.16798 z m 29.192361,-0.88194 c 0,-0.99084 0.0488,-1.05834 0.76544,-1.05834 0.45391,0 0.83081,0.17034 0.92604,0.41852 0.25186,0.65634 0.18807,1.69815 -0.10398,1.69815 -0.14552,0 -0.26458,-0.36711 -0.26458,-0.8158 0,-1.01229 -0.62324,-0.92146 -0.74518,0.1086 -0.1305,1.10233 -0.57774,0.83051 -0.57774,-0.35113 z m 2.91042,0.41002 c 0,-0.35657 -0.19465,-0.75724 -0.43255,-0.89038 -0.3901,-0.21831 -0.37913,-0.29547 0.11184,-0.78644 0.43569,-0.43568 0.57321,-0.46922 0.68882,-0.16795 0.0794,0.20703 0.32677,0.37641 0.54962,0.37641 0.22286,0 0.405189,0.11907 0.405189,0.26459 0,0.14552 -0.178599,0.26458 -0.396879,0.26458 -0.54345,0 -0.50065,0.78893 0.0662,1.21919 0.420919,0.31952 0.396859,0.35225 -0.26459,0.3599 -0.59807,0.007 -0.7276,-0.107 -0.7276,-0.6399 z m 25.664589,0.49712 c 0,-0.0832 0.1786,-0.32978 0.39688,-0.54807 0.21828,-0.21828 0.39687,-0.68976 0.39687,-1.04773 0,-0.35798 -0.17859,-0.7194 -0.39687,-0.80316 -0.5734,-0.22003 -0.48769,-0.62485 0.13229,-0.62485 0.45861,0 0.52916,0.17639 0.52916,1.32292 0,0.7276 0.11907,1.32291 0.26459,1.32291 0.14552,0 0.26458,0.11907 0.26458,0.26459 0,0.14552 -0.35719,0.26458 -0.79375,0.26458 -0.43656,0 -0.79375,-0.068 -0.79375,-0.15119 z m 2.38974,-0.36212 c -0.4419,-0.82569 0.0947,-1.65783 1.00149,-1.55307 0.61921,0.0715 0.70981,0.20021 0.70981,1.00805 0,0.80783 -0.0906,0.93651 -0.70981,1.00804 -0.50004,0.0578 -0.796,-0.0791 -1.00149,-0.46302 z m 1.41395,-0.42275 c 0.0905,-0.23578 -0.0164,-0.47308 -0.25406,-0.5643 -0.49407,-0.18959 -1.03471,0.28073 -0.78575,0.68356 0.25963,0.42009 0.85924,0.35132 1.03981,-0.11926 z m 0.95881,-0.13904 c 0,-1.05354 0.0172,-1.07343 0.8599,-0.99218 0.78504,0.0757 0.86704,0.16927 0.94201,1.07509 0.0475,0.57436 -0.036,0.99219 -0.19844,0.99219 -0.1543,0 -0.28055,-0.35719 -0.28055,-0.79375 0,-0.52917 -0.13229,-0.79375 -0.39688,-0.79375 -0.26458,0 -0.39687,0.26458 -0.39687,0.79375 0,0.43656 -0.11906,0.79375 -0.26459,0.79375 -0.14552,0 -0.26458,-0.48379 -0.26458,-1.0751 z m 25.13542,0.45756 c 0,-0.3731 -0.19674,-0.72503 -0.46302,-0.82826 -0.44098,-0.17095 -0.44098,-0.19573 0,-0.52049 0.25466,-0.18755 0.46302,-0.46868 0.46302,-0.62474 0,-0.34012 1.024,-0.70649 1.2745,-0.45599 0.097,0.097 -0.0394,0.29699 -0.30298,0.44451 -0.46237,0.25876 -0.4623,0.28072 0.002,0.62272 0.45472,0.33479 0.45574,0.36447 0.0185,0.53399 -0.25467,0.0987 -0.46303,0.39786 -0.46303,0.66474 0,0.26689 -0.11906,0.55883 -0.26458,0.64877 -0.14891,0.092 -0.26458,-0.12011 -0.26458,-0.48525 z m 2.18281,0.24923 c 0.26525,-0.20135 0.46302,-0.7007 0.46302,-1.16907 0,-0.50323 -0.17802,-0.91752 -0.46302,-1.07751 -0.43279,-0.24297 -0.43362,-0.27127 -0.0127,-0.43347 0.71978,-0.27735 1.00486,0.089 1.00486,1.29127 0,0.61715 0.14287,1.26497 0.3175,1.43959 0.24694,0.24694 0.0853,0.31563 -0.72761,0.30909 -0.92571,-0.007 -0.9922,-0.0486 -0.58208,-0.3599 z m 2.15358,-0.009 c -0.32145,-0.83771 0.0143,-1.60503 0.73904,-1.68875 0.8583,-0.0992 1.32025,0.58918 0.98725,1.47107 -0.25775,0.68258 -1.48834,0.83776 -1.72629,0.21768 z m 1.35215,-0.6807 c 0,-0.2143 -0.20836,-0.42976 -0.46302,-0.4788 -0.32487,-0.0626 -0.46302,0.0803 -0.46302,0.4788 0,0.3985 0.13815,0.54136 0.46302,0.47879 0.25466,-0.049 0.46302,-0.2645 0.46302,-0.47879 z m 1.0149,0.64367 c -0.18469,-0.48129 0.0903,-0.80451 0.83718,-0.98417 0.47821,-0.11503 0.47184,-0.13024 -0.0661,-0.15798 -0.32743,-0.0169 -0.59532,-0.15766 -0.59532,-0.31285 0,-0.15518 0.32743,-0.24448 0.72761,-0.19843 0.63169,0.0727 0.73843,0.2145 0.80972,1.0759 0.0786,0.95029 0.0476,0.99219 -0.73591,0.99219 -0.49865,0 -0.88015,-0.16189 -0.97714,-0.41466 z m 2.82156,-0.35704 c 0,-0.42444 -0.13529,-0.8168 -0.30063,-0.87191 -0.21383,-0.0713 -0.19546,-0.26862 0.0636,-0.68351 0.41624,-0.66651 0.76615,-0.76005 0.76615,-0.20482 0,0.20816 0.26789,0.43117 0.59532,0.49557 l 0.59531,0.11711 -0.59531,0.19674 c -0.65535,0.21658 -0.83055,1.19335 -0.21406,1.19335 0.2097,0 0.45485,0.11907 0.54479,0.26459 0.0954,0.15436 -0.17365,0.26458 -0.64585,0.26458 -0.71776,0 -0.80936,-0.0873 -0.80936,-0.7717 z m 18.12395,0.24253 c -0.25401,-0.80032 0.0774,-1.51635 0.78387,-1.69367 0.34794,-0.0873 0.68243,-0.36705 0.74332,-0.62161 0.23364,-0.9767398 0.52163,0.43417 0.33824,1.65707 -0.16342,1.08976 -0.24052,1.18738 -0.93777,1.18738 -0.52733,0 -0.81107,-0.16186 -0.92766,-0.52917 z m 1.19063,-0.11065 c 0,-0.0609 0.0723,-0.29898 0.1606,-0.52917 0.11513,-0.30002 0.003,-0.41851 -0.39688,-0.41851 -0.38108,0 -0.55747,0.16743 -0.55747,0.52917 0,0.29398 0.17639,0.52916 0.39687,0.52916 0.21829,0 0.39688,-0.0498 0.39688,-0.11065 z m 1.32577,0.24638 c -0.18728,-0.22565 -0.25536,-0.67698 -0.15965,-1.05833 0.13099,-0.5219 0.3345,-0.6649 0.94628,-0.6649 0.96403,0 1.49092,0.78717 1.0626,1.5875 -0.33373,0.62358 -1.38059,0.70041 -1.84923,0.13573 z m 1.32006,-0.66489 c 0,-0.29104 -0.17156,-0.52917 -0.38126,-0.52917 -0.46741,0 -0.76625,0.43541 -0.54478,0.79375 0.28773,0.46556 0.92604,0.28319 0.92604,-0.26458 z m 1.23473,0.88194 c -0.28,-0.28 -0.20453,-1.94028 0.0882,-1.94028 0.14552,0 0.26458,0.36711 0.26458,0.8158 0,0.97379 0.61436,0.93875 0.75001,-0.0428 0.17114,-1.23832 0.57291,-1.16812 0.57291,0.1001 0,1.18907 -0.0328,1.24354 -0.74965,1.24354 -0.41231,0 -0.82903,-0.0794 -0.92604,-0.17639 z m 2.20486,-1.39435 c 0,-0.89312 0.11728,-1.60426 0.26458,-1.60426 0.14552,0 0.26458,0.24334 0.26458,0.54077 0,0.29742 0.14883,0.52143 0.33073,0.49781 0.88162,-0.11448 1.0227,0.0371 0.94202,1.01194 -0.075,0.90582 -0.15697,0.99941 -0.94202,1.0751 l -0.85989,0.0829 z m 1.41534,0.65317 c 0.16965,-0.44209 -0.22453,-0.78304 -0.62159,-0.53764 -0.39559,0.24449 -0.31906,0.92604 0.10398,0.92604 0.20271,0 0.43564,-0.17478 0.51761,-0.3884 z m 1.23049,0.65299 c 0,-0.14552 0.11906,-0.26459 0.26458,-0.26459 0.14552,0 0.26459,-0.47625 0.26459,-1.05833 0,-0.58208 -0.11907,-1.05833 -0.26459,-1.05833 -0.14552,0 -0.26458,-0.11907 -0.26458,-0.26459 0,-0.14552 0.23812,-0.26458 0.52917,-0.26458 0.45861,0 0.52916,0.17639 0.52916,1.32292 0,0.7276 0.11907,1.32291 0.26459,1.32291 0.14552,0 0.26458,0.11907 0.26458,0.26459 0,0.14552 -0.35719,0.26458 -0.79375,0.26458 -0.43656,0 -0.79375,-0.11906 -0.79375,-0.26458 z m 2.21927,-0.42095 c -0.24579,-0.97932 0.65358,-1.87604 1.45266,-1.44839 0.84304,0.45118 0.73615,1.3328 -0.1662,1.37086 -0.54991,0.0232 -0.59838,0.0618 -0.19844,0.15798 1.01621,0.24443 1.05076,0.60508 0.058,0.60508 -0.82731,0 -0.99982,-0.1032 -1.14598,-0.68553 z M 73.62716,12.445214 c -1.172898,-0.12518 -0.932116,-0.16367 1.241155,-0.19843 1.483001,-0.0237 14.357179,0.0184 14.424632,0.12755 0.146394,0.23687 -13.634054,0.28773 -15.665787,0.0709 z m 95.11622,0.0206 c -0.10328,-0.16712 0.89875,-0.26216 2.76401,-0.26216 1.62077,0 7.28877,0.0705 7.28877,0.20634 0,0.33311 -9.84728,0.38832 -10.05278,0.0558 z m -74.743299,-1.58508 c 0,-0.14552 0.11906,-0.26458 0.26458,-0.26458 0.14552,0 0.26458,0.11906 0.26458,0.26458 0,0.14552 -0.11906,0.26459 -0.26458,0.26459 -0.14552,0 -0.26458,-0.11907 -0.26458,-0.26459 z"
       id="path937"
       sodipodi:nodetypes="sscsssssssssssscssccsscsssssssssssssssscssssscccsscsssssssssssssssssccsssssscscccsssssscsscssccsssssssscscscscssssssssssssssssssssssscsssssssscscscsccssssssssscssssssssssssssssssssssssssssscssssssssssssssssssscsssssscsssssccsssssscssssssssssssssssscccssssssscscsssscccssssscsscsssssssssscsssssssccscscssccssssssssssscssssssssssssscsssssccssssscsscsssssssssssssccssssssssssssssssssssscsssscssssssssssssscsscssssssssssssssssssssssssssscssssssssssssssssssssssscscsssccsssssssssscssssscssssssscssssssssssssssssssssssssssssscssscsscccssssccsssssssssscccssssssscsccsssscssssssssssssssscssscssssssccscsssssscssscssscsssssssssssssssssscsscssssssssssssssssssssssssssssssssssscsssssssssssssscssssssssscssssssssssssssssscssssscccsssssscscccccssssccsssssssssssssscssscssssssssssssssssssssssscsssssscssssssssscssssssscccsssssssssssssssssssssssssssscssssscsssccsssssscsssssssssssssssssssssscsscssssssssssssssssssssssssssssssssssssssssscssssssssssssssssssssssssssssssssssssss" />
  </g>
</svg>
