<?xml version="1.0" encoding="UTF-8" standalone="no"?>
<svg
   viewBox="0 0 2302.3191 1315.0212"
   version="1.1"
   id="mapa-smichoff"
   inkscape:version="1.1.2 (0a00cf5339, 2022-02-04)"
   sodipodi:docname="smichoff-map.svg"
   width="2302.3191"
   height="1315.0212"
   xmlns:inkscape="http://www.inkscape.org/namespaces/inkscape"
   xmlns:sodipodi="http://sodipodi.sourceforge.net/DTD/sodipodi-0.dtd"
   xmlns="http://www.w3.org/2000/svg"
   xmlns:svg="http://www.w3.org/2000/svg">
  <sodipodi:namedview
     id="namedview7"
     pagecolor="#ffffff"
     bordercolor="#666666"
     borderopacity="1.0"
     inkscape:pageshadow="2"
     inkscape:pageopacity="0.0"
     inkscape:pagecheckerboard="0"
     inkscape:document-units="mm"
     showgrid="false"
     inkscape:zoom="0.95681255"
     inkscape:cx="981.90602"
     inkscape:cy="995.49279"
     inkscape:window-width="3840"
     inkscape:window-height="2160"
     inkscape:window-x="1920"
     inkscape:window-y="0"
     inkscape:window-maximized="1"
     inkscape:current-layer="layer2"
     fit-margin-top="0"
     fit-margin-left="0"
     fit-margin-right="0"
     fit-margin-bottom="0" />
  <defs
     id="defs2">
    <g
       id="g3273">
      <symbol
         overflow="visible"
         id="symbol7530">
        <path
           style="stroke:none;"
           d=""
           id="path5445" />
      </symbol>
      <symbol
         overflow="visible"
         id="symbol6546">
        <path
           style="stroke:none;"
           d="M 2.9375 -6.375 C 2.9375 -6.625 2.9375 -6.640625 2.703125 -6.640625 C 2.078125 -6 1.203125 -6 0.890625 -6 L 0.890625 -5.6875 C 1.09375 -5.6875 1.671875 -5.6875 2.1875 -5.953125 L 2.1875 -0.78125 C 2.1875 -0.421875 2.15625 -0.3125 1.265625 -0.3125 L 0.953125 -0.3125 L 0.953125 0 C 1.296875 -0.03125 2.15625 -0.03125 2.5625 -0.03125 C 2.953125 -0.03125 3.828125 -0.03125 4.171875 0 L 4.171875 -0.3125 L 3.859375 -0.3125 C 2.953125 -0.3125 2.9375 -0.421875 2.9375 -0.78125 Z M 2.9375 -6.375 "
           id="path9362" />
      </symbol>
      <symbol
         overflow="visible"
         id="symbol4646">
        <path
           style="stroke:none;"
           d="M 1.265625 -0.765625 L 2.328125 -1.796875 C 3.875 -3.171875 4.46875 -3.703125 4.46875 -4.703125 C 4.46875 -5.84375 3.578125 -6.640625 2.359375 -6.640625 C 1.234375 -6.640625 0.5 -5.71875 0.5 -4.828125 C 0.5 -4.28125 1 -4.28125 1.03125 -4.28125 C 1.203125 -4.28125 1.546875 -4.390625 1.546875 -4.8125 C 1.546875 -5.0625 1.359375 -5.328125 1.015625 -5.328125 C 0.9375 -5.328125 0.921875 -5.328125 0.890625 -5.3125 C 1.109375 -5.96875 1.65625 -6.328125 2.234375 -6.328125 C 3.140625 -6.328125 3.5625 -5.515625 3.5625 -4.703125 C 3.5625 -3.90625 3.078125 -3.125 2.515625 -2.5 L 0.609375 -0.375 C 0.5 -0.265625 0.5 -0.234375 0.5 0 L 4.203125 0 L 4.46875 -1.734375 L 4.234375 -1.734375 C 4.171875 -1.4375 4.109375 -1 4 -0.84375 C 3.9375 -0.765625 3.28125 -0.765625 3.0625 -0.765625 Z M 1.265625 -0.765625 "
           id="path2873" />
      </symbol>
      <symbol
         overflow="visible"
         id="symbol7593">
        <path
           style="stroke:none;"
           d="M 2.890625 -3.515625 C 3.703125 -3.78125 4.28125 -4.46875 4.28125 -5.265625 C 4.28125 -6.078125 3.40625 -6.640625 2.453125 -6.640625 C 1.453125 -6.640625 0.6875 -6.046875 0.6875 -5.28125 C 0.6875 -4.953125 0.90625 -4.765625 1.203125 -4.765625 C 1.5 -4.765625 1.703125 -4.984375 1.703125 -5.28125 C 1.703125 -5.765625 1.234375 -5.765625 1.09375 -5.765625 C 1.390625 -6.265625 2.046875 -6.390625 2.40625 -6.390625 C 2.828125 -6.390625 3.375 -6.171875 3.375 -5.28125 C 3.375 -5.15625 3.34375 -4.578125 3.09375 -4.140625 C 2.796875 -3.65625 2.453125 -3.625 2.203125 -3.625 C 2.125 -3.609375 1.890625 -3.59375 1.8125 -3.59375 C 1.734375 -3.578125 1.671875 -3.5625 1.671875 -3.46875 C 1.671875 -3.359375 1.734375 -3.359375 1.90625 -3.359375 L 2.34375 -3.359375 C 3.15625 -3.359375 3.53125 -2.6875 3.53125 -1.703125 C 3.53125 -0.34375 2.84375 -0.0625 2.40625 -0.0625 C 1.96875 -0.0625 1.21875 -0.234375 0.875 -0.8125 C 1.21875 -0.765625 1.53125 -0.984375 1.53125 -1.359375 C 1.53125 -1.71875 1.265625 -1.921875 0.984375 -1.921875 C 0.734375 -1.921875 0.421875 -1.78125 0.421875 -1.34375 C 0.421875 -0.4375 1.34375 0.21875 2.4375 0.21875 C 3.65625 0.21875 4.5625 -0.6875 4.5625 -1.703125 C 4.5625 -2.515625 3.921875 -3.296875 2.890625 -3.515625 Z M 2.890625 -3.515625 "
           id="path457" />
      </symbol>
      <symbol
         overflow="visible"
         id="symbol6662">
        <path
           style="stroke:none;"
           d="M 2.9375 -1.640625 L 2.9375 -0.78125 C 2.9375 -0.421875 2.90625 -0.3125 2.171875 -0.3125 L 1.96875 -0.3125 L 1.96875 0 C 2.375 -0.03125 2.890625 -0.03125 3.3125 -0.03125 C 3.734375 -0.03125 4.25 -0.03125 4.671875 0 L 4.671875 -0.3125 L 4.453125 -0.3125 C 3.71875 -0.3125 3.703125 -0.421875 3.703125 -0.78125 L 3.703125 -1.640625 L 4.6875 -1.640625 L 4.6875 -1.953125 L 3.703125 -1.953125 L 3.703125 -6.484375 C 3.703125 -6.6875 3.703125 -6.75 3.53125 -6.75 C 3.453125 -6.75 3.421875 -6.75 3.34375 -6.625 L 0.28125 -1.953125 L 0.28125 -1.640625 Z M 2.984375 -1.953125 L 0.5625 -1.953125 L 2.984375 -5.671875 Z M 2.984375 -1.953125 "
           id="path1257" />
      </symbol>
      <symbol
         overflow="visible"
         id="symbol3926">
        <path
           style="stroke:none;"
           d="M 4.46875 -2 C 4.46875 -3.1875 3.65625 -4.1875 2.578125 -4.1875 C 2.109375 -4.1875 1.671875 -4.03125 1.3125 -3.671875 L 1.3125 -5.625 C 1.515625 -5.5625 1.84375 -5.5 2.15625 -5.5 C 3.390625 -5.5 4.09375 -6.40625 4.09375 -6.53125 C 4.09375 -6.59375 4.0625 -6.640625 3.984375 -6.640625 C 3.984375 -6.640625 3.953125 -6.640625 3.90625 -6.609375 C 3.703125 -6.515625 3.21875 -6.3125 2.546875 -6.3125 C 2.15625 -6.3125 1.6875 -6.390625 1.21875 -6.59375 C 1.140625 -6.625 1.125 -6.625 1.109375 -6.625 C 1 -6.625 1 -6.546875 1 -6.390625 L 1 -3.4375 C 1 -3.265625 1 -3.1875 1.140625 -3.1875 C 1.21875 -3.1875 1.234375 -3.203125 1.28125 -3.265625 C 1.390625 -3.421875 1.75 -3.96875 2.5625 -3.96875 C 3.078125 -3.96875 3.328125 -3.515625 3.40625 -3.328125 C 3.5625 -2.953125 3.59375 -2.578125 3.59375 -2.078125 C 3.59375 -1.71875 3.59375 -1.125 3.34375 -0.703125 C 3.109375 -0.3125 2.734375 -0.0625 2.28125 -0.0625 C 1.5625 -0.0625 0.984375 -0.59375 0.8125 -1.171875 C 0.84375 -1.171875 0.875 -1.15625 0.984375 -1.15625 C 1.3125 -1.15625 1.484375 -1.40625 1.484375 -1.640625 C 1.484375 -1.890625 1.3125 -2.140625 0.984375 -2.140625 C 0.84375 -2.140625 0.5 -2.0625 0.5 -1.609375 C 0.5 -0.75 1.1875 0.21875 2.296875 0.21875 C 3.453125 0.21875 4.46875 -0.734375 4.46875 -2 Z M 4.46875 -2 "
           id="path8600" />
      </symbol>
    </g>
  </defs>
  <g
     inkscape:groupmode="layer"
     id="layer2"
     inkscape:label="Terrain Types"
     style="display:inline"
     transform="translate(1055.15,489.425)">
    <path
       id="path13717"
       style="fill:#aa7700;fill-opacity:1;stroke:none;stroke-width:6.84866px;stroke-linecap:butt;stroke-linejoin:miter;stroke-opacity:1"
       d="M 3.7050781,3.7851562 V 860.4707 H 67.458984 V 76.029297 H 248.87109 V 248.71094 466.54102 l 0.14649,196.36328 h 73.59375 L 322.33008,466.54102 V 248.71094 L 322.61133,3.7851562 Z"
       transform="translate(-1055.1538,-489.42535)" />
    <path
       id="path10175"
       style="fill:#ff0000;fill-opacity:1;stroke:none;stroke-width:6.84866px;stroke-linecap:butt;stroke-linejoin:miter;stroke-opacity:1"
       d="M 1948.8262,3.7050781 1779.7969,127.46094 H 1512.9141 L 1107.7695,14.65625 982.74219,283.17773 l -26.82617,173.5 -37.00196,163.74219 69.33985,65.90235 48.29689,-206.77539 85.1719,18.08984 73.9101,-36.0332 18.3945,-77.41016 -60.6289,-64.75781 -86.0214,-21.13672 81.5546,-199.056642 348.6407,104.619142 297.9609,-0.5625 186.7891,-123.708986 h 237.0273 L 2297.541,3.7050781 Z"
       transform="translate(-1055.1538,-489.42535)" />
    <path
       id="path12602"
       style="fill:#2b93ff;fill-opacity:1;stroke:none;stroke-width:6.84866px;stroke-linecap:butt;stroke-linejoin:miter;stroke-opacity:1"
       d="M 672.3457,3.7890625 546.00195,178.72852 l -75.82617,-10.55079 -103.53125,84.7793 7.50391,201.55469 85.56836,37.31836 -36.89258,131.5039 76.72656,10.94141 60.35352,-202.41016 -55.24414,-7.98632 -61.35743,-28.03711 -5.44335,-104.6543 58.77539,-51.55273 84.72656,11.74414 -0.002,-0.004 126.30078,-186.421875 199.10351,0.197266 31.51758,-0.203125 -10.73437,23.041015 -82.15235,175.339839 74.44336,21.81446 87.71096,-204.855471 32.0157,-76.4980465 H 929.33398 Z M 499.55078,634.27539 422.82227,623.33594 v 243.7832 l -173.85352,-0.0547 -0.0977,74.42188 h 496.3418 l -0.006,-74.42383 -245.6582,-0.0801 z M 751.45312,510.86523 V 686.32227 H 988.25391 L 918.91406,620.41992 H 814.38477 v -109.2793 z"
       transform="translate(-1055.1538,-489.42535)" />
    <path
       style="fill:#008000;fill-opacity:1;stroke:none;stroke-width:6.84866px;stroke-linecap:butt;stroke-linejoin:miter;stroke-opacity:1"
       d="m 1164.1962,-409.83511 78.1918,-75.88466 1.0717,724.26459 -79.2635,0.11715 z"
       id="path12670" />
    <path
       id="path12738"
       style="fill:#008080;fill-opacity:1;stroke:none;stroke-width:6.84866px;stroke-linecap:butt;stroke-linejoin:miter;stroke-opacity:1"
       d="m 1300.5527,835.08789 v 299.18941 h -173.2656 v 0 l -139.13672,-55.3476 -162.7832,1.8398 -81.16016,53.5117 -0.002,93.5372 H 506.02148 l -92.96093,-109.1758 -166.64258,1.6426 v 66.9062 h 124.85156 l 98.0957,124.1231 h 348.35938 v -122.8282 l 48.91992,-39.4218 h 99.51172 l 152.40625,64.9667 v 0 h 258.3047 l -0.291,-309.42188 160.5156,154.21488 h 682.2578 v -79.98636 h -647.291 L 1417.6602,835.09375 Z"
       transform="translate(-1055.1538,-489.42535)" />
    <path
       id="path14115"
       style="fill:#008000;fill-opacity:1;stroke:none;stroke-width:6.84866px;stroke-linecap:butt;stroke-linejoin:miter;stroke-opacity:1"
       d="m 1948.8613,389.9707 -159.3554,41.74805 -241.2149,-3.28906 -184.9668,-36.48438 11.2578,88.55469 13.2481,97.00586 c 0,0 144.5301,16.47856 144.5351,16.47656 0,-0.002 253.043,-14.56836 253.043,-14.56836 l 163.4512,-107.48633 v -39.10156 z"
       transform="translate(-1055.1538,-489.42535)" />
  </g>
  <g
     inkscape:label="Layer 1"
     inkscape:groupmode="layer"
     id="layer1"
     transform="translate(1012.718,458.96982)"
     style="display:inline">
    <path
       id="path877"
       style="fill:#cccccc;stroke:none;stroke-width:6.84866px;stroke-linecap:butt;stroke-linejoin:miter;stroke-opacity:1"
       d="m -945.26139,661.13214 345.60325,-1.45802 92.96521,109.17732 h 238.17823 v -93.54045 l 81.15396,-53.51852 162.789433,-1.83256 139.140207,55.35108 H 287.83201 V 376.12353 h 117.10943 l 154.40252,143.74163 h 647.29214 v -899.2479 H 969.6082 l -186.79989,123.71729 -297.9569,0.56159 -348.63965,-104.62933 -81.555291,199.06593 86.022951,21.13456 60.63468,64.754637 L 182.90833,2.6305039 109.00436,38.666242 23.837494,20.58153 -24.464264,227.35219 H -261.26471 V 51.895394 h 37.97528 l 55.96636,-247.541644 92.884948,-198.37038 H -305.05875 l -126.29951,186.42091 6e-4,0.004 -84.72542,-11.74436 -58.77543,51.5522 5.44416,104.656104 61.35704,28.036706 55.24407,7.985677 -60.35381,202.409993 v 232.70757 l 245.65561,0.0802 v 74.42562 H -763.85212 V -382.94094 H -945.26139 Z M 350.6069,-67.019626 535.57431,-30.542493 776.78895,-27.251917 936.14072,-68.9993 V 12.957188 L 772.69578,120.44912 519.6431,135.01587 375.1123,118.53628 Z"
       sodipodi:nodetypes="ccccccccccccccccccccccccccccccccccccccccccccccccccccccc" />
    <path
       d="M 1206.6319,519.86699 V 269.11739"
       id="path859"
       sodipodi:nodetypes="cc"
       style="fill:none;stroke:#000000;stroke-width:7.41114;stroke-linecap:butt;stroke-linejoin:round;stroke-miterlimit:4;stroke-dasharray:none;stroke-opacity:1" />
    <path
       style="fill:none;stroke:#000000;stroke-width:7.41114;stroke-linecap:butt;stroke-linejoin:round;stroke-miterlimit:4;stroke-dasharray:none;stroke-opacity:1"
       d="m -223.28991,51.898056 55.96547,-247.540396"
       id="path1373"
       sodipodi:nodetypes="cc" />
    <path
       style="fill:none;stroke:#000000;stroke-width:7.41114;stroke-linecap:butt;stroke-linejoin:round;stroke-miterlimit:4;stroke-dasharray:none;stroke-opacity:1"
       d="m -945.25902,401.50083 10e-6,259.62871 178.95801,0.1856"
       id="path1379"
       sodipodi:nodetypes="ccc" />
    <path
       style="display:inline;fill:none;stroke:#000000;stroke-width:7.41114;stroke-linecap:butt;stroke-linejoin:round;stroke-miterlimit:4;stroke-dasharray:none;stroke-opacity:1"
       d="m -763.75035,408.09603 0.05,-204.16168"
       id="path1379-7"
       sodipodi:nodetypes="cc" />
    <path
       style="fill:none;stroke:none;stroke-width:6.85942;stroke-linecap:butt;stroke-linejoin:round;stroke-miterlimit:4;stroke-dasharray:none;stroke-opacity:1"
       d="m 1206.6319,-379.37979 78.1918,-75.88448 H 936.10859 l 33.49386,75.88461 z"
       id="path6018" />
  </g>
  <g
     inkscape:groupmode="layer"
     id="layer3"
     inkscape:label="Zones"
     style="display:inline"
     transform="translate(1055.1538,489.42535)">
    <a
       href="zones/1/"
       style="display:inline;fill:#808080;stroke:#000000;stroke-width:1.88976;stroke-linejoin:round;stroke-miterlimit:4;stroke-dasharray:none;stroke-opacity:1"
       id="1"
       transform="translate(-0.0038,-0.00235)">
      <path
         id="path5049-7"
         style="display:inline;fill:#808080;stroke:#000000;stroke-width:7.41111;stroke-linejoin:round;stroke-miterlimit:4;stroke-dasharray:none;stroke-opacity:1"
         class="zone"
         d="m 1300.5527,835.08789 v 299.18941 h -173.2695 l -139.13672,-55.3476 -162.7832,1.8398 -81.16016,53.5078 0.0254,0.02 -0.0254,-0.016 -0.002,93.5372 H 506.02539 l -92.97266,-109.1797 -166.63476,1.6465 v 66.9062 h 124.85156 l 98.0957,124.125 h 348.35938 l -0.43359,-123.1523 0.43359,0.3203 48.91992,-39.4219 h 99.51172 l 152.40625,64.9687 h 258.3047 l -0.291,-309.04487 160.5156,153.83787 h 682.2578 V 978.83594 H 1572.0605 L 1417.6523,835.08789 Z"
         transform="translate(-1055.1538,-489.42535)" />
    </a>
    <path
       id="path1411"
       style="display:inline;fill:#008080;stroke-width:1.28103;stroke-linecap:round;stop-color:#000000"
       d="m 1560.2031,1158.1074 a 54.585874,54.585874 0 0 0 -54.5859,54.586 54.585874,54.585874 0 0 0 54.5859,54.5859 54.585874,54.585874 0 0 0 54.586,-54.5859 54.585874,54.585874 0 0 0 -54.586,-54.586 z m 1.6856,22.0156 c 2.2991,0 2.2988,0.1531 2.2988,2.6055 v 54.8731 c 0,3.5253 0.153,4.5976 9.043,4.5976 h 3.0664 v 3.0645 c -3.3721,-0.3066 -11.9553,-0.3067 -15.7871,-0.3067 -3.9852,0 -12.4151,10e-5 -15.7871,0.3067 v -3.0645 h 3.0644 c 8.7367,0 9.043,-1.0723 9.043,-4.5976 v -50.7344 c -5.0581,2.6057 -10.7282,2.6055 -12.7207,2.6055 v -3.0665 c 3.0655,0 11.6483,0 17.7793,-6.2832 z"
       transform="translate(-1055.1538,-489.42535)" />
    <a
       href="zones/2/"
       style="display:inline;fill:#808080;stroke:#000000;stroke-width:1.88976;stroke-linejoin:round;stroke-miterlimit:4;stroke-dasharray:none;stroke-opacity:1"
       id="2">
      <path
         id="path4036"
         style="fill:#808080;stroke:#000000;stroke-width:7.41113;stroke-linecap:butt;stroke-linejoin:round;stroke-miterlimit:4;stroke-dasharray:none;stroke-opacity:1"
         class="zone"
         d="M 1948.8262,3.7050781 1779.7969,127.46094 H 1512.9141 L 1107.7695,14.65625 982.74219,283.17773 l -26.82617,173.5 -37.00196,163.74219 69.34571,65.90235 48.29103,-206.77539 85.1758,18.08789 73.9062,-36.03125 18.3945,-77.41016 -60.6289,-64.75781 -86.0214,-21.13672 81.5546,-199.056642 348.6407,104.619142 297.9609,-0.5625 186.7871,-123.708986 h 237.0293 L 2297.541,3.7050781 Z"
         transform="translate(-1055.1538,-489.42535)" />
    </a>
    <a
       href="zones/3/"
       style="display:inline;fill:#808080;stroke:#000000;stroke-width:1.88976;stroke-linejoin:round;stroke-miterlimit:4;stroke-dasharray:none;stroke-opacity:1"
       id="3">
      <path
         id="path857"
         style="fill:#808080;stroke:#000000;stroke-width:7.41113;stroke-linejoin:round;stroke-miterlimit:4;stroke-dasharray:none;stroke-opacity:1"
         class="zone"
         d="M 2297.541,3.7050781 2219.3496,79.589844 V 728.08789 l 79.2637,-0.11719 z M 1948.8613,389.9707 l -159.3554,41.74805 -241.2149,-3.28906 -184.9668,-36.48438 24.502,185.56055 144.539,16.47656 253.043,-14.56836 163.4531,-107.48047 z"
         transform="translate(-1055.1538,-489.42535)" />
    </a>
    <a
       href="zones/4/"
       style="display:inline;fill:#808080;stroke:#000000;stroke-width:1.88976;stroke-linejoin:round;stroke-miterlimit:4;stroke-dasharray:none;stroke-opacity:1"
       id="4">
      <path
         id="path5049"
         style="fill:#808080;stroke:#000000;stroke-width:7.41111;stroke-linejoin:round;stroke-miterlimit:4;stroke-dasharray:none;stroke-opacity:1"
         class="zone"
         d="M 672.3457,3.7890625 546.00195,178.72852 l -75.81836,-10.55079 -103.5332,84.78321 7.49609,201.55859 85.57032,37.31836 -36.89649,131.49805 V 867.06641 H 248.9668 l -0.0996,74.41992 H 745.21094 V 867.06641 H 499.55273 l -0.004,-0.084 V 634.27734 l 60.35351,-202.41796 -55.24218,-7.97852 -61.34961,-28.03516 -5.44532,-104.66015 58.76954,-51.55078 84.72461,11.73828 L 707.66602,64.947266 H 938.28125 L 845.39453,263.32812 919.83789,285.14258 1039.5645,3.7890625 Z M 751.44922,510.86719 v 175.45508 h 236.81055 c 0,0 -69.34574,-65.90232 -69.34571,-65.90235 H 814.38477 v -109.2793 l -24.95704,-0.27343 z"
         transform="translate(-1055.1538,-489.42535)" />
    </a>
    <a
       href="zones/5/"
       style="display:inline;fill:#808080;stroke:#000000;stroke-width:1.88976;stroke-linejoin:round;stroke-miterlimit:4;stroke-dasharray:none;stroke-opacity:1"
       id="5">
      <path
         d="m -987.6948,-413.39534 v 784.44063 h -63.7534 v -856.68474 h 318.9049 v 659.11826 h -73.59291 l -0.14674,-586.87415 z"
         id="path5164"
         class="zone"
         style="fill:#808080;stroke:#000000;stroke-width:7.41113;stroke-linejoin:round;stroke-miterlimit:4;stroke-dasharray:none;stroke-opacity:1"
         sodipodi:nodetypes="ccccccccc" />
    </a>
    <path
       id="path881-7"
       style="display:inline;fill:#ff0000;stroke-width:1.28103;stroke-linecap:round;stop-color:#000000"
       d="m 1718.666,1158.1074 a 54.585874,54.585874 0 0 0 -54.5859,54.586 54.585874,54.585874 0 0 0 54.5859,54.5859 54.585874,54.585874 0 0 0 54.586,-54.5859 54.585874,54.585874 0 0 0 -54.586,-54.586 z m -1.2265,22.0156 c 11.9554,0 20.6914,7.8169 20.6914,19.0059 0,9.8096 -5.8239,15.0216 -20.9981,28.5098 l -10.4219,10.1152 h 17.625 c 2.1459,0 8.5842,8e-4 9.1973,-0.7656 1.0729,-1.5328 1.6857,-5.8261 2.2988,-8.7383 h 2.2989 l -2.6055,17.0137 h -36.3262 c 0,-2.2991 0,-2.6048 1.0742,-3.6778 l 18.6993,-20.8457 c 5.5178,-6.1309 10.2695,-13.7943 10.2695,-21.6113 0,-7.9703 -4.1394,-15.9414 -13.0293,-15.9414 -5.6712,0 -11.0358,3.5254 -13.1817,9.9629 0.3066,-0.1533 0.4602,-0.1524 1.2266,-0.1524 3.3721,0 5.211,2.6063 5.211,5.0586 -1e-4,4.1385 -3.3726,5.211 -5.0586,5.211 -0.3066,0 -5.211,-6e-4 -5.211,-5.3653 0,-8.7366 7.2045,-17.7793 18.2403,-17.7793 z"
       transform="translate(-1055.1538,-489.42535)" />
    <path
       id="path881"
       style="fill:#008000;stroke-width:1.28103;stroke-linecap:round;stop-color:#000000"
       d="m 1877.1289,1158.1074 a 54.585874,54.585874 0 0 0 -54.5859,54.586 54.585874,54.585874 0 0 0 54.5859,54.5859 54.585874,54.585874 0 0 0 54.5859,-54.5859 54.585874,54.585874 0 0 0 -54.5859,-54.586 z m -0.3848,20.9414 c 9.3498,0 17.9336,5.518 17.9336,13.4883 0,7.817 -5.6703,14.5623 -13.6406,17.168 10.1161,2.1458 16.4004,9.809 16.4004,17.7793 0,9.9628 -8.8903,18.8535 -20.8457,18.8535 -10.7292,0 -19.7734,-6.4382 -19.7734,-15.3281 0,-4.2917 3.0671,-5.6719 5.5195,-5.6719 2.7589,0 5.3633,1.9942 5.3633,5.5195 0,3.6786 -3.0655,5.8231 -6.4375,5.3633 3.372,5.6712 10.7298,7.3574 15.0215,7.3574 4.2916,0 11.0351,-2.7588 11.0351,-16.0937 0,-9.6563 -3.6781,-16.2461 -11.6484,-16.2461 h -4.291 c -1.6861,0 -2.2989,0 -2.2989,-1.0742 0,-0.9197 0.6126,-1.0733 1.3789,-1.2266 0.7664,0 3.0657,-0.1534 3.8321,-0.3066 2.4524,0 5.8241,-0.3052 8.7363,-5.0567 2.4524,-4.2917 2.7598,-9.9632 2.7598,-11.1894 0,-8.7367 -5.3655,-10.8828 -9.5039,-10.8828 -3.5254,0 -9.9628,1.226 -12.875,6.1308 1.3794,0 5.9785,5e-4 5.9785,4.752 0,2.9122 -1.9941,5.0586 -4.9063,5.0586 -2.9122,0 -5.0566,-1.8399 -5.0566,-5.0586 0,-7.5105 7.5088,-13.336 17.3183,-13.336 z"
       transform="translate(-1055.1538,-489.42535)" />
    <path
       id="path881-3"
       style="display:inline;fill:#2b93ff;stroke-width:1.28103;stroke-linecap:round;stop-color:#000000;fill-opacity:1"
       d="m 2035.5898,1158.1074 a 54.585874,54.585874 0 0 0 -54.5839,54.586 54.585874,54.585874 0 0 0 54.5839,54.5859 54.585874,54.585874 0 0 0 54.586,-54.5859 54.585874,54.585874 0 0 0 -54.586,-54.586 z m 5.7969,21.4785 c 1.686,0 1.6856,0.6129 1.6856,2.6055 v 44.4492 h 9.6562 v 3.0664 h -9.6562 v 8.4297 c 0,3.5253 0.1535,4.5977 7.3574,4.5977 h 2.1465 v 3.0664 c -4.1384,-0.3066 -9.1956,-0.3067 -13.334,-0.3067 -4.1384,0 -9.1965,1e-4 -13.1817,0.3067 v -3.0664 h 1.9922 c 7.2039,0 7.5098,-1.0724 7.5098,-4.5977 v -8.4297 h -26.0566 v -3.0664 l 30.041,-45.8281 c 0.7663,-1.2262 1.0734,-1.2266 1.8398,-1.2266 z m -5.3633,10.5762 -23.7578,36.4785 h 23.7578 z"
       transform="translate(-1055.1538,-489.42535)" />
    <path
       id="path881-1"
       style="display:inline;fill:#aa7700;stroke-width:1.28103;stroke-linecap:round;stop-color:#000000;fill-opacity:1"
       d="m 2194.0527,1158.1074 a 54.585874,54.585874 0 0 0 -54.5859,54.586 54.585874,54.585874 0 0 0 54.5859,54.5859 54.585874,54.585874 0 0 0 54.586,-54.5859 54.585874,54.585874 0 0 0 -54.586,-54.586 z m 14.7149,21.6875 c 0.7664,0 1.0722,0.4612 1.0722,1.0742 0,1.2262 -6.8971,10.1153 -19.0058,10.1153 -3.0655,0 -6.2829,-0.6135 -8.2754,-1.2266 v 19.1602 c 3.5253,-3.5253 7.8159,-5.0586 12.4141,-5.0586 10.5759,0 18.5468,9.8101 18.5468,21.459 0,12.4152 -9.9624,21.7636 -21.3047,21.7636 -10.8825,0 -17.6269,-9.5015 -17.6269,-17.9316 0,-4.445 3.3724,-5.2109 4.7519,-5.2109 3.2188,0 4.9043,2.4519 4.9043,4.9043 0,2.2991 -1.6855,4.7519 -4.9043,4.7519 -1.0729,0 -1.381,-0.1543 -1.6875,-0.1543 1.686,5.6712 7.3576,10.8828 14.4082,10.8828 4.4449,0 8.1247,-2.4533 10.4239,-6.2851 2.4523,-4.1385 2.4511,-9.963 2.4511,-13.4883 0,-4.9048 -0.307,-8.5831 -1.8398,-12.2617 -0.7663,-1.8393 -3.2173,-6.2832 -8.2754,-6.2832 -7.9703,0 -11.4954,5.3637 -12.5683,6.8964 -0.4598,0.6131 -0.6145,0.7676 -1.3809,0.7676 -1.3794,0 -1.3789,-0.7671 -1.3789,-2.4531 v -28.9688 c 0,-1.5327 -6e-4,-2.2988 1.0723,-2.2988 0.1533,0 0.3078,10e-5 1.0742,0.3067 4.5983,1.9925 9.1955,2.7578 13.0273,2.7578 6.5909,0 11.3435,-1.9925 13.336,-2.9121 0.4599,-0.3066 0.7656,-0.3067 0.7656,-0.3067 z"
       transform="translate(-1055.1538,-489.42535)" />
    <circle
       style="fill:none;stroke:#000000;stroke-width:7.93701;stroke-linecap:round;stroke-miterlimit:4;stroke-dasharray:none;stroke-opacity:1;stop-color:#000000"
       id="path2391"
       cx="504.99078"
       cy="723.61542"
       r="54.189583" />
    <circle
       style="display:inline;fill:none;stroke:#000000;stroke-width:7.93701;stroke-linecap:round;stroke-miterlimit:4;stroke-dasharray:none;stroke-opacity:1;stop-color:#000000"
       id="path2391-0"
       cx="663.51227"
       cy="723.26801"
       r="54.189583" />
    <circle
       style="display:inline;fill:none;stroke:#000000;stroke-width:7.93701;stroke-linecap:round;stroke-miterlimit:4;stroke-dasharray:none;stroke-opacity:1;stop-color:#000000"
       id="path2391-0-9"
       cx="821.9751"
       cy="723.26801"
       r="54.189583" />
    <circle
       style="display:inline;fill:none;stroke:#000000;stroke-width:7.93701;stroke-linecap:round;stroke-miterlimit:4;stroke-dasharray:none;stroke-opacity:1;stop-color:#000000"
       id="path2391-0-9-2"
       cx="980.43707"
       cy="723.26801"
       r="54.189583" />
    <circle
       style="display:inline;fill:none;stroke:#000000;stroke-width:7.93701;stroke-linecap:round;stroke-miterlimit:4;stroke-dasharray:none;stroke-opacity:1;stop-color:#000000"
       id="path2391-0-9-2-5"
       cx="1138.8989"
       cy="723.26801"
       r="54.189583" />
  </g>
</svg>
