<?xml version="1.0" encoding="UTF-8" standalone="no"?>
<svg
   viewBox="0 0 2302.3191 1315.0212"
   version="1.1"
   id="mapa-smichoff"
   inkscape:version="1.1.1 (3bf5ae0d25, 2021-09-20, custom)"
   sodipodi:docname="smichoff-map.svg"
   width="2302.3191"
   height="1315.0212"
   xmlns:inkscape="http://www.inkscape.org/namespaces/inkscape"
   xmlns:sodipodi="http://sodipodi.sourceforge.net/DTD/sodipodi-0.dtd"
   xmlns="http://www.w3.org/2000/svg"
   xmlns:svg="http://www.w3.org/2000/svg">
  <sodipodi:namedview
     id="namedview7"
     pagecolor="#ffffff"
     bordercolor="#666666"
     borderopacity="1.0"
     inkscape:pageshadow="2"
     inkscape:pageopacity="0.0"
     inkscape:pagecheckerboard="0"
     inkscape:document-units="mm"
     showgrid="false"
     inkscape:zoom="0.47840628"
     inkscape:cx="1015.873"
     inkscape:cy="582.14119"
     inkscape:window-width="1914"
     inkscape:window-height="1046"
     inkscape:window-x="0"
     inkscape:window-y="0"
     inkscape:window-maximized="1"
     inkscape:current-layer="layer3"
     fit-margin-top="0"
     fit-margin-left="0"
     fit-margin-right="0"
     fit-margin-bottom="0" />
  <defs
     id="defs2" />
  <g
     inkscape:label="Layer 1"
     inkscape:groupmode="layer"
     id="layer1"
     transform="translate(1012.718,458.96982)"
     style="display:inline">
    <path
       id="path877"
       style="fill:#cccccc;stroke:none;stroke-width:6.84866px;stroke-linecap:butt;stroke-linejoin:miter;stroke-opacity:1"
       d="m -945.26139,661.13214 345.60325,-1.45802 92.96521,109.17732 h 238.17823 v -93.54045 l 81.15396,-53.51852 162.789433,-1.83256 139.140207,55.35108 H 287.83201 V 376.12353 h 117.10943 l 154.40252,143.74163 h 647.29214 v -899.2479 H 969.6082 l -186.79989,123.71729 -297.9569,0.56159 -348.63965,-104.62933 -81.555291,199.06593 86.022951,21.13456 60.63468,64.754637 L 182.90833,2.6305039 109.00436,38.666242 23.837494,20.58153 -24.464264,227.35219 H -261.26471 V 51.895394 h 37.97528 l 55.96636,-247.541644 92.884948,-198.37038 H -305.05875 l -126.29951,186.42091 6e-4,0.004 -84.72542,-11.74436 -58.77543,51.5522 5.44416,104.656104 61.35704,28.036706 55.24407,7.985677 -60.35381,202.409993 v 232.70757 l 245.65561,0.0802 v 74.42562 H -763.85212 V -382.94094 H -945.26139 Z M 350.6069,-67.019626 535.57431,-30.542493 776.78895,-27.251917 936.14072,-68.9993 V 12.957188 L 772.69578,120.44912 519.6431,135.01587 375.1123,118.53628 Z"
       sodipodi:nodetypes="ccccccccccccccccccccccccccccccccccccccccccccccccccccccc" />
    <path
       d="M 1206.6319,519.86699 V 269.11739"
       id="path859"
       sodipodi:nodetypes="cc"
       style="fill:none;stroke:#000000;stroke-width:7.41114;stroke-linecap:butt;stroke-linejoin:round;stroke-miterlimit:4;stroke-dasharray:none;stroke-opacity:1" />
    <path
       style="fill:none;stroke:#000000;stroke-width:7.41114;stroke-linecap:butt;stroke-linejoin:round;stroke-miterlimit:4;stroke-dasharray:none;stroke-opacity:1"
       d="m -223.28991,51.898056 55.96547,-247.540396"
       id="path1373"
       sodipodi:nodetypes="cc" />
    <path
       style="fill:none;stroke:#000000;stroke-width:7.41114;stroke-linecap:butt;stroke-linejoin:round;stroke-miterlimit:4;stroke-dasharray:none;stroke-opacity:1"
       d="m -945.25902,401.50083 10e-6,259.62871 178.95801,0.1856"
       id="path1379"
       sodipodi:nodetypes="ccc" />
    <path
       style="display:inline;fill:none;stroke:#000000;stroke-width:7.41114;stroke-linecap:butt;stroke-linejoin:round;stroke-miterlimit:4;stroke-dasharray:none;stroke-opacity:1"
       d="m -763.75035,408.09603 0.05,-204.16168"
       id="path1379-7"
       sodipodi:nodetypes="cc" />
    <path
       style="fill:none;stroke:none;stroke-width:6.85942;stroke-linecap:butt;stroke-linejoin:round;stroke-miterlimit:4;stroke-dasharray:none;stroke-opacity:1"
       d="m 1206.6319,-379.37979 78.1918,-75.88448 H 936.10859 l 33.49386,75.88461 z"
       id="path6018" />
  </g>
  <g
     inkscape:groupmode="layer"
     id="layer2"
     inkscape:label="Terrain Types"
     style="display:inline"
     transform="translate(1055.1538,489.42535)">
    <path
       style="fill:#60a3d9;fill-opacity:1;stroke:none;stroke-width:6.84866px;stroke-linecap:butt;stroke-linejoin:miter;stroke-opacity:1"
       d="m -1051.4482,371.04532 v -856.68469 h 318.9049 l -73.73964,72.24407 h -181.41184 l -10e-6,784.44062 z"
       id="path13717" />
    <path
       style="fill:#60a3d9;fill-opacity:1;stroke:none;stroke-width:6.84866px;stroke-linecap:butt;stroke-linejoin:miter;stroke-opacity:1"
       d="m 927.16673,-409.83517 237.02947,-1.3e-4 78.1918,-75.88447 H 893.67287 Z"
       id="path10175" />
    <path
       style="fill:#0074b7;fill-opacity:1;stroke:none;stroke-width:6.84866px;stroke-linecap:butt;stroke-linejoin:miter;stroke-opacity:1"
       d="M 893.67287,-485.71977 724.64312,-361.96536 H 457.7597 l -405.143792,-112.80443 -125.027375,268.52188 84.632192,15.12527 81.556732,-199.06098 348.641113,104.61916 297.96017,-0.56295 186.79374,-123.71091 z"
       id="path12141" />
    <path
       style="fill:#001b61;fill-opacity:1;stroke:none;stroke-width:6.84866px;stroke-linecap:butt;stroke-linejoin:miter;stroke-opacity:1"
       d="m -72.411467,-206.24791 -26.827027,173.499798 80.63456,22.8702812 85.172552,18.0886839 73.909672,-36.0323811 18.39482,-77.409522 -60.629229,-64.75944 -86.020827,-21.13627 z"
       id="path12242" />
    <path
       style="fill:#0074b7;fill-opacity:1;stroke:none;stroke-width:6.84866px;stroke-linecap:butt;stroke-linejoin:miter;stroke-opacity:1"
       d="M -99.238494,-32.748112 -18.603934,-9.8778308 -66.900007,196.89687 -136.23886,130.99549 Z"
       id="path12369" />
    <path
       style="fill:#60a3d9;fill-opacity:1;stroke:none;stroke-width:6.84866px;stroke-linecap:butt;stroke-linejoin:miter;stroke-opacity:1"
       d="M -136.23886,130.99549 H -240.76833 V 21.716071 l -62.93215,-0.276002 V 196.89687 h 236.800473 z"
       id="path12602" />
    <path
       style="fill:#005290;fill-opacity:1;stroke:none;stroke-width:6.84866px;stroke-linecap:butt;stroke-linejoin:miter;stroke-opacity:1"
       d="m 1164.1962,-409.83511 78.1918,-75.88466 1.0717,724.26459 -79.2635,0.11715 z"
       id="path12670" />
    <path
       style="fill:#60a3d9;fill-opacity:1;stroke:none;stroke-width:6.84866px;stroke-linecap:butt;stroke-linejoin:miter;stroke-opacity:1"
       d="M 1164.2003,489.40963 H 516.90824 l -154.40253,-143.74169 -117.10647,-0.006 v 299.18978 l -173.266086,0.003 -8.724714,79.74958 H 321.71366 L 321.4219,415.18291 481.93856,569.39695 h 682.25784 z"
       id="path12738" />
    <path
       style="fill:#0074b7;fill-opacity:1;stroke:none;stroke-width:6.84866px;stroke-linecap:butt;stroke-linejoin:miter;stroke-opacity:1"
       d="m 72.128704,644.85197 -139.135755,-55.34759 -162.782739,1.83922 -81.16068,53.51186 73.52114,54.20537 48.91909,-39.42266 h 99.513029 l 152.405651,64.96687 8.724714,-79.74958 z"
       id="path12806" />
    <path
       style="fill:#60a3d9;fill-opacity:1;stroke:none;stroke-width:6.84866px;stroke-linecap:butt;stroke-linejoin:miter;stroke-opacity:1"
       d="m -310.95047,644.85546 -0.003,93.53745 -238.17836,10e-4 -92.96159,-109.1758 -166.64286,1.641 v 66.90677 h 124.85165 l 98.09668,124.12397 h 348.35911 V 699.06083 Z"
       id="path12874" />
    <path
       style="fill:#60a3d9;fill-opacity:1;stroke:none;stroke-width:6.84866px;stroke-linecap:butt;stroke-linejoin:miter;stroke-opacity:1"
       d="m -309.94721,377.63729 -245.65736,-0.0795 0.002,-232.70819 -76.72976,-10.93828 v 243.78283 l -173.85356,-0.0548 -0.0974,74.42227 h 496.3422 z"
       id="path12942" />
    <path
       id="path13076"
       style="fill:#0074b7;fill-opacity:1;stroke:none;stroke-width:6.84866px;stroke-linecap:butt;stroke-linejoin:miter;stroke-opacity:1"
       d="m -688.50965,-236.46818 7.5041,201.553973 85.56814,37.3197932 -36.89181,131.5023638 76.7264,10.94177 60.35383,-202.409983 -55.24409,-7.985676 -61.35704,-28.036706 -5.44416,-104.656105 58.77543,-51.5522 84.72544,11.74436 -35.35769,-72.64986 -75.82605,-10.55071 z"
       sodipodi:nodetypes="cccccccccccccc" />
    <path
       style="fill:#60a3d9;fill-opacity:1;stroke:none;stroke-width:6.84866px;stroke-linecap:butt;stroke-linejoin:miter;stroke-opacity:1"
       d="m -209.7602,-226.09787 74.44495,21.81552 87.709976,-204.85536 -80.001196,7.70133 z"
       id="path13414" />
    <path
       style="fill:#0074b7;fill-opacity:1;stroke:none;stroke-width:6.84866px;stroke-linecap:butt;stroke-linejoin:miter;stroke-opacity:1"
       d="m -127.60647,-401.43638 80.001196,-7.70133 32.015848,-76.4983 H -125.81972 l -22.57018,61.36173 31.51645,-0.20407 z"
       id="path13482" />
    <path
       style="fill:#0074b7;fill-opacity:1;stroke:none;stroke-width:6.84866px;stroke-linecap:butt;stroke-linejoin:miter;stroke-opacity:1"
       d="m -732.5433,-485.63937 -73.73964,72.24407 v 172.68013 h 73.45937 z"
       id="path13785"
       sodipodi:nodetypes="ccccc" />
    <path
       style="fill:#0074b7;fill-opacity:1;stroke:none;stroke-width:6.84866px;stroke-linecap:butt;stroke-linejoin:miter;stroke-opacity:1"
       d="m -806.13621,173.47884 h 73.59291 l -0.28032,-196.36303 h -73.45934 z"
       id="path13886" />
    <path
       style="fill:#96cdff;fill-opacity:1;stroke:none;stroke-width:6.84866px;stroke-linecap:butt;stroke-linejoin:miter;stroke-opacity:1"
       d="m 308.16982,-97.480903 184.96781,36.484393 241.21368,3.289342 159.35697,-41.746903 v 42.855223 L 731.62862,12.620638 475.58437,23.734782 319.42915,-8.9253193 Z"
       id="path14115" />
    <path
       style="fill:#0074b7;fill-opacity:1;stroke:none;stroke-width:6.84866px;stroke-linecap:butt;stroke-linejoin:miter;stroke-opacity:1"
       d="m 319.42915,-8.9253193 156.15522,32.6601013 256.04425,-11.114144 162.07966,-69.219486 -0.003,39.100443 c 0,0 -163.45043,107.48748 -163.45043,107.48748 0,0 -253.03877,14.566415 -253.04302,14.568815 -0.005,0.002 -144.53497,-16.477203 -144.53497,-16.477203 z"
       id="path14183" />
    <path
       style="fill:#001b61;fill-opacity:1;stroke:none;stroke-width:6.84866px;stroke-linecap:butt;stroke-linejoin:miter;stroke-opacity:1"
       d="m -732.82362,-22.88419 h -73.45934 v -217.83098 h 73.45937 z"
       id="path14616" />
    <path
       style="fill:#60a3d9;fill-opacity:1;stroke:none;stroke-width:6.84866px;stroke-linecap:butt;stroke-linejoin:miter;stroke-opacity:1"
       d="m -473.79403,-238.05131 -35.35711,-72.64518 126.34369,-174.93952 h 256.98773 l -22.57018,61.36173 -199.10461,-0.19792 z"
       id="path29899" />
  </g>
  <g
     inkscape:groupmode="layer"
     id="layer3"
     inkscape:label="Zones"
     style="display:inline"
     transform="translate(1055.1538,489.42535)">
    <a
       href="zones/1/"
       style="display:inline;fill:#808080;stroke:#000000;stroke-width:1.88976;stroke-linejoin:round;stroke-miterlimit:4;stroke-dasharray:none;stroke-opacity:1"
       id="1">
      <path
         id="path5049-7"
         style="display:inline;fill:#808080;stroke:#000000;stroke-width:7.41111;stroke-linejoin:round;stroke-miterlimit:4;stroke-dasharray:none;stroke-opacity:1"
         class="zone"
         d="M 1300.5527 835.08789 L 1300.5527 1134.2773 L 1127.2832 1134.2773 L 988.14648 1078.9297 L 825.36328 1080.7695 L 744.20312 1134.2773 L 744.22852 1134.2969 L 744.20312 1134.2812 L 744.20117 1227.8184 L 506.02539 1227.8184 L 413.05273 1118.6387 L 246.41797 1120.2852 L 246.41797 1187.1914 L 371.26953 1187.1914 L 469.36523 1311.3164 L 817.72461 1311.3164 L 817.29102 1188.1641 L 817.72461 1188.4844 L 866.64453 1149.0625 L 966.15625 1149.0625 L 1118.5625 1214.0312 L 1376.8672 1214.0312 L 1376.5762 904.98633 L 1537.0918 1058.8242 L 2219.3496 1058.8242 L 2219.3496 978.83594 L 1572.0605 978.83594 L 1417.6523 835.08789 L 1300.5527 835.08789 z "
         transform="translate(-1055.1538,-489.42535)" />
    </a>
    <a
       href="zones/2/"
       style="display:inline;fill:#808080;stroke:#000000;stroke-width:1.88976;stroke-linejoin:round;stroke-miterlimit:4;stroke-dasharray:none;stroke-opacity:1"
       id="2">
      <path
         id="path4036"
         style="fill:#808080;stroke:#000000;stroke-width:7.41113;stroke-linecap:butt;stroke-linejoin:round;stroke-miterlimit:4;stroke-dasharray:none;stroke-opacity:1"
         class="zone"
         d="M 1948.8262 3.7050781 L 1779.7969 127.46094 L 1512.9141 127.46094 L 1107.7695 14.65625 L 982.74219 283.17773 L 955.91602 456.67773 L 918.91406 620.41992 L 988.25977 686.32227 L 1036.5508 479.54688 L 1121.7266 497.63477 L 1195.6328 461.60352 L 1214.0273 384.19336 L 1153.3984 319.43555 L 1067.377 298.29883 L 1148.9316 99.242188 L 1497.5723 203.86133 L 1795.5332 203.29883 L 1982.3203 79.589844 L 2219.3496 79.589844 L 2297.541 3.7050781 L 1948.8262 3.7050781 z "
         transform="translate(-1055.1538,-489.42535)" />
    </a>
    <a
       href="zones/3/"
       style="display:inline;fill:#808080;stroke:#000000;stroke-width:1.88976;stroke-linejoin:round;stroke-miterlimit:4;stroke-dasharray:none;stroke-opacity:1"
       id="3">
      <path
         id="path857"
         style="fill:#808080;stroke:#000000;stroke-width:7.41113;stroke-linejoin:round;stroke-miterlimit:4;stroke-dasharray:none;stroke-opacity:1"
         class="zone"
         d="M 2297.541 3.7050781 L 2219.3496 79.589844 L 2219.3496 728.08789 L 2298.6133 727.9707 L 2297.541 3.7050781 z M 1948.8613 389.9707 L 1789.5059 431.71875 L 1548.291 428.42969 L 1363.3242 391.94531 L 1387.8262 577.50586 L 1532.3652 593.98242 L 1785.4082 579.41406 L 1948.8613 471.93359 L 1948.8613 389.9707 z "
         transform="translate(-1055.1538,-489.42535)" />
    </a>
    <a
       href="zones/4/"
       style="display:inline;fill:#808080;stroke:#000000;stroke-width:1.88976;stroke-linejoin:round;stroke-miterlimit:4;stroke-dasharray:none;stroke-opacity:1"
       id="4">
      <path
         id="path5049"
         style="fill:#808080;stroke:#000000;stroke-width:7.41111;stroke-linejoin:round;stroke-miterlimit:4;stroke-dasharray:none;stroke-opacity:1"
         class="zone"
         d="M 672.3457 3.7890625 L 546.00195 178.72852 L 470.18359 168.17773 L 366.65039 252.96094 L 374.14648 454.51953 L 459.7168 491.83789 L 422.82031 623.33594 L 422.82031 867.06641 L 248.9668 867.06641 L 248.86719 941.48633 L 745.21094 941.48633 L 745.21094 867.06641 L 499.55273 867.06641 L 499.54883 866.98242 L 499.54883 634.27734 L 559.90234 431.85938 L 504.66016 423.88086 L 443.31055 395.8457 L 437.86523 291.18555 L 496.63477 239.63477 L 581.35938 251.37305 L 707.66602 64.947266 L 938.28125 64.947266 L 845.39453 263.32812 L 919.83789 285.14258 L 1039.5645 3.7890625 L 672.3457 3.7890625 z M 751.44922 510.86719 L 751.44922 686.32227 L 988.25977 686.32227 C 988.25977 686.32227 918.91403 620.41995 918.91406 620.41992 L 814.38477 620.41992 L 814.38477 511.14062 L 789.42773 510.86719 L 751.44922 510.86719 z "
         transform="translate(-1055.1538,-489.42535)" />
    </a>
    <a
       href="zones/5/"
       style="display:inline;fill:#808080;stroke:#000000;stroke-width:1.88976;stroke-linejoin:round;stroke-miterlimit:4;stroke-dasharray:none;stroke-opacity:1"
       id="5">
      <path
         d="m -987.6948,-413.39534 v 784.44063 h -63.7534 v -856.68474 h 318.9049 v 659.11826 h -73.59291 l -0.14674,-586.87415 z"
         id="path5164"
         class="zone"
         style="fill:#808080;stroke:#000000;stroke-width:7.41113;stroke-linejoin:round;stroke-miterlimit:4;stroke-dasharray:none;stroke-opacity:1"
         sodipodi:nodetypes="ccccccccc" />
    </a>
  </g>
</svg>
