<?xml version="1.0" encoding="UTF-8" standalone="no"?>
<svg
   viewBox="0 0 2302.3191 1315.0212"
   version="1.1"
   id="mapa-smichoff"
   inkscape:version="1.1.1 (3bf5ae0d25, 2021-09-20, custom)"
   sodipodi:docname="smichoff-map.svg"
   width="2302.3191"
   height="1315.0212"
   xmlns:inkscape="http://www.inkscape.org/namespaces/inkscape"
   xmlns:sodipodi="http://sodipodi.sourceforge.net/DTD/sodipodi-0.dtd"
   xmlns="http://www.w3.org/2000/svg"
   xmlns:svg="http://www.w3.org/2000/svg">
  <sodipodi:namedview
     id="namedview7"
     pagecolor="#ffffff"
     bordercolor="#666666"
     borderopacity="1.0"
     inkscape:pageshadow="2"
     inkscape:pageopacity="0.0"
     inkscape:pagecheckerboard="0"
     inkscape:document-units="mm"
     showgrid="false"
     inkscape:zoom="0.094735307"
     inkscape:cx="-1145.2963"
     inkscape:cy="2084.756"
     inkscape:window-width="1914"
     inkscape:window-height="706"
     inkscape:window-x="3840"
     inkscape:window-y="1423"
     inkscape:window-maximized="1"
     inkscape:current-layer="layer1"
     fit-margin-top="0"
     fit-margin-left="0"
     fit-margin-right="0"
     fit-margin-bottom="0" />
  <defs
     id="defs2" />
  <g
     inkscape:label="Layer 1"
     inkscape:groupmode="layer"
     id="layer1"
     transform="translate(1012.718,458.96982)"
     style="display:inline">
    <path
       id="path877"
       style="fill:#cccccc;stroke:none;stroke-width:6.84866px;stroke-linecap:butt;stroke-linejoin:miter;stroke-opacity:1"
       d="m -945.26139,661.13214 345.60325,-1.45802 92.96521,109.17732 h 238.17823 v -93.54045 l 81.15396,-53.51852 162.789433,-1.83256 139.140207,55.35108 H 287.83201 V 376.12353 h 117.10943 l 154.40252,143.74163 h 647.29214 v -899.2479 H 969.6082 l -186.79989,123.71729 -297.9569,0.56159 -348.63965,-104.62933 -81.555291,199.06593 86.022951,21.13456 60.63468,64.754637 L 182.90833,2.6305039 109.00436,38.666242 23.837494,20.58153 -24.464264,227.35219 H -261.26471 V 51.895394 h 37.97528 l 55.96636,-247.541644 92.884948,-198.37038 H -305.05875 l -126.29951,186.42091 6e-4,0.004 -84.72542,-11.74436 -58.77543,51.5522 5.44416,104.656104 61.35704,28.036706 55.24407,7.985677 -60.35381,202.409993 v 232.70757 l 245.65561,0.0802 v 74.42562 H -763.85212 V -382.94094 H -945.26139 Z M 350.6069,-67.019626 535.57431,-30.542493 776.78895,-27.251917 936.14072,-68.9993 V 12.957188 L 772.69578,120.44912 519.6431,135.01587 375.1123,118.53628 Z"
       sodipodi:nodetypes="ccccccccccccccccccccccccccccccccccccccccccccccccccccccc" />
    <path
       d="M 1206.6319,519.86699 V 269.11739"
       id="path859"
       sodipodi:nodetypes="cc"
       style="fill:none;stroke:#000000;stroke-width:7.41114;stroke-linecap:butt;stroke-linejoin:round;stroke-miterlimit:4;stroke-dasharray:none;stroke-opacity:1" />
    <path
       style="fill:none;stroke:#000000;stroke-width:7.41114;stroke-linecap:butt;stroke-linejoin:round;stroke-miterlimit:4;stroke-dasharray:none;stroke-opacity:1"
       d="m -223.28991,51.898056 55.96547,-247.540396"
       id="path1373"
       sodipodi:nodetypes="cc" />
    <path
       style="fill:none;stroke:#000000;stroke-width:7.41114;stroke-linecap:butt;stroke-linejoin:round;stroke-miterlimit:4;stroke-dasharray:none;stroke-opacity:1"
       d="m -945.25902,401.50083 10e-6,259.62871 178.95801,0.1856"
       id="path1379"
       sodipodi:nodetypes="ccc" />
    <path
       style="display:inline;fill:none;stroke:#000000;stroke-width:7.41114;stroke-linecap:butt;stroke-linejoin:round;stroke-miterlimit:4;stroke-dasharray:none;stroke-opacity:1"
       d="m -763.75035,408.09603 0.05,-204.16168"
       id="path1379-7"
       sodipodi:nodetypes="cc" />
    <path
       style="fill:none;stroke:none;stroke-width:6.85942;stroke-linecap:butt;stroke-linejoin:round;stroke-miterlimit:4;stroke-dasharray:none;stroke-opacity:1"
       d="m 1206.6319,-379.37979 78.1918,-75.88448 H 936.10859 l 33.49386,75.88461 z"
       id="path6018" />
  </g>
  <g
     inkscape:groupmode="layer"
     id="layer2"
     inkscape:label="Terrain Types"
     style="display:inline"
     transform="translate(1055.1538,489.42535)">
    <path
       style="fill:#60a3d9;fill-opacity:1;stroke:none;stroke-width:6.84866px;stroke-linecap:butt;stroke-linejoin:miter;stroke-opacity:1"
       d="m -1051.4482,371.04532 v -856.68469 h 318.9049 l -73.73964,72.24407 h -181.41184 l -10e-6,784.44062 z"
       id="path13717" />
    <path
       style="fill:#60a3d9;fill-opacity:1;stroke:none;stroke-width:6.84866px;stroke-linecap:butt;stroke-linejoin:miter;stroke-opacity:1"
       d="m 927.16673,-409.83517 237.02947,-1.3e-4 78.1918,-75.88447 H 893.67287 Z"
       id="path10175" />
    <path
       style="fill:#0074b7;fill-opacity:1;stroke:none;stroke-width:6.84866px;stroke-linecap:butt;stroke-linejoin:miter;stroke-opacity:1"
       d="M 893.67287,-485.71977 724.64312,-361.96536 H 457.7597 l -405.143792,-112.80443 -125.027375,268.52188 84.632192,15.12527 81.556732,-199.06098 348.641113,104.61916 297.96017,-0.56295 186.79374,-123.71091 z"
       id="path12141" />
    <path
       style="fill:#001b61;fill-opacity:1;stroke:none;stroke-width:6.84866px;stroke-linecap:butt;stroke-linejoin:miter;stroke-opacity:1"
       d="m -72.411467,-206.24791 -26.827027,173.499798 80.63456,22.8702812 85.172552,18.0886839 73.909672,-36.0323811 18.39482,-77.409522 -60.629229,-64.75944 -86.020827,-21.13627 z"
       id="path12242" />
    <path
       style="fill:#0074b7;fill-opacity:1;stroke:none;stroke-width:6.84866px;stroke-linecap:butt;stroke-linejoin:miter;stroke-opacity:1"
       d="M -99.238494,-32.748112 -18.603934,-9.8778308 -66.900007,196.89687 -136.23886,130.99549 Z"
       id="path12369" />
    <path
       style="fill:#60a3d9;fill-opacity:1;stroke:none;stroke-width:6.84866px;stroke-linecap:butt;stroke-linejoin:miter;stroke-opacity:1"
       d="M -136.23886,130.99549 H -240.76833 V 21.716071 l -62.93215,-0.276002 V 196.89687 h 236.800473 z"
       id="path12602" />
    <path
       style="fill:#005290;fill-opacity:1;stroke:none;stroke-width:6.84866px;stroke-linecap:butt;stroke-linejoin:miter;stroke-opacity:1"
       d="m 1164.1962,-409.83511 78.1918,-75.88466 1.0717,724.26459 -79.2635,0.11715 z"
       id="path12670" />
    <path
       style="fill:#60a3d9;fill-opacity:1;stroke:none;stroke-width:6.84866px;stroke-linecap:butt;stroke-linejoin:miter;stroke-opacity:1"
       d="M 1164.2003,489.40963 H 516.90824 l -154.40253,-143.74169 -117.10647,-0.006 v 299.18978 l -173.266086,0.003 -8.724714,79.74958 H 321.71366 L 321.4219,415.18291 481.93856,569.39695 h 682.25784 z"
       id="path12738" />
    <path
       style="fill:#0074b7;fill-opacity:1;stroke:none;stroke-width:6.84866px;stroke-linecap:butt;stroke-linejoin:miter;stroke-opacity:1"
       d="m 72.128704,644.85197 -139.135755,-55.34759 -162.782739,1.83922 -81.16068,53.51186 73.52114,54.20537 48.91909,-39.42266 h 99.513029 l 152.405651,64.96687 8.724714,-79.74958 z"
       id="path12806" />
    <path
       style="fill:#60a3d9;fill-opacity:1;stroke:none;stroke-width:6.84866px;stroke-linecap:butt;stroke-linejoin:miter;stroke-opacity:1"
       d="m -310.95047,644.85546 -0.003,93.53745 -238.17836,10e-4 -92.96159,-109.1758 -166.64286,1.641 v 66.90677 h 124.85165 l 98.09668,124.12397 h 348.35911 V 699.06083 Z"
       id="path12874" />
    <path
       style="fill:#60a3d9;fill-opacity:1;stroke:none;stroke-width:6.84866px;stroke-linecap:butt;stroke-linejoin:miter;stroke-opacity:1"
       d="m -309.94721,377.63729 -245.65736,-0.0795 0.002,-232.70819 -76.72976,-10.93828 v 243.78283 l -173.85356,-0.0548 -0.0974,74.42227 h 496.3422 z"
       id="path12942" />
    <path
       id="path13076"
       style="fill:#0074b7;fill-opacity:1;stroke:none;stroke-width:6.84866px;stroke-linecap:butt;stroke-linejoin:miter;stroke-opacity:1"
       d="m -688.50965,-236.46818 7.5041,201.553973 85.56814,37.3197932 -36.89181,131.5023638 76.7264,10.94177 60.35383,-202.409983 -55.24409,-7.985676 -61.35704,-28.036706 -5.44416,-104.656105 58.77543,-51.5522 84.72544,11.74436 -35.35769,-72.64986 -75.82605,-10.55071 z"
       sodipodi:nodetypes="cccccccccccccc" />
    <path
       style="fill:#60a3d9;fill-opacity:1;stroke:none;stroke-width:6.84866px;stroke-linecap:butt;stroke-linejoin:miter;stroke-opacity:1"
       d="m -209.7602,-226.09787 74.44495,21.81552 87.709976,-204.85536 -80.001196,7.70133 z"
       id="path13414" />
    <path
       style="fill:#0074b7;fill-opacity:1;stroke:none;stroke-width:6.84866px;stroke-linecap:butt;stroke-linejoin:miter;stroke-opacity:1"
       d="m -127.60647,-401.43638 80.001196,-7.70133 32.015848,-76.4983 H -125.81972 l -22.57018,61.36173 31.51645,-0.20407 z"
       id="path13482" />
    <path
       style="fill:#0074b7;fill-opacity:1;stroke:none;stroke-width:6.84866px;stroke-linecap:butt;stroke-linejoin:miter;stroke-opacity:1"
       d="m -732.5433,-485.63937 -73.73964,72.24407 v 172.68013 h 73.45937 z"
       id="path13785"
       sodipodi:nodetypes="ccccc" />
    <path
       style="fill:#0074b7;fill-opacity:1;stroke:none;stroke-width:6.84866px;stroke-linecap:butt;stroke-linejoin:miter;stroke-opacity:1"
       d="m -806.13621,173.47884 h 73.59291 l -0.28032,-196.36303 h -73.45934 z"
       id="path13886" />
    <path
       style="fill:#96cdff;fill-opacity:1;stroke:none;stroke-width:6.84866px;stroke-linecap:butt;stroke-linejoin:miter;stroke-opacity:1"
       d="m 308.16982,-97.480903 184.96781,36.484393 241.21368,3.289342 159.35697,-41.746903 v 42.855223 L 731.62862,12.620638 475.58437,23.734782 319.42915,-8.9253193 Z"
       id="path14115" />
    <path
       style="fill:#0074b7;fill-opacity:1;stroke:none;stroke-width:6.84866px;stroke-linecap:butt;stroke-linejoin:miter;stroke-opacity:1"
       d="m 319.42915,-8.9253193 156.15522,32.6601013 256.04425,-11.114144 162.07966,-69.219486 -0.003,39.100443 c 0,0 -163.45043,107.48748 -163.45043,107.48748 0,0 -253.03877,14.566415 -253.04302,14.568815 -0.005,0.002 -144.53497,-16.477203 -144.53497,-16.477203 z"
       id="path14183" />
    <path
       style="fill:#001b61;fill-opacity:1;stroke:none;stroke-width:6.84866px;stroke-linecap:butt;stroke-linejoin:miter;stroke-opacity:1"
       d="m -732.82362,-22.88419 h -73.45934 v -217.83098 h 73.45937 z"
       id="path14616" />
    <path
       style="fill:#60a3d9;fill-opacity:1;stroke:none;stroke-width:6.84866px;stroke-linecap:butt;stroke-linejoin:miter;stroke-opacity:1"
       d="m -473.79403,-238.05131 -35.35711,-72.64518 126.34369,-174.93952 h 256.98773 l -22.57018,61.36173 -199.10461,-0.19792 z"
       id="path29899" />
  </g>
  <g
     inkscape:groupmode="layer"
     id="layer3"
     inkscape:label="Zones"
     style="display:inline"
     transform="translate(1055.1538,489.42535)">
    <a
       style="display:inline;fill:#808080;stroke:#000000;stroke-width:0.5;stroke-linejoin:round;stroke-miterlimit:4;stroke-dasharray:none;stroke-opacity:1"
       href="zones/1/"
       id="a5"
       transform="matrix(0,-14.822254,14.822254,0,-1506.5734,1454.5896)">
      <path
         id="path857"
         d="m 99.315684,161.9377 h 5.529616 l -2.8165,-10.7512 0.22192,-16.27375 2.46146,-12.47906 -12.519082,1.65308 -1.111694,9.75151 0.982903,17.07183 z"
         class="zone"
         style="stroke-linejoin:round" />
    </a>
    <a
       style="display:inline;fill:#808080;stroke:#000000;stroke-width:0.5;stroke-linejoin:round;stroke-miterlimit:4;stroke-dasharray:none;stroke-opacity:1"
       href="zones/2/"
       id="a8"
       transform="matrix(0,-14.822254,14.822254,0,-1506.5734,1454.5896)">
      <path
         d="m 125.78551,180.18647 5.11964,5.2753 -48.86332,0.0723 -0.0079,-5.3476 h 43.75159"
         id="path3822"
         class="zone"
         style="stroke-linejoin:round"
         sodipodi:nodetypes="ccccc" />
    </a>
    <a
       style="display:inline;fill:#808080;stroke:#000000;stroke-width:0.5;stroke-linecap:butt;stroke-linejoin:round;stroke-miterlimit:4;stroke-dasharray:none;stroke-opacity:1"
       href="zones/3/"
       id="a16"
       transform="matrix(0,-14.822254,14.822254,0,-1506.5734,1454.5896)">
      <path
         d="m 125.78551,180.18647 5.11964,5.2753 v -23.52646 l -8.34923,-11.40378 v -18.00559 l 7.61048,-27.33348 v 0 l -5.7067,2.77701 -7.05827,23.52146 v 0 l 0.038,20.10222 8.34608,12.60186 z"
         id="path4036"
         class="zone"
         style="stroke-linecap:butt;stroke-linejoin:round"
         sodipodi:nodetypes="ccccccccccccc" />
    </a>
    <a
       style="display:inline;fill:#808080;stroke:#000000;stroke-width:0.5;stroke-linejoin:round;stroke-miterlimit:4;stroke-dasharray:none;stroke-opacity:1"
       href="zones/4/"
       id="a19"
       transform="matrix(0,-14.822254,14.822254,0,-1506.5734,1454.5896)">
      <path
         d="m 65.116828,180.18647 h -5.396375 v -46.02929 l 10.737717,-11.20394 4.356865,-4.75444 v 7.9003 l -9.698207,10.4173 z"
         id="path4498"
         class="zone"
         style="stroke-linejoin:round" />
    </a>
    <a
       style="display:inline;fill:#808080;stroke:#000000;stroke-width:0.5;stroke-linejoin:round;stroke-miterlimit:4;stroke-dasharray:none;stroke-opacity:1"
       href="zones/5/"
       id="a22"
       transform="matrix(0,-14.822254,14.822254,0,-1506.5734,1454.5896)">
      <path
         d="M 74.815035,118.1988 H 54.629859 v -11.68989 l 3.734075,-9.386989 -0.124071,-10.982283 -3.610004,-5.475666 -3.657142,4.960205 2.659578,3.300433 v 6.71376 l -4.383066,10.28222 v 17.42685 l 20.875444,-0.0197 z"
         id="path4500"
         class="zone"
         style="stroke-linejoin:round" />
    </a>
    <a
       style="display:inline;fill:#808080;stroke:#000000;stroke-width:1.88976;stroke-linejoin:round;stroke-miterlimit:4;stroke-dasharray:none;stroke-opacity:1"
       href="zones/6/"
       id="a20"
       transform="matrix(0,-14.822254,14.822254,0,-1506.5734,1454.5896)">
      <path
         id="path5049"
         class="zone"
         d="m 192.98242,177.94141 v 31.83593 l -31.65039,25.01368 v 88.82812 h 31.32031 l 13.82227,-18.74805 h -23.85156 v -60.73242 l 27.83984,-23.70703 -0.41992,-42.49023 z m 62.65235,0.625 v 126.5625 h 18.97656 V 242.48828 178.5918 Z"
         transform="scale(0.26458333)"
         style="stroke-linejoin:round" />
    </a>
    <a
       id="a28"
       style="display:inline;fill:#808080;stroke:#000000;stroke-width:0.5;stroke-linejoin:round;stroke-miterlimit:4;stroke-dasharray:none;stroke-opacity:1"
       href="zones/7/"
       transform="matrix(0,-14.822254,14.822254,0,-1506.5734,1454.5896)">
      <path
         d="M 126.0257,35.006727 H 73.102533 V 30.70553 H 130.89973 V 52.220809 H 86.431577 v -4.965028 l 39.594123,-0.0099 z"
         id="path5164"
         class="zone"
         style="stroke-linejoin:round"
         sodipodi:nodetypes="ccccccccc" />
    </a>
    <a
       id="a31"
       style="display:inline;fill:#808080;stroke:#000000;stroke-width:0.5;stroke-linejoin:round;stroke-miterlimit:4;stroke-dasharray:none;stroke-opacity:1"
       href="zones/8/"
       transform="matrix(0,-14.822254,14.822254,0,-1506.5734,1454.5896)">
      <path
         d="M 130.1664,105.19246 112.05027,96.757346 100.34491,94.947432 89.297764,92.45116 v -7.052199 h 7.372659 l 0.01845,-1.683777 V 81.152893 H 84.851628 v 15.976634 l 13.950294,3.258003 -1.220246,5.74657 2.430854,4.98609 5.22252,1.24103 4.36905,-4.09042 1.426,-5.80349 13.4296,5.50216 z"
         id="path6461"
         class="zone"
         style="stroke-linejoin:round" />
    </a>
    <a
       id="a37"
       style="display:inline;fill:#808080;fill-opacity:1;stroke:#000000;stroke-width:0.5;stroke-linejoin:round;stroke-miterlimit:4;stroke-dasharray:none;stroke-opacity:1"
       href="zones/9/"
       transform="matrix(0,-14.822254,14.822254,0,-1506.5734,1454.5896)">
      <path
         d="m 113.38947,87.490958 -1.47181,5.022511 18.98184,8.077441 V 75.816133 l -11.80249,-8.523919 0.71186,-5.115238 -5.71997,-6.984995 -13.59837,0.50576 -2.517739,5.77314 -8.871755,-2.489242 H 72.653954 l 0.0092,5.176538 15.699794,8e-6 13.656322,4.071773 0.53829,-3.726979 1.89146,-4.13903 7.06099,-0.367321 3.47788,3.964969 -0.79197,5.716023 v 0 l 12.57749,8.521333 v 15.558714 z"
         id="path6980"
         class="zone"
         sodipodi:nodetypes="ccccccccccccccccccccccc" />
    </a>
  </g>
</svg>
