<?xml version="1.0" encoding="UTF-8" standalone="no"?>
<svg
   width="303.40887pt"
   height="188.976pt"
   viewBox="0 0 303.40888 188.976"
   version="1.2"
   id="svg75"
   sodipodi:docname="lokalblok.svg"
   inkscape:version="1.2.1 (9c6d41e410, 2022-07-14, custom)"
   xmlns:inkscape="http://www.inkscape.org/namespaces/inkscape"
   xmlns:sodipodi="http://sodipodi.sourceforge.net/DTD/sodipodi-0.dtd"
   xmlns="http://www.w3.org/2000/svg"
   xmlns:svg="http://www.w3.org/2000/svg">
  <sodipodi:namedview
     id="namedview77"
     pagecolor="#ffffff"
     bordercolor="#666666"
     borderopacity="1.0"
     inkscape:pageshadow="2"
     inkscape:pageopacity="0.0"
     inkscape:pagecheckerboard="0"
     inkscape:document-units="pt"
     showgrid="false"
     fit-margin-top="0"
     fit-margin-left="0"
     fit-margin-right="0"
     fit-margin-bottom="0"
     inkscape:zoom="1.5996993"
     inkscape:cx="50.634515"
     inkscape:cy="143.46446"
     inkscape:window-width="1920"
     inkscape:window-height="1080"
     inkscape:window-x="0"
     inkscape:window-y="0"
     inkscape:window-maximized="1"
     inkscape:current-layer="surface1211"
     inkscape:showpageshadow="2"
     inkscape:deskcolor="#d1d1d1"
     showguides="false" />
  <defs
     id="defs32">
    <clipPath
       id="clip1">
      <path
         d="M 0,0 H 141.30859 V 87 H 0 Z m 0,0"
         id="path2" />
    </clipPath>
    <clipPath
       id="clip2">
      <path
         d="m 15,101 h 3 v 22.32813 h -3 z m 0,0"
         id="path5" />
    </clipPath>
    <clipPath
       id="clip3">
      <path
         d="m 68,101 h 3 v 22.32813 h -3 z m 0,0"
         id="path8" />
    </clipPath>
    <clipPath
       id="clip4">
      <path
         d="m 91,101 h 6 v 22.32813 h -6 z m 0,0"
         id="path11" />
    </clipPath>
    <clipPath
       id="clip5">
      <path
         d="m 116,101 h 15 v 22.32813 h -15 z m 0,0"
         id="path14" />
    </clipPath>
    <clipPath
       id="clip6">
      <path
         d="m 50,106 h 15 v 17.32813 H 50 Z m 0,0"
         id="path17" />
    </clipPath>
    <clipPath
       id="clip7">
      <path
         d="m 37,101 h 13 v 22.32813 H 37 Z m 0,0"
         id="path20" />
    </clipPath>
    <clipPath
       id="clip8">
      <path
         d="m 20,106 h 15 v 17.32813 H 20 Z m 0,0"
         id="path23" />
    </clipPath>
    <clipPath
       id="clip9">
      <path
         d="m 98,106 h 16 v 17.32813 H 98 Z m 0,0"
         id="path26" />
    </clipPath>
    <clipPath
       id="clip10">
      <path
         d="m 74,101 h 16 v 22.32813 H 74 Z m 0,0"
         id="path29" />
    </clipPath>
  </defs>
  <g
     id="surface1211"
     transform="translate(-5.1454881,-0.07240448)">
    <path
       id="path34"
       style="clip-rule:nonzero;fill:#000000;fill-opacity:1;fill-rule:nonzero;stroke:none;stroke-width:2.0955"
       d="m 255.54443,0.09272008 c -10.17531,0.3285814 -19.86648,3.77757582 -29.64239,6.23124422 -3.86563,0.9993539 -7.79282,1.7064231 -11.73196,2.1456884 -4.62541,0.7162133 -9.13408,1.9609193 -13.73703,2.8061493 -12.09022,2.394616 -24.37181,3.875832 -36.72144,3.81477 -2.58584,-0.03491 -5.18551,0.107127 -7.72603,0.490444 -14.80885,1.766565 -29.76881,3.363493 -44.05878,7.844977 -4.04873,1.254903 -7.76995,3.32968 -11.69138,4.909669 -10.103015,4.190455 -20.781105,6.862384 -31.537856,8.668536 -6.82086,0.94955 -13.179022,3.827253 -19.255423,6.943081 -5.989432,3.108138 -11.814892,6.5377 -18.175812,8.831699 -1.787574,0.696197 -3.653075,1.166735 -5.461712,1.790707 -5.383136,2.166482 -10.310867,5.914332 -13.119709,11.067917 -1.474422,3.044614 -1.073616,7.075286 1.461889,9.444558 0.634704,0.685669 1.328155,1.313542 2.001064,1.961596 10.789856,-7.547056 23.097098,-12.622402 35.411024,-17.156088 6.935283,-2.5019 13.88369,-5.273664 20.845897,-7.508377 21.404418,-5.827345 43.295948,-9.729136 64.641268,-15.810267 2.7298,-0.590865 5.52915,-0.769848 8.30181,-1.065577 15.57771,-1.386961 31.41769,-0.547153 46.84685,-3.579091 4.34132,-1.010769 8.69197,-1.809202 13.14127,-2.041652 17.31396,-1.538105 34.80232,-0.864417 52.08415,0.906495 3.62438,0.345252 7.42935,0.299312 10.67612,2.176105 3.39218,1.711082 6.42658,4.756061 7.06243,8.625705 0.38363,3.084456 -1.31888,6.062491 -3.64782,7.969606 -4.58402,4.56543 -8.68042,9.585214 -13.07762,14.324997 -10.97122,12.222793 -22.21453,24.245595 -34.47759,35.175949 -14.89658,14.125459 -26.98447,31.015499 -42.79809,44.192299 -7.43225,6.568 -14.30849,13.97277 -23.00588,18.92518 -5.62044,3.11767 -12.06633,4.30527 -18.37303,4.94869 -11.12292,1.11707 -22.37533,-0.27098 -33.08083,-3.43112 -6.51175,-1.91073 -12.907785,-4.34541 -18.86121,-7.60125 -4.015154,-2.63273 -7.145766,-6.33822 -10.342758,-9.86428 -4.942276,-5.66939 -9.741419,-11.69576 -16.039823,-15.91051 -6.025266,-4.26649 -12.060692,-8.5162 -18.276036,-12.50176 -7.611441,-5.01878 -15.31096,-10.14355 -21.719176,-16.64444 -3.330991,-3.596173 -5.547525,-8.216802 -9.58902,-11.140743 -2.017928,-1.631709 -5.3253038,-0.655284 -6.3539736,1.661881 -0.6683536,1.448884 -0.3061253,3.124113 0.1024952,4.594676 0.8326128,2.408091 2.1034653,4.638436 3.3407797,6.856946 4.4912187,7.79215 9.8837997,15.0256 15.4880127,22.04548 5.482998,6.77346 11.21296,13.35424 17.272063,19.61748 12.253648,12.22787 26.583175,22.20389 41.67175,30.6192 7.875292,4.67892 15.737093,9.72146 24.649136,12.18944 5.3615,1.39459 10.94935,1.039 16.43064,1.34868 14.50176,0.35784 29.21717,-0.36019 43.22679,-4.38857 9.30342,-2.61579 17.98596,-7.06164 26.09282,-12.26259 11.91612,-7.35323 23.09853,-16.25492 31.5842,-27.48509 2.76013,-3.67069 4.98169,-7.70644 7.58074,-11.48361 7.05954,-9.05289 16.31058,-16.07685 25.1256,-23.33775 5.86429,-4.77076 11.49853,-9.8484 16.61446,-15.424819 3.40704,-3.733652 6.88309,-7.418826 9.91735,-11.469255 8.10803,-10.589158 14.23996,-22.528239 19.56325,-34.7135 1.5613,-3.558159 3.10484,-7.146244 4.2075,-10.874224 0.78314,-5.219806 -1.20726,-10.49148 -4.27978,-14.652207 -4.81605,-7.074417 -12.11348,-12.104665 -19.87382,-15.4962215 -7.34056,-3.1912 -15.05755,-5.4599635 -22.8806,-7.11120872 -1.92861,-0.1770904 -3.86877,-0.2298215 -5.80478,-0.1756447 z" />
  </g>
</svg>
