<?xml version="1.0" encoding="UTF-8" standalone="no"?>
<svg
   width="308.38058pt"
   height="188.976pt"
   viewBox="0 0 308.38059 188.976"
   version="1.2"
   id="svg75"
   sodipodi:docname="LokalBlok Black.svg"
   inkscape:version="1.1.1 (3bf5ae0d25, 2021-09-20, custom)"
   xmlns:inkscape="http://www.inkscape.org/namespaces/inkscape"
   xmlns:sodipodi="http://sodipodi.sourceforge.net/DTD/sodipodi-0.dtd"
   xmlns="http://www.w3.org/2000/svg"
   xmlns:svg="http://www.w3.org/2000/svg">
  <sodipodi:namedview
     id="namedview77"
     pagecolor="#ffffff"
     bordercolor="#666666"
     borderopacity="1.0"
     inkscape:pageshadow="2"
     inkscape:pageopacity="0.0"
     inkscape:pagecheckerboard="0"
     inkscape:document-units="pt"
     showgrid="false"
     fit-margin-top="0"
     fit-margin-left="0"
     fit-margin-right="0"
     fit-margin-bottom="0"
     inkscape:zoom="0.56557912"
     inkscape:cx="592.31324"
     inkscape:cy="485.34324"
     inkscape:window-width="1920"
     inkscape:window-height="1080"
     inkscape:window-x="0"
     inkscape:window-y="0"
     inkscape:window-maximized="1"
     inkscape:current-layer="surface1211" />
  <defs
     id="defs32">
    <clipPath
       id="clip1">
      <path
         d="M 0,0 H 141.30859 V 87 H 0 Z m 0,0"
         id="path2" />
    </clipPath>
    <clipPath
       id="clip2">
      <path
         d="m 15,101 h 3 v 22.32813 h -3 z m 0,0"
         id="path5" />
    </clipPath>
    <clipPath
       id="clip3">
      <path
         d="m 68,101 h 3 v 22.32813 h -3 z m 0,0"
         id="path8" />
    </clipPath>
    <clipPath
       id="clip4">
      <path
         d="m 91,101 h 6 v 22.32813 h -6 z m 0,0"
         id="path11" />
    </clipPath>
    <clipPath
       id="clip5">
      <path
         d="m 116,101 h 15 v 22.32813 h -15 z m 0,0"
         id="path14" />
    </clipPath>
    <clipPath
       id="clip6">
      <path
         d="m 50,106 h 15 v 17.32813 H 50 Z m 0,0"
         id="path17" />
    </clipPath>
    <clipPath
       id="clip7">
      <path
         d="m 37,101 h 13 v 22.32813 H 37 Z m 0,0"
         id="path20" />
    </clipPath>
    <clipPath
       id="clip8">
      <path
         d="m 20,106 h 15 v 17.32813 H 20 Z m 0,0"
         id="path23" />
    </clipPath>
    <clipPath
       id="clip9">
      <path
         d="m 98,106 h 16 v 17.32813 H 98 Z m 0,0"
         id="path26" />
    </clipPath>
    <clipPath
       id="clip10">
      <path
         d="m 74,101 h 16 v 22.32813 H 74 Z m 0,0"
         id="path29" />
    </clipPath>
  </defs>
  <g
     id="surface1211"
     transform="translate(-0.1737637,-0.07240448)">
    <path
       style="clip-rule:nonzero;fill:#000000;fill-opacity:1;fill-rule:nonzero;stroke:none;stroke-width:2.1864"
       d="M 306.22298,24.681917 C 297.78608,9.4929713 279.64877,4.44126 263.99644,0.37434008 246.63533,-1.7291127 230.72492,7.8096959 213.64558,8.8671034 c -18.06623,4.3538776 -36.55,7.4011006 -55.16115,6.8340586 -17.59378,2.1494 -35.64168,3.680241 -52.4591,9.418378 C 92.429405,31.954777 77.899729,36.303971 62.879307,38.55118 47.540811,40.919631 35.900667,52.030789 21.133386,55.995629 15.008797,57.348392 3.7833418,66.007705 8.0954777,70.969085 24.584243,60.052056 44.059041,54.495649 62.396639,47.331659 85.846453,40.62308 110.02213,36.722995 133.39294,29.846448 c 20.78785,-3.284198 42.18165,-0.502413 62.70435,-5.979121 21.85868,-2.842441 44.18722,-2.160177 66.01012,0.306245 14.97438,-0.204822 28.14781,15.749327 13.64714,27.403038 -14.57113,16.11176 -28.65833,32.666401 -44.82409,47.260886 -17.20168,15.163834 -30.15407,34.378834 -47.82242,49.043864 -11.46678,10.01848 -21.98353,22.68162 -37.92186,25.23691 C 123.43982,177.7534 100.3949,172.55223 80.801933,162.77079 68.985591,154.99315 62.793368,141.04188 50.305771,133.83427 36.55339,123.20656 20.292302,115.5364 8.4948268,102.58765 6.5404596,99.347621 -3.4342604,86.216504 1.5568191,97.756549 9.4507156,112.60087 20.532947,125.59802 31.551086,138.2312 c 12.758269,14.00828 27.87894,25.5132 44.312612,34.8607 10.247865,5.69098 20.313862,13.28222 31.976072,15.30684 24.03377,1.37925 49.15846,1.50974 71.25354,-9.48874 19.61904,-10.4735 39.15096,-24.24583 49.8679,-44.36175 12.57738,-17.54154 32.59302,-27.58427 46.37861,-44.025604 15.38819,-15.360014 24.98034,-35.373005 32.92981,-55.258796 0.77022,-3.623563 -0.0586,-7.480623 -2.04665,-10.581933 z"
       id="path34" />
  </g>
</svg>
