<?xml version="1.0" encoding="UTF-8" standalone="no"?>
<svg
   xmlns:dc="http://purl.org/dc/elements/1.1/"
   xmlns:cc="http://creativecommons.org/ns#"
   xmlns:rdf="http://www.w3.org/1999/02/22-rdf-syntax-ns#"
   xmlns:svg="http://www.w3.org/2000/svg"
   xmlns="http://www.w3.org/2000/svg"
   xmlns:sodipodi="http://sodipodi.sourceforge.net/DTD/sodipodi-0.dtd"
   xmlns:inkscape="http://www.inkscape.org/namespaces/inkscape"
   width="67.863121mm"
   height="52.62711mm"
   viewBox="0 0 67.863121 52.62711"
   version="1.1"
   id="svg8"
   inkscape:version="1.0.1 (3bc2e813f5, 2020-09-07)"
   sodipodi:docname="bod-na-primce.svg">
  <defs
     id="defs2" />
  <sodipodi:namedview
     id="base"
     pagecolor="#ffffff"
     bordercolor="#666666"
     borderopacity="1.0"
     inkscape:pageopacity="0.0"
     inkscape:pageshadow="2"
     inkscape:zoom="0.45811492"
     inkscape:cx="340.28929"
     inkscape:cy="141.02309"
     inkscape:document-units="mm"
     inkscape:current-layer="layer1"
     inkscape:document-rotation="0"
     showgrid="false"
     inkscape:window-width="954"
     inkscape:window-height="1049"
     inkscape:window-x="2880"
     inkscape:window-y="0"
     inkscape:window-maximized="1"
     fit-margin-top="0"
     fit-margin-left="0"
     fit-margin-right="0"
     fit-margin-bottom="0" />
  <metadata
     id="metadata5">
    <rdf:RDF>
      <cc:Work
         rdf:about="">
        <dc:format>image/svg+xml</dc:format>
        <dc:type
           rdf:resource="http://purl.org/dc/dcmitype/StillImage" />
        <dc:title></dc:title>
      </cc:Work>
    </rdf:RDF>
  </metadata>
  <g
     inkscape:label="Layer 1"
     inkscape:groupmode="layer"
     id="layer1"
     transform="translate(1.4476897,-0.54602027)">
    <path
       style="fill:#000000;stroke-width:0.264583"
       d="m 39.798881,52.174139 c -0.30512,-0.544502 -1.31715,-2.218243 -2.24896,-3.719423 -2.29425,-3.696155 -2.64958,-4.277675 -3.39655,-5.558756 -1.106884,-1.898332 -1.360355,-1.52401 -2.387393,3.525674 -1.053418,5.179372 -1.145024,5.559287 -1.403565,5.820833 -0.172815,0.174826 -0.214651,0.04019 -0.123322,-0.396875 0.07602,-0.363802 0.521396,-2.447396 0.989724,-4.630208 1.184442,-5.520516 1.158473,-5.284727 0.665017,-6.037837 -0.347892,-0.530947 -0.378571,-0.790824 -0.144899,-1.227444 0.235935,-0.440846 0.199274,-0.701194 -0.179631,-1.275649 -0.261837,-0.396965 -0.616804,-0.959371 -0.788818,-1.249789 -3.994584,-6.744266 -5.767067,-9.391573 -6.288055,-9.391573 -0.313172,0 -0.701173,-0.13177 -0.862227,-0.292825 -0.214045,-0.214045 -0.708763,-0.134742 -1.838854,0.294772 -0.850316,0.323178 -2.498529,0.920425 -3.662696,1.327214 -1.818047,0.635272 -5.777707,2.054148 -9.8557292,3.531629 -0.618463,0.224073 -1.124479,0.308549 -1.124479,0.187725 0,-0.120825 1.101328,-0.60079 2.447396,-1.066591 1.3460672,-0.465805 4.4119272,-1.560349 6.8130202,-2.432323 2.401094,-0.871977 4.925267,-1.772126 5.60927,-2.000335 2.064335,-0.688734 1.998128,-1.194943 -0.743458,-5.684201 C 20.002701,19.81534 17.987301,16.504504 16.796009,14.540744 15.604718,12.576984 14.464716,10.958009 14.262672,10.943023 13.343755,10.874863 13.205135,10.797028 12.93095,10.195258 12.68863,9.6634243 12.231527,9.4581093 10.224643,8.9796813 6.9209728,8.1921073 6.8838608,8.1806513 6.8838608,7.9484353 c 0,-0.112885 1.335412,0.13135 2.967584,0.542746 3.9383982,0.99269 3.9387262,0.992047 1.4835242,-2.904907 -0.244025,-0.387323 -0.452385,-0.800548 -0.463021,-0.918276 -0.04546,-0.503194 0.515898,0.193488 1.526284,1.89422 0.858493,1.445057 1.244087,1.854336 1.863793,1.978277 0.456471,0.0913 0.85047,0.374022 0.947572,0.679963 0.189553,0.597229 0.56828,0.729075 5.300305,1.8451907 1.891771,0.446202 6.407017,1.532782 10.033883,2.414623 3.626866,0.88184 6.662956,1.498708 6.746876,1.370817 0.0839,-0.127891 0.39799,-0.361577 0.69795,-0.519303 0.38316,-0.201479 0.63789,-0.744454 0.85644,-1.825547 0.60884,-3.0117777 2.41172,-11.1518377 2.59067,-11.69695366 0.0665,-0.202729 0.17783,-0.311776 0.24728,-0.242327 0.14088,0.14088 0.0177,0.78921996 -1.19739,6.29946696 -1.53303,6.9523087 -1.62941,7.4830477 -1.38843,7.6455607 0.1302,0.08781 0.3117,0.363041 0.40333,0.611632 0.17729,0.480987 0.8402,0.693515 6.30463,2.021273 l 3.33483,0.810302 2.08913,-0.766867 c 1.14903,-0.421776 3.10117,-1.119182 4.33809,-1.549791 1.23693,-0.430609 4.12445,-1.449398 6.41671,-2.263976 4.55393,-1.618284 4.43121,-1.583801 4.43121,-1.24515 0,0.129745 -0.32742,0.311558 -0.7276,0.404029 -0.40019,0.09247 -1.8587,0.573732 -3.24115,1.069469 -1.38245,0.495738 -4.59713,1.631591 -7.14375,2.524119 -2.54661,0.892529 -4.72434,1.71488 -4.83938,1.827449 -0.11505,0.112568 1.13511,0.52416 2.77813,0.914648 1.64301,0.390488 3.85037,0.915485 4.90525,1.166661 1.05487,0.251176 1.91808,0.554003 1.91823,0.67295 1.5e-4,0.118947 -0.21829,0.146897 -0.48543,0.06211 -0.26714,-0.08479 -1.78518,-0.458665 -3.37344,-0.830844 -1.58825,-0.372178 -3.82456,-0.896384 -4.96956,-1.164902 l -2.08184,-0.488214 -5.06192,1.808083 c -6.39105,2.282839 -5.98796,2.112981 -5.98796,2.523269 0,0.19215 -0.32742,0.606062 -0.7276,0.919803 -0.61225,0.480002 -0.81755,0.996899 -1.29495,3.260349 -0.89175,4.228063 -2.194258,10.26023 -2.464995,11.415935 -0.190688,0.813985 -0.159796,1.149138 0.136046,1.476042 0.438019,0.48401 0.494909,1.086702 0.137125,1.452829 -0.152408,0.155964 0.312624,1.155055 1.225354,2.632605 2.90381,4.700733 5.03633,8.212526 5.34217,8.797395 0.53021,1.013942 -0.0713,0.64969 -0.65896,-0.399057 z M 33.079925,38.918847 c 0.0013,-0.09357 0.419822,-2.07513 0.930111,-4.403463 2.892265,-13.196741 3.277245,-12.034667 -3.2195,-9.718149 -6.256372,2.230808 -6.095643,1.926328 -3.369527,6.383113 1.121981,1.834269 2.688447,4.427511 3.481038,5.762757 1.254895,2.114074 2.164765,2.939497 2.177878,1.975742 z M 28.467148,25.236324 c 1.444347,-0.519575 3.550361,-1.256493 4.680029,-1.63759 1.697844,-0.572778 2.143544,-0.844775 2.570764,-1.568859 0.28425,-0.481772 0.6742,-0.87595 0.86654,-0.87595 0.60193,0 1.3618,-4.206642 0.86002,-4.761098 -0.21898,-0.241969 -0.39814,-0.556446 -0.39814,-0.698837 0,-0.142391 -0.80367,-0.459129 -1.78594,-0.703861 -1.736496,-0.43265 -10.635108,-2.573566 -16.686071,-4.014499 -4.261618,-1.0148317 -4.229296,-1.1911477 -0.809593,4.416398 1.622002,2.65972 3.661,6.00569 4.531104,7.435488 0.870103,1.4298 1.776714,2.658779 2.01469,2.731071 0.237977,0.07229 0.611278,0.234905 0.829559,0.361368 0.565412,0.327578 0.45022,0.351247 3.327038,-0.683631 z m 17.926493,-6.358038 2.07125,-0.747111 -4.44484,-1.07597 c -4.13483,-1.000926 -4.47536,-1.045449 -4.88244,-0.638364 -0.24068,0.240683 -0.55366,0.482253 -0.6955,0.536824 -0.41271,0.158784 -1.14654,4.259817 -0.8304,4.640743 0.26732,0.322096 0.9102,0.123265 8.78193,-2.716122 z m -0.0207,33.314088 c 0.54923,-0.143529 0.68525,-2.198865 0.14552,-2.198865 -0.24694,0 -0.24694,-0.07056 0,-0.3175 0.47809,-0.478092 0.78275,0.01603 0.88907,1.441979 0.093,1.247037 0.0875,1.256533 -0.70195,1.226079 -0.44566,-0.0172 -0.59198,-0.08392 -0.33264,-0.151693 z M 25.04096,51.899215 c -0.08202,-0.132707 0.144862,-0.517472 0.50418,-0.855032 0.809934,-0.760894 0.866187,-1.579841 0.108521,-1.579841 -0.29963,0 -0.471196,0.119063 -0.381259,0.264584 0.08994,0.14552 0.03743,0.264583 -0.116676,0.264583 -0.445921,0 -0.324789,-0.486685 0.189653,-0.762005 1.10776,-0.592855 1.92156,0.949872 0.853064,1.617157 -0.68976,0.430763 -0.680421,0.83362 0.01511,0.651735 0.345816,-0.09043 0.507209,-0.02933 0.442619,0.167579 -0.124815,0.3805 -1.409311,0.564393 -1.61521,0.23124 z m 17.826231,-0.582789 c -0.3638,-0.11651 -0.53158,-0.223706 -0.37283,-0.23821 0.27777,-0.02537 1.05472,-2.707238 0.98867,-3.412694 -0.0506,-0.540276 2.56157,-0.305731 2.91766,0.261977 0.42318,0.674669 -0.47256,1.536843 -1.59668,1.536843 -1.02478,0 -1.69606,1.053478 -1.11636,1.751976 0.3321,0.400158 0.17595,0.419214 -0.82046,0.100108 z m 2.74982,-2.535182 c 0.32932,-0.85819 0.16851,-1.168985 -0.60484,-1.168985 -0.74322,0 -1.08665,0.383125 -1.08665,1.212265 0,0.531299 1.48559,0.493287 1.69149,-0.04328 z m -24.408186,2.093738 c 0.613101,-0.163002 1.461127,-3.517379 0.968269,-3.829998 -0.208796,-0.13244 0.157131,-0.219966 0.929889,-0.222424 2.078646,-0.0066 2.867205,0.721468 1.813856,1.674733 -0.685231,0.620125 -0.942636,0.542914 -0.464724,-0.139399 0.298166,-0.425693 0.328337,-0.668861 0.114898,-0.926041 -0.367718,-0.443074 -1.546389,-0.456774 -1.551181,-0.01805 -0.0021,0.181901 -0.07285,0.588854 -0.157477,0.904341 -0.121119,0.451543 -0.02183,0.598712 0.466635,0.69157 l 0.620495,0.117965 -0.601861,0.03603 c -0.736616,0.0441 -1.346086,1.315593 -0.797454,1.663673 0.206523,0.13103 -0.07635,0.205833 -0.717351,0.189699 -0.582084,-0.01466 -0.862881,-0.0786 -0.623994,-0.142119 z M 37.198761,40.18333 c 0.89786,-0.91949 0.75521,-1.804717 -0.15323,-0.950917 -0.25566,0.240276 -0.30253,0.220736 -0.20827,-0.08682 0.11974,-0.390723 2.06093,-0.601784 2.0611,-0.224099 5e-5,0.09503 -0.4464,0.550016 -0.99211,1.011089 l -0.99218,0.838316 1.01367,-0.138046 c 0.84572,-0.115176 0.96294,-0.07693 0.7075,0.23086 -0.17993,0.216807 -0.73375,0.351856 -1.34324,0.327551 l -1.03708,-0.04136 z M -1.2250992,36.433613 c 0.64681204,-1.040956 1.04929404,-3.157048 0.64878704,-3.411075 -0.51309404,-0.325437 2.10381196,-0.280188 2.71506696,0.04694 1.207982,0.646494 0.126265,2.107359 -1.56042096,2.107359 -0.868338,0 -0.892766,0.02871 -0.788007,0.926042 0.100998,0.865124 0.05899,0.926041 -0.638611,0.926041 -0.70759004,0 -0.72733604,-0.0312 -0.37681504,-0.595312 z m 2.715486,-1.723843 c 0.706498,-0.465428 0.686271,-1.361051 -0.03482,-1.542034 -0.80561096,-0.202197 -1.07916496,0.0072 -1.32853796,1.016919 -0.185056,0.749305 0.577322,1.042945 1.36336196,0.525115 z m 1.780726,-1.120428 c 0.155367,-0.582083 0.436482,-1.058333 0.6247,-1.058333 0.437068,0 0.431938,0.05848 -0.103665,1.181647 -0.596422,1.250712 -0.870471,1.185852 -0.521035,-0.123314 z M 20.959694,32.742675 c -0.771404,-0.771403 0.144846,-2.592916 1.304274,-2.592916 0.602461,0 0.900504,0.493972 0.524756,0.86972 -0.216207,0.216206 -0.294447,0.174929 -0.294447,-0.155345 0,-0.961533 -0.99228,-0.317043 -1.213297,0.788043 -0.197051,0.985263 0.1247,1.23672 1.124947,0.879181 0.698736,-0.249761 0.714825,-0.240879 0.236218,0.1304 -0.619139,0.480295 -1.252607,0.510762 -1.682451,0.08092 z m 19.566787,-4.510299 c -0.80036,-0.800354 0.23443,-2.777916 1.30684,-2.497473 0.48932,0.127957 0.65882,-0.305081 0.52446,-1.339832 -0.0236,-0.181901 0.14086,-0.330729 0.36552,-0.330729 0.51207,0 0.51474,0.426035 0.0116,1.852083 -0.45611,1.29276 -0.54886,2.502091 -0.14263,1.859746 0.13538,-0.214066 0.31092,-0.324437 0.39009,-0.245269 0.0792,0.07917 -0.0254,0.373378 -0.23238,0.653796 -0.2939,0.398177 -0.44706,0.440124 -0.69926,0.191506 -0.21069,-0.207711 -0.47864,-0.235003 -0.77102,-0.07853 -0.28924,0.154797 -0.55627,0.131646 -0.75321,-0.0653 z m 1.35636,-1.082331 c 0.17472,-0.524396 0.15601,-0.843492 -0.062,-1.058333 -0.40308,-0.397161 -1.07028,0.444352 -1.07028,1.349891 0,0.88434 0.81003,0.675767 1.13231,-0.291558 z m -42.14273016,-15.8298 c 0,-0.09701 0.09645,-0.216077 0.214329,-0.264584 0.440099,-0.181096 1.12286696,-3.2227367 0.773267,-3.4448027 -0.179687,-0.114137 0.34247096,-0.208983 1.16281896,-0.211215 1.844097,-0.005 2.371639,0.441937 1.711241,1.449833 -0.342957,0.523419 -0.655525,0.662782 -1.486506,0.662782 -1.066128,0 -1.23891996,0.273339 -1.087173,1.7197917 0.01527,0.145521 -0.26828296,0.264583 -0.63010996,0.264583 -0.361827,0 -0.657867,-0.07937 -0.657867,-0.176388 z M 2.8621938,8.9301753 c 0.620299,-0.620299 0.376662,-1.27 -0.47625,-1.27 -0.436562,0 -0.795376,0.0893 -0.797363,0.198438 -0.002,0.10914 -0.07541,0.466328 -0.16315,0.79375 -0.181496,0.677251 0.839839,0.874736 1.436763,0.277812 z M 43.145441,10.719347 c -0.24592,-0.29632 -0.22922,-0.7200207 0.0756,-1.9167117 0.2152,-0.844965 0.34338,-1.613803 0.28483,-1.70853 -0.0585,-0.09473 0.085,-0.245691 0.31897,-0.335475 0.36063,-0.138388 0.39811,-0.01779 0.24618,0.79207 -0.12553,0.669135 -0.0914,0.901058 0.11384,0.7742 0.424,-0.262051 1.06361,0.361898 1.06361,1.037573 0,1.2037907 -1.45235,2.1408587 -2.103,1.3568737 z m 1.38382,-0.7693317 c 0.31772,-0.953156 0.0597,-1.672323 -0.44862,-1.250452 -0.20228,0.167879 -0.44264,0.603482 -0.53413,0.968008 -0.33,1.3148427 0.55393,1.5688877 0.98275,0.282444 z M 16.825624,6.9304123 c -0.679979,-0.679979 0.809517,-3.074399 1.536941,-2.470691 0.189169,0.156996 0.437539,0.197182 0.551936,0.0893 0.114398,-0.107878 0.128297,0.399171 0.03089,1.126775 -0.125772,0.939464 -0.09843,1.207881 0.09434,0.926042 0.238122,-0.348152 0.271944,-0.345176 0.2755,0.02424 0.004,0.418114 -2.116592,0.677339 -2.489602,0.304331 z m 1.504498,-0.932611 c 0.134926,-0.404983 0.165713,-0.940764 0.06842,-1.190625 -0.245473,-0.630368 -1.195928,0.51923 -1.195928,1.446503 0,0.896899 0.804254,0.714381 1.127512,-0.255878 z"
       id="path881" />
  </g>
</svg>
