<?xml version="1.0" encoding="UTF-8" standalone="no"?>
<svg
   width="173.68306mm"
   height="90.93103mm"
   viewBox="0 0 173.68306 90.931031"
   version="1.1"
   id="svg8"
   inkscape:version="1.1 (c4e8f9ed74, 2021-05-24)"
   sodipodi:docname="dual-fanovy-roviny.svg"
   xmlns:inkscape="http://www.inkscape.org/namespaces/inkscape"
   xmlns:sodipodi="http://sodipodi.sourceforge.net/DTD/sodipodi-0.dtd"
   xmlns="http://www.w3.org/2000/svg"
   xmlns:svg="http://www.w3.org/2000/svg"
   xmlns:rdf="http://www.w3.org/1999/02/22-rdf-syntax-ns#"
   xmlns:cc="http://creativecommons.org/ns#"
   xmlns:dc="http://purl.org/dc/elements/1.1/">
  <defs
     id="defs2">
    <clipPath
       clipPathUnits="userSpaceOnUse"
       id="clipPath863">
      <path
         d="M 37.9419,522.302 H 418.921 v 199.46 H 37.9419 Z"
         id="path861" />
    </clipPath>
    <clipPath
       clipPathUnits="userSpaceOnUse"
       id="clipPath907">
      <path
         d="M -1,-1 H 5.885 V 5.428 H -1 Z"
         id="path905" />
    </clipPath>
    <clipPath
       clipPathUnits="userSpaceOnUse"
       id="clipPath959">
      <path
         d="M -1,-1 H 6.452 V 7.918 H -1 Z"
         id="path957" />
    </clipPath>
    <clipPath
       clipPathUnits="userSpaceOnUse"
       id="clipPath975">
      <path
         d="M -1,-1 H 6.258 V 5.428 H -1 Z"
         id="path973" />
    </clipPath>
    <clipPath
       clipPathUnits="userSpaceOnUse"
       id="clipPath991">
      <path
         d="M -1,-1 H 7.092 V 7.918 H -1 Z"
         id="path989" />
    </clipPath>
    <clipPath
       clipPathUnits="userSpaceOnUse"
       id="clipPath1007">
      <path
         d="M -1,-1 H 6.103 V 5.428 H -1 Z"
         id="path1005" />
    </clipPath>
    <clipPath
       clipPathUnits="userSpaceOnUse"
       id="clipPath1023">
      <path
         d="M -1,-1 H 6.207 V 7.918 H -1 Z"
         id="path1021" />
    </clipPath>
    <clipPath
       clipPathUnits="userSpaceOnUse"
       id="clipPath1039">
      <path
         d="M -1,-1 H 7.061 V 7.365 H -1 Z"
         id="path1037" />
    </clipPath>
    <clipPath
       clipPathUnits="userSpaceOnUse"
       id="clipPath1055">
      <path
         d="M -1,-1 H 11.568 V 9.413 H -1 Z"
         id="path1053" />
    </clipPath>
    <clipPath
       clipPathUnits="userSpaceOnUse"
       id="clipPath1075">
      <path
         d="M -1,-1 H 11.568 V 9.413 H -1 Z"
         id="path1073" />
    </clipPath>
    <clipPath
       clipPathUnits="userSpaceOnUse"
       id="clipPath1095">
      <path
         d="M -1,-1 H 11.568 V 9.413 H -1 Z"
         id="path1093" />
    </clipPath>
    <clipPath
       clipPathUnits="userSpaceOnUse"
       id="clipPath1115">
      <path
         d="M -1,-1 H 11.568 V 9.413 H -1 Z"
         id="path1113" />
    </clipPath>
    <clipPath
       clipPathUnits="userSpaceOnUse"
       id="clipPath1135">
      <path
         d="M -1,-1 H 11.568 V 9.413 H -1 Z"
         id="path1133" />
    </clipPath>
    <clipPath
       clipPathUnits="userSpaceOnUse"
       id="clipPath1155">
      <path
         d="M -1,-1 H 11.568 V 9.413 H -1 Z"
         id="path1153" />
    </clipPath>
    <clipPath
       clipPathUnits="userSpaceOnUse"
       id="clipPath1175">
      <path
         d="M -1,-1 H 11.568 V 9.413 H -1 Z"
         id="path1173" />
    </clipPath>
    <clipPath
       clipPathUnits="userSpaceOnUse"
       id="clipPath1199">
      <path
         d="M -1,-1 H 114.343 V 12.955 H -1 Z"
         id="path1197" />
    </clipPath>
    <clipPath
       clipPathUnits="userSpaceOnUse"
       id="clipPath1279">
      <path
         d="M -1,-1 H 167.126 V 12.955 H -1 Z"
         id="path1277" />
    </clipPath>
    <clipPath
       clipPathUnits="userSpaceOnUse"
       id="clipPath1391">
      <path
         d="M -1,-1 H 192.803 V 12.955 H -1 Z"
         id="path1389" />
    </clipPath>
    <clipPath
       clipPathUnits="userSpaceOnUse"
       id="clipPath1533">
      <path
         d="M -1,-1 H 142.248 V 12.955 H -1 Z"
         id="path1531" />
    </clipPath>
    <clipPath
       clipPathUnits="userSpaceOnUse"
       id="clipPath32">
      <path
         d="M 37.9419,522.302 H 418.921 v 199.46 H 37.9419 Z"
         id="path30" />
    </clipPath>
    <clipPath
       clipPathUnits="userSpaceOnUse"
       id="clipPath104">
      <path
         d="M -1,-1 H 5.885 V 5.428 H -1 Z"
         id="path102" />
    </clipPath>
    <clipPath
       clipPathUnits="userSpaceOnUse"
       id="clipPath156">
      <path
         d="M -1,-1 H 6.452 V 7.918 H -1 Z"
         id="path154" />
    </clipPath>
    <clipPath
       clipPathUnits="userSpaceOnUse"
       id="clipPath172">
      <path
         d="M -1,-1 H 6.258 V 5.428 H -1 Z"
         id="path170" />
    </clipPath>
    <clipPath
       clipPathUnits="userSpaceOnUse"
       id="clipPath188">
      <path
         d="M -1,-1 H 7.092 V 7.918 H -1 Z"
         id="path186" />
    </clipPath>
    <clipPath
       clipPathUnits="userSpaceOnUse"
       id="clipPath204">
      <path
         d="M -1,-1 H 6.103 V 5.428 H -1 Z"
         id="path202" />
    </clipPath>
    <clipPath
       clipPathUnits="userSpaceOnUse"
       id="clipPath220">
      <path
         d="M -1,-1 H 6.207 V 7.918 H -1 Z"
         id="path218" />
    </clipPath>
    <clipPath
       clipPathUnits="userSpaceOnUse"
       id="clipPath236">
      <path
         d="M -1,-1 H 7.061 V 7.365 H -1 Z"
         id="path234" />
    </clipPath>
    <clipPath
       clipPathUnits="userSpaceOnUse"
       id="clipPath252">
      <path
         d="M -1,-1 H 11.568 V 9.413 H -1 Z"
         id="path250" />
    </clipPath>
    <clipPath
       clipPathUnits="userSpaceOnUse"
       id="clipPath272">
      <path
         d="M -1,-1 H 11.568 V 9.413 H -1 Z"
         id="path270" />
    </clipPath>
    <clipPath
       clipPathUnits="userSpaceOnUse"
       id="clipPath292">
      <path
         d="M -1,-1 H 11.568 V 9.413 H -1 Z"
         id="path290" />
    </clipPath>
    <clipPath
       clipPathUnits="userSpaceOnUse"
       id="clipPath312">
      <path
         d="M -1,-1 H 11.568 V 9.413 H -1 Z"
         id="path310" />
    </clipPath>
    <clipPath
       clipPathUnits="userSpaceOnUse"
       id="clipPath332">
      <path
         d="M -1,-1 H 11.568 V 9.413 H -1 Z"
         id="path330" />
    </clipPath>
    <clipPath
       clipPathUnits="userSpaceOnUse"
       id="clipPath352">
      <path
         d="M -1,-1 H 11.568 V 9.413 H -1 Z"
         id="path350" />
    </clipPath>
    <clipPath
       clipPathUnits="userSpaceOnUse"
       id="clipPath372">
      <path
         d="M -1,-1 H 11.568 V 9.413 H -1 Z"
         id="path370" />
    </clipPath>
    <clipPath
       clipPathUnits="userSpaceOnUse"
       id="clipPath398">
      <path
         d="M -1,-1 H 5.885 V 5.428 H -1 Z"
         id="path396" />
    </clipPath>
    <clipPath
       clipPathUnits="userSpaceOnUse"
       id="clipPath450">
      <path
         d="M -1,-1 H 6.452 V 7.918 H -1 Z"
         id="path448" />
    </clipPath>
    <clipPath
       clipPathUnits="userSpaceOnUse"
       id="clipPath466">
      <path
         d="M -1,-1 H 6.258 V 5.428 H -1 Z"
         id="path464" />
    </clipPath>
    <clipPath
       clipPathUnits="userSpaceOnUse"
       id="clipPath482">
      <path
         d="M -1,-1 H 7.092 V 7.918 H -1 Z"
         id="path480" />
    </clipPath>
    <clipPath
       clipPathUnits="userSpaceOnUse"
       id="clipPath498">
      <path
         d="M -1,-1 H 6.103 V 5.428 H -1 Z"
         id="path496" />
    </clipPath>
    <clipPath
       clipPathUnits="userSpaceOnUse"
       id="clipPath514">
      <path
         d="M -1,-1 H 6.207 V 7.918 H -1 Z"
         id="path512" />
    </clipPath>
    <clipPath
       clipPathUnits="userSpaceOnUse"
       id="clipPath530">
      <path
         d="M -1,-1 H 7.061 V 7.365 H -1 Z"
         id="path528" />
    </clipPath>
    <clipPath
       clipPathUnits="userSpaceOnUse"
       id="clipPath546">
      <path
         d="M -1,-1 H 11.568 V 9.413 H -1 Z"
         id="path544" />
    </clipPath>
    <clipPath
       clipPathUnits="userSpaceOnUse"
       id="clipPath566">
      <path
         d="M -1,-1 H 11.568 V 9.413 H -1 Z"
         id="path564" />
    </clipPath>
    <clipPath
       clipPathUnits="userSpaceOnUse"
       id="clipPath586">
      <path
         d="M -1,-1 H 11.568 V 9.413 H -1 Z"
         id="path584" />
    </clipPath>
    <clipPath
       clipPathUnits="userSpaceOnUse"
       id="clipPath606">
      <path
         d="M -1,-1 H 11.568 V 9.413 H -1 Z"
         id="path604" />
    </clipPath>
    <clipPath
       clipPathUnits="userSpaceOnUse"
       id="clipPath626">
      <path
         d="M -1,-1 H 11.568 V 9.413 H -1 Z"
         id="path624" />
    </clipPath>
    <clipPath
       clipPathUnits="userSpaceOnUse"
       id="clipPath646">
      <path
         d="M -1,-1 H 11.568 V 9.413 H -1 Z"
         id="path644" />
    </clipPath>
    <clipPath
       clipPathUnits="userSpaceOnUse"
       id="clipPath666">
      <path
         d="M -1,-1 H 11.568 V 9.413 H -1 Z"
         id="path664" />
    </clipPath>
    <clipPath
       clipPathUnits="userSpaceOnUse"
       id="clipPath766">
      <path
         d="M -1,-1 H 55.241 V 9.856 H -1 Z"
         id="path764" />
    </clipPath>
    <clipPath
       clipPathUnits="userSpaceOnUse"
       id="clipPath824">
      <path
         d="M -1,-1 H 5.885 V 5.428 H -1 Z"
         id="path822" />
    </clipPath>
    <clipPath
       clipPathUnits="userSpaceOnUse"
       id="clipPath840">
      <path
         d="M -1,-1 H 6.452 V 7.918 H -1 Z"
         id="path838" />
    </clipPath>
    <clipPath
       clipPathUnits="userSpaceOnUse"
       id="clipPath856">
      <path
         d="M -1,-1 H 6.258 V 5.428 H -1 Z"
         id="path854" />
    </clipPath>
    <clipPath
       clipPathUnits="userSpaceOnUse"
       id="clipPath872">
      <path
         d="M -1,-1 H 7.092 V 7.918 H -1 Z"
         id="path870" />
    </clipPath>
    <clipPath
       clipPathUnits="userSpaceOnUse"
       id="clipPath888">
      <path
         d="M -1,-1 H 6.103 V 5.428 H -1 Z"
         id="path886" />
    </clipPath>
    <clipPath
       clipPathUnits="userSpaceOnUse"
       id="clipPath904">
      <path
         d="M -1,-1 H 6.207 V 7.918 H -1 Z"
         id="path902" />
    </clipPath>
    <clipPath
       clipPathUnits="userSpaceOnUse"
       id="clipPath920">
      <path
         d="M -1,-1 H 7.061 V 7.365 H -1 Z"
         id="path918" />
    </clipPath>
    <clipPath
       clipPathUnits="userSpaceOnUse"
       id="clipPath936">
      <path
         d="M -1,-1 H 21.423 V 9.856 H -1 Z"
         id="path934" />
    </clipPath>
    <clipPath
       clipPathUnits="userSpaceOnUse"
       id="clipPath994">
      <path
         d="M -1,-1 H 11.568 V 9.413 H -1 Z"
         id="path992" />
    </clipPath>
    <clipPath
       clipPathUnits="userSpaceOnUse"
       id="clipPath1014">
      <path
         d="M -1,-1 H 11.568 V 9.413 H -1 Z"
         id="path1012" />
    </clipPath>
    <clipPath
       clipPathUnits="userSpaceOnUse"
       id="clipPath1034">
      <path
         d="M -1,-1 H 11.568 V 9.413 H -1 Z"
         id="path1032" />
    </clipPath>
    <clipPath
       clipPathUnits="userSpaceOnUse"
       id="clipPath1054">
      <path
         d="M -1,-1 H 11.568 V 9.413 H -1 Z"
         id="path1052" />
    </clipPath>
    <clipPath
       clipPathUnits="userSpaceOnUse"
       id="clipPath1074">
      <path
         d="M -1,-1 H 11.568 V 9.413 H -1 Z"
         id="path1072" />
    </clipPath>
    <clipPath
       clipPathUnits="userSpaceOnUse"
       id="clipPath1094">
      <path
         d="M -1,-1 H 11.568 V 9.413 H -1 Z"
         id="path1092" />
    </clipPath>
    <clipPath
       clipPathUnits="userSpaceOnUse"
       id="clipPath1114">
      <path
         d="M -1,-1 H 11.568 V 9.413 H -1 Z"
         id="path1112" />
    </clipPath>
    <clipPath
       clipPathUnits="userSpaceOnUse"
       id="clipPath1134">
      <path
         d="M -1,-1 H 29.311 V 9.856 H -1 Z"
         id="path1132" />
    </clipPath>
    <clipPath
       clipPathUnits="userSpaceOnUse"
       id="clipPath1150">
      <path
         d="M -1,-1 H 47.354 V 9.856 H -1 Z"
         id="path1148" />
    </clipPath>
  </defs>
  <sodipodi:namedview
     id="base"
     pagecolor="#ffffff"
     bordercolor="#666666"
     borderopacity="1.0"
     inkscape:pageopacity="0.0"
     inkscape:pageshadow="2"
     inkscape:zoom="0.01"
     inkscape:cx="-35000"
     inkscape:cy="-7350"
     inkscape:document-units="mm"
     inkscape:current-layer="layer1"
     inkscape:document-rotation="0"
     showgrid="false"
     fit-margin-top="0"
     fit-margin-left="0"
     fit-margin-right="0"
     fit-margin-bottom="0"
     inkscape:window-width="1920"
     inkscape:window-height="1080"
     inkscape:window-x="0"
     inkscape:window-y="0"
     inkscape:window-maximized="1"
     inkscape:pagecheckerboard="0" />
  <metadata
     id="metadata5">
    <rdf:RDF>
      <cc:Work
         rdf:about="">
        <dc:format>image/svg+xml</dc:format>
        <dc:type
           rdf:resource="http://purl.org/dc/dcmitype/StillImage" />
      </cc:Work>
    </rdf:RDF>
  </metadata>
  <g
     inkscape:label="Layer 1"
     inkscape:groupmode="layer"
     id="layer1"
     transform="translate(31.344643,9.5008665)">
    <path
       d="M 83.718288,69.375573 128.62775,39.311549 v 0"
       style="fill:none;stroke:#ff0000;stroke-width:0.352027;stroke-linecap:butt;stroke-linejoin:round;stroke-miterlimit:10;stroke-dasharray:none;stroke-opacity:1"
       id="path36" />
    <path
       d="M 136.11273,64.364902 H 81.223293 86.213282"
       style="fill:none;stroke:#ff0000;stroke-width:0.352027;stroke-linecap:butt;stroke-linejoin:round;stroke-miterlimit:10;stroke-dasharray:none;stroke-opacity:1"
       id="path40" />
    <path
       d="m 123.63776,51.838446 c 0,-6.91822 -5.58535,-12.526897 -12.47497,-12.526897 -6.88962,0 -12.474535,5.608677 -12.474535,12.526897 0,6.918219 5.584915,12.526456 12.474535,12.526456 6.88962,0 12.47497,-5.608237 12.47497,-12.526456"
       style="fill:none;stroke:#ff0000;stroke-width:0.352027;stroke-linecap:butt;stroke-linejoin:round;stroke-miterlimit:10;stroke-dasharray:none;stroke-opacity:1"
       id="path44" />
    <path
       d="M 111.16279,71.881129 V 9.247965"
       style="fill:none;stroke:#ff0000;stroke-width:0.352027;stroke-linecap:butt;stroke-linejoin:round;stroke-miterlimit:10;stroke-dasharray:none;stroke-opacity:1"
       id="path48" />
    <path
       d="M 116.15278,14.258636 88.708277,69.375573"
       style="fill:none;stroke:#ff0000;stroke-width:0.352027;stroke-linecap:butt;stroke-linejoin:round;stroke-miterlimit:10;stroke-dasharray:none;stroke-opacity:1"
       id="path52" />
    <path
       d="m 106.17324,14.258636 27.4445,55.116937"
       style="fill:none;stroke:#ff8c00;stroke-width:0.352027;stroke-linecap:butt;stroke-linejoin:round;stroke-miterlimit:10;stroke-dasharray:none;stroke-opacity:1"
       id="path56" />
    <path
       d="M 138.60729,69.375573 93.698266,39.311549"
       style="fill:none;stroke:#ff0000;stroke-width:0.352027;stroke-linecap:butt;stroke-linejoin:round;stroke-miterlimit:10;stroke-dasharray:none;stroke-opacity:1"
       id="path60" />
    <path
       d="M -25.282127,69.375573 19.627291,39.311549 v 0"
       style="fill:none;stroke:#0000ff;stroke-width:0.352027;stroke-linecap:butt;stroke-linejoin:round;stroke-miterlimit:10;stroke-dasharray:none;stroke-opacity:1"
       id="path64" />
    <path
       d="M 2.1623289,71.881129 V 9.247965"
       style="fill:none;stroke:#40e0d0;stroke-width:0.352027;stroke-linecap:butt;stroke-linejoin:round;stroke-miterlimit:10;stroke-dasharray:none;stroke-opacity:1"
       id="path68" />
    <path
       d="m 7.152318,14.258636 -27.4445,55.116937"
       style="fill:none;stroke:#0000ff;stroke-width:0.352027;stroke-linecap:butt;stroke-linejoin:round;stroke-miterlimit:10;stroke-dasharray:none;stroke-opacity:1"
       id="path72" />
    <path
       d="M -2.8274841,14.258636 24.61728,69.375573"
       style="fill:none;stroke:#40e0d0;stroke-width:0.352027;stroke-linecap:butt;stroke-linejoin:round;stroke-miterlimit:10;stroke-dasharray:none;stroke-opacity:1"
       id="path76" />
    <path
       d="m 27.111834,64.364902 h -54.888911 4.989901"
       style="fill:none;stroke:#0000ff;stroke-width:0.352027;stroke-linecap:butt;stroke-linejoin:round;stroke-miterlimit:10;stroke-dasharray:none;stroke-opacity:1"
       id="path80" />
    <path
       d="M 29.606829,69.375573 -15.302281,39.311549"
       style="fill:none;stroke:#0000ff;stroke-width:0.352027;stroke-linecap:butt;stroke-linejoin:round;stroke-miterlimit:10;stroke-dasharray:none;stroke-opacity:1"
       id="path84" />
    <path
       d="m 14.637302,51.838446 c 0,-6.91822 -5.5853559,-12.526897 -12.4749731,-12.526897 -6.8895292,0 -12.4747089,5.608677 -12.4747089,12.526897 0,6.918219 5.5851797,12.526456 12.4747089,12.526456 6.8896172,0 12.4749731,-5.608237 12.4749731,-12.526456"
       style="fill:none;stroke:#0000ff;stroke-width:0.352027;stroke-linecap:butt;stroke-linejoin:round;stroke-miterlimit:10;stroke-dasharray:none;stroke-opacity:1"
       id="path88" />
    <path
       d="m 3.4824319,24.279977 c 0,-0.729137 -0.5909661,-1.320103 -1.320103,-1.320103 -0.7291368,0 -1.32010291,0.590966 -1.32010291,1.320103 0,0.729137 0.59096611,1.320103 1.32010291,1.320103 0.7291369,0 1.320103,-0.590966 1.320103,-1.320103"
       style="fill:#ff8c00;fill-opacity:1;fill-rule:evenodd;stroke:none;stroke-width:0.440034"
       id="path94" />
    <g
       aria-label="a"
       id="text110"
       style="font-size:4.38389px;font-family:CMSSI10;-inkscape-font-specification:CMSSI10;fill:#ff8c00;stroke-width:0.440034">
      <path
         d="m 6.1600045,23.074836 q -0.4773475,0 -0.6614366,0.109169 -0.1840891,0.109169 -0.1840891,0.37246 0,0.209776 0.1369965,0.333929 0.1391372,0.122012 0.3767406,0.122012 0.3275074,0 0.52444,-0.231181 Q 6.551729,23.547902 6.551729,23.1626 v -0.08776 z m 0.7855896,-0.162683 v 1.367825 H 6.551729 v -0.363897 q -0.134856,0.218338 -0.3360697,0.323226 -0.2012137,0.102747 -0.4923314,0.102747 -0.3681783,0 -0.5865166,-0.205494 -0.2161977,-0.207636 -0.2161977,-0.554408 0,-0.404568 0.269712,-0.610063 0.2718526,-0.205495 0.809136,-0.205495 H 6.551729 v -0.03853 q 0,-0.271853 -0.179808,-0.419552 -0.1776674,-0.14984 -0.5008937,-0.14984 -0.2054948,0 -0.4002868,0.04923 -0.194792,0.04923 -0.3746,0.147699 v -0.363897 q 0.2161977,-0.08348 0.419552,-0.124153 0.2033543,-0.04281 0.3960057,-0.04281 0.5201588,0 0.7770274,0.269712 0.2568685,0.269712 0.2568685,0.817699 z"
         id="path2744" />
    </g>
    <path
       d="m -16.477128,64.364902 c 0,-0.729136 -0.591055,-1.320102 -1.320103,-1.320102 -0.729093,0 -1.320103,0.590966 -1.320103,1.320102 0,0.729137 0.59101,1.320103 1.320103,1.320103 0.729048,0 1.320103,-0.590966 1.320103,-1.320103"
       style="fill:#ff0000;fill-opacity:1;fill-rule:evenodd;stroke:none;stroke-width:0.440034"
       id="path116" />
    <path
       d="m -6.4972823,44.32222 c 0,-0.729137 -0.5910541,-1.320103 -1.3201029,-1.320103 -0.7290929,0 -1.3201029,0.590966 -1.3201029,1.320103 0,0.729137 0.59101,1.320103 1.3201029,1.320103 0.7290488,0 1.3201029,-0.590966 1.3201029,-1.320103"
       style="fill:#ff0000;fill-opacity:1;fill-rule:evenodd;stroke:none;stroke-width:0.440034"
       id="path122" />
    <path
       d="m 13.46241,44.32222 c 0,-0.729137 -0.590966,-1.320103 -1.320103,-1.320103 -0.729137,0 -1.320103,0.590966 -1.320103,1.320103 0,0.729137 0.590966,1.320103 1.320103,1.320103 0.729137,0 1.320103,-0.590966 1.320103,-1.320103"
       style="fill:#ff0000;fill-opacity:1;fill-rule:evenodd;stroke:none;stroke-width:0.440034"
       id="path128" />
    <path
       d="m 3.4824319,64.364902 c 0,-0.729136 -0.5909661,-1.320102 -1.320103,-1.320102 -0.7291368,0 -1.32010291,0.590966 -1.32010291,1.320102 0,0.729137 0.59096611,1.320103 1.32010291,1.320103 0.7291369,0 1.320103,-0.590966 1.320103,-1.320103"
       style="fill:#ff0000;fill-opacity:1;fill-rule:evenodd;stroke:none;stroke-width:0.440034"
       id="path134" />
    <path
       d="m 23.442388,64.364902 c 0,-0.729136 -0.591406,-1.320102 -1.320103,-1.320102 -0.729137,0 -1.320103,0.590966 -1.320103,1.320102 0,0.729137 0.590966,1.320103 1.320103,1.320103 0.728697,0 1.320103,-0.590966 1.320103,-1.320103"
       style="fill:#ff0000;fill-opacity:1;fill-rule:evenodd;stroke:none;stroke-width:0.440034"
       id="path140" />
    <path
       d="m 3.4824319,51.003261 c 0,-0.728697 -0.5909661,-1.320103 -1.320103,-1.320103 -0.7291368,0 -1.32010291,0.591406 -1.32010291,1.320103 0,0.729137 0.59096611,1.320103 1.32010291,1.320103 0.7291369,0 1.320103,-0.590966 1.320103,-1.320103"
       style="fill:#ff0000;fill-opacity:1;fill-rule:evenodd;stroke:none;stroke-width:0.440034"
       id="path146" />
    <g
       aria-label="b"
       id="text162"
       style="font-size:4.38389px;font-family:CMSSI10;-inkscape-font-specification:CMSSI10;fill:#ff0000;stroke-width:0.440034">
      <path
         d="m -8.1782302,38.114975 q 0,-0.434536 -0.179808,-0.680702 -0.1776674,-0.248306 -0.4901908,-0.248306 -0.3125234,0 -0.4923314,0.248306 -0.1776675,0.246166 -0.1776675,0.680702 0,0.434536 0.1776675,0.682842 0.179808,0.246166 0.4923314,0.246166 0.3125234,0 0.4901908,-0.246166 0.179808,-0.248306 0.179808,-0.682842 z m -1.3399977,-0.836964 q 0.1241532,-0.214057 0.3125235,-0.316804 0.1905108,-0.104888 0.4538011,-0.104888 0.4366765,0 0.7085291,0.346772 0.2739931,0.346773 0.2739931,0.911884 0,0.56511 -0.2739931,0.911883 -0.2718526,0.346773 -0.7085291,0.346773 -0.2632903,0 -0.4538011,-0.102748 -0.1883703,-0.104888 -0.3125235,-0.318945 v 0.359616 h -0.3960057 v -3.330729 h 0.3960057 z"
         id="path2741" />
    </g>
    <g
       aria-label="c"
       id="text178"
       style="font-size:4.38389px;font-family:CMSSI10;-inkscape-font-specification:CMSSI10;fill:#ff0000;stroke-width:0.440034">
      <path
         d="m 14.280738,37.006151 v 0.368178 q -0.166964,-0.09204 -0.33607,-0.136996 -0.166964,-0.04709 -0.33821,-0.04709 -0.383162,0 -0.595079,0.244025 -0.211916,0.241885 -0.211916,0.680702 0,0.438817 0.211916,0.682842 0.211917,0.241885 0.595079,0.241885 0.171246,0 0.33821,-0.04495 0.169106,-0.04709 0.33607,-0.139137 v 0.363897 q -0.164824,0.07706 -0.342491,0.115591 -0.175527,0.03853 -0.3746,0.03853 -0.541565,0 -0.86051,-0.340351 -0.318945,-0.340351 -0.318945,-0.918305 0,-0.586517 0.321086,-0.922586 0.323226,-0.33607 0.884056,-0.33607 0.181948,0 0.355334,0.03853 0.173387,0.03639 0.33607,0.11131 z"
         id="path2715" />
    </g>
    <g
       aria-label="d"
       id="text194"
       style="font-size:4.38389px;font-family:CMSSI10;-inkscape-font-specification:CMSSI10;fill:#ff0000;stroke-width:0.440034">
      <path
         d="m 9.1430494,49.804901 v -1.297186 h 0.3938651 v 3.330729 H 9.1430494 v -0.359616 q -0.1241532,0.214057 -0.314664,0.318945 -0.1883703,0.102747 -0.4538012,0.102747 -0.4345359,0 -0.7085291,-0.346772 -0.2718525,-0.346773 -0.2718525,-0.911884 0,-0.56511 0.2718525,-0.911883 0.2739932,-0.346773 0.7085291,-0.346773 0.2654309,0 0.4538012,0.104888 0.1905108,0.102748 0.314664,0.316805 z m -1.3421383,0.836963 q 0,0.434536 0.1776674,0.682843 0.179808,0.246165 0.4923315,0.246165 0.3125234,0 0.4923314,-0.246165 0.179808,-0.248307 0.179808,-0.682843 0,-0.434536 -0.179808,-0.680701 -0.179808,-0.248307 -0.4923314,-0.248307 -0.3125235,0 -0.4923315,0.248307 -0.1776674,0.246165 -0.1776674,0.680701 z"
         id="path2712" />
    </g>
    <g
       aria-label="e"
       id="text210"
       style="font-size:4.38389px;font-family:CMSSI10;-inkscape-font-specification:CMSSI10;fill:#ff0000;stroke-width:0.440034">
      <path
         d="m -17.828385,58.057043 v 0.192651 h -1.810924 q 0.02569,0.406709 0.244025,0.620766 0.220479,0.211916 0.612204,0.211916 0.2269,0 0.438817,-0.05565 0.214057,-0.05566 0.423833,-0.166965 v 0.372459 q -0.211916,0.0899 -0.434536,0.136997 -0.222619,0.04709 -0.45166,0.04709 -0.573674,0 -0.909743,-0.33393 -0.333929,-0.333929 -0.333929,-0.903321 0,-0.588657 0.316804,-0.933289 0.318945,-0.346772 0.858369,-0.346772 0.483769,0 0.764184,0.312523 0.282556,0.310383 0.282556,0.845526 z m -0.393865,-0.115591 q -0.0043,-0.323226 -0.181949,-0.515878 -0.175527,-0.192651 -0.466645,-0.192651 -0.329648,0 -0.528721,0.186229 -0.196932,0.18623 -0.2269,0.52444 z"
         id="path2709" />
    </g>
    <g
       aria-label="f"
       id="text226"
       style="font-size:4.38389px;font-family:CMSSI10;-inkscape-font-specification:CMSSI10;fill:#ff0000;stroke-width:0.440034">
      <path
         d="m 6.2841576,66.044843 v 0.327508 H 5.907417 q -0.2119165,0 -0.2953988,0.08562 -0.081342,0.08562 -0.081342,0.308243 v 0.211916 h 0.6485931 v 0.306102 H 5.5306765 v 2.091338 H 5.1346708 V 67.284234 H 4.7579302 v -0.306102 h 0.3767406 v -0.166964 q 0,-0.400287 0.1862297,-0.582236 0.1862297,-0.184089 0.5907977,-0.184089 z"
         id="path2706" />
    </g>
    <g
       aria-label="g"
       id="text242"
       style="font-size:4.38389px;font-family:CMSSI10;-inkscape-font-specification:CMSSI10;fill:#ff0000;stroke-width:0.440034">
      <path
         d="m 26.60801,58.124599 q 0,-0.428114 -0.177667,-0.663577 -0.175527,-0.235463 -0.494472,-0.235463 -0.316805,0 -0.494472,0.235463 -0.175527,0.235463 -0.175527,0.663577 0,0.425974 0.175527,0.661437 0.177667,0.235463 0.494472,0.235463 0.318945,0 0.494472,-0.235463 0.177667,-0.235463 0.177667,-0.661437 z m 0.393866,0.929008 q 0,0.612204 -0.271853,0.909743 -0.271853,0.29968 -0.832682,0.29968 -0.207636,0 -0.391725,-0.03211 -0.184089,-0.02997 -0.357475,-0.09419 v -0.383162 q 0.173386,0.09419 0.342491,0.139137 0.169105,0.04495 0.344632,0.04495 0.387444,0 0.580095,-0.203354 0.192651,-0.201214 0.192651,-0.610063 v -0.194792 q -0.122012,0.211917 -0.312523,0.316805 -0.190511,0.104888 -0.455942,0.104888 -0.440957,0 -0.710669,-0.33607 -0.269712,-0.33607 -0.269712,-0.890478 0,-0.556548 0.269712,-0.892618 0.269712,-0.33607 0.710669,-0.33607 0.265431,0 0.455942,0.104888 0.190511,0.104888 0.312523,0.316805 v -0.363897 h 0.393866 z"
         id="path2703" />
    </g>
    <g
       aria-label="P"
       id="text258"
       style="font-size:4.38389px;font-family:CMSSI10;-inkscape-font-specification:CMSSI10;fill:#40e0d0;stroke-width:0.440034">
      <path
         d="m -7.4590584,14.588985 v 1.200861 h 0.5437051 q 0.3018206,0 0.4666446,-0.156262 0.164824,-0.156262 0.164824,-0.445239 0,-0.286836 -0.164824,-0.443098 -0.164824,-0.156262 -0.4666446,-0.156262 z M -7.8914538,14.23365 h 0.9761005 q 0.5372834,0 0.8112766,0.244026 0.2761337,0.241884 0.2761337,0.710669 0,0.473067 -0.2761337,0.714951 -0.2739932,0.241885 -0.8112766,0.241885 h -0.5437051 v 1.284342 h -0.4323954 z"
         id="path2700" />
    </g>
    <g
       aria-label="1"
       id="text262"
       style="font-size:3.06871px;font-family:CMSS8;-inkscape-font-specification:CMSS8;fill:#40e0d0;stroke-width:0.440034">
      <path
         d="m -5.1402983,17.832208 h 0.4944699 v -1.70667 l -0.5379233,0.107884 v -0.275704 l 0.5349265,-0.107885 h 0.3026755 v 1.982375 h 0.4944699 v 0.254727 h -1.2886185 z"
         id="path2697" />
    </g>
    <g
       aria-label="P"
       id="text278"
       style="font-size:4.38389px;font-family:CMSSI10;-inkscape-font-specification:CMSSI10;fill:#40e0d0;stroke-width:0.440034">
      <path
         d="m -1.914714,4.0941656 v 1.2008606 h 0.5437051 q 0.3018206,0 0.46664459,-0.1562617 0.16482399,-0.1562618 0.16482399,-0.4452389 0,-0.2868366 -0.16482399,-0.4430983 Q -1.0691883,4.0941656 -1.3710089,4.0941656 Z M -2.3471094,3.7388308 h 0.9761005 q 0.53728344,0 0.81127658,0.2440251 0.2761337,0.2418846 0.2761337,0.7106697 0,0.4730663 -0.2761337,0.7149508 Q -0.83372546,5.650361 -1.3710089,5.650361 H -1.914714 v 1.2843428 h -0.4323954 z"
         id="path2491" />
    </g>
    <g
       aria-label="2"
       id="text282"
       style="font-size:3.06871px;font-family:CMSS8;-inkscape-font-specification:CMSS8;fill:#40e0d0;stroke-width:0.440034">
      <path
         d="M 0.61232286,7.337388 H 1.6686904 V 7.5921149 H 0.24821322 V 7.337388 Q 0.42052848,7.1590792 0.71721042,6.8594005 1.0153907,6.5582233 1.0918088,6.4713165 1.237153,6.3079916 1.294092,6.1956121 q 0.058437,-0.1138779 0.058437,-0.2232607 0,-0.1783088 -0.1258651,-0.2906883 -0.1243666,-0.1123795 -0.32515137,-0.1123795 -0.14234739,0 -0.30117711,0.049447 -0.15733133,0.049447 -0.33713856,0.1498393 V 5.4628976 q 0.18280401,-0.073421 0.34163374,-0.1108811 0.15882972,-0.03746 0.29068835,-0.03746 0.34762735,0 0.55440565,0.1738136 0.2067783,0.1738137 0.2067783,0.464502 0,0.1378522 -0.052444,0.2622189 Q 1.553314,6.3379595 1.4169602,6.5057796 1.3795004,6.549233 1.1787156,6.7575097 0.9779309,6.964288 0.61232286,7.337388 Z"
         id="path2488" />
    </g>
    <g
       aria-label="P"
       id="text298"
       style="font-size:4.38389px;font-family:CMSSI10;-inkscape-font-specification:CMSSI10;fill:#0000ff;stroke-width:0.440034">
      <path
         d="m 9.4375995,14.380846 v 1.20086 h 0.5437052 q 0.3018203,0 0.4666443,-0.156261 0.164824,-0.156262 0.164824,-0.445239 0,-0.286837 -0.164824,-0.443098 -0.164824,-0.156262 -0.4666443,-0.156262 z M 9.0052041,14.025511 h 0.9761006 q 0.5372833,0 0.8112763,0.244025 0.276134,0.241885 0.276134,0.71067 0,0.473066 -0.276134,0.714951 -0.273993,0.241884 -0.8112763,0.241884 H 9.4375995 v 1.284343 H 9.0052041 Z"
         id="path2575" />
    </g>
    <g
       aria-label="3"
       id="text302"
       style="font-size:3.06871px;font-family:CMSS8;-inkscape-font-specification:CMSS8;fill:#0000ff;stroke-width:0.440034">
      <path
         d="m 12.620932,16.672589 q 0.217267,0.04645 0.338637,0.193293 0.122868,0.146842 0.122868,0.362611 0,0.331145 -0.227756,0.51245 -0.227756,0.181306 -0.647306,0.181306 -0.140849,0 -0.290688,-0.02847 -0.148341,-0.02697 -0.307171,-0.08241 v -0.292187 q 0.125865,0.07342 0.275705,0.110881 0.149839,0.03746 0.313164,0.03746 0.284695,0 0.433036,-0.112379 0.149839,-0.11238 0.149839,-0.32665 0,-0.197788 -0.139351,-0.308669 -0.137852,-0.11238 -0.385087,-0.11238 h -0.26072 v -0.248733 h 0.272707 q 0.223261,0 0.341634,-0.0884 0.118373,-0.0899 0.118373,-0.257724 0,-0.172315 -0.122868,-0.263717 -0.12137,-0.0929 -0.349126,-0.0929 -0.124366,0 -0.266714,0.02697 -0.142347,0.02697 -0.313164,0.08391 v -0.26971 q 0.172315,-0.04795 0.322154,-0.07192 0.151338,-0.02398 0.284695,-0.02398 0.344631,0 0.545416,0.157332 0.200784,0.155833 0.200784,0.422547 0,0.1858 -0.106386,0.314662 -0.106386,0.127364 -0.302675,0.176811 z"
         id="path2572" />
    </g>
    <g
       aria-label="P"
       id="text318"
       style="font-size:4.38389px;font-family:CMSSI10;-inkscape-font-specification:CMSSI10;fill:#0000ff;stroke-width:0.440034">
      <path
         d="m -21.924526,36.469246 v 1.20086 h 0.543705 q 0.301821,0 0.466645,-0.156261 0.164824,-0.156262 0.164824,-0.445239 0,-0.286837 -0.164824,-0.443099 -0.164824,-0.156261 -0.466645,-0.156261 z m -0.432395,-0.355335 h 0.9761 q 0.537284,0 0.811277,0.244025 0.276134,0.241885 0.276134,0.71067 0,0.473066 -0.276134,0.714951 -0.273993,0.241884 -0.811277,0.241884 h -0.543705 v 1.284343 h -0.432395 z"
         id="path2688" />
    </g>
    <g
       aria-label="4"
       id="text322"
       style="font-size:3.06871px;font-family:CMSS8;-inkscape-font-specification:CMSS8;fill:#0000ff;stroke-width:0.440034">
      <path
         d="m -18.826602,37.993809 -0.764181,1.19422 h 0.764181 z m -0.07941,-0.263717 h 0.380592 v 1.457937 h 0.319158 v 0.25173 h -0.319158 v 0.527435 h -0.301177 v -0.527435 h -1.009917 v -0.292187 z"
         id="path2685" />
    </g>
    <g
       aria-label="P"
       id="text338"
       style="font-size:4.38389px;font-family:CMSSI10;-inkscape-font-specification:CMSSI10;fill:#0000ff;stroke-width:0.440034">
      <path
         d="m 22.984936,36.469246 v 1.20086 h 0.543705 q 0.301821,0 0.466645,-0.156261 0.164824,-0.156262 0.164824,-0.445239 0,-0.286837 -0.164824,-0.443099 -0.164824,-0.156261 -0.466645,-0.156261 z m -0.432395,-0.355335 h 0.9761 q 0.537284,0 0.811277,0.244025 0.276133,0.241885 0.276133,0.71067 0,0.473066 -0.276133,0.714951 -0.273993,0.241884 -0.811277,0.241884 h -0.543705 v 1.284343 h -0.432395 z"
         id="path2750" />
    </g>
    <g
       aria-label="5"
       id="text342"
       style="font-size:3.06871px;font-family:CMSS8;-inkscape-font-specification:CMSS8;fill:#0000ff;stroke-width:0.440034">
      <path
         d="m 25.254248,37.730092 h 1.188226 v 0.254727 h -0.911023 v 0.548412 q 0.06593,-0.02248 0.131859,-0.03296 0.06593,-0.01199 0.131858,-0.01199 0.374599,0 0.593364,0.20528 0.218766,0.20528 0.218766,0.555904 0,0.361113 -0.224759,0.561898 -0.224759,0.199286 -0.633821,0.199286 -0.140849,0 -0.287691,-0.02397 -0.145345,-0.02398 -0.301177,-0.07192 v -0.304174 q 0.134855,0.07342 0.278701,0.109383 0.143846,0.03596 0.304174,0.03596 0.259222,0 0.410559,-0.136354 0.151338,-0.136354 0.151338,-0.370103 0,-0.233749 -0.151338,-0.370103 -0.151337,-0.136354 -0.410559,-0.136354 -0.12137,0 -0.24274,0.02697 -0.119872,0.02697 -0.245737,0.08391 z"
         id="path2747" />
    </g>
    <g
       aria-label="P"
       id="text358"
       style="font-size:4.38389px;font-family:CMSSI10;-inkscape-font-specification:CMSSI10;fill:#0000ff;stroke-width:0.440034">
      <path
         d="m -27.003666,59.017486 v 1.200861 h 0.543706 q 0.30182,0 0.466644,-0.156262 0.164824,-0.156261 0.164824,-0.445239 0,-0.286836 -0.164824,-0.443098 -0.164824,-0.156262 -0.466644,-0.156262 z m -0.432395,-0.355334 h 0.976101 q 0.537283,0 0.811276,0.244025 0.276134,0.241884 0.276134,0.710669 0,0.473067 -0.276134,0.714951 -0.273993,0.241885 -0.811276,0.241885 h -0.543706 v 1.284343 h -0.432395 z"
         id="path2721" />
    </g>
    <g
       aria-label="6"
       id="text362"
       style="font-size:3.06871px;font-family:CMSS8;-inkscape-font-specification:CMSS8;fill:#0000ff;stroke-width:0.440034">
      <path
         d="m -24.052584,61.276263 q -0.203782,0 -0.323653,0.13935 -0.118373,0.139351 -0.118373,0.382091 0,0.241241 0.118373,0.38209 0.119871,0.139351 0.323653,0.139351 0.203781,0 0.322154,-0.139351 0.119872,-0.140849 0.119872,-0.38209 0,-0.24274 -0.119872,-0.382091 -0.118373,-0.13935 -0.322154,-0.13935 z m 0.600856,-0.948483 v 0.275704 q -0.113878,-0.05394 -0.230753,-0.08241 -0.115376,-0.02847 -0.229254,-0.02847 -0.299679,0 -0.458509,0.202283 -0.157331,0.202283 -0.179807,0.611345 0.08841,-0.130361 0.221762,-0.199287 0.133357,-0.07042 0.293685,-0.07042 0.337139,0 0.53193,0.20528 0.19629,0.203781 0.19629,0.555904 0,0.34463 -0.203782,0.552907 -0.203781,0.208277 -0.542418,0.208277 -0.388084,0 -0.593364,-0.296682 -0.20528,-0.298181 -0.20528,-0.863075 0,-0.530431 0.25173,-0.845094 0.25173,-0.316161 0.675776,-0.316161 0.113877,0 0.229254,0.02248 0.116874,0.02248 0.24274,0.06743 z"
         id="path2718" />
    </g>
    <g
       aria-label="P"
       id="text378"
       style="font-size:4.38389px;font-family:CMSSI10;-inkscape-font-specification:CMSSI10;fill:#0000ff;stroke-width:0.440034">
      <path
         d="m -9.4497296,51.501705 v 1.200861 h 0.5437051 q 0.3018206,0 0.4666446,-0.156262 0.164824,-0.156262 0.164824,-0.445239 0,-0.286837 -0.164824,-0.443098 -0.164824,-0.156262 -0.4666446,-0.156262 z M -9.882125,51.14637 h 0.9761005 q 0.5372835,0 0.8112766,0.244025 0.2761337,0.241885 0.2761337,0.71067 0,0.473066 -0.2761337,0.714951 Q -8.368741,53.0579 -8.9060245,53.0579 h -0.5437051 v 1.284343 H -9.882125 Z"
         id="path2694" />
    </g>
    <g
       aria-label="7"
       id="text382"
       style="font-size:3.06871px;font-family:CMSS8;-inkscape-font-specification:CMSS8;fill:#0000ff;stroke-width:0.440034">
      <path
         d="m -7.2598313,52.762555 h 1.4384579 v 0.128862 l -0.8121293,2.10824 h -0.3161611 l 0.7641807,-1.982375 h -1.0743482 z"
         id="path2691" />
    </g>
    <path
       d="m 112.48289,24.279977 c 0,-0.729137 -0.59097,-1.320103 -1.3201,-1.320103 -0.72914,0 -1.32011,0.590966 -1.32011,1.320103 0,0.729137 0.59097,1.320103 1.32011,1.320103 0.72913,0 1.3201,-0.590966 1.3201,-1.320103"
       style="fill:#40e0d0;fill-opacity:1;fill-rule:evenodd;stroke:none;stroke-width:0.440034"
       id="path388" />
    <g
       aria-label="a"
       id="text404"
       style="font-size:4.38389px;font-family:CMSSI10;-inkscape-font-specification:CMSSI10;fill:#ff8c00;stroke-width:0.440034">
      <path
         d="m 105.18092,13.053497 q -0.47735,0 -0.66144,0.109169 -0.18409,0.109169 -0.18409,0.372459 0,0.209776 0.137,0.333929 0.13914,0.122013 0.37674,0.122013 0.32751,0 0.52444,-0.231182 0.19907,-0.233322 0.19907,-0.618625 v -0.08776 z m 0.78559,-0.162684 v 1.367825 h -0.39387 v -0.363897 q -0.13485,0.218339 -0.33607,0.323227 -0.20121,0.102747 -0.49233,0.102747 -0.36818,0 -0.58651,-0.205495 -0.2162,-0.207635 -0.2162,-0.554408 0,-0.404568 0.26971,-0.610063 0.27185,-0.205495 0.80914,-0.205495 h 0.55226 v -0.03853 q 0,-0.271852 -0.1798,-0.419552 -0.17767,-0.14984 -0.5009,-0.14984 -0.20549,0 -0.40028,0.04923 -0.1948,0.04923 -0.3746,0.1477 v -0.363897 q 0.21619,-0.08348 0.41955,-0.124154 0.20335,-0.04281 0.396,-0.04281 0.52016,0 0.77703,0.269712 0.25687,0.269712 0.25687,0.817698 z"
         id="path2647" />
    </g>
    <path
       d="m 92.523374,64.364902 c 0,-0.729136 -0.590966,-1.320102 -1.320102,-1.320102 -0.729137,0 -1.320103,0.590966 -1.320103,1.320102 0,0.729137 0.590966,1.320103 1.320103,1.320103 0.729136,0 1.320102,-0.590966 1.320102,-1.320103"
       style="fill:#0000ff;fill-opacity:1;fill-rule:evenodd;stroke:none;stroke-width:0.440034"
       id="path410" />
    <path
       d="m 102.50335,44.32222 c 0,-0.729137 -0.59096,-1.320103 -1.3201,-1.320103 -0.72914,0 -1.320103,0.590966 -1.320103,1.320103 0,0.729137 0.590963,1.320103 1.320103,1.320103 0.72914,0 1.3201,-0.590966 1.3201,-1.320103"
       style="fill:#0000ff;fill-opacity:1;fill-rule:evenodd;stroke:none;stroke-width:0.440034"
       id="path416" />
    <path
       d="m 122.46287,44.32222 c 0,-0.729137 -0.59097,-1.320103 -1.3201,-1.320103 -0.72914,0 -1.32011,0.590966 -1.32011,1.320103 0,0.729137 0.59097,1.320103 1.32011,1.320103 0.72913,0 1.3201,-0.590966 1.3201,-1.320103"
       style="fill:#40e0d0;fill-opacity:1;fill-rule:evenodd;stroke:none;stroke-width:0.440034"
       id="path422" />
    <path
       d="m 112.48289,64.364902 c 0,-0.729136 -0.59097,-1.320102 -1.3201,-1.320102 -0.72914,0 -1.32011,0.590966 -1.32011,1.320102 0,0.729137 0.59097,1.320103 1.32011,1.320103 0.72913,0 1.3201,-0.590966 1.3201,-1.320103"
       style="fill:#0000ff;fill-opacity:1;fill-rule:evenodd;stroke:none;stroke-width:0.440034"
       id="path428" />
    <path
       d="m 132.44285,64.364902 c 0,-0.729136 -0.59097,-1.320102 -1.32011,-1.320102 -0.72913,0 -1.3201,0.590966 -1.3201,1.320102 0,0.729137 0.59097,1.320103 1.3201,1.320103 0.72914,0 1.32011,-0.590966 1.32011,-1.320103"
       style="fill:#0000ff;fill-opacity:1;fill-rule:evenodd;stroke:none;stroke-width:0.440034"
       id="path434" />
    <path
       d="m 112.48289,51.003261 c 0,-0.728697 -0.59097,-1.320103 -1.3201,-1.320103 -0.72914,0 -1.32011,0.591406 -1.32011,1.320103 0,0.729137 0.59097,1.320103 1.32011,1.320103 0.72913,0 1.3201,-0.590966 1.3201,-1.320103"
       style="fill:#0000ff;fill-opacity:1;fill-rule:evenodd;stroke:none;stroke-width:0.440034"
       id="path440" />
    <g
       aria-label="b"
       id="text456"
       style="font-size:4.38389px;font-family:CMSSI10;-inkscape-font-specification:CMSSI10;fill:#ff0000;stroke-width:0.440034">
      <path
         d="m 83.87668,61.024036 q 0,-0.434536 -0.179808,-0.680702 -0.177667,-0.248306 -0.49019,-0.248306 -0.312524,0 -0.492332,0.248306 -0.177667,0.246166 -0.177667,0.680702 0,0.434536 0.177667,0.682842 0.179808,0.246166 0.492332,0.246166 0.312523,0 0.49019,-0.246166 0.179808,-0.248306 0.179808,-0.682842 z m -1.339997,-0.836963 q 0.124153,-0.214058 0.312523,-0.316805 0.190511,-0.104888 0.453801,-0.104888 0.436677,0 0.708529,0.346773 0.273994,0.346772 0.273994,0.911883 0,0.565111 -0.273994,0.911883 -0.271852,0.346773 -0.708529,0.346773 -0.26329,0 -0.453801,-0.102747 -0.18837,-0.104888 -0.312523,-0.318946 v 0.359616 h -0.396006 v -3.330729 h 0.396006 z"
         id="path2644" />
    </g>
    <g
       aria-label="c"
       id="text472"
       style="font-size:4.38389px;font-family:CMSSI10;-inkscape-font-specification:CMSSI10;fill:#ff0000;stroke-width:0.440034">
      <path
         d="m 110.80622,4.4370129 v 0.3681783 q -0.16696,-0.092045 -0.33607,-0.1369966 -0.16696,-0.047092 -0.33821,-0.047092 -0.38316,0 -0.59507,0.2440251 -0.21192,0.2418846 -0.21192,0.6807017 0,0.4388171 0.21192,0.6828422 0.21191,0.2418846 0.59507,0.2418846 0.17125,0 0.33821,-0.044952 0.16911,-0.047093 0.33607,-0.1391371 v 0.3638971 q -0.16482,0.077061 -0.34249,0.1155909 -0.17552,0.03853 -0.3746,0.03853 -0.54156,0 -0.86051,-0.3403508 -0.31894,-0.3403508 -0.31894,-0.9183051 0,-0.5865166 0.32108,-0.9225863 0.32323,-0.3360697 0.88406,-0.3360697 0.18195,0 0.35533,0.03853 0.17339,0.03639 0.33607,0.1113097 z"
         id="path2635" />
    </g>
    <g
       aria-label="d"
       id="text488"
       style="font-size:4.38389px;font-family:CMSSI10;-inkscape-font-specification:CMSSI10;fill:#ff0000;stroke-width:0.440034">
      <path
         d="m 133.11347,37.27845 v -1.297186 h 0.39387 v 3.330729 h -0.39387 v -0.359616 q -0.12415,0.214057 -0.31466,0.318945 -0.18837,0.102747 -0.4538,0.102747 -0.43454,0 -0.70853,-0.346772 -0.27185,-0.346773 -0.27185,-0.911884 0,-0.565111 0.27185,-0.911883 0.27399,-0.346773 0.70853,-0.346773 0.26543,0 0.4538,0.104888 0.19051,0.102748 0.31466,0.316805 z m -1.34214,0.836963 q 0,0.434536 0.17767,0.682843 0.17981,0.246165 0.49233,0.246165 0.31253,0 0.49234,-0.246165 0.1798,-0.248307 0.1798,-0.682843 0,-0.434536 -0.1798,-0.680701 -0.17981,-0.248307 -0.49234,-0.248307 -0.31252,0 -0.49233,0.248307 -0.17767,0.246165 -0.17767,0.680701 z"
         id="path2632" />
    </g>
    <g
       aria-label="e"
       id="text504"
       style="font-size:4.38389px;font-family:CMSSI10;-inkscape-font-specification:CMSSI10;fill:#ff0000;stroke-width:0.440034">
      <path
         d="m 93.009658,37.40183 v 0.192652 h -1.810923 q 0.02569,0.406708 0.244025,0.620765 0.220479,0.211917 0.612203,0.211917 0.226901,0 0.438817,-0.05565 0.214057,-0.05566 0.423833,-0.166964 v 0.372459 q -0.211916,0.0899 -0.434536,0.136997 -0.222619,0.04709 -0.45166,0.04709 -0.573673,0 -0.909743,-0.333929 -0.333929,-0.333929 -0.333929,-0.903321 0,-0.588657 0.316804,-0.933289 0.318946,-0.346773 0.85837,-0.346773 0.483769,0 0.764184,0.312524 0.282555,0.310382 0.282555,0.845525 z m -0.393865,-0.115591 q -0.0043,-0.323226 -0.181949,-0.515877 -0.175527,-0.192652 -0.466644,-0.192652 -0.329648,0 -0.528721,0.18623 -0.196933,0.18623 -0.226901,0.52444 z"
         id="path2629" />
    </g>
    <g
       aria-label="f"
       id="text520"
       style="font-size:4.38389px;font-family:CMSSI10;-inkscape-font-specification:CMSSI10;fill:#ff0000;stroke-width:0.440034">
      <path
         d="m 101.23388,51.012834 v 0.327507 h -0.37674 q -0.21191,0 -0.2954,0.08562 -0.0813,0.08562 -0.0813,0.308243 v 0.211916 h 0.64859 v 0.306102 h -0.64859 v 2.091338 h -0.396 v -2.091338 h -0.376745 v -0.306102 h 0.376745 v -0.166964 q 0,-0.400287 0.18623,-0.582236 0.18622,-0.184089 0.59079,-0.184089 z"
         id="path2626" />
    </g>
    <g
       aria-label="g"
       id="text536"
       style="font-size:4.38389px;font-family:CMSSI10;-inkscape-font-specification:CMSSI10;fill:#ff0000;stroke-width:0.440034">
      <path
         d="m 118.14351,10.523451 q 0,-0.428115 -0.17767,-0.6635774 -0.17552,-0.2354629 -0.49447,-0.2354629 -0.3168,0 -0.49447,0.2354629 -0.17553,0.2354624 -0.17553,0.6635774 0,0.425973 0.17553,0.661436 0.17767,0.235463 0.49447,0.235463 0.31895,0 0.49447,-0.235463 0.17767,-0.235463 0.17767,-0.661436 z m 0.39387,0.929008 q 0,0.612203 -0.27186,0.909743 -0.27185,0.299679 -0.83268,0.299679 -0.20764,0 -0.39172,-0.03211 -0.18409,-0.02997 -0.35748,-0.09418 v -0.383162 q 0.17339,0.09418 0.34249,0.139137 0.16911,0.04495 0.34463,0.04495 0.38745,0 0.5801,-0.203355 0.19265,-0.201213 0.19265,-0.610062 v -0.194792 q -0.12201,0.211916 -0.31252,0.316804 -0.19051,0.104888 -0.45595,0.104888 -0.44095,0 -0.71066,-0.33607 -0.26972,-0.336069 -0.26972,-0.890477 0,-0.5565489 0.26972,-0.8926186 0.26971,-0.3360697 0.71066,-0.3360697 0.26544,0 0.45595,0.104888 0.19051,0.104888 0.31252,0.3168046 V 9.3525582 h 0.39387 z"
         id="path2623" />
    </g>
    <g
       aria-label="P"
       id="text552"
       style="font-size:4.38389px;font-family:CMSSI10;-inkscape-font-specification:CMSSI10;fill:#40e0d0;stroke-width:0.440034">
      <path
         d="m 114.52043,21.437237 v 1.20086 h 0.54371 q 0.30182,0 0.46664,-0.156262 0.16483,-0.156261 0.16483,-0.445238 0,-0.286837 -0.16483,-0.443099 -0.16482,-0.156261 -0.46664,-0.156261 z m -0.43239,-0.355335 h 0.9761 q 0.53728,0 0.81128,0.244025 0.27613,0.241884 0.27613,0.71067 0,0.473066 -0.27613,0.71495 -0.274,0.241885 -0.81128,0.241885 h -0.54371 v 1.284343 h -0.43239 z"
         id="path2620" />
    </g>
    <g
       aria-label="1"
       id="text556"
       style="font-size:3.06871px;font-family:CMSS8;-inkscape-font-specification:CMSS8;fill:#40e0d0;stroke-width:0.440034">
      <path
         d="m 116.83919,24.680458 h 0.49447 v -1.706671 l -0.53792,0.107885 v -0.275705 l 0.53493,-0.107884 h 0.30267 v 1.982375 h 0.49447 v 0.254726 h -1.28862 z"
         id="path2617" />
    </g>
    <g
       aria-label="P"
       id="text572"
       style="font-size:4.38389px;font-family:CMSSI10;-inkscape-font-specification:CMSSI10;fill:#40e0d0;stroke-width:0.440034">
      <path
         d="m 122.00542,36.469684 v 1.200861 h 0.5437 q 0.30182,0 0.46665,-0.156262 0.16482,-0.156261 0.16482,-0.445239 0,-0.286836 -0.16482,-0.443098 -0.16483,-0.156262 -0.46665,-0.156262 z m -0.4324,-0.355334 h 0.9761 q 0.53729,0 0.81128,0.244025 0.27613,0.241884 0.27613,0.710669 0,0.473067 -0.27613,0.714951 -0.27399,0.241885 -0.81128,0.241885 h -0.5437 v 1.284343 h -0.4324 z"
         id="path2608" />
    </g>
    <g
       aria-label="2"
       id="text576"
       style="font-size:3.06871px;font-family:CMSS8;-inkscape-font-specification:CMSS8;fill:#40e0d0;stroke-width:0.440034">
      <path
         d="m 124.53246,39.712909 h 1.05636 v 0.254727 h -1.42047 v -0.254727 q 0.17231,-0.178309 0.46899,-0.477987 0.29818,-0.301177 0.3746,-0.388084 0.14535,-0.163325 0.20229,-0.275705 0.0584,-0.113878 0.0584,-0.22326 0,-0.178309 -0.12586,-0.290689 -0.12437,-0.112379 -0.32515,-0.112379 -0.14235,0 -0.30118,0.04945 -0.15733,0.04945 -0.33714,0.149839 v -0.305672 q 0.18281,-0.07342 0.34163,-0.110881 0.15883,-0.03746 0.29069,-0.03746 0.34763,0 0.55441,0.173813 0.20678,0.173814 0.20678,0.464503 0,0.137852 -0.0525,0.262218 -0.0509,0.122869 -0.1873,0.290689 -0.0375,0.04345 -0.23824,0.25173 -0.20079,0.206778 -0.56639,0.579878 z"
         id="path2605" />
    </g>
    <g
       aria-label="P"
       id="text592"
       style="font-size:4.38389px;font-family:CMSSI10;-inkscape-font-specification:CMSSI10;fill:#0000ff;stroke-width:0.440034">
      <path
         d="m 131.98539,59.017486 v 1.200861 h 0.54371 q 0.30182,0 0.46664,-0.156262 0.16483,-0.156261 0.16483,-0.445239 0,-0.286836 -0.16483,-0.443098 -0.16482,-0.156262 -0.46664,-0.156262 z M 131.553,58.662152 h 0.9761 q 0.53728,0 0.81127,0.244025 0.27614,0.241884 0.27614,0.710669 0,0.473067 -0.27614,0.714951 -0.27399,0.241885 -0.81127,0.241885 h -0.54371 v 1.284343 H 131.553 Z"
         id="path2653" />
    </g>
    <g
       aria-label="3"
       id="text596"
       style="font-size:3.06871px;font-family:CMSS8;-inkscape-font-specification:CMSS8;fill:#0000ff;stroke-width:0.440034">
      <path
         d="m 135.16872,61.309227 q 0.21727,0.04645 0.33864,0.193293 0.12286,0.146843 0.12286,0.362611 0,0.331145 -0.22775,0.512451 -0.22776,0.181306 -0.64731,0.181306 -0.14085,0 -0.29069,-0.02847 -0.14834,-0.02697 -0.30717,-0.08241 V 62.15582 q 0.12587,0.07342 0.27571,0.110881 0.14984,0.03746 0.31316,0.03746 0.2847,0 0.43304,-0.11238 0.14984,-0.112379 0.14984,-0.32665 0,-0.197788 -0.13935,-0.308669 -0.13786,-0.112379 -0.38509,-0.112379 h -0.26072 V 61.19535 h 0.27271 q 0.22326,0 0.34163,-0.08841 0.11837,-0.0899 0.11837,-0.257723 0,-0.172316 -0.12287,-0.263718 -0.12137,-0.0929 -0.34912,-0.0929 -0.12437,0 -0.26672,0.02697 -0.14234,0.02697 -0.31316,0.08391 v -0.269711 q 0.17232,-0.04795 0.32216,-0.07192 0.15133,-0.02397 0.28469,-0.02397 0.34463,0 0.54542,0.157331 0.20078,0.155833 0.20078,0.422547 0,0.185801 -0.10639,0.314663 -0.10638,0.127363 -0.30267,0.17681 z"
         id="path2650" />
    </g>
    <g
       aria-label="P"
       id="text612"
       style="font-size:4.38389px;font-family:CMSSI10;-inkscape-font-specification:CMSSI10;fill:#0000ff;stroke-width:0.440034">
      <path
         d="m 87.07593,56.511936 v 1.200861 h 0.543705 q 0.301821,0 0.466645,-0.156262 0.164824,-0.156262 0.164824,-0.445239 0,-0.286837 -0.164824,-0.443098 -0.164824,-0.156262 -0.466645,-0.156262 z m -0.432395,-0.355335 h 0.9761 q 0.537284,0 0.811277,0.244025 0.276133,0.241885 0.276133,0.71067 0,0.473066 -0.276133,0.714951 -0.273993,0.241884 -0.811277,0.241884 H 87.07593 v 1.284343 h -0.432395 z"
         id="path2641" />
    </g>
    <g
       aria-label="4"
       id="text616"
       style="font-size:3.06871px;font-family:CMSS8;-inkscape-font-specification:CMSS8;fill:#0000ff;stroke-width:0.440034">
      <path
         d="m 90.173856,58.0365 -0.764181,1.194219 h 0.764181 z m -0.07941,-0.263718 h 0.380592 v 1.457937 h 0.319158 v 0.25173 h -0.319158 v 0.527435 h -0.301177 v -0.527435 h -1.009918 v -0.292186 z"
         id="path2638" />
    </g>
    <g
       aria-label="P"
       id="text632"
       style="font-size:4.38389px;font-family:CMSSI10;-inkscape-font-specification:CMSSI10;fill:#0000ff;stroke-width:0.440034">
      <path
         d="m 114.52043,48.995704 v 1.200861 h 0.54371 q 0.30182,0 0.46664,-0.156262 0.16483,-0.156261 0.16483,-0.445239 0,-0.286836 -0.16483,-0.443098 -0.16482,-0.156262 -0.46664,-0.156262 z m -0.43239,-0.355334 h 0.9761 q 0.53728,0 0.81128,0.244025 0.27613,0.241884 0.27613,0.710669 0,0.473067 -0.27613,0.714951 -0.274,0.241885 -0.81128,0.241885 h -0.54371 v 1.284343 h -0.43239 z"
         id="path2614" />
    </g>
    <g
       aria-label="5"
       id="text636"
       style="font-size:3.06871px;font-family:CMSS8;-inkscape-font-specification:CMSS8;fill:#0000ff;stroke-width:0.440034">
      <path
         d="m 116.78975,50.256555 h 1.18822 v 0.254726 h -0.91102 v 0.548412 q 0.0659,-0.02248 0.13186,-0.03296 0.0659,-0.01199 0.13186,-0.01199 0.3746,0 0.59336,0.20528 0.21877,0.20528 0.21877,0.555904 0,0.361112 -0.22476,0.561897 -0.22476,0.199287 -0.63382,0.199287 -0.14085,0 -0.28769,-0.02398 -0.14535,-0.02397 -0.30118,-0.07192 v -0.304174 q 0.13485,0.07342 0.2787,0.109383 0.14385,0.03596 0.30417,0.03596 0.25923,0 0.41056,-0.136354 0.15134,-0.136354 0.15134,-0.370103 0,-0.23375 -0.15134,-0.370104 -0.15133,-0.136353 -0.41056,-0.136353 -0.12137,0 -0.24274,0.02697 -0.11987,0.02697 -0.24573,0.08391 z"
         id="path2611" />
    </g>
    <g
       aria-label="P"
       id="text652"
       style="font-size:4.38389px;font-family:CMSSI10;-inkscape-font-specification:CMSSI10;fill:#0000ff;stroke-width:0.440034">
      <path
         d="m 97.05591,36.469246 v 1.20086 h 0.543706 q 0.30182,0 0.466644,-0.156261 0.164824,-0.156262 0.164824,-0.445239 0,-0.286837 -0.164824,-0.443099 -0.164824,-0.156261 -0.466644,-0.156261 z m -0.432395,-0.355335 h 0.976101 q 0.537283,0 0.811276,0.244025 0.276134,0.241885 0.276134,0.71067 0,0.473066 -0.276134,0.714951 -0.273993,0.241884 -0.811276,0.241884 H 97.05591 v 1.284343 h -0.432395 z"
         id="path2596" />
    </g>
    <g
       aria-label="6"
       id="text656"
       style="font-size:3.06871px;font-family:CMSS8;-inkscape-font-specification:CMSS8;fill:#0000ff;stroke-width:0.440034">
      <path
         d="m 100.00699,38.728022 q -0.203778,0 -0.323649,0.139351 -0.118373,0.13935 -0.118373,0.38209 0,0.241241 0.118373,0.38209 0.119871,0.139351 0.323649,0.139351 0.20379,0 0.32216,-0.139351 0.11987,-0.140849 0.11987,-0.38209 0,-0.24274 -0.11987,-0.38209 -0.11837,-0.139351 -0.32216,-0.139351 z m 0.60086,-0.948483 v 0.275704 q -0.11388,-0.05394 -0.23075,-0.08241 -0.11538,-0.02847 -0.22926,-0.02847 -0.299676,0 -0.458506,0.202283 -0.157331,0.202284 -0.179807,0.611345 0.0884,-0.13036 0.221762,-0.199286 0.133357,-0.07043 0.293681,-0.07043 0.33714,0 0.53193,0.20528 0.19629,0.203782 0.19629,0.555904 0,0.344631 -0.20378,0.552907 -0.20378,0.208277 -0.54242,0.208277 -0.38808,0 -0.59336,-0.296682 -0.20528,-0.29818 -0.20528,-0.863075 0,-0.530431 0.25173,-0.845094 0.25173,-0.316161 0.67578,-0.316161 0.11387,0 0.22925,0.02248 0.11687,0.02248 0.24274,0.06743 z"
         id="path2593" />
    </g>
    <g
       aria-label="P"
       id="text672"
       style="font-size:4.38389px;font-family:CMSSI10;-inkscape-font-specification:CMSSI10;fill:#0000ff;stroke-width:0.440034">
      <path
         d="m 112.02544,69.038826 v 1.20086 h 0.5437 q 0.30182,0 0.46665,-0.156261 0.16482,-0.156262 0.16482,-0.445239 0,-0.286837 -0.16482,-0.443098 -0.16483,-0.156262 -0.46665,-0.156262 z m -0.4324,-0.355335 h 0.9761 q 0.53729,0 0.81128,0.244025 0.27613,0.241885 0.27613,0.71067 0,0.473066 -0.27613,0.714951 -0.27399,0.241884 -0.81128,0.241884 h -0.5437 v 1.284343 h -0.4324 z"
         id="path2518" />
    </g>
    <g
       aria-label="7"
       id="text676"
       style="font-size:3.06871px;font-family:CMSS8;-inkscape-font-specification:CMSS8;fill:#0000ff;stroke-width:0.440034">
      <path
         d="m 114.21534,70.299672 h 1.43846 v 0.128862 l -0.81213,2.10824 h -0.31616 l 0.76418,-1.982375 h -1.07435 z"
         id="path2515" />
    </g>
    <path
       d="M 67.508304,5.8957836 H 41.746935"
       style="fill:none;stroke:#000000;stroke-width:0.176014;stroke-linecap:butt;stroke-linejoin:round;stroke-miterlimit:10;stroke-dasharray:none;stroke-opacity:1"
       id="path680" />
    <path
       d="M 67.508304,5.8957836 41.746935,25.938466"
       style="fill:none;stroke:#000000;stroke-width:0.176014;stroke-linecap:butt;stroke-linejoin:round;stroke-miterlimit:10;stroke-dasharray:none;stroke-opacity:1"
       id="path684" />
    <path
       d="M 67.508304,5.8957836 41.746935,66.023832"
       style="fill:none;stroke:#000000;stroke-width:0.176014;stroke-linecap:butt;stroke-linejoin:round;stroke-miterlimit:10;stroke-dasharray:none;stroke-opacity:1"
       id="path688" />
    <path
       d="M 67.508304,15.917125 41.746935,5.8957836"
       style="fill:none;stroke:#000000;stroke-width:0.176014;stroke-linecap:butt;stroke-linejoin:round;stroke-miterlimit:10;stroke-dasharray:none;stroke-opacity:1"
       id="path692" />
    <path
       d="M 67.508304,15.917125 41.746935,35.959808"
       style="fill:none;stroke:#000000;stroke-width:0.176014;stroke-linecap:butt;stroke-linejoin:round;stroke-miterlimit:10;stroke-dasharray:none;stroke-opacity:1"
       id="path696" />
    <path
       d="M 67.508304,15.917125 41.746935,56.00249"
       style="fill:none;stroke:#000000;stroke-width:0.176014;stroke-linecap:butt;stroke-linejoin:round;stroke-miterlimit:10;stroke-dasharray:none;stroke-opacity:1"
       id="path700" />
    <path
       d="M 67.508304,25.938466 41.746935,5.8957836"
       style="fill:none;stroke:#000000;stroke-width:0.176014;stroke-linecap:butt;stroke-linejoin:round;stroke-miterlimit:10;stroke-dasharray:none;stroke-opacity:1"
       id="path704" />
    <path
       d="M 67.508304,25.938466 41.746935,15.917125"
       style="fill:none;stroke:#000000;stroke-width:0.176014;stroke-linecap:butt;stroke-linejoin:round;stroke-miterlimit:10;stroke-dasharray:none;stroke-opacity:1"
       id="path708" />
    <path
       d="M 67.508304,25.938466 41.746935,45.981149"
       style="fill:none;stroke:#000000;stroke-width:0.176014;stroke-linecap:butt;stroke-linejoin:round;stroke-miterlimit:10;stroke-dasharray:none;stroke-opacity:1"
       id="path712" />
    <path
       d="M 67.508304,35.959808 41.746935,15.917125"
       style="fill:none;stroke:#000000;stroke-width:0.176014;stroke-linecap:butt;stroke-linejoin:round;stroke-miterlimit:10;stroke-dasharray:none;stroke-opacity:1"
       id="path716" />
    <path
       d="M 67.508304,35.959808 H 41.746935"
       style="fill:none;stroke:#000000;stroke-width:0.176014;stroke-linecap:butt;stroke-linejoin:round;stroke-miterlimit:10;stroke-dasharray:none;stroke-opacity:1"
       id="path720" />
    <path
       d="M 67.508304,35.959808 41.746935,66.023832"
       style="fill:none;stroke:#000000;stroke-width:0.176014;stroke-linecap:butt;stroke-linejoin:round;stroke-miterlimit:10;stroke-dasharray:none;stroke-opacity:1"
       id="path724" />
    <path
       d="M 67.508304,45.981149 41.746935,25.938466"
       style="fill:none;stroke:#000000;stroke-width:0.176014;stroke-linecap:butt;stroke-linejoin:round;stroke-miterlimit:10;stroke-dasharray:none;stroke-opacity:1"
       id="path728" />
    <path
       d="M 67.508304,45.981149 41.746935,35.959808"
       style="fill:none;stroke:#000000;stroke-width:0.176014;stroke-linecap:butt;stroke-linejoin:round;stroke-miterlimit:10;stroke-dasharray:none;stroke-opacity:1"
       id="path732" />
    <path
       d="M 67.508304,45.981149 H 41.746935"
       style="fill:none;stroke:#000000;stroke-width:0.176014;stroke-linecap:butt;stroke-linejoin:round;stroke-miterlimit:10;stroke-dasharray:none;stroke-opacity:1"
       id="path736" />
    <path
       d="M 67.508304,56.00249 41.746935,45.981149"
       style="fill:none;stroke:#000000;stroke-width:0.176014;stroke-linecap:butt;stroke-linejoin:round;stroke-miterlimit:10;stroke-dasharray:none;stroke-opacity:1"
       id="path740" />
    <path
       d="M 67.508304,56.00249 H 41.746935"
       style="fill:none;stroke:#000000;stroke-width:0.176014;stroke-linecap:butt;stroke-linejoin:round;stroke-miterlimit:10;stroke-dasharray:none;stroke-opacity:1"
       id="path744" />
    <path
       d="M 67.508304,56.00249 41.746935,66.023832"
       style="fill:none;stroke:#000000;stroke-width:0.176014;stroke-linecap:butt;stroke-linejoin:round;stroke-miterlimit:10;stroke-dasharray:none;stroke-opacity:1"
       id="path748" />
    <path
       d="M 41.746935,15.917125 67.508304,66.023832 41.746935,25.938466"
       style="fill:none;stroke:#000000;stroke-width:0.176014;stroke-linecap:butt;stroke-linejoin:round;stroke-miterlimit:10;stroke-dasharray:none;stroke-opacity:1"
       id="path752" />
    <path
       d="M 41.746935,56.00249 67.508304,66.023832"
       style="fill:none;stroke:#000000;stroke-width:0.176014;stroke-linecap:butt;stroke-linejoin:round;stroke-miterlimit:10;stroke-dasharray:none;stroke-opacity:1"
       id="path756" />
    <g
       aria-label="prmkydualu"
       id="text772"
       style="font-size:4.38389px;font-family:CMSS10;-inkscape-font-specification:CMSS10;fill:#ff0000;stroke-width:0.440034">
      <path
         d="m 31.270489,78.187587 v 1.271499 h -0.396005 v -3.309323 h 0.396005 v 0.363897 q 0.124154,-0.214057 0.312524,-0.316804 0.190511,-0.104888 0.453801,-0.104888 0.436677,0 0.708529,0.346772 0.273993,0.346773 0.273993,0.911884 0,0.565111 -0.273993,0.911883 -0.271852,0.346773 -0.708529,0.346773 -0.26329,0 -0.453801,-0.102748 -0.18837,-0.104888 -0.312524,-0.318945 z m 1.339998,-0.836963 q 0,-0.434536 -0.179808,-0.680702 -0.177667,-0.248306 -0.490191,-0.248306 -0.312523,0 -0.492331,0.248306 -0.177668,0.246166 -0.177668,0.680702 0,0.434536 0.177668,0.682842 0.179808,0.246166 0.492331,0.246166 0.312524,0 0.490191,-0.246166 0.179808,-0.248306 0.179808,-0.682842 z"
         id="path2656" />
      <path
         d="m 33.332735,75.845802 -0.52444,-0.804855 h 0.297539 l 0.385303,0.52444 0.385303,-0.52444 h 0.297539 l -0.52444,0.804855 z"
         id="path2658" />
      <path
         d="m 34.54385,76.517941 q -0.06636,-0.03853 -0.145558,-0.05565 -0.07706,-0.01927 -0.171246,-0.01927 -0.333929,0 -0.513737,0.218339 -0.177668,0.216197 -0.177668,0.622906 v 1.262937 h -0.396005 v -2.39744 h 0.396005 v 0.37246 q 0.124154,-0.218339 0.323227,-0.323227 0.199073,-0.107028 0.483769,-0.107028 0.04067,0 0.0899,0.0064 0.04923,0.0043 0.109169,0.01498 z"
         id="path2660" />
      <path
         d="m 35.058688,75.040947 h 0.425974 l -0.697826,0.804855 h -0.327508 z"
         id="path2662" />
      <path
         d="m 34.652594,76.149763 h 0.393865 v 2.39744 h -0.393865 z m 0.196933,-0.05779 z"
         id="path2664" />
      <path
         d="m 37.566482,76.609986 q 0.1477,-0.265431 0.353194,-0.391725 0.205495,-0.126293 0.48377,-0.126293 0.3746,0 0.577954,0.26329 0.203354,0.26115 0.203354,0.744919 v 1.447026 H 38.788748 V 77.11302 q 0,-0.344632 -0.122012,-0.511596 -0.122013,-0.166965 -0.37246,-0.166965 -0.306101,0 -0.483769,0.203354 -0.177667,0.203355 -0.177667,0.554408 v 1.354982 H 37.236834 V 77.11302 q 0,-0.346772 -0.122012,-0.511596 -0.122013,-0.166965 -0.376741,-0.166965 -0.30182,0 -0.479488,0.205495 -0.177667,0.203354 -0.177667,0.552267 v 1.354982 H 35.68492 v -2.39744 h 0.396006 v 0.37246 q 0.134856,-0.220479 0.323226,-0.325367 0.18837,-0.104888 0.447379,-0.104888 0.26115,0 0.443099,0.132715 0.184089,0.132716 0.271852,0.385303 z"
         id="path2666" />
      <path
         d="m 39.167479,75.216474 h 0.396006 v 1.967185 l 1.175174,-1.033896 h 0.503034 l -1.2715,1.12166 1.325014,1.27578 H 40.78147 l -1.217985,-1.170892 v 1.170892 h -0.396006 z"
         id="path2668" />
      <path
         d="m 42.323253,78.769822 q -0.166964,0.428115 -0.325367,0.55869 -0.158402,0.130574 -0.423833,0.130574 h -0.314664 v -0.329648 h 0.231182 q 0.162683,0 0.252587,-0.07706 0.0899,-0.07706 0.199074,-0.363897 l 0.07064,-0.179808 -0.969678,-2.35891 h 0.417411 l 0.7492,1.875141 0.7492,-1.875141 h 0.417411 z"
         id="path2670" />
      <path
         d="m 46.384591,76.51366 v -1.297186 h 0.393865 v 3.330729 h -0.393865 v -0.359616 q -0.124153,0.214057 -0.314664,0.318945 -0.18837,0.102748 -0.453801,0.102748 -0.434536,0 -0.708529,-0.346773 -0.271853,-0.346772 -0.271853,-0.911883 0,-0.565111 0.271853,-0.911884 0.273993,-0.346772 0.708529,-0.346772 0.265431,0 0.453801,0.104888 0.190511,0.102747 0.314664,0.316804 z m -1.342138,0.836964 q 0,0.434536 0.177667,0.682842 0.179808,0.246166 0.492332,0.246166 0.312523,0 0.492331,-0.246166 0.179808,-0.248306 0.179808,-0.682842 0,-0.434536 -0.179808,-0.680702 -0.179808,-0.248306 -0.492331,-0.248306 -0.312524,0 -0.492332,0.248306 -0.177667,0.246166 -0.177667,0.680702 z"
         id="path2672" />
      <path
         d="m 47.031471,77.601071 v -1.451308 h 0.393865 v 1.436324 q 0,0.34035 0.132716,0.511596 0.132715,0.169105 0.398146,0.169105 0.318945,0 0.503034,-0.203354 0.18623,-0.203354 0.18623,-0.554408 v -1.359263 h 0.393865 v 2.39744 h -0.393865 v -0.368178 q -0.143418,0.218338 -0.333929,0.325367 -0.18837,0.104888 -0.438817,0.104888 -0.41313,0 -0.627188,-0.256869 -0.214057,-0.256868 -0.214057,-0.75134 z m 0.991085,-1.509103 z"
         id="path2674" />
      <path
         d="m 50.278224,75.040947 h 0.425974 l -0.697826,0.804855 h -0.327508 z"
         id="path2676" />
      <path
         d="m 50.426849,77.342061 q -0.477348,0 -0.661437,0.10917 -0.184089,0.109169 -0.184089,0.372459 0,0.209776 0.136997,0.333929 0.139137,0.122013 0.37674,0.122013 0.327508,0 0.52444,-0.231182 0.199073,-0.233322 0.199073,-0.618625 v -0.08776 z m 0.785589,-0.162683 v 1.367825 h -0.393865 v -0.363897 q -0.134856,0.218338 -0.336069,0.323226 -0.201214,0.102748 -0.492332,0.102748 -0.368178,0 -0.586516,-0.205495 -0.216198,-0.207636 -0.216198,-0.554408 0,-0.404568 0.269712,-0.610063 0.271852,-0.205495 0.809136,-0.205495 h 0.552267 v -0.03853 q 0,-0.271853 -0.179808,-0.419552 -0.177667,-0.14984 -0.500893,-0.14984 -0.205495,0 -0.400287,0.04923 -0.194792,0.04923 -0.3746,0.147699 v -0.363897 q 0.216197,-0.08348 0.419552,-0.124153 0.203354,-0.04281 0.396005,-0.04281 0.520159,0 0.777028,0.269712 0.256868,0.269712 0.256868,0.817698 z"
         id="path2678" />
      <path
         d="m 51.444193,75.216474 h 0.393865 v 3.330729 h -0.393865 z"
         id="path2680" />
      <path
         d="m 52.450832,77.601071 v -1.451308 h 0.393866 v 1.436324 q 0,0.34035 0.132715,0.511596 0.132715,0.169105 0.398146,0.169105 0.318945,0 0.503034,-0.203354 0.18623,-0.203354 0.18623,-0.554408 v -1.359263 h 0.393865 v 2.39744 h -0.393865 v -0.368178 q -0.143418,0.218338 -0.333929,0.325367 -0.18837,0.104888 -0.438817,0.104888 -0.41313,0 -0.627187,-0.256869 -0.214058,-0.256868 -0.214058,-0.75134 z m 0.991085,-1.509103 z"
         id="path2682" />
    </g>
    <path
       d="m 43.067038,25.938466 c 0,-0.729137 -0.590966,-1.320103 -1.320103,-1.320103 -0.729136,0 -1.320103,0.590966 -1.320103,1.320103 0,0.729137 0.590967,1.320103 1.320103,1.320103 0.729137,0 1.320103,-0.590966 1.320103,-1.320103"
       style="fill:#ff0000;fill-opacity:1;fill-rule:evenodd;stroke:none;stroke-width:0.440034"
       id="path778" />
    <path
       d="m 43.067038,35.959808 c 0,-0.729137 -0.590966,-1.320103 -1.320103,-1.320103 -0.729136,0 -1.320103,0.590966 -1.320103,1.320103 0,0.729137 0.590967,1.320103 1.320103,1.320103 0.729137,0 1.320103,-0.590966 1.320103,-1.320103"
       style="fill:#ff0000;fill-opacity:1;fill-rule:evenodd;stroke:none;stroke-width:0.440034"
       id="path784" />
    <path
       d="m 43.067038,45.981149 c 0,-0.729137 -0.590966,-1.320103 -1.320103,-1.320103 -0.729136,0 -1.320103,0.590966 -1.320103,1.320103 0,0.729137 0.590967,1.320103 1.320103,1.320103 0.729137,0 1.320103,-0.590966 1.320103,-1.320103"
       style="fill:#ff0000;fill-opacity:1;fill-rule:evenodd;stroke:none;stroke-width:0.440034"
       id="path790" />
    <path
       d="m 43.067038,56.00249 c 0,-0.729136 -0.590966,-1.320102 -1.320103,-1.320102 -0.729136,0 -1.320103,0.590966 -1.320103,1.320102 0,0.729137 0.590967,1.320103 1.320103,1.320103 0.729137,0 1.320103,-0.590966 1.320103,-1.320103"
       style="fill:#ff0000;fill-opacity:1;fill-rule:evenodd;stroke:none;stroke-width:0.440034"
       id="path796" />
    <path
       d="m 43.067038,66.023832 c 0,-0.729137 -0.590966,-1.320103 -1.320103,-1.320103 -0.729136,0 -1.320103,0.590966 -1.320103,1.320103 0,0.729137 0.590967,1.320103 1.320103,1.320103 0.729137,0 1.320103,-0.590966 1.320103,-1.320103"
       style="fill:#ff0000;fill-opacity:1;fill-rule:evenodd;stroke:none;stroke-width:0.440034"
       id="path802" />
    <path
       d="m 43.067038,15.917125 c 0,-0.729137 -0.590966,-1.320103 -1.320103,-1.320103 -0.729136,0 -1.320103,0.590966 -1.320103,1.320103 0,0.729137 0.590967,1.320103 1.320103,1.320103 0.729137,0 1.320103,-0.590966 1.320103,-1.320103"
       style="fill:#ff0000;fill-opacity:1;fill-rule:evenodd;stroke:none;stroke-width:0.440034"
       id="path808" />
    <path
       d="m 43.067038,5.8957836 c 0,-0.7286968 -0.590966,-1.320103 -1.320103,-1.320103 -0.729136,0 -1.320103,0.5914062 -1.320103,1.320103 0,0.7291368 0.590967,1.3201029 1.320103,1.3201029 0.729137,0 1.320103,-0.5909661 1.320103,-1.3201029"
       style="fill:#ff8c00;fill-opacity:1;fill-rule:evenodd;stroke:none;stroke-width:0.440034"
       id="path814" />
    <g
       aria-label="a"
       id="text830"
       style="font-size:4.38389px;font-family:CMSSI10;-inkscape-font-specification:CMSSI10;fill:#ff8c00;stroke-width:0.440034">
      <path
         d="m 36.809276,4.6906465 q -0.477347,0 -0.661437,0.1091692 -0.184089,0.1091691 -0.184089,0.3724594 0,0.209776 0.136997,0.3339291 0.139137,0.1220126 0.37674,0.1220126 0.327508,0 0.52444,-0.2311817 0.199074,-0.2333223 0.199074,-0.6186252 v -0.087763 z m 0.78559,-0.1626834 V 5.8957882 H 37.201001 V 5.5318911 q -0.134856,0.2183382 -0.33607,0.3232262 -0.201214,0.1027475 -0.492332,0.1027475 -0.368178,0 -0.586516,-0.2054949 -0.216198,-0.2076354 -0.216198,-0.554408 0,-0.404568 0.269712,-0.6100628 0.271853,-0.2054949 0.809136,-0.2054949 h 0.552268 v -0.03853 q 0,-0.2718526 -0.179808,-0.419552 -0.177668,-0.14984 -0.500894,-0.14984 -0.205495,0 -0.400287,0.049233 -0.194792,0.049233 -0.3746,0.1476994 V 3.6075174 q 0.216198,-0.083482 0.419552,-0.1241531 0.203354,-0.042812 0.396006,-0.042812 0.520159,0 0.777027,0.269712 0.256869,0.269712 0.256869,0.8176983 z"
         id="path2578" />
    </g>
    <g
       aria-label="b"
       id="text846"
       style="font-size:4.38389px;font-family:CMSSI10;-inkscape-font-specification:CMSSI10;fill:#ff0000;stroke-width:0.440034">
      <path
         d="m 37.440744,14.720544 q 0,-0.434536 -0.179807,-0.680701 -0.177668,-0.248307 -0.490191,-0.248307 -0.312524,0 -0.492332,0.248307 -0.177667,0.246165 -0.177667,0.680701 0,0.434536 0.177667,0.682843 0.179808,0.246165 0.492332,0.246165 0.312523,0 0.490191,-0.246165 0.179807,-0.248307 0.179807,-0.682843 z m -1.339997,-0.836963 q 0.124153,-0.214057 0.312523,-0.316805 0.190511,-0.104888 0.453801,-0.104888 0.436677,0 0.708529,0.346773 0.273994,0.346773 0.273994,0.911883 0,0.565111 -0.273994,0.911884 -0.271852,0.346772 -0.708529,0.346772 -0.26329,0 -0.453801,-0.102747 -0.18837,-0.104888 -0.312523,-0.318945 v 0.359616 h -0.396006 v -3.330729 h 0.396006 z"
         id="path2563" />
    </g>
    <g
       aria-label="c"
       id="text862"
       style="font-size:4.38389px;font-family:CMSSI10;-inkscape-font-specification:CMSSI10;fill:#ff0000;stroke-width:0.440034">
      <path
         d="m 37.445026,23.633074 v 0.368178 q -0.166965,-0.09205 -0.33607,-0.136997 -0.166965,-0.04709 -0.33821,-0.04709 -0.383163,0 -0.595079,0.244025 -0.211917,0.241884 -0.211917,0.680702 0,0.438817 0.211917,0.682842 0.211916,0.241884 0.595079,0.241884 0.171245,0 0.33821,-0.04495 0.169105,-0.04709 0.33607,-0.139137 v 0.363897 q -0.164824,0.07706 -0.342492,0.115591 -0.175527,0.03853 -0.3746,0.03853 -0.541564,0 -0.860509,-0.340351 -0.318946,-0.340351 -0.318946,-0.918305 0,-0.586517 0.321086,-0.922587 0.323226,-0.336069 0.884056,-0.336069 0.181949,0 0.355335,0.03853 0.173386,0.03639 0.33607,0.11131 z"
         id="path2560" />
    </g>
    <g
       aria-label="d"
       id="text878"
       style="font-size:4.38389px;font-family:CMSSI10;-inkscape-font-specification:CMSSI10;fill:#ff0000;stroke-width:0.440034">
      <path
         d="m 37.297326,33.926262 v -1.297187 h 0.393865 v 3.33073 h -0.393865 v -0.359616 q -0.124153,0.214057 -0.314664,0.318945 -0.18837,0.102747 -0.453801,0.102747 -0.434536,0 -0.708529,-0.346772 -0.271853,-0.346773 -0.271853,-0.911884 0,-0.565111 0.271853,-0.911883 0.273993,-0.346773 0.708529,-0.346773 0.265431,0 0.453801,0.104888 0.190511,0.102748 0.314664,0.316805 z m -1.342138,0.836963 q 0,0.434536 0.177667,0.682842 0.179808,0.246166 0.492332,0.246166 0.312523,0 0.492331,-0.246166 0.179808,-0.248306 0.179808,-0.682842 0,-0.434536 -0.179808,-0.680702 -0.179808,-0.248306 -0.492331,-0.248306 -0.312524,0 -0.492332,0.248306 -0.177667,0.246166 -0.177667,0.680702 z"
         id="path2557" />
    </g>
    <g
       aria-label="e"
       id="text894"
       style="font-size:4.38389px;font-family:CMSSI10;-inkscape-font-specification:CMSSI10;fill:#ff0000;stroke-width:0.440034">
      <path
         d="m 37.770392,44.683962 v 0.192651 h -1.810923 q 0.02569,0.406709 0.244025,0.620766 0.220479,0.211916 0.612204,0.211916 0.2269,0 0.438817,-0.05565 0.214057,-0.05566 0.423833,-0.166964 v 0.372459 q -0.211917,0.0899 -0.434536,0.136997 -0.222619,0.04709 -0.451661,0.04709 -0.573673,0 -0.909742,-0.333929 -0.33393,-0.333929 -0.33393,-0.903321 0,-0.588657 0.316805,-0.933289 0.318945,-0.346773 0.858369,-0.346773 0.483769,0 0.764184,0.312524 0.282555,0.310383 0.282555,0.845526 z m -0.393865,-0.115591 q -0.0043,-0.323227 -0.181948,-0.515878 -0.175527,-0.192651 -0.466645,-0.192651 -0.329648,0 -0.528721,0.186229 -0.196932,0.18623 -0.2269,0.52444 z"
         id="path2554" />
    </g>
    <g
       aria-label="f"
       id="text910"
       style="font-size:4.38389px;font-family:CMSSI10;-inkscape-font-specification:CMSSI10;fill:#ff0000;stroke-width:0.440034">
      <path
         d="m 36.933429,52.671766 v 0.327507 h -0.37674 q -0.211917,0 -0.295399,0.08562 -0.08134,0.08562 -0.08134,0.308242 v 0.211917 h 0.648593 v 0.306102 h -0.648593 v 2.091338 h -0.396006 v -2.091338 h -0.37674 v -0.306102 h 0.37674 V 53.43809 q 0,-0.400287 0.18623,-0.582235 0.18623,-0.184089 0.590798,-0.184089 z"
         id="path2551" />
    </g>
    <g
       aria-label="g"
       id="text926"
       style="font-size:4.38389px;font-family:CMSSI10;-inkscape-font-specification:CMSSI10;fill:#ff0000;stroke-width:0.440034">
      <path
         d="m 37.297326,64.794197 q 0,-0.428114 -0.177667,-0.663577 -0.175527,-0.235463 -0.494472,-0.235463 -0.316805,0 -0.494472,0.235463 -0.175527,0.235463 -0.175527,0.663577 0,0.425974 0.175527,0.661436 0.177667,0.235463 0.494472,0.235463 0.318945,0 0.494472,-0.235463 0.177667,-0.235462 0.177667,-0.661436 z m 0.393865,0.929008 q 0,0.612203 -0.271852,0.909743 -0.271853,0.29968 -0.832682,0.29968 -0.207636,0 -0.391725,-0.03211 -0.184089,-0.02997 -0.357475,-0.09418 v -0.383162 q 0.173386,0.09419 0.342491,0.139137 0.169105,0.04495 0.344632,0.04495 0.387443,0 0.580095,-0.203354 0.192651,-0.201214 0.192651,-0.610063 v -0.194792 q -0.122012,0.211916 -0.312523,0.316804 -0.190511,0.104888 -0.455942,0.104888 -0.440958,0 -0.71067,-0.336069 -0.269712,-0.33607 -0.269712,-0.890478 0,-0.556549 0.269712,-0.892618 0.269712,-0.33607 0.71067,-0.33607 0.265431,0 0.455942,0.104888 0.190511,0.104888 0.312523,0.316805 v -0.363898 h 0.393865 z"
         id="path2548" />
    </g>
    <g
       aria-label="body"
       id="text942"
       style="font-size:4.38389px;font-family:CMSS10;-inkscape-font-specification:CMSS10;fill:#ff0000;stroke-width:0.440034">
      <path
         d="m 40.660914,-5.3252153 q 0,-0.434536 -0.179808,-0.6807017 -0.177668,-0.2483062 -0.490191,-0.2483062 -0.312524,0 -0.492332,0.2483062 -0.177667,0.2461657 -0.177667,0.6807017 0,0.434536 0.177667,0.6828423 0.179808,0.2461657 0.492332,0.2461657 0.312523,0 0.490191,-0.2461657 0.179808,-0.2483063 0.179808,-0.6828423 z m -1.339998,-0.8369634 q 0.124153,-0.2140571 0.312523,-0.3168045 0.190511,-0.104888 0.453801,-0.104888 0.436677,0 0.70853,0.3467725 0.273993,0.3467726 0.273993,0.9118834 0,0.5651109 -0.273993,0.9118834 -0.271853,0.3467726 -0.70853,0.3467726 -0.26329,0 -0.453801,-0.1027474 -0.18837,-0.104888 -0.312523,-0.3189452 v 0.359616 H 38.92491 v -3.330729 h 0.396006 z"
         id="path2539" />
      <path
         d="m 42.256803,-6.2499421 q -0.316804,0 -0.500893,0.2483063 -0.184089,0.2461657 -0.184089,0.6764205 0,0.4302549 0.181948,0.6785611 0.184089,0.2461658 0.503034,0.2461658 0.314664,0 0.498754,-0.2483063 0.184089,-0.2483063 0.184089,-0.6764206 0,-0.4259737 -0.184089,-0.67428 -0.18409,-0.2504468 -0.498754,-0.2504468 z m 0,-0.3339291 q 0.513738,0 0.806996,0.3339291 0.293258,0.3339291 0.293258,0.9247268 0,0.5886571 -0.293258,0.9247269 -0.293258,0.3339291 -0.806996,0.3339291 -0.515877,0 -0.809136,-0.3339291 -0.291117,-0.3360698 -0.291117,-0.9247269 0,-0.5907977 0.291117,-0.9247268 0.293259,-0.3339291 0.809136,-0.3339291 z"
         id="path2541" />
      <path
         d="m 45.22009,-6.1621787 v -1.2971862 h 0.393865 v 3.330729 H 45.22009 v -0.359616 q -0.124153,0.2140572 -0.314664,0.3189452 -0.18837,0.1027474 -0.453801,0.1027474 -0.434536,0 -0.708529,-0.3467726 -0.271853,-0.3467725 -0.271853,-0.9118834 0,-0.5651108 0.271853,-0.9118834 0.273993,-0.3467725 0.708529,-0.3467725 0.265431,0 0.453801,0.104888 0.190511,0.1027474 0.314664,0.3168045 z m -1.342138,0.8369634 q 0,0.434536 0.177667,0.6828423 0.179808,0.2461657 0.492332,0.2461657 0.312523,0 0.492331,-0.2461657 0.179808,-0.2483063 0.179808,-0.6828423 0,-0.434536 -0.179808,-0.6807017 -0.179808,-0.2483062 -0.492331,-0.2483062 -0.312524,0 -0.492332,0.2483062 -0.177667,0.2461657 -0.177667,0.6807017 z"
         id="path2543" />
      <path
         d="m 46.900764,-3.9060165 q -0.166964,0.4281143 -0.325367,0.5586892 -0.158402,0.1305748 -0.423833,0.1305748 H 45.8369 v -0.329648 h 0.231182 q 0.162683,0 0.252587,-0.07706 0.0899,-0.077061 0.199073,-0.3638972 l 0.07064,-0.179808 -0.969679,-2.3589096 h 0.417412 l 0.7492,1.8751405 0.7492,-1.8751405 h 0.417411 z"
         id="path2545" />
    </g>
    <path
       d="m 68.828407,5.8957836 c 0,-0.7286968 -0.590966,-1.320103 -1.320103,-1.320103 -0.729137,0 -1.320103,0.5914062 -1.320103,1.320103 0,0.7291368 0.590966,1.3201029 1.320103,1.3201029 0.729137,0 1.320103,-0.5909661 1.320103,-1.3201029"
       style="fill:#40e0d0;fill-opacity:1;fill-rule:evenodd;stroke:none;stroke-width:0.440034"
       id="path948" />
    <path
       d="m 68.828407,15.917125 c 0,-0.729137 -0.590966,-1.320103 -1.320103,-1.320103 -0.729137,0 -1.320103,0.590966 -1.320103,1.320103 0,0.729137 0.590966,1.320103 1.320103,1.320103 0.729137,0 1.320103,-0.590966 1.320103,-1.320103"
       style="fill:#40e0d0;fill-opacity:1;fill-rule:evenodd;stroke:none;stroke-width:0.440034"
       id="path954" />
    <path
       d="m 68.828407,25.938466 c 0,-0.729137 -0.590966,-1.320103 -1.320103,-1.320103 -0.729137,0 -1.320103,0.590966 -1.320103,1.320103 0,0.729137 0.590966,1.320103 1.320103,1.320103 0.729137,0 1.320103,-0.590966 1.320103,-1.320103"
       style="fill:#0000ff;fill-opacity:1;fill-rule:evenodd;stroke:none;stroke-width:0.440034"
       id="path960" />
    <path
       d="m 68.828407,35.959808 c 0,-0.729137 -0.590966,-1.320103 -1.320103,-1.320103 -0.729137,0 -1.320103,0.590966 -1.320103,1.320103 0,0.729137 0.590966,1.320103 1.320103,1.320103 0.729137,0 1.320103,-0.590966 1.320103,-1.320103"
       style="fill:#0000ff;fill-opacity:1;fill-rule:evenodd;stroke:none;stroke-width:0.440034"
       id="path966" />
    <path
       d="m 68.828407,45.981149 c 0,-0.729137 -0.590966,-1.320103 -1.320103,-1.320103 -0.729137,0 -1.320103,0.590966 -1.320103,1.320103 0,0.729137 0.590966,1.320103 1.320103,1.320103 0.729137,0 1.320103,-0.590966 1.320103,-1.320103"
       style="fill:#0000ff;fill-opacity:1;fill-rule:evenodd;stroke:none;stroke-width:0.440034"
       id="path972" />
    <path
       d="m 68.828407,56.00249 c 0,-0.729136 -0.590966,-1.320102 -1.320103,-1.320102 -0.729137,0 -1.320103,0.590966 -1.320103,1.320102 0,0.729137 0.590966,1.320103 1.320103,1.320103 0.729137,0 1.320103,-0.590966 1.320103,-1.320103"
       style="fill:#0000ff;fill-opacity:1;fill-rule:evenodd;stroke:none;stroke-width:0.440034"
       id="path978" />
    <path
       d="m 68.828407,66.023832 c 0,-0.729137 -0.590966,-1.320103 -1.320103,-1.320103 -0.729137,0 -1.320103,0.590966 -1.320103,1.320103 0,0.729137 0.590966,1.320103 1.320103,1.320103 0.729137,0 1.320103,-0.590966 1.320103,-1.320103"
       style="fill:#0000ff;fill-opacity:1;fill-rule:evenodd;stroke:none;stroke-width:0.440034"
       id="path984" />
    <g
       aria-label="P"
       id="text1000"
       style="font-size:4.38389px;font-family:CMSSI10;-inkscape-font-specification:CMSSI10;fill:#40e0d0;stroke-width:0.440034">
      <path
         d="m 71.591128,3.0534857 v 1.2008605 h 0.543705 q 0.30182,0 0.466644,-0.1562617 0.164824,-0.1562617 0.164824,-0.4452388 0,-0.2868366 -0.164824,-0.4430983 Q 72.436653,3.0534857 72.134833,3.0534857 Z M 71.158732,2.6981508 h 0.976101 q 0.537283,0 0.811276,0.2440252 0.276134,0.2418845 0.276134,0.7106697 0,0.4730662 -0.276134,0.7149508 -0.273993,0.2418846 -0.811276,0.2418846 h -0.543705 v 1.2843428 h -0.432396 z"
         id="path2536" />
    </g>
    <g
       aria-label="1"
       id="text1004"
       style="font-size:3.06871px;font-family:CMSS8;-inkscape-font-specification:CMSS8;fill:#40e0d0;stroke-width:0.440034">
      <path
         d="m 73.909881,6.2967081 h 0.49447 V 4.5900378 L 73.866428,4.6979221 V 4.4222177 L 74.401354,4.3143334 H 74.70403 V 6.2967081 H 75.1985 V 6.551435 h -1.288619 z"
         id="path2533" />
    </g>
    <g
       aria-label="P"
       id="text1020"
       style="font-size:4.38389px;font-family:CMSSI10;-inkscape-font-specification:CMSSI10;fill:#40e0d0;stroke-width:0.440034">
      <path
         d="m 71.591128,13.074826 v 1.200861 h 0.543705 q 0.30182,0 0.466644,-0.156262 0.164824,-0.156262 0.164824,-0.445239 0,-0.286837 -0.164824,-0.443098 -0.164824,-0.156262 -0.466644,-0.156262 z m -0.432396,-0.355335 h 0.976101 q 0.537283,0 0.811276,0.244025 0.276134,0.241885 0.276134,0.71067 0,0.473066 -0.276134,0.714951 -0.273993,0.241884 -0.811276,0.241884 h -0.543705 v 1.284343 h -0.432396 z"
         id="path2584" />
    </g>
    <g
       aria-label="2"
       id="text1024"
       style="font-size:3.06871px;font-family:CMSS8;-inkscape-font-specification:CMSS8;fill:#40e0d0;stroke-width:0.440034">
      <path
         d="m 74.118158,16.318048 h 1.056367 v 0.254727 h -1.420477 v -0.254727 q 0.172316,-0.178309 0.468997,-0.477988 0.298181,-0.301177 0.374599,-0.388084 0.145344,-0.163324 0.202283,-0.275704 0.05844,-0.113878 0.05844,-0.223261 0,-0.178308 -0.125865,-0.290688 -0.124366,-0.112379 -0.325151,-0.112379 -0.142347,0 -0.301177,0.04945 -0.157332,0.04945 -0.337139,0.149839 v -0.305672 q 0.182804,-0.07342 0.341634,-0.110882 0.15883,-0.03746 0.290688,-0.03746 0.347628,0 0.554406,0.173813 0.206778,0.173814 0.206778,0.464502 0,0.137853 -0.05244,0.262219 -0.05094,0.122868 -0.187299,0.290689 -0.03746,0.04345 -0.238244,0.25173 -0.200785,0.206778 -0.566393,0.579878 z"
         id="path2581" />
    </g>
    <g
       aria-label="P"
       id="text1040"
       style="font-size:4.38389px;font-family:CMSSI10;-inkscape-font-specification:CMSSI10;fill:#0000ff;stroke-width:0.440034">
      <path
         d="m 71.591128,23.096166 v 1.200861 h 0.543705 q 0.30182,0 0.466644,-0.156262 0.164824,-0.156261 0.164824,-0.445239 0,-0.286836 -0.164824,-0.443098 -0.164824,-0.156262 -0.466644,-0.156262 z m -0.432396,-0.355334 h 0.976101 q 0.537283,0 0.811276,0.244025 0.276134,0.241884 0.276134,0.710669 0,0.473067 -0.276134,0.714951 -0.273993,0.241885 -0.811276,0.241885 h -0.543705 v 1.284343 h -0.432396 z"
         id="path2590" />
    </g>
    <g
       aria-label="3"
       id="text1044"
       style="font-size:3.06871px;font-family:CMSS8;-inkscape-font-specification:CMSS8;fill:#0000ff;stroke-width:0.440034">
      <path
         d="m 74.774454,25.387907 q 0.217267,0.04645 0.338637,0.193293 0.122869,0.146843 0.122869,0.362611 0,0.331145 -0.227756,0.512451 -0.227756,0.181306 -0.647306,0.181306 -0.140849,0 -0.290689,-0.02847 -0.148341,-0.02697 -0.30717,-0.08241 V 26.2345 q 0.125865,0.07342 0.275704,0.110881 0.149839,0.03746 0.313164,0.03746 0.284695,0 0.433036,-0.11238 0.149839,-0.112379 0.149839,-0.32665 0,-0.197787 -0.13935,-0.308669 -0.137852,-0.112379 -0.385087,-0.112379 H 74.149624 V 25.27403 h 0.272708 q 0.22326,0 0.341634,-0.08841 0.118373,-0.0899 0.118373,-0.257723 0,-0.172316 -0.122869,-0.263718 -0.121369,-0.0929 -0.349125,-0.0929 -0.124367,0 -0.266714,0.02697 -0.142348,0.02697 -0.313165,0.08391 v -0.269711 q 0.172316,-0.04795 0.322155,-0.07192 0.151338,-0.02397 0.284695,-0.02397 0.34463,0 0.545415,0.157331 0.200785,0.155833 0.200785,0.422547 0,0.185801 -0.106386,0.314663 -0.106386,0.127363 -0.302676,0.17681 z"
         id="path2587" />
    </g>
    <g
       aria-label="P"
       id="text1060"
       style="font-size:4.38389px;font-family:CMSSI10;-inkscape-font-specification:CMSSI10;fill:#0000ff;stroke-width:0.440034">
      <path
         d="m 71.591128,33.117504 v 1.20086 h 0.543705 q 0.30182,0 0.466644,-0.156261 0.164824,-0.156262 0.164824,-0.445239 0,-0.286837 -0.164824,-0.443098 -0.164824,-0.156262 -0.466644,-0.156262 z m -0.432396,-0.355335 h 0.976101 q 0.537283,0 0.811276,0.244025 0.276134,0.241885 0.276134,0.71067 0,0.473066 -0.276134,0.714951 -0.273993,0.241884 -0.811276,0.241884 h -0.543705 v 1.284343 h -0.432396 z"
         id="path2530" />
    </g>
    <g
       aria-label="4"
       id="text1064"
       style="font-size:3.06871px;font-family:CMSS8;-inkscape-font-specification:CMSS8;fill:#0000ff;stroke-width:0.440034">
      <path
         d="m 74.689046,34.642071 -0.764181,1.19422 h 0.764181 z m -0.07942,-0.263717 h 0.380592 v 1.457937 h 0.319158 v 0.25173 h -0.319158 v 0.527435 h -0.301177 v -0.527435 h -1.009917 v -0.292187 z"
         id="path2527" />
    </g>
    <g
       aria-label="P"
       id="text1080"
       style="font-size:4.38389px;font-family:CMSSI10;-inkscape-font-specification:CMSSI10;fill:#0000ff;stroke-width:0.440034">
      <path
         d="m 71.591128,43.138847 v 1.200861 h 0.543705 q 0.30182,0 0.466644,-0.156262 0.164824,-0.156262 0.164824,-0.445239 0,-0.286836 -0.164824,-0.443098 -0.164824,-0.156262 -0.466644,-0.156262 z m -0.432396,-0.355335 h 0.976101 q 0.537283,0 0.811276,0.244025 0.276134,0.241885 0.276134,0.71067 0,0.473066 -0.276134,0.714951 -0.273993,0.241885 -0.811276,0.241885 h -0.543705 v 1.284342 h -0.432396 z"
         id="path2569" />
    </g>
    <g
       aria-label="5"
       id="text1084"
       style="font-size:3.06871px;font-family:CMSS8;-inkscape-font-specification:CMSS8;fill:#0000ff;stroke-width:0.440034">
      <path
         d="m 73.860434,44.399693 h 1.188226 v 0.254727 h -0.911023 v 0.548412 q 0.06593,-0.02248 0.131859,-0.03296 0.06593,-0.01199 0.131858,-0.01199 0.374599,0 0.593364,0.205279 0.218766,0.20528 0.218766,0.555905 0,0.361112 -0.224759,0.561897 -0.224759,0.199286 -0.633821,0.199286 -0.140849,0 -0.287691,-0.02397 -0.145345,-0.02397 -0.301178,-0.07192 v -0.304174 q 0.134856,0.07342 0.278702,0.109383 0.143845,0.03596 0.304174,0.03596 0.259222,0 0.410559,-0.136354 0.151338,-0.136354 0.151338,-0.370103 0,-0.23375 -0.151338,-0.370104 -0.151337,-0.136354 -0.410559,-0.136354 -0.12137,0 -0.24274,0.02697 -0.119872,0.02697 -0.245737,0.08391 z"
         id="path2566" />
    </g>
    <g
       aria-label="P"
       id="text1100"
       style="font-size:4.38389px;font-family:CMSSI10;-inkscape-font-specification:CMSSI10;fill:#0000ff;stroke-width:0.440034">
      <path
         d="m 71.591128,53.160194 v 1.200861 h 0.543705 q 0.30182,0 0.466644,-0.156262 0.164824,-0.156262 0.164824,-0.445239 0,-0.286836 -0.164824,-0.443098 -0.164824,-0.156262 -0.466644,-0.156262 z m -0.432396,-0.355335 h 0.976101 q 0.537283,0 0.811276,0.244026 0.276134,0.241884 0.276134,0.710669 0,0.473066 -0.276134,0.714951 -0.273993,0.241885 -0.811276,0.241885 h -0.543705 v 1.284342 h -0.432396 z"
         id="path2602" />
    </g>
    <g
       aria-label="6"
       id="text1104"
       style="font-size:3.06871px;font-family:CMSS8;-inkscape-font-specification:CMSS8;fill:#0000ff;stroke-width:0.440034">
      <path
         d="m 74.542203,55.418974 q -0.203781,0 -0.323653,0.139351 -0.118373,0.139351 -0.118373,0.38209 0,0.241242 0.118373,0.382091 0.119872,0.13935 0.323653,0.13935 0.203782,0 0.322155,-0.13935 0.119871,-0.140849 0.119871,-0.382091 0,-0.242739 -0.119871,-0.38209 -0.118373,-0.139351 -0.322155,-0.139351 z m 0.600856,-0.948483 v 0.275705 q -0.113878,-0.05394 -0.230752,-0.08241 -0.115377,-0.02847 -0.229255,-0.02847 -0.299678,0 -0.458508,0.202283 -0.157331,0.202283 -0.179807,0.611344 0.08841,-0.13036 0.221762,-0.199286 0.133357,-0.07043 0.293685,-0.07043 0.337139,0 0.53193,0.20528 0.196289,0.203782 0.196289,0.555904 0,0.344631 -0.203781,0.552908 -0.203782,0.208276 -0.542419,0.208276 -0.388084,0 -0.593364,-0.296682 -0.205279,-0.29818 -0.205279,-0.863074 0,-0.530432 0.25173,-0.845094 0.25173,-0.316161 0.675775,-0.316161 0.113878,0 0.229254,0.02248 0.116875,0.02248 0.24274,0.06743 z"
         id="path2599" />
    </g>
    <g
       aria-label="P"
       id="text1120"
       style="font-size:4.38389px;font-family:CMSSI10;-inkscape-font-specification:CMSSI10;fill:#0000ff;stroke-width:0.440034">
      <path
         d="m 71.591128,63.181534 v 1.20086 h 0.543705 q 0.30182,0 0.466644,-0.156262 0.164824,-0.156261 0.164824,-0.445238 0,-0.286837 -0.164824,-0.443099 -0.164824,-0.156261 -0.466644,-0.156261 z m -0.432396,-0.355335 h 0.976101 q 0.537283,0 0.811276,0.244025 0.276134,0.241884 0.276134,0.71067 0,0.473066 -0.276134,0.71495 -0.273993,0.241885 -0.811276,0.241885 h -0.543705 v 1.284343 h -0.432396 z"
         id="path2524" />
    </g>
    <g
       aria-label="7"
       id="text1124"
       style="font-size:3.06871px;font-family:CMSS8;-inkscape-font-specification:CMSS8;fill:#0000ff;stroke-width:0.440034">
      <path
         d="m 73.781019,64.44238 h 1.438458 v 0.128862 l -0.812129,2.10824 h -0.316161 l 0.764181,-1.982375 h -1.074349 z"
         id="path2521" />
    </g>
    <g
       aria-label="prmky"
       id="text1140"
       style="font-size:4.38389px;font-family:CMSS10;-inkscape-font-specification:CMSS10;fill:#0000ff;stroke-width:0.440034">
      <path
         d="m 65.082284,-4.4882519 v 1.2714994 h -0.396006 v -3.3093233 h 0.396006 v 0.3638971 q 0.124153,-0.2140571 0.312523,-0.3168045 0.190511,-0.104888 0.453801,-0.104888 0.436677,0 0.708529,0.3467725 0.273993,0.3467726 0.273993,0.9118834 0,0.5651109 -0.273993,0.9118834 -0.271852,0.3467726 -0.708529,0.3467726 -0.26329,0 -0.453801,-0.1027474 -0.18837,-0.104888 -0.312523,-0.3189452 z m 1.339997,-0.8369634 q 0,-0.434536 -0.179808,-0.6807017 -0.177667,-0.2483062 -0.49019,-0.2483062 -0.312524,0 -0.492332,0.2483062 -0.177667,0.2461657 -0.177667,0.6807017 0,0.434536 0.177667,0.6828423 0.179808,0.2461657 0.492332,0.2461657 0.312523,0 0.49019,-0.2461657 0.179808,-0.2483063 0.179808,-0.6828423 z"
         id="path2724" />
      <path
         d="m 67.144533,-6.8300369 -0.52444,-0.8048549 h 0.297539 l 0.385303,0.52444 0.385303,-0.52444 h 0.297539 l -0.52444,0.8048549 z"
         id="path2726" />
      <path
         d="m 68.355645,-6.1578975 q -0.06636,-0.03853 -0.145559,-0.055655 -0.07706,-0.019265 -0.171246,-0.019265 -0.333929,0 -0.513737,0.2183382 -0.177667,0.2161978 -0.177667,0.6229063 v 1.2629371 H 66.95143 v -2.3974399 h 0.396006 v 0.3724594 q 0.124153,-0.2183383 0.323226,-0.3232263 0.199073,-0.1070285 0.483769,-0.1070285 0.04067,0 0.0899,0.00642 0.04923,0.00428 0.109169,0.014984 z"
         id="path2728" />
      <path
         d="m 68.870486,-7.6348918 h 0.425974 l -0.697826,0.8048549 h -0.327508 z"
         id="path2730" />
      <path
         d="m 68.464392,-6.5260758 h 0.393865 v 2.3974399 h -0.393865 z m 0.196933,-0.057795 z"
         id="path2732" />
      <path
         d="m 71.37828,-6.065853 q 0.1477,-0.2654308 0.353195,-0.3917245 0.205494,-0.1262937 0.483769,-0.1262937 0.3746,0 0.577954,0.2632902 0.203354,0.2611497 0.203354,0.7449189 v 1.4470262 h -0.396005 v -1.4341828 q 0,-0.344632 -0.122013,-0.5115966 -0.122013,-0.1669645 -0.372459,-0.1669645 -0.306102,0 -0.48377,0.2033543 -0.177667,0.2033542 -0.177667,0.5544079 v 1.3549817 h -0.396006 v -1.4341828 q 0,-0.3467726 -0.122012,-0.5115966 -0.122013,-0.1669645 -0.376741,-0.1669645 -0.30182,0 -0.479488,0.2054948 -0.177667,0.2033543 -0.177667,0.5522674 v 1.3549817 h -0.396006 v -2.3974399 h 0.396006 v 0.3724594 q 0.134856,-0.2204788 0.323226,-0.3253668 0.18837,-0.104888 0.447379,-0.104888 0.26115,0 0.443099,0.1327154 0.184089,0.1327154 0.271852,0.3853028 z"
         id="path2734" />
      <path
         d="m 72.979277,-7.4593649 h 0.396006 v 1.9671851 l 1.175174,-1.033896 h 0.503034 l -1.271499,1.1216594 1.325013,1.2757805 h -0.513737 l -1.217985,-1.1708925 v 1.1708925 h -0.396006 z"
         id="path2736" />
      <path
         d="m 76.135048,-3.9060165 q -0.166965,0.4281143 -0.325367,0.5586892 -0.158403,0.1305748 -0.423833,0.1305748 h -0.314664 v -0.329648 h 0.231181 q 0.162684,0 0.252588,-0.07706 0.0899,-0.077061 0.199073,-0.3638972 l 0.07064,-0.179808 -0.969679,-2.3589096 h 0.417411 l 0.7492,1.8751405 0.7492,-1.8751405 h 0.417412 z"
         id="path2738" />
    </g>
    <g
       aria-label="bodydualu"
       id="text1156"
       style="font-size:4.38389px;font-family:CMSS10;-inkscape-font-specification:CMSS10;fill:#0000ff;stroke-width:0.440034">
      <path
         d="m 61.592024,77.350624 q 0,-0.434536 -0.179808,-0.680702 -0.177667,-0.248306 -0.490191,-0.248306 -0.312523,0 -0.492331,0.248306 -0.177668,0.246166 -0.177668,0.680702 0,0.434536 0.177668,0.682842 0.179808,0.246166 0.492331,0.246166 0.312524,0 0.490191,-0.246166 0.179808,-0.248306 0.179808,-0.682842 z M 60.252026,76.51366 q 0.124153,-0.214057 0.312524,-0.316804 0.190511,-0.104888 0.453801,-0.104888 0.436676,0 0.708529,0.346772 0.273993,0.346773 0.273993,0.911884 0,0.565111 -0.273993,0.911883 -0.271853,0.346773 -0.708529,0.346773 -0.26329,0 -0.453801,-0.102748 -0.188371,-0.104888 -0.312524,-0.318945 v 0.359616 h -0.396005 v -3.330729 h 0.396005 z"
         id="path2494" />
      <path
         d="m 63.187918,76.425897 q -0.316805,0 -0.500894,0.248306 -0.184089,0.246166 -0.184089,0.676421 0,0.430255 0.181948,0.678561 0.18409,0.246166 0.503035,0.246166 0.314664,0 0.498753,-0.248307 0.184089,-0.248306 0.184089,-0.67642 0,-0.425974 -0.184089,-0.67428 -0.184089,-0.250447 -0.498753,-0.250447 z m 0,-0.333929 q 0.513737,0 0.806995,0.333929 0.293258,0.333929 0.293258,0.924727 0,0.588657 -0.293258,0.924727 -0.293258,0.333929 -0.806995,0.333929 -0.515878,0 -0.809136,-0.333929 -0.291118,-0.33607 -0.291118,-0.924727 0,-0.590798 0.291118,-0.924727 0.293258,-0.333929 0.809136,-0.333929 z"
         id="path2496" />
      <path
         d="m 66.1512,76.51366 v -1.297186 h 0.393866 v 3.330729 H 66.1512 v -0.359616 q -0.124153,0.214057 -0.314664,0.318945 -0.18837,0.102748 -0.453801,0.102748 -0.434536,0 -0.708529,-0.346773 -0.271852,-0.346772 -0.271852,-0.911883 0,-0.565111 0.271852,-0.911884 0.273993,-0.346772 0.708529,-0.346772 0.265431,0 0.453801,0.104888 0.190511,0.102747 0.314664,0.316804 z m -1.342138,0.836964 q 0,0.434536 0.177668,0.682842 0.179808,0.246166 0.492331,0.246166 0.312523,0 0.492331,-0.246166 0.179808,-0.248306 0.179808,-0.682842 0,-0.434536 -0.179808,-0.680702 -0.179808,-0.248306 -0.492331,-0.248306 -0.312523,0 -0.492331,0.248306 -0.177668,0.246166 -0.177668,0.680702 z"
         id="path2498" />
      <path
         d="m 67.831878,78.769822 q -0.166964,0.428115 -0.325367,0.55869 -0.158402,0.130574 -0.423833,0.130574 h -0.314664 v -0.329648 h 0.231182 q 0.162683,0 0.252587,-0.07706 0.0899,-0.07706 0.199074,-0.363897 l 0.07064,-0.179808 -0.969678,-2.35891 h 0.417411 l 0.7492,1.875141 0.7492,-1.875141 h 0.417411 z"
         id="path2500" />
      <path
         d="m 71.897599,76.51366 v -1.297186 h 0.393865 v 3.330729 h -0.393865 v -0.359616 q -0.124153,0.214057 -0.314664,0.318945 -0.18837,0.102748 -0.453801,0.102748 -0.434536,0 -0.708529,-0.346773 -0.271852,-0.346772 -0.271852,-0.911883 0,-0.565111 0.271852,-0.911884 0.273993,-0.346772 0.708529,-0.346772 0.265431,0 0.453801,0.104888 0.190511,0.102747 0.314664,0.316804 z m -1.342138,0.836964 q 0,0.434536 0.177668,0.682842 0.179808,0.246166 0.492331,0.246166 0.312523,0 0.492331,-0.246166 0.179808,-0.248306 0.179808,-0.682842 0,-0.434536 -0.179808,-0.680702 -0.179808,-0.248306 -0.492331,-0.248306 -0.312523,0 -0.492331,0.248306 -0.177668,0.246166 -0.177668,0.680702 z"
         id="path2502" />
      <path
         d="m 72.544479,77.601071 v -1.451308 h 0.393866 v 1.436324 q 0,0.34035 0.132715,0.511596 0.132715,0.169105 0.398146,0.169105 0.318945,0 0.503034,-0.203354 0.18623,-0.203354 0.18623,-0.554408 v -1.359263 h 0.393865 v 2.39744 H 74.15847 v -0.368178 q -0.143418,0.218338 -0.333929,0.325367 -0.18837,0.104888 -0.438817,0.104888 -0.41313,0 -0.627187,-0.256869 -0.214058,-0.256868 -0.214058,-0.75134 z m 0.991085,-1.509103 z"
         id="path2504" />
      <path
         d="m 75.786845,75.040947 h 0.425974 l -0.697826,0.804855 h -0.327508 z"
         id="path2506" />
      <path
         d="m 75.939853,77.342061 q -0.477347,0 -0.661437,0.10917 -0.184089,0.109169 -0.184089,0.372459 0,0.209776 0.136997,0.333929 0.139137,0.122013 0.37674,0.122013 0.327508,0 0.52444,-0.231182 0.199074,-0.233322 0.199074,-0.618625 v -0.08776 z m 0.78559,-0.162683 v 1.367825 h -0.393865 v -0.363897 q -0.134856,0.218338 -0.33607,0.323226 -0.201214,0.102748 -0.492332,0.102748 -0.368178,0 -0.586516,-0.205495 -0.216198,-0.207636 -0.216198,-0.554408 0,-0.404568 0.269712,-0.610063 0.271853,-0.205495 0.809136,-0.205495 h 0.552268 v -0.03853 q 0,-0.271853 -0.179808,-0.419552 -0.177668,-0.14984 -0.500894,-0.14984 -0.205495,0 -0.400287,0.04923 -0.194792,0.04923 -0.3746,0.147699 v -0.363897 q 0.216198,-0.08348 0.419552,-0.124153 0.203354,-0.04281 0.396006,-0.04281 0.520159,0 0.777027,0.269712 0.256869,0.269712 0.256869,0.817698 z"
         id="path2508" />
      <path
         d="m 76.957205,75.216474 h 0.393865 v 3.330729 h -0.393865 z"
         id="path2510" />
      <path
         d="m 77.963837,77.601071 v -1.451308 h 0.393865 v 1.436324 q 0,0.34035 0.132715,0.511596 0.132716,0.169105 0.398147,0.169105 0.318945,0 0.503034,-0.203354 0.186229,-0.203354 0.186229,-0.554408 v -1.359263 h 0.393866 v 2.39744 h -0.393866 v -0.368178 q -0.143418,0.218338 -0.333929,0.325367 -0.18837,0.104888 -0.438817,0.104888 -0.41313,0 -0.627187,-0.256869 -0.214057,-0.256868 -0.214057,-0.75134 z m 0.991084,-1.509103 z"
         id="path2512" />
    </g>
  </g>
</svg>
