<?xml version="1.0" encoding="UTF-8" standalone="no"?>
<svg
   xmlns:dc="http://purl.org/dc/elements/1.1/"
   xmlns:cc="http://creativecommons.org/ns#"
   xmlns:rdf="http://www.w3.org/1999/02/22-rdf-syntax-ns#"
   xmlns:svg="http://www.w3.org/2000/svg"
   xmlns="http://www.w3.org/2000/svg"
   xmlns:sodipodi="http://sodipodi.sourceforge.net/DTD/sodipodi-0.dtd"
   xmlns:inkscape="http://www.inkscape.org/namespaces/inkscape"
   width="86.188469mm"
   height="64.079025mm"
   viewBox="0 0 86.188469 64.079025"
   version="1.1"
   id="svg8"
   inkscape:version="1.0.1 (3bc2e813f5, 2020-09-07)"
   sodipodi:docname="ears.svg">
  <defs
     id="defs2" />
  <sodipodi:namedview
     id="base"
     pagecolor="#ffffff"
     bordercolor="#666666"
     borderopacity="1.0"
     inkscape:pageopacity="0.0"
     inkscape:pageshadow="2"
     inkscape:zoom="0.62925532"
     inkscape:cx="142.42836"
     inkscape:cy="117.07639"
     inkscape:document-units="mm"
     inkscape:current-layer="layer1"
     inkscape:document-rotation="0"
     showgrid="false"
     inkscape:window-width="1914"
     inkscape:window-height="521"
     inkscape:window-x="1920"
     inkscape:window-y="0"
     inkscape:window-maximized="1"
     fit-margin-top="0"
     fit-margin-left="0"
     fit-margin-right="0"
     fit-margin-bottom="0" />
  <metadata
     id="metadata5">
    <rdf:RDF>
      <cc:Work
         rdf:about="">
        <dc:format>image/svg+xml</dc:format>
        <dc:type
           rdf:resource="http://purl.org/dc/dcmitype/StillImage" />
        <dc:title></dc:title>
      </cc:Work>
    </rdf:RDF>
  </metadata>
  <g
     inkscape:label="Layer 1"
     inkscape:groupmode="layer"
     id="layer1"
     transform="translate(-15.652947,-9.3691525)">
    <path
       style="fill:#000000;stroke-width:0.216323"
       d="m 30.599321,73.09192 c -0.227969,-0.274689 -0.233807,-0.580308 -0.02968,-1.553506 0.294927,-1.406077 0.180889,-1.667521 -0.398451,-0.913505 -0.4986,0.648929 -0.566362,0.298195 -0.07729,-0.40006 0.216432,-0.308996 0.51929,-0.468297 0.811214,-0.426698 0.505289,0.07203 0.550996,0.491149 0.245986,2.255662 -0.0988,0.57156 -0.0692,0.943781 0.0825,1.037543 0.791916,0.489424 1.849657,-1.517409 1.36288,-2.585776 -0.205841,-0.451765 -0.19041,-0.570113 0.08827,-0.677055 0.577486,-0.221602 0.806445,0.253522 0.644044,1.336483 -0.260446,1.736779 -1.916809,2.906112 -2.729476,1.926912 z m 9.815754,-1.174385 C 39.651758,71.610077 39.219596,70.76861 39.38157,69.905208 39.527848,69.125487 39.32541,68.547983 38.679315,67.90189 38.473636,67.696215 37.700647,66.593484 36.961561,65.451386 36.222477,64.309288 35.308965,62.936782 34.931536,62.401384 34.554108,61.865978 33.626279,60.503145 32.869696,59.372853 32.113111,58.242561 30.934898,56.490345 30.251444,55.47903 29.56799,54.467715 28.876737,53.39692 28.715324,53.099469 28.553913,52.802026 28.246761,52.363972 28.032766,52.126017 27.81877,51.888063 27.289659,51.131463 26.856963,50.444695 c -0.853552,-1.354756 -0.933398,-1.402986 -3.477849,-2.100882 -6.21096,-1.703536 -8.598538,-5.727831 -7.445928,-12.550218 1.107371,-6.554615 6.9762,-14.193024 14.572477,-18.966397 2.002656,-1.258434 5.187487,-3.035285 5.732573,-3.198274 0.297445,-0.08893 0.76611,-0.303934 1.041476,-0.477781 0.275367,-0.173846 1.784153,-0.801649 3.352854,-1.395129 7.445581,-2.8168382 15.254304,-3.1717341 19.761924,-0.89815 l 1.117797,0.563801 1.694407,-0.568454 c 7.061143,-2.3689073 15.34792,-0.9725355 21.792607,3.672196 0.464969,0.33511 1.000367,0.707429 1.189772,0.827371 0.488108,0.309102 2.437366,2.274254 2.89501,2.918614 0.211251,0.297443 0.622521,0.869044 0.91393,1.270216 0.291401,0.401172 0.691379,1.305168 0.88883,2.008877 0.319543,1.138844 0.494125,1.382235 1.588328,2.214389 7.960439,6.053956 11.104299,12.998167 8.433979,18.62917 -1.190215,2.509854 -5.269878,4.941218 -10.319636,6.150204 l -1.135696,0.27191 -0.01096,1.76309 c -0.0057,0.969699 -0.05486,2.152472 -0.108438,2.628389 -0.05355,0.475909 -0.188564,1.815859 -0.299945,2.977661 -0.584519,6.097371 -3.344346,7.426127 -8.990696,4.328688 -5.080104,-2.786808 -6.877537,-3.087742 -8.604529,-1.440596 -0.660888,0.630337 -2.122545,3.928227 -2.961084,6.681007 -0.144972,0.475909 -0.425034,1.171908 -0.622367,1.546655 -0.19733,0.374747 -0.54069,1.032801 -0.763021,1.462336 -0.46458,0.897562 -1.810921,2.039022 -2.679385,2.271646 -1.155827,0.309592 -4.612435,-0.810848 -6.97542,-2.261042 -0.691633,-0.424466 -2.862307,-1.4837 -4.759116,-2.322337 -2.506545,-1.108217 -5.467088,-0.797913 -7.823795,0.82002 -1.71474,1.177214 -2.354066,2.035106 -2.204319,2.957891 0.19364,1.193256 -1.078771,2.153961 -2.235634,1.687969 z M 65.389777,70.05742 c 0.770055,-0.494116 1.904283,-2.415371 2.540324,-4.303023 0.320717,-0.951826 0.712236,-2.022621 0.870046,-2.379561 0.157813,-0.356932 0.399061,-1.095291 0.536108,-1.640802 0.740452,-2.947278 3.560159,-4.711783 6.194536,-3.876391 1.361657,0.431799 3.323179,1.343595 3.323179,1.54475 0,0.102731 0.09835,0.18678 0.218561,0.18678 0.120212,0 1.02066,0.396324 2.000995,0.880712 4.355653,2.152161 6.24929,1.431814 7.148855,-2.719454 0.491598,-2.268629 0.798787,-4.99097 0.798787,-7.078925 0,-1.982747 0.315741,-1.866509 -3.578319,-1.317392 -2.866483,0.404214 -12.801433,0.527393 -18.439368,0.228634 -2.905586,-0.153971 -3.124705,-0.137594 -3.683048,0.275204 -0.667543,0.493537 -2.880462,1.289136 -5.076091,1.824975 -5.160808,1.259497 -12.344157,0.576621 -19.302063,-1.834933 -3.901225,-1.352123 -3.963533,-1.364167 -5.681271,-1.097653 -0.847153,0.131445 -2.519424,0.238984 -3.716157,0.238984 -2.471654,0 -2.434811,-0.03663 -1.419865,1.410108 0.415808,0.592687 1.502123,2.197089 2.414034,3.565335 0.911912,1.368247 1.725433,2.536393 1.807827,2.595882 0.124874,0.09016 1.755815,2.57218 2.95892,4.502984 0.1717,0.275556 0.450052,0.664938 0.618562,0.8653 0.168512,0.200353 0.933406,1.337741 1.699768,2.527522 0.766361,1.18978 1.498679,2.281375 1.627369,2.425772 0.128693,0.144396 0.484116,0.63113 0.789828,1.08162 0.305713,0.45049 0.718899,0.827485 0.918194,0.837763 0.199292,0.0103 0.516602,0.08752 0.705132,0.171655 0.234547,0.104669 0.621188,-0.117211 1.22449,-0.702695 2.170574,-2.106475 4.660179,-3.179624 6.952364,-2.99685 1.526329,0.121708 5.372807,1.576154 6.978438,2.638708 0.453791,0.300305 0.883723,0.54601 0.955402,0.54601 0.07168,0 0.828194,0.353727 1.681145,0.786049 2.510064,1.272252 4.741098,1.577929 5.933318,0.812932 z M 56.464484,51.491069 c 6.226712,-0.619962 10.653365,-4.114322 11.358149,-8.966029 0.09709,-0.668356 0.239159,-1.372138 0.315712,-1.563964 0.117829,-0.295243 -0.1553,-0.386528 -1.779964,-0.594878 -1.055532,-0.13537 -2.642664,-0.443 -3.526965,-0.68362 -0.884297,-0.240628 -2.483925,-0.67291 -3.554726,-0.96064 -1.070802,-0.28773 -2.531475,-0.705973 -3.245936,-0.929432 l -1.299028,-0.40629 -2.378472,2.012581 c -2.896615,2.451019 -8.343622,6.129355 -9.076558,6.129355 -0.100304,0 -0.775871,0.279252 -1.501262,0.620551 -0.725389,0.341307 -2.371498,0.94271 -3.658022,1.336458 l -2.339132,0.715907 1.798324,0.688363 c 0.989078,0.378598 2.236377,0.800496 2.771778,0.937559 0.535401,0.137062 1.898239,0.496668 3.028529,0.799114 3.73831,1.00031 8.540524,1.317695 13.087573,0.864965 z m 27.614109,-2.386593 c 0.910406,-0.07326 1.958668,-0.220188 2.329475,-0.326533 0.805655,-0.231062 0.735832,-0.22045 1.477404,-0.224579 0.990204,-0.0057 1.170371,-0.258664 1.169005,-1.642559 -0.0033,-3.396149 -0.01709,-3.511586 -0.433124,-3.643629 -0.46568,-0.147806 -0.898126,-0.990989 -0.898126,-1.751186 0,-1.096304 1.479833,-1.776899 2.581533,-1.187287 0.900767,0.482082 0.650892,2.706176 -0.331749,2.952806 -0.508286,0.12757 -0.519193,0.179806 -0.519193,2.486421 0,2.68832 -0.130228,2.559016 2.0575,2.042979 1.736227,-0.409536 4.613159,-1.639509 6.125998,-2.61906 6.444714,-4.172854 4.330204,-13.571019 -4.570592,-20.31458 l -1.557834,-1.180272 -0.129868,1.451429 c -0.501467,5.604619 -4.127501,10.583163 -9.92917,13.632764 -2.908786,1.528978 -5.430373,2.055186 -9.773085,2.039463 l -2.958887,-0.01071 -0.148407,0.898927 c -0.372591,2.256856 -1.463176,4.662981 -2.774596,6.121523 -1.263199,1.404916 -1.606807,1.314489 5.70409,1.501098 3.152912,0.08045 5.749955,0.159252 5.771196,0.175057 0.05355,0.0399 4.797819,-0.240293 6.80843,-0.402064 z M 90.58357,38.701694 c -0.562157,-0.393748 -0.595834,-0.797021 -0.16787,-2.009997 0.380422,-1.078227 0.08957,-1.382301 -0.390592,-0.408351 -0.340056,0.689769 -0.345191,0.691699 -0.350039,0.131626 -0.0057,-0.661382 0.455853,-1.123048 1.012214,-1.012394 0.411564,0.08185 0.443172,0.529552 0.155344,2.200572 -0.102061,0.592556 -0.0596,0.888266 0.145704,1.015166 0.631957,0.390567 1.606474,-1.182627 1.425062,-2.300524 -0.08012,-0.493651 -0.02175,-0.74243 0.193456,-0.825016 0.78107,-0.299724 0.02764,2.900593 -0.785268,3.335655 -0.52741,0.282268 -0.675763,0.267077 -1.238011,-0.126737 z m 2.980395,-3.07865 c 0,-0.35129 0.81128,-2.457848 1.031305,-2.677872 0.605098,-0.605098 0.598287,0.152433 -0.013,1.441227 -0.58613,1.235868 -1.018346,1.760727 -1.018346,1.236645 z m 1.946911,-0.09142 c 0,-0.511025 0.895894,-2.766558 1.09888,-2.766558 0.381451,0 0.354438,0.379114 -0.104342,1.464406 -0.540361,1.278262 -0.994538,1.872919 -0.994538,1.302152 z M 34.117838,48.017861 c 1.715144,-0.307337 2.631556,-0.573196 6.231663,-1.807863 2.772597,-0.950869 6.640135,-3.179926 9.937744,-5.727627 2.285711,-1.765919 9.097606,-8.291232 9.097606,-8.714871 0,-0.123728 0.254544,-0.460955 0.565651,-0.749397 0.52976,-0.491157 2.679202,-3.504702 2.679202,-3.756269 0,-0.06304 0.301176,-0.604158 0.66928,-1.202405 1.15576,-1.878347 2.253436,-5.143885 2.33354,-6.942172 0.186622,-4.189533 -3.280756,-7.701782 -8.843555,-8.958 -0.05949,-0.01341 -0.400198,-0.09337 -0.757132,-0.1776405 C 54.820882,9.6957098 52.1452,9.6281923 50.292578,9.8367949 48.51614,10.036821 42.645824,11.371194 41.754485,11.777574 c -0.237956,0.108488 -0.968047,0.404443 -1.622426,0.657662 -1.731492,0.670032 -6.943684,3.230699 -7.298737,3.585759 -0.166918,0.166913 -0.397616,0.303485 -0.512659,0.303485 -0.249002,0 -4.09943,2.559703 -4.410882,2.932284 -0.118977,0.142328 -0.37408,0.343891 -0.566895,0.447914 -0.698411,0.376799 -3.787315,3.338206 -4.949354,4.745068 -0.654378,0.792238 -1.355573,1.619887 -1.558209,1.839217 -0.832441,0.900995 -2.727745,4.337714 -3.452186,6.259779 -3.01532,8.000133 -0.365184,14.130142 6.686902,15.467426 0.743612,0.141003 1.352022,0.19647 1.352022,0.123253 0,-0.454152 -1.321249,-1.653106 -1.867994,-1.695098 -1.852965,-0.14232 -1.795039,-2.806578 0.06923,-3.184317 1.13014,-0.228994 2.22467,1.320155 1.618514,2.290769 -0.170431,0.272899 -0.174543,0.432609 -0.01369,0.532013 0.126415,0.07816 0.574566,0.680939 0.995892,1.339581 l 0.766047,1.197524 2.623098,-0.132435 c 1.442703,-0.07285 3.469811,-0.284157 4.504682,-0.469597 z M 25.26629,39.250427 c -0.657362,-0.264518 -0.793018,-1.003801 -0.392415,-2.138557 0.395424,-1.12008 0.251711,-1.42341 -0.317108,-0.669304 -0.221681,0.293886 -0.482724,0.454504 -0.580095,0.356932 -0.09737,-0.09758 0.104387,-0.419634 0.44835,-0.715679 0.898179,-0.773049 1.411851,-0.291499 1.034073,0.969413 -0.417423,1.393232 -0.34133,2.027796 0.23337,1.946175 0.685721,-0.09738 1.630998,-1.982207 1.234014,-2.460544 -0.316919,-0.381869 0.02548,-0.894839 0.430283,-0.644654 0.490209,0.30297 -0.274315,2.708744 -1.04857,3.299599 -0.403823,0.30817 -0.415204,0.308783 -1.041902,0.05666 z M 45.030926,27.475465 c -1.137642,-1.054329 -0.620659,-3.57966 0.732823,-3.57966 0.842285,0 1.35141,0.788747 1.32601,2.054279 -0.03688,1.837279 -0.973513,2.531226 -2.058833,1.525381 z m 1.392304,-0.73652 c 0.0098,-0.314457 0.05916,-0.819873 0.109737,-1.123137 0.131489,-0.788511 -0.413589,-1.469466 -0.92607,-1.156922 -0.553247,0.337416 -0.678046,2.44878 -0.166839,2.822587 0.511027,0.373667 0.962415,0.124585 0.983172,-0.542528 z m -7.472492,-0.582851 c -2.101276,-1.947402 1.594817,-6.670132 3.8981,-4.980847 0.366086,0.268492 0.468438,0.2642 0.798478,-0.03352 0.442766,-0.399415 0.450978,-0.296912 0.08682,1.083811 -0.274309,1.040078 -0.573552,1.161696 -0.573552,0.233106 0,-1.579776 -2.296267,-1.428986 -3.407095,0.22372 -1.512707,2.250642 -0.211988,4.625076 1.847521,3.372611 0.865409,-0.52629 0.956456,-1.29387 0.153471,-1.29387 -0.297444,0 -0.540808,-0.09734 -0.540808,-0.21632 0,-0.118986 0.5354,-0.216329 1.189779,-0.216329 0.654379,0 1.189779,0.09734 1.189779,0.216329 0,0.118977 -0.09359,0.21632 -0.207987,0.21632 -0.114391,0 -0.311164,0.383177 -0.437269,0.851499 -0.150131,0.557546 -0.358379,0.858717 -0.603229,0.872404 -0.205667,0.01145 -0.911153,0.07408 -1.567742,0.139074 -1.081734,0.107081 -1.253173,0.06312 -1.82627,-0.467978 z M 75.825438,40.1288 C 82.43735,38.930451 88.1547,34.328709 90.215339,28.546758 91.681796,24.43202 90.812523,20.614708 87.677523,17.402241 86.318279,16.00941 82.583978,13.335422 81.336099,12.861394 80.982241,12.72698 80.108643,12.343591 79.394772,12.009429 78.680908,11.67526 77.026036,11.122725 75.717278,10.781565 72.008727,9.8148342 68.237204,9.8984583 64.360291,11.033362 c -0.5354,0.156734 -1.253421,0.345485 -1.595604,0.419445 l -0.622148,0.134479 0.949501,0.909785 c 2.84754,2.728423 3.549114,5.442211 2.471462,9.559983 -0.351658,1.343702 -2.298366,5.444819 -2.966065,6.248586 -0.208998,0.251592 -0.994022,1.284876 -1.744497,2.29619 -1.626937,2.192404 -2.195368,2.856394 -4.118052,4.810388 -1.719789,1.747792 -1.737519,1.813487 -0.540808,2.003889 0.505656,0.08045 1.990176,0.475402 3.298933,0.87767 5.999333,1.843992 12.347574,2.557242 16.332425,1.835023 z m 0.486726,-12.704615 c 0.20821,-0.05445 0.38446,-0.213476 0.391663,-0.353474 0.115683,-2.248401 0.101285,-2.376781 -0.277706,-2.475882 -0.373365,-0.09764 -0.548119,-0.479719 -0.222117,-0.485655 0.08923,-0.0016 0.381271,-0.06165 0.64897,-0.1334 0.475239,-0.127357 0.486726,-0.08934 0.486726,1.610338 0,1.633256 0.03009,1.746567 0.486726,1.834524 0.267707,0.05159 -0.04865,0.09571 -0.703047,0.09811 -0.654383,0.0025 -1.019425,-0.04014 -0.811215,-0.09456 z m -5.567654,-0.9662 c -1.644426,-1.00071 -1.626006,-3.044867 0.04148,-4.603794 1.143563,-1.069119 2.179131,-1.36684 3.120594,-0.897178 0.451575,0.225274 0.751316,0.276153 0.798197,0.135501 0.04129,-0.123883 0.164321,-0.225241 0.273381,-0.225241 0.288744,0 0.225094,0.872307 -0.11838,1.622422 -0.291393,0.636388 -0.297558,0.638489 -0.318039,0.108169 -0.06753,-1.748284 -2.298289,-1.869468 -3.494298,-0.189831 -1.521135,2.136235 0.301832,5.067718 2.058811,3.310743 0.389945,-0.389946 0.45962,-1.200671 0.09625,-1.119925 -0.13385,0.02976 -0.287981,-0.06761 -0.342511,-0.21632 -0.07108,-0.193862 0.212115,-0.270405 1.000496,-0.270405 1.141023,0 1.406776,0.253047 0.676307,0.643991 -0.235976,0.126286 -0.485982,0.560481 -0.564889,0.981063 -0.133646,0.712417 -0.522201,1.067746 -0.529351,0.484102 -0.0025,-0.198653 -0.05273,-0.192398 -0.189568,0.02355 -0.250062,0.394664 -1.970052,0.54081 -2.508488,0.213148 z M 34.075001,69.835556 c 0,-0.508253 0.470915,-2.084946 0.720941,-2.413818 0.478603,-0.629536 0.530417,0.154289 0.09372,1.417687 -0.447305,1.294081 -0.814657,1.743263 -0.814657,0.996131 z"
       id="path857" />
  </g>
</svg>
