<?xml version="1.0" encoding="UTF-8" standalone="no"?>
<svg
   xmlns:dc="http://purl.org/dc/elements/1.1/"
   xmlns:cc="http://creativecommons.org/ns#"
   xmlns:rdf="http://www.w3.org/1999/02/22-rdf-syntax-ns#"
   xmlns:svg="http://www.w3.org/2000/svg"
   xmlns="http://www.w3.org/2000/svg"
   xmlns:sodipodi="http://sodipodi.sourceforge.net/DTD/sodipodi-0.dtd"
   xmlns:inkscape="http://www.inkscape.org/namespaces/inkscape"
   width="125.75251mm"
   height="51.585526mm"
   viewBox="0 0 125.75251 51.585526"
   version="1.1"
   id="svg8"
   inkscape:version="1.0.1 (3bc2e813f5, 2020-09-07)"
   sodipodi:docname="bod-na-primce.svg">
  <defs
     id="defs2" />
  <sodipodi:namedview
     id="base"
     pagecolor="#ffffff"
     bordercolor="#666666"
     borderopacity="1.0"
     inkscape:pageopacity="0.0"
     inkscape:pageshadow="2"
     inkscape:zoom="0.45811492"
     inkscape:cx="202.74444"
     inkscape:cy="148.02497"
     inkscape:document-units="mm"
     inkscape:current-layer="layer1"
     inkscape:document-rotation="0"
     showgrid="false"
     inkscape:window-width="954"
     inkscape:window-height="1049"
     inkscape:window-x="2880"
     inkscape:window-y="0"
     inkscape:window-maximized="1"
     fit-margin-top="0"
     fit-margin-left="0"
     fit-margin-right="0"
     fit-margin-bottom="0" />
  <metadata
     id="metadata5">
    <rdf:RDF>
      <cc:Work
         rdf:about="">
        <dc:format>image/svg+xml</dc:format>
        <dc:type
           rdf:resource="http://purl.org/dc/dcmitype/StillImage" />
        <dc:title></dc:title>
      </cc:Work>
    </rdf:RDF>
  </metadata>
  <g
     inkscape:label="Layer 1"
     inkscape:groupmode="layer"
     id="layer1"
     transform="translate(18.511938,-6.1236721)">
    <path
       style="fill:#000000;stroke-width:0.264583"
       d="m -12.57015,57.129392 c -0.500601,-0.7147 -0.525687,-2.54716 -0.04357,-3.18227 0.855127,-1.12649 2.277521,-0.0937 2.277521,1.65364 0,1.82139 -1.371544,2.7599 -2.233955,1.52863 z m 1.53533,-0.67085 c 0.341713,-1.19148 0.0025,-2.70986 -0.605422,-2.70986 -0.280672,0 -0.553781,0.25174 -0.645856,0.59531 -0.594342,2.21778 0.628844,4.28485 1.251278,2.11455 z m 7.577791,0.99431 c 0,-0.14552 0.119063,-0.26459 0.264584,-0.26459 0.147277,0 0.264583,-0.71076 0.264583,-1.60311 0,-1.00137 -0.09931,-1.54174 -0.264583,-1.43959 -0.145521,0.0899 -0.264584,0.0513 -0.264584,-0.0858 0,-0.13714 0.238125,-0.31161 0.529167,-0.38772 0.489368,-0.12798 0.529167,-0.008 0.529167,1.59362 0,1.33923 0.104998,1.8117 0.46302,2.08348 0.411449,0.31233 0.35251,0.35242 -0.529166,0.3599 -0.545703,0.005 -0.992188,-0.11065 -0.992188,-0.25617 z m 8.466667,-0.23907 c 0,-0.14822 0.220964,-0.48248 0.491032,-0.74281 1.355066,-1.30621 1.63544,-2.72229 0.538993,-2.72229 -0.324469,0 -0.500859,0.18636 -0.500859,0.52917 0,0.29104 -0.119062,0.52916 -0.264583,0.52916 -0.489627,0 -0.269925,-1.03685 0.282326,-1.33241 1.50264,-0.80419 2.357726,1.16036 1.04059,2.39075 -0.436562,0.40781 -0.79375,0.81277 -0.79375,0.8999 0,0.28957 0.947114,0.16362 1.295681,-0.1723 0.277553,-0.26748 0.325186,-0.22953 0.249073,0.19844 -0.101568,0.5711 -2.338503,0.97515 -2.338503,0.42239 z m 48.418748,-1.2166 c 0,-0.13796 0.803672,-1.06433 1.785938,-2.0586 l 1.785937,-1.80775 -1.719791,0.80872 c -2.452918,1.15346 -2.888401,1.00398 -0.521703,-0.17908 l 1.976911,-0.98821 -1.984375,-0.15475 -1.984375,-0.15474 1.821743,-0.0477 c 2.771553,-0.0725 3.073048,-0.50282 3.073048,-4.38592 0,-2.65205 -0.05951,-3.04192 -0.529166,-3.46696 -0.681641,-0.61688 -0.668076,-1.05172 0.05538,-1.77517 0.888723,-0.88873 1.076013,-6.35988 0.233154,-6.81097 -0.739897,-0.39598 -0.754994,-1.73824 -0.02395,-2.12949 0.849149,-0.45445 0.819581,-14.8703 -0.03236,-15.77715 -0.630283,-0.6709 -0.518975,-1.94993 0.16969,-1.94993 0.323342,0 0.391835,-0.53186 0.391835,-3.04271 0,-1.85208 0.103531,-3.0427099 0.264583,-3.0427099 0.160353,0 0.264583,1.1465299 0.264583,2.9104199 0,2.55764 0.06414,2.97456 0.529167,3.43958 0.675045,0.67505 0.665147,0.92242 -0.06615,1.65336 -0.908108,0.90767 -1.107543,15.36091 -0.220533,15.9822 0.696736,0.48801 0.706163,1.28699 0.02209,1.87271 -0.472408,0.40449 -0.529167,0.78051 -0.529167,3.50564 0,2.76601 0.04967,3.08358 0.529167,3.38303 0.291042,0.18175 0.529167,0.56875 0.529167,0.85998 0,0.29123 -0.238125,0.7334 -0.529167,0.9826 -0.650105,0.55664 -0.828521,6.68548 -0.194617,6.68548 0.680749,0 7.073786,-6.71066 7.073786,-7.42524 0,-0.85685 0.453282,-1.30601 1.31799,-1.30601 0.497303,0 1.361525,-0.64331 3.178784,-2.36623 l 2.495801,-2.36623 -2.282333,-1.09514 c -1.810843,-0.86891 -2.387632,-1.03879 -2.79205,-0.82235 -0.769995,0.41209 -1.635638,0.0695 -1.829133,-0.72385 -0.09336,-0.38279 -0.389713,-0.97993 -0.658564,-1.32698 -1.224341,-1.58044 0.20805,-4.50866 5.030224,-10.28323 l 1.160102,-1.38923 -1.744344,-1.949 c -1.412606,-1.57834 -1.862088,-1.92649 -2.363476,-1.83064 -0.78672,0.15039 -1.375174,-0.5315 -1.300816,-1.50736 0.04094,-0.53733 -0.2497,-1.08513 -1.073957,-2.02417 -2.366515,-2.69605 -3.69435,-4.3601499 -3.574637,-4.4798599 0.06831,-0.0683 0.854097,0.7410999 1.746189,1.7986799 3.079142,3.65035 3.408355,3.98523 3.725257,3.78938 0.594132,-0.3672 1.677477,0.62098 1.529487,1.39514 -0.103944,0.54375 0.08332,0.94004 0.833522,1.76384 0.532173,0.58439 1.29472,1.45769 1.694551,1.94067 0.820319,0.99092 0.628398,1.08553 2.649434,-1.30612 0.979112,-1.15867 1.25381,-1.68867 1.25381,-2.41909 0,-0.95392 0.320966,-1.25656 1.332674,-1.25656 0.302676,0 1.337795,-1.00434 2.658737,-2.57968 2.185173,-2.6060299 3.499683,-3.7789099 1.824048,-1.62753 -0.498848,0.64048 -0.969602,1.22404 -1.046122,1.2968 -1.394352,1.32583 -2.58358,3.15256 -2.463004,3.78331 0.174064,0.91055 -0.316061,1.50835 -1.236662,1.50835 -0.480986,0 -0.962353,0.28355 -1.459812,0.8599 -0.408207,0.47294 -1.140513,1.27984 -1.627344,1.79311 l -0.885147,0.93321 2.096383,2.63866 c 3.448881,4.34102 4.490559,7.10458 3.312123,8.78703 -0.235548,0.33629 -0.339815,0.83547 -0.249597,1.19493 0.202371,0.80632 -0.669351,1.63735 -1.518013,1.44716 -0.455242,-0.10203 -0.788471,0.0819 -1.33967,0.73953 l -0.733697,0.87534 1.659739,0.9893 c 3.149033,1.87701 3.9493,3.26003 2.453489,4.24012 -0.363802,0.23837 -0.661458,0.64326 -0.661458,0.89975 0,0.7231 -0.636837,1.08354 -1.770833,1.00225 -1.013367,-0.0726 -15.642004,6.70855 -15.678662,7.26794 -0.03442,0.5252 6.202611,0.2098 6.540177,-0.33073 0.186332,-0.29836 0.617013,-0.52916 0.987443,-0.52916 0.37043,0 0.801111,0.2308 0.987444,0.52916 0.299399,0.47942 0.617016,0.52917 3.378181,0.52917 2.761165,0 3.078781,-0.0498 3.378181,-0.52917 0.416335,-0.66665 1.508654,-0.68651 1.964629,-0.0357 0.556176,0.79382 11.584297,1.05928 12.064467,0.29041 0.43709,-0.6999 1.79254,-0.69894 2.16742,0.002 0.2486,0.46451 0.61427,0.52986 3.38274,0.60456 l 3.10402,0.0838 -3.1775,0.0569 c -2.85656,0.0511 -3.21088,0.11035 -3.50797,0.58606 -0.18176,0.29104 -0.59848,0.52917 -0.92604,0.52917 -0.32757,0 -0.74429,-0.23813 -0.92604,-0.52917 -0.37167,-0.59513 -11.741166,-0.8451 -12.099071,-0.266 -0.419563,0.67887 -1.136306,0.78245 -1.800272,0.26018 -0.877708,-0.69046 -6.512401,-0.79134 -7.064147,-0.12652 -0.432568,0.52121 -1.294345,0.50474 -1.892028,-0.0362 -0.375393,-0.33973 -1.120947,-0.44375 -3.460416,-0.48282 -3.630372,-0.0606 -4.172556,0.26644 -4.172556,2.51697 0,0.72011 -0.119062,1.30929 -0.264583,1.30929 -0.145521,0 -0.264584,-0.65485 -0.264584,-1.45521 0,-1.89656 -0.234785,-1.86543 -2.440754,0.32363 -0.98592,0.97837 -1.792579,1.66596 -1.792579,1.528 z m 13.281157,-9.00195 c 3.973227,-1.96815 7.332122,-3.78386 7.464213,-4.0349 0.132088,-0.25104 0.322842,-0.63503 0.423894,-0.85332 0.233955,-0.50534 1.238422,-0.66193 1.714053,-0.26719 0.357952,0.29708 1.458349,-0.4551 1.458349,-0.99685 0,-0.64673 -3.977296,-3.76304 -4.802701,-3.76304 -0.686548,0 -4.986882,4.68403 -4.986882,5.43184 0,1.01945 -0.553,1.55504 -1.432089,1.38699 -0.536623,-0.10258 -1.195268,0.43252 -4.032599,3.27616 -1.86517,1.86932 -3.310009,3.39876 -3.210753,3.39876 0.09926,0 3.431286,-1.6103 7.404515,-3.57845 z m 7.048629,-11.32601 c 0.539949,-0.55708 0.795007,-1.03638 0.692986,-1.30224 -0.274351,-0.71495 0.350306,-1.52038 1.17914,-1.52038 1.668116,0 2.004427,-2.27096 0.710017,-4.79443 -0.945197,-1.84267 -4.393647,-6.18578 -4.911542,-6.18578 -0.492578,0 -4.786117,5.54705 -5.67644,7.3337 -1.048268,2.1036 -0.716489,4.66303 0.47616,3.67322 0.544553,-0.45194 1.691767,0.0706 1.797852,0.81893 0.06682,0.4713 0.59654,0.86028 2.335374,1.71486 2.7359,1.3446 2.374315,1.3167 3.396453,0.26212 z m 25.178548,17.55029 c -1.087004,-1.087 -0.42869,-3.70416 0.93174,-3.70416 0.88399,0 1.32364,0.98197 1.21422,2.71198 -0.0322,0.50852 -0.93239,1.52135 -1.35221,1.52135 -0.14552,0 -0.5027,-0.23812 -0.79375,-0.52917 z m 1.41805,-0.72972 c 0.33892,-1.18178 -0.003,-2.76613 -0.57323,-2.65773 -0.4618,0.0877 -0.79235,2.45306 -0.46283,3.31177 0.22931,0.59759 0.77609,0.25242 1.03606,-0.65404 z m 4.82895,0.85351 c -1.0926,-1.09261 -0.65246,-3.62256 0.65677,-3.77518 0.95815,-0.1117 1.40008,0.55704 1.40008,2.11866 0,1.79616 -1.06195,2.65142 -2.05685,1.65652 z m 1.10842,-0.1767 c 0.36734,-0.36735 0.42063,-2.54953 0.0756,-3.09449 -0.49498,-0.78171 -1.08099,-0.0957 -1.08099,1.26538 0,1.96396 0.3088,2.52573 1.00542,1.82911 z m -4.11427,0.13511 c 0.37528,-0.0981 0.46302,-0.41815 0.46302,-1.68909 0,-1.30996 -0.0762,-1.57117 -0.46302,-1.5867 -0.39593,-0.0159 -0.38635,-0.0515 0.0661,-0.24599 0.89051,-0.38267 0.92604,-0.32251 0.92604,1.5681 0,1.52293 0.0783,1.85314 0.46302,1.95368 0.25466,0.0665 -0.0728,0.121 -0.72761,0.121 -0.65484,0 -0.98226,-0.0545 -0.7276,-0.121 z M -17.8438,52.614922 c -1.225678,-0.89624 -0.642538,-3.89332 0.757521,-3.89332 0.816864,0 1.193835,0.6917 1.193835,2.19055 0,1.66214 -0.914995,2.46057 -1.951356,1.70277 z m 1.104689,-0.24207 c 0.367345,-0.36735 0.420635,-2.54953 0.07557,-3.09449 -0.699934,-1.1054 -1.515309,0.79067 -1.055753,2.45505 0.281709,1.02026 0.473948,1.14568 0.980185,0.63944 z m 4.804841,-0.43161 c -1.157159,-0.93701 -0.01049,-2.616 1.305579,-1.91166 0.8458766,0.4527 0.9861409,1.35854 0.296795,1.91674 -0.736137,0.59609 -0.860448,0.59569 -1.602374,-0.005 z m 8.940262,0.19875 c -0.700846,-0.40821 -0.612925,-1.78981 0.132292,-2.07883 1.224839,-0.47505 2.29636904,1.02262 1.384244,1.93475 -0.492064,0.49206 -0.859196,0.52694 -1.516536,0.14408 z m 8.684003,-0.13 c -0.904563,-0.90456 -0.242012,-2.07113 1.089581,-1.91845 0.593005,0.068 0.760872,0.23586 0.828868,0.82887 0.152683,1.33159 -1.013886,1.99414 -1.918449,1.08958 z m 14.048116,0.23938 c -0.324633,-0.32463 -0.180959,-1.6071 0.217048,-1.93742 0.999384,-0.82942 2.549792,0.72099 1.720377,1.72038 -0.330317,0.398 -1.612792,0.54168 -1.937425,0.21704 z m -1.508988,-3.88851 c 0.493213,-0.49321 0.345806,-3.07885 -0.175527,-3.07885 -0.580358,0 -0.131603,-0.45329 0.567465,-0.5732 0.466667,-0.08 0.515906,0.0788 0.529167,1.70733 0.01056,1.29755 0.124698,1.86427 0.411493,2.04323 0.284681,0.17765 0.113655,0.23749 -0.604993,0.21171 -0.691494,-0.0248 -0.916903,-0.12092 -0.727605,-0.31022 z m 2.664823,-0.15104 c -0.673026,-1.25755 -0.01196,-3.72156 0.998455,-3.72156 1.095664,0 1.770843,2.39686 1.004602,3.5663 -0.529632,0.80831 -1.608786,0.89197 -2.003057,0.15526 z m 1.5264,-1.44759 c 0.09023,-1.74553 -0.181462,-2.2675 -0.838343,-1.61062 -0.772044,0.77205 -0.505873,3.40825 0.328115,3.24968 0.327123,-0.0622 0.44895,-0.45356 0.510228,-1.63906 z m 1.67922,1.6106 c -0.649835,-0.783 -0.485757,-3.23978 0.242398,-3.62948 1.373089,-0.73485 2.485911,1.73723 1.560449,3.46647 -0.31333,0.58547 -1.372746,0.68125 -1.802847,0.16301 z m 1.386972,-0.33433 c 0.520901,-1.35745 -0.101126,-3.52791 -0.871754,-3.04184 -0.396828,0.2503 -0.545066,2.20268 -0.227579,2.99733 0.23055,0.57705 0.884814,0.60354 1.099333,0.0445 z m -37.393117,-4.78511 c -0.687476,-0.48153 -0.698439,-1.19124 -0.02778,-1.79818 0.706024,-0.63895 1.799502,-0.35376 2.0205525,0.52698 0.2960639,1.17961 -0.9702525,1.9874 -1.9927745,1.2712 z m 8.887432,-0.0427 c -1.005555,-1.11113 -0.02971,-2.54315 1.315378,-1.93029 0.73718604,0.33588 0.84638804,1.3642 0.212216,1.99837 -0.545114,0.54512 -0.990628,0.52526 -1.527594,-0.0681 z m 8.731251,0 c -0.615138,-0.67972 -0.544957,-1.28587 0.205832,-1.77781 1.187588,-0.77814 2.3865235,0.44496 1.605145,1.63749 -0.489511,0.74709 -1.211252,0.80301 -1.810977,0.14032 z m -23.655069,-0.2277 c 0.375278,-0.0981 0.463021,-0.41815 0.463021,-1.6891 0,-1.31549 -0.07459,-1.56875 -0.463021,-1.57215 -0.395697,-0.004 -0.405315,-0.0413 -0.06615,-0.26053 0.881419,-0.56962 1.058333,-0.30793 1.058333,1.56545 0,1.21647 0.110886,1.87478 0.330729,1.96349 0.181901,0.0734 -0.145521,0.12904 -0.727604,0.12365 -0.582083,-0.005 -0.849974,-0.0643 -0.595312,-0.13081 z m 23.796242,-8.5592 c -0.705868,-0.65762 -0.730731,-1.09333 -0.0952,-1.66848 1.340842,-1.21344 2.9108425,0.40076 1.632812,1.67879 -0.660696,0.66069 -0.818507,0.65964 -1.53761,-0.0103 z m -17.578535,-0.0109 c -0.649039,-0.37803 -0.595528,-1.62084 0.08817,-2.04782 0.462168,-0.28863 0.65447,-0.27656 1.190625,0.0747 1.4433502,0.94572 0.213978,2.84254 -1.278797,1.97308 z m 8.585729,-0.0317 c -0.434495,-0.43449 -0.399413,-1.4018 0.06481,-1.78708 0.534051,-0.44322 1.473837,-0.24672 1.898972,0.39706 0.71397404,1.08117 -1.034803,2.31901 -1.963784,1.39002 z m -15.240547,-0.43434 c -0.07569,-0.12246 0.274475,-0.62206 0.778135,-1.11023 0.943859,-0.91483 1.170817,-1.8302 0.576144,-2.32374 -0.381325,-0.31647 -0.851022,-0.0872 -0.851022,0.41549 0,0.1819 -0.119063,0.33073 -0.264584,0.33073 -0.453216,0 -0.290176,-0.57992 0.267059,-0.94991 1.597279,-1.06056 2.448331,0.8468 1.027212,2.30216 l -1.004789,1.029 h 0.693106 c 0.381209,0 0.74626,-0.14883 0.811224,-0.33073 0.06497,-0.1819 0.196752,-0.25848 0.29286,-0.17016 0.09611,0.0883 0.09967,0.3562 0.0079,0.59531 -0.17787,0.46352 -2.071486,0.63564 -2.33326,0.21208 z m 1.326299,-12.61813 c -1.069857,-1.06986 -0.654703,-3.60634 0.61982,-3.78694 0.884371,-0.12531 1.335263,0.58761 1.335263,2.11122 0,1.68142 -1.049684,2.58112 -1.955083,1.67572 z m 1.152024,-0.37098 c 0.333525,-0.6232 0.35303,-2.39316 0.03196,-2.90022 -0.494975,-0.78171 -1.080985,-0.0957 -1.080985,1.26538 0,2.03384 0.455541,2.74377 1.049024,1.63484 z m 4.888524,0.40081 c -0.622488,-0.45517 -0.722601,-2.73087 -0.150465,-3.42025 0.654185,-0.78824 1.6014913,-0.54945 2.0466273,0.51591 0.8417787,2.01467 -0.4360926,3.97197 -1.8961623,2.90434 z m 1.3508592,-0.50557 c 0.3293163,-1.3121 0.028211,-2.95534 -0.5415342,-2.95534 -0.569744,0 -0.87085,1.64324 -0.541533,2.95534 0.199811,0.79611 0.8832555,0.79611 1.0830672,0 z m -4.3118452,0.43415 c 0.375278,-0.0981 0.46302,-0.41816 0.46302,-1.6891 0,-1.30995 -0.07622,-1.57116 -0.46302,-1.5867 -0.395933,-0.0159 -0.386349,-0.0515 0.06615,-0.24598 0.890453,-0.38264 0.926041,-0.32248 0.926041,1.56545 0,1.21646 0.110886,1.87478 0.330729,1.96349 0.181902,0.0734 -0.14552,0.12904 -0.727604,0.12364 -0.582083,-0.005 -0.849974,-0.0643 -0.595312,-0.1308 z m 31.052091,-4.01813 c -1.4786,-1.63384 -0.255492,-4.72588 1.408396,-3.56045 0.765463,0.53616 0.776295,2.76845 0.01712,3.52763 -0.655151,0.65515 -0.858078,0.65982 -1.425512,0.0328 z m 1.30659,-0.65335 c 0.330078,-1.31513 0.03017,-2.68058 -0.608682,-2.77131 -0.594548,-0.0844 -0.954675,2.6797 -0.418923,3.21545 0.370663,0.37067 0.878155,0.15132 1.027605,-0.44414 z m -7.818578,0.60167 c 0,-0.17264 0.408006,-0.76549 0.906677,-1.31746 1.037103,-1.14795 1.043133,-2.10326 0.01328,-2.10326 -0.488238,0 -0.577173,0.10958 -0.458187,0.56459 0.155257,0.5937 -0.462852,0.62278 -0.660096,0.031 -0.2232,-0.6696 1.195255,-1.2259 1.918121,-0.75226 0.907179,0.5944 0.831056,1.15125 -0.318281,2.32827 -0.991116,1.015 -0.334018,1.65748 0.68792,0.67262 0.277553,-0.26748 0.325186,-0.22953 0.249073,0.19844 -0.108445,0.60975 -2.338504,0.97024 -2.338504,0.37801 z m 3.505729,0.10106 c 0.645293,-0.16863 0.693209,-3.2572 0.05053,-3.2572 -0.226869,0 -0.338904,-0.11906 -0.248967,-0.26458 0.611981,-0.99021 1.190625,-0.2294 1.190625,1.56545 0,1.21646 0.110887,1.87478 0.330729,1.96349 0.181901,0.0734 -0.145521,0.12904 -0.727604,0.12364 -0.582084,-0.005 -0.849974,-0.0643 -0.595313,-0.1308 z m -7.973272,-0.51404 c -0.769668,-0.53909 -0.732433,-1.6174 0.06845,-1.9823 0.827823,-0.37718 1.754746,0.10085 1.749208,0.9021 -0.0081,1.16507 -0.921485,1.70791 -1.817658,1.0802 z m -17.969123,-0.15024 c -0.40812,-0.40812 -0.40812,-1.33813 0,-1.74625 0.742155,-0.74216 2.0637494,-0.18302 2.0637494,0.87312 0,0.70921 -0.4814204,1.19063 -1.1906244,1.19063 -0.305594,0 -0.6985,-0.14288 -0.873125,-0.3175 z m 8.828093,-0.19237 c -0.454158,-0.50184 -0.457017,-0.57622 -0.04624,-1.20314 0.579682,-0.88471 1.545965,-0.87972 2.022365,0.0104 0.70718404,1.32138 -0.952908,2.32334 -1.976124,1.1927 z m 92.098541,-2.35524 c -0.6163,-0.68099 -0.58774,-2.7381 0.046,-3.31159 1.04464,-0.9453899 2.16198,-0.13162 2.16198,1.5746 0,1.86382 -1.22268,2.8257 -2.20795,1.73699 z m 1.44213,-0.50833 c 0.31267,-0.81417 0.14554,-2.38218 -0.30072,-2.82144 -0.4603,-0.45307 -1.05013,0.57306 -1.05013,1.82691 0,1.66937 0.85107,2.29595 1.35085,0.99453 z m -7.37012,0.54522 c 0.37527,-0.0981 0.46302,-0.41816 0.46302,-1.6891 0,-1.30995 -0.0762,-1.57116 -0.46302,-1.5867 -0.39594,-0.0159 -0.38635,-0.0515 0.0661,-0.24598 0.89051,-0.38267 0.92604,-0.32251 0.92604,1.5681 0,1.52293 0.0783,1.85313 0.46302,1.95368 0.25466,0.0665 -0.0728,0.121 -0.7276,0.121 -0.65485,0 -0.98227,-0.0545 -0.72761,-0.121 z m 3.10885,-0.0346 c 0.63776,-0.28899 0.70829,-2.82851 0.0886,-3.18881 -0.26699,-0.15523 -0.34635,-0.28585 -0.17635,-0.29028 0.17,-0.004 0.49742,-0.0803 0.7276,-0.16864 0.35715,-0.13705 0.41852,0.11188 0.41852,1.69774 0,1.23911 0.1102,1.90281 0.33073,1.99179 0.1819,0.0734 -0.14552,0.13449 -0.72761,0.13575 -0.58426,10e-4 -0.88055,-0.0783 -0.66146,-0.17755 z M 1.396538,13.250462 C 0.35604304,12.863602 0.24391504,9.8549821 1.25071,9.3377021 c 1.01242,-0.52017 1.906844,0.36216 1.906844,1.8810799 0,1.71008 -0.640016,2.44847 -1.761016,2.03168 z m 0.973227,-1.06345 c 0.37904,-1.40764 0.121269,-2.6236999 -0.556151,-2.6236999 -0.448342,0 -0.508143,0.19981 -0.508143,1.6977499 0,1.53461 0.07646,1.74624 0.717407,1.98553 0.03077,0.0115 0.18687,-0.46532 0.346887,-1.05958 z m -7.348148,0.89809 c 0.374455,-0.0979 0.463021,-0.41724 0.463021,-1.6697 0,-1.25613 -0.08747,-1.5697499 -0.463021,-1.6600899 -0.379041,-0.0912 -0.343049,-0.16038 0.198438,-0.38147 l 0.661458,-0.27008 0.07497,1.7511299 c 0.05379,1.25627 0.198925,1.84459 0.513591,2.08186 0.371078,0.2798 0.257681,0.326 -0.736432,0.30004 -0.646274,-0.0169 -0.966686,-0.0851 -0.712025,-0.15169 z m 3.153372,-0.0913 c 0.608421,-0.35506 0.576042,-3.1638299 -0.03654,-3.1699599 -0.357956,-0.004 -0.35888,-0.0338 -0.008,-0.26054 0.88142005,-0.56961 1.05833304,-0.30793 1.05833304,1.5654599 0,1.21646 0.110887,1.87477 0.33073,1.96348 0.181901,0.0734 -0.145521,0.13923 -0.72760504,0.1463 -0.808511,0.01 -0.954141,-0.048 -0.61694,-0.24474 z m 72.334023,-2.43103 c -0.911785,-1.3017599 -0.237373,-3.6452999 1.049026,-3.6452999 0.807315,0 1.184931,0.69809 1.184931,2.19056 0,1.8273599 -1.35495,2.7096899 -2.233957,1.4547399 z m 1.430899,-0.18832 c 0.526872,-0.9844799 0.23174,-3.1923999 -0.426731,-3.1923999 -0.473818,0 -0.73112,0.66322 -0.724093,1.8664 0.01003,1.7178799 0.585954,2.3814599 1.150824,1.3259999 z M 64.922785,9.8096221 c 1.104548,-1.2226 1.247132,-2.49527 0.279559,-2.49527 -0.357195,0 -0.503901,0.15047 -0.451421,0.46302 0.04611,0.2746 -0.08848,0.46302 -0.33073,0.46302 -0.558797,0 -0.512458,-0.42519 0.114692,-1.05234 0.562602,-0.5626 1.230567,-0.48289 1.791938,0.21384 0.509172,0.63194 0.406958,0.97916 -0.590637,2.00641 -0.94008,0.9680199 -0.347954,1.5373199 0.642808,0.6180199 0.291631,-0.2705899 0.325308,-0.2425999 0.185208,0.15394 -0.09418,0.26656 -0.171233,0.53445 -0.171233,0.59531 0,0.0609 -0.549635,0.11065 -1.221412,0.11065 h -1.221412 z m 2.781507,0.8247799 c 0.62811,-0.39732 0.709739,-3.1824699 0.09397,-3.2063599 -0.428487,-0.0166 -0.423201,-0.0427 0.04991,-0.24599 0.890453,-0.38264 0.926042,-0.32248 0.926042,1.56546 0,1.21646 0.110887,1.8747699 0.330729,1.9634799 0.181901,0.0734 -0.145521,0.14103 -0.727604,0.15029 -0.742984,0.0118 -0.943533,-0.0558 -0.673052,-0.22688 z m -19.329447,-0.6213 c 0.40931,-0.4093099 0.376608,-3.0209699 -0.03969,-3.1696499 -0.424936,-0.15176 -0.212283,-0.37963 0.463021,-0.49614 0.481359,-0.0831 0.536356,0.0754 0.608743,1.75347 0.04377,1.01462 0.210121,1.9254499 0.369678,2.0240599 0.159557,0.0986 -0.156048,0.1793 -0.701347,0.1793 -0.721053,0 -0.912074,-0.0794 -0.700407,-0.29104 z m 2.681599,-0.1678199 c -0.471495,-0.881 -0.33507,-2.79043 0.236316,-3.30753 1.386665,-1.254911 2.890919,1.56489 1.723749,3.23127 -0.510307,0.7285599 -1.588513,0.7705099 -1.960065,0.0763 z m 1.417593,-0.17132 c 0.586724,-1.52898 -0.06489,-3.74808 -0.865492,-2.94748 -0.605157,0.60516 -0.30608,3.3659899 0.364633,3.3659899 0.187142,0 0.41253,-0.1883299 0.500859,-0.4185099 z m 1.587817,0.016 c -0.766241,-1.16943 -0.09106,-3.56629 1.004602,-3.56629 1.010415,0 1.671481,2.464 0.998455,3.72156 -0.394271,0.7366999 -1.473424,0.6530499 -2.003057,-0.15527 z m 1.587183,-0.016 c 0.525084,-1.36835 2.64e-4,-3.4106 -0.797685,-3.10438 -0.380317,0.14594 -0.540538,2.99421 -0.188243,3.3465 0.312756,0.3127599 0.820886,0.1879699 0.985928,-0.24212 z"
       id="path1272" />
  </g>
</svg>
