<?xml version="1.0" encoding="UTF-8" standalone="no"?>
<svg
   xmlns:dc="http://purl.org/dc/elements/1.1/"
   xmlns:cc="http://creativecommons.org/ns#"
   xmlns:rdf="http://www.w3.org/1999/02/22-rdf-syntax-ns#"
   xmlns:svg="http://www.w3.org/2000/svg"
   xmlns="http://www.w3.org/2000/svg"
   xmlns:sodipodi="http://sodipodi.sourceforge.net/DTD/sodipodi-0.dtd"
   xmlns:inkscape="http://www.inkscape.org/namespaces/inkscape"
   width="97.221153mm"
   height="75.323532mm"
   viewBox="0 0 97.221153 75.323533"
   version="1.1"
   id="svg8"
   inkscape:version="1.0.1 (3bc2e813f5, 2020-09-07)"
   sodipodi:docname="bod-na-primce.svg">
  <defs
     id="defs2" />
  <sodipodi:namedview
     id="base"
     pagecolor="#ffffff"
     bordercolor="#666666"
     borderopacity="1.0"
     inkscape:pageopacity="0.0"
     inkscape:pageshadow="2"
     inkscape:zoom="0.64787234"
     inkscape:cx="241.94332"
     inkscape:cy="434.15032"
     inkscape:document-units="mm"
     inkscape:current-layer="layer1"
     inkscape:document-rotation="0"
     showgrid="false"
     inkscape:window-width="954"
     inkscape:window-height="1049"
     inkscape:window-x="2880"
     inkscape:window-y="0"
     inkscape:window-maximized="1"
     fit-margin-top="0"
     fit-margin-left="0"
     fit-margin-right="0"
     fit-margin-bottom="0" />
  <metadata
     id="metadata5">
    <rdf:RDF>
      <cc:Work
         rdf:about="">
        <dc:format>image/svg+xml</dc:format>
        <dc:type
           rdf:resource="http://purl.org/dc/dcmitype/StillImage" />
        <dc:title></dc:title>
      </cc:Work>
    </rdf:RDF>
  </metadata>
  <g
     inkscape:label="Layer 1"
     inkscape:groupmode="layer"
     id="layer1"
     transform="translate(3.799466,-2.6330453)">
    <path
       style="fill:#000000;stroke-width:0.264583"
       d="m 90.757297,77.414219 c -0.67577,-0.9648 -0.0635,-2.88386 0.92008,-2.88386 0.86515,0 1.41418,2.41708 0.70917,3.12209 -0.48404,0.48403 -1.1963,0.37989 -1.62925,-0.23823 z m 1.28529,-1.18611 c 0,-0.97994 -0.0979,-1.30087 -0.39688,-1.30087 -0.41831,0 -0.70402,1.67624 -0.41436,2.43107 0.32036,0.83486 0.81124,0.15098 0.81124,-1.1302 z m -14.664878,-1.05466 c -3.554537,-1.22402 -6.5068,-2.18148 -6.560584,-2.1277 -0.05379,0.0538 0.314817,0.94561 0.819113,1.98183 0.504298,1.03622 0.804867,1.88403 0.66793,1.88403 -0.136935,0 -0.618649,-0.7739 -1.070473,-1.71979 -0.559035,-1.17033 -0.97283,-1.71979 -1.295172,-1.71979 -0.260522,0 -0.694751,-0.30349 -0.964952,-0.67441 -0.408069,-0.56019 -2.260295,-1.27176 -10.936131,-4.20131 -5.744671,-1.93979 -12.409387,-4.20585 -14.810481,-5.03569 -2.401094,-0.82983 -5.734844,-1.96684 -7.408334,-2.52668 -1.673489,-0.55984 -8.162396,-2.7622 -14.419792,-4.89414 -6.257396,-2.13194 -13.2344508,-4.50608 -15.5045678,-5.27586 -4.676975,-1.58595 -6.14639897,-1.71049 -8.145913,-0.69041 -0.626637,0.31969 -1.199173,0.52141 -1.272301,0.44829 -0.07313,-0.0731 0.503957,-0.46783 1.28241,-0.87712 l 1.41537203,-0.74416 -1.45520903,-0.15654 c -0.800364,-0.0861 -1.336146,-0.17778 -1.190625,-0.20373 0.145521,-0.026 0.08599,-0.16259 -0.132291,-0.30366 -0.3161,-0.20428 -0.26225,-0.26109 0.264583,-0.27913 0.607255,-0.0208 0.618095,-0.0413 0.132292,-0.25003 -1.013722,-0.43561 0.313071,-0.29383 1.429091,0.15271 0.75991,0.30405 1.18055003,0.34364 1.55007803,0.14587 0.278935,-0.14928 0.735486,-0.21171 1.014559,-0.13873 0.31712697,0.0829 3.48337697,-1.34256 8.44329697,-3.80131 4.3647418,-2.1637 14.3666348,-7.12001 22.2264318,-11.01403 11.229497,-5.56348 14.35698,-7.22081 14.600704,-7.73726 0.280006,-0.59333 0.0045,-1.27877 -2.8335,-7.04953 -1.729015,-3.51576 -3.090347,-6.44561 -3.025182,-6.51077 0.187885,-0.18789 0.168579,-0.22443 3.513471,6.65044 2.041165,4.19528 3.327601,6.54844 3.579929,6.54844 0.216622,0 6.087993,-2.81185 13.04749,-6.24856 C 78.886027,9.6458887 84.824707,6.7669887 84.937677,6.8799587 c 0.10937,0.10937 -2.15422,1.24259 -22.528426,11.2783503 -16.157843,7.9589 -14.839411,7.24221 -14.725878,8.00488 0.04993,0.33543 1.338813,3.16972 2.864175,6.29842 1.525366,3.1287 3.675891,7.56378 4.778947,9.85573 1.116357,2.31959 2.163302,4.16719 2.361343,4.16719 0.195683,0 0.355788,0.11906 0.355788,0.26458 0,0.14552 0.113466,0.26459 0.252148,0.26459 0.215598,0 0.800272,-1.58595 0.804709,-2.18282 0.0029,-0.38828 -0.770485,-0.1907 -1.035664,0.26459 -0.251285,0.43143 -0.270235,0.43206 -0.277731,0.009 -0.01024,-0.57791 0.823008,-1.0409 1.320253,-0.73359 0.2242,0.13857 0.509632,0.11822 0.713348,-0.0508 0.44236,-0.36713 0.42866,-0.18372 -0.05564,0.74489 -0.751647,1.44122 -0.308634,2.62459 0.556099,1.48545 0.193318,-0.25466 0.355269,-0.32877 0.359899,-0.16469 0.01413,0.50107 -0.75022,0.96319 -1.338614,0.80933 -0.30585,-0.08 -0.723204,-0.0813 -0.927449,-0.003 -0.411242,0.1578 -0.514366,0.87963 -0.125672,0.87963 0.135128,0 0.406741,0.16106 0.603591,0.35791 0.286163,0.28616 2.867935,0.38914 12.879851,0.51373 6.88707,0.0857 12.598343,0.23484 12.691723,0.33142 0.0934,0.0966 -5.52759,0.12541 -12.491042,0.0641 -9.717199,-0.0856 -12.689255,-0.0374 -12.78314,0.20724 -0.158176,0.4122 2.718837,6.1759 3.40941,6.83029 0.569339,0.5395 0.987568,0.25558 0.996122,-0.67624 0.0021,-0.24276 0.07632,-0.62971 0.16465,-0.85989 0.106172,-0.27668 0.01371,-0.41852 -0.272888,-0.41852 -0.238416,0 -0.502018,0.1786 -0.58578,0.39688 -0.08376,0.21828 -0.26281,0.39687 -0.39788,0.39687 -0.140933,0 -0.128363,-0.21903 0.0295,-0.514 0.217379,-0.40618 0.552382,-0.51186 1.596891,-0.50377 1.312714,0.0102 1.868379,0.28299 1.296373,0.63651 -0.164163,0.10146 -0.391435,0.0341 -0.505044,-0.14975 -0.273281,-0.44219 -0.792607,0.50109 -0.792607,1.43965 0,0.78441 0.446378,0.88533 0.954603,0.21583 0.193318,-0.25466 0.355269,-0.32877 0.3599,-0.16469 0.01447,0.51289 -0.753854,0.96 -1.428171,0.8311 -1.038926,-0.19861 -1.321665,0.13466 -0.864412,1.01889 0.831704,1.60835 1.595474,1.86078 9.047871,2.99043 7.763214,1.17676 12.706334,2.08686 12.493054,2.30014 -0.0546,0.0546 -2.55974,-0.31419 -5.56694,-0.81957 -3.0072,-0.50539 -6.62923,-1.10455 -8.048958,-1.33147 -1.419727,-0.22692 -3.504057,-0.56934 -4.631843,-0.76093 -1.127787,-0.1916 -2.050521,-0.26505 -2.050521,-0.16324 0,0.79572 4.544161,9.49259 4.89049,9.35969 0.220646,-0.0847 0.401177,-0.0221 0.401177,0.13895 0,0.16109 0.113466,0.29289 0.252148,0.29289 0.215598,0 0.800272,-1.58595 0.804709,-2.18282 0.0028,-0.36887 -0.807686,-0.20155 -0.961176,0.19844 -0.08376,0.21828 -0.262811,0.39688 -0.39788,0.39688 -0.140933,0 -0.128363,-0.21904 0.0295,-0.51401 0.217379,-0.40618 0.552381,-0.51186 1.59689,-0.50377 1.312715,0.0102 1.868379,0.283 1.296374,0.63652 -0.164163,0.10145 -0.397396,0.0244 -0.518292,-0.17119 -0.246666,-0.39912 -0.77936,0.71363 -0.77936,1.628 0,0.63321 0.205484,0.64466 0.877563,0.0489 0.507664,-0.45 0.513347,-0.44587 0.202131,0.14692 -0.228233,0.43472 -0.524317,0.59428 -1.030687,0.55541 -1.66169,-0.12754 -1.877778,-0.0318 -1.545466,0.68466 0.168209,0.36267 0.395131,0.66033 0.504272,0.66146 0.109141,0.001 0.448283,0.25191 0.753655,0.55728 0.336703,0.33671 3.104277,1.42086 7.032154,2.75473 3.56232,1.20973 6.54701,2.26957 6.63263,2.3552 0.38814,0.38813 -1.02813,-0.0357 -7.056752,-2.11164 z m -10.586334,-8.93017 c -2.445027,-5.06608 -2.692201,-5.47125 -3.337684,-5.47125 -0.456925,0 -0.741415,-0.16944 -0.825709,-0.49178 -0.147206,-0.56292 -1.034251,-0.79207 -6.304148,-1.62857 -1.891771,-0.30028 -3.975365,-0.66391 -4.630208,-0.80805 -1.59207,-0.35045 -7.936199,-1.45643 -12.832292,-2.23707 -2.182813,-0.34802 -6.350001,-1.05506 -9.260417,-1.57118 -2.910417,-0.51612 -8.446823,-1.48675 -12.303126,-2.15696 -3.856302,-0.67021 -8.2616138,-1.44016 -9.7895828,-1.711 -2.978323,-0.52792 -4.35958,-0.63445 -3.175,-0.24487 0.363802,0.11964 2.506927,0.86709 4.7625,1.66099 2.2555728,0.7939 7.6729168,2.64663 12.0385418,4.11718 4.365625,1.47054 12.164219,4.11695 17.330209,5.8809 5.165989,1.76396 13.976615,4.75501 19.579167,6.64679 5.602552,1.89179 10.365052,3.54044 10.583333,3.66368 0.986608,0.55702 0.630259,-0.5396 -1.835584,-5.64881 z m -4.027082,-7.0273 c 0.614931,-0.38974 -3.72119,-9.29187 -4.52596,-9.29187 -0.293286,0 -0.665433,-0.16634 -0.826998,-0.36964 -0.246888,-0.31068 -4.611084,-0.38944 -27.35607,-0.49375 -14.884277,-0.0682 -27.0270628,-0.0888 -26.9839698,-0.0457 0.04309,0.0431 1.505512,0.32056 3.24982,0.6166 1.744308,0.29604 4.8978738,0.84686 7.0079258,1.22404 2.110052,0.37719 5.622396,0.97278 7.805209,1.32353 2.182812,0.35075 4.266406,0.71279 4.630208,0.80453 0.780061,0.19671 7.368527,1.33586 10.583334,1.82987 1.236927,0.19008 2.963333,0.48308 3.836458,0.65112 0.873125,0.16804 4.028282,0.72323 7.011459,1.23374 9.660303,1.65318 11.215312,1.9276 13.096875,2.31128 1.018646,0.20771 1.911615,0.38973 1.984375,0.40449 0.07276,0.0148 0.292061,-0.0744 0.487334,-0.1982 z M 3.4512632,49.483139 c -0.09701,-0.097 -0.255764,-0.097 -0.352778,0 -0.09701,0.097 -0.01764,0.17639 0.176389,0.17639 0.194028,0 0.273403,-0.0794 0.176389,-0.17639 z m 54.0273238,-0.97101 c 0.248153,-0.29901 0.04021,-0.92254 -1.016712,-3.04866 -0.730766,-1.47003 -1.328666,-2.72621 -1.328666,-2.79151 0,-0.95573 -7.944604,-15.91035 -8.483119,-15.9683 -0.354753,-0.0382 -0.764069,-0.0824 -0.90959,-0.0982 -0.14552,-0.0159 -9.849114,4.72447 -21.563542,10.53403 -11.714427,5.80957 -21.7156768,10.73533 -22.2249998,10.94614 -0.823797,0.34097 1.294128,0.3979 19.1822918,0.51559 11.059583,0.0728 23.691245,0.16706 28.070355,0.20955 6.625371,0.0643 8.014394,0.0142 8.273982,-0.29862 z m -59.7599628,-0.30781 c 0,-0.0728 -0.05953,-0.13229 -0.132291,-0.13229 -0.07276,0 -0.132292,0.0595 -0.132292,0.13229 0,0.0728 0.05953,0.13229 0.132292,0.13229 0.07276,0 0.132291,-0.0595 0.132291,-0.13229 z m 88.9661528,28.42152 c 0.25466,-0.14833 0.46302,-0.42869 0.46302,-0.62303 0,-0.19434 0.2036,-0.98376 0.45244,-1.75427 0.33982,-1.05219 0.37275,-1.42749 0.1323,-1.50764 -0.94227,-0.31409 -0.1655,-0.6442 1.27128,-0.54027 2.89321,0.20927 2.7505,2.59432 -0.15523,2.59432 -0.79561,0 -1.3759,1.15484 -0.88033,1.75197 0.24844,0.29936 0.11911,0.36325 -0.72192,0.35665 -0.82447,-0.006 -0.93415,-0.0607 -0.56156,-0.27773 z m 3.12624,-2.36937 c 0.57071,-0.30543 0.69663,-1.45125 0.18105,-1.64741 -0.51039,-0.19418 -1.52136,0.27132 -1.52136,0.70051 0,0.21107 -0.0723,0.5721 -0.1606,0.80228 -0.19001,0.49516 0.68787,0.57975 1.50091,0.14462 z m -16.676833,-3.41288 c -0.753369,-1.40769 0.152813,-3.28447 1.291598,-2.67501 0.5588,0.29906 0.768303,1.78394 0.390578,2.76827 -0.224954,0.58622 -1.351968,0.52374 -1.682176,-0.0933 z m 1.444593,-0.54062 c 0.230744,-1.05055 -0.06275,-1.90959 -0.616611,-1.80476 -0.4528,0.0857 -0.748144,1.48917 -0.46736,2.22088 0.249888,0.6512 0.904767,0.39981 1.083971,-0.41612 z m 16.47162,-3.88534 c 0.42552,-0.1717 0.43582,-2.25968 0.0132,-2.68227 -0.24694,-0.24694 -0.18815,-0.3175 0.26458,-0.3175 0.52822,0 0.58209,0.13288 0.58209,1.43581 0,1.14495 0.0938,1.46032 0.46302,1.55681 0.25466,0.0666 -0.0132,0.12541 -0.59532,0.1308 -0.58208,0.005 -0.9095,-0.0502 -0.7276,-0.12365 z m -4.40151,-1.05857 c 0.48404,-0.12929 1.44523,-3.27862 1.1976,-3.92393 -0.12574,-0.32768 0.12929,-0.39852 1.4348,-0.39852 2.6816,0 2.6305,1.99937 -0.0604,2.36187 -1.14458,0.15419 -2.02249,1.62466 -1.17772,1.97266 0.16237,0.0669 -0.18103,0.1172 -0.76311,0.11181 -0.58209,-0.005 -0.86613,-0.0611 -0.6312,-0.12389 z m 3.62452,-3.19797 c 0.10611,-1.10048 -1.34886,-1.3358 -1.63593,-0.26458 -0.30282,1.12994 -0.20845,1.29432 0.69313,1.20739 0.7561,-0.0729 0.8699,-0.1867 0.9428,-0.94281 z m -23.82926,-4.21012 c 0.405024,-0.16343 0.452212,-2.47061 0.05053,-2.47061 -0.154109,0 -0.206613,-0.11906 -0.116676,-0.26458 0.480227,-0.77702 0.926042,-0.21445 0.926042,1.16858 0,0.89896 0.123274,1.4829 0.330729,1.56661 0.181901,0.0734 -0.08599,0.13345 -0.595313,0.13345 -0.509323,0 -0.777213,-0.0601 -0.595312,-0.13345 z m 24.40781,-6.12865 c 0,-0.12016 0.30261,-0.50275 0.67247,-0.85021 0.76544,-0.7191 0.77404,-1.65524 0.0165,-1.79973 -0.36921,-0.0704 -0.4587,0.0162 -0.33903,0.32802 0.0894,0.23304 0.0473,0.42371 -0.0937,0.42371 -0.38108,0 -0.30997,-0.68439 0.10706,-1.0305 1.15835,-0.96134 2.05118,0.77336 0.95977,1.86477 l -0.81988,0.81988 0.67443,-0.12893 c 0.4557,-0.0871 0.67443,-0.0121 0.67443,0.23126 0,0.23526 -0.32121,0.36019 -0.92605,0.36019 -0.50932,0 -0.92604,-0.0983 -0.92604,-0.21846 z m -4.16736,-1.02222 c 0.25456,-0.0665 0.53239,-0.43968 0.61741,-0.82921 0.085,-0.38953 0.21788,-0.88683 0.29525,-1.10511 0.50049,-1.41187 0.53599,-2.09272 0.11495,-2.20482 -0.23767,-0.0633 0.26031,-0.12886 1.10663,-0.14574 2.39594,-0.0478 3.1905,0.66402 2.03312,1.82139 -0.3492,0.3492 -0.88194,0.52917 -1.56647,0.52917 -1.13906,0 -1.88473,1.34679 -1.0415,1.88108 0.22845,0.14475 -0.074,0.2178 -0.83161,0.20084 -0.65484,-0.0147 -0.98235,-0.0811 -0.72778,-0.1476 z m 3.64926,-2.74875 c 0.16185,-0.30241 0.2293,-0.71913 0.14991,-0.92604 -0.17947,-0.46766 -1.74703,-0.50834 -1.75209,-0.0455 -0.002,0.1819 -0.0754,0.59862 -0.16315,0.92604 -0.22359,0.83433 1.32185,0.87413 1.76533,0.0455 z m -28.373384,-0.58723 c 0.985255,-1.01653 1.136052,-2.03792 0.300871,-2.03792 -0.299631,0 -0.476282,0.11083 -0.39256,0.2463 0.08373,0.13546 0.03945,0.316 -0.09839,0.40119 -0.539433,0.33338 -0.526386,-0.37068 0.01389,-0.7491 0.414026,-0.29 0.710883,-0.3294 1.06276,-0.14109 0.577458,0.30905 0.655762,1.51794 0.111842,1.72666 -0.63922,0.2453 -0.780219,0.98471 -0.156681,0.82165 0.347787,-0.091 0.533099,-0.0101 0.533099,0.2327 0,0.26063 -0.332595,0.3721 -1.110237,0.3721 h -1.110234 l 0.845651,-0.87249 z m -1.760493,-2.55386 c 0.05821,-0.17463 0.192154,-0.30857 0.297656,-0.29766 0.316363,0.0327 0.255096,0.39563 -0.08599,0.50932 -0.174625,0.0582 -0.269875,-0.037 -0.211666,-0.21166 z m -61.2569678,-0.99371 c -0.803222,-0.80322 0.44577303,-2.76612 1.69930903,-2.6706 0.85857497,0.0654 0.90137097,0.19031 0.52041197,1.51864 -0.31020697,1.08162 -0.145678,1.36157 0.386669,0.65792 0.388379,-0.51336 0.562182,-0.23776 0.200067,0.31724 -0.205163,0.31445 -2.52280497,0.46046 -2.806457,0.1768 z m 1.56608603,-0.89549 c 0.455674,-0.88117 0.356967,-1.56361 -0.226159,-1.56361 -0.409367,0 -0.976815,1.08313 -0.976815,1.86453 0,0.79522 0.730655,0.61245 1.202974,-0.30092 z M 85.824877,37.364709 c 0,-0.23603 0.1552,-0.32902 0.39536,-0.23686 0.21744,0.0834 0.32948,0.2583 0.24896,0.38857 -0.23088,0.37357 -0.64432,0.27622 -0.64432,-0.15171 z m 0,-2.38125 c 0,-0.23603 0.1552,-0.32902 0.39536,-0.23686 0.21744,0.0834 0.32948,0.2583 0.24896,0.38857 -0.23088,0.37357 -0.64432,0.27622 -0.64432,-0.15171 z m 0,-2.38956 c 0,-0.24253 0.12799,-0.39831 0.28443,-0.34616 0.15643,0.0521 0.28442,0.20792 0.28442,0.34616 0,0.13825 -0.12799,0.29402 -0.28442,0.34617 -0.15644,0.0521 -0.28443,-0.10363 -0.28443,-0.34617 z M 53.16428,28.166119 c 0.121987,-0.8652 0.0803,-0.96738 -0.334936,-0.82095 -0.35239,0.12426 -0.401251,0.0876 -0.190143,-0.14259 0.314011,-0.34243 2.124308,-0.49053 2.417094,-0.19774 0.101917,0.10191 0.0522,0.53794 -0.11049,0.96895 -0.270164,0.71574 -0.03665,1.14651 0.277804,0.51246 0.07397,-0.14916 0.103794,-0.1194 0.06627,0.0661 -0.03752,0.18553 -0.274016,0.37724 -0.525537,0.42601 -0.3899,0.0756 -0.43108,-0.0512 -0.279358,-0.8599 0.24682,-1.31566 -0.457178,-1.28588 -1.031454,0.0436 l -0.428572,0.99219 z m -4.220628,-0.62135 c -0.08386,-0.21852 0.0182,-0.37483 0.244735,-0.37483 0.213714,0 0.392358,0.14883 0.396986,0.33073 0.01736,0.68224 0.785336,-0.72557 0.785336,-1.43963 0,-0.84143 -0.432245,-0.96828 -0.954604,-0.28016 -0.193317,0.25466 -0.355269,0.32877 -0.359899,0.16469 -0.01519,-0.53874 0.632979,-0.82148 1.909815,-0.83307 0.910334,-0.008 1.256771,0.0914 1.256771,0.36156 0,0.20513 -0.119062,0.37297 -0.264583,0.37297 -0.145521,0 -0.264583,-0.11907 -0.264583,-0.26459 0,-0.44805 -0.486003,-0.29226 -0.619038,0.19844 -0.43624,1.60909 -0.44255,1.91823 -0.03916,1.91823 0.22562,0 0.478753,-0.17859 0.562514,-0.39687 0.08376,-0.21829 0.277075,-0.39688 0.42958,-0.39688 0.152506,0 0.07076,0.2282 -0.181652,0.50712 -0.564687,0.62397 -2.676604,0.72024 -2.90222,0.13229 z M 35.138268,8.4979187 c 0.228676,-0.22868 0.415774,-0.46099 0.415774,-0.51626 0,-0.0553 0.178083,-0.78419 0.39574,-1.61983 0.312978,-1.20161 0.326811,-1.56312 0.06615,-1.72865 -0.318635,-0.20234 1.164656,-0.34454 2.316239,-0.22205 1.907593,0.2029 1.37546,2.08521 -0.668039,2.36306 -1.261107,0.17146 -2.085014,1.39307 -1.282438,1.90147 0.242568,0.15366 0.02757,0.23127 -0.64811,0.23398 -0.919168,0.004 -0.973288,-0.0337 -0.595312,-0.41172 z m 3.315642,-2.34964 c 0.554413,-0.66803 0.219916,-1.32776 -0.719223,-1.41854 -0.706575,-0.0683 -0.857728,0.01 -0.857728,0.44138 0,0.28836 -0.07227,0.71263 -0.1606,0.94281 -0.213124,0.55539 1.280618,0.58492 1.737551,0.0344 z m 52.554977,1.27196 c 0.12955,-0.69058 0.0954,-0.91145 -0.12031,-0.77814 -0.16566,0.10239 -0.3012,0.0671 -0.3012,-0.0784 0,-0.44594 0.44933,-0.57383 1.10004,-0.3131 0.34086,0.13658 0.48417,0.25588 0.31847,0.2651 -0.16571,0.009 -0.37946,0.43349 -0.47501,0.94281 -0.0956,0.50933 -0.29279,0.92605 -0.43831,0.92605 -0.16108,0 -0.19382,-0.37722 -0.0837,-0.96429 z m 1.49033,-0.0936 c 0.0399,-0.58185 0.1916,-1.01345 0.33712,-0.95912 0.29056,0.10849 0.2897,0.24527 -0.008,1.2212 -0.1809,0.59363 -0.15695,0.62288 0.24016,0.2933 0.38393,-0.31863 0.4195,-0.30979 0.27444,0.0682 -0.34682,0.90382 -0.91974,0.48053 -0.84403,-0.6236 z m -5.79772,-0.33116 c 0.50136,-0.36962 1.60704,-3.90261 1.22137,-3.90261 -0.13525,0 -0.24591,-0.11876 -0.24591,-0.26391 0,-0.37705 2.7916,-0.16407 3.29191,0.25115 0.91267,0.75744 -0.28016,2.12943 -1.85136,2.12943 -0.88159,0 -1.50719,1.10209 -1.04766,1.84563 0.10296,0.16659 -0.21485,0.27104 -0.82472,0.27104 -0.85664,0 -0.93092,-0.0452 -0.54363,-0.33073 z m 3.62974,-2.73418 c 0.14296,-0.37602 0.19252,-0.79274 0.11013,-0.92605 -0.22811,-0.36908 -1.70552,-0.29274 -1.70969,0.0883 -0.002,0.18191 -0.0754,0.59862 -0.16315,0.92605 -0.2538,0.94705 1.40058,0.86413 1.76271,-0.0883 z"
       id="path1252" />
  </g>
</svg>
