<?xml version="1.0" encoding="UTF-8" standalone="no"?>
<svg
   xmlns:dc="http://purl.org/dc/elements/1.1/"
   xmlns:cc="http://creativecommons.org/ns#"
   xmlns:rdf="http://www.w3.org/1999/02/22-rdf-syntax-ns#"
   xmlns:svg="http://www.w3.org/2000/svg"
   xmlns="http://www.w3.org/2000/svg"
   xmlns:xlink="http://www.w3.org/1999/xlink"
   xmlns:sodipodi="http://sodipodi.sourceforge.net/DTD/sodipodi-0.dtd"
   xmlns:inkscape="http://www.inkscape.org/namespaces/inkscape"
   width="173.46216mm"
   height="70.037209mm"
   viewBox="0 0 173.46216 70.037209"
   version="1.1"
   id="svg8"
   sodipodi:docname="kpr-to-lat.svg"
   inkscape:version="1.0.1 (3bc2e813f5, 2020-09-07)">
  <defs
     id="defs2">
    <clipPath
       clipPathUnits="userSpaceOnUse"
       id="clipPath863">
      <path
         d="M 31.8,575.8 H 464.2 V 800.2 H 31.8 Z"
         id="path861" />
    </clipPath>
    <clipPath
       clipPathUnits="userSpaceOnUse"
       id="clipPath1234">
      <path
         d="M 31.8,575.8 H 464.2 V 800.2 H 31.8 Z"
         id="path1232" />
    </clipPath>
    <g
       id="g7939">
      <symbol
         overflow="visible"
         id="symbol5935">
        <path
           style="stroke:none"
           d=""
           id="path7554" />
      </symbol>
      <symbol
         overflow="visible"
         id="symbol7666">
        <path
           style="stroke:none"
           d="M 2.25,-6.03125 C 2.25,-6.390625 2.265625,-6.5 3.0625,-6.5 h 0.25 v -0.3125 c -0.34375,0.03125 -1.125,0.03125 -1.515625,0.03125 -0.375,0 -1.171875,0 -1.515625,-0.03125 V -6.5 h 0.25 c 0.796875,0 0.828125,0.109375 0.828125,0.46875 v 5.25 c 0,0.359375 -0.03125,0.46875 -0.828125,0.46875 h -0.25 V 0 c 0.34375,-0.03125 1.140625,-0.03125 1.515625,-0.03125 0.390625,0 1.171875,0 1.515625,0.03125 v -0.3125 h -0.25 C 2.265625,-0.3125 2.25,-0.421875 2.25,-0.78125 Z m 0,0"
           id="path9342" />
      </symbol>
      <symbol
         overflow="visible"
         id="symbol2948">
        <path
           style="stroke:none"
           d=""
           id="path218" />
      </symbol>
      <symbol
         overflow="visible"
         id="symbol1414">
        <path
           style="stroke:none"
           d="m 2.03125,-0.015625 c 0,-0.65625 -0.25,-1.046875 -0.640625,-1.046875 -0.328125,0 -0.53125,0.25 -0.53125,0.53125 C 0.859375,-0.265625 1.0625,0 1.390625,0 1.5,0 1.640625,-0.046875 1.734375,-0.125 1.765625,-0.15625 1.78125,-0.15625 1.78125,-0.15625 c 0.015625,0 0.015625,0 0.015625,0.140625 0,0.75 -0.34375,1.34375 -0.671875,1.671875 -0.109375,0.109375 -0.109375,0.125 -0.109375,0.15625 0,0.078125 0.046875,0.109375 0.09375,0.109375 0.109375,0 0.921875,-0.765625 0.921875,-1.9375 z m 0,0"
           id="path5045" />
      </symbol>
    </g>
    <g
       id="g9473">
      <symbol
         overflow="visible"
         id="symbol1269">
        <path
           style="stroke:none"
           d=""
           id="path7895" />
      </symbol>
      <symbol
         overflow="visible"
         id="symbol4017">
        <path
           style="stroke:none"
           d="M 2.25,-6.03125 C 2.25,-6.390625 2.265625,-6.5 3.0625,-6.5 h 0.25 v -0.3125 c -0.34375,0.03125 -1.125,0.03125 -1.515625,0.03125 -0.375,0 -1.171875,0 -1.515625,-0.03125 V -6.5 h 0.25 c 0.796875,0 0.828125,0.109375 0.828125,0.46875 v 5.25 c 0,0.359375 -0.03125,0.46875 -0.828125,0.46875 h -0.25 V 0 c 0.34375,-0.03125 1.140625,-0.03125 1.515625,-0.03125 0.390625,0 1.171875,0 1.515625,0.03125 v -0.3125 h -0.25 C 2.265625,-0.3125 2.25,-0.421875 2.25,-0.78125 Z m 0,0"
           id="path9788" />
      </symbol>
    </g>
  </defs>
  <sodipodi:namedview
     id="base"
     pagecolor="#ffffff"
     bordercolor="#666666"
     borderopacity="1.0"
     inkscape:pageopacity="0.0"
     inkscape:pageshadow="2"
     inkscape:zoom="0.37204989"
     inkscape:cx="398.91621"
     inkscape:cy="43.105433"
     inkscape:document-units="mm"
     inkscape:current-layer="g3390"
     inkscape:document-rotation="0"
     showgrid="false"
     inkscape:window-width="954"
     inkscape:window-height="1049"
     inkscape:window-x="2880"
     inkscape:window-y="0"
     inkscape:window-maximized="1"
     fit-margin-top="0"
     fit-margin-left="0"
     fit-margin-right="0"
     fit-margin-bottom="0" />
  <metadata
     id="metadata5">
    <rdf:RDF>
      <cc:Work
         rdf:about="">
        <dc:format>image/svg+xml</dc:format>
        <dc:type
           rdf:resource="http://purl.org/dc/dcmitype/StillImage" />
        <dc:title></dc:title>
      </cc:Work>
    </rdf:RDF>
  </metadata>
  <g
     inkscape:label="Layer 1"
     inkscape:groupmode="layer"
     id="layer1"
     transform="translate(-13.646669,-15.246684)">
    <g
       id="g3390"
       transform="translate(51.619842,-11.928857)">
      <g
         id="g865"
         transform="matrix(0.28022818,0,0,-0.28022818,-49.547418,249.12599)">
        <g
           id="g867">
          <path
             d="m 131,704 c 0,1.657 -1.343,3 -3,3 -1.657,0 -3,-1.343 -3,-3 0,-1.657 1.343,-3 3,-3 1.657,0 3,1.343 3,3"
             style="fill:#000000;fill-opacity:1;fill-rule:evenodd;stroke:none"
             id="path869" />
        </g>
      </g>
      <g
         id="g871"
         transform="matrix(0.28022818,0,0,-0.28022818,-49.547418,249.12599)">
        <g
           id="g873">
          <path
             d="m 163,704 c 0,1.657 -1.343,3 -3,3 -1.657,0 -3,-1.343 -3,-3 0,-1.657 1.343,-3 3,-3 1.657,0 3,1.343 3,3"
             style="fill:#000000;fill-opacity:1;fill-rule:evenodd;stroke:none"
             id="path875" />
        </g>
      </g>
      <g
         id="g877"
         transform="matrix(0.28022818,0,0,-0.28022818,-49.547418,249.12599)">
        <g
           id="g879">
          <path
             d="m 195,704 c 0,1.657 -1.343,3 -3,3 -1.657,0 -3,-1.343 -3,-3 0,-1.657 1.343,-3 3,-3 1.657,0 3,1.343 3,3"
             style="fill:#000000;fill-opacity:1;fill-rule:evenodd;stroke:none"
             id="path881" />
        </g>
      </g>
      <g
         id="g883"
         transform="matrix(0.28022818,0,0,-0.28022818,-49.547418,249.12599)">
        <g
           id="g885">
          <path
             d="m 227,704 c 0,1.657 -1.343,3 -3,3 -1.657,0 -3,-1.343 -3,-3 0,-1.657 1.343,-3 3,-3 1.657,0 3,1.343 3,3"
             style="fill:#000000;fill-opacity:1;fill-rule:evenodd;stroke:none"
             id="path887" />
        </g>
      </g>
      <g
         id="g889"
         transform="matrix(0.28022818,0,0,-0.28022818,-49.547418,249.12599)">
        <g
           id="g891">
          <path
             d="m 131,672 c 0,1.657 -1.343,3 -3,3 -1.657,0 -3,-1.343 -3,-3 0,-1.657 1.343,-3 3,-3 1.657,0 3,1.343 3,3"
             style="fill:#000000;fill-opacity:1;fill-rule:evenodd;stroke:none"
             id="path893" />
        </g>
      </g>
      <g
         id="g895"
         transform="matrix(0.28022818,0,0,-0.28022818,-49.547418,249.12599)">
        <g
           id="g897">
          <path
             d="m 163,672 c 0,1.657 -1.343,3 -3,3 -1.657,0 -3,-1.343 -3,-3 0,-1.657 1.343,-3 3,-3 1.657,0 3,1.343 3,3"
             style="fill:#000000;fill-opacity:1;fill-rule:evenodd;stroke:none"
             id="path899" />
        </g>
      </g>
      <g
         id="g901"
         transform="matrix(0.28022818,0,0,-0.28022818,-49.547418,249.12599)">
        <g
           id="g903">
          <path
             d="m 195,672 c 0,1.657 -1.343,3 -3,3 -1.657,0 -3,-1.343 -3,-3 0,-1.657 1.343,-3 3,-3 1.657,0 3,1.343 3,3"
             style="fill:#000000;fill-opacity:1;fill-rule:evenodd;stroke:none"
             id="path905" />
        </g>
      </g>
      <g
         id="g907"
         transform="matrix(0.28022818,0,0,-0.28022818,-49.547418,249.12599)">
        <g
           id="g909">
          <path
             d="m 227,672 c 0,1.657 -1.343,3 -3,3 -1.657,0 -3,-1.343 -3,-3 0,-1.657 1.343,-3 3,-3 1.657,0 3,1.343 3,3"
             style="fill:#000000;fill-opacity:1;fill-rule:evenodd;stroke:none"
             id="path911" />
        </g>
      </g>
      <g
         id="g913"
         transform="matrix(0.28022818,0,0,-0.28022818,-49.547418,249.12599)">
        <g
           id="g915">
          <path
             d="m 131,640 c 0,1.657 -1.343,3 -3,3 -1.657,0 -3,-1.343 -3,-3 0,-1.657 1.343,-3 3,-3 1.657,0 3,1.343 3,3"
             style="fill:#000000;fill-opacity:1;fill-rule:evenodd;stroke:none"
             id="path917" />
        </g>
      </g>
      <g
         id="g919"
         transform="matrix(0.28022818,0,0,-0.28022818,-49.547418,249.12599)">
        <g
           id="g921">
          <path
             d="m 163,640 c 0,1.657 -1.343,3 -3,3 -1.657,0 -3,-1.343 -3,-3 0,-1.657 1.343,-3 3,-3 1.657,0 3,1.343 3,3"
             style="fill:#000000;fill-opacity:1;fill-rule:evenodd;stroke:none"
             id="path923" />
        </g>
      </g>
      <g
         id="g925"
         transform="matrix(0.28022818,0,0,-0.28022818,-49.547418,249.12599)">
        <g
           id="g927">
          <path
             d="m 195,640 c 0,1.657 -1.343,3 -3,3 -1.657,0 -3,-1.343 -3,-3 0,-1.657 1.343,-3 3,-3 1.657,0 3,1.343 3,3"
             style="fill:#000000;fill-opacity:1;fill-rule:evenodd;stroke:none"
             id="path929" />
        </g>
      </g>
      <g
         id="g931"
         transform="matrix(0.28022818,0,0,-0.28022818,-49.547418,249.12599)">
        <g
           id="g933">
          <path
             d="m 227,640 c 0,1.657 -1.343,3 -3,3 -1.657,0 -3,-1.343 -3,-3 0,-1.657 1.343,-3 3,-3 1.657,0 3,1.343 3,3"
             style="fill:#000000;fill-opacity:1;fill-rule:evenodd;stroke:none"
             id="path935" />
        </g>
      </g>
      <g
         id="g937"
         transform="matrix(0.28022818,0,0,-0.28022818,-49.547418,249.12599)">
        <g
           id="g939">
          <path
             d="m 131,608 c 0,1.657 -1.343,3 -3,3 -1.657,0 -3,-1.343 -3,-3 0,-1.657 1.343,-3 3,-3 1.657,0 3,1.343 3,3"
             style="fill:#000000;fill-opacity:1;fill-rule:evenodd;stroke:none"
             id="path941" />
        </g>
      </g>
      <g
         id="g943"
         transform="matrix(0.28022818,0,0,-0.28022818,-49.547418,249.12599)">
        <g
           id="g945">
          <path
             d="m 163,608 c 0,1.657 -1.343,3 -3,3 -1.657,0 -3,-1.343 -3,-3 0,-1.657 1.343,-3 3,-3 1.657,0 3,1.343 3,3"
             style="fill:#000000;fill-opacity:1;fill-rule:evenodd;stroke:none"
             id="path947" />
        </g>
      </g>
      <g
         id="g949"
         transform="matrix(0.28022818,0,0,-0.28022818,-49.547418,249.12599)">
        <g
           id="g951">
          <path
             d="m 195,608 c 0,1.657 -1.343,3 -3,3 -1.657,0 -3,-1.343 -3,-3 0,-1.657 1.343,-3 3,-3 1.657,0 3,1.343 3,3"
             style="fill:#000000;fill-opacity:1;fill-rule:evenodd;stroke:none"
             id="path953" />
        </g>
      </g>
      <g
         id="g955"
         transform="matrix(0.28022818,0,0,-0.28022818,-49.547418,249.12599)">
        <g
           id="g957">
          <path
             d="m 227,608 c 0,1.657 -1.343,3 -3,3 -1.657,0 -3,-1.343 -3,-3 0,-1.657 1.343,-3 3,-3 1.657,0 3,1.343 3,3"
             style="fill:#000000;fill-opacity:1;fill-rule:evenodd;stroke:none"
             id="path959" />
        </g>
      </g>
      <g
         id="g961"
         transform="matrix(0.28022818,0,0,-0.28022818,-49.547418,249.12599)">
        <g
           id="g963">
          <path
             d="m 179,768 c 0,1.657 -1.343,3 -3,3 -1.657,0 -3,-1.343 -3,-3 0,-1.657 1.343,-3 3,-3 1.657,0 3,1.343 3,3"
             style="fill:#000000;fill-opacity:1;fill-rule:evenodd;stroke:none"
             id="path965" />
        </g>
      </g>
      <g
         id="g967"
         transform="matrix(0.28022818,0,0,-0.28022818,-49.547418,249.12599)">
        <g
           id="g969">
          <path
             d="m 131,752 c 0,1.657 -1.343,3 -3,3 -1.657,0 -3,-1.343 -3,-3 0,-1.657 1.343,-3 3,-3 1.657,0 3,1.343 3,3"
             style="fill:#000000;fill-opacity:1;fill-rule:evenodd;stroke:none"
             id="path971" />
        </g>
      </g>
      <g
         id="g973"
         transform="matrix(0.28022818,0,0,-0.28022818,-49.547418,249.12599)">
        <g
           id="g975">
          <path
             d="m 83,704 c 0,1.657 -1.3431,3 -3,3 -1.6569,0 -3,-1.343 -3,-3 0,-1.657 1.3431,-3 3,-3 1.6569,0 3,1.343 3,3"
             style="fill:#000000;fill-opacity:1;fill-rule:evenodd;stroke:none"
             id="path977" />
        </g>
      </g>
      <g
         id="g979"
         transform="matrix(0.28022818,0,0,-0.28022818,-49.547418,249.12599)">
        <g
           id="g981">
          <path
             d="m 67,656 c 0,1.657 -1.3431,3 -3,3 -1.6569,0 -3,-1.343 -3,-3 0,-1.657 1.3431,-3 3,-3 1.6569,0 3,1.343 3,3"
             style="fill:#000000;fill-opacity:1;fill-rule:evenodd;stroke:none"
             id="path983" />
        </g>
      </g>
      <g
         id="g985"
         transform="matrix(0.28022818,0,0,-0.28022818,-49.547418,249.12599)">
        <path
           d="m 208,768 c 0,0 0,0 -5.333,0 -5.334,0 -16,0 -24,0 -8,0 -13.334,0 -20,-2 -6.667,-2 -14.667,-6 -20,-8.667 -5.334,-2.666 -8,-4 -14,-8 -6,-4 -15.334,-10.666 -23.334,-18.666 -7.9997,-8 -14.6663,-17.334 -18.6663,-23.334 -4,-6 -5.3334,-8.666 -8,-14 C 72,688 68,680 66,673.333 c -2,-6.666 -2,-12 -2,-20 0,-8 0,-18.666 0,-24 C 64,624 64,624 64,624"
           style="fill:none;stroke:#000000;stroke-width:0.4;stroke-linecap:butt;stroke-linejoin:round;stroke-miterlimit:10;stroke-dasharray:none;stroke-opacity:1"
           id="path987" />
      </g>
      <g
         id="g989"
         transform="matrix(0.28022818,0,0,-0.28022818,-49.547418,249.12599)">
        <g
           id="g991">
          <path
             d="m 105.003,731.33 c 0,1.657 -1.343,3 -3,3 -1.657,0 -3,-1.343 -3,-3 0,-1.657 1.343,-3 3,-3 1.657,0 3,1.343 3,3"
             style="fill:#000000;fill-opacity:1;fill-rule:evenodd;stroke:none"
             id="path993" />
        </g>
      </g>
      <g
         id="g995"
         transform="matrix(0.28022818,0,0,-0.28022818,-49.547418,249.12599)">
        <path
           d="m 128,592 c 0,0 0,0 0,18.667 0,18.666 0,56 0,77.333 0,21.333 0,26.667 5.333,34.667 5.334,8 16,18.666 24.071,26.665 8.072,8 13.547,13.331 18.881,18.665 5.333,5.333 10.524,10.668 13.119,13.335 C 192,784 192,784 192,784"
           style="fill:none;stroke:#000000;stroke-width:0.4;stroke-linecap:butt;stroke-linejoin:round;stroke-miterlimit:10;stroke-dasharray:none;stroke-opacity:1"
           id="path997" />
      </g>
      <g
         id="g999"
         transform="matrix(0.28022818,0,0,-0.28022818,-49.547418,249.12599)">
        <path
           d="m 224,592 c 0,0 0,0 0,18.667 0,18.666 0,56 0,77.333 0,21.333 0,26.667 -5.333,34.667 -5.334,8 -16,18.666 -26.667,29.333 -10.667,10.667 -21.333,21.333 -26.667,26.667 C 160,784 160,784 160,784"
           style="fill:none;stroke:#000000;stroke-width:0.4;stroke-linecap:butt;stroke-linejoin:round;stroke-miterlimit:10;stroke-dasharray:none;stroke-opacity:1"
           id="path1001" />
      </g>
      <g
         id="g1003"
         transform="matrix(0.28022818,0,0,-0.28022818,-49.547418,249.12599)">
        <path
           d="m 160,592 c 0,0 0,0 0,18.667 0,18.666 0,56 0,76 0,20 0,22.666 1.333,30.666 1.334,8 4,21.334 6.667,30.667 2.667,9.333 5.333,14.667 8,20 2.667,5.333 5.333,10.667 6.667,13.333 C 184,784 184,784 184,784"
           style="fill:none;stroke:#000000;stroke-width:0.4;stroke-linecap:butt;stroke-linejoin:round;stroke-miterlimit:10;stroke-dasharray:none;stroke-opacity:1"
           id="path1005" />
      </g>
      <g
         id="g1007"
         transform="matrix(0.28022818,0,0,-0.28022818,-49.547418,249.12599)">
        <path
           d="m 192,592 c 0,0 0,0 0,18.667 0,18.666 0,56 0,76 0,20 0,22.666 -1.333,30.666 -1.334,8 -4,21.334 -6.667,30.667 -2.667,9.333 -5.333,14.667 -8,20 -2.667,5.333 -5.333,10.667 -6.667,13.333 C 168,784 168,784 168,784"
           style="fill:none;stroke:#000000;stroke-width:0.4;stroke-linecap:butt;stroke-linejoin:round;stroke-miterlimit:10;stroke-dasharray:none;stroke-opacity:1"
           id="path1009" />
      </g>
      <g
         id="g1011"
         transform="matrix(0.28022818,0,0,-0.28022818,-49.547418,249.12599)">
        <path
           d="m 240,608 c 0,0 0,0 -18.667,0 -18.666,0 -56,0 -77.333,0 -21.333,0 -26.667,0 -36,6.667 -9.3333,6.666 -22.6667,20 -30.6667,28 -8,8 -10.6666,10.666 -14.6666,14.666 -4,4 -9.3334,9.334 -12,12 C 48,672 48,672 48,672"
           style="fill:none;stroke:#000000;stroke-width:0.4;stroke-linecap:butt;stroke-linejoin:round;stroke-miterlimit:10;stroke-dasharray:none;stroke-opacity:1"
           id="path1013" />
      </g>
      <g
         id="g1015"
         transform="matrix(0.28022818,0,0,-0.28022818,-49.547418,249.12599)">
        <path
           d="m 240,704 c 0,0 0,0 -18.667,0 -18.666,0 -56,0 -77.333,0 -21.333,0 -26.667,0 -36,-6.667 -9.3333,-6.666 -22.6667,-20 -30.6667,-28 -8,-8 -10.6666,-10.666 -14.6666,-14.666 -4,-4 -9.3334,-9.334 -12,-12 C 48,640 48,640 48,640"
           style="fill:none;stroke:#000000;stroke-width:0.4;stroke-linecap:butt;stroke-linejoin:round;stroke-miterlimit:10;stroke-dasharray:none;stroke-opacity:1"
           id="path1017" />
      </g>
      <g
         id="g1019"
         transform="matrix(0.28022818,0,0,-0.28022818,-49.547418,249.12599)">
        <path
           d="m 240,672 c 0,0 0,0 -18.667,0 -18.666,0 -56,0 -76,0 -20,0 -22.666,0 -30.666,-1.333 -8,-1.334 -21.3337,-4 -30.667,-6.667 -9.3333,-2.667 -14.6667,-5.333 -20,-8 -5.3333,-2.667 -10.6667,-5.333 -13.3333,-6.667 C 48,648 48,648 48,648"
           style="fill:none;stroke:#000000;stroke-width:0.4;stroke-linecap:butt;stroke-linejoin:round;stroke-miterlimit:10;stroke-dasharray:none;stroke-opacity:1"
           id="path1021" />
      </g>
      <g
         id="g1023"
         transform="matrix(0.28022818,0,0,-0.28022818,-49.547418,249.12599)">
        <path
           d="m 240,640 c 0,0 0,0 -18.667,0 -18.666,0 -56,0 -76,0 -20,0 -22.666,0 -30.666,1.333 -8,1.334 -21.3337,4 -30.667,6.667 -9.3333,2.667 -14.6667,5.333 -20,8 -5.3333,2.667 -10.6667,5.333 -13.3333,6.667 C 48,664 48,664 48,664"
           style="fill:none;stroke:#000000;stroke-width:0.4;stroke-linecap:butt;stroke-linejoin:round;stroke-miterlimit:10;stroke-dasharray:none;stroke-opacity:1"
           id="path1025" />
      </g>
      <g
         id="g1027"
         transform="matrix(0.28022818,0,0,-0.28022818,-38.33829,65.296302)">
        <g
           id="g1029"
           transform="translate(0,-785.624)">
          <text
             transform="matrix(1,0,0,-1,0,785.624)"
             style="font-variant:normal;font-weight:normal;font-size:14.3462px;font-family:CMSSI12;-inkscape-font-specification:CMSSI12;writing-mode:lr-tb;fill:#000000;fill-opacity:1;fill-rule:nonzero;stroke:none"
             id="text1033"><tspan
               x="0"
               y="0"
               id="tspan1031">r</tspan></text>
        </g>
      </g>
      <g
         id="g1035"
         transform="matrix(0.28022818,0,0,-0.28022818,-0.22725833,29.427094)">
        <g
           id="g1037"
           transform="translate(0,-785.624)">
          <text
             transform="matrix(1,0,0,-1,0,785.624)"
             style="font-variant:normal;font-weight:normal;font-size:14.3462px;font-family:CMSSI12;-inkscape-font-specification:CMSSI12;writing-mode:lr-tb;fill:#000000;fill-opacity:1;fill-rule:nonzero;stroke:none"
             id="text1041"><tspan
               x="0"
               y="0"
               id="tspan1039">s</tspan></text>
        </g>
      </g>
      <g
         id="g1043"
         transform="matrix(0.28022818,0,0,-0.28022818,-31.612815,52.44784)">
        <g
           id="g1045"
           transform="translate(0,-779.885)">
          <text
             transform="matrix(1,0,0,-1,0,782.037)"
             style="font-variant:normal;font-weight:normal;font-size:14.3462px;font-family:CMSSI12;-inkscape-font-specification:CMSSI12;writing-mode:lr-tb;fill:#000000;fill-opacity:1;fill-rule:nonzero;stroke:none"
             id="text1049"><tspan
               x="0"
               y="0"
               id="tspan1047">l</tspan></text>
          <text
             transform="matrix(1,0,0,-1,3.304,779.885)"
             style="font-variant:normal;font-weight:normal;font-size:9.9626px;font-family:CMSS10;-inkscape-font-specification:CMSS10;writing-mode:lr-tb;fill:#000000;fill-opacity:1;fill-rule:nonzero;stroke:none"
             id="text1053"><tspan
               x="0"
               y="0"
               id="tspan1051">1</tspan></text>
        </g>
      </g>
      <g
         id="g1055"
         transform="matrix(0.28022818,0,0,-0.28022818,-24.887338,43.480538)">
        <g
           id="g1057"
           transform="translate(0,-779.885)">
          <text
             transform="matrix(1,0,0,-1,0,782.037)"
             style="font-variant:normal;font-weight:normal;font-size:14.3462px;font-family:CMSSI12;-inkscape-font-specification:CMSSI12;writing-mode:lr-tb;fill:#000000;fill-opacity:1;fill-rule:nonzero;stroke:none"
             id="text1061"><tspan
               x="0"
               y="0"
               id="tspan1059">l</tspan></text>
          <text
             transform="matrix(1,0,0,-1,3.304,779.885)"
             style="font-variant:normal;font-weight:normal;font-size:9.9626px;font-family:CMSS10;-inkscape-font-specification:CMSS10;writing-mode:lr-tb;fill:#000000;fill-opacity:1;fill-rule:nonzero;stroke:none"
             id="text1065"><tspan
               x="0"
               y="0"
               id="tspan1063">2</tspan></text>
        </g>
      </g>
      <g
         id="g1067"
         transform="matrix(0.28022818,0,0,-0.28022818,-15.920036,36.755061)">
        <g
           id="g1069"
           transform="translate(0,-779.885)">
          <text
             transform="matrix(1,0,0,-1,0,782.037)"
             style="font-variant:normal;font-weight:normal;font-size:14.3462px;font-family:CMSSI12;-inkscape-font-specification:CMSSI12;writing-mode:lr-tb;fill:#000000;fill-opacity:1;fill-rule:nonzero;stroke:none"
             id="text1073"><tspan
               x="0"
               y="0"
               id="tspan1071">l</tspan></text>
          <text
             transform="matrix(1,0,0,-1,3.304,779.885)"
             style="font-variant:normal;font-weight:normal;font-size:9.9626px;font-family:CMSS10;-inkscape-font-specification:CMSS10;writing-mode:lr-tb;fill:#000000;fill-opacity:1;fill-rule:nonzero;stroke:none"
             id="text1077"><tspan
               x="0"
               y="0"
               id="tspan1075">3</tspan></text>
        </g>
      </g>
    </g>
    <g
       id="g1214"
       transform="matrix(0.35277777,0,0,-0.35277777,54.016098,145.88182)" />
    <g
       id="g3538"
       transform="matrix(1.1347823,0,0,1.1347823,19.564854,-22.399501)">
      <g
         id="g1236"
         transform="matrix(0.24694444,0,0,-0.24694444,54.713545,225.30002)">
        <g
           id="g1238">
          <path
             d="m 131,704 c 0,1.657 -1.343,3 -3,3 -1.657,0 -3,-1.343 -3,-3 0,-1.657 1.343,-3 3,-3 1.657,0 3,1.343 3,3"
             style="fill:#0000ff;fill-opacity:1;fill-rule:evenodd;stroke:none"
             id="path1240" />
        </g>
      </g>
      <g
         id="g1242"
         transform="matrix(0.24694444,0,0,-0.24694444,54.713545,225.30002)">
        <g
           id="g1244">
          <path
             d="m 163,704 c 0,1.657 -1.343,3 -3,3 -1.657,0 -3,-1.343 -3,-3 0,-1.657 1.343,-3 3,-3 1.657,0 3,1.343 3,3"
             style="fill:#ff0000;fill-opacity:1;fill-rule:evenodd;stroke:none"
             id="path1246" />
        </g>
      </g>
      <g
         id="g1248"
         transform="matrix(0.24694444,0,0,-0.24694444,54.713545,225.30002)">
        <g
           id="g1250">
          <path
             d="m 195,704 c 0,1.657 -1.343,3 -3,3 -1.657,0 -3,-1.343 -3,-3 0,-1.657 1.343,-3 3,-3 1.657,0 3,1.343 3,3"
             style="fill:#00ff00;fill-opacity:1;fill-rule:evenodd;stroke:none"
             id="path1252" />
        </g>
      </g>
      <g
         id="g1254"
         transform="matrix(0.24694444,0,0,-0.24694444,54.713545,225.30002)">
        <g
           id="g1256">
          <path
             d="m 227,704 c 0,1.657 -1.343,3 -3,3 -1.657,0 -3,-1.343 -3,-3 0,-1.657 1.343,-3 3,-3 1.657,0 3,1.343 3,3"
             style="fill:#8b008b;fill-opacity:1;fill-rule:evenodd;stroke:none"
             id="path1258" />
        </g>
      </g>
      <g
         id="g1262"
         transform="matrix(0.24694444,0,0,-0.24694444,54.713545,225.30002)">
        <path
           d="m 131,672 c 0,1.657 -1.343,3 -3,3 -1.657,0 -3,-1.343 -3,-3 0,-1.657 1.343,-3 3,-3 1.657,0 3,1.343 3,3"
           style="fill:#ff0000;fill-opacity:1;fill-rule:evenodd;stroke:none"
           id="path1264" />
      </g>
      <g
         id="g1266"
         transform="matrix(0.24694444,0,0,-0.24694444,54.713545,225.30002)">
        <g
           id="g1268">
          <path
             d="m 163,672 c 0,1.657 -1.343,3 -3,3 -1.657,0 -3,-1.343 -3,-3 0,-1.657 1.343,-3 3,-3 1.657,0 3,1.343 3,3"
             style="fill:#0000ff;fill-opacity:1;fill-rule:evenodd;stroke:none"
             id="path1270" />
        </g>
      </g>
      <g
         id="g1272"
         transform="matrix(0.24694444,0,0,-0.24694444,54.713545,225.30002)">
        <g
           id="g1274">
          <path
             d="m 195,672 c 0,1.657 -1.343,3 -3,3 -1.657,0 -3,-1.343 -3,-3 0,-1.657 1.343,-3 3,-3 1.657,0 3,1.343 3,3"
             style="fill:#8b008b;fill-opacity:1;fill-rule:evenodd;stroke:none"
             id="path1276" />
        </g>
      </g>
      <g
         id="g1278"
         transform="matrix(0.24694444,0,0,-0.24694444,54.713545,225.30002)">
        <g
           id="g1280">
          <path
             d="m 227,672 c 0,1.657 -1.343,3 -3,3 -1.657,0 -3,-1.343 -3,-3 0,-1.657 1.343,-3 3,-3 1.657,0 3,1.343 3,3"
             style="fill:#00ff00;fill-opacity:1;fill-rule:evenodd;stroke:none"
             id="path1282" />
        </g>
      </g>
      <g
         id="g1284"
         transform="matrix(0.24694444,0,0,-0.24694444,54.713545,225.30002)">
        <g
           id="g1286">
          <path
             d="m 131,640 c 0,1.657 -1.343,3 -3,3 -1.657,0 -3,-1.343 -3,-3 0,-1.657 1.343,-3 3,-3 1.657,0 3,1.343 3,3"
             style="fill:#00ff00;fill-opacity:1;fill-rule:evenodd;stroke:none"
             id="path1288" />
        </g>
      </g>
      <g
         id="g1290"
         transform="matrix(0.24694444,0,0,-0.24694444,54.713545,225.30002)">
        <g
           id="g1292">
          <path
             d="m 163,640 c 0,1.657 -1.343,3 -3,3 -1.657,0 -3,-1.343 -3,-3 0,-1.657 1.343,-3 3,-3 1.657,0 3,1.343 3,3"
             style="fill:#8b008b;fill-opacity:1;fill-rule:evenodd;stroke:none"
             id="path1294" />
        </g>
      </g>
      <g
         id="g1296"
         transform="matrix(0.24694444,0,0,-0.24694444,54.713545,225.30002)">
        <g
           id="g1298">
          <path
             d="m 195,640 c 0,1.657 -1.343,3 -3,3 -1.657,0 -3,-1.343 -3,-3 0,-1.657 1.343,-3 3,-3 1.657,0 3,1.343 3,3"
             style="fill:#0000ff;fill-opacity:1;fill-rule:evenodd;stroke:none"
             id="path1300" />
        </g>
      </g>
      <g
         id="g1302"
         transform="matrix(0.24694444,0,0,-0.24694444,54.713545,225.30002)">
        <g
           id="g1304">
          <path
             d="m 227,640 c 0,1.657 -1.343,3 -3,3 -1.657,0 -3,-1.343 -3,-3 0,-1.657 1.343,-3 3,-3 1.657,0 3,1.343 3,3"
             style="fill:#ff0000;fill-opacity:1;fill-rule:evenodd;stroke:none"
             id="path1306" />
        </g>
      </g>
      <g
         id="g1308"
         transform="matrix(0.24694444,0,0,-0.24694444,54.713545,225.30002)">
        <g
           id="g1310">
          <path
             d="m 131,608 c 0,1.657 -1.343,3 -3,3 -1.657,0 -3,-1.343 -3,-3 0,-1.657 1.343,-3 3,-3 1.657,0 3,1.343 3,3"
             style="fill:#8b008b;fill-opacity:1;fill-rule:evenodd;stroke:none"
             id="path1312" />
        </g>
      </g>
      <g
         id="g1314"
         transform="matrix(0.24694444,0,0,-0.24694444,54.713545,225.30002)">
        <g
           id="g1316">
          <path
             d="m 163,608 c 0,1.657 -1.343,3 -3,3 -1.657,0 -3,-1.343 -3,-3 0,-1.657 1.343,-3 3,-3 1.657,0 3,1.343 3,3"
             style="fill:#00ff00;fill-opacity:1;fill-rule:evenodd;stroke:none"
             id="path1318" />
        </g>
      </g>
      <g
         id="g1320"
         transform="matrix(0.24694444,0,0,-0.24694444,54.713545,225.30002)">
        <g
           id="g1322">
          <path
             d="m 195,608 c 0,1.657 -1.343,3 -3,3 -1.657,0 -3,-1.343 -3,-3 0,-1.657 1.343,-3 3,-3 1.657,0 3,1.343 3,3"
             style="fill:#ff0000;fill-opacity:1;fill-rule:evenodd;stroke:none"
             id="path1324" />
        </g>
      </g>
      <g
         id="g1326"
         transform="matrix(0.24694444,0,0,-0.24694444,54.713545,225.30002)">
        <g
           id="g1328">
          <path
             d="m 227,608 c 0,1.657 -1.343,3 -3,3 -1.657,0 -3,-1.343 -3,-3 0,-1.657 1.343,-3 3,-3 1.657,0 3,1.343 3,3"
             style="fill:#0000ff;fill-opacity:1;fill-rule:evenodd;stroke:none"
             id="path1330" />
        </g>
      </g>
      <g
         id="g1332"
         transform="matrix(0.24694444,0,0,-0.24694444,54.713545,225.30002)">
        <g
           id="g1334">
          <path
             d="m 179,768 c 0,1.657 -1.343,3 -3,3 -1.657,0 -3,-1.343 -3,-3 0,-1.657 1.343,-3 3,-3 1.657,0 3,1.343 3,3"
             style="fill:#000000;fill-opacity:1;fill-rule:evenodd;stroke:none"
             id="path1336" />
        </g>
      </g>
      <g
         id="g1338"
         transform="matrix(0.24694444,0,0,-0.24694444,54.713545,225.30002)">
        <g
           id="g1340">
          <path
             d="m 131,752 c 0,1.657 -1.343,3 -3,3 -1.657,0 -3,-1.343 -3,-3 0,-1.657 1.343,-3 3,-3 1.657,0 3,1.343 3,3"
             style="fill:#000000;fill-opacity:1;fill-rule:evenodd;stroke:none"
             id="path1342" />
        </g>
      </g>
      <g
         id="g1344"
         transform="matrix(0.24694444,0,0,-0.24694444,54.713545,225.30002)">
        <g
           id="g1346">
          <path
             d="m 67,656 c 0,1.657 -1.3431,3 -3,3 -1.6569,0 -3,-1.343 -3,-3 0,-1.657 1.3431,-3 3,-3 1.6569,0 3,1.343 3,3"
             style="fill:#000000;fill-opacity:1;fill-rule:evenodd;stroke:none"
             id="path1348" />
        </g>
      </g>
      <g
         id="g1350"
         transform="matrix(0.24694444,0,0,-0.24694444,54.713545,225.30002)">
        <g
           id="g1352">
          <path
             d="m 105.003,731.33 c 0,1.657 -1.343,3 -3,3 -1.657,0 -3,-1.343 -3,-3 0,-1.657 1.343,-3 3,-3 1.657,0 3,1.343 3,3"
             style="fill:#000000;fill-opacity:1;fill-rule:evenodd;stroke:none"
             id="path1354" />
        </g>
      </g>
      <g
         id="g1356"
         transform="matrix(0.24694444,0,0,-0.24694444,133.73576,57.377803)">
        <g
           id="g1358"
           transform="translate(0,-782.602)">
          <text
             transform="matrix(1,0,0,-1,0,782.602)"
             style="font-variant:normal;font-weight:normal;font-size:14.3462px;font-family:CMSS12;-inkscape-font-specification:CMSS12;writing-mode:lr-tb;fill:#0000ff;fill-opacity:1;fill-rule:nonzero;stroke:none"
             id="text1362"><tspan
               x="0"
               y="0"
               id="tspan1360">1</tspan></text>
        </g>
      </g>
      <g
         id="g1364"
         transform="matrix(0.24694444,0,0,-0.24694444,137.68688,57.377803)">
        <g
           id="g1366"
           transform="translate(0,-782.602)">
          <text
             transform="matrix(1,0,0,-1,0,782.602)"
             style="font-variant:normal;font-weight:normal;font-size:14.3462px;font-family:CMSS12;-inkscape-font-specification:CMSS12;writing-mode:lr-tb;fill:#ff0000;fill-opacity:1;fill-rule:nonzero;stroke:none"
             id="text1370"><tspan
               x="0"
               y="0"
               id="tspan1368">2</tspan></text>
        </g>
      </g>
      <g
         id="g1372"
         transform="matrix(0.24694444,0,0,-0.24694444,141.63799,57.377803)">
        <g
           id="g1374"
           transform="translate(0,-782.602)">
          <text
             transform="matrix(1,0,0,-1,0,782.602)"
             style="font-variant:normal;font-weight:normal;font-size:14.3462px;font-family:CMSS12;-inkscape-font-specification:CMSS12;writing-mode:lr-tb;fill:#00ff00;fill-opacity:1;fill-rule:nonzero;stroke:none"
             id="text1378"><tspan
               x="0"
               y="0"
               id="tspan1376">3</tspan></text>
        </g>
      </g>
      <g
         id="g1380"
         transform="matrix(0.24694444,0,0,-0.24694444,145.5891,57.377803)">
        <g
           id="g1382"
           transform="translate(0,-782.602)">
          <text
             transform="matrix(1,0,0,-1,0,782.602)"
             style="font-variant:normal;font-weight:normal;font-size:14.3462px;font-family:CMSS12;-inkscape-font-specification:CMSS12;writing-mode:lr-tb;fill:#8b008b;fill-opacity:1;fill-rule:nonzero;stroke:none"
             id="text1386"><tspan
               x="0"
               y="0"
               id="tspan1384">4</tspan></text>
        </g>
      </g>
      <g
         id="g1388"
         transform="matrix(0.24694444,0,0,-0.24694444,137.68688,61.328913)">
        <g
           id="g1390"
           transform="translate(0,-782.602)">
          <text
             transform="matrix(1,0,0,-1,0,782.602)"
             style="font-variant:normal;font-weight:normal;font-size:14.3462px;font-family:CMSS12;-inkscape-font-specification:CMSS12;writing-mode:lr-tb;fill:#0000ff;fill-opacity:1;fill-rule:nonzero;stroke:none"
             id="text1394"><tspan
               x="0"
               y="0"
               id="tspan1392">1</tspan></text>
        </g>
      </g>
      <g
         id="g1396"
         transform="matrix(0.24694444,0,0,-0.24694444,133.73576,61.328913)">
        <g
           id="g1398"
           transform="translate(0,-782.602)">
          <text
             transform="matrix(1,0,0,-1,0,782.602)"
             style="font-variant:normal;font-weight:normal;font-size:14.3462px;font-family:CMSS12;-inkscape-font-specification:CMSS12;writing-mode:lr-tb;fill:#ff0000;fill-opacity:1;fill-rule:nonzero;stroke:none"
             id="text1402"><tspan
               x="0"
               y="0"
               id="tspan1400">2</tspan></text>
        </g>
      </g>
      <g
         id="g1404"
         transform="matrix(0.24694444,0,0,-0.24694444,145.5891,61.328913)">
        <g
           id="g1406"
           transform="translate(0,-782.602)">
          <text
             transform="matrix(1,0,0,-1,0,782.602)"
             style="font-variant:normal;font-weight:normal;font-size:14.3462px;font-family:CMSS12;-inkscape-font-specification:CMSS12;writing-mode:lr-tb;fill:#00ff00;fill-opacity:1;fill-rule:nonzero;stroke:none"
             id="text1410"><tspan
               x="0"
               y="0"
               id="tspan1408">3</tspan></text>
        </g>
      </g>
      <g
         id="g1412"
         transform="matrix(0.24694444,0,0,-0.24694444,141.63799,61.328913)">
        <g
           id="g1414"
           transform="translate(0,-782.602)">
          <text
             transform="matrix(1,0,0,-1,0,782.602)"
             style="font-variant:normal;font-weight:normal;font-size:14.3462px;font-family:CMSS12;-inkscape-font-specification:CMSS12;writing-mode:lr-tb;fill:#8b008b;fill-opacity:1;fill-rule:nonzero;stroke:none"
             id="text1418"><tspan
               x="0"
               y="0"
               id="tspan1416">4</tspan></text>
        </g>
      </g>
      <g
         id="g1420"
         transform="matrix(0.24694444,0,0,-0.24694444,141.63799,65.280023)">
        <g
           id="g1422"
           transform="translate(0,-782.602)">
          <text
             transform="matrix(1,0,0,-1,0,782.602)"
             style="font-variant:normal;font-weight:normal;font-size:14.3462px;font-family:CMSS12;-inkscape-font-specification:CMSS12;writing-mode:lr-tb;fill:#0000ff;fill-opacity:1;fill-rule:nonzero;stroke:none"
             id="text1426"><tspan
               x="0"
               y="0"
               id="tspan1424">1</tspan></text>
        </g>
      </g>
      <g
         id="g1428"
         transform="matrix(0.24694444,0,0,-0.24694444,145.5891,65.280023)">
        <g
           id="g1430"
           transform="translate(0,-782.602)">
          <text
             transform="matrix(1,0,0,-1,0,782.602)"
             style="font-variant:normal;font-weight:normal;font-size:14.3462px;font-family:CMSS12;-inkscape-font-specification:CMSS12;writing-mode:lr-tb;fill:#ff0000;fill-opacity:1;fill-rule:nonzero;stroke:none"
             id="text1434"><tspan
               x="0"
               y="0"
               id="tspan1432">2</tspan></text>
        </g>
      </g>
      <g
         id="g1436"
         transform="matrix(0.24694444,0,0,-0.24694444,133.73576,65.280023)">
        <g
           id="g1438"
           transform="translate(0,-782.602)">
          <text
             transform="matrix(1,0,0,-1,0,782.602)"
             style="font-variant:normal;font-weight:normal;font-size:14.3462px;font-family:CMSS12;-inkscape-font-specification:CMSS12;writing-mode:lr-tb;fill:#00ff00;fill-opacity:1;fill-rule:nonzero;stroke:none"
             id="text1442"><tspan
               x="0"
               y="0"
               id="tspan1440">3</tspan></text>
        </g>
      </g>
      <g
         id="g1444"
         transform="matrix(0.24694444,0,0,-0.24694444,137.68688,65.280023)">
        <g
           id="g1446"
           transform="translate(0,-782.602)">
          <text
             transform="matrix(1,0,0,-1,0,782.602)"
             style="font-variant:normal;font-weight:normal;font-size:14.3462px;font-family:CMSS12;-inkscape-font-specification:CMSS12;writing-mode:lr-tb;fill:#8b008b;fill-opacity:1;fill-rule:nonzero;stroke:none"
             id="text1450"><tspan
               x="0"
               y="0"
               id="tspan1448">4</tspan></text>
        </g>
      </g>
      <g
         id="g1452"
         transform="matrix(0.24694444,0,0,-0.24694444,137.68688,69.231133)">
        <g
           id="g1454"
           transform="translate(0,-782.602)">
          <text
             transform="matrix(1,0,0,-1,0,782.602)"
             style="font-variant:normal;font-weight:normal;font-size:14.3462px;font-family:CMSS12;-inkscape-font-specification:CMSS12;writing-mode:lr-tb;fill:#00ff00;fill-opacity:1;fill-rule:nonzero;stroke:none"
             id="text1458"><tspan
               x="0"
               y="0"
               id="tspan1456">3</tspan></text>
        </g>
      </g>
      <g
         id="g1460"
         transform="matrix(0.24694444,0,0,-0.24694444,133.73576,69.231133)">
        <g
           id="g1462"
           transform="translate(0,-782.602)">
          <text
             transform="matrix(1,0,0,-1,0,782.602)"
             style="font-variant:normal;font-weight:normal;font-size:14.3462px;font-family:CMSS12;-inkscape-font-specification:CMSS12;writing-mode:lr-tb;fill:#8b008b;fill-opacity:1;fill-rule:nonzero;stroke:none"
             id="text1466"><tspan
               x="0"
               y="0"
               id="tspan1464">4</tspan></text>
        </g>
      </g>
      <g
         id="g1468"
         transform="matrix(0.24694444,0,0,-0.24694444,145.5891,69.231133)">
        <g
           id="g1470"
           transform="translate(0,-782.602)">
          <text
             transform="matrix(1,0,0,-1,0,782.602)"
             style="font-variant:normal;font-weight:normal;font-size:14.3462px;font-family:CMSS12;-inkscape-font-specification:CMSS12;writing-mode:lr-tb;fill:#0000ff;fill-opacity:1;fill-rule:nonzero;stroke:none"
             id="text1474"><tspan
               x="0"
               y="0"
               id="tspan1472">1</tspan></text>
        </g>
      </g>
      <g
         id="g1476"
         transform="matrix(0.24694444,0,0,-0.24694444,141.63799,69.231133)">
        <g
           id="g1478"
           transform="translate(0,-782.602)">
          <text
             transform="matrix(1,0,0,-1,0,782.602)"
             style="font-variant:normal;font-weight:normal;font-size:14.3462px;font-family:CMSS12;-inkscape-font-specification:CMSS12;writing-mode:lr-tb;fill:#ff0000;fill-opacity:1;fill-rule:nonzero;stroke:none"
             id="text1482"><tspan
               x="0"
               y="0"
               id="tspan1480">2</tspan></text>
        </g>
      </g>
      <g
         id="g1484"
         transform="matrix(0.24694444,0,0,-0.24694444,54.713545,225.30002)">
        <path
           d="m 72,704 c 0,0 0,0 2.6667,0 2.6666,0 8,0 16,1.333 8,1.334 18.6663,4 25.3333,4 6.667,0 9.333,-2.666 28,-21.333 18.667,-18.667 53.333,-53.333 70.667,-70.667 C 232,600 232,600 232,600"
           style="fill:none;stroke:#0000ff;stroke-width:0.4;stroke-linecap:butt;stroke-linejoin:round;stroke-miterlimit:10;stroke-dasharray:none;stroke-opacity:1"
           id="path1486" />
      </g>
      <g
         id="g1488"
         transform="matrix(0.24694444,0,0,-0.24694444,54.713545,225.30002)">
        <path
           d="m 184,600 c 0,0 0,0 6.667,6.667 6.666,6.666 20,20 28,28 8,8 10.666,10.666 16,21.333 5.333,10.667 13.333,29.333 12,44 -1.334,14.667 -12,25.333 -26.667,26.667 -14.667,1.333 -33.333,-6.667 -44,-12 -10.667,-5.334 -13.333,-8 -20,-14.667 -6.667,-6.667 -17.333,-17.333 -24,-24 -6.667,-6.667 -9.333,-9.333 -16,-5.333 -6.667,4 -17.3333,14.666 -24,21.333 -6.6667,6.667 -9.3333,9.333 -12,12 -2.6667,2.667 -5.3333,5.333 -6.6667,6.667 C 72,712 72,712 72,712"
           style="fill:none;stroke:#ff0000;stroke-width:0.4;stroke-linecap:butt;stroke-linejoin:round;stroke-miterlimit:10;stroke-dasharray:none;stroke-opacity:1"
           id="path1490" />
      </g>
      <g
         id="g1492"
         transform="matrix(0.24694444,0,0,-0.24694444,54.713545,225.30002)">
        <path
           d="m 72,696 c 0,0 0,0 1.3333,1.333 1.3334,1.334 4,4 8,6.667 4,2.667 9.3334,5.333 25.3337,8 16,2.667 42.666,5.333 58.666,4 16,-1.333 21.334,-6.667 29.334,-14.667 8,-8 18.666,-18.666 25.333,-25.333 6.667,-6.667 9.333,-9.333 14.667,-20 5.333,-10.667 13.333,-29.333 12,-44 -1.334,-14.667 -12,-25.333 -26.667,-26.667 -14.667,-1.333 -33.333,6.667 -44,12 -10.667,5.334 -13.333,8 -20,14.667 -6.667,6.667 -17.333,17.333 -24,24 -6.667,6.667 -9.333,9.333 -10.667,10.667 C 120,648 120,648 120,648"
           style="fill:none;stroke:#00ff00;stroke-width:0.4;stroke-linecap:butt;stroke-linejoin:round;stroke-miterlimit:10;stroke-dasharray:none;stroke-opacity:1"
           id="path1494" />
      </g>
      <g
         id="g1496"
         transform="matrix(0.24694444,0,0,-0.24694444,54.713545,225.30002)">
        <path
           d="m 232,712 c 0,0 0,0 -17.333,-17.333 -17.334,-17.334 -52,-52 -73.334,-73.334 C 120,600 112,592 104,606.667 c -8,14.666 -16,52 -20,72 -4,20 -4,22.666 -4,25.333 0,2.667 0,5.333 0,6.667 C 80,712 80,712 80,712"
           style="fill:none;stroke:#8b008b;stroke-width:0.4;stroke-linecap:butt;stroke-linejoin:round;stroke-miterlimit:10;stroke-dasharray:none;stroke-opacity:1"
           id="path1498" />
      </g>
      <g
         id="g1500"
         transform="matrix(0.24694444,0,0,-0.24694444,54.713545,225.30002)">
        <g
           id="g1502">
          <path
             d="m 83,704 c 0,1.657 -1.3431,3 -3,3 -1.6569,0 -3,-1.343 -3,-3 0,-1.657 1.3431,-3 3,-3 1.6569,0 3,1.343 3,3"
             style="fill:#000000;fill-opacity:1;fill-rule:evenodd;stroke:none"
             id="path1504" />
        </g>
      </g>
      <g
         id="g1506"
         transform="matrix(0.24694444,0,0,-0.24694444,70.517989,51.982063)">
        <g
           id="g1508"
           transform="translate(0,-779.885)">
          <text
             transform="matrix(1,0,0,-1,0,782.037)"
             style="font-variant:normal;font-weight:normal;font-size:14.3462px;font-family:CMSSI12;-inkscape-font-specification:CMSSI12;writing-mode:lr-tb;fill:#000000;fill-opacity:1;fill-rule:nonzero;stroke:none"
             id="text1512"><tspan
               x="0"
               y="0"
               id="tspan1510">l</tspan></text>
          <text
             transform="matrix(1,0,0,-1,3.304,779.885)"
             style="font-variant:normal;font-weight:normal;font-size:9.9626px;font-family:CMSS10;-inkscape-font-specification:CMSS10;writing-mode:lr-tb;fill:#000000;fill-opacity:1;fill-rule:nonzero;stroke:none"
             id="text1516"><tspan
               x="0"
               y="0"
               id="tspan1514">1</tspan></text>
        </g>
      </g>
      <g
         id="g1518"
         transform="matrix(0.24694444,0,0,-0.24694444,129.78465,51.982063)">
        <g
           id="g1520"
           transform="translate(0,-779.885)">
          <text
             transform="matrix(1,0,0,-1,0,782.037)"
             style="font-variant:normal;font-weight:normal;font-size:14.3462px;font-family:CMSSI12;-inkscape-font-specification:CMSSI12;writing-mode:lr-tb;fill:#000000;fill-opacity:1;fill-rule:nonzero;stroke:none"
             id="text1524"><tspan
               x="0"
               y="0"
               id="tspan1522">L</tspan></text>
          <text
             transform="matrix(1,0,0,-1,7.588,779.885)"
             style="font-variant:normal;font-weight:normal;font-size:9.9626px;font-family:CMSS10;-inkscape-font-specification:CMSS10;writing-mode:lr-tb;fill:#000000;fill-opacity:1;fill-rule:nonzero;stroke:none"
             id="text1528"><tspan
               x="0"
               y="0"
               id="tspan1526">1</tspan></text>
        </g>
      </g>
    </g>
    <g
       inkscape:label=""
       transform="matrix(1.1347823,0,0,1.1347823,-80.571761,-9.9071721)"
       id="g3829">
      <g
         id="g5880">
        <g
           style="fill:#000000;fill-opacity:1"
           id="g3191">
          <use
             xlink:href="#symbol7666"
             x="91.925003"
             y="81.962997"
             id="use7391"
             width="100%"
             height="100%" />
        </g>
        <g
           style="fill:#000000;fill-opacity:1"
           id="g6284">
          <use
             xlink:href="#symbol1414"
             x="95.523003"
             y="81.962997"
             id="use471"
             width="100%"
             height="100%" />
        </g>
        <g
           style="fill:#000000;fill-opacity:1"
           id="g1737">
          <use
             xlink:href="#symbol7666"
             x="99.950996"
             y="81.962997"
             id="use1195"
             width="100%"
             height="100%" />
        </g>
        <g
           style="fill:#000000;fill-opacity:1"
           id="g1008">
          <use
             xlink:href="#symbol7666"
             x="103.82745"
             y="81.962997"
             id="use5836"
             width="100%"
             height="100%" />
        </g>
        <g
           style="fill:#000000;fill-opacity:1"
           id="g7401">
          <use
             xlink:href="#symbol1414"
             x="107.423"
             y="81.962997"
             id="use5912"
             width="100%"
             height="100%" />
        </g>
        <g
           style="fill:#000000;fill-opacity:1"
           id="g2409">
          <use
             xlink:href="#symbol7666"
             x="111.851"
             y="81.962997"
             id="use2328"
             width="100%"
             height="100%" />
        </g>
        <g
           style="fill:#000000;fill-opacity:1"
           id="g6953">
          <use
             xlink:href="#symbol7666"
             x="115.72745"
             y="81.962997"
             id="use7838"
             width="100%"
             height="100%" />
        </g>
        <g
           style="fill:#000000;fill-opacity:1"
           id="g8212">
          <use
             xlink:href="#symbol7666"
             x="119.6039"
             y="81.962997"
             id="use6792"
             width="100%"
             height="100%" />
        </g>
      </g>
    </g>
    <g
       inkscape:label=""
       transform="matrix(1.1347823,0,0,1.1347823,29.981119,-9.9071721)"
       id="g4164">
      <g
         id="g1533">
        <g
           style="fill:#000000;fill-opacity:1"
           id="g3665">
          <use
             xlink:href="#symbol4017"
             x="91.925003"
             y="81.962997"
             id="use8867"
             width="100%"
             height="100%" />
        </g>
        <g
           style="fill:#000000;fill-opacity:1"
           id="g9702">
          <use
             xlink:href="#symbol4017"
             x="95.801445"
             y="81.962997"
             id="use4653"
             width="100%"
             height="100%" />
        </g>
        <g
           style="fill:#000000;fill-opacity:1"
           id="g1252">
          <use
             xlink:href="#symbol4017"
             x="99.677895"
             y="81.962997"
             id="use865"
             width="100%"
             height="100%" />
        </g>
        <g
           style="fill:#000000;fill-opacity:1"
           id="g6395">
          <use
             xlink:href="#symbol4017"
             x="103.54438"
             y="81.962997"
             id="use5217"
             width="100%"
             height="100%" />
        </g>
      </g>
    </g>
  </g>
</svg>
