<?xml version="1.0" encoding="UTF-8" standalone="no"?>
<svg
   xmlns:dc="http://purl.org/dc/elements/1.1/"
   xmlns:cc="http://creativecommons.org/ns#"
   xmlns:rdf="http://www.w3.org/1999/02/22-rdf-syntax-ns#"
   xmlns:svg="http://www.w3.org/2000/svg"
   xmlns="http://www.w3.org/2000/svg"
   xmlns:sodipodi="http://sodipodi.sourceforge.net/DTD/sodipodi-0.dtd"
   xmlns:inkscape="http://www.inkscape.org/namespaces/inkscape"
   width="59.489483mm"
   height="58.749126mm"
   viewBox="0 0 59.489483 58.749127"
   version="1.1"
   id="svg8"
   inkscape:version="1.0.1 (3bc2e813f5, 2020-09-07)"
   sodipodi:docname="bod-na-primce.svg">
  <defs
     id="defs2" />
  <sodipodi:namedview
     id="base"
     pagecolor="#ffffff"
     bordercolor="#666666"
     borderopacity="1.0"
     inkscape:pageopacity="0.0"
     inkscape:pageshadow="2"
     inkscape:zoom="0.64787234"
     inkscape:cx="213.53547"
     inkscape:cy="441.09699"
     inkscape:document-units="mm"
     inkscape:current-layer="layer1"
     inkscape:document-rotation="0"
     showgrid="false"
     inkscape:window-width="954"
     inkscape:window-height="1049"
     inkscape:window-x="2880"
     inkscape:window-y="0"
     inkscape:window-maximized="1"
     fit-margin-top="0"
     fit-margin-left="0"
     fit-margin-right="0"
     fit-margin-bottom="0" />
  <metadata
     id="metadata5">
    <rdf:RDF>
      <cc:Work
         rdf:about="">
        <dc:format>image/svg+xml</dc:format>
        <dc:type
           rdf:resource="http://purl.org/dc/dcmitype/StillImage" />
        <dc:title></dc:title>
      </cc:Work>
    </rdf:RDF>
  </metadata>
  <g
     inkscape:label="Layer 1"
     inkscape:groupmode="layer"
     id="layer1"
     transform="translate(-3.7167772,-0.79507197)">
    <path
       style="fill:#000000;stroke-width:0.264583"
       d="m 24.31445,59.4227 c -0.0021,-0.1532 0.600635,-1.70102 1.339696,-3.43958 0.739063,-1.73856 2.155015,-5.06602 3.146565,-7.39436 0.991547,-2.32833 2.601135,-6.13833 3.576857,-8.46666 0.975725,-2.32834 2.536333,-5.99513 3.468021,-8.14842 2.042012,-4.71946 2.031259,-4.06329 0.115565,-7.05095 -0.868125,-1.3539 -2.207578,-3.51492 -2.976563,-4.80227 -1.024138,-1.7145 -1.543243,-2.34263 -1.940547,-2.34814 -0.298317,-0.004 -0.675431,-0.14055 -0.83803,-0.30315 -0.217789,-0.21779 -1.050325,-0.0709 -3.161771,0.55786 -5.700503,1.69754 -9.180764,2.7256 -14.47078,4.27464 -1.622429,0.47509 -2.130539,0.74283 -2.311134,1.21784 -0.3121286,0.82096 -0.9637086,1.02459 -1.7506326,0.54712 -0.583998,-0.35435 -0.799184,-0.346 -2.094339,0.0813 -0.793907,0.26192 -1.885018,0.53786 -2.424692,0.61322 -0.597968,0.0835 -0.206148,-0.11873 1.003151,-0.51774 1.091406,-0.36011 2.126706,-0.65542 2.300667,-0.65625 0.17396,-7.9e-4 0.472496,-0.32891 0.663413,-0.7291 0.379936,-0.79638 1.560387,-1.12224 2.1856416,-0.60332 0.360123,0.29888 0.406066,0.28726 9.931528,-2.51053 11.017265,-3.23595 10.917422,-3.18296 9.581477,-5.08501 -0.282323,-0.40195 -1.52228,-2.3977 -2.755458,-4.435 -1.233175,-2.0372901 -2.685976,-4.3952101 -3.228443,-5.2398201 -0.542467,-0.84461 -0.948065,-1.65038 -0.901327,-1.79059 0.04674,-0.14021 0.491887,0.43178 0.989222,1.27108 1.192736,2.01285 5.478782,8.9664401 6.198936,10.0570101 0.31165,0.47194 0.76649,0.8589 1.010756,0.85989 0.244268,0.001 0.63542,0.19311 0.86923,0.42692 0.335904,0.3359 0.575828,0.36802 1.143378,0.15304 0.645126,-0.24435 3.702077,-1.1503 7.729728,-2.29075 1.724718,-0.48836 1.940108,-0.61608 2.349278,-1.39313 0.171505,-0.3257 0.594254,-0.66307 0.939437,-0.74971 0.672896,-0.16888 0.592357,-0.0112 3.616346,-7.0811601 0.923378,-2.15883 1.721398,-3.79756995 1.773375,-3.64163995 0.05198,0.15594 -0.931431,2.62826995 -2.185352,5.49407995 -2.095082,4.7882601 -2.431042,5.9091601 -1.771124,5.9091601 0.224759,0 10.204577,-2.9026401 15.028226,-4.3709701 1.18547,-0.36086 2.30664,-0.65611 2.4915,-0.65611 0.61646,0 0.0523,0.29414 -1.24609,0.64965 -0.70627,0.19339 -2.65336,0.76955 -4.326846,1.28034 -1.67349,0.51079 -5.015656,1.4921201 -7.42704,2.1807301 -3.519585,1.00507 -4.432826,1.36219 -4.630208,1.81062 -0.135231,0.30723 -0.562036,0.70906 -0.948449,0.89294 -0.386413,0.18389 -0.822965,0.66067 -0.970116,1.05951 -0.147148,0.39884 -1.403657,3.39797 -2.792238,6.66473 l -2.524696,5.93956 0.569502,0.93961 c 0.313227,0.51678 2.123602,3.43992 4.023053,6.49585 1.899454,3.05594 3.573031,5.76534 3.71906,6.02088 0.341196,0.59709 6.737017,10.8636 8.281694,13.29371 1.925076,3.02855 1.969664,3.10832 1.681093,3.00737 C 56.212525,57.3637 54.759299,55.17692 53.135575,52.55754 51.511853,49.93817 49.909643,47.37833 49.575111,46.869 48.616605,45.40968 41.238321,33.50157 39.0457,29.87515 38.453669,28.89598 37.94851,28.12207 37.923124,28.15536 37.759661,28.36968 28.047175,51.1452 25.655257,56.92317 24.790234,59.01274 24.321204,59.88712 24.31445,59.42273 Z M 39.853905,22.59345 c 3.82057,-8.96418 4.04042,-9.6896 2.791354,-9.21029 -0.245351,0.0942 -2.675845,0.83532 -5.401096,1.64703 -6.091391,1.81433 -5.978652,1.6592 -3.783639,5.20629 0.824711,1.33271 2.106594,3.40538 2.848628,4.60593 0.742035,1.20055 1.418175,2.18281 1.502534,2.18281 0.08436,0 1.003359,-1.9943 2.042219,-4.43177 z M 15.877064,57.54444 c 0.368457,-0.44397 1.051876,-3.27418 0.86402,-3.57814 -0.07416,-0.11999 0.463319,-0.21816 1.194391,-0.21816 2.270093,0 2.327902,2.01608 0.06229,2.17232 -0.864415,0.0596 -1.586412,0.95191 -1.232969,1.52379 0.07211,0.11667 -0.166208,0.26896 -0.529587,0.33843 -0.53793,0.10283 -0.604475,0.0586 -0.358145,-0.23824 z m 3.093096,-2.80411 c 0.07522,-0.65377 0.0013,-0.72761 -0.727604,-0.72761 -0.446228,0 -0.81295,0.0893 -0.814937,0.19844 -0.002,0.10914 -0.07769,0.47508 -0.168235,0.81319 -0.151296,0.565 -0.0921,0.60783 0.731217,0.52917 0.755015,-0.0721 0.909,-0.19997 0.979559,-0.81319 z m 27.512737,3.01461 c 0.38935,-0.24697 1.195427,-3.39129 0.964978,-3.76417 -0.258078,-0.41757 2.430692,-0.28073 2.781151,0.14155 0.690912,0.83249 -0.449389,1.99707 -1.955442,1.99707 -0.69164,0 -1.152988,1.29039 -0.589532,1.64892 0.168606,0.10728 -0.110164,0.19506 -0.619487,0.19506 -0.588627,0 -0.800566,-0.0796 -0.581668,-0.21843 z m 2.76176,-2.22086 c 0.823921,-0.63497 0.69137,-1.38007 -0.261863,-1.47198 -0.574477,-0.0554 -0.861094,0.0324 -0.863507,0.26459 -0.0021,0.19112 -0.07541,0.61538 -0.163153,0.9428 -0.184203,0.68736 0.545515,0.8372 1.288523,0.26459 z M 20.170535,54.87262 c 0.403402,-1.44651 0.493353,-1.65365 0.718111,-1.65365 0.35642,0 0.304242,0.44427 -0.156917,1.33606 -0.445489,0.86148 -0.762984,1.04116 -0.561194,0.31759 z M 9.6148764,28.59468 c -0.09607,-0.15544 -0.370985,-0.20767 -0.610927,-0.11606 -0.239942,0.0916 -0.04931,-0.23337 0.423638,-0.72216 0.9863826,-1.01945 1.0875826,-1.38166 0.330729,-1.18374 -0.554122,0.1449 -0.728659,-0.18673 -0.252993,-0.4807 0.151895,-0.0939 0.458625,-0.0193 0.6816226,0.16581 0.330771,0.27451 0.449724,0.26652 0.645817,-0.0434 0.143386,-0.2266 0.242001,-0.25547 0.244418,-0.0716 0.0022,0.16956 -0.353136,0.64543 -0.789698,1.05747 -1.0977596,1.03611 -0.5923826,1.80737 0.535375,0.81704 0.207144,-0.1819 0.152972,-0.0628 -0.120382,0.26458 -0.549473,0.65816 -0.8251126,0.73741 -1.0875996,0.31269 z M 27.051546,22.20289 c -0.08157,-0.13198 -0.07037,-0.31789 0.02487,-0.41313 0.09525,-0.0952 0.272963,-0.0117 0.394931,0.18564 0.289478,0.46839 0.807802,-0.43959 0.807802,-1.41508 0,-0.73817 -0.452821,-0.92108 -0.698069,-0.28197 -0.08376,0.21828 -0.277074,0.39687 -0.42958,0.39687 -0.152506,0 -0.07916,-0.21892 0.162986,-0.48649 0.514749,-0.56879 2.315683,-0.61982 2.49869,-0.0708 0.08106,0.24318 -0.04366,0.29754 -0.413443,0.18017 -0.445712,-0.14146 -0.558059,-0.0159 -0.709821,0.79303 -0.213818,1.13974 -0.06246,1.37435 0.575029,0.89133 0.402381,-0.30488 0.421503,-0.30203 0.133895,0.02 -0.376764,0.42186 -2.118524,0.57058 -2.34729,0.20043 z m 25.323889,-2.22481 c -0.301604,-0.38343 -0.557218,-0.88944 -0.568031,-1.12448 -0.01082,-0.23503 -0.07275,-0.71591 -0.137645,-1.0686 -0.156027,-0.84804 0.314349,-2.22211 0.961017,-2.80734 0.632307,-0.57223 0.69178,-0.22334 0.07761,0.4553 -0.687284,0.75944 -0.759325,3.05176 -0.133567,4.25007 0.610516,1.16914 0.553977,1.2528 -0.199387,0.29505 z m -4.124542,-0.0831 c 0.105656,-0.33289 -0.02868,-0.70798 -0.379045,-1.05834 -0.646125,-0.64612 -0.680119,-1.05817 -0.144282,-1.7489 0.370604,-0.47774 0.379441,-0.46055 0.126605,0.2462 -0.1941,0.54255 -0.185277,0.86405 0.03085,1.12448 0.456318,0.54983 0.628986,0.4525 0.995534,-0.56118 0.554799,-1.53427 2.152756,-1.77635 2.152756,-0.32613 0,0.39943 -1.523595,1.78116 -1.964023,1.78116 -0.240837,0 -0.417227,0.22372 -0.417227,0.52917 0,0.29104 -0.127085,0.52917 -0.282414,0.52917 -0.159536,0 -0.211206,-0.22435 -0.118758,-0.51563 z m 2.16081,-1.75701 c 0.424656,-0.64811 0.296764,-1.16695 -0.287647,-1.16695 -0.463259,0 -0.860404,0.50554 -1.077889,1.37206 -0.227166,0.90511 0.732547,0.76095 1.365536,-0.20511 z m 7.227993,1.88565 c 0.635155,-0.76532 0.666525,-3.45145 0.05246,-4.49222 -0.649986,-1.10164 -0.331063,-1.28286 0.376655,-0.21403 0.85438,1.29032 0.48252,5.09324 -0.498017,5.09324 -0.13875,0 -0.107744,-0.17415 0.0689,-0.38699 z m -3.865234,-0.99576 c -0.08157,-0.13198 -0.07037,-0.31789 0.02487,-0.41313 0.09525,-0.0952 0.270878,-0.0151 0.390295,0.17814 0.274754,0.44456 0.450014,0.15937 0.690798,-1.12412 0.183594,-0.97864 0.169164,-1.00636 -0.372853,-0.71628 -0.33191,0.17763 -0.563841,0.19643 -0.563841,0.0457 0,-0.41042 1.099651,-0.65297 1.322877,-0.29178 0.141825,0.22947 0.250135,0.23756 0.379458,0.0283 0.266388,-0.43103 0.943499,-0.35636 0.943499,0.10404 0,0.48032 -0.436454,0.52781 -0.607873,0.0662 -0.146325,-0.39408 -0.715044,0.93486 -0.715044,1.67087 0,0.58386 0.278355,0.65692 0.740833,0.19444 0.246944,-0.24694 0.3175,-0.24694 0.3175,0 0,0.35144 0.01386,0.34713 -1.399545,0.43517 -0.551468,0.0344 -1.069409,-0.0455 -1.150974,-0.1775 z"
       id="path1236" />
  </g>
</svg>
