<?xml version="1.0" encoding="UTF-8" standalone="no"?>
<svg
   width="138.36714mm"
   height="68.658287mm"
   viewBox="0 0 138.36713 68.658288"
   version="1.1"
   id="svg8"
   inkscape:version="1.1 (c4e8f9ed74, 2021-05-24)"
   sodipodi:docname="lat-to-kpr.svg"
   xmlns:inkscape="http://www.inkscape.org/namespaces/inkscape"
   xmlns:sodipodi="http://sodipodi.sourceforge.net/DTD/sodipodi-0.dtd"
   xmlns="http://www.w3.org/2000/svg"
   xmlns:svg="http://www.w3.org/2000/svg"
   xmlns:rdf="http://www.w3.org/1999/02/22-rdf-syntax-ns#"
   xmlns:cc="http://creativecommons.org/ns#"
   xmlns:dc="http://purl.org/dc/elements/1.1/">
  <defs
     id="defs2">
    <clipPath
       clipPathUnits="userSpaceOnUse"
       id="clipPath863">
      <path
         d="M 31.8,575.8 H 464.2 V 800.2 H 31.8 Z"
         id="path861" />
    </clipPath>
  </defs>
  <sodipodi:namedview
     id="base"
     pagecolor="#ffffff"
     bordercolor="#666666"
     borderopacity="1.0"
     inkscape:pageopacity="0.0"
     inkscape:pageshadow="2"
     inkscape:zoom="0.31190804"
     inkscape:cx="278.92837"
     inkscape:cy="142.67026"
     inkscape:document-units="mm"
     inkscape:current-layer="layer1"
     inkscape:document-rotation="0"
     showgrid="false"
     fit-margin-top="0"
     fit-margin-left="0"
     fit-margin-right="0"
     fit-margin-bottom="0"
     inkscape:window-width="1920"
     inkscape:window-height="1080"
     inkscape:window-x="0"
     inkscape:window-y="0"
     inkscape:window-maximized="1"
     inkscape:pagecheckerboard="0" />
  <metadata
     id="metadata5">
    <rdf:RDF>
      <cc:Work
         rdf:about="">
        <dc:format>image/svg+xml</dc:format>
        <dc:type
           rdf:resource="http://purl.org/dc/dcmitype/StillImage" />
      </cc:Work>
    </rdf:RDF>
  </metadata>
  <g
     inkscape:label="Layer 1"
     inkscape:groupmode="layer"
     id="layer1"
     transform="translate(12.454571,4.8879315)">
    <path
       d="m 31.969646,0.57998208 c 0,-0.56130948 -0.454942,-1.01625132 -1.016252,-1.01625132 -0.561309,0 -1.016251,0.45494184 -1.016251,1.01625132 0,0.56130952 0.454942,1.01625132 1.016251,1.01625132 0.56131,0 1.016252,-0.4549418 1.016252,-1.01625132"
       style="fill:#000000;fill-opacity:1;fill-rule:evenodd;stroke:none;stroke-width:0.33875"
       id="path869" />
    <path
       d="m -5.9704035,38.520031 c 0,-0.561309 -0.4549757,-1.016251 -1.0162513,-1.016251 -0.5612756,0 -1.0162514,0.454942 -1.0162514,1.016251 0,0.56131 0.4549758,1.016252 1.0162514,1.016252 0.5612756,0 1.0162513,-0.454942 1.0162513,-1.016252"
       style="fill:#000000;fill-opacity:1;fill-rule:evenodd;stroke:none;stroke-width:0.33875"
       id="path875" />
    <path
       d="m 14.693373,60.20006 c 0,0 0,0 0,-6.323455 0,-6.323116 0,-18.970025 0,-26.196588 0,-7.226563 0,-9.033458 1.806556,-11.743461 1.806895,-2.710004 5.420007,-6.3231159 8.154062,-9.0327807 2.734394,-2.7100035 4.589052,-4.5158821 6.395947,-6.32277697 1.806556,-1.80655613 3.56501,-3.61378973 4.444067,-4.51723713 0.879396,-0.9037862 0.879396,-0.9037862 0.879396,-0.9037862"
       style="fill:none;stroke:#000000;stroke-width:0.1355;stroke-linecap:butt;stroke-linejoin:round;stroke-miterlimit:10;stroke-dasharray:none;stroke-opacity:1"
       id="path879" />
    <path
       d="m 47.213416,60.20006 c 0,0 0,0 0,-6.323455 0,-6.323116 0,-18.970025 0,-26.196588 0,-7.226563 0,-9.033458 -1.806557,-11.743461 C 43.599965,13.226552 39.986852,9.6134401 36.373401,5.9999891 32.759951,2.3865382 29.146838,-1.226574 27.339943,-3.0334689 25.533387,-4.840025 25.533387,-4.840025 25.533387,-4.840025"
       style="fill:none;stroke:#000000;stroke-width:0.1355;stroke-linecap:butt;stroke-linejoin:round;stroke-miterlimit:10;stroke-dasharray:none;stroke-opacity:1"
       id="path883" />
    <path
       d="m 25.533387,60.20006 c 0,0 0,0 0,-6.323455 0,-6.323116 0,-18.970025 0,-25.745033 0,-6.775009 0,-7.678118 0.451555,-10.388121 0.451893,-2.710004 1.355001,-7.226902 2.258449,-10.3884601 0.903447,-3.1615579 1.806556,-4.9684527 2.710003,-6.77500882 0.903448,-1.80655608 1.806557,-3.61345098 2.25845,-4.51655958 0.451554,-0.9034475 0.451554,-0.9034475 0.451554,-0.9034475"
       style="fill:none;stroke:#000000;stroke-width:0.1355;stroke-linecap:butt;stroke-linejoin:round;stroke-miterlimit:10;stroke-dasharray:none;stroke-opacity:1"
       id="path887" />
    <path
       d="m 36.373401,60.20006 c 0,0 0,0 0,-6.323455 0,-6.323116 0,-18.970025 0,-25.745033 0,-6.775009 0,-7.678118 -0.451554,-10.388121 C 35.469954,15.033447 34.566845,10.516549 33.663398,7.3549909 32.759951,4.193433 31.856842,2.3865382 30.953394,0.57998208 30.049947,-1.226574 29.146838,-3.0334689 28.694945,-3.9365775 28.243391,-4.840025 28.243391,-4.840025 28.243391,-4.840025"
       style="fill:none;stroke:#000000;stroke-width:0.1355;stroke-linecap:butt;stroke-linejoin:round;stroke-miterlimit:10;stroke-dasharray:none;stroke-opacity:1"
       id="path891" />
    <path
       d="m 52.633423,54.780052 c 0,0 0,0 -6.323455,0 -6.323116,0 -18.970025,0 -26.196588,0 -7.226563,0 -9.033458,0 -12.1950155,-2.258449 C 4.756705,50.263493 0.24000992,45.746594 -2.4699936,43.036591 -5.1799971,40.326587 -6.083309,39.423479 -7.4383108,38.068477 -8.7933126,36.713475 -10.600004,34.90658 -11.503316,34.003472 c -0.903346,-0.903448 -0.903346,-0.903448 -0.903346,-0.903448"
       style="fill:none;stroke:#000000;stroke-width:0.1355;stroke-linecap:butt;stroke-linejoin:round;stroke-miterlimit:10;stroke-dasharray:none;stroke-opacity:1"
       id="path895" />
    <path
       d="m 52.633423,22.26001 c 0,0 0,0 -6.323455,0 -6.323116,0 -18.970025,0 -26.196588,0 -7.226563,0 -9.033458,0 -12.1950155,2.258449 -3.1616595,2.258111 -7.67835458,6.775009 -10.3883581,9.485013 -2.7100035,2.710003 -3.6133154,3.613112 -4.9683172,4.968114 -1.3550018,1.355001 -3.1616932,3.161896 -4.0650052,4.065005 -0.903346,0.903447 -0.903346,0.903447 -0.903346,0.903447"
       style="fill:none;stroke:#000000;stroke-width:0.1355;stroke-linecap:butt;stroke-linejoin:round;stroke-miterlimit:10;stroke-dasharray:none;stroke-opacity:1"
       id="path899" />
    <path
       d="m 52.633423,33.100024 c 0,0 0,0 -6.323455,0 -6.323116,0 -18.970025,0 -25.745033,0 -6.775009,0 -7.678118,0 -10.388121,0.451555 -2.7100038,0.451893 -7.2268006,1.355001 -10.38846004,2.258449 -3.16165946,0.903447 -4.96835106,1.806556 -6.77500876,2.710003 -1.8066578,0.903448 -3.6133492,1.806556 -4.5166612,2.25845 -0.903346,0.451554 -0.903346,0.451554 -0.903346,0.451554"
       style="fill:none;stroke:#000000;stroke-width:0.1355;stroke-linecap:butt;stroke-linejoin:round;stroke-miterlimit:10;stroke-dasharray:none;stroke-opacity:1"
       id="path903" />
    <path
       d="m 52.633423,43.940038 c 0,0 0,0 -6.323455,0 -6.323116,0 -18.970025,0 -25.745033,0 -6.775009,0 -7.678118,0 -10.388121,-0.451554 C 7.4668102,43.036591 2.9500134,42.133482 -0.21164604,41.230035 -3.3733055,40.326587 -5.1799971,39.423479 -6.9866548,38.520031 c -1.8066578,-0.903447 -3.6133492,-1.806556 -4.5166612,-2.258449 -0.903346,-0.451554 -0.903346,-0.451554 -0.903346,-0.451554"
       style="fill:none;stroke:#000000;stroke-width:0.1355;stroke-linecap:butt;stroke-linejoin:round;stroke-miterlimit:10;stroke-dasharray:none;stroke-opacity:1"
       id="path907" />
    <path
       d="m -4.2766513,22.26001 c 0,0 0,0 0.9033458,0 0.9033119,0 2.7100035,0 5.420007,-0.451554 2.7100035,-0.451893 6.3232174,-1.355002 8.5816665,-1.355002 2.258449,0 3.161558,0.903109 9.485012,7.226563 6.323455,6.323455 18.066578,18.066577 23.938478,23.938478 5.871561,5.871561 5.871561,5.871561 5.871561,5.871561"
       style="fill:none;stroke:#000000;stroke-width:0.1355;stroke-linecap:butt;stroke-linejoin:round;stroke-miterlimit:10;stroke-dasharray:none;stroke-opacity:1"
       id="path911" />
    <path
       d="m 33.663398,57.490056 c 0,0 0,0 2.258449,-2.258449 2.258111,-2.258111 6.775009,-6.775009 9.485012,-9.485013 2.710004,-2.710003 3.613113,-3.613112 5.420008,-7.226563 1.806556,-3.613451 4.516559,-9.936566 4.065005,-14.905019 -0.451893,-4.968453 -4.065005,-8.581565 -9.033458,-9.033458 -4.968453,-0.451554 -11.291569,2.258449 -14.90502,4.065005 -3.613451,1.806895 -4.516559,2.710004 -6.775008,4.968453 -2.25845,2.258449 -5.871562,5.871561 -8.130011,8.130011 -2.258449,2.258449 -3.161558,3.161557 -5.420007,1.806556 C 8.3699189,32.196577 4.756705,28.583465 2.4983575,26.325016 0.24000992,24.066566 -0.663302,23.163458 -1.5666478,22.26001 -2.4699936,21.356563 -3.3733055,20.453454 -3.8249954,20.001561 -4.2766513,19.550007 -4.2766513,19.550007 -4.2766513,19.550007"
       style="fill:none;stroke:#ff0000;stroke-width:0.677501;stroke-linecap:butt;stroke-linejoin:round;stroke-miterlimit:10;stroke-dasharray:none;stroke-opacity:1"
       id="path915" />
    <path
       d="m -4.2766513,24.970014 c 0,0 0,0 0.4516559,-0.451555 0.4516899,-0.451893 1.3550018,-1.355001 2.7100036,-2.258449 1.35500172,-0.903447 3.1616933,-1.806556 8.581802,-2.710003 5.4200068,-0.903448 14.4531258,-1.806556 19.8731328,-1.355002 5.420008,0.451554 7.226902,2.258449 9.936906,4.968453 2.710003,2.710003 6.323116,6.323115 8.581565,8.581565 2.258449,2.258449 3.161558,3.161557 4.968453,6.775008 1.806556,3.613451 4.516559,9.936567 4.065005,14.90502 -0.451893,4.968452 -4.065005,8.581565 -9.033458,9.033458 C 40.889961,62.910063 34.566845,60.20006 30.953394,58.393503 27.339943,56.586609 26.436835,55.6835 24.178386,53.425051 21.919936,51.166602 18.306824,47.553489 16.048375,45.29504 13.789926,43.036591 12.886817,42.133482 12.434924,41.681589 11.98337,41.230035 11.98337,41.230035 11.98337,41.230035"
       style="fill:none;stroke:#000000;stroke-width:0.1355;stroke-linecap:butt;stroke-linejoin:round;stroke-miterlimit:10;stroke-dasharray:none;stroke-opacity:1"
       id="path919" />
    <path
       d="m 49.923419,19.550007 c 0,0 0,0 -5.871561,5.871561 -5.8719,5.8719 -17.615023,17.615023 -24.841925,24.841925 C 11.98337,57.490056 9.2733663,60.20006 6.5633628,55.231607 3.8533592,50.263493 1.1433557,37.616584 -0.21164604,30.841575 -1.5666478,24.066566 -1.5666478,23.163458 -1.5666478,22.26001 c 0,-0.903447 0,-1.806556 0,-2.258449 0,-0.451554 0,-0.451554 0,-0.451554"
       style="fill:none;stroke:#000000;stroke-width:0.1355;stroke-linecap:butt;stroke-linejoin:round;stroke-miterlimit:10;stroke-dasharray:none;stroke-opacity:1"
       id="path923" />
    <path
       d="m 1.1433557,14.13 c 0,0 0,0 0.7905758,-0.188007 0.7906096,-0.188006 2.3717612,-0.564019 4.1785544,-1.015574 1.8065561,-0.451893 3.83872,-0.978988 5.7580801,0.112127 1.91936,1.091454 3.726255,3.801457 4.177809,5.608013 0.451554,1.806895 -0.451554,2.710004 -1.355002,3.613451 -0.903447,0.903448 -1.806556,1.806556 -3.613451,7.226563 -1.8065557,5.420007 -4.5165592,15.356913 -4.0650049,22.131922 0.4518931,6.775008 4.0650049,10.388121 7.6784559,10.388121 3.613451,0 7.226563,-3.613113 9.485013,-5.871562 2.258449,-2.258449 3.161557,-3.161558 6.775008,-4.065005 3.613451,-0.903447 9.936567,-1.806556 13.098464,-3.161558 3.161558,-1.355002 3.161558,-3.161897 3.161558,-4.968453 0,-1.806556 0,-3.613451 -1.355002,-4.968452 -1.355002,-1.355002 -4.065005,-2.258111 -5.871562,-3.161558 -1.806894,-0.903448 -2.710003,-1.806556 -3.613451,-2.710004 -0.903447,-0.903447 -1.806556,-1.806556 -2.258449,-2.258449 -0.451554,-0.451554 -0.451554,-0.451554 -0.451554,-0.451554"
       style="fill:none;stroke:#000000;stroke-width:0.1355;stroke-linecap:butt;stroke-linejoin:round;stroke-miterlimit:10;stroke-dasharray:none;stroke-opacity:1"
       id="path927" />
    <path
       d="m 1.1433557,11.419996 c 0,0 0,0 0.7905758,0.263548 0.7906096,0.263887 2.3717612,0.790982 6.4366649,2.597877 4.0650056,1.806556 10.6140676,4.892573 14.2495376,6.526027 3.635808,1.633116 4.358702,1.814009 7.971814,2.717118 3.613451,0.903447 10.117459,2.529449 13.369463,4.245898 3.252005,1.716109 3.252005,3.523004 3.252005,5.32956 0,1.806556 0,3.613451 -1.806557,5.420007 -1.806894,1.806556 -5.420007,3.613451 -10.478906,6.142562 -5.05856,2.52945 -11.562568,5.781454 -15.221073,7.633403 -3.658505,1.851609 -4.471506,2.303502 -5.284507,2.935611 -0.813001,0.632447 -1.626002,1.445448 -2.032503,1.851948 -0.4065,0.406501 -0.4065,0.406501 -0.4065,0.406501"
       style="fill:none;stroke:#000000;stroke-width:0.1355;stroke-linecap:butt;stroke-linejoin:round;stroke-miterlimit:10;stroke-dasharray:none;stroke-opacity:1"
       id="path931" />
    <path
       d="m 9.2733663,8.7099926 c 0,0 0,0 -0.5643583,0.715441 -0.5643582,0.7151024 -1.6934134,2.1459844 -2.5965221,3.5009854 -0.9034474,1.355002 -1.581287,2.634124 -0.5653745,5.532134 1.0162514,2.89801 3.7262549,7.414908 5.5328106,10.124912 1.806895,2.710003 2.710004,3.613112 4.968453,5.871561 2.258449,2.258449 5.871561,5.871561 8.130011,8.130011 2.258449,2.258449 3.161557,3.161557 6.323454,5.420007 3.161558,2.258449 8.581565,5.871561 11.743123,7.226563 3.161896,1.355002 4.065005,0.451893 4.968453,-0.451555 0.903447,-0.903447 1.806556,-1.806556 3.161557,-4.516559 1.355002,-2.710004 3.161897,-7.226902 3.161897,-11.743462 0,-4.516559 -1.806895,-9.033458 -4.065005,-11.291568 -2.258449,-2.258449 -4.968453,-2.258449 -7.226902,-2.710004 -2.258111,-0.451893 -4.065005,-1.355001 -5.871562,-2.258449 -1.806556,-0.903447 -3.61345,-1.806556 -4.516559,-2.258449 -0.903448,-0.451554 -0.903448,-0.451554 -0.903448,-0.451554"
       style="fill:none;stroke:#000000;stroke-width:0.1355;stroke-linecap:butt;stroke-linejoin:round;stroke-miterlimit:10;stroke-dasharray:none;stroke-opacity:1"
       id="path935" />
    <path
       d="m 3.8533592,8.7099926 c 0,0 0,0 0.3389199,0.715441 0.3389198,0.7151024 1.0167594,2.1459844 1.9202068,3.9525404 0.9031087,1.806556 2.0321639,3.989464 2.5965221,9.145584 0.5643583,5.156459 0.5643583,13.28647 1.467806,17.351475 0.903108,4.065005 2.710003,4.065005 4.516559,4.065005 1.806556,0 3.613451,0 4.968453,-1.355001 1.355002,-1.355002 2.25811,-4.065006 3.161558,-5.871562 0.903447,-1.806895 1.806556,-2.710003 5.420007,-4.968452 3.613451,-2.25845 9.936567,-5.871562 13.550018,-7.678457 3.61345,-1.806556 4.516559,-1.806556 5.871561,-1.806556 1.355002,0 3.161897,0 4.968453,3.161558 1.806556,3.161897 3.613451,9.485012 3.613451,15.808467 0,6.323454 -1.806895,12.64657 -4.516899,15.808467 -2.710003,3.161558 -6.323116,3.161558 -9.033119,2.25811 -2.710004,-0.903109 -4.516898,-2.710003 -5.8719,-4.065005 -1.355002,-1.355002 -2.258111,-2.258111 -2.710004,-2.710004 -0.451554,-0.451554 -0.451554,-0.451554 -0.451554,-0.451554"
       style="fill:none;stroke:#000000;stroke-width:0.1355;stroke-linecap:butt;stroke-linejoin:round;stroke-miterlimit:10;stroke-dasharray:none;stroke-opacity:1"
       id="path939" />
    <path
       d="m 14.693373,3.2899856 c 0,0 0,0 0,0.4515543 0,0.4518931 0,1.3550018 0,2.2584492 0,0.9034474 0,1.8065561 -0.451554,4.0650049 -0.451893,2.25845 -1.355002,5.871562 -1.355002,8.130011 0,2.258449 0.903109,3.161558 1.806556,4.065005 0.903448,0.903448 1.806556,1.806556 5.420007,2.710004 3.613451,0.903447 9.936567,1.806556 14.90502,2.258449 4.968452,0.451554 8.581565,0.451554 10.388459,1.355002 1.806557,0.903108 1.806557,2.710003 1.806557,4.065005 0,1.355002 0,2.25811 -0.903448,5.871561 -0.903109,3.613451 -2.710003,9.936567 -4.516559,13.098464 -1.806557,3.161557 -3.613451,3.161557 -5.420008,3.161557 -1.806556,0 -3.61345,0 -4.968452,-1.355001 -1.355002,-1.355002 -2.258111,-4.065006 -3.161558,-5.871562 -0.903448,-1.806895 -1.806556,-2.710003 -2.710004,-3.613451 -0.903447,-0.903447 -1.806556,-1.806556 -2.258449,-2.258449 -0.451554,-0.451554 -0.451554,-0.451554 -0.451554,-0.451554"
       style="fill:none;stroke:#000000;stroke-width:0.1355;stroke-linecap:butt;stroke-linejoin:round;stroke-miterlimit:10;stroke-dasharray:none;stroke-opacity:1"
       id="path943" />
    <path
       d="m 11.98337,3.2899856 c 0,0 0,0 0.451554,0.4515543 0.451893,0.4518931 1.355002,1.3550018 2.258449,2.2584492 0.903448,0.9034474 1.806556,1.8065561 3.161558,4.0650049 1.355002,2.25845 3.161897,5.871562 4.516899,8.130011 1.355001,2.258449 2.25811,3.161558 4.516559,5.420007 2.258449,2.258449 5.871562,5.871561 8.130011,8.130011 2.258449,2.258449 3.161558,3.161557 5.871561,4.516559 2.710004,1.355002 7.226902,3.161897 9.033458,5.8719 1.806556,2.710004 0.903448,6.323116 0,8.581565 -0.903447,2.258449 -1.806556,3.161558 -2.710003,4.065005 -0.903448,0.903448 -1.806557,1.806557 -5.420007,2.710004 -3.613451,0.903447 -9.936567,1.806556 -14.453466,0.451554 C 22.823384,56.586609 20.11338,52.973496 18.306824,50.263493 16.499929,47.553489 15.596821,45.746594 14.693373,43.940038 13.789926,42.133482 12.886817,40.326587 12.434924,39.423479 11.98337,38.520031 11.98337,38.520031 11.98337,38.520031"
       style="fill:none;stroke:#000000;stroke-width:0.1355;stroke-linecap:butt;stroke-linejoin:round;stroke-miterlimit:10;stroke-dasharray:none;stroke-opacity:1"
       id="path947" />
    <path
       d="m 11.98337,5.9999891 c 0,0 0,0 0.451554,0 0.451893,0 1.355002,0 2.258449,0 0.903448,0 1.806556,0 5.871562,2.2584492 4.065005,2.2581107 11.291907,6.7750087 14.453465,9.4850127 3.161558,2.710003 2.258449,3.613112 0,5.871561 -2.258449,2.258449 -5.871562,5.871561 -8.130011,8.130011 -2.258449,2.258449 -3.161558,3.161557 -5.420007,6.323454 -2.258449,3.161558 -5.871561,8.581565 -7.226563,11.743123 -1.355002,3.161896 -0.451893,4.065005 0.451554,4.968452 0.903448,0.903448 1.806556,1.806557 5.420007,3.613451 3.613451,1.806557 9.936567,4.51656 15.808467,4.968114 5.871562,0.451893 11.291569,-1.355001 14.001572,-4.065005 2.710004,-2.710003 2.710004,-6.323116 1.806556,-9.033119 -0.903108,-2.710004 -2.710003,-4.516899 -4.065005,-5.8719 -1.355002,-1.355002 -2.258111,-2.258111 -2.710004,-2.710004 -0.451554,-0.451554 -0.451554,-0.451554 -0.451554,-0.451554"
       style="fill:none;stroke:#00ff00;stroke-width:0.677501;stroke-linecap:butt;stroke-linejoin:round;stroke-miterlimit:10;stroke-dasharray:none;stroke-opacity:1"
       id="path951" />
    <path
       d="m 11.98337,8.7099926 c 0,0 0,0 0.451554,-0.4515543 0.451893,-0.4518931 1.355002,-1.3550018 2.258449,-2.2584492 0.903448,-0.9034474 1.806556,-1.8065561 6.775009,0.4515544 4.968453,2.2584491 14.001572,7.6784565 18.970025,10.8400145 4.968452,3.161896 5.871561,4.065005 6.775009,4.968452 0.903447,0.903448 1.806556,1.806556 3.161557,4.065006 1.355002,2.258449 3.161897,5.871561 1.355002,8.581564 -1.806556,2.710004 -7.226563,4.516899 -10.388121,5.871901 -3.161896,1.355001 -4.065005,2.25811 -4.968453,3.161557 -0.903447,0.903448 -1.806556,1.806556 -2.710003,3.613451 -0.903447,1.806556 -1.806556,4.51656 -3.161558,5.871562 -1.355002,1.355001 -3.161897,1.355001 -4.968453,1.355001 -1.806556,0 -3.613451,0 -4.968452,-3.161557 C 19.209933,48.456598 18.306824,42.133482 17.403377,38.520031 16.499929,34.90658 15.596821,34.003472 14.693373,33.100024 13.789926,32.196577 12.886817,31.293468 12.434924,30.841575 11.98337,30.390021 11.98337,30.390021 11.98337,30.390021"
       style="fill:none;stroke:#000000;stroke-width:0.1355;stroke-linecap:butt;stroke-linejoin:round;stroke-miterlimit:10;stroke-dasharray:none;stroke-opacity:1"
       id="path955" />
    <path
       d="m 26.549639,22.26001 c 0,-0.561309 -0.454942,-1.016251 -1.016252,-1.016251 -0.561309,0 -1.016251,0.454942 -1.016251,1.016251 0,0.56131 0.454942,1.016252 1.016251,1.016252 0.56131,0 1.016252,-0.454942 1.016252,-1.016252"
       style="fill:#000000;fill-opacity:1;fill-rule:evenodd;stroke:none;stroke-width:0.33875"
       id="path961" />
    <path
       d="m 37.389653,22.26001 c 0,-0.561309 -0.454942,-1.016251 -1.016252,-1.016251 -0.561309,0 -1.016251,0.454942 -1.016251,1.016251 0,0.56131 0.454942,1.016252 1.016251,1.016252 0.56131,0 1.016252,-0.454942 1.016252,-1.016252"
       style="fill:#000000;fill-opacity:1;fill-rule:evenodd;stroke:none;stroke-width:0.33875"
       id="path967" />
    <path
       d="m 48.229667,22.26001 c 0,-0.561309 -0.454942,-1.016251 -1.016251,-1.016251 -0.56131,0 -1.016252,0.454942 -1.016252,1.016251 0,0.56131 0.454942,1.016252 1.016252,1.016252 0.561309,0 1.016251,-0.454942 1.016251,-1.016252"
       style="fill:#000000;fill-opacity:1;fill-rule:evenodd;stroke:none;stroke-width:0.33875"
       id="path973" />
    <path
       d="m 15.709625,33.100024 c 0,-0.561309 -0.454942,-1.016251 -1.016252,-1.016251 -0.561309,0 -1.016251,0.454942 -1.016251,1.016251 0,0.56131 0.454942,1.016252 1.016251,1.016252 0.56131,0 1.016252,-0.454942 1.016252,-1.016252"
       style="fill:#000000;fill-opacity:1;fill-rule:evenodd;stroke:none;stroke-width:0.33875"
       id="path979" />
    <path
       d="m 26.549639,33.100024 c 0,-0.561309 -0.454942,-1.016251 -1.016252,-1.016251 -0.561309,0 -1.016251,0.454942 -1.016251,1.016251 0,0.56131 0.454942,1.016252 1.016251,1.016252 0.56131,0 1.016252,-0.454942 1.016252,-1.016252"
       style="fill:#000000;fill-opacity:1;fill-rule:evenodd;stroke:none;stroke-width:0.33875"
       id="path985" />
    <path
       d="m 37.389653,33.100024 c 0,-0.561309 -0.454942,-1.016251 -1.016252,-1.016251 -0.561309,0 -1.016251,0.454942 -1.016251,1.016251 0,0.56131 0.454942,1.016252 1.016251,1.016252 0.56131,0 1.016252,-0.454942 1.016252,-1.016252"
       style="fill:#000000;fill-opacity:1;fill-rule:evenodd;stroke:none;stroke-width:0.33875"
       id="path991" />
    <path
       d="m 48.229667,33.100024 c 0,-0.561309 -0.454942,-1.016251 -1.016251,-1.016251 -0.56131,0 -1.016252,0.454942 -1.016252,1.016251 0,0.56131 0.454942,1.016252 1.016252,1.016252 0.561309,0 1.016251,-0.454942 1.016251,-1.016252"
       style="fill:#000000;fill-opacity:1;fill-rule:evenodd;stroke:none;stroke-width:0.33875"
       id="path997" />
    <path
       d="m 15.709625,43.940038 c 0,-0.561309 -0.454942,-1.016251 -1.016252,-1.016251 -0.561309,0 -1.016251,0.454942 -1.016251,1.016251 0,0.56131 0.454942,1.016252 1.016251,1.016252 0.56131,0 1.016252,-0.454942 1.016252,-1.016252"
       style="fill:#000000;fill-opacity:1;fill-rule:evenodd;stroke:none;stroke-width:0.33875"
       id="path1003" />
    <path
       d="m 26.549639,43.940038 c 0,-0.561309 -0.454942,-1.016251 -1.016252,-1.016251 -0.561309,0 -1.016251,0.454942 -1.016251,1.016251 0,0.56131 0.454942,1.016252 1.016251,1.016252 0.56131,0 1.016252,-0.454942 1.016252,-1.016252"
       style="fill:#000000;fill-opacity:1;fill-rule:evenodd;stroke:none;stroke-width:0.33875"
       id="path1009" />
    <path
       d="m 37.389653,43.940038 c 0,-0.561309 -0.454942,-1.016251 -1.016252,-1.016251 -0.561309,0 -1.016251,0.454942 -1.016251,1.016251 0,0.56131 0.454942,1.016252 1.016251,1.016252 0.56131,0 1.016252,-0.454942 1.016252,-1.016252"
       style="fill:#000000;fill-opacity:1;fill-rule:evenodd;stroke:none;stroke-width:0.33875"
       id="path1015" />
    <path
       d="m 48.060292,43.940038 c 0,-0.467814 -0.379062,-0.846876 -0.846876,-0.846876 -0.467815,0 -0.846877,0.379062 -0.846877,0.846876 0,0.467815 0.379062,0.846876 0.846877,0.846876 0.467814,0 0.846876,-0.379061 0.846876,-0.846876"
       style="fill:#00ff00;fill-opacity:1;fill-rule:evenodd;stroke:none;stroke-width:0.33875"
       id="path1021" />
    <path
       d="m 48.229667,43.940038 c 0,-0.561309 -0.454942,-1.016251 -1.016251,-1.016251 -0.56131,0 -1.016252,0.454942 -1.016252,1.016251 0,0.56131 0.454942,1.016252 1.016252,1.016252 0.561309,0 1.016251,-0.454942 1.016251,-1.016252 m -0.338751,0 c 0,-0.374319 -0.303181,-0.6775 -0.6775,-0.6775 -0.37432,0 -0.677501,0.303181 -0.677501,0.6775 0,0.37432 0.303181,0.677501 0.677501,0.677501 0.374319,0 0.6775,-0.303181 0.6775,-0.677501"
       style="fill:#ff0000;fill-opacity:1;fill-rule:evenodd;stroke:none;stroke-width:0.33875"
       id="path1025" />
    <path
       d="m 15.709625,54.780052 c 0,-0.561309 -0.454942,-1.016251 -1.016252,-1.016251 -0.561309,0 -1.016251,0.454942 -1.016251,1.016251 0,0.56131 0.454942,1.016252 1.016251,1.016252 0.56131,0 1.016252,-0.454942 1.016252,-1.016252"
       style="fill:#000000;fill-opacity:1;fill-rule:evenodd;stroke:none;stroke-width:0.33875"
       id="path1031" />
    <path
       d="m 26.549639,54.780052 c 0,-0.561309 -0.454942,-1.016251 -1.016252,-1.016251 -0.561309,0 -1.016251,0.454942 -1.016251,1.016251 0,0.56131 0.454942,1.016252 1.016251,1.016252 0.56131,0 1.016252,-0.454942 1.016252,-1.016252"
       style="fill:#000000;fill-opacity:1;fill-rule:evenodd;stroke:none;stroke-width:0.33875"
       id="path1037" />
    <path
       d="m 37.389653,54.780052 c 0,-0.561309 -0.454942,-1.016251 -1.016252,-1.016251 -0.561309,0 -1.016251,0.454942 -1.016251,1.016251 0,0.56131 0.454942,1.016252 1.016251,1.016252 0.56131,0 1.016252,-0.454942 1.016252,-1.016252"
       style="fill:#000000;fill-opacity:1;fill-rule:evenodd;stroke:none;stroke-width:0.33875"
       id="path1043" />
    <path
       d="m 48.229667,54.780052 c 0,-0.561309 -0.454942,-1.016251 -1.016251,-1.016251 -0.56131,0 -1.016252,0.454942 -1.016252,1.016251 0,0.56131 0.454942,1.016252 1.016252,1.016252 0.561309,0 1.016251,-0.454942 1.016251,-1.016252"
       style="fill:#000000;fill-opacity:1;fill-rule:evenodd;stroke:none;stroke-width:0.33875"
       id="path1049" />
    <path
       d="m 15.709625,5.9999891 c 0,-0.5613095 -0.454942,-1.0162513 -1.016252,-1.0162513 -0.561309,0 -1.016251,0.4549418 -1.016251,1.0162513 0,0.5613095 0.454942,1.0162513 1.016251,1.0162513 0.56131,0 1.016252,-0.4549418 1.016252,-1.0162513"
       style="fill:#000000;fill-opacity:1;fill-rule:evenodd;stroke:none;stroke-width:0.33875"
       id="path1055" />
    <path
       d="m -0.55039648,22.26001 c 0,-0.561309 -0.45497572,-1.016251 -1.01625132,-1.016251 -0.5612756,0 -1.0162513,0.454942 -1.0162513,1.016251 0,0.56131 0.4549757,1.016252 1.0162513,1.016252 0.5612756,0 1.01625132,-0.454942 1.01625132,-1.016252"
       style="fill:#000000;fill-opacity:1;fill-rule:evenodd;stroke:none;stroke-width:0.33875"
       id="path1061" />
    <path
       d="m 6.9031295,13.001961 c 0,-0.56131 -0.4549419,-1.016252 -1.0162514,-1.016252 -0.5613094,0 -1.0162513,0.454942 -1.0162513,1.016252 0,0.561309 0.4549419,1.016251 1.0162513,1.016251 0.5613095,0 1.0162514,-0.454942 1.0162514,-1.016251"
       style="fill:#000000;fill-opacity:1;fill-rule:evenodd;stroke:none;stroke-width:0.33875"
       id="path1067" />
    <path
       d="m 15.709625,22.26001 c 0,-0.561309 -0.454942,-1.016251 -1.016252,-1.016251 -0.561309,0 -1.016251,0.454942 -1.016251,1.016251 0,0.56131 0.454942,1.016252 1.016251,1.016252 0.56131,0 1.016252,-0.454942 1.016252,-1.016252"
       style="fill:#000000;fill-opacity:1;fill-rule:evenodd;stroke:none;stroke-width:0.33875"
       id="path1073" />
    <g
       aria-label="("
       id="text1081"
       style="font-size:4.85978px;font-family:CMSS12;-inkscape-font-specification:CMSS12;fill:#ff0000;stroke-width:0.33875">
      <path
         d="m 70.400264,-0.39654027 q -0.317973,0.54577606 -0.472215,1.07968742 -0.154241,0.53391135 -0.154241,1.08206035 0,0.548149 0.154241,1.0868062 0.156614,0.5362843 0.472215,1.0796874 h -0.37967 Q 69.664653,3.3740604 69.486683,2.8354032 69.311085,2.2967459 69.311085,1.7652075 q 0,-0.5291655 0.175598,-1.06544978 0.175597,-0.53628429 0.533911,-1.09629799 z"
         id="path1695" />
    </g>
    <g
       aria-label="L"
       id="text1085"
       style="font-size:4.85978px;font-family:CMSSI12;-inkscape-font-specification:CMSSI12;fill:#ff0000;stroke-width:0.33875">
      <path
         d="m 71.221002,-0.25179096 h 0.479334 V 2.8876078 h 1.725127 v 0.4033997 h -2.204461 z"
         id="path1692" />
    </g>
    <g
       aria-label="1"
       id="text1089"
       style="font-size:3.37484px;font-family:CMSS10;-inkscape-font-specification:CMSS10;fill:#ff0000;stroke-width:0.33875">
      <path
         d="m 73.733035,3.7398605 h 0.543798 V 1.8629353 L 73.685247,1.981582 V 1.6783737 l 0.58829,-0.1186467 h 0.33287 v 2.1801335 h 0.543797 v 0.2801381 h -1.417169 z"
         id="path1689" />
    </g>
    <g
       aria-label=")"
       id="text1093"
       style="font-size:4.85978px;font-family:CMSS12;-inkscape-font-specification:CMSS12;fill:#ff0000;stroke-width:0.33875">
      <path
         d="m 75.559656,-0.39654027 h 0.37967 q 0.355941,0.5600137 0.531539,1.09629799 0.17797,0.53628428 0.17797,1.06544978 0,0.5315384 -0.17797,1.0701957 -0.175598,0.5386572 -0.531539,1.0962979 h -0.37967 q 0.315601,-0.5434031 0.469842,-1.0796874 0.156614,-0.5386572 0.156614,-1.0868062 0,-0.548149 -0.156614,-1.08206035 -0.154241,-0.53391136 -0.469842,-1.07968742 z"
         id="path1686" />
    </g>
    <g
       aria-label="k"
       id="text1097"
       style="font-size:3.37484px;font-family:CMSSI10;-inkscape-font-specification:CMSSI10;fill:#ff0000;stroke-width:0.33875">
      <path
         d="m 77.327592,1.4559111 h 0.304856 v 1.5143936 l 0.904681,-0.7959218 h 0.38725 l -0.978836,0.8634845 1.020033,0.9821312 h -0.39549 L 77.632448,3.1186131 v 0.9013855 h -0.304856 z"
         id="path1683" />
    </g>
    <g
       aria-label=","
       id="text1101"
       style="font-size:3.37484px;font-family:CMSS10;-inkscape-font-specification:CMSS10;fill:#ff0000;stroke-width:0.33875">
      <path
         d="m 79.34779,3.6014393 h 0.347701 V 3.8848731 L 79.42524,4.4121919 H 79.212665 L 79.34779,3.8848731 Z"
         id="path1680" />
    </g>
    <g
       aria-label="l"
       id="text1105"
       style="font-size:3.37484px;font-family:CMSSI10;-inkscape-font-specification:CMSSI10;fill:#ff0000;stroke-width:0.33875">
      <path
         d="m 80.208,1.4559111 h 0.303209 V 4.0199986 H 80.208 Z"
         id="path1677" />
    </g>
    <g
       aria-label="=2"
       id="text1109"
       style="font-size:4.85978px;font-family:CMSS12;-inkscape-font-specification:CMSS12;fill:#ff0000;stroke-width:0.33875">
      <path
         d="m 83.049512,1.0841739 h 3.042108 v 0.3986538 h -3.042108 z m 0,0.9681593 h 3.042108 v 0.4033997 h -3.042108 z"
         id="path1672" />
      <path
         d="m 88.51938,2.8876078 h 1.672922 V 3.2910075 H 87.942756 V 2.8876078 q 0.272888,-0.2823798 0.74273,-0.7569676 0.472215,-0.4769608 0.593235,-0.6145913 0.230175,-0.2586504 0.320346,-0.4366209 0.09255,-0.18034337 0.09255,-0.35356794 0,-0.28237979 -0.199327,-0.46035024 -0.196954,-0.17797045 -0.514928,-0.17797045 -0.225429,0 -0.47696,0.078307 -0.249159,0.078307 -0.533912,0.23729393 v -0.48407963 q 0.289499,-0.11627403 0.54103,-0.17559751 0.251532,-0.0593235 0.460351,-0.0593235 0.550522,0 0.877987,0.27526097 0.327466,0.27526097 0.327466,0.73561121 0,0.21831042 -0.08305,0.41526435 -0.08068,0.1945811 -0.296618,0.4603503 -0.05932,0.068815 -0.377297,0.3986538 -0.317974,0.3274656 -0.896971,0.9183275 z"
         id="path1674" />
    </g>
    <g
       aria-label="("
       id="text1117"
       style="font-size:4.85978px;font-family:CMSS12;-inkscape-font-specification:CMSS12;fill:#00ff00;stroke-width:0.33875">
      <path
         d="m 70.400264,10.44347 q -0.317973,0.545776 -0.472215,1.079687 -0.154241,0.533912 -0.154241,1.082061 0,0.548149 0.154241,1.086806 0.156614,0.536284 0.472215,1.079687 h -0.37967 q -0.355941,-0.55764 -0.533911,-1.096298 -0.175598,-0.538657 -0.175598,-1.070195 0,-0.529166 0.175598,-1.06545 0.175597,-0.536284 0.533911,-1.096298 z"
         id="path1669" />
    </g>
    <g
       aria-label="L"
       id="text1121"
       style="font-size:4.85978px;font-family:CMSSI12;-inkscape-font-specification:CMSSI12;fill:#00ff00;stroke-width:0.33875">
      <path
         d="m 71.221002,10.588219 h 0.479334 v 3.139399 h 1.725127 v 0.4034 h -2.204461 z"
         id="path1666" />
    </g>
    <g
       aria-label="3"
       id="text1125"
       style="font-size:3.37484px;font-family:CMSS10;-inkscape-font-specification:CMSS10;fill:#00ff00;stroke-width:0.33875">
      <path
         d="m 74.683857,13.533472 q 0.238941,0.05108 0.372419,0.212575 0.135125,0.161492 0.135125,0.398785 0,0.36418 -0.250476,0.563572 -0.250477,0.199393 -0.711881,0.199393 -0.154899,0 -0.319687,-0.03131 -0.163139,-0.02966 -0.337813,-0.09063 v -0.321335 q 0.138421,0.08075 0.303208,0.121943 0.164787,0.0412 0.344405,0.0412 0.313096,0 0.476235,-0.12359 0.164787,-0.12359 0.164787,-0.359236 0,-0.217519 -0.153252,-0.339461 -0.151604,-0.123591 -0.423503,-0.123591 h -0.286729 v -0.273546 h 0.299912 q 0.245533,0 0.375715,-0.09722 0.130182,-0.09887 0.130182,-0.283433 0,-0.189506 -0.135126,-0.290026 -0.133477,-0.102168 -0.383954,-0.102168 -0.136773,0 -0.293321,0.02966 -0.156548,0.02966 -0.344405,0.09228 v -0.296617 q 0.189505,-0.05273 0.354292,-0.0791 0.166435,-0.02637 0.313096,-0.02637 0.37901,0 0.599825,0.173027 0.220815,0.171378 0.220815,0.464699 0,0.204336 -0.116999,0.346053 -0.116999,0.140069 -0.33287,0.194449 z"
         id="path1663" />
    </g>
    <g
       aria-label=")"
       id="text1129"
       style="font-size:4.85978px;font-family:CMSS12;-inkscape-font-specification:CMSS12;fill:#00ff00;stroke-width:0.33875">
      <path
         d="m 75.559656,10.44347 h 0.37967 q 0.355941,0.560014 0.531539,1.096298 0.17797,0.536284 0.17797,1.06545 0,0.531538 -0.17797,1.070195 -0.175598,0.538658 -0.531539,1.096298 h -0.37967 q 0.315601,-0.543403 0.469842,-1.079687 0.156614,-0.538657 0.156614,-1.086806 0,-0.548149 -0.156614,-1.082061 -0.154241,-0.533911 -0.469842,-1.079687 z"
         id="path1660" />
    </g>
    <g
       aria-label="k"
       id="text1133"
       style="font-size:3.37484px;font-family:CMSSI10;-inkscape-font-specification:CMSSI10;fill:#00ff00;stroke-width:0.33875">
      <path
         d="m 77.327592,12.295921 h 0.304856 v 1.514393 l 0.904681,-0.795921 h 0.38725 l -0.978836,0.863484 1.020033,0.982131 h -0.39549 l -0.937638,-0.901385 v 0.901385 h -0.304856 z"
         id="path1657" />
    </g>
    <g
       aria-label=","
       id="text1137"
       style="font-size:3.37484px;font-family:CMSS10;-inkscape-font-specification:CMSS10;fill:#00ff00;stroke-width:0.33875">
      <path
         d="m 79.34779,14.441449 h 0.347701 v 0.283434 l -0.270251,0.527319 h -0.212575 l 0.135125,-0.527319 z"
         id="path1654" />
    </g>
    <g
       aria-label="l"
       id="text1141"
       style="font-size:3.37484px;font-family:CMSSI10;-inkscape-font-specification:CMSSI10;fill:#00ff00;stroke-width:0.33875">
      <path
         d="m 80.208,12.295921 h 0.303209 v 2.564087 H 80.208 Z"
         id="path1651" />
    </g>
    <g
       aria-label="=3"
       id="text1145"
       style="font-size:4.85978px;font-family:CMSS12;-inkscape-font-specification:CMSS12;fill:#00ff00;stroke-width:0.33875">
      <path
         d="m 83.049512,11.924184 h 3.042108 v 0.398654 h -3.042108 z m 0,0.968159 h 3.042108 v 0.4034 h -3.042108 z"
         id="path1646" />
      <path
         d="m 89.558727,12.220801 q 0.344077,0.07356 0.536285,0.30611 0.194581,0.232548 0.194581,0.574251 0,0.52442 -0.360687,0.811545 -0.360687,0.287126 -1.02511,0.287126 -0.223056,0 -0.46035,-0.04509 -0.234921,-0.04271 -0.486453,-0.130512 v -0.462723 q 0.199327,0.116274 0.436621,0.175598 0.237294,0.05932 0.495945,0.05932 0.450858,0 0.685779,-0.17797 0.237294,-0.177971 0.237294,-0.517301 0,-0.313228 -0.220683,-0.488826 -0.218311,-0.17797 -0.609846,-0.17797 h -0.412891 v -0.393908 h 0.431875 q 0.353568,0 0.54103,-0.140003 0.187462,-0.142377 0.187462,-0.408146 0,-0.272888 -0.194581,-0.417637 -0.192208,-0.147122 -0.552895,-0.147122 -0.196954,0 -0.422383,0.04271 -0.225429,0.04271 -0.495944,0.132885 v -0.427129 q 0.272888,-0.07593 0.510182,-0.113901 0.239667,-0.03797 0.450858,-0.03797 0.545776,0 0.86375,0.249158 0.317974,0.246786 0.317974,0.669169 0,0.294245 -0.168479,0.498318 -0.168478,0.201699 -0.479334,0.280006 z"
         id="path1648" />
    </g>
    <g
       aria-label="pro"
       id="text1153"
       style="font-size:4.85978px;font-family:CMSS12;-inkscape-font-specification:CMSS12;stroke-width:0.33875">
      <path
         d="m 69.773808,24.571359 v 1.409526 h -0.438993 v -3.668564 h 0.438993 v 0.403399 q 0.137631,-0.237294 0.34645,-0.351195 0.211191,-0.116274 0.503063,-0.116274 0.484079,0 0.785443,0.384416 0.303736,0.384417 0.303736,1.010873 0,0.626456 -0.303736,1.010872 -0.301364,0.384416 -0.785443,0.384416 -0.291872,0 -0.503063,-0.113901 -0.208819,-0.116274 -0.34645,-0.353568 z m 1.48546,-0.927819 q 0,-0.481707 -0.199326,-0.754595 -0.196954,-0.275261 -0.543404,-0.275261 -0.346449,0 -0.545776,0.275261 -0.196954,0.272888 -0.196954,0.754595 0,0.481706 0.196954,0.756967 0.199327,0.272888 0.545776,0.272888 0.34645,0 0.543404,-0.272888 0.199326,-0.275261 0.199326,-0.756967 z"
         id="path1639" />
      <path
         d="m 73.201315,22.720466 q -0.07356,-0.04271 -0.161359,-0.0617 -0.08543,-0.02136 -0.189836,-0.02136 -0.370178,0 -0.569505,0.24204 -0.196954,0.239667 -0.196954,0.690525 v 1.400035 h -0.438994 v -2.657692 h 0.438994 v 0.412891 q 0.13763,-0.24204 0.358314,-0.358314 0.220683,-0.118647 0.536284,-0.118647 0.04509,0 0.09966,0.0071 0.05458,0.0047 0.121019,0.01661 z"
         id="path1641" />
      <path
         d="m 74.308466,22.61843 q -0.351195,0 -0.555268,0.275261 -0.204073,0.272888 -0.204073,0.749849 0,0.47696 0.2017,0.752221 0.204073,0.272888 0.557641,0.272888 0.348822,0 0.552895,-0.275261 0.204073,-0.275261 0.204073,-0.749848 0,-0.472215 -0.204073,-0.747476 -0.204073,-0.277634 -0.552895,-0.277634 z m 0,-0.370179 q 0.569505,0 0.894598,0.370179 0.325093,0.370178 0.325093,1.02511 0,0.652558 -0.325093,1.025109 -0.325093,0.370179 -0.894598,0.370179 -0.571878,0 -0.896971,-0.370179 -0.32272,-0.372551 -0.32272,-1.025109 0,-0.654932 0.32272,-1.02511 0.325093,-0.370179 0.896971,-0.370179 z"
         id="path1643" />
    </g>
    <g
       aria-label="k"
       id="text1157"
       style="font-size:4.85978px;font-family:CMSSI12;-inkscape-font-specification:CMSSI12;stroke-width:0.33875">
      <path
         d="m 77.22634,21.277719 h 0.438994 v 2.180731 l 1.302743,-1.146129 h 0.557641 l -1.409526,1.24342 1.46885,1.414272 h -0.569506 l -1.350202,-1.297998 v 1.297998 H 77.22634 Z"
         id="path1636" />
    </g>
    <g
       aria-label="=3,"
       id="text1161"
       style="font-size:4.85978px;font-family:CMSS12;-inkscape-font-specification:CMSS12;stroke-width:0.33875">
      <path
         d="m 81.364911,22.763179 h 3.042108 v 0.398654 h -3.042108 z m 0,0.968159 h 3.042108 v 0.4034 h -3.042108 z"
         id="path1629" />
      <path
         d="m 87.874119,23.059796 q 0.344076,0.07356 0.536284,0.30611 0.194581,0.232548 0.194581,0.574251 0,0.52442 -0.360686,0.811545 -0.360687,0.287126 -1.02511,0.287126 -0.223057,0 -0.46035,-0.04509 -0.234921,-0.04271 -0.486453,-0.130512 v -0.462723 q 0.199327,0.116274 0.436621,0.175598 0.237294,0.05932 0.495944,0.05932 0.450859,0 0.68578,-0.17797 0.237294,-0.177971 0.237294,-0.517301 0,-0.313228 -0.220684,-0.488826 -0.21831,-0.17797 -0.609845,-0.17797 h -0.412892 v -0.393908 h 0.431875 q 0.353568,0 0.54103,-0.140003 0.187463,-0.142377 0.187463,-0.408146 0,-0.272888 -0.194581,-0.417637 -0.192208,-0.147122 -0.552895,-0.147122 -0.196954,0 -0.422383,0.04271 -0.22543,0.04271 -0.495945,0.132885 v -0.427129 q 0.272888,-0.07593 0.510182,-0.113901 0.239667,-0.03797 0.450859,-0.03797 0.545776,0 0.86375,0.249158 0.317973,0.246786 0.317973,0.669169 0,0.294245 -0.168478,0.498318 -0.168479,0.201699 -0.479334,0.280006 z"
         id="path1631" />
      <path
         d="m 88.851068,24.367286 h 0.50069 v 0.408146 l -0.389162,0.75934 h -0.306109 l 0.194581,-0.75934 z"
         id="path1633" />
    </g>
    <g
       aria-label="l"
       id="text1165"
       style="font-size:4.85978px;font-family:CMSSI12;-inkscape-font-specification:CMSSI12;stroke-width:0.33875">
      <path
         d="m 91.645943,21.277719 h 0.436621 v 3.692294 h -0.436621 z"
         id="path1626" />
    </g>
    <g
       aria-label="=4"
       id="text1169"
       style="font-size:4.85978px;font-family:CMSS12;-inkscape-font-specification:CMSS12;stroke-width:0.33875">
      <path
         d="m 94.647649,22.763179 h 3.042108 v 0.398654 h -3.042108 z m 0,0.968159 h 3.042108 v 0.4034 h -3.042108 z"
         id="path1621" />
      <path
         d="m 101.02161,21.844852 -1.210202,1.891232 h 1.210202 z m -0.12577,-0.417638 h 0.60273 v 2.30887 h 0.50543 v 0.398654 h -0.50543 v 0.835275 h -0.47696 v -0.835275 h -1.599364 v -0.462723 z"
         id="path1623" />
    </g>
    <g
       aria-label="1"
       id="text1177"
       style="font-size:4.85978px;font-family:CMSS12;-inkscape-font-specification:CMSS12;stroke-width:0.33875">
      <path
         d="m 74.91618,43.536637 h 0.78307 v -2.702778 l -0.851885,0.170852 V 40.56809 l 0.847139,-0.170852 h 0.479334 v 3.139399 h 0.78307 v 0.4034 H 74.91618 Z"
         id="path1618" />
    </g>
    <g
       aria-label="2"
       id="text1185"
       style="font-size:4.85978px;font-family:CMSS12;-inkscape-font-specification:CMSS12;fill:#ff0000;stroke-width:0.33875">
      <path
         d="m 80.666025,43.536637 h 1.672922 v 0.4034 H 80.0894 v -0.4034 q 0.272888,-0.28238 0.74273,-0.756968 0.472215,-0.47696 0.593235,-0.614591 0.230175,-0.25865 0.320347,-0.436621 0.09255,-0.180343 0.09255,-0.353568 0,-0.282379 -0.199327,-0.46035 -0.196954,-0.17797 -0.514928,-0.17797 -0.225429,0 -0.476961,0.07831 -0.249159,0.07831 -0.533911,0.237294 v -0.48408 q 0.289498,-0.116274 0.54103,-0.175598 0.251532,-0.05932 0.46035,-0.05932 0.550522,0 0.877988,0.275261 0.327465,0.275261 0.327465,0.735611 0,0.218311 -0.08305,0.415264 -0.08068,0.194582 -0.296618,0.460351 -0.05932,0.06882 -0.377297,0.398654 -0.317974,0.327465 -0.896971,0.918327 z"
         id="path1615" />
    </g>
    <g
       aria-label="3"
       id="text1193"
       style="font-size:4.85978px;font-family:CMSS12;-inkscape-font-specification:CMSS12;stroke-width:0.33875">
      <path
         d="m 87.125378,42.029821 q 0.344076,0.07356 0.536284,0.306109 0.194581,0.232548 0.194581,0.574251 0,0.52442 -0.360687,0.811545 -0.360686,0.287126 -1.025109,0.287126 -0.223057,0 -0.460351,-0.04509 -0.234921,-0.04271 -0.486452,-0.130511 v -0.462724 q 0.199327,0.116274 0.436621,0.175598 0.237294,0.05932 0.495944,0.05932 0.450858,0 0.685779,-0.17797 0.237294,-0.177971 0.237294,-0.517301 0,-0.313228 -0.220683,-0.488825 -0.21831,-0.177971 -0.609845,-0.177971 h -0.412892 v -0.393908 h 0.431875 q 0.353568,0 0.54103,-0.140003 0.187463,-0.142377 0.187463,-0.408146 0,-0.272888 -0.194582,-0.417637 -0.192208,-0.147122 -0.552894,-0.147122 -0.196954,0 -0.422384,0.04271 -0.225429,0.04271 -0.495944,0.132884 v -0.427129 q 0.272888,-0.07593 0.510182,-0.113901 0.239667,-0.03797 0.450859,-0.03797 0.545776,0 0.863749,0.249159 0.317974,0.246785 0.317974,0.669168 0,0.294245 -0.168478,0.498318 -0.168479,0.2017 -0.479334,0.280007 z"
         id="path1612" />
    </g>
    <g
       aria-label="4"
       id="text1201"
       style="font-size:4.85978px;font-family:CMSS12;-inkscape-font-specification:CMSS12;stroke-width:0.33875">
      <path
         d="m 92.410119,40.814876 -1.2102,1.891232 h 1.2102 z m -0.125766,-0.417638 h 0.602726 v 2.30887 h 0.505436 v 0.398654 h -0.505436 v 0.835275 h -0.47696 v -0.835275 h -1.599362 v -0.462723 z"
         id="path1609" />
    </g>
    <g
       aria-label="1"
       id="text1209"
       style="font-size:4.85978px;font-family:CMSS12;-inkscape-font-specification:CMSS12;stroke-width:0.33875">
      <path
         d="m 80.336186,48.956647 h 0.78307 V 46.253869 L 80.267371,46.42472 V 45.9881 l 0.847139,-0.170852 h 0.479334 v 3.139399 h 0.78307 v 0.403399 h -2.040728 z"
         id="path1606" />
    </g>
    <g
       aria-label="2"
       id="text1217"
       style="font-size:4.85978px;font-family:CMSS12;-inkscape-font-specification:CMSS12;fill:#ff0000;stroke-width:0.33875">
      <path
         d="m 75.246019,48.956647 h 1.672922 v 0.403399 h -2.249546 v -0.403399 q 0.272888,-0.28238 0.74273,-0.756968 0.472215,-0.476961 0.593234,-0.614591 0.230176,-0.258651 0.320347,-0.436621 0.09255,-0.180344 0.09255,-0.353568 0,-0.28238 -0.199327,-0.46035 -0.196954,-0.177971 -0.514928,-0.177971 -0.225429,0 -0.476961,0.07831 -0.249158,0.07831 -0.533911,0.237294 V 45.9881 q 0.289499,-0.116274 0.54103,-0.175598 0.251532,-0.05932 0.46035,-0.05932 0.550522,0 0.877988,0.275261 0.327466,0.27526 0.327466,0.735611 0,0.21831 -0.08305,0.415264 -0.08068,0.194581 -0.296618,0.46035 -0.05932,0.06882 -0.377297,0.398654 -0.317974,0.327466 -0.896971,0.918328 z"
         id="path1603" />
    </g>
    <g
       aria-label="3"
       id="text1225"
       style="font-size:4.85978px;font-family:CMSS12;-inkscape-font-specification:CMSS12;stroke-width:0.33875">
      <path
         d="m 92.545376,47.44983 q 0.344076,0.07356 0.536284,0.306109 0.194581,0.232548 0.194581,0.574252 0,0.524419 -0.360686,0.811545 -0.360687,0.287126 -1.02511,0.287126 -0.223057,0 -0.46035,-0.04509 -0.234921,-0.04271 -0.486453,-0.130512 v -0.462723 q 0.199327,0.116274 0.436621,0.175597 0.237294,0.05932 0.495944,0.05932 0.450859,0 0.68578,-0.177971 0.237294,-0.17797 0.237294,-0.5173 0,-0.313228 -0.220684,-0.488826 -0.21831,-0.17797 -0.609845,-0.17797 H 91.55586 v -0.393908 h 0.431875 q 0.353568,0 0.54103,-0.140004 0.187463,-0.142376 0.187463,-0.408145 0,-0.272888 -0.194581,-0.417638 -0.192208,-0.147122 -0.552895,-0.147122 -0.196954,0 -0.422383,0.04271 -0.22543,0.04271 -0.495945,0.132885 v -0.427129 q 0.272888,-0.07593 0.510182,-0.113901 0.239667,-0.03797 0.450859,-0.03797 0.545776,0 0.86375,0.249158 0.317974,0.246786 0.317974,0.669169 0,0.294245 -0.168479,0.498317 -0.168479,0.2017 -0.479334,0.280007 z"
         id="path1600" />
    </g>
    <g
       aria-label="4"
       id="text1233"
       style="font-size:4.85978px;font-family:CMSS12;-inkscape-font-specification:CMSS12;stroke-width:0.33875">
      <path
         d="m 86.99012,46.234885 -1.210199,1.891233 h 1.210199 z m -0.125765,-0.417637 h 0.602726 v 2.30887 h 0.505436 v 0.398654 h -0.505436 v 0.835274 H 86.99012 v -0.835274 h -1.599361 v -0.462723 z"
         id="path1597" />
    </g>
    <g
       aria-label="1"
       id="text1241"
       style="font-size:4.85978px;font-family:CMSS12;-inkscape-font-specification:CMSS12;stroke-width:0.33875">
      <path
         d="m 85.756192,54.37666 h 0.78307 v -2.702778 l -0.851885,0.170852 v -0.436621 l 0.847139,-0.170852 h 0.479334 v 3.139399 h 0.78307 v 0.4034 h -2.040728 z"
         id="path1594" />
    </g>
    <g
       aria-label="2"
       id="text1249"
       style="font-size:4.85978px;font-family:CMSSBX10;-inkscape-font-specification:CMSSBX10;fill:#ff0000;stroke-width:0.33875">
      <path
         d="m 91.506029,54.376652 h 1.672922 v 0.4034 h -2.249547 v -0.4034 q 0.272888,-0.282379 0.74273,-0.756967 0.472215,-0.476961 0.593235,-0.614591 0.230175,-0.258651 0.320347,-0.436621 0.09255,-0.180344 0.09255,-0.353568 0,-0.28238 -0.199327,-0.460351 -0.196954,-0.17797 -0.514928,-0.17797 -0.225429,0 -0.476961,0.07831 -0.249159,0.07831 -0.533911,0.237294 v -0.48408 q 0.289498,-0.116274 0.54103,-0.175597 0.251531,-0.05932 0.46035,-0.05932 0.550522,0 0.877988,0.275261 0.327465,0.275261 0.327465,0.735612 0,0.21831 -0.08305,0.415264 -0.08068,0.194581 -0.296617,0.46035 -0.05932,0.06882 -0.377297,0.398654 -0.317974,0.327466 -0.896971,0.918327 z"
         id="path1591" />
    </g>
    <g
       aria-label="3"
       id="text1257"
       style="font-size:4.85978px;font-family:CMSS12;-inkscape-font-specification:CMSS12;stroke-width:0.33875">
      <path
         d="m 76.285366,52.869844 q 0.344077,0.07356 0.536285,0.306109 0.194581,0.232548 0.194581,0.574251 0,0.52442 -0.360687,0.811545 -0.360687,0.287126 -1.02511,0.287126 -0.223056,0 -0.46035,-0.04509 -0.234921,-0.04271 -0.486453,-0.130511 v -0.462724 q 0.199327,0.116274 0.436621,0.175598 0.237294,0.05932 0.495944,0.05932 0.450859,0 0.68578,-0.17797 0.237294,-0.177971 0.237294,-0.517301 0,-0.313228 -0.220684,-0.488825 -0.21831,-0.177971 -0.609845,-0.177971 H 75.295851 V 52.6895 h 0.431875 q 0.353568,0 0.54103,-0.140003 0.187462,-0.142377 0.187462,-0.408146 0,-0.272888 -0.194581,-0.417637 -0.192208,-0.147122 -0.552895,-0.147122 -0.196954,0 -0.422383,0.04271 -0.225429,0.04271 -0.495945,0.132884 V 51.32506 q 0.272889,-0.07593 0.510182,-0.113901 0.239667,-0.03797 0.450859,-0.03797 0.545776,0 0.86375,0.249159 0.317974,0.246785 0.317974,0.669169 0,0.294244 -0.168479,0.498317 -0.168479,0.2017 -0.479334,0.280007 z"
         id="path1588" />
    </g>
    <g
       aria-label="4"
       id="text1265"
       style="font-size:4.85978px;font-family:CMSS12;-inkscape-font-specification:CMSS12;stroke-width:0.33875">
      <path
         d="m 81.570115,51.654899 -1.2102,1.891232 h 1.2102 z m -0.125766,-0.417638 h 0.602726 v 2.30887 h 0.505436 v 0.398654 h -0.505436 v 0.835275 h -0.47696 v -0.835275 h -1.599362 v -0.462723 z"
         id="path1585" />
    </g>
    <g
       aria-label="3"
       id="text1273"
       style="font-size:4.85978px;font-family:CMSS12;-inkscape-font-specification:CMSS12;stroke-width:0.33875">
      <path
         d="m 81.705372,58.289842 q 0.344076,0.07356 0.536284,0.306109 0.194581,0.232548 0.194581,0.574251 0,0.52442 -0.360686,0.811546 -0.360687,0.287125 -1.02511,0.287125 -0.223056,0 -0.46035,-0.04509 -0.234921,-0.04271 -0.486453,-0.130511 v -0.462723 q 0.199327,0.116274 0.436621,0.175597 0.237294,0.05932 0.495944,0.05932 0.450859,0 0.68578,-0.177971 0.237294,-0.17797 0.237294,-0.517301 0,-0.313228 -0.220684,-0.488825 -0.21831,-0.177971 -0.609845,-0.177971 h -0.412892 v -0.393908 h 0.431875 q 0.353568,0 0.541031,-0.140003 0.187462,-0.142376 0.187462,-0.408146 0,-0.272888 -0.194581,-0.417637 -0.192208,-0.147122 -0.552895,-0.147122 -0.196954,0 -0.422383,0.04271 -0.22543,0.04271 -0.495945,0.132884 v -0.427129 q 0.272888,-0.07593 0.510182,-0.113901 0.239667,-0.03797 0.450859,-0.03797 0.545776,0 0.86375,0.249159 0.317974,0.246785 0.317974,0.669169 0,0.294244 -0.168479,0.498317 -0.168479,0.2017 -0.479334,0.280007 z"
         id="path1582" />
    </g>
    <g
       aria-label="4"
       id="text1281"
       style="font-size:4.85978px;font-family:CMSS12;-inkscape-font-specification:CMSS12;stroke-width:0.33875">
      <path
         d="M 76.150109,57.074897 74.93991,58.96613 h 1.210199 z M 76.024343,56.65726 h 0.602727 v 2.30887 h 0.505436 v 0.398653 H 76.62707 v 0.835275 H 76.150109 V 59.364783 H 74.550748 V 58.90206 Z"
         id="path1579" />
    </g>
    <g
       aria-label="1"
       id="text1289"
       style="font-size:4.85978px;font-family:CMSS12;-inkscape-font-specification:CMSS12;stroke-width:0.33875">
      <path
         d="m 91.17619,59.796658 h 0.78307 V 57.09388 l -0.851885,0.170852 v -0.436621 l 0.847139,-0.170851 h 0.479334 v 3.139398 h 0.78307 v 0.4034 H 91.17619 Z"
         id="path1576" />
    </g>
    <g
       aria-label="2"
       id="text1297"
       style="font-size:4.85978px;font-family:CMSS12;-inkscape-font-specification:CMSS12;fill:#ff0000;stroke-width:0.33875">
      <path
         d="m 86.08603,59.796658 h 1.672923 v 0.4034 h -2.249547 v -0.4034 q 0.272888,-0.282379 0.74273,-0.756967 0.472215,-0.476961 0.593235,-0.614592 0.230175,-0.25865 0.320347,-0.436621 0.09254,-0.180343 0.09254,-0.353567 0,-0.28238 -0.199326,-0.460351 -0.196954,-0.17797 -0.514928,-0.17797 -0.225429,0 -0.476961,0.07831 -0.249159,0.07831 -0.533911,0.237294 v -0.48408 q 0.289498,-0.116274 0.54103,-0.175597 0.251531,-0.05932 0.46035,-0.05932 0.550522,0 0.877988,0.275261 0.327465,0.275261 0.327465,0.735611 0,0.218311 -0.08305,0.415265 -0.08068,0.194581 -0.296617,0.46035 -0.05932,0.06882 -0.377297,0.398654 -0.317974,0.327465 -0.896972,0.918327 z"
         id="path1573" />
    </g>
    <g
       aria-label="L"
       id="text1305"
       style="font-size:4.85978px;font-family:CMSSI12;-inkscape-font-specification:CMSSI12;stroke-width:0.33875">
      <path
         d="m 69.370409,32.266554 h 0.479333 v 3.139399 h 1.725127 v 0.4034 h -2.20446 z"
         id="path1570" />
    </g>
    <g
       aria-label="1"
       id="text1309"
       style="font-size:3.37484px;font-family:CMSS10;-inkscape-font-specification:CMSS10;stroke-width:0.33875">
      <path
         d="m 71.882442,36.258203 h 0.543797 v -1.876925 l -0.591586,0.118647 v -0.303208 l 0.58829,-0.118647 h 0.33287 v 2.180133 h 0.543798 v 0.280139 h -1.417169 z"
         id="path1567" />
    </g>
    <g
       aria-label="1"
       id="text1317"
       style="font-size:4.85978px;font-family:CMSS12;-inkscape-font-specification:CMSS12;stroke-width:0.33875">
      <path
         d="m 107.43622,43.536637 h 0.78307 v -2.702778 l -0.85189,0.170852 V 40.56809 l 0.84714,-0.170852 h 0.47933 v 3.139399 h 0.78307 v 0.4034 h -2.04072 z"
         id="path1564" />
    </g>
    <g
       aria-label="2"
       id="text1325"
       style="font-size:4.85978px;font-family:CMSS12;-inkscape-font-specification:CMSS12;stroke-width:0.33875">
      <path
         d="m 113.18607,43.536637 h 1.67292 v 0.4034 h -2.24955 v -0.4034 q 0.27289,-0.28238 0.74273,-0.756968 0.47222,-0.47696 0.59324,-0.614591 0.23017,-0.25865 0.32034,-0.436621 0.0926,-0.180343 0.0926,-0.353568 0,-0.282379 -0.19933,-0.46035 -0.19695,-0.17797 -0.51493,-0.17797 -0.22542,0 -0.47696,0.07831 -0.24916,0.07831 -0.53391,0.237294 v -0.48408 q 0.2895,-0.116274 0.54103,-0.175598 0.25153,-0.05932 0.46035,-0.05932 0.55052,0 0.87799,0.275261 0.32747,0.275261 0.32747,0.735611 0,0.218311 -0.0831,0.415264 -0.0807,0.194582 -0.29661,0.460351 -0.0593,0.06882 -0.3773,0.398654 -0.31798,0.327465 -0.89697,0.918327 z"
         id="path1561" />
    </g>
    <g
       aria-label="3"
       id="text1333"
       style="font-size:4.85978px;font-family:CMSS12;-inkscape-font-specification:CMSS12;fill:#00ff00;stroke-width:0.33875">
      <path
         d="m 119.64542,42.029821 q 0.34408,0.07356 0.53628,0.306109 0.19459,0.232548 0.19459,0.574251 0,0.52442 -0.36069,0.811545 -0.36069,0.287126 -1.02511,0.287126 -0.22306,0 -0.46035,-0.04509 -0.23492,-0.04271 -0.48645,-0.130511 v -0.462724 q 0.19932,0.116274 0.43662,0.175598 0.23729,0.05932 0.49594,0.05932 0.45086,0 0.68578,-0.17797 0.23729,-0.177971 0.23729,-0.517301 0,-0.313228 -0.22068,-0.488825 -0.21831,-0.177971 -0.60984,-0.177971 h -0.4129 v -0.393908 h 0.43188 q 0.35357,0 0.54103,-0.140003 0.18746,-0.142377 0.18746,-0.408146 0,-0.272888 -0.19458,-0.417637 -0.19221,-0.147122 -0.55289,-0.147122 -0.19696,0 -0.42239,0.04271 -0.22543,0.04271 -0.49594,0.132884 v -0.427129 q 0.27289,-0.07593 0.51018,-0.113901 0.23967,-0.03797 0.45086,-0.03797 0.54578,0 0.86375,0.249159 0.31797,0.246785 0.31797,0.669168 0,0.294245 -0.16848,0.498318 -0.16847,0.2017 -0.47933,0.280007 z"
         id="path1558" />
    </g>
    <g
       aria-label="4"
       id="text1341"
       style="font-size:4.85978px;font-family:CMSS12;-inkscape-font-specification:CMSS12;stroke-width:0.33875">
      <path
         d="m 124.93017,40.814876 -1.2102,1.891232 h 1.2102 z m -0.12577,-0.417638 h 0.60273 v 2.30887 h 0.50544 v 0.398654 h -0.50544 v 0.835275 h -0.47696 v -0.835275 h -1.59936 v -0.462723 z"
         id="path1555" />
    </g>
    <g
       aria-label="1"
       id="text1349"
       style="font-size:4.85978px;font-family:CMSS12;-inkscape-font-specification:CMSS12;stroke-width:0.33875">
      <path
         d="m 112.85623,54.37666 h 0.78307 v -2.702778 l -0.85189,0.170852 v -0.436621 l 0.84714,-0.170852 h 0.47934 v 3.139399 h 0.78307 v 0.4034 h -2.04073 z"
         id="path1552" />
    </g>
    <g
       aria-label="2"
       id="text1357"
       style="font-size:4.85978px;font-family:CMSS12;-inkscape-font-specification:CMSS12;stroke-width:0.33875">
      <path
         d="m 107.76605,54.37666 h 1.67293 v 0.4034 h -2.24955 v -0.4034 q 0.27289,-0.28238 0.74273,-0.756968 0.47221,-0.47696 0.59323,-0.614591 0.23018,-0.25865 0.32035,-0.436621 0.0925,-0.180343 0.0925,-0.353568 0,-0.282379 -0.19933,-0.46035 -0.19696,-0.17797 -0.51493,-0.17797 -0.22543,0 -0.47696,0.07831 -0.24916,0.07831 -0.53391,0.237294 v -0.48408 q 0.2895,-0.116274 0.54103,-0.175598 0.25153,-0.05932 0.46035,-0.05932 0.55052,0 0.87799,0.275261 0.32746,0.275261 0.32746,0.735611 0,0.218311 -0.0831,0.415265 -0.0807,0.194581 -0.29662,0.46035 -0.0593,0.06882 -0.3773,0.398654 -0.31797,0.327465 -0.89697,0.918327 z"
         id="path1549" />
    </g>
    <g
       aria-label="3"
       id="text1365"
       style="font-size:4.85978px;font-family:CMSSBX10;-inkscape-font-specification:CMSSBX10;fill:#00ff00;stroke-width:0.33875">
      <path
         d="m 125.06543,52.869836 q 0.34407,0.07356 0.53628,0.306109 0.19458,0.232548 0.19458,0.574251 0,0.52442 -0.36069,0.811546 -0.36068,0.287125 -1.02511,0.287125 -0.22305,0 -0.46035,-0.04509 -0.23492,-0.04271 -0.48645,-0.130512 v -0.462723 q 0.19933,0.116274 0.43662,0.175597 0.2373,0.05932 0.49595,0.05932 0.45086,0 0.68578,-0.177971 0.23729,-0.17797 0.23729,-0.517301 0,-0.313227 -0.22068,-0.488825 -0.21831,-0.17797 -0.60985,-0.17797 h -0.41289 v -0.393908 h 0.43188 q 0.35356,0 0.54103,-0.140004 0.18746,-0.142376 0.18746,-0.408145 0,-0.272888 -0.19458,-0.417638 -0.19221,-0.147122 -0.5529,-0.147122 -0.19695,0 -0.42238,0.04271 -0.22543,0.04271 -0.49595,0.132885 v -0.42713 q 0.27289,-0.07593 0.51019,-0.113901 0.23966,-0.03797 0.45085,-0.03797 0.54578,0 0.86375,0.249159 0.31798,0.246786 0.31798,0.669169 0,0.294244 -0.16848,0.498317 -0.16848,0.2017 -0.47933,0.280007 z"
         id="path1546" />
    </g>
    <g
       aria-label="4"
       id="text1373"
       style="font-size:4.85978px;font-family:CMSS12;-inkscape-font-specification:CMSS12;stroke-width:0.33875">
      <path
         d="m 119.51016,51.654899 -1.2102,1.891232 h 1.2102 z m -0.12576,-0.417638 h 0.60272 v 2.30887 h 0.50544 v 0.398654 h -0.50544 v 0.835275 h -0.47696 v -0.835275 h -1.59936 v -0.462723 z"
         id="path1543" />
    </g>
    <g
       aria-label="1"
       id="text1381"
       style="font-size:4.85978px;font-family:CMSS12;-inkscape-font-specification:CMSS12;stroke-width:0.33875">
      <path
         d="m 118.27623,59.796658 h 0.78307 V 57.09388 l -0.85188,0.170852 v -0.436621 l 0.84714,-0.170851 h 0.47933 v 3.139398 h 0.78307 v 0.4034 h -2.04073 z"
         id="path1540" />
    </g>
    <g
       aria-label="2"
       id="text1389"
       style="font-size:4.85978px;font-family:CMSS12;-inkscape-font-specification:CMSS12;stroke-width:0.33875">
      <path
         d="m 124.02608,59.796658 h 1.67292 v 0.4034 h -2.24955 v -0.4034 q 0.27289,-0.282379 0.74273,-0.756967 0.47222,-0.476961 0.59324,-0.614592 0.23017,-0.25865 0.32035,-0.436621 0.0925,-0.180343 0.0925,-0.353567 0,-0.28238 -0.19933,-0.460351 -0.19695,-0.17797 -0.51492,-0.17797 -0.22543,0 -0.47696,0.07831 -0.24916,0.07831 -0.53392,0.237294 v -0.48408 q 0.2895,-0.116274 0.54103,-0.175597 0.25154,-0.05932 0.46035,-0.05932 0.55053,0 0.87799,0.275261 0.32747,0.275261 0.32747,0.735611 0,0.218311 -0.0831,0.415265 -0.0807,0.194581 -0.29661,0.46035 -0.0593,0.06882 -0.3773,0.398654 -0.31797,0.327465 -0.89697,0.918327 z"
         id="path1537" />
    </g>
    <g
       aria-label="3"
       id="text1397"
       style="font-size:4.85978px;font-family:CMSS12;-inkscape-font-specification:CMSS12;fill:#00ff00;stroke-width:0.33875">
      <path
         d="m 108.8054,58.289842 q 0.34408,0.07356 0.53629,0.306109 0.19458,0.232548 0.19458,0.574251 0,0.52442 -0.36069,0.811546 -0.36069,0.287125 -1.02511,0.287125 -0.22306,0 -0.46035,-0.04509 -0.23492,-0.04271 -0.48645,-0.130511 v -0.462723 q 0.19932,0.116274 0.43662,0.175597 0.23729,0.05932 0.49594,0.05932 0.45086,0 0.68578,-0.177971 0.2373,-0.17797 0.2373,-0.517301 0,-0.313228 -0.22069,-0.488825 -0.21831,-0.177971 -0.60984,-0.177971 h -0.41289 v -0.393908 h 0.43187 q 0.35357,0 0.54103,-0.140003 0.18746,-0.142376 0.18746,-0.408146 0,-0.272888 -0.19458,-0.417637 -0.19221,-0.147122 -0.55289,-0.147122 -0.19696,0 -0.42239,0.04271 -0.22543,0.04271 -0.49594,0.132884 v -0.427129 q 0.27289,-0.07593 0.51018,-0.113901 0.23967,-0.03797 0.45086,-0.03797 0.54578,0 0.86375,0.249159 0.31797,0.246785 0.31797,0.669169 0,0.294244 -0.16848,0.498317 -0.16847,0.2017 -0.47933,0.280007 z"
         id="path1534" />
    </g>
    <g
       aria-label="4"
       id="text1405"
       style="font-size:4.85978px;font-family:CMSS12;-inkscape-font-specification:CMSS12;stroke-width:0.33875">
      <path
         d="m 114.09016,57.074897 -1.2102,1.891233 h 1.2102 z m -0.12577,-0.417637 h 0.60273 v 2.30887 h 0.50543 v 0.398653 h -0.50543 v 0.835275 h -0.47696 V 59.364783 H 112.4908 V 58.90206 Z"
         id="path1531" />
    </g>
    <g
       aria-label="3"
       id="text1413"
       style="font-size:4.85978px;font-family:CMSS12;-inkscape-font-specification:CMSS12;fill:#00ff00;stroke-width:0.33875">
      <path
         d="m 114.22541,47.44983 q 0.34408,0.07356 0.53629,0.306109 0.19458,0.232548 0.19458,0.574252 0,0.524419 -0.36069,0.811545 -0.36068,0.287126 -1.02511,0.287126 -0.22305,0 -0.46035,-0.04509 -0.23492,-0.04271 -0.48645,-0.130512 v -0.462723 q 0.19933,0.116274 0.43662,0.175597 0.2373,0.05932 0.49595,0.05932 0.45085,0 0.68578,-0.177971 0.23729,-0.17797 0.23729,-0.5173 0,-0.313228 -0.22068,-0.488826 -0.21831,-0.17797 -0.60985,-0.17797 h -0.41289 v -0.393908 h 0.43187 q 0.35357,0 0.54103,-0.140004 0.18747,-0.142376 0.18747,-0.408145 0,-0.272888 -0.19458,-0.417638 -0.19221,-0.147122 -0.5529,-0.147122 -0.19695,0 -0.42238,0.04271 -0.22543,0.04271 -0.49595,0.132885 v -0.427129 q 0.27289,-0.07593 0.51018,-0.113901 0.23967,-0.03797 0.45086,-0.03797 0.54578,0 0.86375,0.249158 0.31798,0.246786 0.31798,0.669169 0,0.294245 -0.16848,0.498317 -0.16848,0.2017 -0.47934,0.280007 z"
         id="path1528" />
    </g>
    <g
       aria-label="4"
       id="text1421"
       style="font-size:4.85978px;font-family:CMSS12;-inkscape-font-specification:CMSS12;stroke-width:0.33875">
      <path
         d="m 108.67014,46.234885 -1.2102,1.891233 h 1.2102 z m -0.12576,-0.417637 h 0.60272 v 2.30887 h 0.50544 v 0.398654 h -0.50544 v 0.835274 h -0.47696 v -0.835274 h -1.59936 v -0.462723 z"
         id="path1525" />
    </g>
    <g
       aria-label="1"
       id="text1429"
       style="font-size:4.85978px;font-family:CMSS12;-inkscape-font-specification:CMSS12;stroke-width:0.33875">
      <path
         d="m 123.69624,48.956647 h 0.78307 v -2.702778 l -0.85189,0.170851 V 45.9881 l 0.84714,-0.170852 h 0.47934 v 3.139399 h 0.78307 v 0.403399 h -2.04073 z"
         id="path1522" />
    </g>
    <g
       aria-label="2"
       id="text1437"
       style="font-size:4.85978px;font-family:CMSS12;-inkscape-font-specification:CMSS12;stroke-width:0.33875">
      <path
         d="m 118.60607,48.956647 h 1.67293 v 0.403399 h -2.24955 v -0.403399 q 0.27289,-0.28238 0.74273,-0.756968 0.47221,-0.476961 0.59323,-0.614591 0.23018,-0.258651 0.32035,-0.436621 0.0925,-0.180344 0.0925,-0.353568 0,-0.28238 -0.19932,-0.46035 -0.19696,-0.177971 -0.51493,-0.177971 -0.22543,0 -0.47696,0.07831 -0.24916,0.07831 -0.53391,0.237294 V 45.9881 q 0.2895,-0.116274 0.54103,-0.175598 0.25153,-0.05932 0.46035,-0.05932 0.55052,0 0.87799,0.275261 0.32746,0.27526 0.32746,0.735611 0,0.21831 -0.0831,0.415264 -0.0807,0.194581 -0.29662,0.46035 -0.0593,0.06882 -0.3773,0.398654 -0.31797,0.327466 -0.89697,0.918328 z"
         id="path1519" />
    </g>
    <g
       aria-label="L"
       id="text1445"
       style="font-size:4.85978px;font-family:CMSSI12;-inkscape-font-specification:CMSSI12;stroke-width:0.33875">
      <path
         d="m 101.89044,32.266554 h 0.47934 v 3.139399 h 1.72512 v 0.4034 h -2.20446 z"
         id="path1516" />
    </g>
    <g
       aria-label="3"
       id="text1449"
       style="font-size:3.37484px;font-family:CMSS10;-inkscape-font-specification:CMSS10;stroke-width:0.33875">
      <path
         d="m 105.3533,35.211805 q 0.23894,0.05108 0.37242,0.212576 0.13512,0.161491 0.13512,0.398784 0,0.36418 -0.25047,0.563572 -0.25048,0.199393 -0.71188,0.199393 -0.1549,0 -0.31969,-0.03131 -0.16314,-0.02966 -0.33781,-0.09063 v -0.321335 q 0.13842,0.08075 0.3032,0.121943 0.16479,0.0412 0.34441,0.0412 0.31309,0 0.47623,-0.123591 0.16479,-0.12359 0.16479,-0.359236 0,-0.217519 -0.15325,-0.339461 -0.15161,-0.12359 -0.4235,-0.12359 h -0.28673 v -0.273547 h 0.29991 q 0.24553,0 0.37571,-0.09722 0.13018,-0.09887 0.13018,-0.283434 0,-0.189505 -0.13512,-0.290025 -0.13348,-0.102168 -0.38395,-0.102168 -0.13678,0 -0.29333,0.02966 -0.15654,0.02966 -0.3444,0.09228 v -0.296617 q 0.1895,-0.05273 0.35429,-0.0791 0.16644,-0.02637 0.3131,-0.02637 0.37901,0 0.59982,0.173027 0.22082,0.171379 0.22082,0.4647 0,0.204336 -0.117,0.346052 -0.117,0.14007 -0.33287,0.194449 z"
         id="path1513" />
    </g>
    <g
       aria-label="l"
       id="text1457"
       style="font-size:4.85978px;font-family:CMSSI12;-inkscape-font-specification:CMSSI12;stroke-width:0.33875">
      <path
         d="m -6.5286784,18.567039 h 0.4366208 v 3.692294 h -0.4366208 z"
         id="path1510" />
    </g>
    <g
       aria-label="1"
       id="text1461"
       style="font-size:3.37484px;font-family:CMSS10;-inkscape-font-specification:CMSS10;stroke-width:0.33875">
      <path
         d="m -5.4488652,22.708185 h 0.5437974 V 20.83126 l -0.5915857,0.118647 v -0.303209 l 0.58829,-0.118646 h 0.33287 v 2.180133 h 0.5437974 v 0.280138 h -1.4171691 z"
         id="path1507" />
    </g>
    <g
       aria-label="l"
       id="text1469"
       style="font-size:4.85978px;font-family:CMSSI12;-inkscape-font-specification:CMSSI12;stroke-width:0.33875">
      <path
         d="m 12.441346,-0.40298154 h 0.436621 V 3.2893121 h -0.436621 z"
         id="path1504" />
    </g>
    <g
       aria-label="3"
       id="text1473"
       style="font-size:3.37484px;font-family:CMSS10;-inkscape-font-specification:CMSS10;stroke-width:0.33875">
      <path
         d="m 14.471981,2.6917667 q 0.238941,0.051084 0.372419,0.2125754 0.135125,0.1614913 0.135125,0.3987848 0,0.3641795 -0.250476,0.5635719 -0.250477,0.1993924 -0.71188,0.1993924 -0.1549,0 -0.319687,-0.03131 -0.16314,-0.029662 -0.337814,-0.090633 V 3.6228139 q 0.138421,0.080746 0.303208,0.1219424 0.164787,0.041197 0.344405,0.041197 0.313096,0 0.476235,-0.1235903 0.164787,-0.1235904 0.164787,-0.3592359 0,-0.217519 -0.153252,-0.3394615 Q 14.343447,2.8400751 14.071548,2.8400751 H 13.784819 V 2.5665285 h 0.299912 q 0.245533,0 0.375715,-0.097224 0.130182,-0.098872 0.130182,-0.2834339 0,-0.1895051 -0.135126,-0.2900253 -0.133477,-0.102168 -0.383954,-0.102168 -0.136773,0 -0.293321,0.029662 -0.156548,0.029662 -0.344405,0.092281 V 1.6190026 q 0.189505,-0.052732 0.354292,-0.079098 0.166435,-0.026366 0.313096,-0.026366 0.37901,0 0.599825,0.1730265 0.220815,0.1713786 0.220815,0.4646997 0,0.204336 -0.116999,0.3460529 -0.116999,0.140069 -0.33287,0.1944488 z"
         id="path1501" />
    </g>
    <path
       d="m 41.793409,0.57998208 c 0,0 0,0 -1.806557,0 -1.806894,0 -5.420007,0 -8.13001,0 -2.710004,0 -4.516899,0 -6.775009,0.67750092 -2.258449,0.6775008 -4.968453,2.0325026 -6.775009,2.93595 -1.806895,0.9031087 -2.710003,1.3550018 -4.742506,2.7100035 -2.032503,1.3550018 -5.1943991,3.6131125 -7.9044027,6.3231155 -2.7099019,2.710004 -4.96821554,5.8719 -6.3232173,7.904403 -1.3550018,2.032503 -1.8066916,2.935611 -2.7100035,4.742506 -0.9033458,1.806556 -2.2583476,4.51656 -2.9358485,6.775009 -0.6775008,2.25811 -0.6775008,4.065005 -0.6775008,6.775009 0,2.710003 0,6.323115 0,8.13001 0,1.806556 0,1.806556 0,1.806556"
       style="fill:none;stroke:#000000;stroke-width:0.1355;stroke-linecap:butt;stroke-linejoin:round;stroke-miterlimit:10;stroke-dasharray:none;stroke-opacity:1"
       id="path1477" />
  </g>
</svg>
