<?xml version="1.0" encoding="UTF-8" standalone="no"?>
<svg
   xmlns:dc="http://purl.org/dc/elements/1.1/"
   xmlns:cc="http://creativecommons.org/ns#"
   xmlns:rdf="http://www.w3.org/1999/02/22-rdf-syntax-ns#"
   xmlns:svg="http://www.w3.org/2000/svg"
   xmlns="http://www.w3.org/2000/svg"
   xmlns:sodipodi="http://sodipodi.sourceforge.net/DTD/sodipodi-0.dtd"
   xmlns:inkscape="http://www.inkscape.org/namespaces/inkscape"
   width="49.78014mm"
   height="29.61347mm"
   viewBox="0 0 49.78014 29.61347"
   version="1.1"
   id="svg8"
   inkscape:version="1.0.1 (3bc2e813f5, 2020-09-07)"
   sodipodi:docname="ramsey-obr.svg">
  <defs
     id="defs2" />
  <sodipodi:namedview
     id="base"
     pagecolor="#ffffff"
     bordercolor="#666666"
     borderopacity="1.0"
     inkscape:pageopacity="0.0"
     inkscape:pageshadow="2"
     inkscape:zoom="0.44110458"
     inkscape:cx="100.52957"
     inkscape:cy="79.152579"
     inkscape:document-units="mm"
     inkscape:current-layer="layer1"
     inkscape:document-rotation="0"
     showgrid="false"
     inkscape:window-width="1914"
     inkscape:window-height="346"
     inkscape:window-x="1920"
     inkscape:window-y="703"
     inkscape:window-maximized="1"
     fit-margin-top="0"
     fit-margin-left="0"
     fit-margin-right="0"
     fit-margin-bottom="0" />
  <metadata
     id="metadata5">
    <rdf:RDF>
      <cc:Work
         rdf:about="">
        <dc:format>image/svg+xml</dc:format>
        <dc:type
           rdf:resource="http://purl.org/dc/dcmitype/StillImage" />
        <dc:title></dc:title>
      </cc:Work>
    </rdf:RDF>
  </metadata>
  <g
     inkscape:label="Layer 1"
     inkscape:groupmode="layer"
     id="layer1"
     transform="translate(-22.632961,-4.5636735)">
    <path
       style="fill:#000000;stroke-width:0.264583"
       d="m 44.812318,32.908464 c -1.713957,-1.302441 -7.641656,-5.704245 -12.638302,-9.384977 -2.118854,-1.560835 -2.885923,-1.989367 -3.351697,-1.872465 -0.948354,0.238021 -1.415746,-0.831691 -0.683387,-1.564051 0.525389,-0.525388 0.566403,-0.528278 1.067061,-0.07519 0.457595,0.414118 1.276064,0.488947 6.756213,0.617691 l 6.235542,0.146491 0.0055,-1.692713 c 0.0281,-8.639482 3.149107,-15.8997392 6.145543,-14.2960956 4.504034,2.410486 5.343115,21.6847616 1.207923,27.7468136 -1.421246,2.083496 -2.394347,2.160307 -4.744402,0.374494 z m 3.684535,0.411932 c 1.210447,-0.970007 2.79056,-5.6901 3.11931,-9.317973 L 51.787984,22.10632 48.117345,21.788985 C 46.098492,21.61445 44.053089,21.409957 43.572002,21.334556 l -0.874705,-0.137092 0.158555,1.668413 c 0.764677,8.046353 3.143829,12.455658 5.641001,10.454519 z M 45.812327,28.17447 c -0.618442,-0.08891 -0.684448,-0.162867 -0.373838,-0.41887 0.446453,-0.367967 1.047845,-2.901753 0.825966,-3.479963 -0.186037,-0.484803 1.721196,-0.580647 2.56527,-0.128913 0.605012,0.323792 0.669208,1.118155 0.126746,1.568357 -0.307213,0.254966 -0.321463,0.421322 -0.07051,0.823163 0.628455,1.006319 -1.090427,1.921354 -3.073635,1.636226 z m 2.425777,-0.795909 c 0.361436,-0.702749 0.08299,-1.124479 -0.742429,-1.124479 -0.720429,0 -1.064594,0.391903 -1.064594,1.212265 0,0.558808 1.512253,0.485344 1.807023,-0.08779 z M 48.32,25.479113 c 0.739217,-0.604022 0.406225,-1.175969 -0.601631,-1.03337 -0.458451,0.06487 -0.648221,0.283145 -0.709549,0.816151 -0.101123,0.878854 0.399876,0.961852 1.31118,0.217219 z m -4.253521,5.5701 c -0.2878,-0.564134 -0.716322,-1.099781 -0.952272,-1.190321 -0.235948,-0.09054 -1.044692,-0.565751 -1.797206,-1.056021 -2.47064,-1.609638 -6.579761,-4.136289 -6.726891,-4.136289 -0.07931,0 0.677234,0.623536 1.681201,1.385635 2.336047,1.773265 8.153147,6.020939 8.246918,6.021936 0.03934,5.29e-4 -0.163949,-0.460804 -0.45175,-1.02494 z M 43.200704,28.036865 42.888549,26.54865 38.772836,24.930685 c -2.263642,-0.88988 -4.809411,-1.919413 -5.657264,-2.287851 -0.847853,-0.368438 -1.581491,-0.629366 -1.630306,-0.579841 -0.09026,0.09158 11.851378,7.580687 11.96535,7.503979 0.03424,-0.02304 -0.07822,-0.711589 -0.249912,-1.530107 z m -0.47784,-2.907263 c -0.0021,-0.472942 -0.09227,-0.998559 -0.200094,-1.168036 -0.171831,-0.270088 -10.639375,-2.562576 -10.830067,-2.371884 -0.07197,0.07197 10.443109,4.313425 10.835774,4.370814 0.109141,0.01595 0.196615,-0.357951 0.194387,-0.830894 z m -0.402709,-2.910416 c -0.101322,-0.472943 -0.230989,-0.91065 -0.28815,-0.972684 -0.05716,-0.06203 -2.394738,-0.16552 -5.194614,-0.229971 -2.799876,-0.06445 -5.022145,-0.04438 -4.938375,0.04461 0.08377,0.08899 1.750646,0.473507 3.704167,0.854489 1.953521,0.380982 3.968576,0.784922 4.477899,0.897645 2.075693,0.459393 2.443842,0.361712 2.239073,-0.59409 z m 9.46381,-0.933117 C 51.932092,20.719623 51.819575,16.46895 51.593367,14.085617 51.420925,12.268787 50.343544,8.1097694 49.746014,6.9542739 46.901545,1.453676 42.992019,7.8496567 42.886355,18.176674 l -0.02715,2.653449 2.116666,0.190376 c 2.033791,0.182922 6.169824,0.627439 6.517579,0.700472 0.09217,0.01936 0.222899,-0.176349 0.290513,-0.434902 z M 45.372748,15.34986 c 0,-0.114553 0.106738,-0.208279 0.237196,-0.208279 0.130461,0 0.794571,-0.894267 1.475804,-1.987261 1.441066,-2.312097 1.61834,-2.319899 1.697998,-0.07473 0.03249,0.915816 0.171281,1.77823 0.308414,1.916475 0.446262,0.44987 0.264853,0.674687 -0.544412,0.674687 -0.436562,0 -0.79375,-0.119062 -0.79375,-0.264583 0,-0.145521 0.119063,-0.264584 0.264583,-0.264584 0.145521,0 0.264584,-0.186137 0.264584,-0.413638 0,-0.70292 -1.699281,-0.391889 -1.802027,0.329837 -0.07739,0.543631 -1.10839,0.815317 -1.10839,0.29208 z m 2.645833,-2.243223 c 0,-0.682877 -0.0159,-0.691002 -0.388461,-0.198438 -0.499917,0.660952 -0.502224,0.910466 -0.0084,0.910466 0.254461,0 0.396875,-0.255503 0.396875,-0.712028 z M 23.279035,21.58507 c -0.265906,-0.265905 -0.295076,-0.580723 -0.112722,-1.216555 0.32838,-1.144991 0.304093,-1.219362 -0.194866,-0.596725 -0.372662,0.465034 -0.403709,0.470428 -0.256169,0.04451 0.09234,-0.266563 0.167887,-0.534454 0.167887,-0.595312 0,-0.06086 0.253008,-0.110653 0.56224,-0.110653 0.575402,0 0.579336,0.04042 0.181901,1.86862 -0.197853,0.910123 0.71799,0.295238 0.986691,-0.662452 0.160917,-0.573534 0.451595,-1.095796 0.64595,-1.160581 0.251397,-0.0838 0.297683,0.02625 0.160392,0.381332 -0.240589,0.622251 -0.483315,2.20804 -0.268764,1.755894 0.204328,-0.4306 0.719679,-0.431455 0.57618,-9.52e-4 -0.167681,0.50304 -2.017332,0.72427 -2.44872,0.292882 z M 65.103106,11.286224 c -0.236866,-0.236865 -0.415775,-0.863045 -0.415775,-1.4552083 0,-0.6320599 -0.124433,-1.0394344 -0.3175,-1.0394344 -0.246943,0 -0.246943,-0.070556 0,-0.3175 0.174625,-0.174625 0.3175,-0.7104063 0.3175,-1.190625 0,-0.8589185 0.916438,-2.1615483 1.271157,-1.806829 0.0928,0.092799 0.02217,0.2592969 -0.15693,0.3699941 -0.179112,0.1106974 -0.359328,0.6114135 -0.400476,1.1127026 -0.04115,0.5012888 -0.164552,1.0566276 -0.274227,1.2340862 -0.109675,0.1774585 -0.06414,0.5754093 0.101192,0.8843355 0.165333,0.3089259 0.234881,0.8130116 0.154551,1.1201903 -0.08491,0.324698 0.03306,0.756427 0.281805,1.031284 0.526651,0.58194 0.01556,0.633847 -0.561297,0.057 z m 5.735788,0.129998 c 0.310724,-0.18098 0.463021,-0.596062 0.463021,-1.261954 0,-0.5457489 0.129437,-1.1217068 0.287636,-1.279907 0.207129,-0.2071272 0.207129,-0.3373951 0,-0.4654066 -0.158199,-0.097773 -0.287636,-0.6399663 -0.287636,-1.2048731 0,-0.5649069 -0.119063,-1.1006881 -0.264584,-1.190625 -0.517734,-0.3199765 -0.274224,-0.685237 0.264584,-0.396875 0.390064,0.2087562 0.529166,0.5539906 0.529166,1.3133268 0,0.566569 0.160722,1.1908454 0.357156,1.3872811 0.299818,0.2998184 0.299818,0.4107164 0,0.6907887 -0.196434,0.1834984 -0.357156,0.7924507 -0.357156,1.3532281 0,0.68566 -0.13707,1.072193 -0.418515,1.180193 -0.67233,0.257997 -1.07914,0.16923 -0.573672,-0.125177 z m -9.458632,-0.309536 c -0.0635,-0.181902 -0.527878,-1.4987984 -1.031944,-2.9264377 -0.504068,-1.4276396 -0.788151,-2.55293 -0.631296,-2.5006451 0.354743,0.1182478 2.319965,5.7578118 2.006426,5.7578118 -0.125249,0 -0.279681,-0.148828 -0.343186,-0.330729 z m 6.185212,-1.012135 C 67.36556,9.9709981 67.310167,9.4966403 67.408719,8.7522158 67.550652,7.6801045 67.53347,7.6373362 67.158794,8.130123 L 66.756455,8.6592896 66.849075,8.130123 C 67.07963,6.8128877 68.17862,7.3400866 67.978872,8.6721013 67.738078,10.277835 68.352779,10.211019 68.879625,8.5741923 69.216091,7.5288502 69.891752,6.946079 69.624544,7.9316858 69.176607,9.5839238 69.164055,9.9989577 69.578064,9.468616 69.978265,8.9559646 70.144831,9.189811 69.77651,9.7472175 69.536183,10.110918 67.985982,10.35444 67.565474,10.094551 Z M 54.271485,9.9068633 C 54.200907,9.7926641 54.057685,8.929461 53.953215,7.9886341 53.848744,7.0478073 53.631574,6.190566 53.470612,6.0836537 53.309653,5.9767414 53.535144,5.887282 53.971706,5.8848553 l 0.79375,-0.00441 -0.09063,1.4555693 c -0.05082,0.816166 0.0209,1.45557 0.163277,1.45557 0.406863,0 1.699888,-2.1267653 1.542455,-2.5370264 -0.104389,-0.2720348 0.07961,-0.3733903 0.677844,-0.3733903 h 0.821129 L 57.248537,6.3801541 C 56.901491,6.6545966 56.200824,7.6058068 55.691501,8.4939548 54.785512,10.0738 54.531105,10.326935 54.271488,9.9068666 Z"
       id="path915" />
  </g>
</svg>
