<?xml version="1.0" encoding="UTF-8" standalone="no"?>
<svg
   xmlns:dc="http://purl.org/dc/elements/1.1/"
   xmlns:cc="http://creativecommons.org/ns#"
   xmlns:rdf="http://www.w3.org/1999/02/22-rdf-syntax-ns#"
   xmlns:svg="http://www.w3.org/2000/svg"
   xmlns="http://www.w3.org/2000/svg"
   xmlns:sodipodi="http://sodipodi.sourceforge.net/DTD/sodipodi-0.dtd"
   xmlns:inkscape="http://www.inkscape.org/namespaces/inkscape"
   width="195.67761mm"
   height="46.487823mm"
   viewBox="0 0 195.67761 46.487823"
   version="1.1"
   id="svg8"
   inkscape:version="1.0.1 (3bc2e813f5, 2020-09-07)"
   sodipodi:docname="ramsey-motivace.svg">
  <defs
     id="defs2" />
  <sodipodi:namedview
     id="base"
     pagecolor="#ffffff"
     bordercolor="#666666"
     borderopacity="1.0"
     inkscape:pageopacity="0.0"
     inkscape:pageshadow="2"
     inkscape:zoom="0.54644825"
     inkscape:cx="295.50259"
     inkscape:cy="66.925309"
     inkscape:document-units="mm"
     inkscape:current-layer="layer1"
     inkscape:document-rotation="0"
     showgrid="false"
     inkscape:window-width="954"
     inkscape:window-height="1049"
     inkscape:window-x="2880"
     inkscape:window-y="0"
     inkscape:window-maximized="1"
     fit-margin-top="0"
     fit-margin-left="0"
     fit-margin-right="0"
     fit-margin-bottom="0" />
  <metadata
     id="metadata5">
    <rdf:RDF>
      <cc:Work
         rdf:about="">
        <dc:format>image/svg+xml</dc:format>
        <dc:type
           rdf:resource="http://purl.org/dc/dcmitype/StillImage" />
        <dc:title></dc:title>
      </cc:Work>
    </rdf:RDF>
  </metadata>
  <g
     inkscape:label="Layer 1"
     inkscape:groupmode="layer"
     id="layer1"
     transform="translate(-0.66131856,-18.435077)">
    <path
       style="fill:#000000;stroke-width:0.264583"
       d="m 170.7884,64.354298 c 0,-0.21828 0.11907,-0.39688 0.26459,-0.39688 0.14552,0 0.26458,0.14458 0.26458,0.32128 0,0.20789 0.1512,0.17009 0.42838,-0.1071 0.45118,-0.45118 -0.16274,-2.86001 -0.72891,-2.86001 -0.12575,0 -0.22864,-0.10647 -0.22864,-0.23659 0,-0.13013 0.29888,-0.21943 0.66416,-0.19844 0.36529,0.021 0.61906,0.15722 0.56393,0.30274 -0.0551,0.14552 0.0115,0.56224 0.14812,0.92604 l 0.24834,0.66146 0.34978,-0.64813 c 0.19238,-0.35647 0.30018,-0.7774 0.23955,-0.93539 -0.0606,-0.158 0.13082,-0.30543 0.42544,-0.32762 0.29463,-0.0222 0.53568,0.0713 0.53568,0.20779 0,0.13648 -0.10566,0.24814 -0.23481,0.24814 -0.12915,0 -0.56372,0.7739 -0.96573,1.71979 -0.71709,1.68724 -1.97446,2.52969 -1.97446,1.32292 z M 1.1904856,63.957418 c -0.36380304,-0.11651 -0.51263104,-0.2237 -0.33073004,-0.23821 0.41871404,-0.0334 0.46871804,-3.20137 0.05053,-3.20137 -0.154109,0 -0.215302,-0.10501 -0.135984,-0.23334 0.31358504,-0.5074 2.24721804,-0.28304 2.66178604,0.30884 0.757551,1.08156 0.136022,2.30575 -1.170641,2.30575 -0.511254,0 -0.577865,0.10079 -0.437146,0.66146 0.09131,0.3638 0.133981,0.64959 0.09483,0.63508 -0.03915,-0.0145 -0.368843,-0.1217 -0.732645,-0.23821 z m 1.433568,-1.48351 c 0.511678,-0.19635 0.558464,-1.51055 0.06826,-1.91738 -0.479831,-0.39822 -0.972663,0.12288 -0.972663,1.02846 0,0.96091 0.201269,1.15873 0.904403,0.88892 z m 105.1935164,0.68976 c -0.29104,-0.29104 -0.52917,-0.74884 -0.52917,-1.01732 0,-1.21271 2.14886,-1.86252 2.32298,-0.70247 0.0771,0.51374 0.0679,0.5147 -0.31531,0.033 -0.60092,-0.75538 -1.2661,-0.35969 -1.16467,0.69282 0.0825,0.85641 1.27367,1.51454 1.27367,0.70373 0,-0.17989 0.0765,-0.25058 0.17,-0.15708 0.23587,0.23588 -0.41932,0.97653 -0.86385,0.97653 -0.20047,0 -0.60261,-0.23813 -0.89365,-0.52917 z m 2.96689,0.19844 c -0.38191,-0.46282 -0.44632,-2.31693 -0.10801,-3.10885 0.27518,-0.64414 0.28302,-0.64587 0.29935,-0.0661 0.01,0.34532 0.18343,0.59531 0.41365,0.59531 0.21828,0 0.39687,0.11906 0.39687,0.26459 0,0.14552 -0.17859,0.26458 -0.39687,0.26458 -0.27719,0 -0.39688,0.27928 -0.39688,0.92604 0,1.03321 0.17039,1.14755 0.69002,0.46302 0.29577,-0.38962 0.35282,-0.39801 0.3599,-0.0529 0.0169,0.82295 -0.79025,1.28128 -1.25803,0.71438 z m 1.9279,-1.12448 c 0,-0.98778 0.10624,-1.45521 0.33073,-1.45521 0.20831,0 0.33073,0.38373 0.33073,1.03669 0,0.57019 0.0723,1.22503 0.1606,1.45521 0.11091,0.28904 0.009,0.41852 -0.33073,0.41852 -0.41916,0 -0.49133,-0.21375 -0.49133,-1.45521 z m 2.03729,1.13771 c -0.17462,-0.17463 -0.3175,-0.70338 -0.3175,-1.17501 0,-0.47163 -0.13435,-0.94055 -0.29856,-1.04203 -0.20412,-0.12616 -0.16228,-0.26079 0.13229,-0.42564 0.23697,-0.13261 0.43086,-0.42082 0.43086,-0.64046 0,-0.21964 0.12718,-0.32074 0.28262,-0.22467 0.15544,0.0961 0.21871,0.34122 0.14059,0.54478 -0.082,0.21356 0.0223,0.37011 0.24655,0.37011 0.21371,0 0.38857,0.11906 0.38857,0.26459 0,0.14552 -0.17859,0.26458 -0.39687,0.26458 -0.27719,0 -0.39688,0.27928 -0.39688,0.92604 0,0.64676 0.11969,0.92604 0.39688,0.92604 0.21828,0 0.39687,-0.19844 0.39687,-0.44097 0,-0.24253 0.0704,-0.37057 0.15645,-0.28452 0.25223,0.25222 -0.16183,1.25466 -0.51824,1.25466 -0.17937,0 -0.469,-0.14288 -0.64363,-0.3175 z m 2.13722,-0.0132 c -0.53711,-0.69416 -0.60558,-1.34516 -0.20566,-1.95551 0.51708,-0.78917 1.59193,-0.82812 1.99641,-0.0724 0.36923,0.68992 0.20678,0.85784 -0.80215,0.82915 -0.60406,-0.0172 -0.79748,0.0945 -0.79748,0.46049 0,0.68699 0.77845,0.90023 1.36118,0.37286 0.53412,-0.48337 0.69158,-0.13959 0.1734,0.37859 -0.41454,0.41454 -1.40055,0.40698 -1.7257,-0.0132 z m 1.34015,-1.93122 c -0.18003,-0.46915 -0.91842,-0.4152 -1.08301,0.0791 -0.0689,0.20695 0.14258,0.33073 0.56508,0.33073 0.50099,0 0.63462,-0.10576 0.51793,-0.40987 z m 1.11738,1.67781 c 0.19372,-0.61037 0.24171,-2.70059 0.0777,-3.38461 -0.0523,-0.21828 0.0746,-0.39688 0.28209,-0.39688 0.29607,0 0.36318,0.38779 0.3119,1.80229 -0.0399,1.10086 0.0576,1.95038 0.25047,2.18281 0.26137,0.31494 0.19314,0.38053 -0.39588,0.38053 -0.61361,0 -0.68614,-0.0805 -0.52628,-0.58414 z m 2.12126,0.3857 c -0.0849,-0.0849 -0.15434,-0.61074 -0.15434,-1.16858 0,-0.55783 -0.11906,-1.01423 -0.26458,-1.01423 -0.14552,0 -0.26459,-0.11906 -0.26459,-0.26458 0,-0.14553 0.23813,-0.26459 0.52917,-0.26459 0.44776,0 0.52917,0.17639 0.52917,1.14653 0,1.26957 0.13651,1.53184 0.68732,1.32048 0.42329,-0.16243 0.52079,-1.93784 0.10643,-1.93784 -0.14552,0 -0.26459,-0.11906 -0.26459,-0.26458 0,-0.14553 0.23813,-0.26459 0.52917,-0.26459 0.44713,0 0.52917,0.17639 0.52917,1.13771 0,0.62574 0.13295,1.27066 0.29545,1.43316 0.21755,0.21755 -0.0208,0.29545 -0.90399,0.29545 -0.6597,0 -1.2689,-0.0694 -1.35379,-0.15434 z m 31.59404,-0.022 c -0.63584,-0.21325 -0.25542,-1.31788 0.55063,-1.59887 0.44748,-0.15599 0.73811,-0.40576 0.64585,-0.55505 -0.19145,-0.30976 -0.96483,-0.37509 -0.86413,-0.073 0.0364,0.10914 -0.0529,0.2282 -0.19844,0.26458 -0.14552,0.0364 -0.26458,-0.0827 -0.26458,-0.26458 0,-0.20159 0.3616,-0.33073 0.92604,-0.33073 0.89763,0 0.93091,0.0365 1.08474,1.19063 0.0873,0.65484 0.17658,1.04179 0.19844,0.85989 0.0219,-0.1819 0.16583,-0.33073 0.31994,-0.33073 0.15411,0 0.20661,0.11907 0.11667,0.26459 -0.0899,0.14552 -0.0368,0.26458 0.11798,0.26458 0.1716,0 0.26751,-0.61876 0.24567,-1.58493 -0.041,-1.81509 0.32092,-2.44888 1.33123,-2.33105 0.65364,0.0762 1.18364,1.00556 0.57348,1.00556 -0.15619,0 -0.28398,-0.18733 -0.28398,-0.41628 0,-0.64746 -0.91338,-0.32857 -1.01059,0.35283 -0.0718,0.50342 0.0377,0.59261 0.7276,0.59261 0.78616,0 0.81215,0.0381 0.81215,1.19063 0,0.66159 0.1245,1.19062 0.2802,1.19062 0.15411,0 0.20662,0.11906 0.11668,0.26459 -0.20501,0.33171 -1.19063,0.34996 -1.19063,0.022 0,-0.1334 0.10051,-0.28223 0.22336,-0.33073 0.47623,-0.18804 0.006,-2.07256 -0.51689,-2.07256 -0.4072,0 -0.50022,0.1968 -0.50022,1.05833 0,0.62996 0.12495,1.05833 0.30869,1.05833 0.16977,0 0.23957,0.0691 0.15511,0.15357 -0.16713,0.16712 -3.47716,0.2986 -3.905,0.15511 z m 1.27938,-0.93106 c 0.0673,-0.34954 -0.0413,-0.45811 -0.3908,-0.3908 -0.2662,0.0513 -0.52595,0.31102 -0.57722,0.57723 -0.0673,0.34953 0.0413,0.45811 0.3908,0.39079 0.2662,-0.0513 0.52596,-0.31101 0.57722,-0.57722 z m 5.0307,0.87915 c -0.66552,-0.38789 -0.30097,-1.25594 0.61163,-1.45638 0.42947,-0.0943 0.73492,-0.30949 0.67877,-0.47814 -0.13721,-0.41212 -1.01782,-0.56633 -0.92504,-0.16199 0.0402,0.17511 -0.0871,0.37675 -0.28294,0.44808 -0.23433,0.0854 -0.32383,-0.039 -0.26188,-0.36381 0.25737,-1.34948 2.07094,-0.53926 2.07714,0.92797 0.003,0.69545 0.0718,0.8526 0.25019,0.57058 0.13538,-0.21407 0.30568,-0.32968 0.37844,-0.25692 0.53696,0.53696 -1.73705,1.23061 -2.52631,0.77061 z m 1.27316,-0.66506 c 0.0862,-0.22455 0.0995,-0.46548 0.0296,-0.53539 -0.23571,-0.23572 -0.9966,0.20337 -0.9966,0.57511 0,0.50068 0.77183,0.46898 0.96704,-0.0397 z m 1.54651,-0.48748 v -1.42492 l 0.97376,-0.0135 c 1.16699,-0.0161 1.42337,0.26059 1.61116,1.73883 0.13349,1.05079 0.10115,1.12448 -0.49343,1.12448 -0.34996,-10e-6 -0.63629,-0.11907 -0.63629,-0.26459 0,-0.14553 0.11907,-0.26459 0.26459,-0.26459 0.14552,0 0.26458,-0.48498 0.26458,-1.07773 0,-0.88551 -0.0826,-1.06112 -0.46302,-0.98458 -0.36546,0.0735 -0.45952,0.35637 -0.44639,1.34232 0.0145,1.09083 -0.0526,1.24916 -0.52917,1.24916 -0.48377,0 -0.54579,-0.16192 -0.54579,-1.42493 z m 3.0427,0.83859 c 0,-0.25959 0.11907,-0.47199 0.26459,-0.47199 0.14552,0 0.26458,0.11907 0.26458,0.26459 0,0.14552 0.30758,0.26458 0.68351,0.26458 0.81816,0 0.7433,-0.62045 -0.0897,-0.74349 -1.46612,-0.21656 -1.2645,-1.63777 0.23235,-1.63777 0.61554,0 0.75981,0.11401 0.75331,0.59531 -0.007,0.53166 -0.0369,0.54581 -0.27773,0.1323 -0.29076,-0.4992 -1.30173,-0.64262 -1.30173,-0.18468 0,0.15309 0.35719,0.40286 0.79375,0.55505 0.8203,0.28596 1.17411,1.50032 0.46302,1.58919 -1.36373,0.17044 -1.78594,0.0846 -1.78594,-0.36309 z m 2.82711,-1.5905 c 0.0563,-2.50307 0.61248,-3.27993 0.61248,-0.85552 0,1.31191 0.052,1.46651 0.39687,1.18028 0.21828,-0.18116 0.39688,-0.4934 0.39688,-0.69386 0,-0.20046 0.23812,-0.36448 0.52916,-0.36448 0.29105,0 0.52917,0.11104 0.52917,0.24675 0,0.13572 -0.23812,0.32234 -0.52917,0.41471 -0.71366,0.22651 -0.66594,0.62203 0.1818,1.50688 l 0.71096,0.74208 h -0.69256 c -0.50846,0 -0.71503,-0.15274 -0.77711,-0.57459 -0.0465,-0.31602 -0.25018,-0.6292 -0.45261,-0.69595 -0.27856,-0.0918 -0.32559,0.0479 -0.1934,0.57458 0.13931,0.55507 0.0799,0.69601 -0.29339,0.6962 -0.41376,2.2e-4 -0.46238,-0.25235 -0.41908,-2.17709 z m 6.80365,1.97436 c -1.06535,-0.71136 -0.81229,-2.49144 0.37845,-2.66209 0.69523,-0.0996 1.44254,0.41305 1.19229,0.81797 -0.10428,0.16873 -0.30409,0.091 -0.51799,-0.20153 -0.45081,-0.61652 -1.1585,-0.10729 -1.1585,0.83363 0,0.76176 0.67214,1.08857 1.35796,0.66027 0.30458,-0.19021 0.49412,-0.20623 0.49412,-0.0418 0,0.14675 0.0924,0.26682 0.20527,0.26682 0.2566,0 0.24562,-2.9334 -0.0125,-3.34571 -0.10554,-0.16857 -0.005,-0.374 0.22728,-0.46303 0.62707,-0.24062 0.6383,-0.22779 0.6383,0.72934 0,0.80479 0.0626,0.87739 0.65817,0.76354 0.73123,-0.13979 0.81834,0.008 1.01466,1.72055 0.12244,1.06811 0.0944,1.12448 -0.5603,1.12448 -0.53604,0 -0.61864,-0.0706 -0.37169,-0.3175 0.35502,-0.35503 0.43402,-1.96051 0.10642,-2.16297 -0.54208,-0.33503 -0.91985,0.34201 -0.77857,1.39535 0.13545,1.00996 0.10147,1.08511 -0.49075,1.08511 -0.34995,0 -0.63628,-0.14288 -0.63628,-0.3175 0,-0.24694 -0.0706,-0.24694 -0.3175,0 -0.35636,0.35636 -0.99089,0.40743 -1.42883,0.11501 z m 7.5195,-1.98095 c -0.0623,-1.5099 0.003,-2.05098 0.2461,-2.05052 0.19017,2.7e-4 0.33073,0.33443 0.33073,0.78607 0,0.59126 0.0986,0.7476 0.39892,0.63237 0.2194,-0.0842 0.69565,0.0413 1.05833,0.27898 1.30097,0.85243 0.51376,2.58164 -1.12165,2.46386 l -0.8278,-0.0596 -0.0846,-2.05115 z m 2.16433,0.90177 c 0,-0.7507 -0.61735,-1.41526 -1.13146,-1.21798 -0.54021,0.2073 -0.64148,1.85988 -0.12531,2.04496 0.51276,0.18386 1.25677,-0.30571 1.25677,-0.82698 z m 1.32292,0.75249 c -0.29105,-0.29104 -0.52917,-0.70776 -0.52917,-0.92604 0,-1.1547 1.70163,-1.82319 2.47253,-0.97135 1.3042,1.44112 -0.56989,3.27087 -1.94336,1.89739 z m 1.53458,-0.0529 c 0.73891,-0.73891 0.0411,-2.3189 -0.86976,-1.96937 -0.49141,0.18858 -0.54836,1.91842 -0.0695,2.11164 0.51739,0.20877 0.60087,0.19612 0.93927,-0.14227 z m 1.11125,0.0119 c 0,-0.54723 0.0206,-0.55151 0.51249,-0.10637 0.28188,0.25509 0.63906,0.38558 0.79375,0.28997 0.48621,-0.30049 0.30917,-0.61026 -0.51249,-0.8967 -0.8333,-0.29048 -1.00987,-0.77603 -0.47625,-1.30964 0.6674,-0.66741 2.09934,-0.2235 1.64587,0.51023 -0.12615,0.20412 -0.26078,0.16228 -0.42563,-0.13229 -0.28592,-0.51092 -1.00857,-0.57683 -1.00857,-0.092 0,0.18638 0.35718,0.47369 0.79375,0.63848 1.40926,0.53194 0.94395,1.66849 -0.6831,1.66849 -0.47877,0 -0.63982,-0.14352 -0.63982,-0.57018 z m 2.38125,0.006 c 0,-0.56611 0.0178,-0.57134 0.35861,-0.10527 0.21956,0.30027 0.52734,0.42569 0.79375,0.32346 0.66471,-0.25508 0.52091,-0.63109 -0.35861,-0.93769 -1.21819,-0.42465 -0.88578,-1.62714 0.44979,-1.62714 0.46379,0 0.60124,0.14161 0.57785,0.59531 -0.0231,0.44799 -0.0606,0.48073 -0.15169,0.1323 -0.1434,-0.54873 -1.14053,-0.62919 -1.14053,-0.092 0,0.20404 0.36588,0.49854 0.81307,0.65443 1.23803,0.43158 1.00926,1.45773 -0.35005,1.57024 -0.87706,0.0726 -0.99219,0.013 -0.99219,-0.51359 z m 3.08681,0.38738 c -0.097,-0.097 -0.17639,-0.63278 -0.17639,-1.19062 0,-0.55783 -0.12609,-1.01423 -0.2802,-1.01423 -0.15411,0 -0.20662,-0.11906 -0.11668,-0.26458 0.46615,-0.75425 0.92604,-0.21902 0.92604,1.07773 0,1.13543 0.0714,1.32879 0.46302,1.25457 0.57522,-0.10901 0.84013,-2.06523 0.28056,-2.07177 -0.25945,-0.003 -0.25,-0.0652 0.0375,-0.24713 0.5808,-0.36741 0.80638,-0.0855 0.80638,1.00763 0,0.54439 0.14288,1.13267 0.3175,1.3073 0.24695,0.24694 0.051,0.3175 -0.88194,0.3175 -0.6597,0 -1.27882,-0.0794 -1.37583,-0.17639 z M 58.979068,62.476678 c -0.234683,-0.56805 -0.615093,-1.24471 -0.845352,-1.5037 -0.392139,-0.44107 -0.36649,-0.46692 0.404919,-0.40814 0.452964,0.0345 0.761071,0.16389 0.684678,0.28749 -0.07639,0.12361 -0.06156,0.53285 0.03295,0.90943 0.213365,0.85012 0.737867,0.45018 0.737867,-0.56263 0,-0.46933 0.142338,-0.6813 0.457475,-0.6813 0.403466,0 -0.308109,2.1577 -0.951391,2.88489 -0.05195,0.0587 -0.286464,-0.35799 -0.521146,-0.92604 z m 2.59529,0.53969 c -1.194229,-0.83647 -0.298172,-2.74878 1.121092,-2.39257 0.979477,0.24583 0.933538,1.22797 -0.05548,1.18625 -0.474607,-0.02 -0.561515,-0.0737 -0.249942,-0.15451 0.576771,-0.14951 0.452575,-0.70587 -0.185174,-0.82953 -0.385482,-0.0747 -0.444441,0.0885 -0.374949,1.03777 0.09125,1.24655 0.461024,1.54498 1.110084,0.89592 0.357198,-0.3572 0.427585,-0.3638 0.427585,-0.0401 0,0.34597 -0.522605,0.70866 -1.021101,0.70866 -0.10124,0 -0.448691,-0.18534 -0.77211,-0.41187 z m 2.586961,-0.11728 c -0.980824,-0.98083 -0.252085,-2.5287 1.099957,-2.33637 0.601859,0.0856 1.065975,1.01345 0.506942,1.01345 -0.156189,0 -0.283982,-0.18732 -0.283982,-0.41627 0,-0.91306 -0.92482,-0.25536 -1.006153,0.71553 -0.09241,1.10312 0.470845,1.52117 1.143387,0.84863 0.229423,-0.22942 0.476662,-0.3576 0.549423,-0.28484 0.202382,0.20238 -0.674463,0.98904 -1.102432,0.98904 -0.207885,0 -0.6161,-0.23813 -0.907142,-0.52917 z m 2.513542,-0.94747 c 0,-0.97064 0.106833,-1.43378 0.330729,-1.43378 0.208312,0 0.330729,0.38373 0.330729,1.03669 0,0.57018 0.06246,1.19947 0.138806,1.39841 0.0831,0.21656 -0.04963,0.37592 -0.33073,0.39709 -0.396245,0.0299 -0.469534,-0.18843 -0.469534,-1.39841 z m 1.455208,1.22308 c 0,-0.10308 0.08508,-0.2725 0.189066,-0.37648 0.273333,-0.27334 0.299154,-1.48071 0.03516,-1.64387 -0.520398,-0.32162 -0.15843,-0.60226 0.705517,-0.54699 0.511357,0.0327 0.920268,0.17478 0.908693,0.31571 -0.01159,0.14092 -0.178554,0.22429 -0.371062,0.18526 -0.222608,-0.0451 -0.389573,0.26788 -0.45869,0.8599 -0.05977,0.51197 -0.01352,0.93086 0.102783,0.93086 0.1163,0 0.211455,0.10418 0.211455,0.23151 0,0.12733 -0.297657,0.23151 -0.661459,0.23151 -0.363802,0 -0.661458,-0.0843 -0.661458,-0.18741 z m 2.69875,-0.0639 c -0.517025,-0.51703 -0.392367,-2.00507 0.194273,-2.31903 0.695293,-0.37211 0.966147,-0.34567 1.453703,0.14188 0.64526,0.64526 0.497948,0.90715 -0.510268,0.90715 -1.000871,0 -1.234305,0.47312 -0.524203,1.06245 0.328848,0.27292 0.497054,0.24733 0.926042,-0.14091 0.288311,-0.26091 0.524203,-0.36069 0.524203,-0.22172 0,0.43292 -0.60996,0.88768 -1.190625,0.88768 -0.305594,0 -0.6985,-0.14288 -0.873125,-0.3175 z m 1.534583,-1.78356 c 0,-0.49368 -0.588962,-0.59838 -1.008128,-0.17921 -0.394521,0.39452 -0.371724,0.42818 0.289972,0.42818 0.394986,0 0.718156,-0.11203 0.718156,-0.24897 z m 0.79375,1.88057 c 0,-0.12127 0.07441,-0.2949 0.165365,-0.38585 0.09095,-0.0909 0.165365,-0.83013 0.165365,-1.64262 0,-0.81249 -0.07442,-1.55167 -0.165365,-1.64262 -0.294529,-0.29453 -0.175474,-0.60634 0.23151,-0.60634 0.305742,0 0.398897,0.34934 0.405678,1.52135 l 0.0088,1.52136 0.496628,-0.59532 c 0.273145,-0.32742 0.699095,-0.59531 0.946552,-0.59531 0.366967,0 0.337889,0.0907 -0.157715,0.49204 l -0.607637,0.49203 0.710615,0.71062 c 0.841275,0.84127 0.867143,0.95115 0.223922,0.95115 -0.269832,0 -0.62916,-0.31268 -0.806418,-0.70171 -0.255759,-0.56133 -0.383347,-0.63411 -0.637781,-0.36381 -0.247991,0.26347 -0.2452,0.36463 0.01267,0.45918 0.574214,0.21054 0.358328,0.60634 -0.330729,0.60634 -0.363803,0 -0.661459,-0.0992 -0.66146,-0.22049 z m 74.779798,-0.86481 c 0.12636,-0.79022 0.0733,-1.14779 -0.19531,-1.31513 -0.2259,-0.14076 0.47713,-0.22483 1.81395,-0.21692 1.20055,0.007 2.188,0.0929 2.19434,0.19065 0.006,0.0978 0.10941,0.68375 0.22905,1.30222 l 0.21754,1.12448 h -1.35544 -1.35545 l 0.0967,-1.21554 c 0.0849,-1.06802 0.037,-1.20423 -0.39497,-1.12232 -0.60623,0.11496 -0.85133,1.76621 -0.31283,2.10762 0.23821,0.15103 0.11645,0.22343 -0.38038,0.22618 -0.70778,0.004 -0.72528,-0.03 -0.55718,-1.08124 z m 3.3635,-0.19051 c -0.0506,-1.08166 -0.22466,-1.27907 -0.74628,-0.84617 -0.67465,0.55991 -0.53112,1.91235 0.19205,1.80965 0.49117,-0.0698 0.58812,-0.2383 0.55423,-0.96348 z m -126.718637,0.39594 c -1.222426,-1.05149 -0.171368,-3.0371 1.214922,-2.29517 0.908674,0.4863 0.671753,1.27851 -0.410644,1.37308 -0.891135,0.0779 -0.919377,0.10953 -0.54528,0.61129 0.337773,0.45304 0.472972,0.48127 0.939811,0.1962 0.30186,-0.18433 0.54528,-0.21802 0.54528,-0.0755 0,0.69089 -1.031195,0.80326 -1.744089,0.19006 z m 1.214922,-1.58962 c 0,-0.54913 -0.313153,-0.73004 -0.70326,-0.40628 -0.512863,0.42564 -0.43639,0.75906 0.174093,0.75906 0.291042,0 0.529167,-0.15875 0.529167,-0.35278 z m 1.675119,1.87005 c -0.856361,-0.38212 -0.950605,-1.47209 -0.192809,-2.22988 0.627739,-0.62774 1.69269,-0.50647 1.69269,0.19275 0,0.36225 -0.464362,0.3174 -0.589132,-0.0569 -0.239667,-0.71901 -1.032761,0.0378 -0.949121,0.90568 0.07945,0.82442 1.27367,1.5256 1.27367,0.74782 0,-0.15564 0.115326,-0.28298 0.25628,-0.28298 0.41715,0 0.01117,0.73128 -0.476819,0.85889 -0.246684,0.0645 -0.703326,0.004 -1.014759,-0.13537 z M 4.5387836,62.415228 c -0.546517,-0.60389 -0.553331,-1.08566 -0.026,-1.83852 0.75448,-1.07717 2.498538,-0.43977 2.498538,0.91314 0,1.2121 -1.653137,1.83081 -2.472535,0.92538 z m 1.669476,-0.2925 c 0.354795,-0.66294 0.345287,-0.87695 -0.06382,-1.43643 -0.522431,-0.71447 -1.249791,-0.28276 -1.249791,0.74179 0,1.29041 0.775338,1.70041 1.313608,0.69464 z m 3.3606977,0.59997 c -0.28001,-0.28001 -0.204589,-1.14653 0.09979,-1.14653 0.1519,0 0.241197,0.20836 0.198437,0.46302 -0.05679,0.33824 0.100526,0.46302 0.5837137,0.46302 0.55316,0 0.675055,-0.14108 0.744504,-0.86171 0.0936,-0.97122 -0.484567,-1.40318 -1.144748,-0.85528 -0.3380807,0.28058 -0.3935057,0.16364 -0.3935057,-0.8303 0,-1.14575 0.0089,-1.15687 0.9260417,-1.15687 1.066415,0 1.102817,0.48774 0.04574,0.61288 -0.8724407,0.10329 -0.9590017,0.84233 -0.09866,0.84233 0.798909,0 1.243542,0.47301 1.243542,1.32291 0,1.08082 -1.493794,1.8576 -2.2048607,1.14653 z m 3.0079197,-0.33538 c -0.804282,-1.50282 0.07646,-3.98193 1.279042,-3.60024 1.634788,0.51886 1.433795,4.11201 -0.230018,4.11201 -0.49556,0 -0.873918,-0.18459 -1.049024,-0.51177 z m 1.618615,-0.48042 c 0.137136,-2.46837 -0.275302,-3.55585 -0.984278,-2.59526 -0.386406,0.52354 -0.508614,2.14823 -0.218463,2.90435 0.281769,0.73428 1.157274,0.50929 1.202741,-0.30909 z m 3.346243,0.67469 c 0.174625,-0.17463 0.3175,-0.98425 0.3175,-1.79917 0,-0.81491 -0.142875,-1.62454 -0.3175,-1.79916 -0.246945,-0.24695 -0.192626,-0.3175 0.244436,-0.3175 0.518856,0 0.568551,0.16231 0.648229,2.11728 0.08535,2.09415 0.07921,2.11728 -0.561936,2.11667 -0.504178,-5.3e-4 -0.577674,-0.0712 -0.330729,-0.31812 z m 1.635498,-0.22086 c -0.765172,-1.42974 0.905075,-3.08417 1.888083,-1.87021 0.708115,0.87449 0.624874,1.08565 -0.427956,1.08565 -0.655194,0 -0.926042,0.11851 -0.926042,0.40518 0,0.57389 0.720005,0.77879 1.237021,0.35203 0.373054,-0.30793 0.417694,-0.30262 0.306984,0.0365 -0.216937,0.66459 -1.721053,0.65794 -2.07809,-0.009 z m 1.592419,-1.41771 c 0,-0.3991 -0.642697,-0.75262 -0.900175,-0.49515 -0.348432,0.34843 -0.127092,0.86372 0.371008,0.86372 0.291042,0 0.529167,-0.16586 0.529167,-0.36857 z m 1.485556,1.74059 c -0.276215,-0.44693 -0.243232,-2.59716 0.04753,-3.0986 0.292722,-0.50482 0.303176,-0.50237 0.310951,0.0729 0.0052,0.38435 0.172128,0.59817 0.471067,0.60336 0.440972,0.008 0.440972,0.0209 0,0.27773 -0.500623,0.29159 -0.671447,2.09548 -0.198438,2.09548 0.145521,0 0.264584,-0.1786 0.264584,-0.39688 0,-0.21828 0.1318,-0.39687 0.29289,-0.39687 0.16109,0 0.220622,0.18833 0.132292,0.41851 -0.08833,0.23018 -0.160599,0.46831 -0.160599,0.52917 0,0.20529 -1.025894,0.1126 -1.160277,-0.10483 z m 7.179548,0.0402 c 0.435366,-0.17568 0.446442,-3.30739 0.01323,-3.7406 -0.246944,-0.24695 -0.188148,-0.3175 0.264583,-0.3175 0.467442,0 0.582084,0.15286 0.582084,0.77617 0,0.65005 0.118231,0.78978 0.727604,0.8599 0.640649,0.0737 0.737865,0.20979 0.813461,1.13862 0.04722,0.58019 0.225814,1.14392 0.396875,1.25272 0.185201,0.11779 0.04266,0.19945 -0.352348,0.20187 -0.626327,0.004 -0.657966,-0.0638 -0.566687,-1.21149 0.08502,-1.06901 0.03741,-1.20386 -0.39497,-1.11869 -0.386374,0.0761 -0.491644,0.33644 -0.491644,1.21588 0,1.02291 -0.05682,1.11721 -0.661458,1.0978 -0.363802,-0.0117 -0.51263,-0.0813 -0.33073,-0.15468 z m 142.676564,-2.4235 c 0,-0.39507 0.99618,-1.15547 1.16209,-0.88703 0.086,0.13908 -0.14035,0.44724 -0.5029,0.68479 -0.36255,0.23756 -0.65919,0.32856 -0.65919,0.20224 z M 64.462499,59.900478 c -0.232799,-0.28051 -0.131889,-0.35278 0.49257,-0.35278 0.624459,0 0.725368,0.0723 0.492569,0.35278 -0.161028,0.19403 -0.382685,0.35278 -0.492569,0.35278 -0.109884,0 -0.331542,-0.15875 -0.49257,-0.35278 z m 2.594875,-0.14956 c 0.361389,-0.67526 0.808112,-0.9533 0.808112,-0.50297 0,0.19187 -0.245229,0.502 -0.544952,0.68918 -0.500491,0.31256 -0.521962,0.29737 -0.26316,-0.18621 z m 45.691896,0.31875 c -0.29797,-0.29797 -0.18148,-0.61016 0.22768,-0.61016 0.21828,0 0.39687,0.11203 0.39687,0.24896 0,0.33364 -0.41317,0.57259 -0.62455,0.3612 z m 8.95893,-0.081 c -0.24429,-0.39527 0.0956,-0.79375 0.67707,-0.79375 0.33716,0 0.51355,0.18175 0.51355,0.52917 0,0.5612 -0.88567,0.75801 -1.19062,0.26458 z m 0.92604,-0.26458 c 0,-0.14552 -0.11907,-0.26458 -0.26459,-0.26458 -0.14552,0 -0.26458,0.11906 -0.26458,0.26458 0,0.14552 0.11906,0.26458 0.26458,0.26458 0.14552,0 0.26459,-0.11906 0.26459,-0.26458 z m 37.76927,-0.0515 c 0.31934,-0.31934 0.66042,-0.50081 0.75796,-0.40327 0.25742,0.25743 -0.4184,0.98389 -0.9153,0.98389 -0.34018,0 -0.30929,-0.11399 0.15734,-0.58062 z m 33.78627,0.29298 c -0.25004,-0.40457 0.29261,-0.87279 0.79022,-0.68184 0.22806,0.0875 0.41466,0.34145 0.41466,0.5643 0,0.4624 -0.93534,0.55365 -1.20488,0.11754 z m 0.94029,-0.0936 c 0,-0.0642 -0.11906,-0.19027 -0.26458,-0.2802 -0.14552,-0.0899 -0.26458,-0.0374 -0.26458,0.11667 0,0.15411 0.11906,0.2802 0.26458,0.2802 0.14552,0 0.26458,-0.0525 0.26458,-0.11667 z m -47.74971,-2.62319 c -0.38731,-0.28321 -0.41329,-0.39845 -0.12942,-0.57389 0.2152,-0.133 0.39632,-0.0961 0.45955,0.0936 0.24497,0.73489 0.58833,-0.0971 0.58833,-1.42563 0,-0.97313 -0.10716,-1.44091 -0.33073,-1.44365 -0.22695,-0.003 -0.21016,-0.0803 0.0535,-0.24712 0.63133,-0.39938 0.80639,-0.0632 0.80639,1.5487 0,1.82524 -0.59708,2.66996 -1.44763,2.04803 z m -36.37067,-1.14085 c -0.60775,-0.42568 -0.73722,-1.64335 -0.22879,-2.15179 0.45997,-0.45997 1.71342,-0.39344 1.90315,0.10102 0.29184,0.7605 0.17004,0.9044 -0.76544,0.9044 -0.65519,0 -0.92604,0.11851 -0.92604,0.40518 0,0.55625 0.76052,0.80119 1.34818,0.4342 0.38783,-0.24221 0.45627,-0.22937 0.34352,0.0645 -0.21162,0.55147 -1.05841,0.67412 -1.67458,0.24253 z m 1.23965,-1.74168 c -0.0606,-0.18191 -0.32852,-0.33073 -0.59531,-0.33073 -0.26679,0 -0.53468,0.14882 -0.59531,0.33073 -0.0698,0.20946 0.14846,0.33073 0.59531,0.33073 0.44685,0 0.66513,-0.12127 0.59531,-0.33073 z m 1.44794,1.77093 c -1.20762,-0.84584 -0.55744,-2.62297 0.89691,-2.45151 0.78009,0.092 1.22365,0.74672 0.50586,0.74672 -0.239,0 -0.36096,-0.11906 -0.27102,-0.26458 0.0899,-0.14552 -0.0678,-0.26458 -0.35042,-0.26458 -0.52996,0 -0.92262,1.06487 -0.65235,1.76916 0.16671,0.43446 0.92537,0.45136 1.34673,0.03 0.23629,-0.23629 0.3175,-0.23867 0.3175,-0.009 0,0.25406 -0.78361,0.85597 -1.11436,0.85597 -0.05,0 -0.35543,-0.18534 -0.67885,-0.41187 z m 2.65361,0.20564 c -0.50588,-0.0808 -0.55244,-0.17419 -0.31139,-0.6246 0.19627,-0.36673 0.20035,-0.7679 0.0133,-1.30458 -0.23537,-0.67517 -0.20706,-0.775 0.2197,-0.775 0.3821,0 1.01814,2.57318 0.68931,2.78866 -0.009,0.006 -0.28374,-0.0322 -0.61089,-0.0845 z m 3.9021,-0.32293 c -0.60913,-0.60913 -0.66339,-1.25622 -0.16086,-1.91823 0.46762,-0.61601 1.65788,-0.59729 1.99432,0.0314 0.33484,0.62566 0.12949,0.82854 -0.83863,0.82854 -0.58966,0 -0.74847,0.108 -0.6808,0.46302 0.0948,0.49742 1.27347,0.82056 1.27347,0.34913 0,-0.15564 0.14883,-0.27902 0.33073,-0.27418 0.36564,0.01 -0.77745,1.04953 -1.15379,1.04953 -0.1294,0 -0.4734,-0.23813 -0.76444,-0.52917 z m 1.32291,-1.71979 c 0,-0.22049 -0.23518,-0.39687 -0.52916,-0.39687 -0.29398,0 -0.52917,0.17638 -0.52917,0.39687 0,0.22049 0.23519,0.39688 0.52917,0.39688 0.29398,0 0.52916,-0.17639 0.52916,-0.39688 z m 0.90412,1.94889 c -0.0779,-0.126 -0.0155,-0.2291 0.1386,-0.2291 0.39393,0 0.3607,-3.25325 -0.0373,-3.65125 -0.24694,-0.24694 -0.18815,-0.3175 0.26458,-0.3175 0.52469,0 0.58296,0.13697 0.59089,1.38906 l 0.009,1.38907 0.49663,-0.59532 c 0.27314,-0.32742 0.71567,-0.59266 0.98338,-0.58942 0.41697,0.005 0.39379,0.0773 -0.16166,0.50421 -0.67708,0.52036 -0.58251,0.89831 0.44365,1.77289 0.27859,0.23745 0.21036,0.32538 -0.3331,0.42927 -0.47595,0.091 -0.64491,0.0302 -0.55649,-0.20023 0.13013,-0.33914 -0.29938,-0.92453 -0.67836,-0.92453 -0.34377,0 -0.24139,0.73972 0.11907,0.86021 0.1819,0.0608 5.3e-4,0.17383 -0.40319,0.25115 -0.40366,0.0773 -0.79764,0.0375 -0.87551,-0.0885 z m 36.78343,-0.0813 c -0.60689,-0.45066 -0.26851,-1.2862 0.5731,-1.41514 0.486,-0.0745 0.48634,-0.0652 0.0113,0.31313 -0.52328,0.41673 -0.38778,0.95422 0.24055,0.95422 0.26841,0 0.38125,-0.31324 0.38125,-1.05833 0,-1.01456 -0.58999,-1.5373 -0.85107,-0.75406 -0.0558,0.16734 -0.26025,0.25133 -0.45436,0.18662 -0.27676,-0.0922 -0.25799,-0.21258 0.087,-0.55752 0.76413,-0.76414 1.59976,-0.21944 1.69765,1.10658 0.069,0.93547 0.1435,1.06391 0.46302,0.79873 0.27022,-0.22427 0.38073,-0.22978 0.38073,-0.019 0,0.16333 0.11906,0.29697 0.26458,0.29697 0.38723,0 0.32583,-2.04785 -0.0661,-2.20602 -0.1819,-0.0734 0.29435,-0.14285 1.05833,-0.15434 1.47432,-0.0222 1.57242,0.0934 1.42573,1.68004 -0.026,0.28067 0.10401,0.61108 0.28881,0.73425 0.19307,0.1287 -0.64417,0.19777 -1.9683,0.16239 -1.26735,-0.0339 -2.38853,0.0227 -2.49149,0.12564 -0.27048,0.27047 -0.46339,0.23448 -1.04064,-0.19417 z m 4.64579,-1.22552 c 0,-0.88345 -0.0835,-1.06192 -0.46302,-0.98999 -0.73839,0.13993 -0.81495,2.06772 -0.0821,2.06772 0.46124,0 0.54514,-0.16586 0.54514,-1.07773 z m 5.5544,1.15249 c -1.02869,-0.72052 -0.39915,-2.45601 0.89091,-2.45601 0.75994,0 0.96553,-0.68541 0.38094,-1.27 -0.24695,-0.24694 -0.18815,-0.3175 0.26458,-0.3175 0.54798,0 0.58208,0.11626 0.58208,1.98438 0,1.33551 0.10094,1.98437 0.30869,1.98437 0.16977,0 0.22303,0.0856 0.11836,0.19032 -0.33944,0.33943 -2.00384,0.26388 -2.54556,-0.11556 z m 1.48055,-0.73562 c 0.22551,-0.89853 -0.0316,-1.4558 -0.67161,-1.4558 -0.5711,0 -0.98638,1.00323 -0.71164,1.71919 0.25301,0.65933 1.19677,0.47962 1.38325,-0.26339 z m 4.78001,0.70617 c -0.93164,-1.02944 -0.39696,-2.42656 0.92865,-2.42656 1.2708,0 1.75578,1.75292 0.69127,2.49854 -0.76189,0.53365 -1.08482,0.5193 -1.61992,-0.072 z m 1.5465,-1.10364 c 0,-1.10645 -1.00757,-1.52276 -1.31803,-0.54459 -0.27868,0.87804 0.0899,1.64558 0.74544,1.5522 0.46246,-0.0659 0.57259,-0.25968 0.57259,-1.00761 z m 1.752,1.22069 c -0.40481,-0.50269 -0.48933,-2.54361 -0.10535,-2.54361 0.22387,0 0.33772,0.40137 0.33772,1.19063 0,1.32382 1.02194,1.88213 1.08967,0.59531 0.0405,-0.77053 0.0395,-0.77864 -0.17233,-1.32292 -0.1368,-0.35148 -0.0459,-0.46302 0.37727,-0.46302 0.47206,0 0.55748,0.15884 0.55748,1.03669 0,0.57019 0.066,1.2088 0.14675,1.41913 0.18145,0.47285 -1.85655,0.55304 -2.23121,0.0878 z m -120.483777,-0.0979 c -0.27124,-0.0605 -0.459536,-0.3418 -0.454607,-0.67917 0.0078,-0.5351 0.03332,-0.5431 0.359899,-0.11289 0.374608,0.49348 1.219187,0.63566 1.219187,0.20523 0,-0.14179 -0.357187,-0.4425 -0.79375,-0.66825 -1.194864,-0.61789 -0.769728,-1.99976 0.492027,-1.59929 0.543661,0.17255 0.998995,0.93783 0.558004,0.93783 -0.140954,0 -0.256281,-0.11906 -0.256281,-0.26458 0,-0.14553 -0.238125,-0.26459 -0.529167,-0.26459 -0.799025,0 -0.634597,0.44065 0.283906,0.76084 1.407946,0.49081 0.611386,2.01728 -0.879218,1.68487 z m 11.1125,0.017 c -0.583126,-0.15143 -0.604097,-1.03453 -0.03217,-1.35459 0.294571,-0.16486 0.336415,-0.29948 0.132292,-0.42564 -0.470533,-0.29081 -0.348753,-0.8722 0.213489,-1.01923 0.866537,-0.2266 1.604116,0.51092 1.608667,1.60854 0.003,0.72833 0.06937,0.87612 0.260533,0.58032 0.219188,-0.33917 0.257069,-0.32956 0.260532,0.0661 0.0028,0.31444 -0.201263,0.46302 -0.635767,0.46302 -0.351901,0 -0.798386,0.0454 -0.992188,0.10085 -0.193804,0.0555 -0.560728,0.0467 -0.81539,-0.0194 z m 1.124479,-0.87519 c 0,-0.59973 -0.274375,-0.67812 -0.740833,-0.21166 -0.466458,0.46645 -0.388067,0.74083 0.211667,0.74083 0.352777,0 0.529166,-0.17639 0.529166,-0.52917 z m 0,-1.19062 c 0,-0.21828 -0.178593,-0.39688 -0.396875,-0.39688 -0.218281,0 -0.396875,0.1786 -0.396875,0.39688 0,0.21828 0.178594,0.39687 0.396875,0.39687 0.218282,0 0.396875,-0.17859 0.396875,-0.39687 z m 6.787883,1.7651 c -0.857427,-0.94745 -0.204041,-2.42656 1.071909,-2.42656 1.111671,0 1.694202,1.55851 0.884992,2.36772 -0.671812,0.67181 -1.382826,0.69319 -1.956901,0.0588 z m 1.546492,-1.10364 c 0,-1.41888 -1.024183,-1.34102 -1.141682,0.0868 -0.07624,0.92645 -0.0311,1.00544 0.529167,0.92604 0.507095,-0.0719 0.612515,-0.24619 0.612515,-1.01284 z m 1.706423,0.39152 c -0.341593,-0.72466 -0.666846,-1.40686 -0.722778,-1.516 -0.05594,-0.10914 0.133096,-0.19844 0.420071,-0.19844 0.393139,0 0.567502,0.24377 0.707276,0.98884 0.176691,0.94185 0.203845,0.96386 0.571283,0.46303 0.212175,-0.28921 0.337971,-0.71017 0.279543,-0.93546 -0.06564,-0.25311 0.08117,-0.42375 0.384207,-0.44658 0.477885,-0.036 0.688541,0.32719 0.291996,0.50343 -0.10914,0.0485 -0.448656,0.62157 -0.754478,1.27347 l -0.556043,1.18526 z m 2.432452,0.96071 c -0.537874,-0.34132 -0.115128,-1.32275 0.652783,-1.51549 0.656359,-0.16473 0.742936,-0.63771 0.152744,-0.83444 -0.172808,-0.0576 -0.314193,0.0838 -0.314193,0.31419 0,0.23041 -0.127794,0.41892 -0.283983,0.41892 -0.156191,0 -0.243858,-0.20836 -0.194815,-0.46302 0.199842,-1.0377 1.659514,-0.5833 1.752518,0.54557 0.08801,1.06821 0.644729,1.24762 0.791583,0.25509 0.184579,-1.24751 2.432614,-1.92162 2.432614,-0.72947 0,0.5213 -0.258379,0.49496 -0.698437,-0.0712 -0.342249,-0.44032 -0.377984,-0.43972 -0.728787,0.0123 -0.730551,0.94133 0.118216,2.3471 0.95816,1.58696 0.51898,-0.46967 0.656952,-0.10704 0.151564,0.39835 -0.435917,0.43592 -1.138262,0.39816 -1.53729,-0.0826 -0.26043,-0.3138 -0.413798,-0.33232 -0.71078,-0.0859 -0.479517,0.39797 -1.951662,0.55026 -2.423681,0.25073 z m 1.285084,-0.86068 c 0,-0.42818 -0.08504,-0.46466 -0.529167,-0.22697 -0.535448,0.28656 -0.659458,0.57526 -0.371006,0.86371 0.298653,0.29866 0.900173,-0.12683 0.900173,-0.63674 z m 3.96875,0.83136 c 0,-0.14552 0.134546,-0.26458 0.298992,-0.26458 0.197856,0 0.253598,-0.40274 0.164793,-1.19063 -0.101409,-0.89971 -0.04517,-1.19062 0.230175,-1.19062 0.247446,0 0.364373,0.33267 0.364373,1.03669 0,0.57018 0.07227,1.22503 0.1606,1.45521 0.121137,0.31568 -0.0089,0.41852 -0.529167,0.41852 -0.379373,0 -0.689766,-0.11907 -0.689766,-0.26459 z m 19.837204,-0.4141 c -0.14192,-0.37327 -0.25804,-0.78149 -0.25804,-0.90714 0,-0.12565 -0.18709,-0.41556 -0.41577,-0.64423 -0.37798,-0.37798 -0.3525,-0.41578 0.2802,-0.41578 0.38534,0 0.62472,0.11529 0.53633,0.25831 -0.0878,0.14207 0.0133,0.58836 0.22465,0.99176 l 0.38429,0.73345 0.18606,-0.99176 c 0.1045,-0.55703 0.34068,-0.99176 0.53882,-0.99176 0.2677,0 0.22019,0.31902 -0.19701,1.32292 -0.6181,1.4873 -0.90422,1.63136 -1.27953,0.64423 z m 9.20082,0.50346 c 0.18385,-0.0742 0.33073,-0.58387 0.33073,-1.14769 0,-0.56383 -0.14688,-1.0735 -0.33073,-1.14769 -0.1819,-0.0734 0.16826,-0.14285 0.77813,-0.15434 0.60988,-0.0115 1.19404,0.11693 1.29815,0.28537 0.12886,0.20851 0.0126,0.26007 -0.36418,0.16153 -0.80705,-0.21105 -1.30153,1.68806 -0.52148,2.00282 0.1819,0.0734 -0.086,0.13345 -0.59531,0.13345 -0.50932,0 -0.77721,-0.06 -0.59531,-0.13345 z m 32.26536,-0.29611 c -0.95126,-1.05112 0.21504,-2.98414 1.36344,-2.25975 0.69585,0.43893 0.55257,1.26499 -0.22042,1.27088 -0.41252,0.003 -0.69036,0.17747 -0.74716,0.46882 -0.13485,0.69165 0.74139,0.9154 1.20133,0.30677 0.3741,-0.49505 0.38039,-0.49455 0.29021,0.0231 -0.12553,0.72058 -1.30025,0.83892 -1.8874,0.19013 z m 1.33672,-1.71148 c -0.0606,-0.1819 -0.26899,-0.33073 -0.46302,-0.33073 -0.19403,0 -0.40238,0.14883 -0.46302,0.33073 -0.0656,0.19674 0.122,0.33073 0.46302,0.33073 0.34102,0 0.5286,-0.13399 0.46302,-0.33073 z m 1.29778,1.69896 c -0.84117,-0.92948 -0.23907,-2.16198 1.05617,-2.16198 0.58556,0 0.6525,-0.0973 0.57641,-0.83764 -0.0516,-0.50184 0.0465,-0.88192 0.24464,-0.94809 0.2447,-0.0817 0.33073,0.39774 0.33073,1.84306 0,1.16662 0.12789,2.0814 0.3175,2.27101 0.24694,0.24694 0.0503,0.3175 -0.88503,0.3175 -0.82898,0 -1.33856,-0.15031 -1.64042,-0.48386 z m 1.62984,-0.92806 c 0.0762,-0.92415 0.0309,-1.00322 -0.52916,-0.92385 -0.63153,0.0895 -0.9388,0.91944 -0.63425,1.7131 0.30486,0.79444 1.07594,0.27133 1.16341,-0.78925 z m 1.37186,1.14733 c 0,-0.14552 0.11906,-0.26458 0.26458,-0.26458 0.38548,0 0.32471,-1.78373 -0.0661,-1.94144 -0.1819,-0.0734 0.23855,-0.14285 0.93434,-0.15434 1.35414,-0.0224 1.37913,0.003 1.60616,1.63276 0.1307,0.93827 0.0996,0.99105 -0.57276,0.9713 -0.39103,-0.0115 -0.56214,-0.0809 -0.38024,-0.15434 0.55665,-0.22462 0.43133,-2.26467 -0.13229,-2.15349 -0.35359,0.0697 -0.46302,0.3558 -0.46302,1.21036 0,0.9842 -0.0717,1.119 -0.59532,1.1187 -0.32742,-1.9e-4 -0.59531,-0.11941 -0.59531,-0.26493 z m 10.00125,-0.0529 c 0.17463,-0.17463 0.3175,-0.62707 0.3175,-1.00542 0,-0.37836 -0.14287,-0.83079 -0.3175,-1.00542 -0.24694,-0.24694 -0.19382,-0.3175 0.23905,-0.3175 0.47925,0 0.56928,0.18375 0.64823,1.32308 0.0868,1.25268 0.0572,1.32308 -0.55655,1.32292 -0.50418,-1.3e-4 -0.57767,-0.0707 -0.33073,-0.31766 z m 7.73587,-0.5424 c -0.17532,-0.47294 -0.4289,-1.06826 -0.56351,-1.32292 -0.19774,-0.37407 -0.13421,-0.46302 0.33075,-0.46302 0.31653,0 0.50585,0.0697 0.42072,0.15479 -0.0851,0.0851 -0.0283,0.51761 0.12629,0.96106 l 0.28107,0.80628 0.33021,-0.617 c 0.18161,-0.33936 0.2708,-0.77184 0.19818,-0.96107 -0.0844,-0.21987 0.084,-0.34406 0.46646,-0.34406 0.5438,0 0.56245,0.0423 0.20417,0.46302 -0.21687,0.25466 -0.54742,0.84998 -0.73457,1.32292 -0.18714,0.47294 -0.43043,0.8599 -0.54064,0.8599 -0.11021,0 -0.34382,-0.38696 -0.51913,-0.8599 z m -112.39311,0.28974 c -1.058963,-1.05896 0.427561,-3.19902 1.529434,-2.20183 0.810202,0.73322 0.656418,1.18449 -0.403653,1.18449 -0.655193,0 -0.926042,0.1185 -0.926042,0.40517 0,0.57095 0.76632,0.79758 1.386753,0.41011 0.424039,-0.26482 0.501107,-0.2602 0.407598,0.0244 -0.153381,0.46682 -1.578009,0.59376 -1.99409,0.17767 z m 1.45651,-1.61266 c -0.06063,-0.1819 -0.328526,-0.33073 -0.595313,-0.33073 -0.266787,0 -0.534678,0.14883 -0.595312,0.33073 -0.06982,0.20947 0.14846,0.33073 0.595312,0.33073 0.446852,0 0.665134,-0.12126 0.595313,-0.33073 z m 0.859896,1.68448 c 0,-0.1453 0.113519,-0.33434 0.252264,-0.42009 0.138745,-0.0857 0.504039,-0.5095 0.811765,-0.94166 l 0.559504,-0.78575 h -0.547185 c -0.309996,0 -0.547182,0.17203 -0.547182,0.39688 0,0.21828 -0.119062,0.39687 -0.264583,0.39687 -0.403926,0 -0.315029,-0.791 0.107103,-0.95299 0.204431,-0.0784 0.749956,-0.10447 1.212284,-0.0578 l 0.840595,0.0848 -0.817068,1.12448 c -0.832821,1.14616 -0.445887,1.74918 0.424434,0.66146 0.347414,-0.4342 0.365556,-0.43009 0.291467,0.0661 -0.08457,0.56642 -2.323398,0.97856 -2.323398,0.42771 z m 2.84427,0.0585 c 0.410512,-0.16564 0.436407,-1.72992 0.03528,-2.13105 -0.217545,-0.21755 0.02291,-0.29545 0.911945,-0.29545 1.390769,0 1.659903,0.23899 1.812565,1.60954 0.09587,0.8607 0.03842,0.99219 -0.433573,0.99219 -0.484139,0 -0.533437,-0.13393 -0.447413,-1.21554 0.08494,-1.06802 0.03701,-1.20422 -0.39497,-1.12231 -0.606234,0.11495 -0.851328,1.7662 -0.312832,2.10762 0.225586,0.14302 0.02058,0.21613 -0.575686,0.20529 -0.509323,-0.009 -0.777214,-0.0769 -0.595313,-0.15029 z m 6.630938,-0.75445 c 0.0597,-0.51133 -0.02773,-1.09388 -0.194279,-1.29456 -0.252907,-0.30474 0.02553,-0.36332 1.689394,-0.35543 2.205784,0.0104 2.40959,0.13629 2.571234,1.58748 0.102481,0.92003 0.06147,0.99067 -0.563956,0.9713 -0.370962,-0.0115 -0.525648,-0.0809 -0.343747,-0.15434 0.387337,-0.15629 0.433088,-1.36984 0.07311,-1.93922 -0.178411,-0.2822 -0.330811,-0.31337 -0.534797,-0.10938 -0.459764,0.45976 -0.5975,1.75365 -0.212667,1.99776 0.233231,0.14794 0.130509,0.21927 -0.319743,0.22202 -0.624324,0.004 -0.657791,-0.066 -0.568669,-1.18657 0.05283,-0.66425 -0.01974,-1.19063 -0.164134,-1.19063 -0.508405,0 -0.911612,0.80219 -0.796709,1.58508 0.08904,0.60665 0.01445,0.79617 -0.313359,0.79617 -0.336198,0 -0.406495,-0.20317 -0.32168,-0.92968 z m -71.91687544,0.0957 c 0,-0.60569 0.23942,-0.62446 0.65829704,-0.0516 0.175868,0.24051 0.456884,0.35255 0.624481,0.24897 0.416182,-0.25721 0.385847,-0.95085 -0.04158,-0.95085 -0.190468,0 -0.572927,-0.16571 -0.849909,-0.36824 -0.63742504,-0.4661 -0.13329004,-1.21926 0.816121,-1.21926 0.646184,0 1.097814,0.43866 0.767239,0.74521 -0.107254,0.0995 -0.248161,0.032 -0.313126,-0.1499 -0.141282,-0.39559 -1.132353,-0.44775 -1.132353,-0.0596 0,0.14912 0.300707,0.38546 0.668238,0.52519 1.348966,0.51288 1.038797,1.83256 -0.420957,1.79106 -0.57077904,-0.0162 -0.77644804,-0.15158 -0.77644804,-0.51098 z m 2.91041704,0.28954 c -0.363803,-0.10809 -0.497146,-0.2084 -0.29632,-0.2229 0.271482,-0.0196 0.332202,-0.3186 0.236726,-1.16565 -0.12827,-1.13801 -0.127428,-1.1393 0.759341,-1.16444 0.596825,-0.0169 0.887753,0.0963 0.887753,0.34553 0,0.20387 -0.119063,0.37068 -0.264584,0.37068 -0.145521,0 -0.264583,-0.12609 -0.264583,-0.2802 0,-0.15411 -0.119063,-0.20661 -0.264583,-0.11667 -0.373816,0.23103 -0.330014,1.91846 0.05311,2.04617 0.612971,0.20433 -0.191078,0.38233 -0.846864,0.18748 z m 2.166474,-0.16609 c -0.488648,-0.38083 0.358505,-1.4061 1.161825,-1.4061 0.21064,0 0.296257,-0.16419 0.206964,-0.39688 -0.175404,-0.4571 -0.92283,-0.54717 -0.823284,-0.0992 0.03638,0.16371 -0.09405,0.35602 -0.289852,0.42735 -0.234328,0.0854 -0.323831,-0.039 -0.261881,-0.3638 0.257369,-1.34948 2.070945,-0.53926 2.077139,0.92796 0.003,0.71709 0.06891,0.85943 0.2605307,0.56292 0.227983,-0.35278 0.258126,-0.35278 0.271285,0 0.01493,0.40013 1.580799,-1.22801 1.580799,-1.64365 0,-0.4702 -0.828242,-0.16505 -1.050089,0.38688 -0.230009,0.57223 -0.239936,0.5671 -0.256057,-0.13229 -0.01556,-0.67528 0.05934,-0.72761 1.041562,-0.72761 1.2401967,0 1.2785557,0.12787 0.3968747,1.32292 -0.7958257,1.07868 -0.7932817,1.05833 -0.1322907,1.05833 0.2939807,0 0.5291657,-0.17639 0.5291657,-0.39687 0,-0.21828 0.119063,-0.39688 0.264584,-0.39688 0.32649,0 0.332145,0.2773 0.01585,0.77717 -0.327162,0.51704 -4.3544704,0.59751 -4.9931244,0.0998 z m 1.37714,-0.41698 c 0.329146,-0.5218 0.07543,-0.85002 -0.489495,-0.63324 -0.472341,0.18125 -0.566785,1.32855 -0.09646,1.17177 0.171505,-0.0572 0.435185,-0.2995 0.585955,-0.53853 z m 6.1136764,0.59838 c -0.08994,-0.14553 -0.03743,-0.26459 0.116677,-0.26459 0.359577,0 0.366707,-1.65974 0.0087,-2.01778 -0.185651,-0.18565 0.356779,-0.27553 1.71504,-0.28419 2.24472,-0.0143 2.42191,0.10343 2.568617,1.70666 0.09368,1.02374 0.04894,1.12448 -0.499406,1.12448 -0.331267,0 -0.602304,-0.11906 -0.602304,-0.26458 0,-0.14553 0.119063,-0.26459 0.264583,-0.26459 0.342277,0 0.335724,-1.33678 -0.0091,-1.85208 -0.229856,-0.34352 -0.318242,-0.32783 -0.657407,0.11671 -0.473408,0.6205 -0.507521,1.51386 -0.07435,1.94704 0.246944,0.24694 0.167381,0.3175 -0.358036,0.3175 -0.651203,0 -0.670957,-0.0477 -0.548421,-1.32292 0.126406,-1.31553 -0.07443,-1.61203 -0.681043,-1.00541 -0.392096,0.39209 -0.421268,1.79916 -0.0373,1.79916 0.154109,0 0.206614,0.11906 0.116677,0.26459 -0.08994,0.14552 -0.387593,0.26458 -0.661458,0.26458 -0.273865,0 -0.571522,-0.11906 -0.661459,-0.26458 z m 5.332269,0.0847 c -0.448337,-0.44833 -0.126351,-1.18678 0.63288,-1.45145 0.785381,-0.27379 0.934091,-0.74322 0.302169,-0.95386 -0.172806,-0.0576 -0.314193,0.0937 -0.314193,0.33624 0,0.45065 -0.555979,0.45349 -0.584673,0.003 -0.08614,-1.35236 1.716409,-0.59103 1.93619,0.81777 0.08849,0.56723 0.177788,0.87547 0.198438,0.68498 0.02065,-0.19049 0.162389,-0.26919 0.314976,-0.17489 0.191391,0.11829 0.192545,0.27375 0.0037,0.50127 -0.289566,0.3489 -2.196093,0.53037 -2.489509,0.23695 z m 1.366863,-0.83302 c 0.0465,-0.31603 -0.02822,-0.57459 -0.166041,-0.57459 -0.405841,0 -0.905506,0.74565 -0.710788,1.06071 0.272942,0.44163 0.781829,0.1595 0.876829,-0.48612 z m 1.977374,0.69353 c -0.360227,-0.45527 -0.621489,-2.59104 -0.316954,-2.59104 0.131674,0 0.239407,-0.17859 0.239407,-0.39687 0,-0.21828 0.119062,-0.39688 0.264583,-0.39688 0.145521,0 0.264584,0.16867 0.264584,0.37483 0,0.20615 0.148828,0.43521 0.330729,0.50902 0.259626,0.10535 0.255689,0.18698 -0.01831,0.37971 -0.219748,0.15457 -0.313555,0.62756 -0.253244,1.27692 0.09383,1.01024 0.102293,1.01783 0.412548,0.36994 l 0.316754,-0.66146 -0.06351,0.65875 c -0.07042,0.73044 -0.756126,1.00847 -1.176587,0.47708 z m 2.371833,-0.0113 c -0.463639,-0.58695 -0.599011,-2.57969 -0.175244,-2.57969 0.263409,0 0.371697,0.34232 0.371697,1.17501 0,1.27592 0.331825,1.6994 0.937631,1.19662 0.43294,-0.3593 0.530103,-1.84246 0.120703,-1.84246 -0.145521,0 -0.264584,-0.11906 -0.264584,-0.26458 0,-0.14553 0.227105,-0.26459 0.50468,-0.26459 0.424376,0 0.519102,0.23161 0.595312,1.45557 l 0.09063,1.45557 -0.959792,-2.6e-4 c -0.527883,-2e-4 -1.077351,-0.14919 -1.221036,-0.33109 z m 2.78937,0.0132 c 0.391967,-0.39197 0.422182,-2.06375 0.0373,-2.06375 -0.154109,0 -0.207799,-0.11715 -0.119311,-0.26032 0.236199,-0.38218 1.793473,-0.188 1.936636,0.24149 0.08168,0.24504 -0.01458,0.31511 -0.288502,0.20999 -0.238424,-0.0915 -0.475842,0.011 -0.565269,0.24406 -0.263718,0.68724 -0.169616,1.63112 0.176541,1.7708 0.181901,0.0734 -0.08004,0.14285 -0.582084,0.15434 -0.709964,0.0162 -0.842256,-0.0497 -0.595312,-0.29661 z m 2.562466,-0.0369 c -0.234236,-0.70845 0.04632,-2.1282 0.473842,-2.39787 0.757896,-0.47807 1.368549,0.12412 1.476745,1.45627 0.07397,0.91083 0.141799,1.0487 0.312132,0.63451 0.213418,-0.51894 0.217982,-0.51847 0.236217,0.0242 0.02114,0.6289 -2.297739,0.89137 -2.498936,0.28284 z m 1.414044,-0.53259 c 0.06732,-0.34954 -0.04126,-0.45812 -0.390797,-0.3908 -0.266206,0.0513 -0.525958,0.31102 -0.577223,0.57722 -0.06732,0.34954 0.04126,0.45811 0.390797,0.3908 0.266206,-0.0513 0.525958,-0.31102 0.577223,-0.57722 z m -0.08713,-1.22971 c 0,-0.62966 -0.806434,-0.62207 -0.8539,0.008 -0.02934,0.38947 0.0913,0.52845 0.406082,0.46783 0.246301,-0.0474 0.447818,-0.26158 0.447818,-0.47588 z m 1.666875,1.79917 c 0.383114,-0.38312 0.426207,-2.06375 0.05292,-2.06375 -0.145521,0 -0.264584,-0.10728 -0.264584,-0.2384 0,-0.31599 1.892943,-0.27618 2.315105,0.0487 0.181901,0.13997 0.330729,0.70625 0.330729,1.25839 0,0.55555 0.147706,1.06349 0.330729,1.13734 0.181901,0.0734 -0.08599,0.13345 -0.595313,0.13345 -0.509323,0 -0.777213,-0.06 -0.595312,-0.13345 0.375716,-0.1516 0.456332,-2.09716 0.09613,-2.31978 -0.437367,-0.27031 -0.883013,0.63103 -0.773938,1.56532 0.09855,0.84415 0.0477,0.92969 -0.552712,0.92969 -0.514303,0 -0.590691,-0.0706 -0.343747,-0.3175 z m 3.549571,-0.0132 c -0.55956,-0.67961 -0.346604,-3.37344 0.266679,-3.37344 0.144118,0 0.191746,0.18316 0.105838,0.40703 -0.101145,0.26358 0.05206,0.49079 0.434713,0.64469 l 0.590907,0.23766 -0.595312,0.0168 c -0.44862,0.0126 -0.595313,0.17443 -0.595313,0.65659 0,1.35626 0.652974,2.01667 0.871609,0.88154 0.09831,-0.51042 0.119801,-0.49156 0.150694,0.13229 0.03922,0.7921 -0.706313,1.03269 -1.229815,0.39687 z m 2.292831,-0.13229 c -0.01725,-0.25466 -0.01233,-0.6105 0.0109,-0.79076 0.02323,-0.18025 -0.07953,-0.5553 -0.228391,-0.83345 -0.202218,-0.37785 -0.17807,-0.54123 0.09551,-0.64622 0.547293,-0.21001 0.682479,0.0558 0.682479,1.34174 0,0.96743 0.07883,1.15099 0.463021,1.07821 0.579845,-0.10984 0.804598,-1.77217 0.28421,-2.1021 -0.249301,-0.15806 -0.178646,-0.2233 0.244957,-0.22618 0.528113,-0.004 0.595312,0.12785 0.595312,1.16452 0,0.6873 0.13621,1.22354 0.330729,1.30203 0.181901,0.0734 -0.294349,0.14285 -1.058333,0.15434 -1.143265,0.0172 -1.394611,-0.061 -1.42041,-0.44213 z m 50.566766,-2.36538 c 0,-0.14552 0.238125,-0.48009 0.529166,-0.74348 0.291042,-0.26339 0.529175,-0.35982 0.529175,-0.2143 0,0.14552 -0.238133,0.48008 -0.529175,0.74347 -0.291041,0.26339 -0.529166,0.35983 -0.529166,0.21431 z m 24.791792,0.0153 c -0.34016,-0.34016 -0.19181,-0.49421 0.47592,-0.49421 0.3638,0 0.62183,0.11906 0.57339,0.26458 -0.10942,0.32873 -0.79925,0.47969 -1.04931,0.22963 z m 2.72488,-0.36192 c 0.27965,-0.52254 0.79375,-0.72818 0.79375,-0.3175 0,0.27825 -0.57466,0.84667 -0.85597,0.84667 -0.12154,0 -0.0935,-0.23813 0.0622,-0.52917 z m 43.65625,0 c 0.27966,-0.52254 0.79375,-0.72818 0.79375,-0.3175 0,0.27825 -0.57466,0.84667 -0.85597,0.84667 -0.12154,0 -0.0935,-0.23813 0.0622,-0.52917 z m 5.55625,0.29698 c 0,-0.33834 0.77798,-0.93012 0.97014,-0.73795 0.19217,0.19216 -0.39961,0.97014 -0.73795,0.97014 -0.1277,0 -0.23219,-0.10449 -0.23219,-0.23219 z m -17.72708,-0.42927 c 0,-0.24254 0.12799,-0.39831 0.28442,-0.34617 0.15644,0.0522 0.28443,0.20792 0.28443,0.34617 0,0.13824 -0.12799,0.29402 -0.28443,0.34616 -0.15643,0.0521 -0.28442,-0.10363 -0.28442,-0.34616 z M 38.857677,52.185228 c -0.09164,-0.23881 -0.03975,-0.56108 0.115308,-0.71614 0.403122,-0.40312 1.166921,-0.0347 1.06162,0.5121 -0.11729,0.60904 -0.96511,0.75603 -1.176928,0.20404 z m 0.815716,-0.42124 c -0.08519,-0.13784 -0.267666,-0.18092 -0.405506,-0.0957 -0.13784,0.0852 -0.180917,0.26767 -0.09573,0.40551 0.08519,0.13784 0.267666,0.18092 0.405506,0.0957 0.13784,-0.0852 0.180916,-0.26767 0.09573,-0.40551 z m 35.6308,-4.11341 c -0.988592,-0.69243 -0.553553,-1.94941 0.674693,-1.94941 0.763855,0 1.266433,0.86999 0.899091,1.55637 -0.379558,0.70922 -0.927139,0.84597 -1.573784,0.39304 z m -56.842322,-2.54472 c -0.140749,-0.1819 -0.326808,-0.53029 -0.413464,-0.7742 -0.08666,-0.2439 -1.027873,-0.85603 -2.091594,-1.36027 -6.8954797,-3.26871 -6.9475187,-3.2896 -7.5934357,-3.04797 -1.1663747,0.43633 -2.0791907,-0.94258 -1.2407757,-1.87433 0.650287,-0.72268 -0.555746,-8.51672 -1.42703,-9.22224 -0.962141,-0.7791 -0.418359,-1.95536 0.864029,-1.869 0.737908,0.0497 1.287046,-0.27152 3.5075674,-2.05171 1.447981,-1.16084 3.25777,-2.57725 4.021754,-3.14758 0.919758,-0.68661 1.389063,-1.22821 1.389063,-1.60304 0,-1.35619 1.951988,-1.79323 2.274261,-0.50919 0.08349,0.33266 0.350082,0.66342 0.592418,0.735 0.242337,0.0716 2.877439,0.97381 5.855784,2.00494 3.548475,1.22851 5.504844,1.78509 5.675313,1.61463 0.388858,-0.38886 1.367888,-0.31382 1.738955,0.13329 0.412554,0.4971 0.128606,1.72323 -0.399063,1.72323 -0.319286,0 -0.395499,0.50214 -0.411628,2.71198 -0.01088,1.49159 -0.07604,4.24465 -0.144783,6.1179 -0.117694,3.20716 -0.09338,3.42807 0.416669,3.78532 1.16487,0.81591 0.373234,2.11309 -1.118746,1.83319 -0.713266,-0.13381 -1.630566,0.17451 -5.027414,1.6898 -2.285229,1.01941 -4.27518,1.85348 -4.422113,1.85348 -0.146934,0 -0.267153,0.21431 -0.267153,0.47625 0,0.95918 -1.22456,1.49657 -1.778614,0.78052 z m -2.048173,-3.89101 -1.775124,-2.12826 -2.821441,0.0232 -2.8214397,0.0232 4.4979167,2.19236 c 2.473854,1.2058 4.542308,2.15306 4.596564,2.10502 0.05426,-0.048 -0.700158,-1.04506 -1.676476,-2.2156 z m 8.507525,0.30221 4.019283,-1.76901 -2.564074,-0.1475 c -4.304472,-0.24762 -3.959007,-0.36183 -5.247679,1.735 -0.62604,1.01864 -1.14154,1.95411 -1.145553,2.07883 -0.009,0.27924 0.0049,0.27391 4.938023,-1.89732 z m -6.394286,-1.02585 c -0.14022,-0.93506 -0.275083,-1.1437 -0.75006,-1.1604 -0.318505,-0.0112 -0.955335,-0.041 -1.415178,-0.0662 -0.951646,-0.0521 -0.983436,-0.13493 0.836077,2.17825 1.470191,1.86908 1.724823,1.68676 1.329161,-0.9517 z m 2.079499,0.95767 c 1.221596,-2.05071 1.213397,-2.09771 -0.365951,-2.09771 -1.470839,0 -1.564822,0.22104 -1.153095,2.71198 0.220703,1.33525 0.401202,1.26226 1.519046,-0.61427 z m 6.020921,-3.58085 c -1.996942,-0.95055 -2.551252,-1.117 -2.861717,-0.85933 -0.36441,0.30243 -1.143905,1.61927 -1.143905,1.93246 0,0.08 1.458516,0.1365 3.241146,0.12559 l 3.241146,-0.0198 z m -12.374012,0.62325 c -1.321775,-2.21301 -1.543399,-2.27971 -3.516596,-1.05834 -2.1189897,1.31162 -2.0602967,1.38906 1.052684,1.38906 2.058123,0 2.616669,-0.075 2.463912,-0.33072 z m 4.028896,-0.79375 c -0.583966,-4.73833 -0.550903,-4.68059 -2.092656,-3.65465 -0.609661,0.40569 -1.60012,1.01625 -2.201018,1.35681 l -1.092543,0.6192 1.058186,1.40156 1.058185,1.40155 h 1.704215 1.704215 z m 4.468466,0.0714 c 0.909142,-1.44017 0.959896,-1.36462 -1.754164,-2.6112 -2.877364,-1.32159 -2.658228,-1.44508 -2.441398,1.3758 l 0.175906,2.28847 h 1.67744 c 1.667878,0 1.681228,-0.006 2.342216,-1.05307 z m 5.268666,-1.39432 c -2.189012,-3.18334 -2.054898,-3.09947 -2.876154,-1.79852 -1.078256,1.70807 -1.078402,1.70743 0.545127,2.38035 0.822645,0.34097 1.927709,0.83593 2.455698,1.09992 1.484739,0.74235 1.477788,0.6486 -0.124671,-1.68175 z m 2.275279,-4.21129 c 0,-3.37123 -0.04632,-6.0799 -0.102942,-6.01927 -0.05662,0.0606 -0.73959,1.18181 -1.517713,2.4915 -0.778127,1.30968 -1.535475,2.5751 -1.682996,2.81202 -0.970156,1.55812 -1.02906,1.3096 0.986636,4.16254 1.042493,1.4755 1.990294,2.68273 2.106226,2.68273 0.115936,0 0.210789,-2.75828 0.210789,-6.12952 z m -19.812215,4.91974 c 1.784225,-1.08386 1.807255,-1.1494 0.833012,-2.37037 l -0.722952,-0.90605 -0.9968387,2.03097 c -1.314463,2.67811 -1.361919,2.61146 0.8867787,1.24545 z m -0.42159,-3.30963 c 0.141272,-0.44511 -2.9374294,-4.9413 -3.2021904,-4.67654 -0.08769,0.0877 0.511588,4.56782 0.929247,6.94699 0.1532757,0.87312 0.2866687,1.64703 0.2964287,1.71979 0.02407,0.17943 1.775068,-3.35554 1.9765147,-3.99024 z m 14.644119,0.6603 0.883944,-1.47786 -1.005988,-1.46065 c -1.323609,-1.92182 -1.243208,-1.91755 -3.966007,-0.21041 -2.529668,1.58605 -2.694605,1.75154 -2.17118,2.17847 0.329957,0.26912 4.965001,2.42991 5.238664,2.44218 0.07514,0.003 0.534398,-0.65891 1.020567,-1.47173 z m -9.907977,-0.0256 1.943029,-1.23883 -2.413711,-1.13824 -2.413711,-1.13824 -0.573076,1.1203 c -0.315192,0.61616 -0.495246,1.24099 -0.400119,1.38851 1.715944,2.66106 1.394178,2.57711 3.857588,1.0065 z m 2.790518,-3.25909 c -0.128916,-0.65485 -0.241402,-1.72641 -0.249968,-2.38125 -0.02308,-1.76433 -0.17077,-1.88221 -2.104889,-1.68006 l -1.667892,0.17433 -0.764264,1.61276 -0.764264,1.61276 2.580773,1.22909 c 2.997332,1.42748 3.350005,1.36009 2.970504,-0.56763 z m -6.528452,0.59531 0.400168,-0.99219 -1.9865747,-1.00908 c -2.4771047,-1.25824 -2.4876927,-1.24177 -0.696372,1.08308 1.7057617,2.2138 1.7526317,2.23266 2.2827787,0.91819 z m 16.826899,-2.64017 c 1.033743,-1.77952 1.879531,-3.29 1.879531,-3.35663 0,-0.11206 -5.745176,3.38555 -6.031613,3.67199 -0.07038,0.0704 0.375702,0.79508 0.9913,1.61044 0.615599,0.81535 1.155716,1.44359 1.200262,1.39607 0.04454,-0.0475 0.926779,-1.54235 1.96052,-3.32187 z m -7.335697,1.74531 c 1.212073,-0.74683 2.24841,-1.39671 2.302971,-1.44417 0.05456,-0.0474 -0.338936,-0.74637 -0.874438,-1.55313 l -0.973641,-1.46686 -1.506811,0.16668 c -0.828746,0.0917 -1.612206,0.26282 -1.741021,0.38033 -0.194446,0.17738 0.312836,5.27503 0.524932,5.27503 0.03533,0 1.055935,-0.61104 2.268008,-1.35788 z m -8.261447,-1.84281 c 0.731431,-1.70026 0.743152,-1.69229 -1.974804,-1.34144 -3.0946684,0.39948 -3.1521724,0.50587 -0.8973777,1.66025 2.4365617,1.24743 2.1864597,1.27519 2.8721817,-0.31881 z m 12.234927,-0.59695 c 0.504632,-0.34245 1.771401,-1.12993 2.815048,-1.74994 1.043644,-0.62002 1.897533,-1.18496 1.897533,-1.25543 0,-0.10898 -2.445144,0.10131 -3.704166,0.31856 -0.218282,0.0377 -1.200547,0.15234 -2.182813,0.25482 -2.076672,0.21667 -2.034951,0.13681 -0.926042,1.77256 1.00587,1.48375 0.923733,1.45797 2.10044,0.65943 z m -13.520812,-1.23781 2.271816,-0.29858 1.271329,-2.76363 c 0.699231,-1.51999 1.21269,-2.82226 1.141021,-2.89393 -0.07167,-0.0717 -1.37484,0.85408 -2.895934,2.05721 -1.521095,1.20313 -3.3210797,2.60423 -3.9999677,3.11355 -1.3589167,1.0195 -1.5645317,1.39864 -0.655392,1.20848 0.327422,-0.0685 1.61763,-0.25887 2.8671277,-0.4231 z m 5.484611,-0.67536 c 0.614817,-0.12927 0.658788,-3.31936 0.06823,-4.94998 -0.146958,-0.40577 -1.524023,2.24752 -2.538364,4.89085 -0.144019,0.37531 0.852833,0.39917 2.470135,0.0591 z m 3.802938,-0.89033 c -0.04527,-0.20623 -0.406475,-0.79964 -0.802685,-1.31868 -0.396209,-0.51905 -1.059975,-1.44974 -1.475034,-2.0682 -1.003519,-1.4953 -1.039098,-1.4554 -0.825672,0.92604 0.292941,3.26868 0.216899,3.14357 1.810234,2.9784 1.001124,-0.10378 1.353061,-0.24463 1.293157,-0.51756 z m 5.506261,-0.29725 c 4.231492,-0.47845 4.241276,-0.46458 -1.789332,-2.53595 -3.017691,-1.0365 -5.71574,-1.97784 -5.995665,-2.09187 -0.735618,-0.29966 -0.486947,0.19802 1.456596,2.91515 1.63383,2.28414 1.667828,2.3125 2.602865,2.17058 0.521076,-0.0791 2.197567,-0.28514 3.725536,-0.45791 z m 96.820075,19.31638 c -0.34418,-0.34418 -0.48032,-0.72308 -0.3769,-1.04895 0.16383,-0.51616 -0.61577,-1.62479 -5.29698,-7.53258 -1.03777,-1.30969 -2.7584,-3.48563 -3.82363,-4.83542 -1.06524,-1.3498 -1.98145,-2.40951 -2.03604,-2.35492 -0.0837,0.0837 0.3463,3.55536 0.87413,7.05805 0.0768,0.50932 0.34961,1.16416 0.60634,1.45521 0.75727,0.85847 0.8505,1.1499 0.54843,1.71432 -0.31663,0.59163 -1.30813,0.7111 -1.80209,0.21713 -0.42077,-0.42076 -0.40277,-1.14692 0.0394,-1.58907 0.59053,-0.59054 -0.57655,-8.48138 -1.36276,-9.21385 -1.04758,-0.97596 -0.42812,-2.29582 0.91293,-1.94513 0.55142,0.1442 0.94009,-0.12257 5.99697,-4.11617 1.99541,-1.57586 2.82723,-2.39712 2.82723,-2.79136 0,-1.2689 1.64218,-1.67918 2.16124,-0.53996 0.39519,0.86735 -0.0897,1.46062 -1.20145,1.4701 -0.602,0.005 -1.34764,0.41971 -2.73627,1.52136 -1.04982,0.83286 -2.8727,2.27111 -4.05083,3.1961 -2.6006,2.04183 -2.62138,2.0134 1.09976,1.50473 1.65427,-0.22613 5.80573,-0.76639 9.22547,-1.20058 8.68293,-1.10243 9.26482,-1.21305 9.70787,-1.84558 0.50284,-0.71791 1.29924,-0.67948 1.8014,0.0869 0.80439,1.22764 -0.63768,2.3394 -1.74022,1.34162 -0.47944,-0.4339 -0.70508,-0.44923 -2.43673,-0.16559 -1.0496,0.17192 -3.8729,0.56383 -6.27399,0.87092 -15.17085,1.94027 -14.14126,1.72742 -12.37945,2.55925 0.62406,0.29465 4.94466,2.34788 9.60133,4.56272 10.67902,5.07925 11.20086,5.30869 11.3875,5.00671 0.2927,-0.4736 1.17065,-0.2437 1.60585,0.42051 0.41001,0.62575 0.40779,0.70145 -0.0349,1.19062 -0.76987,0.8507 -1.97824,0.51821 -1.97824,-0.54431 0,-0.4351 -1.14312,-1.02114 -10.58333,-5.42565 -2.25557,-1.05238 -5.74192,-2.69576 -7.74744,-3.65195 -2.00552,-0.9562 -3.55998,-1.59498 -3.45435,-1.41951 0.23971,0.3982 2.32311,3.11629 4.4368,5.78844 0.88309,1.11642 2.73671,3.46442 4.11916,5.2178 1.73022,2.19446 2.68257,3.19036 3.05594,3.19568 1.25438,0.0179 1.63585,1.56598 0.51204,2.07803 -0.56333,0.25667 -0.74798,0.22053 -1.20416,-0.23565 z m 46.78253,0.26082 c -0.25466,-0.14833 -0.46302,-0.50346 -0.46302,-0.78917 0,-0.85036 -8.44384,-4.7981 -9.79913,-4.58138 -1.28846,0.20603 -1.7628,-0.45541 -1.15993,-1.61744 0.63202,-1.21823 -0.4171,-8.57626 -1.35681,-9.51597 -0.85917,-0.85917 -0.51958,-1.7311 0.6742,-1.7311 0.86358,0 1.41402,0.69674 1.05594,1.33659 -0.2308,0.41243 0.56745,1.54365 5.2181,7.39466 1.2145,1.52797 2.77023,3.4916 3.45718,4.36362 3.25188,4.12798 3.02762,4.11935 10.97243,0.4223 2.8737,-1.33726 2.89559,-1.48851 0.66146,-4.57284 -0.90951,-1.25562 -2.2998,-3.21621 -3.08955,-4.35687 -0.78975,-1.14065 -1.87375,-2.66923 -2.40889,-3.39683 -0.53514,-0.72761 -1.54364,-2.15636 -2.24111,-3.175 -2.00258,-2.92477 -2.75384,-3.79577 -3.35118,-3.88533 -0.91223,-0.13677 -1.35878,-1.04176 -0.86316,-1.74934 0.56217,-0.80261 1.37402,-0.73514 1.88589,0.15674 0.57946,1.00965 11.48594,4.82638 12.31395,4.30927 1.12679,-0.70369 2.33555,0.77105 1.45456,1.77463 -0.81688,0.93055 -1.13029,12.37476 -0.35084,12.81096 1.14842,0.64269 0.10799,2.3588 -1.14364,1.88636 -0.72645,-0.2742 -1.90842,0.1414 -6.50551,2.28744 -0.58208,0.27174 -1.56358,0.69409 -2.1811,0.93856 -0.61752,0.24447 -1.06896,0.53154 -1.00322,0.63792 0.43446,0.70297 -0.95916,1.52835 -1.77662,1.05222 z m -0.62341,-2.16162 c -0.18984,-0.32767 -3.71828,-4.83254 -8.51289,-10.86867 -1.36724,-1.72129 -2.52167,-3.09051 -2.56539,-3.04271 -0.0437,0.0478 0.0899,1.15846 0.29689,2.46815 0.20701,1.30969 0.48901,3.09562 0.62668,3.96875 0.13766,0.87312 0.25269,1.72244 0.25561,1.88737 0.003,0.16493 0.23336,0.3595 0.51208,0.43239 0.27871,0.0729 0.5466,0.38349 0.59531,0.69023 0.068,0.42801 1.0731,1.04583 4.32189,2.6565 4.45486,2.20861 4.77756,2.33914 4.46982,1.80799 z m 12.39835,-10.9166 0.13523,-6.08795 -0.69649,-0.81908 c -0.65447,-0.76967 -11.49159,-4.87311 -11.87011,-4.49459 -0.18542,0.18542 0.40856,1.14634 2.40805,3.89568 1.03752,1.42663 2.58032,3.58059 3.42844,4.78659 0.84812,1.20599 2.61574,3.71917 3.92804,5.58483 1.31229,1.86565 2.41875,3.35393 2.4588,3.30729 0.0401,-0.0466 0.13366,-2.8244 0.20804,-6.17277 z m -94.901353,10.83155 c -1.023935,-1.02393 0.149608,-2.38951 1.453703,-1.69158 0.890717,0.4767 0.365424,2.10736 -0.678852,2.10736 -0.197493,0 -0.546177,-0.1871 -0.774851,-0.41578 z m -22.323275,-0.43089 c -0.486071,-0.48607 -0.377788,-1.4837 0.194273,-1.78986 0.759124,-0.40627 1.019225,-0.3415 1.485308,0.36983 0.774422,1.18191 -0.684351,2.41526 -1.679581,1.42003 z m -1.5875,-10.84792 c -0.499102,-0.4991 -0.373957,-1.48575 0.22941,-1.80866 0.62847,-0.33635 1.83434,0.27025 1.83434,0.92274 0,0.93665 -1.408419,1.54126 -2.06375,0.88592 z m 24.197467,-3.34135 c -0.569931,-0.62977 -0.552191,-0.91818 0.09236,-1.50149 0.619003,-0.56019 1.851009,-0.19954 1.851009,0.54186 0,1.30191 -1.129051,1.85944 -1.943367,0.95963 z m -13.780442,-4.69442 c -0.890728,-0.89073 -0.193194,-2.1662 1.018362,-1.86211 0.860489,0.21596 1.129644,1.10848 0.53308,1.76768 -0.560078,0.61888 -1.000207,0.64567 -1.551442,0.0944 z"
       id="path851" />
  </g>
</svg>
