<?xml version="1.0" encoding="UTF-8" standalone="no"?>
<svg
   xmlns:dc="http://purl.org/dc/elements/1.1/"
   xmlns:cc="http://creativecommons.org/ns#"
   xmlns:rdf="http://www.w3.org/1999/02/22-rdf-syntax-ns#"
   xmlns:svg="http://www.w3.org/2000/svg"
   xmlns="http://www.w3.org/2000/svg"
   xmlns:sodipodi="http://sodipodi.sourceforge.net/DTD/sodipodi-0.dtd"
   xmlns:inkscape="http://www.inkscape.org/namespaces/inkscape"
   width="33.252235mm"
   height="19.352074mm"
   viewBox="0 0 33.252235 19.352074"
   version="1.1"
   id="svg8"
   inkscape:version="1.0.1 (3bc2e813f5, 2020-09-07)"
   sodipodi:docname="vidlicka.svg">
  <defs
     id="defs2" />
  <sodipodi:namedview
     id="base"
     pagecolor="#ffffff"
     bordercolor="#666666"
     borderopacity="1.0"
     inkscape:pageopacity="0.0"
     inkscape:pageshadow="2"
     inkscape:zoom="0.31190803"
     inkscape:cx="128.03868"
     inkscape:cy="196.97387"
     inkscape:document-units="mm"
     inkscape:current-layer="layer1"
     inkscape:document-rotation="0"
     showgrid="false"
     inkscape:window-width="634"
     inkscape:window-height="1049"
     inkscape:window-x="3200"
     inkscape:window-y="0"
     inkscape:window-maximized="1"
     fit-margin-top="0"
     fit-margin-left="0"
     fit-margin-right="0"
     fit-margin-bottom="0" />
  <metadata
     id="metadata5">
    <rdf:RDF>
      <cc:Work
         rdf:about="">
        <dc:format>image/svg+xml</dc:format>
        <dc:type
           rdf:resource="http://purl.org/dc/dcmitype/StillImage" />
        <dc:title></dc:title>
      </cc:Work>
    </rdf:RDF>
  </metadata>
  <g
     inkscape:label="Layer 1"
     inkscape:groupmode="layer"
     id="layer1"
     transform="translate(-7.2327747,-7.9258223)">
    <path
       style="fill:#000000;stroke-width:0.264583"
       d="m 36.461585,26.655315 c -0.08729,-0.347776 -0.02952,-0.873707 0.128379,-1.168736 0.392821,-0.733994 0.362836,-0.845837 -0.17594,-0.656251 -0.362085,0.127411 -0.395949,0.09025 -0.155345,-0.170458 0.565727,-0.613005 0.918906,-0.03264 0.733309,1.205007 -0.251746,1.67876 0.547227,1.659456 0.970991,-0.02346 0.164891,-0.654844 0.417637,-1.190625 0.561658,-1.190625 0.240445,0 0.20842,0.290639 -0.218649,1.984375 l -0.133427,0.529167 0.434348,-0.529167 c 0.423786,-0.516303 0.432134,-0.516627 0.343368,-0.01331 -0.150714,0.854576 -2.275435,0.883143 -2.488692,0.03346 z m -4.525446,-1.938378 c -0.250352,-0.400182 -0.47707,-0.763062 -0.50382,-0.8064 -0.02675,-0.04334 -3.770757,-1.433904 -8.320023,-3.090146 -7.746169,-2.820132 -8.309863,-2.986142 -8.877246,-2.614378 -1.183479,0.775445 -2.497214,-0.729851 -1.550221,-1.776266 0.506598,-0.559785 1.306216,-0.672984 1.58359,-0.224184 0.258983,0.419044 0.860427,0.220476 8.585709,-2.834594 3.856302,-1.525028 7.427494,-2.931175 7.935981,-3.12477 0.509715,-0.194062 1.11224,-0.691925 1.342904,-1.109636 0.732872,-1.3271544 2.362782,-0.9896764 2.362782,0.489221 0,0.705179 -1.165172,1.175137 -1.920489,0.774606 -0.540941,-0.286851 -4.870934,1.172481 -8.530553,2.875041 -0.291042,0.135401 -1.719792,0.704906 -3.175,1.265566 -1.455209,0.560659 -3.389974,1.306491 -4.29948,1.657404 -1.546597,0.596721 -2.087642,1.183041 -1.322916,1.433618 0.181901,0.0596 3.783542,1.352536 8.003646,2.873184 9.140791,3.293738 8.775801,3.178692 8.989182,2.833434 0.48048,-0.777435 1.991026,-0.08303 1.991026,0.915279 0,1.320019 -1.561817,1.635109 -2.295072,0.463021 z m 3.882572,0.595313 c 0,-0.07276 0.05953,-0.132292 0.132292,-0.132292 0.07276,0 0.132292,0.05953 0.132292,0.132292 0,0.07276 -0.05953,0.132291 -0.132292,0.132291 -0.07276,0 -0.132292,-0.05953 -0.132292,-0.132291 z m 3.856906,-1.455209 c 0.175596,-0.970262 0.523605,-1.528517 0.788024,-1.264099 0.08571,0.08571 -0.09424,0.613551 -0.399894,1.172986 l -0.555723,1.017155 z M 7.8945591,18.548207 c -0.09577,-0.154963 -0.09317,-0.713314 0.0058,-1.240781 0.166928,-0.889805 0.146618,-0.931537 -0.281385,-0.578145 -0.403494,0.333156 -0.445023,0.331152 -0.331403,-0.01599 0.07144,-0.218282 0.397169,-0.436063 0.723836,-0.483959 0.56316,-0.08257 0.584525,-0.0243 0.412255,1.124479 -0.144937,0.966507 -0.103926,1.211562 0.202762,1.211562 0.497512,0 1.061037,-1.238399 0.856612,-1.882486 -0.08759,-0.275985 -0.03216,-0.498764 0.124111,-0.498764 0.4260899,0 0.338674,1.389433 -0.129465,2.057795 -0.433214,0.618499 -1.287947,0.783867 -1.583107,0.306287 z m 29.4073929,-8.06239 c -0.233698,-0.233698 -0.424907,-0.446953 -0.424907,-0.4739 0,-0.02695 0.110752,-0.435161 0.246113,-0.907143 0.151765,-0.5291664 0.151765,-0.8581494 0,-0.8581494 -0.135361,0 -0.246113,0.119063 -0.246113,0.264583 0,0.145521 -0.133641,0.264584 -0.296979,0.264584 -0.205187,0 -0.195173,-0.122671 0.0324,-0.396875 0.698818,-0.842025 1.102837,-0.477432 0.908323,0.8196854 -0.255873,1.706288 0.68507,1.620359 1.047062,-0.09562 0.130056,-0.6165174 0.338614,-1.1209404 0.463457,-1.1209404 0.277448,0 0.275926,0.131785 -0.01603,1.3890624 -0.213916,0.921179 0.03096,1.408484 0.332388,0.661459 0.0753,-0.186619 0.142555,-0.115528 0.154339,0.16315 0.01614,0.381719 -0.11118,0.459343 -0.560655,0.341802 -0.319849,-0.08364 -0.723955,-0.03389 -0.898011,0.110566 -0.216961,0.180062 -0.450064,0.129043 -0.741371,-0.162264 z"
       id="path861" />
  </g>
</svg>
