<?xml version="1.0" encoding="UTF-8" standalone="no"?>
<!-- Created with Inkscape (http://www.inkscape.org/) -->

<svg
   width="68.763206mm"
   height="77.27153mm"
   viewBox="0 0 68.763207 77.27153"
   version="1.1"
   id="svg5"
   sodipodi:docname="spotify.svg"
   inkscape:version="1.1 (c4e8f9ed74, 2021-05-24)"
   xmlns:inkscape="http://www.inkscape.org/namespaces/inkscape"
   xmlns:sodipodi="http://sodipodi.sourceforge.net/DTD/sodipodi-0.dtd"
   xmlns="http://www.w3.org/2000/svg"
   xmlns:svg="http://www.w3.org/2000/svg">
  <sodipodi:namedview
     id="namedview7"
     pagecolor="#ffffff"
     bordercolor="#666666"
     borderopacity="1.0"
     inkscape:pageshadow="2"
     inkscape:pageopacity="0.0"
     inkscape:pagecheckerboard="0"
     inkscape:document-units="mm"
     showgrid="false"
     inkscape:zoom="1.3131173"
     inkscape:cx="590.96017"
     inkscape:cy="104.33189"
     inkscape:window-width="954"
     inkscape:window-height="1049"
     inkscape:window-x="2880"
     inkscape:window-y="0"
     inkscape:window-maximized="1"
     inkscape:current-layer="layer1"
     fit-margin-top="0"
     fit-margin-left="0"
     fit-margin-right="0"
     fit-margin-bottom="0" />
  <defs
     id="defs2">
    <g
       id="g611">
      <symbol
         overflow="visible"
         id="symbol5738">
        <path
           style="stroke:none"
           d=""
           id="path2927" />
      </symbol>
      <symbol
         overflow="visible"
         id="symbol7561">
        <path
           style="stroke:none"
           d="M 3.984375,-1.34375 C 5.515625,-1.46875 6.625,-2.390625 6.625,-3.40625 6.625,-4.4375 5.5,-5.34375 3.984375,-5.46875 v -0.546875 c 0,-0.34375 0,-0.484375 0.9375,-0.484375 H 5.25 v -0.3125 c -0.359375,0.03125 -1.265625,0.03125 -1.6875,0.03125 -0.40625,0 -1.328125,0 -1.6875,-0.03125 V -6.5 h 0.328125 c 0.953125,0 0.953125,0.125 0.953125,0.484375 V -5.46875 C 1.625,-5.3125 0.5625,-4.390625 0.5625,-3.40625 c 0,1.03125 1.109375,1.90625 2.59375,2.0625 v 0.5625 c 0,0.328125 0,0.46875 -0.953125,0.46875 H 1.875 V 0 c 0.359375,-0.03125 1.28125,-0.03125 1.6875,-0.03125 0.40625,0 1.328125,0 1.6875,0.03125 V -0.3125 H 4.921875 c -0.9375,0 -0.9375,-0.125 -0.9375,-0.46875 z M 3.15625,-1.578125 C 1.734375,-1.765625 1.5625,-2.78125 1.5625,-3.40625 c 0,-0.515625 0.09375,-1.625 1.59375,-1.828125 z M 3.984375,-5.25 c 1.375,0.171875 1.640625,1.078125 1.640625,1.84375 0,0.59375 -0.140625,1.65625 -1.640625,1.84375 z m 0,0"
           id="path1962" />
      </symbol>
    </g>
  </defs>
  <g
     inkscape:label="Layer 1"
     inkscape:groupmode="layer"
     id="layer1"
     transform="translate(-146.36847,-142.68255)">
    <g
       id="g3064"
       transform="matrix(11.342384,0,0,11.342384,-1869.3864,-1875.258)">
      <path
         style="fill:#000000;fill-opacity:1;stroke:none"
         d="m 181.14067,183.38025 c 1.53125,-0.125 2.64063,-1.04688 2.64063,-2.0625 0,-1.03125 -1.125,-1.9375 -2.64063,-2.0625 v -0.54688 c 0,-0.34375 0,-0.48437 0.9375,-0.48437 h 0.32813 v -0.3125 c -0.35938,0.0312 -1.26563,0.0312 -1.6875,0.0312 -0.40625,0 -1.32813,0 -1.6875,-0.0312 v 0.3125 h 0.32812 c 0.95313,0 0.95313,0.125 0.95313,0.48437 v 0.54688 c -1.53125,0.15625 -2.59375,1.07812 -2.59375,2.0625 0,1.03125 1.10937,1.90625 2.59375,2.0625 v 0.5625 c 0,0.32812 0,0.46875 -0.95313,0.46875 h -0.32812 v 0.3125 c 0.35937,-0.0312 1.28125,-0.0312 1.6875,-0.0312 0.40625,0 1.32812,0 1.6875,0.0312 v -0.3125 h -0.32813 c -0.9375,0 -0.9375,-0.125 -0.9375,-0.46875 z m -0.82812,-0.23438 c -1.42188,-0.1875 -1.59375,-1.20312 -1.59375,-1.82812 0,-0.51563 0.0937,-1.625 1.59375,-1.82813 z m 0.82812,-3.67187 c 1.375,0.17187 1.64063,1.07812 1.64063,1.84375 0,0.59375 -0.14063,1.65625 -1.64063,1.84375 z m 0,0"
         id="path2755" />
      <path
         id="path2755-3"
         style="fill:#666666;fill-opacity:1;stroke:none;stroke-width:3.77953"
         d="m 676.6543,672.42188 v 1.0996 a 1.2337946,1.2337946 0 0 0 1.10937,-1.04101 c -0.43376,-0.0154 -0.82479,-0.0339 -1.10937,-0.0586 z m 9.63476,0.10351 c -0.87983,0.0105 -1.71212,0.0109 -2.43945,0.0117 a 1.2337946,1.2337946 0 0 0 -0.0195,0.0996 1.2337946,1.2337946 0 0 0 1.23437,1.23437 1.2337946,1.2337946 0 0 0 1.23438,-1.23437 1.2337946,1.2337946 0 0 0 -0.01,-0.11133 z m -6.23242,0.002 a 1.2337946,1.2337946 0 0 0 -0.71875,1.11328 c 1.46776,0.0919 1.94226,0.36081 2.08984,0.88672 a 1.2337946,1.2337946 0 0 0 0.37696,-0.88672 1.2337946,1.2337946 0 0 0 -0.69141,-1.10742 c -0.34554,-0.002 -0.69525,-0.002 -1.05664,-0.006 z m 9.35352,0.0215 a 1.2337946,1.2337946 0 0 0 -0.48438,0.95508 1.2337946,1.2337946 0 0 0 0.0195,0.0976 h 0.46485 z m -7.91407,4.47851 V 677.5 c -0.64487,0.0658 -1.2655,0.16875 -1.86328,0.30273 a 1.2337946,1.2337946 0 0 0 -0.0508,0.25196 1.2337946,1.2337946 0 0 0 0.24414,0.69726 c 0.49792,-0.15762 1.05224,-0.28159 1.66992,-0.36523 v 0.66797 a 1.2337946,1.2337946 0 0 0 0.55469,-1 1.2337946,1.2337946 0 0 0 -0.55469,-1.02735 z m 3.82618,0.54688 a 1.2337946,1.2337946 0 0 0 -1.14258,1.2168 1.2337946,1.2337946 0 0 0 0.44726,0.93164 v -1.39649 c 0.76004,0.095 1.42889,0.24974 2.01953,0.45313 a 1.2337946,1.2337946 0 0 0 -0.7539,-1.1211 c -0.18827,-0.031 -0.3782,-0.0596 -0.57031,-0.084 z m 5.45117,1.84961 a 1.2337946,1.2337946 0 0 0 -0.0332,0.16797 1.2337946,1.2337946 0 0 0 1.23438,1.23437 1.2337946,1.2337946 0 0 0 0.48828,-0.10547 c -0.49179,-0.47365 -1.05895,-0.90792 -1.68945,-1.29687 z m -15.84375,0.41797 c -0.65333,0.46849 -1.22225,0.98663 -1.69141,1.54492 a 1.2337946,1.2337946 0 0 0 0.54688,0.14258 1.2337946,1.2337946 0 0 0 1.23437,-1.23438 1.2337946,1.2337946 0 0 0 -0.0898,-0.45312 z m 6.95312,1.35742 a 1.2337946,1.2337946 0 0 0 -0.38672,0.0762 v 2.31445 a 1.2337946,1.2337946 0 0 0 0.38672,0.0762 1.2337946,1.2337946 0 0 0 1.23438,-1.23438 1.2337946,1.2337946 0 0 0 -1.23438,-1.23242 z m 12.125,1.59766 a 1.2337946,1.2337946 0 0 0 -0.55469,1.00195 1.2337946,1.2337946 0 0 0 1.14454,1.21679 c -0.0401,-0.76692 -0.24312,-1.51279 -0.58985,-2.21874 z m -9.38086,0.50976 a 1.2337946,1.2337946 0 0 0 -0.64062,1.05859 1.2337946,1.2337946 0 0 0 0.64062,1.06055 z m -9.03711,0.19727 a 1.2337946,1.2337946 0 0 0 -1.23437,1.23437 1.2337946,1.2337946 0 0 0 1.13476,1.21484 c -0.013,-0.22875 -0.0176,-0.44934 -0.0176,-0.6582 0,-0.48629 0.0233,-1.1114 0.14453,-1.78906 a 1.2337946,1.2337946 0 0 0 -0.0274,-0.002 z m 15.37305,0.33007 a 1.2337946,1.2337946 0 0 0 -0.22656,0.0449 c 0.0644,0.47659 0.0898,0.95308 0.0898,1.41601 0,0.29612 -0.01,0.62457 -0.0391,0.9707 a 1.2337946,1.2337946 0 0 0 0.17578,0.0352 1.2337946,1.2337946 0 0 0 1.23242,-1.23242 1.2337946,1.2337946 0 0 0 -1.23242,-1.23438 z m -19.06641,0.67383 a 1.2337946,1.2337946 0 0 0 -0.14648,0.0293 c -0.0368,0.25128 -0.0566,0.50347 -0.0566,0.75781 0,0.57097 0.0905,1.12903 0.26172,1.66797 a 1.2337946,1.2337946 0 0 0 1.17578,-1.2207 1.2337946,1.2337946 0 0 0 -1.23438,-1.23438 z m 9.94141,4.54883 a 1.2337946,1.2337946 0 0 0 -0.3418,0.0684 v 2.33203 a 1.2337946,1.2337946 0 0 0 0.3418,0.0684 1.2337946,1.2337946 0 0 0 1.23438,-1.23437 1.2337946,1.2337946 0 0 0 -1.23438,-1.23438 z m -8.03125,0.29297 a 1.2337946,1.2337946 0 0 0 -0.39453,0.0781 c 0.45162,0.49912 0.98436,0.96058 1.58398,1.37891 a 1.2337946,1.2337946 0 0 0 0.0449,-0.22266 1.2337946,1.2337946 0 0 0 -1.23438,-1.23437 z m 17.23828,0.13281 a 1.2337946,1.2337946 0 0 0 -1.23437,1.23438 1.2337946,1.2337946 0 0 0 0.32422,0.8164 c 0.75148,-0.40114 1.42649,-0.86458 2.00976,-1.37695 a 1.2337946,1.2337946 0 0 0 -1.09961,-0.67383 z m -13.93164,0.72852 a 1.2337946,1.2337946 0 0 0 -0.82226,1.15234 1.2337946,1.2337946 0 0 0 0.0488,0.25 c 0.57329,0.29279 1.18939,0.54808 1.83985,0.76563 a 1.2337946,1.2337946 0 0 0 0.56836,-0.9668 c -0.67113,-0.33497 -1.20673,-0.74457 -1.63477,-1.20117 z m 10.27149,1.30078 c -0.60092,0.28187 -1.30509,0.50709 -2.13086,0.65625 a 1.2337946,1.2337946 0 0 0 -0.0312,0.15234 1.2337946,1.2337946 0 0 0 0.23242,0.67774 c 0.76496,-0.1031 1.49853,-0.256 2.19336,-0.45899 a 1.2337946,1.2337946 0 0 0 0.043,-0.21875 1.2337946,1.2337946 0 0 0 -0.30664,-0.80859 z m -2.94727,3.51953 a 1.2337946,1.2337946 0 0 0 -1.23438,1.23242 1.2337946,1.2337946 0 0 0 1.23438,1.23438 1.2337946,1.2337946 0 0 0 1.11523,-0.71094 c -0.92491,-0.24744 -0.92578,-0.73999 -0.92578,-1.57031 v -0.14844 a 1.2337946,1.2337946 0 0 0 -0.18945,-0.0371 z m -3.10742,1.25391 c -0.24349,0.39738 -0.85001,0.61588 -2.33399,0.68164 a 1.2337946,1.2337946 0 0 0 1.18555,0.99023 1.2337946,1.2337946 0 0 0 1.23438,-1.23437 1.2337946,1.2337946 0 0 0 -0.0859,-0.4375 z m 7.08203,0.70312 a 1.2337946,1.2337946 0 0 0 -0.47266,0.94727 1.2337946,1.2337946 0 0 0 0.0332,0.16406 c 0.57512,0.0168 1.08129,0.0394 1.4375,0.0703 v -1.18164 z"
         transform="scale(0.26458333)" />
    </g>
  </g>
</svg>
