<?xml version="1.0" encoding="UTF-8" standalone="no"?>
<!-- Created with Inkscape (http://www.inkscape.org/) -->

<svg
   version="1.1"
   id="svg2"
   width="188.46446"
   height="188.976"
   viewBox="0 0 188.46447 188.97599"
   sodipodi:docname="mandala.svg"
   inkscape:version="1.1.2 (0a00cf5339, 2022-02-04, custom)"
   xmlns:inkscape="http://www.inkscape.org/namespaces/inkscape"
   xmlns:sodipodi="http://sodipodi.sourceforge.net/DTD/sodipodi-0.dtd"
   xmlns="http://www.w3.org/2000/svg"
   xmlns:svg="http://www.w3.org/2000/svg">
  <defs
     id="defs6" />
  <sodipodi:namedview
     id="namedview4"
     pagecolor="#ffffff"
     bordercolor="#666666"
     borderopacity="1.0"
     inkscape:pageshadow="2"
     inkscape:pageopacity="0.0"
     inkscape:pagecheckerboard="0"
     showgrid="false"
     inkscape:zoom="3.9984808"
     inkscape:cx="187.07105"
     inkscape:cy="42.89129"
     inkscape:window-width="3840"
     inkscape:window-height="2160"
     inkscape:window-x="1920"
     inkscape:window-y="0"
     inkscape:window-maximized="1"
     inkscape:current-layer="g8"
     fit-margin-top="0"
     fit-margin-left="0"
     fit-margin-right="0"
     fit-margin-bottom="0" />
  <g
     inkscape:groupmode="layer"
     inkscape:label="Image"
     id="g8"
     transform="translate(38.574372,3.7242172)">
    <path
       style="fill:#000000"
       id="path934"
       d="" />
    <path
       style="fill:#000000;stroke-width:0.497746"
       d="m 45.900908,184.77184 c -10.779947,-1.38837 -29.482922,-7.23663 -33.887973,-10.59648 -1.263527,-0.96372 -2.6585932,-2.72576 -3.5717462,-4.51129 -1.386826,-2.71172 -1.498391,-3.3217 -1.498188,-8.19141 4.11e-4,-10.14529 1.370198,-34.85953 1.978167,-35.69097 0.368715,-0.50426 0.950362,-0.6861 1.5677912,-0.49013 0.863276,0.27399 9.98921,10.68559 41.624255,47.48831 4.585488,5.33452 8.337244,10.10859 8.337244,10.60901 0,0.50042 -0.433243,1.14172 -0.962764,1.42512 -1.125153,0.60216 -8.768135,0.57845 -13.586786,-0.0422 z m 60.342172,-21.52487 c -2.78099,-0.64306 -88.292494,-38.74569 -89.513418,-39.88585 -0.916945,-0.85626 1.014714,-1.07736 15.598159,-1.78542 19.350403,-0.93949 23.767177,-0.52817 64.706958,6.02584 19.163211,3.06782 35.590571,5.92352 36.505241,6.34599 2.11002,0.97459 3.31294,3.36773 2.87262,5.71488 -0.6477,3.45256 -11.05835,16.56182 -16.25431,20.46769 -4.28758,3.22302 -8.9448,4.26619 -13.91525,3.11687 z M -20.618548,144.16225 c -2.309403,-1.13773 -5.269148,-5.02651 -7.849656,-10.31356 -2.372934,-4.86178 -2.671129,-7.02014 -1.217993,-8.81597 0.950549,-1.17472 0.954774,-1.17511 14.310195,-1.32741 14.2320608,-0.16228 16.32913581,-0.0133 16.7919948,1.1929 0.519944,1.35496 -0.99205399,3.28033 -9.257933,11.78894 -8.8512508,9.11118 -9.1275138,9.27282 -12.7766078,7.4751 z M 135.36121,125.74614 c -0.82128,-0.11118 -15.38035,-1.98366 -32.35348,-4.16095 -16.973131,-2.1773 -31.185051,-4.01352 -31.582038,-4.08051 -0.396987,-0.067 15.618037,-0.98151 35.588938,-2.03228 39.29983,-2.06777 38.69354,-2.07728 39.28536,0.61724 0.32556,1.48229 -0.74533,5.45674 -1.97661,7.33592 -1.45247,2.21676 -4.29458,2.95266 -8.96217,2.32058 z m -150.771483,-7.89691 c -13.596417,-1.33595 -15.612636,-1.97024 -19.193326,-6.03813 -2.896575,-3.29068 -3.578832,-5.97157 -3.869509,-15.205044 -0.285993,-9.08451 -0.253301,-9.1333 4.109627,-6.13209 6.227485,4.28383 34.83556381,27.003054 34.83556381,27.664804 0,1.08553 -2.31794901,1.04327 -15.88235581,-0.28954 z m 30.611017,-0.74453 c -1.659093,-0.67921 -2.499393,-1.93035 -2.518061,-3.7492 -0.0086,-0.84848 4.680027,-24.814954 10.41939,-53.258801 C 34.436987,3.9218135 34.146909,5.0453445 38.305076,1.2124785 c 4.382527,-4.039678 9.576638,-5.395797 18.401915,-4.804523 34.720888,2.326199 62.365189,18.2128075 79.595589,45.7419395 4.85173,7.751654 6.30146,13.947239 3.99795,17.08572 -1.28983,1.75736 -70.110329,46.295445 -75.674602,48.973805 -7.315749,3.52143 -14.46719,5.20684 -30.396772,7.1637 -7.889739,0.96922 -15.128933,1.86578 -16.087097,1.99236 -0.958156,0.12659 -2.281756,0.009 -2.941315,-0.26078 z M 3.6752958,114.16339 C 1.7819918,113.05552 -31.477555,77.147486 -32.628013,74.969206 c -1.092273,-2.06808 -1.242451,-2.965883 -1.228699,-7.345179 0.01447,-4.61301 0.159617,-5.345581 1.925153,-9.717702 C -24.305861,39.022331 -11.68649,23.152937 4.4540538,12.149875 10.12925,8.2810645 19.038667,3.6520285 20.809674,3.6520285 c 1.725068,0 2.506938,1.248953 2.44017,3.897906 C 23.164444,10.938056 7.7605608,112.59085 7.1634838,113.7065 c -0.534484,0.99869 -2.191379,1.21573 -3.488188,0.45689 z m 72.9519032,-1.27833 c 1.99545,-0.87486 65.700421,-19.250394 67.527391,-19.478094 5.07698,-0.63278 6.1424,0.54219 5.61312,6.1903 -0.43196,4.609804 -1.34263,5.743844 -5.24955,6.537264 -1.47744,0.30003 -16.57337,1.88416 -33.54649,3.52026 -16.973141,1.63612 -31.756191,3.08135 -32.851231,3.21162 -1.09504,0.1303 -1.767,0.13868 -1.49324,0.0187 z m -4.479711,-3.66511 c 0.821279,-0.5131 16.948241,-9.972724 35.837702,-21.021384 38.95584,-22.785695 37.34681,-22.063153 39.49398,-17.734925 1.56694,3.15865 1.67813,7.369105 0.26643,10.090125 -2.01615,3.88606 -3.00039,4.30331 -40.98634,17.37521 -19.563721,6.732364 -35.690687,12.236894 -35.837707,12.232274 -0.147019,-0.004 0.404658,-0.4282 1.225935,-0.9413 z"
       id="path1683"
       sodipodi:nodetypes="ssssssssssssssssssssssssssssssssssssssscssssssssscsssssssssssssssssssssscs" />
  </g>
</svg>
