<?xml version="1.0" encoding="UTF-8" standalone="no"?>
<!-- Created with Inkscape (http://www.inkscape.org/) -->

<svg
   version="1.1"
   id="svg974"
   width="173.69136"
   height="188.97638"
   viewBox="0 0 173.69136 188.97638"
   sodipodi:docname="smichoff.svg"
   inkscape:version="1.1.1 (3bf5ae0d25, 2021-09-20, custom)"
   xmlns:inkscape="http://www.inkscape.org/namespaces/inkscape"
   xmlns:sodipodi="http://sodipodi.sourceforge.net/DTD/sodipodi-0.dtd"
   xmlns="http://www.w3.org/2000/svg"
   xmlns:svg="http://www.w3.org/2000/svg">
  <defs
     id="defs978" />
  <sodipodi:namedview
     id="namedview976"
     pagecolor="#ffffff"
     bordercolor="#666666"
     borderopacity="1.0"
     inkscape:pageshadow="2"
     inkscape:pageopacity="0.0"
     inkscape:pagecheckerboard="0"
     showgrid="false"
     inkscape:zoom="0.67595602"
     inkscape:cx="-237.44148"
     inkscape:cy="309.93141"
     inkscape:window-width="1920"
     inkscape:window-height="1080"
     inkscape:window-x="0"
     inkscape:window-y="0"
     inkscape:window-maximized="1"
     inkscape:current-layer="g980"
     fit-margin-top="0"
     fit-margin-left="0"
     fit-margin-right="0"
     fit-margin-bottom="0" />
  <g
     inkscape:groupmode="layer"
     inkscape:label="Image"
     id="g980"
     transform="translate(-632.90877,53.530394)">
    <path
       style="fill:#000000;stroke-width:0.618658"
       d="m 712.97567,135.15018 c -17.51938,-1.43753 -33.40821,-7.56097 -47.34795,-18.24758 -5.36454,-4.11261 -14.09837,-13.66527 -18.07673,-19.771475 -14.10223,-21.64493 -18.10194,-46.174187 -11.63392,-71.348142 3.61602,-14.073716 10.65307,-26.53953748 21.22341,-37.596306 6.18963,-6.474488 11.92733,-11.017214 19.33434,-15.307703 5.07192,-2.937893 15.65092,-7.543901 16.15924,-7.035584 0.15597,0.155979 0.67698,7.348633 1.15777,15.983656 0.48079,8.6350227 1.02861,17.80250762 1.21738,20.372197 l 0.34322,4.6721542 -4.06225,2.9827079 c -7.95991,5.8445829 -14.28763,14.9856829 -17.59028,25.4111569 -2.09208,6.604083 -2.39176,16.939016 -0.69662,24.02429 6.57413,27.478256 35.49947,43.739508 61.85694,34.774752 14.68745,-4.99552 25.71846,-16.102242 30.74841,-30.959403 2.41147,-7.122934 2.82966,-18.260458 0.96277,-25.642961 -2.62556,-10.382681 -9.61997,-21.25162 -17.42638,-27.079634 -2.26973,-1.6945143 -3.07177,-2.7022874 -3.07365,-3.8620538 -0.004,-3.5435786 1.90904,-37.5546522 2.18491,-38.8090352 l 0.29856,-1.357572 3.24759,1.117327 c 9.47518,3.259938 20.35509,10.506174 29.23024,19.46793 3.74538,3.7819283 7.23801,7.4393138 7.76137,8.1275221 9.20457,12.1035748 15.56737,27.7391039 17.3074,42.5301549 0.94154,8.003407 0.50157,21.627444 -0.91365,28.292285 -3.42245,16.117795 -11.48236,31.584922 -22.2936,42.781936 -14.40111,14.91496 -34.25974,24.5747 -53.83339,26.18591 -8.58257,0.70648 -10.60254,0.74333 -16.08513,0.29347 z m -5.83695,-97.980376 c -0.41153,-0.495874 -0.94724,-5.321938 -1.28599,-11.585107 -0.31934,-5.904341 -0.72968,-12.544746 -0.91187,-14.756447 -0.68108,-8.2675738 -2.8414,-49.45992 -2.96876,-56.60726 l -0.13236,-7.423906 18.71443,-0.16374 18.71442,-0.163738 0.0487,1.401062 c 0.1174,3.374242 -0.1741,10.405685 -0.98136,23.672757 -0.47619,7.826034 -1.30673,22.3026442 -1.84567,32.170247 -1.47502,27.006825 -1.91113,33.044556 -2.42389,33.557987 -0.2572,0.25753 -6.26246,0.531205 -13.34501,0.60816 -10.2961,0.11187 -13.01875,-0.03044 -13.58275,-0.710015 z"
       id="path2434" />
  </g>
</svg>
