<?xml version="1.0" encoding="UTF-8" standalone="no"?>
<!-- Created with Inkscape (http://www.inkscape.org/) -->

<svg
   version="1.1"
   id="svg2"
   width="209.88326"
   height="188.97607"
   viewBox="0 0 209.88326 188.97607"
   sodipodi:docname="třináctka.svg"
   inkscape:version="1.1.1 (3bf5ae0d25, 2021-09-20, custom)"
   xmlns:inkscape="http://www.inkscape.org/namespaces/inkscape"
   xmlns:sodipodi="http://sodipodi.sourceforge.net/DTD/sodipodi-0.dtd"
   xmlns="http://www.w3.org/2000/svg"
   xmlns:svg="http://www.w3.org/2000/svg">
  <defs
     id="defs6" />
  <sodipodi:namedview
     id="namedview4"
     pagecolor="#ffffff"
     bordercolor="#666666"
     borderopacity="1.0"
     inkscape:pageshadow="2"
     inkscape:pageopacity="0.0"
     inkscape:pagecheckerboard="0"
     showgrid="false"
     inkscape:zoom="1.9992404"
     inkscape:cx="231.83805"
     inkscape:cy="182.81943"
     inkscape:window-width="1920"
     inkscape:window-height="1080"
     inkscape:window-x="0"
     inkscape:window-y="0"
     inkscape:window-maximized="1"
     inkscape:current-layer="g8"
     fit-margin-top="0"
     fit-margin-left="0"
     fit-margin-right="0"
     fit-margin-bottom="0" />
  <g
     inkscape:groupmode="layer"
     inkscape:label="Image"
     id="g8"
     transform="translate(49.459212,-1.7091758)">
    <path
       style="fill:#000000;stroke-width:0.164215"
       d="m -47.983839,190.38432 c -0.314683,-0.16724 -0.726235,-0.52951 -0.914515,-0.80506 -0.337171,-0.49347 -0.343974,-0.69074 -0.451592,-13.10656 -0.06009,-6.93307 -0.109266,-48.59462 -0.109266,-92.581241 V 3.9157815 l 0.340081,-0.702513 c 0.199634,-0.4123843 0.58959,-0.8576618 0.944237,-1.078188 l 0.604156,-0.3756765 h 16.433458 16.433454 l 0.660255,0.4369361 c 0.363136,0.2403168 0.782848,0.6952729 0.93268,1.0110176 0.252887,0.532951 0.269441,7.2078303 0.230928,93.1654273 l -0.04146,92.591345 -0.394295,0.55283 c -0.216868,0.30406 -0.697188,0.69039 -1.067396,0.85853 -0.641649,0.2914 -1.429138,0.30584 -16.850811,0.30928 -15.433927,0.004 -16.204011,-0.0102 -16.749894,-0.30044 z m 49.9239068,0.11959 C 1.4020383,190.28938 0.81911948,189.73605 0.51486827,189.1511 0.2213887,188.58685 0.19580136,187.4167 0.465281,186.88519 0.57243033,186.67384 17.2607,169.89267 37.550294,149.59368 L 74.440457,112.68644 H 38.742962 c -26.767971,0 -35.8578068,-0.048 -36.3383574,-0.192 C 1.5975566,112.25262 0.68139006,111.25892 0.53216713,110.4635 0.26971739,109.06446 0.33994084,108.97613 7.0033597,102.32577 10.405277,98.930513 26.933431,82.451572 43.732588,65.7059 60.531748,48.960227 74.303609,35.196409 74.336729,35.119636 74.369988,35.042874 57.410576,35.034068 36.649468,35.099983 1.6017103,35.211441 -1.1445594,35.200442 -1.7488589,34.945929 -2.6111106,34.582793 -2.9713516,34.243551 -3.3344953,33.45274 -3.6198867,32.831236 -3.6361386,32.022461 -3.6361386,18.427096 c 0,-13.6366474 0.015496,-14.4029103 0.3041756,-15.0385493 C -2.9709812,2.5937413 -2.3518281,2.0684793 -1.5081603,1.8413016 -1.0984946,1.7309888 25.616152,1.6897618 78.66021,1.7175828 l 79.55401,0.041822 0.66026,0.4369361 c 1.06874,0.707265 1.52376,2.2126946 1.00976,3.3407961 -0.10695,0.2347308 -13.90713,13.968223 -30.6671,30.518867 -16.75994,16.550649 -32.4094,32.009676 -34.776562,34.3534 -3.760348,3.723098 -4.326334,4.349458 -4.481185,4.959227 -0.332824,1.310676 0.300585,2.612161 1.546775,3.178159 0.64482,0.292875 1.905958,0.304327 33.857892,0.307804 l 33.18813,0.0036 0.55408,0.373379 c 1.22703,0.826894 1.67294,2.362112 1.01348,3.489368 -0.15805,0.270198 -16.6157,16.747967 -36.57255,36.617309 -19.95683,19.86934 -44.121018,43.93094 -53.698184,53.47022 -9.57717,9.53926 -17.649529,17.46467 -17.938579,17.61202 -0.479277,0.24431 -2.683817,0.26695 -25.042732,0.25746 -15.881482,-0.007 -24.661767,-0.068 -24.9276485,-0.17409 z"
       id="path845" />
  </g>
</svg>
